<?xml version="1.0" encoding="UTF-8" standalone="no"?>
<!-- Created with Inkscape (http://www.inkscape.org/) -->

<svg
   width="121.50826mm"
   height="5.1018882mm"
   viewBox="0 0 121.50826 5.1018882"
   version="1.1"
   id="svg70130"
   sodipodi:docname="vlajky.svg"
   inkscape:export-filename="/home/krtko/Trojsten/susi_2021-22/vlajky.png"
   inkscape:export-xdpi="223.702"
   inkscape:export-ydpi="223.702"
   inkscape:version="1.1 (c4e8f9ed74, 2021-05-24)"
   xmlns:inkscape="http://www.inkscape.org/namespaces/inkscape"
   xmlns:sodipodi="http://sodipodi.sourceforge.net/DTD/sodipodi-0.dtd"
   xmlns="http://www.w3.org/2000/svg"
   xmlns:svg="http://www.w3.org/2000/svg">
  <sodipodi:namedview
     id="namedview71357"
     pagecolor="#ffffff"
     bordercolor="#666666"
     borderopacity="1.0"
     inkscape:pageshadow="2"
     inkscape:pageopacity="0.0"
     inkscape:pagecheckerboard="0"
     inkscape:document-units="mm"
     showgrid="false"
     inkscape:zoom="5.5211279"
     inkscape:cx="355.18105"
     inkscape:cy="2.8073974"
     inkscape:window-width="861"
     inkscape:window-height="726"
     inkscape:window-x="0"
     inkscape:window-y="0"
     inkscape:window-maximized="1"
     inkscape:current-layer="layer1" />
  <defs
     id="defs70127" />
  <g
     id="layer1">
    <g
       id="g8158-3"
       transform="matrix(0.35211525,0,0,0.35277777,-189.96582,-21.602686)"
       style="fill:#a3009f;fill-opacity:1">
      <path
         d="m 539.81,61.547 h 13.839 l -3.46,6.918 3.46,6.918 H 539.81 Z"
         style="fill:#a3009f;fill-opacity:1;fill-rule:nonzero;stroke:#000000;stroke-width:0.62203;stroke-linecap:butt;stroke-linejoin:miter;stroke-miterlimit:4;stroke-dasharray:none;stroke-opacity:1"
         id="path8160-6" />
    </g>
    <path
       d="m 8.046668,0.10972509 h 4.872919 V 1.3306951 H 8.046668 Z"
       style="fill:#00ff00;fill-opacity:1;fill-rule:nonzero;stroke:none;stroke-width:0.352778"
       id="path8176-1" />
    <path
       d="m 8.046668,3.7712051 h 4.872919 v 1.21956 H 8.046668 Z"
       style="fill:#00ff00;fill-opacity:1;fill-rule:nonzero;stroke:none;stroke-width:0.352778"
       id="path8178-9" />
    <path
       d="m 8.046668,1.3306951 h 4.872919 v 2.44051 H 8.046668 Z"
       style="fill:#4b0082;fill-opacity:1;fill-rule:nonzero;stroke:none;stroke-width:0.352778"
       id="path8180-4" />
    <g
       id="g8182-7"
       transform="matrix(0.35211525,0,0,0.35277777,-182.02832,-33.805269)">
      <path
         d="m 539.81,96.137 h 13.838 v 13.836 H 539.81 Z"
         style="fill:none;stroke:#000000;stroke-width:0.62203;stroke-linecap:butt;stroke-linejoin:miter;stroke-miterlimit:4;stroke-dasharray:none;stroke-opacity:1"
         id="path8184-8" />
    </g>
    <path
       d="m 50.380618,0.10957509 h 4.872919 V 2.5500951 h -4.872919 z"
       style="fill:#0000ff;fill-opacity:1;fill-rule:nonzero;stroke:none;stroke-width:0.352778"
       id="path8186-6-0" />
    <path
       d="m 50.380618,2.5500951 h 4.872919 v 2.44051 h -4.872919 z"
       style="fill:#ff0000;fill-opacity:1;fill-rule:nonzero;stroke:none;stroke-width:0.352778"
       id="path8188-0-2" />
    <g
       id="g8190-6-3"
       transform="matrix(0.35211525,0,0,0.35277777,-139.69498,-39.907266)">
      <path
         d="m 539.81,113.434 h 13.838 V 127.27 H 539.81 Z"
         style="fill:none;stroke:#000000;stroke-width:0.62203;stroke-linecap:butt;stroke-linejoin:miter;stroke-miterlimit:4;stroke-dasharray:none;stroke-opacity:1"
         id="path8192-2-7" />
    </g>
    <path
       d="m 76.83895,0.10992509 h 0.811742 V 4.9909651 H 76.83895 Z"
       style="fill:#ff0000;fill-opacity:1;fill-rule:nonzero;stroke:none;stroke-width:0.352778"
       id="path8208-4" />
    <path
       d="M 77.650692,0.10992509 H 78.46384 V 4.9909651 h -0.813148 z"
       style="fill:#ffff00;fill-opacity:1;fill-rule:nonzero;stroke:none;stroke-width:0.352778"
       id="path8210-5" />
    <path
       d="m 78.46349,0.10992509 h 0.81174 V 4.9909651 h -0.81174 z"
       style="fill:#ff0000;fill-opacity:1;fill-rule:nonzero;stroke:none;stroke-width:0.352778"
       id="path8212-2" />
    <path
       d="m 79.27523,0.10992509 h 0.81174 V 4.9909651 h -0.81174 z"
       style="fill:#ffff00;fill-opacity:1;fill-rule:nonzero;stroke:none;stroke-width:0.352778"
       id="path8214-5" />
    <path
       d="m 80.08697,0.10992509 h 0.81175 V 4.9909651 h -0.81175 z"
       style="fill:#ff0000;fill-opacity:1;fill-rule:nonzero;stroke:none;stroke-width:0.352778"
       id="path8216-4" />
    <path
       d="m 80.89872,0.10992509 h 0.81315 V 4.9909651 h -0.81315 z"
       style="fill:#ffff00;fill-opacity:1;fill-rule:nonzero;stroke:none;stroke-width:0.352778"
       id="path8218-7" />
    <g
       id="g8220-4"
       transform="matrix(0.35211525,0,0,0.35277777,-113.23665,-52.109497)">
      <path
         d="m 539.81,148.023 h 13.838 v 13.836 H 539.81 Z"
         style="fill:none;stroke:#000000;stroke-width:0.62203;stroke-linecap:butt;stroke-linejoin:miter;stroke-miterlimit:4;stroke-dasharray:none;stroke-opacity:1"
         id="path8222-4" />
    </g>
    <path
       d="m 111.02523,0.10957509 h 2.43629 V 4.9906051 h -2.43629 z"
       style="fill:#0000ff;fill-opacity:1;fill-rule:nonzero;stroke:none;stroke-width:0.352778"
       id="path8248-6" />
    <path
       d="m 108.58895,0.10957509 h 2.43628 V 4.9906051 h -2.43628 z"
       style="fill:#ffff00;fill-opacity:1;fill-rule:nonzero;stroke:none;stroke-width:0.352778"
       id="path8250-56" />
    <g
       id="g8252-93"
       transform="matrix(0.35211525,0,0,0.35277777,-81.486653,-76.516074)">
      <path
         d="m 539.81,217.207 h 13.838 v 13.836 H 539.81 Z"
         style="fill:none;stroke:#000000;stroke-width:0.62203;stroke-linecap:butt;stroke-linejoin:miter;stroke-miterlimit:4;stroke-dasharray:none;stroke-opacity:1"
         id="path8254-7" />
    </g>
    <path
       d="m 44.879401,0.10957509 h 2.436283 V 4.9906051 h -2.436283 z"
       style="fill:#00ff00;fill-opacity:1;fill-rule:nonzero;stroke:none;stroke-width:0.352778"
       id="path8248-3" />
    <path
       d="m 42.443117,0.10957509 h 2.436284 V 4.9906051 h -2.436284 z"
       style="fill:#ff6600;fill-opacity:1;fill-rule:nonzero;stroke:none;stroke-width:0.352778"
       id="path8250-20" />
    <g
       id="g8252-6"
       transform="matrix(0.35211525,0,0,0.35277777,-147.63248,-76.516074)">
      <path
         d="m 539.81,217.207 h 13.838 v 13.836 H 539.81 Z"
         style="fill:none;stroke:#000000;stroke-width:0.62203;stroke-linecap:butt;stroke-linejoin:miter;stroke-miterlimit:4;stroke-dasharray:none;stroke-opacity:1"
         id="path8254-1" />
    </g>
    <path
       d="M 26.358565,0.10957509 H 28.79485 V 4.9906051 h -2.436285 z"
       style="fill:#4b0082;fill-opacity:1;fill-rule:nonzero;stroke:none;stroke-width:0.352778"
       id="path8248-1" />
    <path
       d="m 23.922282,0.10957509 h 2.436283 V 4.9906051 h -2.436283 z"
       style="fill:#00ff00;fill-opacity:1;fill-rule:nonzero;stroke:none;stroke-width:0.352778"
       id="path8250-2" />
    <g
       id="g8252-9"
       transform="matrix(0.35211525,0,0,0.35277777,-166.15332,-76.516074)">
      <path
         d="m 539.81,217.207 h 13.838 v 13.836 H 539.81 Z"
         style="fill:none;stroke:#000000;stroke-width:0.62203;stroke-linecap:butt;stroke-linejoin:miter;stroke-miterlimit:4;stroke-dasharray:none;stroke-opacity:1"
         id="path8254-3" />
    </g>
    <g
       id="g8332-5"
       transform="matrix(0.35211525,0,0,0.35277777,-129.11165,-113.12488)"
       style="fill:#ff6600">
      <path
         d="m 539.81,320.98 h 13.838 v 13.84 H 539.81 Z"
         style="fill:#ff6600;fill-opacity:1;fill-rule:nonzero;stroke:#000000;stroke-width:0.62203;stroke-linecap:butt;stroke-linejoin:miter;stroke-miterlimit:4;stroke-dasharray:none;stroke-opacity:1"
         id="path8334-5" />
    </g>
    <path
       d="m 100.65145,3.3646551 h 1.62454 v 1.62595 h -1.62454 z"
       style="fill:#0000ff;fill-opacity:1;fill-rule:nonzero;stroke:none;stroke-width:0.352778"
       id="path8336-1" />
    <path
       d="m 103.89948,3.3646551 h 1.62454 v 1.62595 h -1.62454 z"
       style="fill:#0000ff;fill-opacity:1;fill-rule:nonzero;stroke:none;stroke-width:0.352778"
       id="path8338-7" />
    <path
       d="M 102.27599,0.10992509 V 1.7372951 h -1.62454 v 1.62736 h 1.62454 v 1.62631 h 1.62349 v -1.62631 h 1.62454 v -1.62736 h -1.62454 V 0.10992509 Z"
       style="fill:#a3009f;fill-opacity:1;fill-rule:nonzero;stroke:none;stroke-width:0.352778"
       id="path8340-27" />
    <path
       d="m 100.65145,0.10992509 h 1.62454 V 1.7372951 h -1.62454 z"
       style="fill:#0000ff;fill-opacity:1;fill-rule:nonzero;stroke:none;stroke-width:0.352778"
       id="path8342-2" />
    <path
       d="m 103.89948,0.10992509 h 1.62454 V 1.7372951 h -1.62454 z"
       style="fill:#0000ff;fill-opacity:1;fill-rule:nonzero;stroke:none;stroke-width:0.352778"
       id="path8344-2" />
    <g
       id="g8346-6"
       transform="matrix(0.35211525,0,0,0.35277777,-89.424153,-119.22688)">
      <path
         d="m 539.81,338.277 h 13.838 v 13.836 H 539.81 Z"
         style="fill:none;stroke:#000000;stroke-width:0.62203;stroke-linecap:butt;stroke-linejoin:miter;stroke-miterlimit:4;stroke-dasharray:none;stroke-opacity:1"
         id="path8348-1" />
    </g>
    <path
       d="m 15.98478,3.3646551 h 1.624542 v 1.62595 H 15.98478 Z"
       style="fill:#ff6600;fill-opacity:1;fill-rule:nonzero;stroke:none;stroke-width:0.352778"
       id="path8336-9-5" />
    <path
       d="m 19.232805,3.3646551 h 1.624542 v 1.62595 h -1.624542 z"
       style="fill:#ff6600;fill-opacity:1;fill-rule:nonzero;stroke:none;stroke-width:0.352778"
       id="path8338-1-9" />
    <path
       d="M 17.609322,0.10992509 V 1.7372951 H 15.98478 v 1.62736 h 1.624542 v 1.62631 h 1.623483 v -1.62631 h 1.624542 v -1.62736 H 19.232805 V 0.10992509 Z"
       style="fill:#00ff00;fill-opacity:1;fill-rule:nonzero;stroke:none;stroke-width:0.352778"
       id="path8340-2-2" />
    <path
       d="m 15.98478,0.10992509 h 1.624542 V 1.7372951 H 15.98478 Z"
       style="fill:#ff6600;fill-opacity:1;fill-rule:nonzero;stroke:none;stroke-width:0.352778"
       id="path8342-7-2" />
    <path
       d="m 19.232805,0.10992509 h 1.624542 V 1.7372951 h -1.624542 z"
       style="fill:#ff6600;fill-opacity:1;fill-rule:nonzero;stroke:none;stroke-width:0.352778"
       id="path8344-0-8" />
    <g
       id="g8346-9-9"
       transform="matrix(0.35211525,0,0,0.35277777,-174.09082,-119.22688)">
      <path
         d="m 539.81,338.277 h 13.838 v 13.836 H 539.81 Z"
         style="fill:none;stroke:#000000;stroke-width:0.62203;stroke-linecap:butt;stroke-linejoin:miter;stroke-miterlimit:4;stroke-dasharray:none;stroke-opacity:1"
         id="path8348-3-7" />
    </g>
    <path
       d="M 116.52645,0.10957509 V 1.0867651 l 0.97437,-0.97719001 z"
       style="fill:#0000ff;fill-opacity:1;fill-rule:nonzero;stroke:none;stroke-width:0.352778"
       id="path8426-0" />
    <path
       d="m 116.52645,1.0867651 v 0.97544 l 1.94839,-1.95263001 h -0.97402 z"
       style="fill:#ffff00;fill-opacity:1;fill-rule:nonzero;stroke:none;stroke-width:0.352778"
       id="path8428-6" />
    <path
       d="m 116.52645,2.0622051 v 0.97578 l 2.92276,-2.92841001 h -0.97437 z"
       style="fill:#0000ff;fill-opacity:1;fill-rule:nonzero;stroke:none;stroke-width:0.352778"
       id="path8430-1" />
    <path
       d="m 116.52645,3.0379851 v 0.97684 L 120.425,0.10957509 h -0.97579 z"
       style="fill:#ffff00;fill-opacity:1;fill-rule:nonzero;stroke:none;stroke-width:0.352778"
       id="path8432-5" />
    <path
       d="m 121.39902,0.10957509 -4.87257,4.88103001 v -0.97578 L 120.425,0.10957509 Z"
       style="fill:#0000ff;fill-opacity:1;fill-rule:nonzero;stroke:none;stroke-width:0.352778"
       id="path8434-9" />
    <path
       d="m 121.39902,4.9906051 v -0.97578 l -0.97402,0.97578 z"
       style="fill:#ffff00;fill-opacity:1;fill-rule:nonzero;stroke:none;stroke-width:0.352778"
       id="path8436-4" />
    <path
       d="m 121.39902,4.0148251 v -0.97684 l -1.94981,1.95262 h 0.97579 z"
       style="fill:#0000ff;fill-opacity:1;fill-rule:nonzero;stroke:none;stroke-width:0.352778"
       id="path8438-9" />
    <path
       d="m 121.39902,3.0379851 v -0.97578 l -2.92418,2.9284 h 0.97437 z"
       style="fill:#ffff00;fill-opacity:1;fill-rule:nonzero;stroke:none;stroke-width:0.352778"
       id="path8440-0" />
    <path
       d="m 121.39902,2.0622051 v -0.97544 l -3.8982,3.90384 h 0.97402 z"
       style="fill:#0000ff;fill-opacity:1;fill-rule:nonzero;stroke:none;stroke-width:0.352778"
       id="path8442-9" />
    <path
       d="m 116.52645,4.9906051 4.87257,-4.88103001 V 1.0867651 l -3.8982,3.90384 z"
       style="fill:#ffff00;fill-opacity:1;fill-rule:nonzero;stroke:none;stroke-width:0.352778"
       id="path8444-17" />
    <g
       id="g8446-7"
       transform="matrix(0.35211525,0,0,0.35277777,-73.549153,-161.93804)">
      <path
         d="m 539.81,459.348 h 13.838 v 13.836 H 539.81 Z"
         style="fill:none;stroke:#000000;stroke-width:0.62203;stroke-linecap:butt;stroke-linejoin:miter;stroke-miterlimit:4;stroke-dasharray:none;stroke-opacity:1"
         id="path8448-1" />
    </g>
    <path
       d="M 92.71395,0.10957509 V 1.0867651 l 0.97438,-0.97719001 z"
       style="fill:#ffff00;fill-opacity:1;fill-rule:nonzero;stroke:none;stroke-width:0.352778"
       id="path8426-2" />
    <path
       d="m 92.71395,1.0867651 v 0.97544 l 1.94839,-1.95263001 h -0.97401 z"
       style="fill:#ff0000;fill-opacity:1;fill-rule:nonzero;stroke:none;stroke-width:0.352778"
       id="path8428-06" />
    <path
       d="m 92.71395,2.0622051 v 0.97578 l 2.92277,-2.92841001 h -0.97438 z"
       style="fill:#ffff00;fill-opacity:1;fill-rule:nonzero;stroke:none;stroke-width:0.352778"
       id="path8430-8" />
    <path
       d="m 92.71395,3.0379851 v 0.97684 L 96.6125,0.10957509 h -0.97578 z"
       style="fill:#ff0000;fill-opacity:1;fill-rule:nonzero;stroke:none;stroke-width:0.352778"
       id="path8432-9" />
    <path
       d="M 97.58652,0.10957509 92.71395,4.9906051 v -0.97578 L 96.6125,0.10957509 Z"
       style="fill:#ffff00;fill-opacity:1;fill-rule:nonzero;stroke:none;stroke-width:0.352778"
       id="path8434-2" />
    <path
       d="m 97.58652,4.9906051 v -0.97578 l -0.97402,0.97578 z"
       style="fill:#ff0000;fill-opacity:1;fill-rule:nonzero;stroke:none;stroke-width:0.352778"
       id="path8436-6" />
    <path
       d="m 97.58652,4.0148251 v -0.97684 l -1.9498,1.95262 h 0.97578 z"
       style="fill:#ffff00;fill-opacity:1;fill-rule:nonzero;stroke:none;stroke-width:0.352778"
       id="path8438-6" />
    <path
       d="m 97.58652,3.0379851 v -0.97578 l -2.92418,2.9284 h 0.97438 z"
       style="fill:#ff0000;fill-opacity:1;fill-rule:nonzero;stroke:none;stroke-width:0.352778"
       id="path8440-49" />
    <path
       d="m 97.58652,2.0622051 v -0.97544 l -3.89819,3.90384 h 0.97401 z"
       style="fill:#ffff00;fill-opacity:1;fill-rule:nonzero;stroke:none;stroke-width:0.352778"
       id="path8442-5" />
    <path
       d="M 92.71395,4.9906051 97.58652,0.10957509 V 1.0867651 l -3.89819,3.90384 z"
       style="fill:#ff0000;fill-opacity:1;fill-rule:nonzero;stroke:none;stroke-width:0.352778"
       id="path8444-0" />
    <g
       id="g8446-48"
       transform="matrix(0.35211525,0,0,0.35277777,-97.361653,-161.93804)">
      <path
         d="m 539.81,459.348 h 13.838 v 13.836 H 539.81 Z"
         style="fill:none;stroke:#000000;stroke-width:0.62203;stroke-linecap:butt;stroke-linejoin:miter;stroke-miterlimit:4;stroke-dasharray:none;stroke-opacity:1"
         id="path8448-7" />
    </g>
    <path
       d="M 84.77645,0.10957509 V 1.0867651 l 0.97437,-0.97719001 z"
       style="fill:#00ff00;fill-opacity:1;fill-rule:nonzero;stroke:none;stroke-width:0.352778"
       id="path8426-3" />
    <path
       d="m 84.77645,1.0867651 v 0.97544 l 1.94839,-1.95263001 h -0.97402 z"
       style="fill:#ff6600;fill-opacity:1;fill-rule:nonzero;stroke:none;stroke-width:0.352778"
       id="path8428-0" />
    <path
       d="m 84.77645,2.0622051 v 0.97578 l 2.92276,-2.92841001 h -0.97437 z"
       style="fill:#00ff00;fill-opacity:1;fill-rule:nonzero;stroke:none;stroke-width:0.352778"
       id="path8430-7" />
    <path
       d="m 84.77645,3.0379851 v 0.97684 L 88.675,0.10957509 h -0.97579 z"
       style="fill:#ff6600;fill-opacity:1;fill-rule:nonzero;stroke:none;stroke-width:0.352778"
       id="path8432-8" />
    <path
       d="M 89.64902,0.10957509 84.77645,4.9906051 v -0.97578 L 88.675,0.10957509 Z"
       style="fill:#00ff00;fill-opacity:1;fill-rule:nonzero;stroke:none;stroke-width:0.352778"
       id="path8434-6" />
    <path
       d="m 89.64902,4.9906051 v -0.97578 l -0.97402,0.97578 z"
       style="fill:#ff6600;fill-opacity:1;fill-rule:nonzero;stroke:none;stroke-width:0.352778"
       id="path8436-8" />
    <path
       d="m 89.64902,4.0148251 v -0.97684 l -1.94981,1.95262 H 88.675 Z"
       style="fill:#00ff00;fill-opacity:1;fill-rule:nonzero;stroke:none;stroke-width:0.352778"
       id="path8438-8" />
    <path
       d="m 89.64902,3.0379851 v -0.97578 l -2.92418,2.9284 h 0.97437 z"
       style="fill:#ff6600;fill-opacity:1;fill-rule:nonzero;stroke:none;stroke-width:0.352778"
       id="path8440-4" />
    <path
       d="m 89.64902,2.0622051 v -0.97544 l -3.8982,3.90384 h 0.97402 z"
       style="fill:#00ff00;fill-opacity:1;fill-rule:nonzero;stroke:none;stroke-width:0.352778"
       id="path8442-3" />
    <path
       d="M 84.77645,4.9906051 89.64902,0.10957509 V 1.0867651 l -3.8982,3.90384 z"
       style="fill:#ff6600;fill-opacity:1;fill-rule:nonzero;stroke:none;stroke-width:0.352778"
       id="path8444-1" />
    <g
       id="g8446-4"
       transform="matrix(0.35211525,0,0,0.35277777,-105.29915,-161.93804)">
      <path
         d="m 539.81,459.348 h 13.838 v 13.836 H 539.81 Z"
         style="fill:none;stroke:#000000;stroke-width:0.62203;stroke-linecap:butt;stroke-linejoin:miter;stroke-miterlimit:4;stroke-dasharray:none;stroke-opacity:1"
         id="path8448-9" />
    </g>
    <path
       d="M 31.859783,0.10957509 36.732351,4.9906051 V 0.10957509 Z"
       style="fill:#ff0000;fill-opacity:1;fill-rule:nonzero;stroke:none;stroke-width:0.352778"
       id="path8318-6" />
    <path
       d="m 31.859783,4.9906051 h 4.872568 L 31.859783,0.10957509 Z"
       style="fill:#ffff00;fill-opacity:1;fill-rule:nonzero;stroke:none;stroke-width:0.352778"
       id="path8320-1" />
    <g
       id="g8322-0"
       transform="matrix(0.35211525,0,0,0.35277777,-158.21582,-100.92265)">
      <path
         d="m 539.81,286.391 h 13.838 v 13.836 H 539.81 Z"
         style="fill:none;stroke:#000000;stroke-width:0.62203;stroke-linecap:butt;stroke-linejoin:miter;stroke-miterlimit:4;stroke-dasharray:none;stroke-opacity:1"
         id="path8324-6" />
    </g>
    <g
       id="g8332-4"
       transform="matrix(0.35211525,0,0,0.35277777,-121.17415,-113.12488)"
       style="fill:#00ff00">
      <path
         d="m 539.81,320.98 h 13.838 v 13.84 H 539.81 Z"
         style="fill:#00ff00;fill-opacity:1;fill-rule:nonzero;stroke:#000000;stroke-width:0.62203;stroke-linecap:butt;stroke-linejoin:miter;stroke-miterlimit:4;stroke-dasharray:none;stroke-opacity:1"
         id="path8334-7" />
    </g>
  </g>
</svg>
