<svg xml:space="preserve" width="387.9" height="303.7"><g transform="matrix(1.33333 0 0 -1.33333 -40 982.6)"><path fill="#a3ffa3" d="M162.6 717.5h23.2v-24.8h-23.2z"/><path d="m184.9 706.1-10.2 9.1h-.1c-.2.3-.6.3-.8.1l-10.2-9.1a.6.6 0 0 1 .8-.9l1.8 1.6v-10.6c0-.9.7-1.6 1.5-1.6h3.3c.7 0 1.4.7 1.4 1.5v5.4c0 .1 0 .2.2.2h3.2c.2 0 .3-.1.3-.2v-5.4c0-.8.6-1.5 1.4-1.5h3.2c.9 0 1.5.9 1.5 2v10l1.9-1.6a.6.6 0 0 1 .8 0c.2.3.2.7 0 .9zm-3.9-3v-6.5c0-.4-.2-.6-.3-.6h-3.2c-.1 0-.2 0-.2.2v5.4c0 .8-.7 1.4-1.5 1.4h-3.2c-.8 0-1.4-.6-1.4-1.4v-5.4c0-.2-.1-.3-.3-.3h-3.1c-.2 0-.4.2-.4.4V708l6.8 6 6.8-6z"/><path fill="#a3ffa3" d="M162.6 669.5h23.2v-24h-23.2z"/><path d="m184.9 658.5-10.2 9.1h-.1c-.2.3-.6.3-.8 0l-10.2-9a.6.6 0 0 1 .8-.9l1.8 1.6v-10.7c0-.8.7-1.5 1.5-1.5h3.3c.7 0 1.4.7 1.4 1.4v5.5s0 .2.2.2h3.2c.2 0 .3-.1.3-.2v-5.5c0-.7.6-1.4 1.4-1.4h3.2c.9 0 1.5.8 1.5 2v10l1.9-1.6a.6.6 0 0 1 .8 0c.2.3.2.7 0 .9zm-3.9-3V649c0-.4-.2-.7-.3-.7h-3.2l-.2.2v5.5c0 .7-.7 1.4-1.5 1.4h-3.2c-.8 0-1.4-.7-1.4-1.4v-5.5s-.1-.2-.3-.2h-3.1c-.2 0-.4.2-.4.3v11.8l6.8 6 6.8-6.1z"/><path fill="#a3ffa3" d="M72.6 646.2h23.2v-24.7H72.6z"/><path d="m94.9 634.9-10.2 9-.1.1c-.2.2-.6.3-.8 0l-10.2-9a.6.6 0 0 1 .8-.9l1.8 1.6V625c0-.8.7-1.5 1.5-1.5H81c.7 0 1.4.6 1.4 1.4v5.4c0 .1 0 .2.2.2h3.2c.2 0 .3 0 .3-.2V625c0-.8.6-1.4 1.4-1.4h3.2c.9 0 1.5.8 1.5 1.9v10.2l1.9-1.6a.6.6 0 0 1 .8 0c.2.3.2.6 0 .9zm-3.9-3v-6.5c0-.4-.2-.7-.3-.7h-3.2l-.2.2v5.4c0 .8-.7 1.5-1.5 1.5h-3.2c-.8 0-1.4-.7-1.4-1.5V625c0-.1-.1-.2-.3-.2h-3.1c-.2 0-.4.1-.4.3v11.6l6.8 6 6.8-6z"/><path fill="#a3ffa3" d="M252.6 646.2h23.2v-24.7h-23.2z"/><path d="m274.9 634.9-10.2 9-.1.1c-.2.2-.6.3-.8 0l-10.2-9a.6.6 0 0 1 .8-.9l1.8 1.6V625c0-.8.7-1.5 1.5-1.5h3.3c.7 0 1.4.6 1.4 1.4v5.4c0 .1 0 .2.2.2h3.2c.2 0 .3 0 .3-.2V625c0-.8.6-1.4 1.4-1.4h3.2c.9 0 1.5.8 1.5 1.9v10.2l1.9-1.6a.6.6 0 0 1 .8 0c.2.3.2.6 0 .9zm-3.9-3v-6.5c0-.4-.2-.7-.3-.7h-3.2l-.2.2v5.4c0 .8-.7 1.5-1.5 1.5h-3.2c-.8 0-1.4-.7-1.4-1.5V625c0-.1-.1-.2-.3-.2h-3.1c-.2 0-.4.1-.4.3v11.6l6.8 6 6.8-6z"/><path fill="#a3ffa3" d="M140 599h23.3v-24h-23.2zm0-47.3h23.3V527h-23.2z"/><path d="m162.4 540.4-10.2 9-.1.1c-.2.2-.6.3-.8 0l-10.2-9a.6.6 0 0 1 .8-.9l1.8 1.6v-10.7c0-.8.7-1.5 1.5-1.5h3.4c.7 0 1.4.6 1.4 1.4v5.4c0 .1 0 .2.2.2h3.2c.2 0 .3 0 .3-.2v-5.4c0-.8.6-1.4 1.4-1.4h3.2c.9 0 1.5.8 1.5 1.9V541l1.9-1.6a.6.6 0 0 1 .8 0c.2.3.2.6 0 .9zm-3.9-3v-6.5c0-.4-.2-.7-.3-.7H155l-.2.2v5.4c0 .8-.7 1.5-1.5 1.5h-3.2c-.8 0-1.4-.7-1.4-1.5v-5.4c0-.1-.1-.2-.3-.2h-3.1c-.2 0-.4.1-.4.3v11.7l6.8 6 6.8-6z"/><path fill="#a3ffa3" d="M207.6 551.7h23.2V527h-23.2z"/><path d="m229.9 540.4-10.2 9-.1.1c-.2.2-.6.3-.8 0l-10.2-9a.6.6 0 0 1 .8-.9l1.8 1.6v-10.7c0-.8.7-1.5 1.5-1.5h3.3c.7 0 1.4.6 1.4 1.4v5.4c0 .1 0 .2.2.2h3.2c.2 0 .3 0 .3-.2v-5.4c0-.8.6-1.4 1.4-1.4h3.2c.9 0 1.5.8 1.5 1.9V541l1.9-1.6a.6.6 0 0 1 .8 0c.2.3.2.6 0 .9zm-3.9-3v-6.5c0-.4-.2-.7-.3-.7h-3.2l-.2.2v5.4c0 .8-.7 1.5-1.5 1.5h-3.2c-.8 0-1.4-.7-1.4-1.5v-5.4c0-.1-.1-.2-.3-.2h-3.1c-.2 0-.4.1-.4.3v11.7l6.8 6 6.8-6z"/><path fill="none" stroke="#000" stroke-miterlimit="10" stroke-width="1.5" d="M297.6 575.7V527m-22.6.7h23.3m-.7 67.5v-15.7m-.8 15h24m-24-14.3h24m-.7 15v-15.7m-22.5 39v-15.8m-.8 15h24m-24-14.2h24m-.7 15v-15.8m-22.5 43.5v-24.7m0 44.2V650m-.8 15h24m-24-14.3h24m-.7 15V650m-22.5 68.2v-49.5m-225 48.8h225.7M185 527.7h68.3m-204 0h114M50 551.7V527m0 72v-24m0 142.5v-96M50 737v-15.8m-.7 15h24m-24-14.2h24m-.7 15v-15.8"/><path fill="none" stroke="#000" stroke-miterlimit="10" stroke-width=".8" d="M50.8 693h22.5m-22.5-47.2h22.5m-22.5-47.2h22.5m-.3 23.6v-24m-.4 70.9h23.2m-.3 24.4v-48m-23-70.2h23.3m-.3 47V575M118 716.7v-48m0-22.5v-24.7m-45.4-70.2h45.7m-.3 24.4V551m22.5 142.5v-48m-45.4-47h45.7M163 716.8v-48m-68-22.9h68.3M163 599v-24m22.5 94.5v-71.3m-23 94.9h45.8m-.3.4v-48m0-46.5v-24m-68-23.7h68.3m22.2 165.4v-24m0-46.5v-48m0-22.5V551m-23 118h45.8m-.3 24.5v-24.8m0-69.7v-24m0-23.3v-23.2m-.4 164.6h23.2m-135.7-71.3h135.7m-23.2-70.5h23.2m-.7 117.8h21.7m-44.2-23.3h44.2m-44.2-47.2h45.7m-180.7-23.3h179.2"/><text x="34.5" y="-606" stroke-width=".8" font-family="Minion Pro" font-size="14" font-weight="400" style="-inkscape-font-specification:'Minion Pro'" transform="scale(1 -1)"><tspan x="34.5" y="-606" style="-inkscape-font-specification:'Minion Pro'">4</tspan></text><text x="34.4" y="-558.9" stroke-width=".8" font-family="Minion Pro" font-size="14" font-weight="400" style="-inkscape-font-specification:'Minion Pro'" transform="scale(1 -1)"><tspan x="34.4" y="-558.9" style="-inkscape-font-specification:'Minion Pro'">1</tspan></text><text x="171" y="-512.6" stroke-width=".8" font-family="Minion Pro" font-size="14" font-weight="400" style="-inkscape-font-specification:'Minion Pro'" transform="scale(1 -1)"><tspan x="171" y="-512.6" style="-inkscape-font-specification:'Minion Pro'">2</tspan></text><text x="261.3" y="-512.7" stroke-width=".8" font-family="Minion Pro" font-size="14" font-weight="400" style="-inkscape-font-specification:'Minion Pro'" transform="scale(1 -1)"><tspan x="261.3" y="-512.7" style="-inkscape-font-specification:'Minion Pro'">3</tspan></text><text xml:space="preserve" x="58.1" y="-724.7" stroke-width=".8" font-family="Minion Pro" font-size="14" letter-spacing="0" style="line-height:1.25;-inkscape-font-specification:'Minion Pro'" transform="scale(1 -1)" word-spacing="0"><tspan x="58.1" y="-724.7">3</tspan></text><text xml:space="preserve" x="305.4" y="-653.4" stroke-width=".4" font-family="Minion Pro" font-size="14" letter-spacing="0" style="line-height:1.25;-inkscape-font-specification:'Minion Pro'" transform="scale(1 -1)" word-spacing="0"><tspan x="305.4" y="-653.4">1</tspan></text><text xml:space="preserve" x="305.5" y="-606.1" stroke-width=".8" font-family="Minion Pro" font-size="14" letter-spacing="0" style="line-height:1.25;-inkscape-font-specification:'Minion Pro'" transform="scale(1 -1)" word-spacing="0"><tspan x="305.5" y="-606.1">2</tspan></text><text xml:space="preserve" x="305.5" y="-582.9" stroke-width=".8" font-family="Minion Pro" font-size="14" letter-spacing="0" style="line-height:1.25;-inkscape-font-specification:'Minion Pro'" transform="scale(1 -1)" word-spacing="0"><tspan x="305.5" y="-582.9">4</tspan></text><circle cx="37.8" cy="-610.4" r="7.1" fill="none" stroke="#000" stroke-linecap="square" stroke-linejoin="bevel" stroke-width="1.5" paint-order="markers fill stroke" transform="scale(1 -1)"/><circle cx="37.8" cy="-563.3" r="7.1" fill="none" stroke="#000" stroke-linecap="square" stroke-linejoin="bevel" stroke-width="1.5" paint-order="markers fill stroke" transform="scale(1 -1)"/><circle cx="174.3" cy="-517.1" r="7.1" fill="none" stroke="#000" stroke-linecap="square" stroke-linejoin="bevel" stroke-width="1.5" paint-order="markers fill stroke" transform="scale(1 -1)"/><circle cx="264.6" cy="-517.1" r="7.1" fill="none" stroke="#000" stroke-linecap="square" stroke-linejoin="bevel" stroke-width="1.5" paint-order="markers fill stroke" transform="scale(1 -1)"/><text xml:space="preserve" x="145.7" y="-538.7" stroke-width=".8" font-family="Minion Pro" font-size="8" letter-spacing="0" style="line-height:1.25;-inkscape-font-specification:'Minion Pro'" transform="scale(1 -1)" word-spacing="0"><tspan x="145.7" y="-538.7">4, 6</tspan></text><text xml:space="preserve" x="217.2" y="-538.4" stroke-width=".8" font-family="Minion Pro" font-size="8" letter-spacing="0" style="line-height:1.25;-inkscape-font-specification:'Minion Pro'" transform="scale(1 -1)" word-spacing="0"><tspan x="217.2" y="-538.4">7</tspan></text><text xml:space="preserve" x="149.8" y="-586" stroke-width=".3" font-family="Minion Pro" font-size="8" letter-spacing="0" style="line-height:1.25;-inkscape-font-specification:'Minion Pro'" transform="scale(1 -1)" word-spacing="0"><tspan x="149.8" y="-586">9</tspan></text><text xml:space="preserve" x="82.3" y="-632.8" stroke-width=".8" font-family="Minion Pro" font-size="8" letter-spacing="0" style="line-height:1.25;-inkscape-font-specification:'Minion Pro'" transform="scale(1 -1)" word-spacing="0"><tspan x="82.3" y="-632.8">2</tspan></text><text xml:space="preserve" x="172.2" y="-656.4" stroke-width=".8" font-family="Minion Pro" font-size="8" letter-spacing="0" style="line-height:1.25;-inkscape-font-specification:'Minion Pro'" transform="scale(1 -1)" word-spacing="0"><tspan x="172.2" y="-656.4">1</tspan></text><text xml:space="preserve" x="168.6" y="-704.5" stroke-width=".8" font-family="Minion Pro" font-size="8" letter-spacing="0" style="line-height:1.25;-inkscape-font-specification:'Minion Pro'" transform="scale(1 -1)" word-spacing="0"><tspan x="168.6" y="-704.5">3, 8</tspan></text><text xml:space="preserve" x="262.3" y="-632.9" stroke-width=".8" font-family="Minion Pro" font-size="8" letter-spacing="0" style="line-height:1.25;-inkscape-font-specification:'Minion Pro'" transform="scale(1 -1)" word-spacing="0"><tspan x="262.3" y="-632.9">5</tspan></text><path d="m162.4 588-10.2 9.1h-.1c-.2.3-.6.3-.8 0l-10.2-9a.6.6 0 0 1 .8-.9l1.8 1.6V578c0-.8.7-1.5 1.5-1.5h3.4c.7 0 1.4.7 1.4 1.4v5.5s0 .2.2.2h3.2c.2 0 .3-.1.3-.2V578c0-.7.6-1.4 1.4-1.4h3.2c.9 0 1.5.8 1.5 2v10l1.9-1.6a.6.6 0 0 1 .8 0c.2.3.2.7 0 .9zm-3.9-3v-6.5c0-.4-.2-.7-.3-.7H155l-.2.2v5.5c0 .7-.7 1.4-1.5 1.4h-3.2c-.8 0-1.4-.7-1.4-1.4V578s-.1-.2-.3-.2h-3.1c-.2 0-.4.2-.4.3V590l6.8 6 6.8-6.1z"/></g></svg>