<?xml version="1.0" encoding="UTF-8" standalone="no"?>
<!-- Created with Inkscape (http://www.inkscape.org/) -->

<svg
   version="1.1"
   id="svg1"
   width="999.88763"
   height="810.78094"
   viewBox="0 0 999.88768 810.78094"
   sodipodi:docname="kubizmus.svg"
   inkscape:version="1.3.2 (091e20ef0f, 2023-11-25, custom)"
   xmlns:inkscape="http://www.inkscape.org/namespaces/inkscape"
   xmlns:sodipodi="http://sodipodi.sourceforge.net/DTD/sodipodi-0.dtd"
   xmlns="http://www.w3.org/2000/svg"
   xmlns:svg="http://www.w3.org/2000/svg">
  <sodipodi:namedview
     id="namedview1"
     pagecolor="#ffffff"
     bordercolor="#999999"
     borderopacity="1"
     inkscape:showpageshadow="0"
     inkscape:pageopacity="0"
     inkscape:pagecheckerboard="0"
     inkscape:deskcolor="#d1d1d1"
     inkscape:zoom="0.79375002"
     inkscape:cx="519.0551"
     inkscape:cy="373.5433"
     inkscape:window-width="1916"
     inkscape:window-height="1020"
     inkscape:window-x="0"
     inkscape:window-y="0"
     inkscape:window-maximized="0"
     inkscape:current-layer="svg1" />
  <defs
     id="defs1" />
  <path
     id="path1"
     d="m 539.9813,257.83312 h 76.37466 c 0.204,0 0.37067,0.16666 0.37067,0.37066 v 76.37467 c 0,0.20266 -0.16667,0.36933 -0.37067,0.36933 H 539.9813 c -0.20267,0 -0.364,-0.16667 -0.364,-0.36933 v -76.37467 c 0,-0.204 0.16133,-0.37066 0.364,-0.37066 z"
     style="fill:none;stroke:#000000;stroke-width:0.974848;stroke-linecap:square;stroke-linejoin:miter;stroke-miterlimit:4;stroke-dasharray:none;stroke-opacity:1" />
  <path
     id="path2"
     d="m 617.09063,257.83312 h 76.37466 c 0.204,0 0.37067,0.16666 0.37067,0.37066 v 76.37467 c 0,0.20266 -0.16667,0.36933 -0.37067,0.36933 h -76.37466 c -0.20267,0 -0.364,-0.16667 -0.364,-0.36933 v -76.37467 c 0,-0.204 0.16133,-0.37066 0.364,-0.37066 z"
     style="fill:none;stroke:#000000;stroke-width:0.974848;stroke-linecap:square;stroke-linejoin:miter;stroke-miterlimit:4;stroke-dasharray:none;stroke-opacity:1" />
  <path
     id="path3"
     d="m 694.20529,257.83312 h 76.36933 c 0.20934,0 0.37067,0.16666 0.37067,0.37066 v 76.37467 c 0,0.20266 -0.16133,0.36933 -0.37067,0.36933 h -76.36933 c -0.208,0 -0.36933,-0.16667 -0.36933,-0.36933 v -76.37467 c 0,-0.204 0.16133,-0.37066 0.36933,-0.37066 z"
     style="fill:none;stroke:#000000;stroke-width:0.974848;stroke-linecap:square;stroke-linejoin:miter;stroke-miterlimit:4;stroke-dasharray:none;stroke-opacity:1" />
  <path
     id="path4"
     d="m 771.31462,257.83312 h 76.36933 c 0.20934,0 0.37067,0.16666 0.37067,0.37066 v 76.37467 c 0,0.20266 -0.16133,0.36933 -0.37067,0.36933 h -76.36933 c -0.20266,0 -0.36933,-0.16667 -0.36933,-0.36933 v -76.37467 c 0,-0.204 0.16667,-0.37066 0.36933,-0.37066 z"
     style="fill:none;stroke:#000000;stroke-width:0.974848;stroke-linecap:square;stroke-linejoin:miter;stroke-miterlimit:4;stroke-dasharray:none;stroke-opacity:1" />
  <path
     id="path5"
     d="m 848.42395,257.83312 h 76.37467 c 0.204,0 0.36533,0.16666 0.36533,0.37066 v 76.37467 c 0,0.20266 -0.16133,0.36933 -0.36533,0.36933 h -76.37467 c -0.20266,0 -0.36933,-0.16667 -0.36933,-0.36933 v -76.37467 c 0,-0.204 0.16667,-0.37066 0.36933,-0.37066 z"
     style="fill:none;stroke:#000000;stroke-width:0.974848;stroke-linecap:square;stroke-linejoin:miter;stroke-miterlimit:4;stroke-dasharray:none;stroke-opacity:1" />
  <text
     id="text5"
     xml:space="preserve"
     x="547.07465"
     y="279.86633"
     style="font-size:16px;stroke-width:1.33333"><tspan
       style="font-variant:normal;font-weight:normal;font-size:21.7203px;font-family:Calibri;writing-mode:lr-tb;fill:#000000;fill-opacity:1;fill-rule:nonzero;stroke:none;stroke-width:1.33333"
       x="547.07465"
       y="279.86633"
       id="tspan5">8</tspan></text>
  <path
     id="path6"
     d="m 557.01196,276.40645 c 0,0.58267 -0.104,1.104 -0.312,1.56267 -0.208,0.448 -0.51066,0.828 -0.896,1.14533 -0.39066,0.308 -0.87466,0.54133 -1.45866,0.708 -0.572,0.16667 -1.228,0.25067 -1.97867,0.25067 -0.69733,0 -1.32267,-0.0787 -1.87467,-0.22934 -0.54133,-0.15066 -1.01066,-0.364 -1.396,-0.64533 -0.37466,-0.292 -0.66666,-0.64667 -0.87466,-1.06267 -0.19867,-0.41733 -0.292,-0.88533 -0.292,-1.41733 0,-0.42667 0.068,-0.81733 0.208,-1.16667 0.136,-0.35866 0.33866,-0.68666 0.604,-0.97866 0.26133,-0.30267 0.584,-0.584 0.95866,-0.83334 0.38534,-0.26 0.81734,-0.51066 1.292,-0.75066 -0.41733,-0.21867 -0.78666,-0.44667 -1.104,-0.68667 -0.32266,-0.23467 -0.59466,-0.48933 -0.81333,-0.77067 -0.224,-0.292 -0.39067,-0.59466 -0.5,-0.91733 -0.11467,-0.31733 -0.16667,-0.66667 -0.16667,-1.04133 0,-0.46934 0.084,-0.90667 0.25067,-1.312 0.16667,-0.41734 0.42133,-0.776 0.77067,-1.084 0.344,-0.30134 0.78133,-0.54667 1.312,-0.72934 0.52666,-0.17733 1.14666,-0.27066 1.85466,-0.27066 0.67734,0 1.27067,0.084 1.77067,0.25066 0.5,0.16667 0.90667,0.39067 1.22933,0.66667 0.31734,0.28133 0.552,0.61467 0.708,1 0.15067,0.37467 0.22934,0.78533 0.22934,1.228 0,0.34933 -0.0573,0.688 -0.16667,1.02133 -0.11467,0.32267 -0.28133,0.62534 -0.5,0.91734 -0.224,0.29066 -0.5,0.572 -0.83333,0.83333 -0.32267,0.24933 -0.688,0.48933 -1.104,0.708 0.5,0.24 0.93733,0.48933 1.312,0.74933 0.38533,0.25067 0.71333,0.532 0.98,0.83334 0.26,0.292 0.45733,0.604 0.58266,0.93733 0.136,0.324 0.208,0.68267 0.208,1.084 z m -2.24933,-6.91733 c 0,-0.29067 -0.052,-0.552 -0.14533,-0.79067 -0.1,-0.23467 -0.24534,-0.43733 -0.43867,-0.604 -0.19733,-0.16667 -0.43733,-0.292 -0.728,-0.376 -0.292,-0.0933 -0.62,-0.14533 -0.98,-0.14533 -0.74933,0 -1.32267,0.17733 -1.708,0.52133 -0.39067,0.33333 -0.584,0.80133 -0.584,1.39467 0,0.26666 0.048,0.516 0.14667,0.75066 0.0933,0.24 0.24,0.45867 0.43733,0.66667 0.192,0.208 0.44267,0.412 0.74933,0.604 0.30267,0.19867 0.66667,0.40667 1.084,0.62533 0.692,-0.36 1.22934,-0.756 1.604,-1.188 0.37467,-0.44266 0.56267,-0.92666 0.56267,-1.45866 z m 0.43733,7.10533 c 0,-0.31867 -0.0627,-0.60933 -0.188,-0.876 -0.11333,-0.26 -0.28533,-0.50533 -0.52,-0.72933 -0.24,-0.21867 -0.53733,-0.43734 -0.896,-0.64534 -0.364,-0.21866 -0.78133,-0.44266 -1.25066,-0.66666 -0.432,0.208 -0.812,0.42666 -1.14534,0.64533 -0.33333,0.20933 -0.604,0.43333 -0.812,0.66667 -0.20933,0.224 -0.37066,0.46933 -0.48,0.72933 -0.11466,0.25067 -0.16666,0.532 -0.16666,0.83333 0,0.66667 0.22933,1.188 0.688,1.56267 0.46933,0.36533 1.16666,0.54133 2.08266,0.54133 0.88667,0 1.55334,-0.176 2,-0.54133 0.45867,-0.37467 0.688,-0.88 0.688,-1.52 z"
     style="fill:none;stroke:#000000;stroke-width:1.2827;stroke-linecap:square;stroke-linejoin:miter;stroke-miterlimit:4;stroke-dasharray:none;stroke-opacity:1" />
  <text
     id="text6"
     xml:space="preserve"
     x="558.08331"
     y="279.86633"
     style="font-size:16px;stroke-width:1.33333"><tspan
       style="font-variant:normal;font-weight:normal;font-size:21.7203px;font-family:Calibri;writing-mode:lr-tb;fill:#000000;fill-opacity:1;fill-rule:nonzero;stroke:none;stroke-width:1.33333"
       x="558.08331"
       y="279.86633"
       id="tspan6">.</tspan></text>
  <path
     id="path7"
     d="m 561.89863,278.71845 c 0,0.5 -0.084,0.83333 -0.25067,1 -0.156,0.16667 -0.448,0.25067 -0.87467,0.25067 -0.41733,0 -0.708,-0.084 -0.87466,-0.25067 -0.15734,-0.16667 -0.22934,-0.484 -0.22934,-0.95733 0,-0.5 0.072,-0.824 0.22934,-0.98 0.16666,-0.16667 0.46266,-0.24934 0.89466,-0.24934 0.41734,0 0.69867,0.0827 0.85467,0.24934 0.16667,0.156 0.25067,0.46933 0.25067,0.93733 z"
     style="fill:none;stroke:#000000;stroke-width:1.2827;stroke-linecap:square;stroke-linejoin:miter;stroke-miterlimit:4;stroke-dasharray:none;stroke-opacity:1" />
  <path
     id="path8"
     d="m 417.21565,393.76113 58.5421,-33.7975 c 0.17656,-0.10372 0.40104,-0.0413 0.50475,0.13524 l 33.79751,58.54211 c 0.10371,0.17656 0.0413,0.40103 -0.13623,0.49998 l -58.54112,33.80227 c -0.17754,0.099 -0.40104,0.0413 -0.49998,-0.13622 L 417.0804,394.26588 c -0.099,-0.17754 -0.0413,-0.40103 0.13525,-0.50475 z"
     style="fill:none;stroke:#000000;stroke-width:0.863899;stroke-linecap:square;stroke-linejoin:miter;stroke-miterlimit:4;stroke-dasharray:none;stroke-opacity:1" />
  <path
     id="path9"
     d="m 476.39775,359.59412 58.53656,-33.79786 c 0.17657,-0.10372 0.40104,-0.0413 0.50552,0.13658 l 33.79674,58.54077 c 0.10449,0.1779 0.0413,0.40103 -0.13069,0.50034 l -58.54112,33.80227 c -0.17754,0.099 -0.40104,0.0413 -0.50475,-0.13524 L 476.2625,360.09887 c -0.10371,-0.17656 -0.0413,-0.40103 0.13525,-0.50475 z"
     style="fill:none;stroke:#000000;stroke-width:0.863899;stroke-linecap:square;stroke-linejoin:miter;stroke-miterlimit:4;stroke-dasharray:none;stroke-opacity:1" />
  <path
     id="path10"
     d="m 535.57431,325.42676 58.54287,-33.79618 c 0.17657,-0.10371 0.40104,-0.0413 0.49922,0.13489 l 33.80227,58.54113 c 0.0993,0.172 0.0421,0.40237 -0.13545,0.50132 l -58.54077,33.79673 c -0.1779,0.10449 -0.40139,0.0469 -0.50588,-0.13104 l -33.79674,-58.54077 c -0.10448,-0.1779 -0.0413,-0.40103 0.13448,-0.50608 z"
     style="fill:none;stroke:#000000;stroke-width:0.863899;stroke-linecap:square;stroke-linejoin:miter;stroke-miterlimit:4;stroke-dasharray:none;stroke-opacity:1" />
  <path
     id="path11"
     d="m 594.75164,291.26072 58.54211,-33.7975 c 0.17656,-0.10372 0.40103,-0.0413 0.50552,0.13658 l 33.79576,58.536 c 0.10582,0.17712 0.0427,0.40026 -0.13525,0.50475 l -58.54077,33.79673 c -0.1779,0.10449 -0.40103,0.0413 -0.50034,-0.13068 L 594.6164,291.76547 c -0.0982,-0.1762 -0.0413,-0.40103 0.13524,-0.50475 z"
     style="fill:none;stroke:#000000;stroke-width:0.863899;stroke-linecap:square;stroke-linejoin:miter;stroke-miterlimit:4;stroke-dasharray:none;stroke-opacity:1" />
  <path
     id="path12"
     d="m 653.93375,257.09371 58.54287,-33.79617 c 0.17102,-0.10407 0.40026,-0.0427 0.49957,0.12935 l 33.80094,58.5419 c 0.10028,0.17677 0.0434,0.4016 -0.13448,0.50608 l -58.54154,33.7954 c -0.17789,0.10449 -0.40026,0.0427 -0.50608,-0.13447 l -33.79576,-58.536 c -0.10449,-0.1779 -0.0421,-0.40237 0.13448,-0.50609 z"
     style="fill:none;stroke:#000000;stroke-width:0.863899;stroke-linecap:square;stroke-linejoin:miter;stroke-miterlimit:4;stroke-dasharray:none;stroke-opacity:1" />
  <path
     id="path13"
     d="m 713.11108,222.92768 58.54246,-33.80305 c 0.1762,-0.0982 0.40103,-0.0413 0.50475,0.13525 l 33.7975,58.5421 c 0.099,0.17754 0.0413,0.40104 -0.13658,0.50553 l -58.54077,33.79673 c -0.17789,0.10449 -0.40103,0.0413 -0.50131,-0.13545 l -33.80094,-58.5419 c -0.0993,-0.172 -0.0413,-0.40103 0.13489,-0.49921 z"
     style="fill:none;stroke:#000000;stroke-width:0.863899;stroke-linecap:square;stroke-linejoin:miter;stroke-miterlimit:4;stroke-dasharray:none;stroke-opacity:1" />
  <path
     id="path14"
     d="m 772.28764,188.76031 58.54323,-33.80171 c 0.1762,-0.0982 0.40103,-0.0413 0.50475,0.13525 l 33.79751,58.5421 c 0.10371,0.17656 0.0413,0.40104 -0.13659,0.50552 l -58.54076,33.79674 c -0.17313,0.10351 -0.40104,0.0413 -0.49999,-0.13623 l -33.7975,-58.5421 c -0.10372,-0.17656 -0.0461,-0.40006 0.12935,-0.49957 z"
     style="fill:none;stroke:#000000;stroke-width:0.863899;stroke-linecap:square;stroke-linejoin:miter;stroke-miterlimit:4;stroke-dasharray:none;stroke-opacity:1" />
  <path
     id="path15"
     d="m 831.47051,154.59464 58.54246,-33.80305 c 0.17621,-0.0982 0.40104,-0.0413 0.49998,0.13623 l 33.80228,58.54112 c 0.0989,0.17754 0.0413,0.40104 -0.13658,0.50552 l -58.54077,33.79674 c -0.1779,0.10448 -0.40104,0.0413 -0.50475,-0.13525 l -33.79751,-58.5421 c -0.10372,-0.17656 -0.0413,-0.40104 0.13489,-0.49921 z"
     style="fill:none;stroke:#000000;stroke-width:0.863899;stroke-linecap:square;stroke-linejoin:miter;stroke-miterlimit:4;stroke-dasharray:none;stroke-opacity:1" />
  <path
     id="path16"
     d="M 890.64707,120.42727 949.1903,86.625559 c 0.17544,-0.0995 0.40027,-0.0426 0.50475,0.13525 l 33.79676,58.540761 c 0.1045,0.1779 0.041,0.40104 -0.1358,0.50686 l -58.54157,33.7954 c -0.1779,0.10449 -0.40027,0.0427 -0.49921,-0.13489 l -33.80228,-58.54112 c -0.0989,-0.17754 -0.0421,-0.40237 0.13412,-0.50055 z"
     style="fill:none;stroke:#000000;stroke-width:0.863899;stroke-linecap:square;stroke-linejoin:miter;stroke-miterlimit:4;stroke-dasharray:none;stroke-opacity:1" />
  <text
     id="text16"
     xml:space="preserve"
     transform="rotate(-29.999998)"
     x="169.73047"
     y="568.08813"
     style="font-size:16px;stroke-width:1.33333"><tspan
       style="font-variant:normal;font-weight:normal;font-size:19.2483px;font-family:Calibri;writing-mode:lr-tb;fill:#000000;fill-opacity:1;fill-rule:nonzero;stroke:none;stroke-width:1.33333"
       x="169.73047"
       y="568.08813"
       id="tspan16">9</tspan></text>
  <path
     id="path17"
     d="m 435.36652,397.05239 c 0.2606,0.45754 0.50049,0.9377 0.70915,1.43768 0.21764,0.50012 0.38486,0.99914 0.49976,1.49991 0.12521,0.50016 0.18687,1.01033 0.18647,1.52079 3.1e-4,0.49937 -0.0938,0.98924 -0.27118,1.45789 -0.16536,0.47414 -0.43681,0.92775 -0.8113,1.35374 -0.37542,0.43364 -0.86523,0.8231 -1.45913,1.16776 -0.23923,0.1399 -0.47416,0.25954 -0.70786,0.35358 -0.23987,0.0834 -0.45798,0.1613 -0.66641,0.2283 -0.19797,0.0574 -0.3706,0.10019 -0.52078,0.12645 -0.14048,0.0153 -0.25086,0.0151 -0.33457,-6.1e-4 -0.0822,-0.0254 -0.16093,-0.0724 -0.22809,-0.14565 -0.0731,-0.068 -0.14649,-0.17675 -0.22969,-0.33316 -0.0562,-0.10975 -0.10362,-0.19796 -0.14596,-0.27129 -0.0303,-0.0678 -0.0519,-0.13001 -0.0616,-0.18668 -0.0163,-0.0528 -0.0105,-0.0953 0.0201,-0.12536 0.026,-0.0257 0.0521,-0.0514 0.0833,-0.0836 0.0522,-0.0266 0.15104,-0.0463 0.29286,-0.0624 0.13432,-0.026 0.30183,-0.0623 0.50006,-0.10382 0.19207,-0.0522 0.40562,-0.12574 0.64548,-0.20912 0.25033,-0.093 0.51044,-0.21825 0.79141,-0.37514 0.52611,-0.30197 0.91673,-0.66616 1.16695,-1.08263 0.26053,-0.41708 0.41647,-0.86444 0.45745,-1.35388 0.0523,-0.48529 0.006,-0.98464 -0.1459,-1.49977 -0.1406,-0.52682 -0.34398,-1.04229 -0.6044,-1.5426 -0.19654,0.33392 -0.45776,0.68206 -0.79073,1.04142 -0.33333,0.36489 -0.76023,0.6878 -1.2711,0.9792 -0.59846,0.34908 -1.14024,0.56232 -1.62492,0.64659 -0.48396,0.0732 -0.92144,0.036 -1.31202,-0.10473 -0.40124,-0.13456 -0.76128,-0.36403 -1.08488,-0.68742 -0.33216,-0.31667 -0.62952,-0.70854 -0.89567,-1.16644 -0.27512,-0.45805 -0.46325,-0.93787 -0.56153,-1.43757 -0.10998,-0.51073 -0.10932,-1.00533 -4.8e-4,-1.47884 0.0993,-0.48397 0.31278,-0.94858 0.6467,-1.39559 0.33279,-0.44281 0.81224,-0.84406 1.43737,-1.20853 0.43123,-0.25075 0.84889,-0.41722 1.24878,-0.50055 0.40692,-0.0927 0.79222,-0.10894 1.16739,-0.0411 0.37481,0.0734 0.72886,0.20319 1.06258,0.3963 0.34366,0.19803 0.67724,0.44633 0.9996,0.7491 0.33365,0.30692 0.64695,0.67715 0.93817,1.10457 0.30224,0.41572 0.59336,0.86453 0.87464,1.33325 z m -1.52094,0.66656 c -0.40584,-0.69369 -0.79101,-1.24998 -1.16639,-1.66614 -0.36507,-0.41678 -0.71913,-0.71903 -1.0628,-0.91706 -0.34956,-0.19285 -0.6874,-0.28224 -1.02058,-0.27121 -0.33355,0.0166 -0.6667,0.12003 -1.00004,0.31248 -0.35923,0.20918 -0.6253,0.45346 -0.79155,0.729 -0.17692,0.2817 -0.29115,0.57343 -0.33373,0.87535 -0.0416,0.30668 -0.0204,0.61443 0.0633,0.91635 0.0833,0.30747 0.20875,0.60482 0.37523,0.89625 0.18137,0.33262 0.38488,0.62046 0.60305,0.85361 0.22386,0.22453 0.46939,0.385 0.73029,0.4797 0.26531,0.0993 0.54137,0.12477 0.83202,0.0832 0.30307,-0.0416 0.63079,-0.16684 0.97971,-0.3754 0.41641,-0.23331 0.77643,-0.52117 1.08413,-0.85348 0.30076,-0.34432 0.54095,-0.6981 0.70738,-1.06263 z"
     style="fill:none;stroke:#000000;stroke-width:1.13671;stroke-linecap:square;stroke-linejoin:miter;stroke-miterlimit:4;stroke-dasharray:none;stroke-opacity:1" />
  <text
     id="text17"
     xml:space="preserve"
     transform="rotate(-29.999998)"
     x="179.48621"
     y="568.08813"
     style="font-size:16px;stroke-width:1.33333"><tspan
       style="font-variant:normal;font-weight:normal;font-size:19.2483px;font-family:Calibri;writing-mode:lr-tb;fill:#000000;fill-opacity:1;fill-rule:nonzero;stroke:none;stroke-width:1.33333"
       x="179.48621"
       y="568.08813"
       id="tspan17">.</tspan></text>
  <path
     id="path18"
     d="m 441.96011,399.65091 c 0.21842,0.37523 0.3018,0.66131 0.24996,0.8548 -0.0564,0.1979 -0.26008,0.39015 -0.60372,0.58322 -0.32338,0.19737 -0.57802,0.26439 -0.77038,0.20834 -0.19903,-0.0522 -0.4074,-0.27146 -0.62581,-0.64669 -0.22319,-0.37425 -0.30771,-0.65612 -0.2492,-0.85346 0.0519,-0.19349 0.24865,-0.38533 0.58234,-0.58332 0.33333,-0.19245 0.59407,-0.26121 0.79177,-0.20824 0.19313,0.0574 0.40185,0.2711 0.62504,0.64535 z"
     style="fill:none;stroke:#000000;stroke-width:1.13671;stroke-linecap:square;stroke-linejoin:miter;stroke-miterlimit:4;stroke-dasharray:none;stroke-opacity:1" />
  <path
     id="path19"
     d="M 468.91321,8.2868995 467.9704,61.292229 c 3.9e-4,0.20274 -0.17186,0.36372 -0.3745,0.35879 l -53,-0.94272 c -0.20264,-0.005 -0.36506,-0.17188 -0.35878,-0.3745 l 0.94271,-52.9999995 c -3.7e-4,-0.20407 0.17188,-0.36506 0.37462,-0.36545 l 53,0.94271 c 0.20262,0.006 0.36372,0.17186 0.35876,0.37584 z"
     style="fill:none;stroke:#000000;stroke-width:0.679467;stroke-linecap:square;stroke-linejoin:miter;stroke-miterlimit:4;stroke-dasharray:none;stroke-opacity:1" />
  <path
     id="path20"
     d="m 467.96002,62.025609 -0.94271,53.000001 c -0.005,0.20398 -0.17188,0.36506 -0.37453,0.36012 l -52.99999,-0.94272 c -0.20274,4e-4 -0.36516,-0.16654 -0.36413,-0.37459 l 0.94272,-53.000001 c 0.005,-0.20398 0.17188,-0.36506 0.37452,-0.36012 l 53,0.94272 c 0.20264,0.005 0.36506,0.17187 0.36412,0.37459 z"
     style="fill:none;stroke:#000000;stroke-width:0.679467;stroke-linecap:square;stroke-linejoin:miter;stroke-miterlimit:4;stroke-dasharray:none;stroke-opacity:1" />
  <path
     id="path21"
     d="m 467.00157,115.76023 -0.94281,53.00533 c 4e-4,0.20274 -0.17188,0.36506 -0.37452,0.36012 l -53,-0.94271 c -0.20262,-0.006 -0.36506,-0.17188 -0.35876,-0.37584 l 0.94271,-52.99999 c -3.9e-4,-0.20274 0.17186,-0.36373 0.3746,-0.36413 l 52.99999,0.94272 c 0.20265,0.005 0.36506,0.17188 0.35879,0.3745 z"
     style="fill:none;stroke:#000000;stroke-width:0.679467;stroke-linecap:square;stroke-linejoin:miter;stroke-miterlimit:4;stroke-dasharray:none;stroke-opacity:1" />
  <path
     id="path22"
     d="m 466.04836,169.50028 -0.94272,52.99999 c -0.005,0.20265 -0.17188,0.36506 -0.37449,0.35879 l -53,-0.94271 c -0.20807,3e-4 -0.36382,-0.16653 -0.36422,-0.36926 l 0.94281,-53.00534 c 0.005,-0.20264 0.17188,-0.36506 0.3745,-0.35878 l 53,0.94271 c 0.20264,0.005 0.36506,0.17188 0.36412,0.3746 z"
     style="fill:none;stroke:#000000;stroke-width:0.679467;stroke-linecap:square;stroke-linejoin:miter;stroke-miterlimit:4;stroke-dasharray:none;stroke-opacity:1" />
  <path
     id="path23"
     d="m 465.09124,223.23492 -0.94281,53.00533 c -9.4e-4,0.20271 -0.17185,0.36372 -0.37583,0.35876 l -53,-0.94271 c -0.20264,-0.005 -0.36372,-0.17186 -0.35879,-0.3745 l 0.94272,-53 c -3.7e-4,-0.20407 0.16655,-0.36515 0.37462,-0.36545 l 53,0.94271 c 0.20261,0.006 0.36505,0.17188 0.36009,0.37586 z"
     style="fill:none;stroke:#000000;stroke-width:0.679467;stroke-linecap:square;stroke-linejoin:miter;stroke-miterlimit:4;stroke-dasharray:none;stroke-opacity:1" />
  <path
     id="path24"
     d="m 464.13805,276.97363 -0.94271,53 c -0.006,0.20395 -0.17188,0.36506 -0.37586,0.3601 l -53,-0.94272 c -0.20807,3e-4 -0.36915,-0.16662 -0.36419,-0.37059 l 0.94281,-53.00534 c 0.005,-0.20264 0.17186,-0.36372 0.3745,-0.35878 l 53,0.94271 c 0.20398,0.005 0.36506,0.17188 0.36545,0.37462 z"
     style="fill:none;stroke:#000000;stroke-width:0.679467;stroke-linecap:square;stroke-linejoin:miter;stroke-miterlimit:4;stroke-dasharray:none;stroke-opacity:1" />
  <path
     id="path25"
     d="m 463.1796,330.70825 -0.94281,53.00533 c -0.005,0.20264 -0.17188,0.36506 -0.37585,0.3601 l -53,-0.94272 c -0.20262,-0.006 -0.36373,-0.17185 -0.35876,-0.37583 l 0.94271,-53 c -3.9e-4,-0.20274 0.16652,-0.36382 0.37459,-0.36412 l 53,0.94272 c 0.20398,0.005 0.36506,0.17187 0.36012,0.37452 z"
     style="fill:none;stroke:#000000;stroke-width:0.679467;stroke-linecap:square;stroke-linejoin:miter;stroke-miterlimit:4;stroke-dasharray:none;stroke-opacity:1" />
  <path
     id="path26"
     d="m 462.22639,384.44829 -0.94271,53 c -0.005,0.20265 -0.17186,0.36373 -0.37593,0.3641 l -53,-0.94272 c -0.20798,-0.005 -0.36906,-0.17195 -0.36412,-0.37459 l 0.94281,-53.00533 c 0.005,-0.20264 0.17188,-0.36506 0.3745,-0.35879 l 53,0.94272 c 0.20397,0.005 0.36506,0.17188 0.36545,0.37461 z"
     style="fill:none;stroke:#000000;stroke-width:0.679467;stroke-linecap:square;stroke-linejoin:miter;stroke-miterlimit:4;stroke-dasharray:none;stroke-opacity:1" />
  <path
     id="path27"
     d="m 461.26794,438.18291 -0.94281,53.00533 c -0.005,0.20265 -0.17185,0.36373 -0.3745,0.35879 l -53,-0.94272 c -0.20397,-0.005 -0.36506,-0.17187 -0.36012,-0.37452 l 0.94272,-53 c -3.7e-4,-0.20407 0.16654,-0.36515 0.37452,-0.36012 l 53,0.94272 c 0.20407,-3.7e-4 0.36515,0.16655 0.36019,0.37052 z"
     style="fill:none;stroke:#000000;stroke-width:0.679467;stroke-linecap:square;stroke-linejoin:miter;stroke-miterlimit:4;stroke-dasharray:none;stroke-opacity:1" />
  <text
     id="text27"
     xml:space="preserve"
     transform="rotate(91.019016)"
     x="3.6200202"
     y="-454.47324"
     style="font-size:16px;stroke-width:1.33333"><tspan
       style="font-variant:normal;font-weight:normal;font-size:15.1391px;font-family:Calibri;writing-mode:lr-tb;fill:#000000;fill-opacity:1;fill-rule:nonzero;stroke:none;stroke-width:1.33333"
       x="3.6200202"
       y="-454.47324"
       id="tspan27">4</tspan></text>
  <path
     id="path28"
     d="m 456.93902,18.994699 c -0.16671,-3e-4 -0.30088,-0.0307 -0.39464,-0.083 -0.099,-0.0578 -0.14582,-0.1253 -0.14702,-0.20802 l 0.022,-1.08395 -1.99991,-0.0409 c -0.0427,-7.6e-4 -0.0784,-0.0161 -0.10462,-0.0419 -0.0264,-0.0165 -0.0471,-0.0528 -0.0621,-0.10514 -0.026,-0.0405 -0.0422,-0.10345 -0.042,-0.18747 -0.0107,-0.0722 -0.0104,-0.16557 -1.6e-4,-0.29076 -6.3e-4,-0.11472 0.0104,-0.20922 0.0212,-0.29172 1.6e-4,-0.084 0.0148,-0.15712 0.0411,-0.20867 0.0154,-0.0411 0.0373,-0.0727 0.0628,-0.0829 0.0256,-0.0156 0.0631,-0.0215 0.10441,-0.0208 l 1.9999,0.0409 0.0624,-3.95747 c -3.1e-4,-0.0574 0.01,-0.10519 0.0413,-0.14598 0.0261,-0.0422 0.0521,-0.0778 0.0832,-0.10389 0.0419,-0.0313 0.0943,-0.053 0.16652,-0.0637 0.0843,-0.0145 0.17774,-0.0195 0.29245,-0.0201 0.0934,3.3e-4 0.17729,0.006 0.25039,0.0205 0.0825,0.0108 0.15023,0.0267 0.20731,0.0424 0.0678,0.0105 0.13024,0.0263 0.18733,0.0407 0.0529,0.0263 0.10958,0.0633 0.16753,0.10435 l 5.74951,3.54202 c 0.0422,0.0261 0.0736,0.0627 0.10484,0.10456 0.0258,0.0511 0.046,0.11419 0.062,0.18783 0.0105,0.0829 0.021,0.17109 0.0205,0.26978 0.0114,0.10958 0.0211,0.24046 0.021,0.3965 -1e-5,0.15072 -0.0105,0.29191 -0.0207,0.41577 -0.0156,0.12509 -0.0359,0.21943 -0.0625,0.29231 -0.0148,0.0838 -0.0411,0.13531 -0.083,0.16658 -0.0314,0.0421 -0.0625,0.0629 -0.10381,0.0622 l -6.10409,-0.10324 -0.0219,1.08262 c -1.6e-4,0.084 -0.052,0.15112 -0.14508,0.20815 -0.0836,0.0519 -0.20804,0.0737 -0.3759,0.0627 z m 5.81296,-2.5001 3.6e-4,-0.02 -5.18762,-3.18792 -0.0623,3.12522 z"
     style="fill:none;stroke:#000000;stroke-width:0.894036;stroke-linecap:square;stroke-linejoin:miter;stroke-miterlimit:4;stroke-dasharray:none;stroke-opacity:1" />
  <text
     id="text28"
     xml:space="preserve"
     transform="rotate(91.019016)"
     x="11.293024"
     y="-454.47324"
     style="font-size:16px;stroke-width:1.33333"><tspan
       style="font-variant:normal;font-weight:normal;font-size:15.1391px;font-family:Calibri;writing-mode:lr-tb;fill:#000000;fill-opacity:1;fill-rule:nonzero;stroke:none;stroke-width:1.33333"
       x="11.293024"
       y="-454.47324"
       id="tspan28">.</tspan></text>
  <path
     id="path29"
     d="m 454.9711,22.104689 c -0.36517,-0.0158 -0.59869,-0.084 -0.70851,-0.20867 -0.11001,-0.11399 -0.16631,-0.32306 -0.16628,-0.62448 0.0145,-0.29184 0.0781,-0.49477 0.18681,-0.60487 0.11006,-0.11408 0.33896,-0.16069 0.68813,-0.14515 0.34279,-5.7e-4 0.5726,0.0515 0.68661,0.1656 0.12608,0.11027 0.17707,0.31791 0.16759,0.62584 -3e-5,0.30143 -0.0624,0.50972 -0.1885,0.62485 -0.11397,0.10867 -0.3324,0.16614 -0.66585,0.16688 z"
     style="fill:none;stroke:#000000;stroke-width:0.894036;stroke-linecap:square;stroke-linejoin:miter;stroke-miterlimit:4;stroke-dasharray:none;stroke-opacity:1" />
  <path
     id="path30"
     d="m 233.67497,49.182079 75.97287,45.30782 c 0.17728,0.1093 0.23503,0.33253 0.13518,0.50986 L 265.7528,173.20874 c -0.0998,0.17734 -0.32398,0.23424 -0.50017,0.12916 l -75.97396,-45.31203 c -0.17694,-0.10375 -0.23933,-0.32796 -0.13614,-0.50509 l 44.03152,-78.208211 c 0.0998,-0.17733 0.32268,-0.23501 0.50092,-0.13049 z"
     style="fill:none;stroke:#000000;stroke-width:1.13561;stroke-linecap:square;stroke-linejoin:miter;stroke-miterlimit:4;stroke-dasharray:none;stroke-opacity:1" />
  <text
     id="text30"
     xml:space="preserve"
     transform="matrix(0.85287021,0.50864546,-0.49422151,0.87776131,0,0)"
     x="236.23845"
     y="-52.127125"
     style="font-size:16.1123px;stroke-width:1.34269"><tspan
       style="font-variant:normal;font-weight:normal;font-size:25.3021px;font-family:Calibri;writing-mode:lr-tb;fill:#000000;fill-opacity:1;fill-rule:nonzero;stroke:none;stroke-width:1.34269"
       x="236.23845"
       y="-52.127125"
       id="tspan30">5</tspan></text>
  <path
     id="path31"
     d="m 239.51293,75.739249 c -0.41728,0.75031 -0.91142,1.33902 -1.48004,1.7711 -0.57231,0.42632 -1.19707,0.70914 -1.87477,0.83395 -0.68166,0.13491 -1.39551,0.12415 -2.14505,-0.0415 -0.74005,-0.16707 -1.48946,-0.48044 -2.25103,-0.93819 -0.4164,-0.25012 -0.80205,-0.52108 -1.14485,-0.8128 -0.34948,-0.29214 -0.64667,-0.57267 -0.89604,-0.83361 -0.25047,-0.26515 -0.45246,-0.4996 -0.60372,-0.70736 -0.1411,-0.19814 -0.22425,-0.33322 -0.25143,-0.41711 -0.0298,-0.073 -0.0415,-0.13521 -0.041,-0.18834 -2.6e-4,-0.0518 0.005,-0.11427 0.0206,-0.1872 0.0103,-0.0829 0.0478,-0.17096 0.1054,-0.27019 0.0513,-0.0941 0.11344,-0.21376 0.18688,-0.35341 0.0677,-0.11101 0.12993,-0.20926 0.18725,-0.29262 0.068,-0.0931 0.13545,-0.16679 0.20905,-0.20838 0.0675,-0.0523 0.12437,-0.0826 0.16597,-0.0827 0.053,-0.0111 0.10367,-0.006 0.14567,0.021 0.0684,0.0568 0.15181,0.17603 0.2505,0.35421 0.10879,0.1664 0.25533,0.3856 0.43767,0.64574 0.19169,0.24968 0.44822,0.52557 0.76994,0.83321 0.33393,0.3167 0.75127,0.62972 1.25018,0.93617 0.46918,0.27625 0.93806,0.4793 1.3968,0.60506 0.46822,0.12429 0.91547,0.15059 1.33207,0.0838 0.42704,-0.073 0.82308,-0.2447 1.18854,-0.52187 0.3744,-0.28076 0.71311,-0.68254 1.02097,-1.20779 0.23382,-0.44296 0.3794,-0.87977 0.43617,-1.31255 0.0692,-0.42716 0.022,-0.83822 -0.14506,-1.22996 -0.15719,-0.40008 -0.41682,-0.78112 -0.79151,-1.14529 -0.37537,-0.37526 -0.87016,-0.75049 -1.47974,-1.12473 -0.43182,-0.25041 -0.82219,-0.44226 -1.16662,-0.58356 -0.33277,-0.13434 -0.63464,-0.28053 -0.89559,-0.43794 -0.20858,-0.12439 -0.32761,-0.25416 -0.35408,-0.39462 -0.0305,-0.15177 0.0316,-0.36049 0.18772,-0.6254 l 3.18721,-5.68829 c 0.13547,-0.23445 0.29211,-0.37435 0.45895,-0.41556 0.17693,-0.053 0.37361,-0.0212 0.58349,0.10399 l 6.08269,3.6241 c 0.0525,0.042 0.0936,0.095 0.12543,0.14605 0.0414,0.0586 0.0616,0.13648 0.0627,0.22977 -5.9e-4,0.0994 -0.0212,0.19751 -0.0637,0.29147 -0.0314,0.0988 -0.0825,0.22332 -0.16601,0.37476 -0.14114,0.25067 -0.29227,0.43303 -0.45913,0.5419 -0.15622,0.0992 -0.29072,0.10447 -0.41652,0.0205 l -5.14494,-3.06127 -2.18743,3.91572 c 0.27624,0.11488 0.54088,0.24421 0.79146,0.39544 0.25993,0.14077 0.56758,0.31357 0.91608,0.52141 0.79211,0.47418 1.42209,0.97814 1.89547,1.52049 0.47004,0.54215 0.80271,1.10389 1.00061,1.68677 0.20922,0.58429 0.27125,1.1841 0.18781,1.79333 -0.0727,0.60853 -0.28091,1.21813 -0.62495,1.83225 z"
     style="fill:none;stroke:#000000;stroke-width:1.49422;stroke-linecap:square;stroke-linejoin:miter;stroke-miterlimit:4;stroke-dasharray:none;stroke-opacity:1" />
  <text
     id="text31"
     xml:space="preserve"
     transform="matrix(0.85287021,0.50864546,-0.49422151,0.87776131,0,0)"
     x="249.06245"
     y="-52.127125"
     style="font-size:16.1123px;stroke-width:1.34269"><tspan
       style="font-variant:normal;font-weight:normal;font-size:25.3021px;font-family:Calibri;writing-mode:lr-tb;fill:#000000;fill-opacity:1;fill-rule:nonzero;stroke:none;stroke-width:1.34269"
       x="249.06245"
       y="-52.127125"
       id="tspan31">.</tspan></text>
  <path
     id="path32"
     d="m 242.72153,82.052059 c -0.29217,0.50968 -0.57266,0.80191 -0.83403,0.87579 -0.25019,0.0663 -0.5932,-0.0314 -1.02107,-0.29193 -0.43182,-0.25041 -0.6812,-0.51134 -0.7495,-0.77115 -0.0736,-0.25047 0.0313,-0.62427 0.31157,-1.12505 0.29292,-0.51101 0.56392,-0.80177 0.81323,-0.87572 0.26096,-0.067 0.60991,0.0325 1.04186,0.29186 0.42644,0.25076 0.67657,0.51036 0.74951,0.77115 0.0683,0.25981 -0.036,0.63571 -0.31157,1.12505 z"
     style="fill:none;stroke:#000000;stroke-width:1.49422;stroke-linecap:square;stroke-linejoin:miter;stroke-miterlimit:4;stroke-dasharray:none;stroke-opacity:1" />
  <path
     id="path33"
     d="m 310.28394,94.869269 75.97321,45.313371 c 0.17694,0.10374 0.23966,0.33351 0.13614,0.50508 l -44.03118,78.21376 c -0.10019,0.17179 -0.32302,0.22946 -0.50051,0.12361 L 265.88798,173.7186 c -0.17155,-0.10409 -0.23503,-0.33252 -0.13518,-0.50986 l 44.03022,-78.208981 c 0.0999,-0.17733 0.32398,-0.23423 0.50092,-0.13049 z"
     style="fill:none;stroke:#000000;stroke-width:1.13561;stroke-linecap:square;stroke-linejoin:miter;stroke-miterlimit:4;stroke-dasharray:none;stroke-opacity:1" />
  <path
     id="path34"
     d="m 386.89325,140.562 75.97287,45.30783 c 0.17824,0.10451 0.23966,0.3335 0.14186,0.51028 l -44.0369,78.20856 c -0.0991,0.176 -0.32268,0.23501 -0.50017,0.12915 l -75.97396,-45.31203 c -0.17155,-0.10409 -0.23503,-0.33252 -0.13484,-0.50431 l 44.03118,-78.21376 c 0.10352,-0.17157 0.32302,-0.22946 0.49996,-0.12572 z"
     style="fill:none;stroke:#000000;stroke-width:1.13561;stroke-linecap:square;stroke-linejoin:miter;stroke-miterlimit:4;stroke-dasharray:none;stroke-opacity:1" />
  <path
     id="path35"
     d="m 463.50222,186.24919 75.9745,45.31414 c 0.17695,0.10375 0.23933,0.32796 0.14024,0.50396 l -44.03691,78.20856 c -0.0978,0.17678 -0.32268,0.23501 -0.49887,0.12993 l -75.96953,-45.30761 c -0.17728,-0.10929 -0.23967,-0.3335 -0.14057,-0.5095 l 44.0369,-78.20856 c 0.0978,-0.17678 0.3173,-0.23466 0.49424,-0.13092 z"
     style="fill:none;stroke:#000000;stroke-width:1.13561;stroke-linecap:square;stroke-linejoin:miter;stroke-miterlimit:4;stroke-dasharray:none;stroke-opacity:1" />
  <path
     id="path36"
     d="m 540.11153,231.94192 75.97417,45.3086 c 0.17694,0.10374 0.23966,0.33351 0.14057,0.50951 l -44.03691,78.20856 c -0.0978,0.17677 -0.32268,0.23501 -0.49921,0.12438 l -75.96823,-45.30684 c -0.17824,-0.10451 -0.23967,-0.3335 -0.14187,-0.51028 l 44.03691,-78.20856 c 0.0991,-0.176 0.31729,-0.23466 0.49457,-0.12537 z"
     style="fill:none;stroke:#000000;stroke-width:1.13561;stroke-linecap:square;stroke-linejoin:miter;stroke-miterlimit:4;stroke-dasharray:none;stroke-opacity:1" />
  <path
     id="path37"
     d="m 616.7218,277.62989 75.97287,45.30782 c 0.17728,0.10929 0.23966,0.33351 0.14186,0.51028 l -44.0369,78.20856 c -0.0991,0.176 -0.32398,0.23423 -0.50017,0.12915 l -75.96857,-45.31238 c -0.17694,-0.10374 -0.23933,-0.32796 -0.14153,-0.50473 l 44.03691,-78.20856 c 0.0991,-0.176 0.31859,-0.23389 0.49553,-0.13014 z"
     style="fill:none;stroke:#000000;stroke-width:1.13561;stroke-linecap:square;stroke-linejoin:miter;stroke-miterlimit:4;stroke-dasharray:none;stroke-opacity:1" />
  <path
     id="path38"
     d="m 693.33077,323.31707 75.97321,45.31337 c 0.17694,0.10375 0.24041,0.33218 0.14152,0.50474 l -44.0369,78.20855 c -0.0991,0.176 -0.32268,0.23501 -0.49553,0.13015 L 648.9402,402.16606 c -0.17694,-0.10375 -0.23967,-0.33351 -0.14057,-0.50951 l 44.0369,-78.20856 c 0.0978,-0.17677 0.32269,-0.23501 0.49424,-0.13092 z"
     style="fill:none;stroke:#000000;stroke-width:1.13561;stroke-linecap:square;stroke-linejoin:miter;stroke-miterlimit:4;stroke-dasharray:none;stroke-opacity:1" />
  <path
     id="path39"
     d="m 769.94472,369.01079 75.96952,45.30761 c 0.17695,0.10375 0.23838,0.33274 0.14057,0.50951 l -44.0369,78.20856 c -0.0978,0.17677 -0.3173,0.23466 -0.49424,0.13091 l -75.9745,-45.31414 c -0.17694,-0.10374 -0.23967,-0.33351 -0.14057,-0.50951 l 44.0369,-78.20855 c 0.0989,-0.17256 0.32303,-0.22947 0.49922,-0.12439 z"
     style="fill:none;stroke:#000000;stroke-width:1.13561;stroke-linecap:square;stroke-linejoin:miter;stroke-miterlimit:4;stroke-dasharray:none;stroke-opacity:1" />
  <path
     id="path40"
     d="m 846.55369,414.69798 75.96986,45.31315 c 0.17695,0.10375 0.23933,0.32797 0.14024,0.50397 l -44.03691,78.20856 c -0.0978,0.17677 -0.31729,0.23466 -0.49424,0.13091 l -75.97416,-45.30859 c -0.17728,-0.10929 -0.23837,-0.33274 -0.14057,-0.50951 l 44.0369,-78.20856 c 0.0978,-0.17677 0.32269,-0.23501 0.49888,-0.12993 z"
     style="fill:none;stroke:#000000;stroke-width:1.13561;stroke-linecap:square;stroke-linejoin:miter;stroke-miterlimit:4;stroke-dasharray:none;stroke-opacity:1" />
  <path
     id="path41"
     d="m 923.16505,460.39015 75.96746,45.30817 c 0.177,0.10375 0.2404,0.33218 0.1406,0.50951 l -44.03692,78.20856 c -0.0978,0.17677 -0.31729,0.23466 -0.49457,0.12537 l -75.97287,-45.30782 c -0.17695,-0.10375 -0.23967,-0.33351 -0.14187,-0.51028 l 44.03691,-78.20856 c 0.0991,-0.176 0.32397,-0.23424 0.50126,-0.12495 z"
     style="fill:none;stroke:#000000;stroke-width:1.13561;stroke-linecap:square;stroke-linejoin:miter;stroke-miterlimit:4;stroke-dasharray:none;stroke-opacity:1" />
  <path
     id="path42"
     d="m 263.85653,129.93692 19.67766,33.91221 c 0.10292,0.17734 0.0402,0.40091 -0.13084,0.5055 l -33.91088,19.67689 c -0.17867,0.10369 -0.40224,0.0409 -0.5055,-0.13085 l -19.68244,-33.91122 c -0.0995,-0.17755 -0.0423,-0.40147 0.13506,-0.50438 l 33.91123,-19.68244 c 0.17754,-0.0995 0.40146,-0.0423 0.50571,0.13429 z"
     style="fill:none;stroke:#000000;stroke-width:0.50499;stroke-linecap:square;stroke-linejoin:miter;stroke-miterlimit:4;stroke-dasharray:none;stroke-opacity:1" />
  <path
     id="path43"
     d="m 283.9033,164.48513 19.68243,33.91123 c 0.0987,0.17621 0.0415,0.40013 -0.13506,0.50438 l -33.91221,19.67766 c -0.17656,0.10425 -0.40048,0.0471 -0.49995,-0.1305 l -19.68244,-33.91123 c -0.10425,-0.17656 -0.0423,-0.40146 0.1364,-0.50515 l 33.91088,-19.67689 c 0.17101,-0.10459 0.40047,-0.047 0.49995,0.1305 z"
     style="fill:none;stroke:#000000;stroke-width:0.50499;stroke-linecap:square;stroke-linejoin:miter;stroke-miterlimit:4;stroke-dasharray:none;stroke-opacity:1" />
  <path
     id="path44"
     d="m 303.95617,199.03158 19.67556,33.91166 c 0.10425,0.17656 0.047,0.40047 -0.12951,0.50472 l -33.91123,19.68244 c -0.17755,0.0995 -0.40146,0.0423 -0.50516,-0.13639 l -19.67688,-33.91088 c -0.10425,-0.17656 -0.0471,-0.40048 0.12951,-0.50473 l 33.91221,-19.67766 c 0.17656,-0.10425 0.40013,-0.0415 0.5055,0.13084 z"
     style="fill:none;stroke:#000000;stroke-width:0.50499;stroke-linecap:square;stroke-linejoin:miter;stroke-miterlimit:4;stroke-dasharray:none;stroke-opacity:1" />
  <path
     id="path45"
     d="m 324.00182,233.58401 19.68244,33.91123 c 0.10459,0.17101 0.0426,0.39591 -0.13605,0.4996 l -33.90568,19.68278 c -0.17621,0.0987 -0.40013,0.0415 -0.50515,-0.13639 l -19.68244,-33.91122 c -0.0987,-0.17622 -0.0415,-0.40014 0.13605,-0.49961 l 33.91123,-19.68244 c 0.17655,-0.10425 0.40146,-0.0423 0.4996,0.13605 z"
     style="fill:none;stroke:#000000;stroke-width:0.50499;stroke-linecap:square;stroke-linejoin:miter;stroke-miterlimit:4;stroke-dasharray:none;stroke-opacity:1" />
  <path
     id="path46"
     d="m 344.0547,268.13046 19.68243,33.91123 c 0.0987,0.17621 0.0402,0.4009 -0.13605,0.49961 l -33.91122,19.68243 c -0.17656,0.10425 -0.40147,0.0423 -0.50094,-0.13527 l -19.6811,-33.912 c -0.1046,-0.17101 -0.0415,-0.40013 0.13471,-0.49884 l 33.90568,-19.68278 c 0.17867,-0.10369 0.40224,-0.0409 0.50649,0.13562 z"
     style="fill:none;stroke:#000000;stroke-width:0.50499;stroke-linecap:square;stroke-linejoin:miter;stroke-miterlimit:4;stroke-dasharray:none;stroke-opacity:1" />
  <path
     id="path47"
     d="m 364.10624,302.67769 19.67689,33.91088 c 0.10425,0.17656 0.047,0.40048 -0.12952,0.50473 l -33.91221,19.67766 c -0.17656,0.10425 -0.40013,0.0415 -0.50473,-0.12952 l -19.6832,-33.91255 c -0.0987,-0.17622 -0.0402,-0.40091 0.13639,-0.50516 l 33.91122,-19.68243 c 0.17622,-0.0987 0.40014,-0.0415 0.50516,0.13639 z"
     style="fill:none;stroke:#000000;stroke-width:0.50499;stroke-linecap:square;stroke-linejoin:miter;stroke-miterlimit:4;stroke-dasharray:none;stroke-opacity:1" />
  <path
     id="path48"
     d="m 384.15357,337.2238 19.68243,33.91122 c 0.10292,0.17733 0.0409,0.40224 -0.13639,0.50516 l -33.91088,19.67688 c -0.17235,0.10537 -0.40181,0.0478 -0.49918,-0.12916 l -19.68321,-33.91256 c -0.10425,-0.17656 -0.0415,-0.40013 0.13506,-0.50438 l 33.91221,-19.67766 c 0.17656,-0.10425 0.40048,-0.0471 0.49996,0.1305 z"
     style="fill:none;stroke:#000000;stroke-width:0.50499;stroke-linecap:square;stroke-linejoin:miter;stroke-miterlimit:4;stroke-dasharray:none;stroke-opacity:1" />
  <path
     id="path49"
     d="m 404.20511,371.77102 19.68243,33.91123 c 0.0995,0.17754 0.0423,0.40146 -0.13506,0.50438 l -33.91256,19.6832 c -0.17621,0.0987 -0.40013,0.0415 -0.50438,-0.13505 l -19.67766,-33.91222 c -0.10425,-0.17656 -0.0415,-0.40013 0.13085,-0.5055 l 33.91088,-19.67688 c 0.17733,-0.10292 0.40224,-0.041 0.5055,0.13084 z"
     style="fill:none;stroke:#000000;stroke-width:0.50499;stroke-linecap:square;stroke-linejoin:miter;stroke-miterlimit:4;stroke-dasharray:none;stroke-opacity:1" />
  <path
     id="path50"
     d="m 424.25764,406.32302 19.67688,33.91088 c 0.10404,0.17312 0.0413,0.39669 -0.1305,0.49995 l -33.91122,19.68244 c -0.17755,0.0995 -0.40147,0.0423 -0.50572,-0.13429 l -19.6811,-33.912 c -0.0995,-0.17755 -0.0423,-0.40146 0.13394,-0.50017 l 33.91256,-19.6832 c 0.17734,-0.10292 0.40091,-0.0402 0.50516,0.13639 z"
     style="fill:none;stroke:#000000;stroke-width:0.50499;stroke-linecap:square;stroke-linejoin:miter;stroke-miterlimit:4;stroke-dasharray:none;stroke-opacity:1" />
  <text
     id="text50"
     xml:space="preserve"
     transform="rotate(59.870921)"
     x="247.94119"
     y="-152.01152"
     style="font-size:16px;stroke-width:1.33333"><tspan
       style="font-variant:normal;font-weight:normal;font-size:11.2515px;font-family:Calibri;writing-mode:lr-tb;fill:#000000;fill-opacity:1;fill-rule:nonzero;stroke:none;stroke-width:1.33333"
       x="247.94119"
       y="-152.01152"
       id="tspan50">3</tspan></text>
  <path
     id="path51"
     d="m 260.22126,141.45251 c -0.29144,0.16736 -0.58407,0.27124 -0.87501,0.31354 -0.28062,0.0417 -0.55752,0.01 -0.83274,-0.0835 -0.26588,-0.0988 -0.51631,-0.26003 -0.7503,-0.47894 -0.24022,-0.20815 -0.45334,-0.48016 -0.64679,-0.8135 -0.12416,-0.20778 -0.22346,-0.41574 -0.29102,-0.62428 -0.0731,-0.2089 -0.12484,-0.39633 -0.16764,-0.56221 -0.0305,-0.15697 -0.0521,-0.2924 -0.0619,-0.41682 -1.9e-4,-0.11396 8e-5,-0.1872 1.8e-4,-0.23003 0.0105,-0.031 0.0262,-0.0562 0.0411,-0.0827 0.0264,-0.0314 0.0472,-0.063 0.0626,-0.10406 0.0264,-0.0314 0.0631,-0.0633 0.10543,-0.10397 0.0512,-0.0315 0.10899,-0.0579 0.16542,-0.0835 0.12499,-0.0672 0.21384,-0.1045 0.27121,-0.10393 0.0518,2.3e-4 0.0886,0.0145 0.10411,0.0412 0.0261,0.0419 0.0417,0.11483 0.0419,0.2288 -2e-5,0.11052 0.005,0.25046 0.0212,0.41728 0.01,0.16725 0.0414,0.35386 0.082,0.56201 0.053,0.20807 0.14721,0.42256 0.27166,0.64622 0.12463,0.19325 0.25555,0.35433 0.39598,0.47959 0.13488,0.12492 0.29092,0.2126 0.45825,0.27056 0.16689,0.0511 0.32265,0.0676 0.47851,0.0413 0.1673,-0.0311 0.32368,-0.0934 0.47946,-0.18736 0.17755,-0.0995 0.31765,-0.22356 0.41663,-0.37548 0.1094,-0.14013 0.17712,-0.30599 0.20929,-0.49933 0.0259,-0.1826 0.0102,-0.39092 -0.0424,-0.62595 -0.0568,-0.22373 -0.15601,-0.4531 -0.29143,-0.68643 l -0.33338,-0.58366 c -0.0314,-0.0264 -0.0413,-0.0527 -0.0411,-0.0831 -10e-4,-0.0421 0.004,-0.0735 0.0198,-0.10416 0.0115,-0.0263 0.032,-0.0524 0.0625,-0.0826 0.0419,-0.0261 0.0892,-0.0643 0.14616,-0.10443 0.0681,-0.027 0.12451,-0.0526 0.16675,-0.0843 0.053,-0.0254 0.0941,-0.0314 0.1251,-0.0209 0.0256,0.001 0.0521,0.0161 0.0835,0.0425 0.0251,0.0157 0.0461,0.0303 0.0613,0.0411 l 0.31284,0.54211 c 0.12626,0.20835 0.26126,0.37954 0.41785,0.52037 0.15006,0.13572 0.30198,0.2347 0.45821,0.29198 0.16556,0.0519 0.33817,0.0729 0.52052,0.0615 0.17658,-0.0151 0.35993,-0.077 0.54238,-0.18644 0.12323,-0.0733 0.22895,-0.16139 0.3112,-0.27151 0.0834,-0.11434 0.14666,-0.22949 0.18866,-0.35368 0.0406,-0.13585 0.0453,-0.2812 0.0204,-0.43784 -0.0163,-0.15095 -0.0727,-0.31253 -0.16727,-0.47864 -0.11354,-0.19256 -0.24446,-0.35364 -0.39598,-0.47959 -0.14043,-0.12526 -0.28026,-0.21879 -0.4167,-0.29111 -0.12466,-0.0827 -0.23981,-0.14601 -0.3336,-0.18783 -0.0979,-0.0519 -0.16056,-0.10467 -0.18665,-0.14656 -0.016,-0.0246 -0.0215,-0.0463 -0.0211,-0.0609 6.9e-4,-0.0111 0.005,-0.0314 0.0202,-0.0634 0.0115,-0.0263 0.0431,-0.0517 0.084,-0.0826 0.0522,-0.0267 0.11488,-0.0631 0.18688,-0.1049 0.0419,-0.0261 0.0744,-0.0468 0.10456,-0.0625 0.0419,-0.0261 0.0733,-0.0426 0.10451,-0.0411 0.0421,-0.001 0.0725,-0.001 0.10498,-3.2e-4 0.0255,-0.0113 0.0611,-0.005 0.10282,0.0205 0.0521,0.0161 0.13515,0.0517 0.251,0.10386 0.10862,0.0582 0.2285,0.14189 0.35409,0.2508 0.13528,0.098 0.27571,0.22322 0.41707,0.37467 0.13471,0.15532 0.26016,0.32849 0.3737,0.52105 0.16671,0.28111 0.27752,0.5519 0.33376,0.81158 0.0529,0.2509 0.0516,0.48515 -3e-5,0.70942 -0.041,0.21807 -0.1402,0.42181 -0.29119,0.6039 -0.14135,0.19255 -0.32403,0.35382 -0.54214,0.47862 -0.19802,0.12562 -0.3904,0.20875 -0.58325,0.25116 -0.19783,0.04 -0.39015,0.0464 -0.58384,0.0198 -0.19812,-0.0312 -0.37478,-0.0837 -0.54093,-0.16732 -0.16749,-0.0828 -0.32232,-0.21755 -0.45909,-0.39484 0.0947,0.23379 0.15111,0.46307 0.16715,0.68726 0.0108,0.2183 -0.0107,0.42687 -0.0633,0.62494 -0.0409,0.20908 -0.1245,0.39665 -0.24882,0.56327 -0.1251,0.16529 -0.28653,0.30175 -0.47909,0.41529 z"
     style="fill:none;stroke:#000000;stroke-width:0.664463;stroke-linecap:square;stroke-linejoin:miter;stroke-miterlimit:4;stroke-dasharray:none;stroke-opacity:1" />
  <text
     id="text51"
     xml:space="preserve"
     transform="rotate(59.870921)"
     x="253.64386"
     y="-152.01152"
     style="font-size:16px;stroke-width:1.33333"><tspan
       style="font-variant:normal;font-weight:normal;font-size:11.2515px;font-family:Calibri;writing-mode:lr-tb;fill:#000000;fill-opacity:1;fill-rule:nonzero;stroke:none;stroke-width:1.33333"
       x="253.64386"
       y="-152.01152"
       id="tspan51">.</tspan></text>
  <path
     id="path52"
     d="m 260.32954,144.51069 c -0.22301,0.13477 -0.39591,0.18699 -0.5201,0.14499 -0.12488,-0.0309 -0.24492,-0.13948 -0.35369,-0.33303 -0.11452,-0.19733 -0.15646,-0.34945 -0.12526,-0.45846 0.0405,-0.11443 0.16674,-0.22867 0.37452,-0.35282 0.23502,-0.14174 0.40692,-0.19873 0.52148,-0.16718 0.10936,0.0256 0.22872,0.14532 0.35364,0.35444 0.0939,0.1772 0.1299,0.32209 0.1039,0.437 -0.015,0.12458 -0.13505,0.24949 -0.35449,0.37506 z"
     style="fill:none;stroke:#000000;stroke-width:0.664463;stroke-linecap:square;stroke-linejoin:miter;stroke-miterlimit:4;stroke-dasharray:none;stroke-opacity:1" />
  <text
     id="text52"
     xml:space="preserve"
     x="-0.45782399"
     y="518.75879"
     style="font-size:19.2984px;stroke-width:1.6082"><tspan
       style="font-style:normal;font-variant:normal;font-weight:normal;font-stretch:normal;font-size:22.8912px;font-family:'Minion Pro';-inkscape-font-specification:'Minion Pro';writing-mode:lr-tb;fill:#000000;fill-opacity:1;fill-rule:nonzero;stroke:none;stroke-width:1.6082"
       x="-0.45782399"
       y="518.75879"
       id="tspan54">1. Stroj na vozidlá ktorý ťa aj porazí v šachu</tspan><tspan
       style="font-style:normal;font-variant:normal;font-weight:normal;font-stretch:normal;font-size:22.8912px;font-family:'Minion Pro';-inkscape-font-specification:'Minion Pro';writing-mode:lr-tb;fill:#000000;fill-opacity:1;fill-rule:nonzero;stroke:none;stroke-width:1.6082"
       x="-0.45782399"
       y="547.37274"
       id="tspan57">2. Vrhnuté a hudobné číslo</tspan><tspan
       style="font-style:normal;font-variant:normal;font-weight:normal;font-stretch:normal;font-size:22.8912px;font-family:'Minion Pro';-inkscape-font-specification:'Minion Pro';writing-mode:lr-tb;fill:#000000;fill-opacity:1;fill-rule:nonzero;stroke:none;stroke-width:1.6082"
       x="-0.45782399"
       y="575.98663"
       id="tspan58">3. Profesionál, ktorý má rád žolíka aj fyzikálne obrázky</tspan><tspan
       style="font-style:normal;font-variant:normal;font-weight:normal;font-stretch:normal;font-size:22.8912px;font-family:'Minion Pro';-inkscape-font-specification:'Minion Pro';writing-mode:lr-tb;fill:#000000;fill-opacity:1;fill-rule:nonzero;stroke:none;stroke-width:1.6082"
       x="-0.45782399"
       y="604.60052"
       id="tspan59">4. Dopravný prostriedok z Pepsi a dlhej lyže</tspan><tspan
       style="font-style:normal;font-variant:normal;font-weight:normal;font-stretch:normal;font-size:22.8912px;font-family:'Minion Pro';-inkscape-font-specification:'Minion Pro';writing-mode:lr-tb;fill:#000000;fill-opacity:1;fill-rule:nonzero;stroke:none;stroke-width:1.6082"
       x="-0.45782399"
       y="633.21442"
       id="tspan60">5. Žena, ktorá má rada farebnú rastlinu a párty</tspan><tspan
       style="font-style:normal;font-variant:normal;font-weight:normal;font-stretch:normal;font-size:22.8912px;font-family:'Minion Pro';-inkscape-font-specification:'Minion Pro';writing-mode:lr-tb;fill:#000000;fill-opacity:1;fill-rule:nonzero;stroke:none;stroke-width:1.6082"
       x="-0.45782399"
       y="661.82837"
       id="tspan65">6. Orgán zo zmrznutej vody a zodpovednosti za čin</tspan><tspan
       style="font-style:normal;font-variant:normal;font-weight:normal;font-stretch:normal;font-size:22.8912px;font-family:'Minion Pro';-inkscape-font-specification:'Minion Pro';writing-mode:lr-tb;fill:#000000;fill-opacity:1;fill-rule:nonzero;stroke:none;stroke-width:1.6082"
       x="-0.45782399"
       y="690.44226"
       id="tspan66">7. Nápad od hlodavca a hmyzu</tspan><tspan
       style="font-style:normal;font-variant:normal;font-weight:normal;font-stretch:normal;font-size:22.8912px;font-family:'Minion Pro';-inkscape-font-specification:'Minion Pro';writing-mode:lr-tb;fill:#000000;fill-opacity:1;fill-rule:nonzero;stroke:none;stroke-width:1.6082"
       x="-0.45782399"
       y="719.05621"
       id="tspan69">8. Muž, ktorý sa točí okolo priamky po pohrebe</tspan><tspan
       style="font-style:normal;font-variant:normal;font-weight:normal;font-stretch:normal;font-size:22.8912px;font-family:'Minion Pro';-inkscape-font-specification:'Minion Pro';writing-mode:lr-tb;fill:#000000;fill-opacity:1;fill-rule:nonzero;stroke:none;stroke-width:1.6082"
       x="-0.45782399"
       y="747.6701"
       id="tspan72">9. Premenná, opisujúca plynnú vodu a dĺžku</tspan><tspan
       style="font-style:normal;font-variant:normal;font-weight:normal;font-stretch:normal;font-size:22.8912px;font-family:'Minion Pro';-inkscape-font-specification:'Minion Pro';writing-mode:lr-tb;fill:#000000;fill-opacity:1;fill-rule:nonzero;stroke:none;stroke-width:1.6082"
       x="-0.45782399"
       y="776.284"
       id="tspan73">10. Ceruzka s cestovným dokladom v televízii</tspan><tspan
       style="font-style:normal;font-variant:normal;font-weight:normal;font-stretch:normal;font-size:22.8912px;font-family:'Minion Pro';-inkscape-font-specification:'Minion Pro';writing-mode:lr-tb;fill:#000000;fill-opacity:1;fill-rule:nonzero;stroke:none;stroke-width:1.6082"
       x="-0.45782399"
       y="804.89789"
       id="tspan74">11. Hmyz ktorý má orgán sluchu a náter</tspan></text>
  <path
     id="path74"
     d="m 265.30855,41.457999 26.25546,41.96933 c 0.11011,0.176 0.0574,0.40603 -0.11338,0.51559 l -41.67247,26.738721 c -0.17208,0.11041 -0.396,0.0579 -0.50478,-0.11896 L 223.01791,68.593349 c -0.10893,-0.17115 -0.0575,-0.40033 0.10976,-0.50953 l 41.67727,-26.73993 c 0.17076,-0.10956 0.39468,-0.0571 0.50361,0.11411 z"
     style="fill:none;stroke:#000000;stroke-width:0.635213;stroke-linecap:square;stroke-linejoin:miter;stroke-miterlimit:4;stroke-dasharray:none;stroke-opacity:1" />
  <path
     id="path75"
     d="m 291.95424,84.057029 26.25547,41.969331 c 0.1101,0.176 0.0631,0.40045 -0.10893,0.51086 l -41.67247,26.73872 c -0.17075,0.10956 -0.39468,0.057 -0.5036,-0.11411 L 249.66924,111.1925 c -0.1101,-0.176 -0.0632,-0.40045 0.10892,-0.51086 l 41.67247,-26.738721 c 0.17076,-0.10956 0.39468,-0.057 0.50361,0.11411 z"
     style="fill:none;stroke:#000000;stroke-width:0.635213;stroke-linecap:square;stroke-linejoin:miter;stroke-miterlimit:4;stroke-dasharray:none;stroke-opacity:1" />
  <path
     id="path76"
     d="m 318.60557,126.65618 26.25546,41.96933 c 0.10893,0.17115 0.0575,0.40033 -0.11456,0.51075 L 303.074,195.87497 c -0.17075,0.10956 -0.39468,0.057 -0.5036,-0.11411 l -26.25547,-41.96933 c -0.1101,-0.176 -0.0574,-0.40603 0.11338,-0.51559 l 41.67247,-26.73872 c 0.17208,-0.11041 0.39601,-0.0579 0.50479,0.11896 z"
     style="fill:none;stroke:#000000;stroke-width:0.635213;stroke-linecap:square;stroke-linejoin:miter;stroke-miterlimit:4;stroke-dasharray:none;stroke-opacity:1" />
  <path
     id="path77"
     d="m 345.25126,169.25521 26.25547,41.96933 c 0.10892,0.17115 0.0632,0.40045 -0.10976,0.50953 l -41.67164,26.74005 c -0.17075,0.10956 -0.39468,0.057 -0.50443,-0.11544 l -26.25582,-41.97285 c -0.10976,-0.17248 -0.0618,-0.4013 0.10892,-0.51086 l 41.67247,-26.73871 c 0.17208,-0.11042 0.39601,-0.0579 0.50479,0.11895 z"
     style="fill:none;stroke:#000000;stroke-width:0.635213;stroke-linecap:square;stroke-linejoin:miter;stroke-miterlimit:4;stroke-dasharray:none;stroke-opacity:1" />
  <path
     id="path78"
     d="m 371.90273,211.84866 26.25533,41.97503 c 0.10892,0.17115 0.0575,0.40033 -0.1154,0.50941 l -41.67164,26.74005 c -0.17075,0.10956 -0.39468,0.057 -0.50346,-0.11981 l -26.25679,-41.96848 c -0.10976,-0.17248 -0.0562,-0.40118 0.11456,-0.51074 l 41.67164,-26.74005 c 0.17291,-0.10908 0.39684,-0.0566 0.50576,0.11459 z"
     style="fill:none;stroke:#000000;stroke-width:0.635213;stroke-linecap:square;stroke-linejoin:miter;stroke-miterlimit:4;stroke-dasharray:none;stroke-opacity:1" />
  <path
     id="path79"
     d="m 398.54842,254.44769 26.25547,41.96933 c 0.10878,0.17685 0.063,0.40615 -0.1099,0.51523 l -41.67164,26.74005 c -0.17159,0.10823 -0.39468,0.057 -0.50561,-0.12029 l -26.25464,-41.968 c -0.10976,-0.17248 -0.0618,-0.4013 0.10892,-0.51086 l 41.67164,-26.74005 c 0.17291,-0.10908 0.39684,-0.0566 0.50576,0.11459 z"
     style="fill:none;stroke:#000000;stroke-width:0.635213;stroke-linecap:square;stroke-linejoin:miter;stroke-miterlimit:4;stroke-dasharray:none;stroke-opacity:1" />
  <path
     id="path80"
     d="m 425.19975,297.04684 26.25547,41.96933 c 0.10893,0.17116 0.0575,0.40034 -0.10975,0.50953 l -41.67728,26.73993 c -0.17076,0.10956 -0.39468,0.0571 -0.50444,-0.11544 l -26.25596,-41.96715 c -0.10961,-0.17818 -0.057,-0.40251 0.11456,-0.51074 l 41.67164,-26.74005 c 0.17291,-0.10908 0.39698,-0.0623 0.50576,0.11459 z"
     style="fill:none;stroke:#000000;stroke-width:0.635213;stroke-linecap:square;stroke-linejoin:miter;stroke-miterlimit:4;stroke-dasharray:none;stroke-opacity:1" />
  <text
     id="text80"
     xml:space="preserve"
     transform="matrix(0.53037429,0.84780227,-0.8416721,0.54004972,0,0)"
     x="181.47639"
     y="-189.47881"
     style="font-size:15.9995px;stroke-width:1.33329"><tspan
       style="font-variant:normal;font-weight:normal;font-size:14.153px;font-family:Calibri;writing-mode:lr-tb;fill:#000000;fill-opacity:1;fill-rule:nonzero;stroke:none;stroke-width:1.33329"
       x="181.47639"
       y="-189.47881"
       id="tspan80">1</tspan></text>
  <path
     id="path81"
     d="m 259.52281,56.693609 c -0.0839,0.0408 -0.15679,0.0726 -0.20792,0.10352 -0.0419,0.025 -0.0944,0.0419 -0.14646,0.0417 -0.0408,2e-5 -0.077,-0.0104 -0.10407,-0.0211 -0.0304,-0.016 -0.0575,-0.0416 -0.0834,-0.0829 l -2.45825,-3.95916 c -0.0157,-0.031 -0.0315,-0.0564 -0.0413,-0.0838 -1.1e-4,-0.0298 0.005,-0.0609 0.0208,-0.10307 0.0254,-0.0425 0.0519,-0.095 0.0827,-0.14651 0.0423,-0.0421 0.10452,-0.082 0.18762,-0.12412 0.0675,-0.0582 0.13001,-0.0946 0.1867,-0.10484 0.0533,-0.0155 0.10537,-0.0302 0.14646,-0.0417 0.0521,2.2e-4 0.10533,0.005 0.14618,0.0202 0.0418,0.0105 0.0678,0.0312 0.0843,0.0636 l 0.97749,1.58328 5.70874,-3.66669 -1.77056,-0.8969 c -0.0997,-0.0407 -0.16151,-0.0832 -0.18737,-0.12456 -0.0304,-0.0515 -0.0425,-0.10353 -0.041,-0.1456 1.8e-4,-0.0412 0.0256,-0.0837 0.0835,-0.12456 0.0514,-0.0423 0.12869,-0.0938 0.22776,-0.16669 0.0523,-0.0261 0.10463,-0.0522 0.14664,-0.0829 0.0523,-0.0261 0.1035,-0.0421 0.14563,-0.043 0.0419,-0.0101 0.0838,-0.0202 0.12464,-0.0202 0.0421,-8.7e-4 0.0838,0.0154 0.12437,0.0417 l 2.18788,1.04208 c 0.026,1.1e-4 0.0465,0.015 0.0632,0.0417 0.0261,0.015 0.0521,0.0357 0.0835,0.0623 0.0417,0.0311 0.0732,0.0726 0.10361,0.12411 0.0267,0.0427 0.0626,0.1 0.10426,0.16667 0.0682,0.10012 0.11428,0.18266 0.14554,0.25043 0.0268,0.0576 0.0422,0.11492 0.0417,0.16754 0.0111,0.0415 0.0111,0.077 3.8e-4,0.10439 6e-5,0.0149 -0.0148,0.0356 -0.0411,0.0618 l -6.60542,4.22896 0.83403,1.35395 c 0.0258,0.0413 0.0413,0.0838 0.0411,0.12498 6.5e-4,0.0426 -0.0153,0.0734 -0.0404,0.10442 -0.0319,0.041 -0.0639,0.0728 -0.1051,0.1048 -0.041,0.0412 -0.099,0.0878 -0.16648,0.14606 z"
     style="fill:none;stroke:#000000;stroke-width:0.835805;stroke-linecap:square;stroke-linejoin:miter;stroke-miterlimit:4;stroke-dasharray:none;stroke-opacity:1" />
  <text
     id="text81"
     xml:space="preserve"
     transform="matrix(0.53037429,0.84780227,-0.8416721,0.54004972,0,0)"
     x="188.64963"
     y="-189.47881"
     style="font-size:15.9995px;stroke-width:1.33329"><tspan
       style="font-variant:normal;font-weight:normal;font-size:14.153px;font-family:Calibri;writing-mode:lr-tb;fill:#000000;fill-opacity:1;fill-rule:nonzero;stroke:none;stroke-width:1.33329"
       x="188.64963"
       y="-189.47881"
       id="tspan81">.</tspan></text>
  <path
     id="path82"
     d="m 261.4914,59.360019 c -0.26509,0.16635 -0.47381,0.23301 -0.62466,0.20834 -0.15717,-0.0318 -0.30693,-0.16742 -0.45811,-0.41797 -0.1571,-0.23927 -0.20905,-0.43203 -0.16748,-0.58203 0.0418,-0.14078 0.19261,-0.30296 0.45882,-0.47938 0.29155,-0.18333 0.50509,-0.25121 0.64638,-0.2092 0.13432,0.0427 0.27977,0.17738 0.43687,0.41665 0.13553,0.23443 0.19194,0.42245 0.16708,0.5636 -0.0316,0.15108 -0.18211,0.31678 -0.4589,0.49999 z"
     style="fill:none;stroke:#000000;stroke-width:0.835805;stroke-linecap:square;stroke-linejoin:miter;stroke-miterlimit:4;stroke-dasharray:none;stroke-opacity:1" />
  <path
     id="path83"
     d="m 529.81996,407.76111 v -44.57866 c 0,-0.20267 0.16134,-0.36934 0.364,-0.36934 h 44.584 c 0.20267,0 0.364,0.16667 0.364,0.36934 v 44.57866 c 0,0.20267 -0.16133,0.36934 -0.364,0.36934 h -44.584 c -0.20266,0 -0.364,-0.16667 -0.364,-0.36934 z"
     style="fill:none;stroke:#000000;stroke-width:0.572899;stroke-linecap:square;stroke-linejoin:miter;stroke-miterlimit:4;stroke-dasharray:none;stroke-opacity:1" />
  <text
     id="text83"
     xml:space="preserve"
     transform="rotate(-90)"
     x="-404.51096"
     y="542.27289"
     style="font-size:16px;stroke-width:1.33333"><tspan
       style="font-variant:normal;font-weight:normal;font-size:12.7646px;font-family:Calibri;writing-mode:lr-tb;fill:#000000;fill-opacity:1;fill-rule:nonzero;stroke:none;stroke-width:1.33333"
       x="-404.51096"
       y="542.27289"
       id="tspan83">7</tspan></text>
  <path
     id="path84"
     d="m 534.6693,398.63578 c 0.072,0 0.14,0.0107 0.208,0.02 0.0573,0 0.11466,0.0107 0.16666,0.0213 0.0573,0 0.11467,0.016 0.16667,0.0413 0.0413,0.016 0.0987,0.0373 0.16667,0.0627 l 6.688,2.896 c 0.056,0.032 0.0987,0.0573 0.124,0.084 0.032,0.0307 0.0573,0.072 0.084,0.124 0.0107,0.0427 0.02,0.104 0.02,0.188 0.0107,0.0733 0.0213,0.16134 0.0213,0.27067 0,0.14133 -0.0107,0.25067 -0.0213,0.33333 -0.0147,0.0733 -0.0307,0.12534 -0.0613,0.16667 -0.0267,0.032 -0.0627,0.0413 -0.10533,0.0413 -0.0413,0 -0.0827,-0.009 -0.124,-0.0413 l -6.85467,-3.06267 v 3.87467 c 0,0.084 -0.0413,0.14667 -0.12533,0.188 -0.0827,0.032 -0.19733,0.0413 -0.35333,0.0413 -0.084,0 -0.152,0 -0.20934,0 -0.052,-0.009 -0.104,-0.0253 -0.14533,-0.0413 -0.0413,-0.0253 -0.068,-0.052 -0.0827,-0.0827 -0.0107,-0.0267 -0.0213,-0.0627 -0.0213,-0.10533 v -4.708 c 0,-0.052 0.0107,-0.104 0.0213,-0.14533 0,-0.0413 0.02,-0.068 0.0613,-0.084 0.0427,-0.0253 0.0947,-0.0467 0.14666,-0.0627 0.0573,-0.009 0.13467,-0.02 0.22934,-0.02 z"
     style="fill:none;stroke:#000000;stroke-width:0.753815;stroke-linecap:square;stroke-linejoin:miter;stroke-miterlimit:4;stroke-dasharray:none;stroke-opacity:1" />
  <text
     id="text84"
     xml:space="preserve"
     transform="rotate(-90)"
     x="-398.04141"
     y="542.27289"
     style="font-size:16px;stroke-width:1.33333"><tspan
       style="font-variant:normal;font-weight:normal;font-size:12.7646px;font-family:Calibri;writing-mode:lr-tb;fill:#000000;fill-opacity:1;fill-rule:nonzero;stroke:none;stroke-width:1.33333"
       x="-398.04141"
       y="542.27289"
       id="tspan84">.</tspan></text>
  <path
     id="path85"
     d="m 541.5853,395.75045 c 0.308,0 0.51066,0.0573 0.604,0.16666 0.0947,0.0987 0.14666,0.27067 0.14666,0.52 0,0.25067 -0.052,0.428 -0.14666,0.52134 -0.0933,0.0987 -0.29067,0.14533 -0.58267,0.14533 -0.292,0 -0.48533,-0.0467 -0.584,-0.14533 -0.0933,-0.0933 -0.14533,-0.276 -0.14533,-0.54134 0,-0.25066 0.052,-0.42266 0.14533,-0.52133 0.0987,-0.0933 0.28667,-0.14533 0.56267,-0.14533 z"
     style="fill:none;stroke:#000000;stroke-width:0.753815;stroke-linecap:square;stroke-linejoin:miter;stroke-miterlimit:4;stroke-dasharray:none;stroke-opacity:1" />
  <path
     id="path86"
     d="m 529.81996,362.44245 v -44.57734 c 0,-0.204 0.16134,-0.37066 0.364,-0.37066 h 44.584 c 0.20267,0 0.364,0.16666 0.364,0.37066 v 44.57734 c 0,0.204 -0.16133,0.37066 -0.364,0.37066 h -44.584 c -0.20266,0 -0.364,-0.16666 -0.364,-0.37066 z"
     style="fill:none;stroke:#000000;stroke-width:0.572899;stroke-linecap:square;stroke-linejoin:miter;stroke-miterlimit:4;stroke-dasharray:none;stroke-opacity:1" />
  <path
     id="path87"
     d="m 529.81996,317.13045 v -44.584 c 0,-0.20267 0.16134,-0.364 0.364,-0.364 h 44.584 c 0.20267,0 0.364,0.16133 0.364,0.364 v 44.584 c 0,0.20266 -0.16133,0.364 -0.364,0.364 h -44.584 c -0.20266,0 -0.364,-0.16134 -0.364,-0.364 z"
     style="fill:none;stroke:#000000;stroke-width:0.572899;stroke-linecap:square;stroke-linejoin:miter;stroke-miterlimit:4;stroke-dasharray:none;stroke-opacity:1" />
  <path
     id="path88"
     d="m 529.81996,271.81312 v -44.57867 c 0,-0.20267 0.16134,-0.36933 0.364,-0.36933 h 44.584 c 0.20267,0 0.364,0.16666 0.364,0.36933 v 44.57867 c 0,0.20266 -0.16133,0.36933 -0.364,0.36933 h -44.584 c -0.20266,0 -0.364,-0.16667 -0.364,-0.36933 z"
     style="fill:none;stroke:#000000;stroke-width:0.572899;stroke-linecap:square;stroke-linejoin:miter;stroke-miterlimit:4;stroke-dasharray:none;stroke-opacity:1" />
  <path
     id="path89"
     d="m 529.81996,226.49445 v -44.57733 c 0,-0.204 0.16134,-0.37067 0.364,-0.37067 h 44.584 c 0.20267,0 0.364,0.16667 0.364,0.37067 v 44.57733 c 0,0.204 -0.16133,0.37067 -0.364,0.37067 h -44.584 c -0.20266,0 -0.364,-0.16667 -0.364,-0.37067 z"
     style="fill:none;stroke:#000000;stroke-width:0.572899;stroke-linecap:square;stroke-linejoin:miter;stroke-miterlimit:4;stroke-dasharray:none;stroke-opacity:1" />
  <path
     id="path90"
     d="m 529.81996,181.18245 v -44.584 c 0,-0.20266 0.16134,-0.364 0.364,-0.364 h 44.584 c 0.20267,0 0.364,0.16134 0.364,0.364 v 44.584 c 0,0.20267 -0.16133,0.364 -0.364,0.364 h -44.584 c -0.20266,0 -0.364,-0.16133 -0.364,-0.364 z"
     style="fill:none;stroke:#000000;stroke-width:0.572899;stroke-linecap:square;stroke-linejoin:miter;stroke-miterlimit:4;stroke-dasharray:none;stroke-opacity:1" />
  <path
     id="path91"
     d="M 529.81996,135.86512 V 91.286449 c 0,-0.208 0.16134,-0.36933 0.364,-0.36933 h 44.584 c 0.20267,0 0.364,0.16133 0.364,0.36933 v 44.578671 c 0,0.20267 -0.16133,0.36933 -0.364,0.36933 h -44.584 c -0.20266,0 -0.364,-0.16666 -0.364,-0.36933 z"
     style="fill:none;stroke:#000000;stroke-width:0.572899;stroke-linecap:square;stroke-linejoin:miter;stroke-miterlimit:4;stroke-dasharray:none;stroke-opacity:1" />
  <path
     id="path92"
     d="m 529.81996,90.546449 v -44.57733 c 0,-0.204 0.16134,-0.37067 0.364,-0.37067 h 44.584 c 0.20267,0 0.364,0.16667 0.364,0.37067 v 44.57733 c 0,0.204 -0.16133,0.37067 -0.364,0.37067 h -44.584 c -0.20266,0 -0.364,-0.16667 -0.364,-0.37067 z"
     style="fill:none;stroke:#000000;stroke-width:0.572899;stroke-linecap:square;stroke-linejoin:miter;stroke-miterlimit:4;stroke-dasharray:none;stroke-opacity:1" />
  <path
     id="path93"
     d="M 529.81996,45.234449 V 0.65178949 c 0,-0.204 0.16134,-0.36534 0.364,-0.36534 h 44.584 c 0.20267,0 0.364,0.16134 0.364,0.36534 V 45.234449 c 0,0.20267 -0.16133,0.364 -0.364,0.364 h -44.584 c -0.20266,0 -0.364,-0.16133 -0.364,-0.364 z"
     style="fill:none;stroke:#000000;stroke-width:0.572899;stroke-linecap:square;stroke-linejoin:miter;stroke-miterlimit:4;stroke-dasharray:none;stroke-opacity:1" />
  <path
     id="path94"
     d="m 165.74169,363.07809 54.88058,-39.46338 c 0.16667,-0.11986 0.39493,-0.0837 0.51479,0.0829 l 39.46338,54.88059 c 0.11986,0.16666 0.0847,0.39626 -0.0822,0.5102 l -54.88038,39.4693 c -0.16666,0.11985 -0.39588,0.0824 -0.51116,-0.0835 l -39.46796,-54.88133 c -0.11986,-0.16667 -0.0838,-0.39493 0.0829,-0.51479 z"
     style="fill:none;stroke:#000000;stroke-width:0.8639;stroke-linecap:square;stroke-linejoin:miter;stroke-miterlimit:4;stroke-dasharray:none;stroke-opacity:1" />
  <path
     id="path95"
     d="m 221.22131,323.18189 54.88059,-39.46338 c 0.16666,-0.11986 0.39492,-0.0838 0.50982,0.0845 l 39.46834,54.87904 c 0.12061,0.16208 0.0832,0.3913 -0.0835,0.51116 l -54.87904,39.46834 c -0.16667,0.11986 -0.39722,0.0834 -0.51708,-0.0833 l -39.46338,-54.88059 c -0.11986,-0.16666 -0.0824,-0.39588 0.0842,-0.51574 z"
     style="fill:none;stroke:#000000;stroke-width:0.8639;stroke-linecap:square;stroke-linejoin:miter;stroke-miterlimit:4;stroke-dasharray:none;stroke-opacity:1" />
  <path
     id="path96"
     d="m 276.6996,283.28664 54.87542,-39.46776 c 0.16667,-0.11985 0.39647,-0.0788 0.51612,0.082 l 39.4693,54.88037 c 0.11852,0.16763 0.0765,0.3961 -0.0843,0.51575 l -54.88037,39.46929 c -0.16667,0.11986 -0.39514,0.0778 -0.51575,-0.0842 l -39.46834,-54.87904 c -0.1149,-0.16821 -0.0788,-0.39647 0.0879,-0.51633 z"
     style="fill:none;stroke:#000000;stroke-width:0.8639;stroke-linecap:square;stroke-linejoin:miter;stroke-miterlimit:4;stroke-dasharray:none;stroke-opacity:1" />
  <path
     id="path97"
     d="m 332.17331,243.39064 54.88133,-39.46796 c 0.16667,-0.11986 0.39493,-0.0837 0.51479,0.0829 l 39.4693,54.88037 c 0.11527,0.16592 0.0778,0.39514 -0.0888,0.515 l -54.88037,39.4693 c -0.16096,0.11373 -0.39056,0.0786 -0.50908,-0.089 l -39.4693,-54.88037 c -0.11965,-0.16075 -0.0845,-0.39035 0.0822,-0.51021 z"
     style="fill:none;stroke:#000000;stroke-width:0.8639;stroke-linecap:square;stroke-linejoin:miter;stroke-miterlimit:4;stroke-dasharray:none;stroke-opacity:1" />
  <path
     id="path98"
     d="m 387.65293,203.49444 54.88134,-39.46797 c 0.16666,-0.11985 0.39492,-0.0837 0.51478,0.0829 l 39.46338,54.88058 c 0.11986,0.16667 0.0838,0.39493 -0.0829,0.51478 l -54.88058,39.46339 c -0.16667,0.11985 -0.39493,0.0837 -0.5102,-0.0822 l -39.4693,-54.88037 c -0.11986,-0.16667 -0.0824,-0.39589 0.0835,-0.51116 z"
     style="fill:none;stroke:#000000;stroke-width:0.8639;stroke-linecap:square;stroke-linejoin:miter;stroke-miterlimit:4;stroke-dasharray:none;stroke-opacity:1" />
  <path
     id="path99"
     d="m 443.13331,163.59365 54.87925,-39.46242 c 0.16208,-0.12061 0.39034,-0.0845 0.5102,0.0822 l 39.4693,54.88037 c 0.11986,0.16667 0.0824,0.39589 -0.0835,0.51116 l -54.88133,39.46797 c -0.16533,0.1189 -0.39493,0.0837 -0.51479,-0.0829 l -39.46338,-54.88058 c -0.11986,-0.16667 -0.0824,-0.39589 0.0843,-0.51575 z"
     style="fill:none;stroke:#000000;stroke-width:0.8639;stroke-linecap:square;stroke-linejoin:miter;stroke-miterlimit:4;stroke-dasharray:none;stroke-opacity:1" />
  <path
     id="path100"
     d="m 498.60701,123.69765 54.87925,-39.462421 c 0.16667,-0.11986 0.39627,-0.0847 0.51612,0.082 l 39.4693,54.880381 c 0.11832,0.16171 0.0773,0.39151 -0.0835,0.51116 l -54.88133,39.46796 c -0.16667,0.11986 -0.39493,0.0838 -0.51479,-0.0829 l -39.4693,-54.88037 c -0.11986,-0.16667 -0.0778,-0.39514 0.0842,-0.51575 z"
     style="fill:none;stroke:#000000;stroke-width:0.8639;stroke-linecap:square;stroke-linejoin:miter;stroke-miterlimit:4;stroke-dasharray:none;stroke-opacity:1" />
  <text
     id="text100"
     xml:space="preserve"
     transform="rotate(-35.72183)"
     x="-72.947289"
     y="410.01154"
     style="font-size:16px;stroke-width:1.33333"><tspan
       style="font-variant:normal;font-weight:normal;font-size:19.2483px;font-family:Calibri;writing-mode:lr-tb;fill:#000000;fill-opacity:1;fill-rule:nonzero;stroke:none;stroke-width:1.33333"
       x="-72.947289"
       y="410.01154"
       id="tspan100">2</tspan></text>
  <path
     id="path101"
     d="m 186.83086,369.83805 c 0.0519,0.10026 0.0936,0.18355 0.12376,0.25085 0.0422,0.0728 0.0688,0.14068 0.0849,0.20802 0.0258,0.0725 0.0249,0.13585 -0.001,0.18691 -0.0304,0.0421 -0.0624,0.0792 -0.10428,0.10534 l -5.45825,3.93744 c -0.0727,0.0564 -0.13962,0.0984 -0.20751,0.12495 -0.0742,0.0149 -0.14123,0.0146 -0.20829,10e-5 -0.0583,-0.0107 -0.1252,-0.0475 -0.20881,-0.10472 -0.0831,-0.0677 -0.16683,-0.16727 -0.25009,-0.29148 -0.073,-0.0931 -0.12523,-0.17696 -0.16614,-0.25072 -0.0417,-0.0833 -0.0793,-0.15534 -0.10383,-0.22876 -0.0171,-0.0828 -0.0223,-0.16603 -0.0216,-0.24946 -0.001,-0.0943 0.005,-0.19341 0.0206,-0.29198 l 0.45918,-3.4374 c 0.0941,-0.79184 0.14497,-1.46365 0.14528,-2.02017 -4.4e-4,-0.55194 -0.0421,-1.03177 -0.12528,-1.4372 -0.0718,-0.41768 -0.17694,-0.76081 -0.31321,-1.04311 -0.12426,-0.29094 -0.26444,-0.54212 -0.41536,-0.74916 -0.16742,-0.23563 -0.34405,-0.42216 -0.54229,-0.5628 -0.20853,-0.13526 -0.4261,-0.22964 -0.66641,-0.27125 -0.25027,-0.0526 -0.50457,-0.0518 -0.77073,0 -0.26003,0.0575 -0.53226,0.1825 -0.81209,0.37566 -0.30246,0.22358 -0.54794,0.47294 -0.72957,0.74921 -0.19292,0.26618 -0.33855,0.51656 -0.43784,0.7498 -0.10963,0.22449 -0.19222,0.4275 -0.24931,0.60409 -0.0684,0.16651 -0.1362,0.27193 -0.209,0.31416 -0.0413,0.0297 -0.0833,0.0417 -0.12434,0.0409 -0.0529,-4.1e-4 -0.10427,-0.01 -0.146,-0.0427 -0.0419,-0.0245 -0.0942,-0.0719 -0.16694,-0.14494 -0.0676,-0.0687 -0.14636,-0.1557 -0.22883,-0.27037 -0.0522,-0.0838 -0.0942,-0.15071 -0.12591,-0.20884 -0.0407,-0.0678 -0.0678,-0.12521 -0.0834,-0.16659 -0.009,-0.0521 -0.0206,-0.10456 -0.0197,-0.14561 -1.4e-4,-0.0424 0.0151,-0.11402 0.0411,-0.2298 0.0166,-0.10907 0.0624,-0.25928 0.14553,-0.45867 0.0843,-0.19214 0.20905,-0.41534 0.37473,-0.66598 0.15667,-0.26034 0.3498,-0.5206 0.58382,-0.77184 0.2241,-0.24815 0.48968,-0.48364 0.79213,-0.70722 0.47355,-0.33448 0.93674,-0.56239 1.39492,-0.68758 0.45818,-0.12519 0.89071,-0.15101 1.29147,-0.0832 0.40722,0.0571 0.77158,0.20371 1.10529,0.43708 0.34341,0.22437 0.65076,0.51109 0.9159,0.85446 0.21925,0.32176 0.41679,0.66114 0.58404,1.02029 0.17696,0.35015 0.30222,0.77186 0.37466,1.27202 0.0825,0.48886 0.10885,1.0768 0.0838,1.77048 -0.016,0.68105 -0.0994,1.51582 -0.24952,2.49971 l -0.39743,2.74971 4.29259,-3.08297 c 0.0419,-0.0261 0.0892,-0.0419 0.14572,-0.0421 0.067,3.6e-4 0.13045,0.0154 0.18742,0.0412 0.0526,0.0168 0.10921,0.059 0.16669,0.1249 0.0682,0.0582 0.14611,0.13565 0.22965,0.22931 z"
     style="fill:none;stroke:#000000;stroke-width:1.13671;stroke-linecap:square;stroke-linejoin:miter;stroke-miterlimit:4;stroke-dasharray:none;stroke-opacity:1" />
  <text
     id="text101"
     xml:space="preserve"
     transform="rotate(-35.72183)"
     x="-63.191555"
     y="410.01154"
     style="font-size:16px;stroke-width:1.33333"><tspan
       style="font-variant:normal;font-weight:normal;font-size:19.2483px;font-family:Calibri;writing-mode:lr-tb;fill:#000000;fill-opacity:1;fill-rule:nonzero;stroke:none;stroke-width:1.33333"
       x="-63.191555"
       y="410.01154"
       id="tspan101">.</tspan></text>
  <path
     id="path102"
     d="m 190.26737,366.93176 c 0.26044,0.36496 0.3757,0.64619 0.33341,0.85461 -0.0312,0.19847 -0.20297,0.40693 -0.5211,0.62559 -0.30608,0.22417 -0.56102,0.32255 -0.76998,0.29076 -0.19793,-0.0417 -0.41714,-0.23406 -0.66608,-0.58301 -0.26614,-0.35884 -0.38578,-0.6349 -0.35453,-0.83336 0.0409,-0.20747 0.21839,-0.42206 0.54089,-0.64589 0.30266,-0.21766 0.55227,-0.31221 0.75019,-0.27046 0.20897,0.0318 0.43848,0.21872 0.6872,0.56176 z"
     style="fill:none;stroke:#000000;stroke-width:1.13671;stroke-linecap:square;stroke-linejoin:miter;stroke-miterlimit:4;stroke-dasharray:none;stroke-opacity:1" />
  <path
     id="path103"
     d="m 890.51296,356.38587 -82.50557,-7.27612 c -0.20377,-0.0207 -0.35475,-0.19791 -0.3382,-0.4007 l 7.28157,-82.50643 c 0.0152,-0.2029 0.19246,-0.35388 0.39489,-0.33334 l 82.5109,7.27659 c 0.20244,0.0206 0.34942,0.19745 0.33275,0.40157 l -7.28145,82.50509 c -0.0152,0.20291 -0.19246,0.35389 -0.39489,0.33334 z"
     style="fill:none;stroke:#000000;stroke-width:1.05643;stroke-linecap:square;stroke-linejoin:miter;stroke-miterlimit:4;stroke-dasharray:none;stroke-opacity:1" />
  <path
     id="path104"
     d="m 807.27296,349.04227 -82.5109,-7.27659 c -0.20243,-0.0205 -0.34808,-0.19732 -0.33275,-0.40156 l 7.28145,-82.5051 c 0.0152,-0.2029 0.19247,-0.35388 0.39623,-0.33322 l 82.50957,7.27647 c 0.20376,0.0207 0.34941,0.19745 0.3342,0.40035 l -7.28157,82.50643 c -0.0165,0.20279 -0.19247,0.35389 -0.39623,0.33322 z"
     style="fill:none;stroke:#000000;stroke-width:1.05643;stroke-linecap:square;stroke-linejoin:miter;stroke-miterlimit:4;stroke-dasharray:none;stroke-opacity:1" />
  <path
     id="path105"
     d="m 724.03308,341.69734 -82.50969,-7.27514 c -0.20423,-0.0153 -0.34929,-0.19878 -0.33408,-0.40168 l 7.28145,-82.5051 c 0.0152,-0.2029 0.19247,-0.35388 0.39623,-0.33322 l 82.50957,7.27648 c 0.20376,0.0207 0.34941,0.19744 0.3342,0.40034 l -7.28145,82.5051 c -0.0153,0.20424 -0.19259,0.35522 -0.39623,0.33322 z"
     style="fill:none;stroke:#000000;stroke-width:1.05643;stroke-linecap:square;stroke-linejoin:miter;stroke-miterlimit:4;stroke-dasharray:none;stroke-opacity:1" />
  <path
     id="path106"
     d="M 640.79394,334.35919 558.2834,327.0786 c -0.20279,-0.0165 -0.3493,-0.19878 -0.33275,-0.40156 l 7.28011,-82.50521 c 0.0165,-0.20279 0.1938,-0.35377 0.39623,-0.33322 l 82.5109,7.27658 c 0.20244,0.0206 0.34808,0.19733 0.33287,0.40023 l -7.28145,82.5051 c -0.0152,0.2029 -0.19258,0.35522 -0.39537,0.33867 z"
     style="fill:none;stroke:#000000;stroke-width:1.05643;stroke-linecap:square;stroke-linejoin:miter;stroke-miterlimit:4;stroke-dasharray:none;stroke-opacity:1" />
  <path
     id="path107"
     d="M 557.55394,327.01559 475.0434,319.735 c -0.20279,-0.0165 -0.34797,-0.19866 -0.33275,-0.40156 l 7.28145,-82.5051 c 0.0152,-0.2029 0.19199,-0.34855 0.3949,-0.33333 l 82.51101,7.27525 c 0.20365,0.022 0.3493,0.19878 0.33275,0.40157 l -7.28011,82.50521 c -0.0165,0.20278 -0.1938,0.35377 -0.39671,0.33855 z"
     style="fill:none;stroke:#000000;stroke-width:1.05643;stroke-linecap:square;stroke-linejoin:miter;stroke-miterlimit:4;stroke-dasharray:none;stroke-opacity:1" />
  <path
     id="path108"
     d="m 474.30995,319.67164 -82.5051,-7.28145 c -0.20424,-0.0153 -0.34941,-0.19745 -0.3342,-0.40035 l 7.28145,-82.50509 c 0.0152,-0.20291 0.19345,-0.34977 0.39623,-0.33323 l 82.5051,7.28146 c 0.2029,0.0152 0.35388,0.19246 0.33867,0.39536 l -7.28145,82.5051 c -0.0152,0.2029 -0.19792,0.35475 -0.4007,0.3382 z"
     style="fill:none;stroke:#000000;stroke-width:1.05643;stroke-linecap:square;stroke-linejoin:miter;stroke-miterlimit:4;stroke-dasharray:none;stroke-opacity:1" />
  <path
     id="path109"
     d="m 391.06995,312.32804 -82.5051,-7.28145 c -0.2029,-0.0152 -0.34941,-0.19745 -0.3342,-0.40035 l 7.28145,-82.50509 c 0.0167,-0.20412 0.19345,-0.34977 0.39623,-0.33322 l 82.50522,7.28011 c 0.20278,0.0166 0.35376,0.1938 0.33855,0.39671 l -7.28145,82.50509 c -0.0152,0.2029 -0.1978,0.35342 -0.4007,0.3382 z"
     style="fill:none;stroke:#000000;stroke-width:1.05643;stroke-linecap:square;stroke-linejoin:miter;stroke-miterlimit:4;stroke-dasharray:none;stroke-opacity:1" />
  <path
     id="path110"
     d="m 307.82995,304.98444 -82.5051,-7.28145 c -0.2029,-0.0152 -0.34941,-0.19744 -0.33286,-0.40023 l 7.27612,-82.50557 c 0.0207,-0.20376 0.19744,-0.34941 0.40034,-0.3342 l 82.5051,7.28146 c 0.20412,0.0167 0.35522,0.19258 0.33855,0.3967 l -7.28145,82.50509 c -0.0152,0.2029 -0.1978,0.35342 -0.4007,0.3382 z"
     style="fill:none;stroke:#000000;stroke-width:1.05643;stroke-linecap:square;stroke-linejoin:miter;stroke-miterlimit:4;stroke-dasharray:none;stroke-opacity:1" />
  <text
     id="text110"
     xml:space="preserve"
     transform="rotate(-174.9583)"
     x="-912.33014"
     y="-254.53423"
     style="font-size:16px;stroke-width:1.33333"><tspan
       style="font-variant:normal;font-weight:normal;font-size:23.538px;font-family:Calibri;writing-mode:lr-tb;fill:#000000;fill-opacity:1;fill-rule:nonzero;stroke:none;stroke-width:1.33333"
       x="-912.33014"
       y="-254.53423"
       id="tspan110">1</tspan></text>
  <path
     id="path111"
     d="m 875.76228,333.57845 c 0.0161,-0.15177 0.0365,-0.27628 0.0626,-0.37475 0.0311,-0.094 0.0622,-0.17188 0.10494,-0.22992 0.0408,-0.0515 0.0938,-0.0885 0.1449,-0.10412 0.0574,-0.0258 0.10447,-0.0419 0.14604,-0.0409 l 7.72886,0.68723 c 0.0578,-2.7e-4 0.11506,0.0209 0.16655,0.0617 0.0415,0.0319 0.0844,0.0787 0.12545,0.14678 0.0318,0.0512 0.0517,0.12953 0.0631,0.22863 0.0145,0.094 0.0156,0.21906 -8.1e-4,0.37482 -0.01,0.12545 -0.0315,0.23506 -0.0616,0.33318 -0.0271,0.10913 -0.0627,0.19333 -0.10537,0.25004 -0.0409,0.0676 -0.088,0.11451 -0.14454,0.1458 -0.0534,0.0262 -0.11526,0.0422 -0.18785,0.0425 l -3.08356,-0.29219 -0.97954,11.27063 3.02115,-1.4373 c 0.14075,-0.0722 0.26,-0.11412 0.35365,-0.12467 0.0995,-6.3e-4 0.16753,0.0202 0.20812,0.0627 0.0424,0.0521 0.0732,0.14486 0.0836,0.27074 -2.7e-4,0.12494 -0.004,0.2751 -0.0202,0.45776 -0.0111,0.12534 -0.0256,0.22887 -0.0423,0.31204 -0.0262,0.0837 -0.047,0.15173 -0.0615,0.20957 -0.0261,0.0676 -0.0634,0.12475 -0.10462,0.16545 -0.0517,0.0532 -0.11451,0.0947 -0.18714,0.12593 l -3.6053,1.87487 c -0.0412,0.01 -0.0829,0.0263 -0.12459,0.0414 -0.0412,0.01 -0.0932,0.0213 -0.16573,0.0203 -0.0682,0.0114 -0.14705,0.022 -0.23031,0.0213 -0.0927,-1.1e-4 -0.2127,-0.0107 -0.35427,-0.0205 -0.19212,-0.0156 -0.34341,-0.037 -0.458,-0.0632 -0.12491,-0.0312 -0.21891,-0.0623 -0.29185,-0.10368 -0.0671,-0.0315 -0.10874,-0.062 -0.12521,-0.10377 -0.0258,-0.0426 -0.0415,-0.0937 -0.0409,-0.14603 l 1.14555,-13.00012 -2.66713,-0.22993 c -0.0511,-0.0152 -0.10385,-0.0414 -0.14589,-0.0827 -0.051,-0.0314 -0.0925,-0.078 -0.12423,-0.14533 -0.0258,-0.0735 -0.0421,-0.16228 -0.0419,-0.2711 -0.0101,-0.099 -0.01,-0.2078 -1.6e-4,-0.33325 z"
     style="fill:none;stroke:#000000;stroke-width:1.39004;stroke-linecap:square;stroke-linejoin:miter;stroke-miterlimit:4;stroke-dasharray:none;stroke-opacity:1" />
  <text
     id="text111"
     xml:space="preserve"
     transform="rotate(-174.9583)"
     x="-900.40021"
     y="-254.53423"
     style="font-size:16px;stroke-width:1.33333"><tspan
       style="font-variant:normal;font-weight:normal;font-size:23.538px;font-family:Calibri;writing-mode:lr-tb;fill:#000000;fill-opacity:1;fill-rule:nonzero;stroke:none;stroke-width:1.33333"
       x="-900.40021"
       y="-254.53423"
       id="tspan111">0</tspan></text>
  <path
     id="path112"
     d="m 862.79923,339.15606 c 0.1141,-1.15627 0.30134,-2.19725 0.56184,-3.12428 0.26634,-0.9171 0.64163,-1.69828 1.12503,-2.3342 0.47434,-0.62464 1.06351,-1.08864 1.77186,-1.39567 0.69717,-0.31742 1.53544,-0.43696 2.5198,-0.35415 0.93321,0.0837 1.70349,0.32362 2.31322,0.70797 0.59883,0.38607 1.06256,0.91743 1.39614,1.58378 0.33263,0.67701 0.54084,1.50026 0.62422,2.45897 0.0835,0.95737 0.0734,2.04623 -0.0413,3.27097 -0.0938,1.12448 -0.27565,2.14981 -0.54207,3.08303 -0.2605,0.92702 -0.62947,1.71279 -1.10389,2.35354 -0.48474,0.63581 -1.0734,1.10927 -1.77108,1.41724 -0.70788,0.30169 -1.55246,0.41664 -2.54215,0.33336 -0.92655,-0.0831 -1.69149,-0.32256 -2.29032,-0.70863 -0.61047,-0.39113 -1.08452,-0.92744 -1.41715,-1.60445 -0.33358,-0.66635 -0.5414,-1.47882 -0.62478,-2.43752 -0.0835,-0.95737 -0.0739,-2.0409 0.0207,-3.24996 z m 2.0629,0.0423 c -0.0688,0.73431 -0.10425,1.39498 -0.10476,1.97945 1.3e-4,0.59259 0.0366,1.12388 0.10359,1.58262 0.0581,0.46871 0.1566,0.87514 0.29249,1.20827 0.14028,0.34427 0.31252,0.6309 0.51985,0.85478 0.1984,0.23384 0.43856,0.40552 0.72946,0.51987 0.28192,0.10953 0.60424,0.18768 0.97941,0.23018 0.65659,0.0512 1.19788,-0.0529 1.62533,-0.31347 0.43192,-0.26557 0.79199,-0.66111 1.083,-1.1877 0.28196,-0.51529 0.49556,-1.12396 0.64539,-1.83232 0.14183,-0.70906 0.24559,-1.47388 0.3137,-2.29157 0.0983,-1.11466 0.12416,-2.06239 0.0826,-2.85482 -0.0412,-0.78164 -0.16704,-1.42697 -0.37466,-1.93709 -0.20847,-0.51556 -0.48981,-0.90587 -0.85382,-1.16642 -0.37561,-0.25082 -0.83843,-0.39646 -1.39647,-0.43763 -0.42631,-0.0416 -0.81196,-0.0112 -1.146,0.10449 -0.34278,0.10816 -0.63486,0.28126 -0.87501,0.52076 -0.24902,0.23333 -0.46383,0.52075 -0.64508,0.85412 -0.17808,0.34306 -0.33348,0.73381 -0.45897,1.16616 -0.1358,0.42742 -0.23889,0.89534 -0.31257,1.39542 -0.0827,0.51137 -0.15014,1.04694 -0.20743,1.6049 z"
     style="fill:none;stroke:#000000;stroke-width:1.39004;stroke-linecap:square;stroke-linejoin:miter;stroke-miterlimit:4;stroke-dasharray:none;stroke-opacity:1" />
  <text
     id="text112"
     xml:space="preserve"
     transform="rotate(-174.9583)"
     x="-888.47028"
     y="-254.53423"
     style="font-size:16px;stroke-width:1.33333"><tspan
       style="font-variant:normal;font-weight:normal;font-size:23.538px;font-family:Calibri;writing-mode:lr-tb;fill:#000000;fill-opacity:1;fill-rule:nonzero;stroke:none;stroke-width:1.33333"
       x="-888.47028"
       y="-254.53423"
       id="tspan112">.</tspan></text>
  <path
     id="path113"
     d="m 858.3726,332.50519 c 0.0411,-0.54192 0.16136,-0.88471 0.35387,-1.04107 0.19745,-0.16666 0.5309,-0.22996 1.00023,-0.18856 0.44737,0.0314 0.74941,0.14137 0.91655,0.33348 0.16569,0.19333 0.22809,0.55223 0.1866,1.08337 -0.0515,0.5531 -0.17669,0.9062 -0.37465,1.06341 -0.192,0.16581 -0.52133,0.22813 -0.97854,0.18645 -0.46934,-0.0414 -0.78134,-0.1603 -0.93758,-0.35415 -0.16666,-0.19744 -0.21961,-0.55685 -0.16648,-1.08293 z"
     style="fill:none;stroke:#000000;stroke-width:1.39004;stroke-linecap:square;stroke-linejoin:miter;stroke-miterlimit:4;stroke-dasharray:none;stroke-opacity:1" />
  <path
     id="path114"
     d="m 135.58531,232.87978 h 74.02666 c 0.20267,0 0.36933,0.16667 0.36933,0.37067 v 74.02533 c 0,0.204 -0.16666,0.36534 -0.36933,0.36534 h -74.02666 c -0.20267,0 -0.364,-0.16134 -0.364,-0.36534 v -74.02533 c 0,-0.204 0.16133,-0.37067 0.364,-0.37067 z"
     style="fill:none;stroke:#000000;stroke-width:0.94516;stroke-linecap:square;stroke-linejoin:miter;stroke-miterlimit:4;stroke-dasharray:none;stroke-opacity:1" />
  <path
     id="path115"
     d="m 210.35064,232.87978 h 74.02666 c 0.20267,0 0.364,0.16667 0.364,0.37067 v 74.02533 c 0,0.204 -0.16133,0.36534 -0.364,0.36534 h -74.02666 c -0.20267,0 -0.36934,-0.16134 -0.36934,-0.36534 v -74.02533 c 0,-0.204 0.16667,-0.37067 0.36934,-0.37067 z"
     style="fill:none;stroke:#000000;stroke-width:0.94516;stroke-linecap:square;stroke-linejoin:miter;stroke-miterlimit:4;stroke-dasharray:none;stroke-opacity:1" />
  <path
     id="path116"
     d="m 285.11197,232.87978 h 74.02533 c 0.204,0 0.36533,0.16667 0.36533,0.37067 v 74.02533 c 0,0.204 -0.16133,0.36534 -0.36533,0.36534 h -74.02533 c -0.204,0 -0.37067,-0.16134 -0.37067,-0.36534 v -74.02533 c 0,-0.204 0.16667,-0.37067 0.37067,-0.37067 z"
     style="fill:none;stroke:#000000;stroke-width:0.94516;stroke-linecap:square;stroke-linejoin:miter;stroke-miterlimit:4;stroke-dasharray:none;stroke-opacity:1" />
  <path
     id="path117"
     d="m 359.87197,232.87978 h 74.02666 c 0.20267,0 0.36933,0.16667 0.36933,0.37067 v 74.02533 c 0,0.204 -0.16666,0.36534 -0.36933,0.36534 h -74.02666 c -0.20267,0 -0.36934,-0.16134 -0.36934,-0.36534 v -74.02533 c 0,-0.204 0.16667,-0.37067 0.36934,-0.37067 z"
     style="fill:none;stroke:#000000;stroke-width:0.94516;stroke-linecap:square;stroke-linejoin:miter;stroke-miterlimit:4;stroke-dasharray:none;stroke-opacity:1" />
  <path
     id="path118"
     d="m 434.63196,232.87978 h 74.02667 c 0.20267,0 0.36933,0.16667 0.36933,0.37067 v 74.02533 c 0,0.204 -0.16666,0.36534 -0.36933,0.36534 h -74.02667 c -0.20266,0 -0.364,-0.16134 -0.364,-0.36534 v -74.02533 c 0,-0.204 0.16134,-0.37067 0.364,-0.37067 z"
     style="fill:none;stroke:#000000;stroke-width:0.94516;stroke-linecap:square;stroke-linejoin:miter;stroke-miterlimit:4;stroke-dasharray:none;stroke-opacity:1" />
  <path
     id="path119"
     d="m 509.39863,232.87978 h 74.02533 c 0.20267,0 0.364,0.16667 0.364,0.37067 v 74.02533 c 0,0.204 -0.16133,0.36534 -0.364,0.36534 h -74.02533 c -0.204,0 -0.37067,-0.16134 -0.37067,-0.36534 v -74.02533 c 0,-0.204 0.16667,-0.37067 0.37067,-0.37067 z"
     style="fill:none;stroke:#000000;stroke-width:0.94516;stroke-linecap:square;stroke-linejoin:miter;stroke-miterlimit:4;stroke-dasharray:none;stroke-opacity:1" />
  <path
     id="path120"
     d="m 584.15863,232.87978 h 74.02533 c 0.204,0 0.36533,0.16667 0.36533,0.37067 v 74.02533 c 0,0.204 -0.16133,0.36534 -0.36533,0.36534 h -74.02533 c -0.204,0 -0.37067,-0.16134 -0.37067,-0.36534 v -74.02533 c 0,-0.204 0.16667,-0.37067 0.37067,-0.37067 z"
     style="fill:none;stroke:#000000;stroke-width:0.94516;stroke-linecap:square;stroke-linejoin:miter;stroke-miterlimit:4;stroke-dasharray:none;stroke-opacity:1" />
  <text
     id="text120"
     xml:space="preserve"
     x="141.4281"
     y="252.938"
     style="font-size:16px;stroke-width:1.33333"><tspan
       style="font-variant:normal;font-weight:normal;font-size:21.0588px;font-family:Calibri;writing-mode:lr-tb;fill:#000000;fill-opacity:1;fill-rule:nonzero;stroke:none;stroke-width:1.33333"
       x="141.4281"
       y="252.938"
       id="tspan120">1</tspan></text>
  <path
     id="path121"
     d="m 151.09597,252.22912 c 0,0.12533 -0.016,0.24 -0.0413,0.33333 -0.016,0.084 -0.0427,0.156 -0.084,0.208 -0.0307,0.0573 -0.072,0.1 -0.12533,0.12533 -0.0413,0.032 -0.0827,0.0413 -0.124,0.0413 h -7.04267 c -0.0573,0 -0.104,-0.009 -0.14533,-0.0413 -0.0413,-0.0253 -0.0827,-0.068 -0.12534,-0.12533 -0.0307,-0.052 -0.0573,-0.124 -0.0827,-0.208 -0.016,-0.0933 -0.0213,-0.208 -0.0213,-0.33333 0,-0.12534 0.005,-0.22934 0.0213,-0.312 0.0253,-0.0947 0.052,-0.172 0.0827,-0.22934 0.0267,-0.068 0.0627,-0.11466 0.104,-0.14533 0.0533,-0.0267 0.10934,-0.0427 0.16667,-0.0427 h 2.81333 v -10.24933 l -2.604,1.54133 c -0.14133,0.0733 -0.25066,0.11467 -0.33333,0.12534 -0.0733,0.0147 -0.136,0 -0.188,-0.0413 -0.0413,-0.0427 -0.0787,-0.11066 -0.104,-0.20933 -0.016,-0.10933 -0.0213,-0.24933 -0.0213,-0.416 0,-0.10933 0.005,-0.208 0.0213,-0.292 0.0107,-0.0827 0.0253,-0.15067 0.0413,-0.208 0.0267,-0.052 0.052,-0.104 0.084,-0.14667 0.0413,-0.0413 0.0933,-0.0827 0.16667,-0.124 l 3.104,-2 c 0.0253,-0.0107 0.0627,-0.0267 0.104,-0.0427 0.0413,-0.009 0.088,-0.0253 0.14533,-0.0413 0.068,-0.0107 0.14667,-0.02 0.22934,-0.02 0.084,-0.0107 0.188,-0.0213 0.31333,-0.0213 0.16667,0 0.30133,0.0107 0.416,0.0213 0.10933,0.0147 0.19333,0.036 0.25067,0.0613 0.0667,0.032 0.10933,0.0627 0.124,0.10533 0.0267,0.0307 0.0427,0.0613 0.0427,0.104 v 11.85333 h 2.4373 c 0.052,0 0.104,0.016 0.14533,0.0427 0.052,0.0307 0.0933,0.0773 0.12533,0.14533 0.0253,0.0573 0.0467,0.13467 0.0627,0.22934 0.0253,0.0827 0.0413,0.18666 0.0413,0.312 z"
     style="fill:none;stroke:#000000;stroke-width:1.24363;stroke-linecap:square;stroke-linejoin:miter;stroke-miterlimit:4;stroke-dasharray:none;stroke-opacity:1" />
  <text
     id="text121"
     xml:space="preserve"
     x="152.10147"
     y="252.938"
     style="font-size:16px;stroke-width:1.33333"><tspan
       style="font-variant:normal;font-weight:normal;font-size:21.0588px;font-family:Calibri;writing-mode:lr-tb;fill:#000000;fill-opacity:1;fill-rule:nonzero;stroke:none;stroke-width:1.33333"
       x="152.10147"
       y="252.938"
       id="tspan121">1</tspan></text>
  <path
     id="path122"
     d="m 161.76797,252.22912 c 0,0.12533 -0.016,0.24 -0.0413,0.33333 -0.016,0.084 -0.0427,0.156 -0.084,0.208 -0.0307,0.0573 -0.0733,0.1 -0.12534,0.12533 -0.0413,0.032 -0.0827,0.0413 -0.124,0.0413 h -7.04266 c -0.0573,0 -0.104,-0.009 -0.14533,-0.0413 -0.0413,-0.0253 -0.084,-0.068 -0.12534,-0.12533 -0.0307,-0.052 -0.0573,-0.124 -0.0827,-0.208 -0.016,-0.0933 -0.0213,-0.208 -0.0213,-0.33333 0,-0.12534 0.005,-0.22934 0.0213,-0.312 0.0253,-0.0947 0.052,-0.172 0.0827,-0.22934 0.0267,-0.068 0.0627,-0.11466 0.104,-0.14533 0.052,-0.0267 0.10934,-0.0427 0.16667,-0.0427 h 2.81333 v -10.24933 l -2.604,1.54133 c -0.14133,0.0733 -0.25066,0.11467 -0.33333,0.12534 -0.0733,0.0147 -0.136,0 -0.188,-0.0413 -0.0413,-0.0427 -0.0787,-0.11066 -0.104,-0.20933 -0.016,-0.10933 -0.0213,-0.24933 -0.0213,-0.416 0,-0.10933 0.005,-0.208 0.0213,-0.292 0.0107,-0.0827 0.0253,-0.15067 0.0413,-0.208 0.0267,-0.052 0.052,-0.104 0.084,-0.14667 0.0413,-0.0413 0.0933,-0.0827 0.16667,-0.124 l 3.104,-2 c 0.0253,-0.0107 0.0627,-0.0267 0.104,-0.0427 0.0413,-0.009 0.088,-0.0253 0.14533,-0.0413 0.068,-0.0107 0.14667,-0.02 0.22934,-0.02 0.084,-0.0107 0.188,-0.0213 0.312,-0.0213 0.16666,0 0.30266,0.0107 0.41733,0.0213 0.10933,0.0147 0.19333,0.036 0.24933,0.0613 0.068,0.032 0.11067,0.0627 0.12534,0.10533 0.0267,0.0307 0.0413,0.0613 0.0413,0.104 v 11.85333 h 2.43866 c 0.052,0 0.104,0.016 0.14534,0.0427 0.052,0.0307 0.0933,0.0773 0.12533,0.14533 0.0253,0.0573 0.0467,0.13467 0.0627,0.22934 0.0253,0.0827 0.0413,0.18666 0.0413,0.312 z"
     style="fill:none;stroke:#000000;stroke-width:1.24363;stroke-linecap:square;stroke-linejoin:miter;stroke-miterlimit:4;stroke-dasharray:none;stroke-opacity:1" />
  <text
     id="text122"
     xml:space="preserve"
     x="162.77484"
     y="252.938"
     style="font-size:16px;stroke-width:1.33333"><tspan
       style="font-variant:normal;font-weight:normal;font-size:21.0588px;font-family:Calibri;writing-mode:lr-tb;fill:#000000;fill-opacity:1;fill-rule:nonzero;stroke:none;stroke-width:1.33333"
       x="162.77484"
       y="252.938"
       id="tspan122">.</tspan></text>
  <path
     id="path123"
     d="m 166.5853,251.79178 c 0,0.5 -0.0827,0.83334 -0.24933,1 -0.15733,0.16667 -0.448,0.25067 -0.876,0.25067 -0.416,0 -0.708,-0.084 -0.87467,-0.25067 -0.156,-0.16666 -0.22933,-0.484 -0.22933,-0.95866 0,-0.5 0.0733,-0.82267 0.22933,-0.97867 0.16667,-0.16667 0.464,-0.25067 0.896,-0.25067 0.41734,0 0.69734,0.084 0.85467,0.25067 0.16667,0.156 0.24933,0.468 0.24933,0.93733 z"
     style="fill:none;stroke:#000000;stroke-width:1.24363;stroke-linecap:square;stroke-linejoin:miter;stroke-miterlimit:4;stroke-dasharray:none;stroke-opacity:1" />
  <path
     id="path124"
     d="m 318.22666,312.854 79.39024,-27.23351 c 0.19242,-0.069 0.40106,0.0353 0.46293,0.22865 l 27.2406,79.38483 c 0.0619,0.19338 -0.0366,0.40152 -0.22949,0.46918 l -79.39158,27.23397 c -0.19108,0.0685 -0.39973,-0.0357 -0.46293,-0.22865 l -27.23926,-79.38529 c -0.0632,-0.19291 0.0366,-0.40152 0.22949,-0.46918 z"
     style="fill:none;stroke:#000000;stroke-width:1.07036;stroke-linecap:square;stroke-linejoin:miter;stroke-miterlimit:4;stroke-dasharray:none;stroke-opacity:1" />
  <path
     id="path125"
     d="m 398.30932,285.37996 79.39158,-27.23397 c 0.19154,-0.0672 0.39969,0.0313 0.46289,0.22419 l 27.2393,79.38975 c 0.0632,0.19292 -0.0366,0.40152 -0.22948,0.46918 l -79.38979,27.23485 c -0.19337,0.0619 -0.40152,-0.0366 -0.46339,-0.22999 l -27.2406,-79.38483 c -0.0619,-0.19337 0.0366,-0.40598 0.22949,-0.46918 z"
     style="fill:none;stroke:#000000;stroke-width:1.07036;stroke-linecap:square;stroke-linejoin:miter;stroke-miterlimit:4;stroke-dasharray:none;stroke-opacity:1" />
  <path
     id="path126"
     d="m 478.39198,257.90592 79.39158,-27.23397 c 0.19288,-0.0677 0.40103,0.0308 0.46869,0.2237 l 27.23397,79.39158 c 0.0627,0.19158 -0.0357,0.39973 -0.22862,0.46739 l -79.39112,27.2353 c -0.19204,0.0614 -0.40018,-0.0371 -0.46339,-0.22999 l -27.2393,-79.38975 c -0.0632,-0.19291 0.0366,-0.40151 0.22819,-0.46426 z"
     style="fill:none;stroke:#000000;stroke-width:1.07036;stroke-linecap:square;stroke-linejoin:miter;stroke-miterlimit:4;stroke-dasharray:none;stroke-opacity:1" />
  <path
     id="path127"
     d="M 558.47644,230.43276 637.86752,203.193 c 0.19158,-0.0627 0.39973,0.0357 0.46739,0.22861 l 27.2353,79.39112 c 0.0614,0.19204 -0.0371,0.40018 -0.22998,0.46339 l -79.38529,27.23926 c -0.19737,0.0632 -0.40598,-0.0366 -0.46872,-0.22815 l -27.23397,-79.39158 c -0.0677,-0.19288 0.0308,-0.40103 0.22419,-0.46289 z"
     style="fill:none;stroke:#000000;stroke-width:1.07036;stroke-linecap:square;stroke-linejoin:miter;stroke-miterlimit:4;stroke-dasharray:none;stroke-opacity:1" />
  <path
     id="path128"
     d="m 638.5591,202.95871 79.39109,-27.23975 c 0.19291,-0.0632 0.40152,0.0366 0.46918,0.22948 l 27.23351,79.39025 c 0.0632,0.19291 -0.0353,0.40106 -0.22865,0.46293 l -79.38529,27.23926 c -0.19871,0.0637 -0.40731,-0.0361 -0.46873,-0.22815 l -27.2353,-79.39112 c -0.0677,-0.19288 0.0322,-0.40148 0.22419,-0.4629 z"
     style="fill:none;stroke:#000000;stroke-width:1.07036;stroke-linecap:square;stroke-linejoin:miter;stroke-miterlimit:4;stroke-dasharray:none;stroke-opacity:1" />
  <path
     id="path129"
     d="m 718.64752,175.47972 79.38533,-27.23481 c 0.19292,-0.0632 0.40152,0.0366 0.46918,0.22949 l 27.23485,79.38979 c 0.0677,0.19288 -0.0366,0.40152 -0.22999,0.46339 l -79.38483,27.2406 c -0.19337,0.0619 -0.40598,-0.0366 -0.46918,-0.22949 l -27.23351,-79.39025 c -0.0677,-0.19287 0.0308,-0.40102 0.22815,-0.46872 z"
     style="fill:none;stroke:#000000;stroke-width:1.07036;stroke-linecap:square;stroke-linejoin:miter;stroke-miterlimit:4;stroke-dasharray:none;stroke-opacity:1" />
  <path
     id="path130"
     d="m 798.73152,148.00522 79.38533,-27.2348 c 0.19337,-0.0619 0.40152,0.0366 0.46918,0.22948 l 27.23347,79.38579 c 0.0677,0.19288 -0.0366,0.40598 -0.22815,0.46872 l -79.38579,27.23348 c -0.19288,0.0677 -0.40102,-0.0308 -0.46868,-0.2237 L 798.50203,148.4744 c -0.0677,-0.19287 0.0322,-0.40148 0.22949,-0.46918 z"
     style="fill:none;stroke:#000000;stroke-width:1.07036;stroke-linecap:square;stroke-linejoin:miter;stroke-miterlimit:4;stroke-dasharray:none;stroke-opacity:1" />
  <text
     id="text130"
     xml:space="preserve"
     transform="rotate(-18.935596)"
     x="204.86826"
     y="422.3284"
     style="font-size:16px;stroke-width:1.33333"><tspan
       style="font-variant:normal;font-weight:normal;font-size:23.8484px;font-family:Calibri;writing-mode:lr-tb;fill:#000000;fill-opacity:1;fill-rule:nonzero;stroke:none;stroke-width:1.33333"
       x="204.86826"
       y="422.3284"
       id="tspan130">6</tspan></text>
  <path
     id="path131"
     d="m 339.78822,324.7662 c 0.20908,0.61379 0.31801,1.24406 0.3344,1.89564 0.0102,0.6552 -0.10525,1.27005 -0.35514,1.85352 -0.23918,0.58428 -0.61434,1.11536 -1.12422,1.58387 -0.51564,0.47346 -1.18811,0.85468 -2.0214,1.14503 -0.59909,0.20851 -1.15575,0.32348 -1.66652,0.33329 -0.50061,3.7e-4 -0.96842,-0.0731 -1.39595,-0.22896 -0.43194,-0.15136 -0.83251,-0.38501 -1.20844,-0.70759 -0.36386,-0.31778 -0.69759,-0.70849 -0.99938,-1.16678 -0.30856,-0.46938 -0.58861,-0.99028 -0.85483,-1.56211 -0.26009,-0.58437 -0.51082,-1.21964 -0.75005,-1.91697 -0.20802,-0.5933 -0.37931,-1.21856 -0.521,-1.87485 -0.15058,-0.65174 -0.23958,-1.29779 -0.27015,-1.93855 -0.0256,-0.63501 0.0154,-1.2541 0.12423,-1.85329 0.11547,-0.61038 0.32315,-1.17789 0.62566,-1.70789 0.3073,-0.54207 0.72389,-1.02626 1.25058,-1.45881 0.54056,-0.42687 1.21326,-0.78135 2.01989,-1.06255 0.2613,-0.0941 0.54145,-0.17234 0.83338,-0.22928 0.30165,-0.0677 0.58391,-0.10941 0.83341,-0.12497 0.25029,-0.0263 0.46333,-0.0308 0.64575,-0.0204 0.19346,-8e-4 0.31797,0.0146 0.37481,0.0413 0.0679,0.0155 0.12608,0.0417 0.167,0.0828 0.0414,0.0424 0.0726,0.0943 0.10381,0.1462 0.0427,0.042 0.0726,0.0988 0.10487,0.16669 0.0265,0.0729 0.0624,0.15592 0.10383,0.25051 0.0422,0.1405 0.0727,0.2597 0.10472,0.35303 0.0414,0.099 0.0524,0.18321 0.0414,0.25106 5e-5,0.0566 -0.0151,0.10355 -0.0424,0.14569 -0.0304,0.0417 -0.0778,0.0774 -0.14487,0.10335 -0.0996,0.0312 -0.2301,0.0417 -0.39681,0.0423 -0.15514,-4.3e-4 -0.3436,0.0106 -0.56194,0.0214 -0.20862,4e-5 -0.46913,0.0313 -0.77047,0.0825 -0.29251,0.0422 -0.62478,0.12493 -1.00036,0.2508 -0.68263,0.23866 -1.21906,0.57768 -1.60391,1.01969 -0.39149,0.44875 -0.66653,0.95889 -0.83306,1.54209 -0.1519,0.5737 -0.19281,1.19726 -0.12582,1.8747 0.0678,0.66673 0.19898,1.3445 0.39656,2.02036 0.16661,-0.16595 0.34293,-0.34268 0.5418,-0.54056 0.19179,-0.19247 0.41615,-0.38121 0.66687,-0.5626 0.25998,-0.19351 0.54111,-0.36447 0.83306,-0.52126 0.29142,-0.16704 0.61423,-0.31207 0.97823,-0.43694 0.7768,-0.27693 1.46444,-0.40107 2.06334,-0.37555 0.59361,0.0318 1.1142,0.1766 1.56137,0.43749 0.45867,0.25097 0.83933,0.60471 1.14691,1.06251 0.31694,0.45906 0.58236,0.98944 0.79083,1.58407 z m -1.85429,0.83287 c -0.15529,-0.42659 -0.33332,-0.80216 -0.54075,-1.12443 -0.19847,-0.31789 -0.43286,-0.56236 -0.70936,-0.72978 -0.27971,-0.17676 -0.61358,-0.27681 -0.99887,-0.29217 -0.37557,-0.0261 -0.80827,0.0418 -1.29181,0.20921 -0.26572,0.0986 -0.53169,0.21818 -0.79218,0.35374 -0.24974,0.14082 -0.4895,0.30206 -0.70727,0.47959 -0.22455,0.16646 -0.43337,0.34838 -0.62649,0.5413 -0.18104,0.19773 -0.34875,0.39088 -0.49908,0.58254 0.33281,0.94838 0.66586,1.71933 0.99914,2.31287 0.33377,0.59933 0.67746,1.05815 1.04265,1.37547 0.3749,0.30654 0.75496,0.48911 1.14548,0.54142 0.40022,0.0415 0.83788,-0.0207 1.3125,-0.188 0.45829,-0.14977 0.8236,-0.37942 1.10398,-0.68723 0.29158,-0.30121 0.50041,-0.63514 0.6256,-0.99999 0.13537,-0.3743 0.19218,-0.76039 0.16634,-1.16582 -0.0313,-0.41698 -0.10477,-0.81798 -0.22988,-1.20872 z"
     style="fill:none;stroke:#000000;stroke-width:1.40837;stroke-linecap:square;stroke-linejoin:miter;stroke-miterlimit:4;stroke-dasharray:none;stroke-opacity:1" />
  <text
     id="text131"
     xml:space="preserve"
     transform="rotate(-18.935596)"
     x="216.95551"
     y="422.3284"
     style="font-size:16px;stroke-width:1.33333"><tspan
       style="font-variant:normal;font-weight:normal;font-size:23.8484px;font-family:Calibri;writing-mode:lr-tb;fill:#000000;fill-opacity:1;fill-rule:nonzero;stroke:none;stroke-width:1.33333"
       x="216.95551"
       y="422.3284"
       id="tspan131">.</tspan></text>
  <path
     id="path132"
     d="m 345.88795,326.46926 c 0.17627,0.53116 0.20811,0.91069 0.0831,1.14581 -0.1147,0.23905 -0.39118,0.43226 -0.83297,0.58233 -0.44842,0.15682 -0.78703,0.17761 -1.02162,0.0629 -0.23855,-0.10892 -0.43649,-0.41656 -0.60356,-0.91659 -0.18202,-0.52621 -0.21962,-0.90078 -0.10434,-1.12513 0.12545,-0.23379 0.40638,-0.42703 0.85347,-0.5834 0.44312,-0.15053 0.78123,-0.17711 1.02188,-0.0838 0.23401,0.10004 0.43774,0.40718 0.60402,0.91793 z"
     style="fill:none;stroke:#000000;stroke-width:1.40837;stroke-linecap:square;stroke-linejoin:miter;stroke-miterlimit:4;stroke-dasharray:none;stroke-opacity:1" />
</svg>
