<?xml version="1.0" encoding="UTF-8" standalone="no"?>
<!-- Created with Inkscape (http://www.inkscape.org/) -->

<svg
   version="1.1"
   id="svg2"
   width="1009"
   height="423"
   viewBox="0 0 1009 423"
   sodipodi:docname="stvorcekova.svg"
   inkscape:version="1.2.2 (b0a8486541, 2022-12-01)"
   xmlns:inkscape="http://www.inkscape.org/namespaces/inkscape"
   xmlns:sodipodi="http://sodipodi.sourceforge.net/DTD/sodipodi-0.dtd"
   xmlns="http://www.w3.org/2000/svg"
   xmlns:svg="http://www.w3.org/2000/svg">
  <defs
     id="defs6" />
  <sodipodi:namedview
     id="namedview4"
     pagecolor="#ffffff"
     bordercolor="#999999"
     borderopacity="1"
     inkscape:showpageshadow="0"
     inkscape:pageopacity="0"
     inkscape:pagecheckerboard="0"
     inkscape:deskcolor="#d1d1d1"
     showgrid="false"
     inkscape:zoom="0.64454224"
     inkscape:cx="494.14915"
     inkscape:cy="321.9339"
     inkscape:window-width="1366"
     inkscape:window-height="726"
     inkscape:window-x="0"
     inkscape:window-y="0"
     inkscape:window-maximized="1"
     inkscape:current-layer="g8" />
  <g
     inkscape:groupmode="layer"
     inkscape:label="Image"
     id="g8">
    <path
       style="fill:#000000"
       d="M 31.948793,210.0376 V 30.537605 h 17 17 v 80.999995 81 h 63.999997 64 v -81 -80.999995 h 17 17 v 179.499995 179.5 h -17 -17 v -81 -81 h -64 -63.999997 v 81 81 h -17 -17 z"
       id="path297" />
    <path
       style="fill:#000000"
       d="M 258.94879,210.0376 V 63.537605 h 98.5 98.5 v 17 17 h -81.5 -81.5 v 47.499995 47.5 h 49 49 v 17.5 17.5 h -49 -49 v 47.5 47.5 h 81.5 81.5 v 17 17 h -98.5 -98.5 z"
       id="path399" />
    <path
       style="fill:#000000"
       d="m 420.94879,274.5376 v -17 h 32.5 32.5 v -15 -15 h -32.5 -32.5 v -33.5 -33.5 h 16.5 16.5 v -16 -16 h 33.5 33.5 v 17 17 h -32.5 -32.5 v 15 15 h 32.5 32.5 v 33.5 33.5 h -16.5 -16.5 v 16 16 h -33.5 -33.5 z"
       id="path419" />
    <path
       style="fill:#000000"
       d="m 550.94879,210.0376 v -49.5 h 17.5 17.5 v 32.5 32.5 h 32.5 32.5 v 17 17 h -50 -50 z"
       id="path427" />
    <path
       style="fill:#000000"
       d="m 908.94879,307.0376 v -17.5 h 17 17 v 17.5 17.5 h -17 -17 z"
       id="path415" />
    <path
       id="path409"
       style="fill:#000000"
       d="m 843.94879,210.0376 v -79.5 h -64 -64 v 79.5 79.5 h 64 64 z m -130,98 v -16.5 h -16.5 -16.5 v -81.5 -81.5 h 16.5 16.5 v -16.5 -16.499995 h 66 66 v 16.499995 16.5 h 16 16 v 81.5 81.5 h -16 -16 v 16.5 16.5 h -66 -66 z" />
    <path
       style="fill:#000000"
       id="path295"
       d="" />
    <path
       style="fill:#000000"
       id="path293"
       d="" />
  </g>
</svg>
