<?xml version="1.0" encoding="UTF-8" standalone="no"?>
<!-- Created with Inkscape (http://www.inkscape.org/) -->

<svg
   width="171.48885mm"
   height="145.70605mm"
   viewBox="0 0 171.48885 145.70605"
   version="1.1"
   id="svg5"
   xmlns="http://www.w3.org/2000/svg"
   xmlns:svg="http://www.w3.org/2000/svg">
  <defs
     id="defs2" />
  <g
     id="layer1"
     transform="translate(-15.548575,-18.384656)">
    <g
       id="g51116"
       transform="translate(90.7529,65.858733)">
      <g
         id="g51198"
         transform="rotate(-17.315212,-6.4354796,-33.699327)">
        <rect
           style="fill:#ffe491;fill-opacity:1;stroke:#7d5f00;stroke-width:1.065;stroke-linecap:square;stroke-linejoin:miter;stroke-opacity:0"
           id="rect31"
           width="18.934999"
           height="18.934999"
           x="0.53250003"
           y="0.53250003"
           ry="0" />
        <path
           style="fill:#ceb568;fill-opacity:1;stroke:#7d5f00;stroke-width:1.065;stroke-linecap:square;stroke-linejoin:miter;stroke-opacity:0"
           id="path50380"
           d="m 4.9112624,15.992793 c 0.2944194,-0.6535 0.5135118,-1.341182 0.7742275,-2.011053 0.3425735,-0.885995 0.8003175,-1.530281 1.4526088,-2.21332 0.7977528,-0.731796 1.3556681,-1.66891 1.84718,-2.6220473 0.4002903,-0.6707661 0.75213,-1.3716696 1.3135333,-1.9244612 0.435137,-0.4199024 0.732691,-0.9273653 0.979207,-1.4735966 0.06374,-0.095676 0.165119,-0.2839243 0.283614,-0.343976 0.04057,-0.020561 0.175635,-0.032195 0.136102,-0.0097 C 9.8716019,6.433562 8.1521304,6.4244008 8.2931478,7.3397485 8.2812786,7.9836792 8.0831096,8.5840624 7.8635571,9.1819377 7.7198568,9.7077664 7.5351861,10.287581 7.5693912,10.842429 c 0.00983,0.159544 0.049962,0.315766 0.074943,0.473649 0.1394264,1.003212 0.4606801,1.958534 0.8163018,2.901377 0.2470277,0.611501 0.3644722,1.253673 0.4137615,1.90766 -0.022537,0.514071 0.1127871,1.007156 0.193494,1.50992 0,0 3.4724215,-1.852148 3.4724215,-1.852148 v 0 c -0.10679,-0.483803 -0.186904,-0.970398 -0.195319,-1.466893 -0.07506,-0.682939 -0.23053,-1.348362 -0.507773,-1.980252 -0.363786,-0.902821 -0.678642,-1.832084 -0.767314,-2.8080939 -0.02302,-0.6840873 0.08457,-1.3544653 0.324385,-1.9983066 0.217553,-0.6619068 0.409029,-1.3551474 0.37203,-2.0579374 C 11.264683,3.5481725 8.3175384,5.9438799 7.7115664,7.3641396 7.4387743,7.8693692 7.1111596,8.3243168 6.7050194,8.7332335 6.2173931,9.3463646 5.8468296,10.032058 5.4797861,10.722203 c -0.5109289,0.935999 -1.1102382,1.80624 -1.8936652,2.539376 -0.6012087,0.707462 -1.1064531,1.469564 -1.4189135,2.351118 -0.2577572,0.660513 -0.4498318,1.373974 -0.8842195,1.943656 0,0 3.6282745,-1.563558 3.6282745,-1.563558 z" />
        <path
           style="fill:#ceb568;fill-opacity:1;stroke:#7d5f00;stroke-width:1.065;stroke-linecap:square;stroke-linejoin:miter;stroke-opacity:0"
           id="path50408"
           d="m 13.114266,6.5127102 c 0.715243,0.063779 1.153362,0.3138429 1.610214,0.8575199 0.51975,0.8107439 0.644811,1.7679389 0.730775,2.7063249 0.09251,0.750364 -0.09136,1.483518 -0.251191,2.210284 -0.06441,0.364742 -0.200158,0.717091 -0.247921,1.08452 0.0031,0.668359 0.618324,1.245959 1.074358,1.666238 0,0 0.400182,-0.247739 0.400182,-0.247739 v 0 c -0.452648,-0.409414 -1.053268,-0.971115 -1.033741,-1.635209 0.05751,-0.362628 0.166082,-0.715759 0.237506,-1.075706 0.154348,-0.729929 0.33218,-1.465576 0.232939,-2.2172434 C 15.776949,8.9139709 15.646183,7.9502393 15.128628,7.1275757 14.650281,6.5490272 14.261194,6.3241745 13.512321,6.2301969 c 0,0 -0.398055,0.2825133 -0.398055,0.2825133 z" />
        <path
           style="fill:#ceb568;fill-opacity:1;stroke:#7d5f00;stroke-width:1.065;stroke-linecap:square;stroke-linejoin:miter;stroke-opacity:0"
           id="path50410"
           d="M 3.964741,7.0309684 C 5.3272158,6.2814294 6.7301456,5.6149901 8.1598578,5.0050879 9.1010535,4.6593098 10.043657,4.2741254 11.026881,4.0578084 c 0.564353,-0.124162 0.854801,-0.1237445 1.409252,-0.1588198 0,0 0.364083,-0.268179 0.364083,-0.268179 v 0 c -0.548833,0.037191 -0.875523,0.041237 -1.431053,0.163735 -0.987971,0.2178547 -1.9344429,0.6077445 -2.8815539,0.9516869 -1.4115399,0.5970429 -2.7973874,1.2490326 -4.1441454,1.981917 0,0 -0.3787227,0.3028199 -0.3787227,0.3028199 z" />
        <text
           xml:space="preserve"
           style="font-style:normal;font-variant:normal;font-weight:normal;font-stretch:normal;font-size:3.52778px;line-height:1.25;font-family:Consolas;-inkscape-font-specification:Consolas;text-align:center;text-anchor:middle;white-space:pre;inline-size:19.1247;display:inline;fill:#000000;fill-opacity:1;stroke:none;stroke-width:0.264583"
           x="23.478807"
           y="7.7254333"
           id="text5987"
           transform="translate(-12.898964,-1.7094768)"><tspan
             x="23.478807"
             y="7.7254333"
             id="tspan1090">Ruina,<tspan
   y="7.7254333"
   id="tspan1092"> </tspan></tspan><tspan
             x="23.478807"
             y="12.135159"
             id="tspan1094">ale s<tspan
   y="12.135159"
   id="tspan1096"> </tspan></tspan><tspan
             x="23.478807"
             y="16.544884"
             id="tspan1098">diskami!</tspan></text>
      </g>
    </g>
    <g
       id="g51136"
       transform="rotate(-5.1587393,100.44009,-1506.3982)">
      <rect
         style="fill:#ffe491;fill-opacity:1;stroke:#7d5f00;stroke-width:1.065;stroke-linecap:square;stroke-linejoin:miter;stroke-opacity:0"
         id="rect2134"
         width="38.934998"
         height="18.934999"
         x="-9.4674997"
         y="20.5329"
         ry="0" />
      <g
         id="g51125">
        <path
           style="fill:#ceb568;fill-opacity:1;stroke:#7d5f00;stroke-width:1.065;stroke-linecap:square;stroke-linejoin:miter;stroke-opacity:0"
           id="path50378"
           d="m -4.5111122,34.11348 c -0.1153305,-1.013198 0.1221666,-2.002782 0.3131386,-2.989667 0.278892,-1.007795 0.502929,-2.027918 0.7625019,-3.040235 0.2891716,-0.735999 0.4830075,-1.499814 0.7113403,-2.254937 0.2788172,-0.919117 0.3709849,-1.890353 0.769431,-2.770442 0.053938,-0.08576 0.098983,-0.177809 0.1618131,-0.257289 0.167286,-0.211617 1.19556699,-0.77889 0.714941,-0.493907 -3.0083911,1.783797 -4.1770721,2.235408 -2.7881779,1.679852 0.5584894,-0.156679 1.1209822,-0.300005 1.6942684,-0.390492 0.2211952,-0.04182 0.434895,-0.0484 0.6553326,-0.01243 0,0 3.2587212,-2.210082 3.2587212,-2.210082 v 0 c -0.26007,-0.118829 -0.486799,-0.178943 -0.77733615,-0.120437 -0.59297821,0.06471 -1.16344817,0.208161 -1.74323195,0.338755 -1.6423871,0.418713 -0.362099,0.06403 -3.9409443,2.126104 -0.3778763,0.217726 -0.6140024,0.586252 -0.7688532,0.981573 -0.2856444,0.913078 -0.4071012,1.867292 -0.72078,2.772847 -0.2470653,0.76028 -0.4932106,1.521087 -0.7208113,2.287323 -0.2323526,1.005948 -0.4377986,2.017821 -0.6840077,3.020679 -0.2103736,1.032404 -0.4177149,2.068121 -0.4175649,3.126428 0,0 3.5202193,-1.79364 3.5202193,-1.79364 z" />
        <path
           style="fill:#ceb568;fill-opacity:1;stroke:#7d5f00;stroke-width:1.065;stroke-linecap:square;stroke-linejoin:miter;stroke-opacity:0"
           id="path50382"
           d="m 7.5060142,23.660443 c -0.011748,0.635195 0.1725467,1.244093 0.3015988,1.85992 0.224218,1.186027 0.2697107,2.396004 0.2961175,3.599813 -0.033084,1.24292 -0.14252,2.482501 -0.2280164,3.722672 -0.047495,0.715576 -0.080114,1.432438 -0.068451,2.14962 0.014288,0.758899 0.00368,1.517994 -0.00217,2.276936 -0.00284,0.414906 -0.015634,0.211878 0.035522,0.609253 0,0 3.4694609,-1.821225 3.4694609,-1.821225 v 0 c -0.03982,-0.348615 -0.02724,-0.162531 -0.03059,-0.558691 -0.0072,-0.757362 -0.02002,-1.514968 -0.0016,-2.272255 0.01895,-0.704543 0.01078,-1.409639 0.03835,-2.114053 0.04405,-1.243161 0.136893,-2.483646 0.169176,-3.727204 -0.04165,-1.23116 -0.06524,-2.467925 -0.26827,-3.685946 -0.110268,-0.605673 -0.239818,-1.21849 -0.182154,-1.836943 0,0 -3.5289747,1.798103 -3.5289738,1.798103 z" />
        <path
           style="fill:#ceb568;fill-opacity:1;stroke:#7d5f00;stroke-width:1.065;stroke-linecap:square;stroke-linejoin:miter;stroke-opacity:0"
           id="path50402"
           d="m 0.05472273,34.455108 c 0.2810971,-0.659218 0.69039004,-1.253083 1.06265397,-1.862503 0.6563521,-1.103924 1.3304381,-2.197 2.0115789,-3.285755 0.7666733,-1.17766 1.5913579,-2.31753 2.4621095,-3.420271 0.3299809,-0.363298 0.5984761,-0.827598 1.036833,-1.075963 -0.1177279,0.08531 -0.2633757,0.141604 -0.3531843,0.255939 -0.025747,0.03278 0.054061,0.06469 0.071662,0.102468 0.032689,0.07017 0.059441,0.143585 0.07798,0.218741 0.1268767,0.514361 0.1405054,1.058217 0.1771184,1.583361 0.1036955,1.358484 0.051627,2.718202 -0.1260612,4.067299 -0.092167,0.57708 -0.1959147,1.156644 -0.3889386,1.709833 0.053675,5.29e-4 -0.1966155,0.2898 -0.1852562,0.283239 0.425486,-0.245684 0.5018434,-0.2682 0.3132738,-0.201901 -0.2562333,-0.06187 -0.4111749,-0.383916 -0.5356918,-0.592968 -0.1028306,-0.17045 -0.190392,-0.349221 -0.278012,-0.527725 0,0 -0.4226502,0.240477 -0.4226502,0.240477 v 0 c 0.089641,0.178771 0.1775053,0.35873 0.2803494,0.53046 0.1411864,0.241232 0.2952937,0.533612 0.562606,0.651431 C 6.1816847,33.06414 6.4235385,32.86121 6.5288448,32.54054 6.7061087,31.985534 6.8042628,31.409267 6.889333,30.834015 7.0517638,29.48265 7.0878252,28.123147 7.0016718,26.763977 6.9705235,26.231544 6.9643164,25.678103 6.8467408,25.154588 6.8143161,25.010214 6.7207251,24.785917 6.6840578,24.790007 6.5010942,24.810417 6.3403926,24.922155 6.16856,24.988229 5.7543469,25.260228 5.4876302,25.700971 5.1679456,26.067862 4.3086104,27.173597 3.489535,28.311453 2.725076,29.484968 2.0407918,30.580049 1.3530794,31.673053 0.6903187,32.78138 c -0.37908517,0.615212 -0.79028597,1.217194 -1.08011871,1.881669 0,0 0.44452274,-0.207941 0.44452274,-0.207941 z" />
        <path
           style="fill:#ceb568;fill-opacity:1;stroke:#7d5f00;stroke-width:1.065;stroke-linecap:square;stroke-linejoin:miter;stroke-opacity:0"
           id="path50404"
           d="m 18.733968,28.241328 c 0.576139,-0.775112 1.295911,-1.422773 2.008199,-2.06857 0.732535,-0.663358 1.525719,-1.252172 2.35502,-1.78768 -0.05784,0.03464 -0.239497,0.09002 -0.173525,0.103926 0.07455,0.01572 0.136816,-0.06726 0.207013,-0.09687 0.287401,-0.121215 0.437027,-0.114468 0.688454,0.06763 0.60819,0.823676 0.768689,1.872728 0.904608,2.862106 0.111091,0.934654 0.137433,1.876227 0.141681,2.816543 0.07373,0.181031 -0.09489,0.682905 0.0029,0.845524 0.05266,0.08762 0.170282,0.03428 0.232031,0.02061 0,0 0.388082,-0.300911 0.388082,-0.300911 v 0 c -0.05879,0.02593 -0.149149,0.10827 -0.184791,0.05481 -0.09792,-0.146868 0.05696,-0.668833 -0.01444,-0.83657 -0.01748,-0.938779 -0.04913,-1.87878 -0.163948,-2.811548 -0.138672,-1.005161 -0.299844,-2.05931 -0.897735,-2.908342 -0.06309,-0.05062 -0.118264,-0.113126 -0.189275,-0.151863 -0.420417,-0.229339 -1.095764,0.399037 -1.3846,0.507913 -0.819958,0.53668 -1.602961,1.126762 -2.329673,1.785573 -0.72184,0.655295 -1.448922,1.312751 -2.040387,2.092732 0,0 0.45043,-0.195027 0.45043,-0.195027 z" />
        <path
           style="fill:#ceb568;fill-opacity:1;stroke:#7d5f00;stroke-width:1.065;stroke-linecap:square;stroke-linejoin:miter;stroke-opacity:0"
           id="path50406"
           d="m 14.523051,30.888403 c 0.570549,0.535257 1.048549,1.156472 1.490344,1.799195 0.467484,0.702445 0.901025,1.426776 1.422354,2.091481 0.715655,0.852758 1.35904,0.753015 2.386847,0.644642 0.969809,-0.17493 1.899343,-0.514663 2.829439,-0.831234 0,0 0.351868,-0.273815 0.351868,-0.273815 v 0 c -0.92465,0.318204 -1.849925,0.65559 -2.814545,0.832594 -1.00831,0.108286 -1.639931,0.220898 -2.346915,-0.614926 -0.52551,-0.660244 -0.96166,-1.382347 -1.428486,-2.084094 -0.440037,-0.646729 -0.91879,-1.267293 -1.475224,-1.81946 0,0 -0.415682,0.255617 -0.415682,0.255617 z" />
        <text
           xml:space="preserve"
           style="font-style:normal;font-variant:normal;font-weight:normal;font-stretch:normal;font-size:3.52778px;line-height:1.25;font-family:Consolas;-inkscape-font-specification:Consolas;text-align:center;text-anchor:middle;white-space:pre;inline-size:33.6919;display:inline;fill:#000000;fill-opacity:1;stroke:none;stroke-width:0.264583"
           x="32.666023"
           y="7.7254333"
           id="text38767"
           transform="translate(-22.764106,18.308077)"><tspan
             x="32.666023"
             y="7.7254333"
             id="tspan1100">Arabi okopírovali<tspan
   y="7.7254333"
   id="tspan1102"> </tspan></tspan><tspan
             x="32.666023"
             y="12.135159"
             id="tspan1104">rovnošatu NZA i<tspan
   y="12.135159"
   id="tspan1106"> </tspan></tspan><tspan
             x="32.666023"
             y="16.544884"
             id="tspan1108">Gestapa.</tspan></text>
      </g>
    </g>
    <g
       id="g51148"
       transform="rotate(-10.731483,456.90819,-690.48906)">
      <rect
         style="fill:#ffe491;fill-opacity:1;stroke:#7d5f00;stroke-width:1.065;stroke-linecap:square;stroke-linejoin:miter;stroke-opacity:0"
         id="rect2136"
         width="58.935001"
         height="18.934999"
         x="-19.467501"
         y="40.532501"
         ry="0" />
      <path
         style="fill:#ceb568;fill-opacity:1;stroke:#7d5f00;stroke-width:1.065;stroke-linecap:square;stroke-linejoin:miter;stroke-opacity:0"
         id="path50376"
         d="m -14.00474,54.052922 c 0.08519,-0.693267 0.08865,-1.398283 0.213418,-2.085576 0.202813,-0.680426 0.652567,-1.135964 1.212291,-1.545717 1.28387,-0.775893 0.981866,-0.590372 -2.452484,1.418987 -0.143255,0.08382 0.287027,-0.16687 0.433263,-0.245369 0.525595,-0.282136 1.072207,-0.520909 1.613327,-0.771038 1.757138,-0.871974 0.569278,-0.268814 4.2182614,-2.406163 0.4900552,-0.287044 0.86301,-0.624978 1.1883208,-1.08734 0.3697107,-0.587812 0.6636384,-1.203463 0.8802139,-1.862307 0.1031899,-0.747678 0.3469143,-1.455732 0.5536502,-2.177838 0.067795,-0.08516 0.1355905,-0.170315 0.2033857,-0.255474 0,0 -3.5602664,1.578176 -3.5602664,1.578176 v 0 c -0.052314,0.11525 -0.1046281,0.2305 -0.1569421,0.34575 -0.2061244,0.717248 -0.3923425,1.437611 -0.5780305,2.159336 -0.244685,0.609407 -0.505832,1.21041 -0.911471,1.73442 -0.26368,0.280194 -0.528739,0.514395 -0.849806,0.728165 -0.117843,0.07846 -0.482132,0.296736 -0.358597,0.227584 4.0045789,-2.241648 3.6650926,-2.055135 2.3598287,-1.362487 -2.1211637,1.008136 -4.2950937,1.943867 -6.1638057,3.41612 -0.562864,0.503483 -1.014064,1.050282 -1.128064,1.821918 -0.08409,0.697817 -0.09504,1.407864 -0.270554,2.092235 0,0 3.554061,-1.723382 3.554061,-1.723382 z" />
      <path
         style="fill:#ceb568;fill-opacity:1;stroke:#7d5f00;stroke-width:1.065;stroke-linecap:square;stroke-linejoin:miter;stroke-opacity:0"
         id="path50384"
         d="m 6.922663,43.868892 c -0.2048584,0.727023 -0.5187373,1.371936 -0.5652984,2.135921 0.1175086,1.109157 0.2573539,2.213644 0.3304185,3.327365 0.058587,1.360398 0.2135026,2.712292 0.2706992,4.073345 0.031048,0.831819 0.031534,1.664264 0.028088,2.496508 -0.00265,0.464939 -0.00449,0.929878 -0.00566,1.394823 0,0 3.4917627,-1.778474 3.4917627,-1.778474 v 0 c 2.48e-4,-0.464256 7.67e-4,-0.928545 -0.0072,-1.392748 -0.01786,-0.824026 -0.05896,-1.647214 -0.122971,-2.469007 -0.09977,-1.353841 -0.206599,-2.707553 -0.290313,-4.062074 C 10.002539,46.487701 9.8787813,45.387995 9.8326105,44.282899 9.959589,43.542174 10.270328,42.86219 10.4625,42.1383 c 0,0 -3.5397997,1.730592 -3.5397997,1.730592 z" />
      <path
         style="fill:#ceb568;fill-opacity:1;stroke:#7d5f00;stroke-width:1.065;stroke-linecap:square;stroke-linejoin:miter;stroke-opacity:0"
         id="path50394"
         d="m 20.241684,49.002973 c 0.609386,-0.345038 1.297053,-0.609761 2.004625,-0.746842 0.759546,-0.10728 1.492221,0.120449 2.203152,0.361167 0.731121,0.268274 1.434274,0.605168 2.148604,0.913953 0.523584,0.230563 1.075179,0.377314 1.629267,0.511805 0.682434,0.204448 1.353637,0.256854 2.05918,0.185221 1.239319,-0.190873 2.278544,-0.919975 3.330589,-1.550172 0,0 -0.400847,0.154958 -0.400847,0.154958 v 0 c -0.791109,0.503952 -1.61172,0.986348 -2.557169,1.118643 -0.698119,0.07284 -1.361741,0.02127 -2.037291,-0.181097 -0.55258,-0.134911 -1.104501,-0.276238 -1.628394,-0.502796 -0.717598,-0.305435 -1.423815,-0.638781 -2.153496,-0.915048 -0.714942,-0.245163 -1.452774,-0.479258 -2.218227,-0.380172 -1.024576,0.18724 -1.950692,0.669571 -2.832869,1.211921 0,0 0.452876,-0.181541 0.452876,-0.181541 z" />
      <path
         style="fill:#ceb568;fill-opacity:1;stroke:#7d5f00;stroke-width:1.065;stroke-linecap:square;stroke-linejoin:miter;stroke-opacity:0"
         id="path50396"
         d="m 15.689397,53.970777 c 0.315943,-0.862449 0.84459,-1.62968 1.327542,-2.405118 0.664873,-1.120439 1.414839,-2.185432 2.172397,-3.244088 0.766914,-1.051463 1.608614,-2.049611 2.542635,-2.956232 0.339028,-0.382538 0.810028,-0.611812 1.195516,-0.933649 0.05744,-0.04796 -0.232739,0.05507 -0.191341,0.117412 0.04214,0.06346 0.140671,-0.05853 0.211007,-0.0878 0.684685,-0.172355 1.305861,0.191307 1.893926,0.497332 0.801869,0.457012 1.60267,0.9159 2.403995,1.373928 1.086025,0.697185 2.261785,0.778428 3.516958,0.776116 0,0 0.360654,-0.262297 0.360654,-0.262297 v 0 c -1.274268,0.01005 -2.381266,-0.07099 -3.486589,-0.767948 -0.801074,-0.459513 -1.605276,-0.913551 -2.40514,-1.37518 -0.590937,-0.314082 -1.209578,-0.687557 -1.904084,-0.540695 -0.768636,0.299554 -1.415578,0.831911 -2.021061,1.378728 -0.92556,0.91104 -1.761502,1.910035 -2.527456,2.958455 -0.759964,1.059754 -1.510608,2.127173 -2.1771,3.249242 -0.49214,0.784156 -1.023301,1.561107 -1.355064,2.430282 0,0 0.443205,-0.208491 0.443205,-0.208491 z" />
      <path
         style="fill:#ceb568;fill-opacity:1;stroke:#7d5f00;stroke-width:1.065;stroke-linecap:square;stroke-linejoin:miter;stroke-opacity:0"
         id="path50398"
         d="m 22.503767,53.788809 c 1.281062,-0.01236 2.555967,0.165402 3.82319,0.333936 1.924322,0.361045 3.869647,0.363517 5.816862,0.283795 0,0 0.345641,-0.253442 0.345641,-0.253442 v 0 c -1.94336,0.09057 -3.885007,0.08257 -5.80485,-0.282977 -1.256105,-0.170339 -2.517807,-0.349922 -3.787227,-0.367289 0,0 -0.393616,0.285977 -0.393616,0.285977 z" />
      <path
         style="fill:#ceb568;fill-opacity:1;stroke:#7d5f00;stroke-width:1.065;stroke-linecap:square;stroke-linejoin:miter;stroke-opacity:0"
         id="path50400"
         d="M -5.4155239,52.410833 C -4.506229,51.686372 -3.7428453,50.799436 -2.9739423,49.93288 -2.033404,48.848586 -0.96593683,47.887437 0.13545079,46.971045 0.57733374,46.606952 1.0236808,46.247092 1.5007835,45.929811 2.1632172,45.5457 0.97601192,46.122105 1.431002,45.9711 c 0.091128,-0.03086 0.084154,0.07159 0.1043998,0.147081 0.1774109,0.887394 0.012977,1.772558 -0.1401647,2.649519 -0.2349846,1.031301 -0.50059765,2.057281 -0.79894168,3.072265 -0.0928128,0.332383 -0.21585833,0.656572 -0.29249364,0.993394 0.11486353,0.319659 0.55183634,0.410155 0.83288912,0.528905 0,0 0.3959122,-0.264049 0.3959122,-0.264049 v 0 C 1.286318,52.993284 0.85227902,52.89837 0.74983188,52.618219 c 0.0715261,-0.331772 0.18520968,-0.652886 0.27252192,-0.980517 0.2857797,-1.015778 0.5467471,-2.039691 0.7800457,-3.068645 0.1560869,-0.88877 0.3245125,-1.783078 0.1653981,-2.684952 -0.018802,-0.07763 -0.028778,-0.236297 -0.1418852,-0.215959 -0.2936546,0.06116 -0.5335377,0.279665 -0.7814267,0.440455 -0.4650176,0.317354 -0.90101587,0.674095 -1.33355622,1.033883 -1.09339468,0.91934 -2.15424998,1.881166 -3.09217078,2.961918 -0.7783616,0.87435 -1.5533222,1.773949 -2.4912974,2.482876 0,0 0.4570148,-0.176445 0.4570148,-0.176445 z" />
      <path
         style="fill:#ceb568;fill-opacity:1;stroke:#7d5f00;stroke-width:1.065;stroke-linecap:square;stroke-linejoin:miter;stroke-opacity:0"
         id="path50426"
         d="m 22.043387,50.398288 c 1.128881,0.648237 2.341468,1.078717 3.597958,1.39832 1.289624,0.345824 2.601161,0.349324 3.916912,0.20791 0.922653,-0.09624 1.814016,-0.295344 2.660523,-0.674098 1.351325,-0.586573 2.227639,-1.714219 3.083423,-2.861858 0.143896,-0.20366 0.287792,-0.40732 0.431689,-0.610981 0,0 -0.407517,0.17706 -0.407517,0.17706 v 0 c -0.142137,0.202435 -0.284274,0.404868 -0.42641,0.607303 -0.662879,0.881906 -1.430084,1.931395 -2.313858,2.396974 -0.845667,0.386945 -1.736953,0.592439 -2.66183,0.693476 -1.314339,0.148825 -2.62509,0.154503 -3.915108,-0.189336 -1.24701,-0.314045 -2.461572,-0.728504 -3.560865,-1.411632 0,0 -0.404917,0.266862 -0.404917,0.266862 z" />
      <text
         xml:space="preserve"
         style="font-style:normal;font-variant:normal;font-weight:normal;font-stretch:normal;font-size:3.52778px;line-height:1.25;font-family:Consolas;-inkscape-font-specification:Consolas;text-align:center;text-anchor:middle;white-space:pre;inline-size:33.0849;display:inline;fill:#000000;fill-opacity:1;stroke:none;stroke-width:0.264583"
         x="32.198349"
         y="7.7254333"
         id="text42157"
         transform="translate(-22.709668,38.695328)"><tspan
           x="32.198349"
           y="7.7254333"
           id="tspan1110">Sonický imbus?<tspan
   y="7.7254333"
   id="tspan1112"> </tspan></tspan><tspan
           x="32.198349"
           y="12.135159"
           id="tspan1114">Len antijadrá???<tspan
   y="12.135159"
   id="tspan1116"> </tspan></tspan><tspan
           x="32.198349"
           y="16.544884"
           id="tspan1118">N... Nedôverujem!</tspan></text>
    </g>
    <g
       id="g51162"
       transform="rotate(13.240802,179.58274,300.30847)">
      <rect
         style="fill:#ffe491;fill-opacity:1;stroke:#7d5f00;stroke-width:1.065;stroke-linecap:square;stroke-linejoin:miter;stroke-opacity:0"
         id="rect2138"
         width="78.934998"
         height="18.934999"
         x="-29.467501"
         y="60.532501"
         ry="0" />
      <path
         style="fill:#ceb568;fill-opacity:1;stroke:#7d5f00;stroke-width:1.065;stroke-linecap:square;stroke-linejoin:miter;stroke-opacity:0"
         id="path50374"
         d="m -22.944849,74.581515 c 0.294707,-0.733332 0.603593,-1.454356 0.998912,-2.139741 0.382357,-0.773856 0.903587,-1.452207 1.579688,-1.987528 0.411562,-0.311373 0.148456,-0.129186 0.57443,-0.387152 0.09402,-0.05694 0.375526,-0.228613 0.280355,-0.173617 -5.437469,3.142253 -3.742321,2.049973 -2.490448,1.517073 0.676625,-0.348189 1.503158,-0.373271 2.16764,-0.745222 1.229699,-0.68834 2.439576,-1.411505 3.659364,-2.11726 0.671696,-0.594997 1.009119,-1.41338 1.42408,-2.185691 0.486584,-0.921626 0.878521,-1.883862 1.105449,-2.901378 0.0195,-0.120325 0.039,-0.240652 0.0585,-0.360977 0,0 -3.49797,1.709912 -3.49797,1.709912 v 0 c -0.01934,0.111954 -0.03868,0.223904 -0.05801,0.335855 -0.227215,0.982064 -0.606417,1.915361 -1.115219,2.786972 -0.41932,0.746646 -0.793558,1.533864 -1.533659,2.020573 0.995936,-0.564084 1.991871,-1.128168 2.987807,-1.692249 -0.128743,0.06617 -0.252322,0.143531 -0.386228,0.198504 -0.562865,0.231076 -1.171573,0.343781 -1.746155,0.539866 -1.818518,0.684409 -3.520617,1.702464 -5.030684,2.920204 -0.620104,0.609539 -1.116404,1.316588 -1.501142,2.097794 -0.383575,0.72095 -0.693106,1.476544 -1.081001,2.194758 0,0 3.604295,-1.630696 3.604295,-1.630696 z" />
      <path
         style="fill:#ceb568;fill-opacity:1;stroke:#7d5f00;stroke-width:1.065;stroke-linecap:square;stroke-linejoin:miter;stroke-opacity:0"
         id="path50386"
         d="m 5.380419,65.693027 c 0.298337,0.694158 0.3827155,1.454309 0.4556633,2.199381 0.1300808,1.023279 0.2604045,2.042499 0.330196,3.073675 0.089383,1.555565 0.064418,3.114286 0.033069,4.671129 -0.016947,0.706263 -0.029666,1.4126 -0.035202,2.119045 -4.763e-4,0.09163 -9.261e-4,0.183258 -0.0014,0.274889 0,0 3.4905732,-1.777992 3.4905732,-1.777992 v 0 C 9.6530786,76.161904 9.6528402,76.070655 9.6526021,75.979405 9.6490646,75.284086 9.6393015,74.588811 9.6169262,73.893811 9.5700844,72.345142 9.515531,70.796559 9.5038456,69.247077 9.4819567,68.189323 9.4356199,67.139092 9.2727856,66.092948 9.1768111,65.325 9.0546191,64.560245 8.8632137,63.809596 c 0,0 -3.4828069,1.883431 -3.4828069,1.883431 z" />
      <path
         style="fill:#ceb568;fill-opacity:1;stroke:#7d5f00;stroke-width:1.065;stroke-linecap:square;stroke-linejoin:miter;stroke-opacity:0"
         id="path50412"
         d="m -12.93058,64.644394 c 0.213672,0.816871 0.486255,1.60652 0.841043,2.373008 0.593206,1.200883 1.454382,2.228993 2.4175341,3.148134 1.1333445,1.014621 2.2500637,1.315818 3.7400028,1.327581 1.8346359,-0.114631 3.3812238,-1.021307 4.8544708,-2.048523 1.12888245,-0.818145 2.05882514,-1.857153 2.9654026,-2.905786 0.3907625,-0.427517 0.7127468,-0.912887 1.0993675,-1.343454 0.024479,-0.02503 0.1044495,-0.09138 0.073435,-0.07512 -0.5537767,0.290293 -0.481809,0.50383 -0.709627,1.084839 -0.2894313,0.73814 -0.3497396,0.845902 -0.6878464,1.597284 -0.1257448,0.265748 -0.2514896,0.531498 -0.3772344,0.797245 0,0 0.3950784,-0.179861 0.3950784,-0.179861 v 0 c 0.1244555,-0.265395 0.248911,-0.530791 0.3733665,-0.796186 0.3284936,-0.72017 0.6917273,-1.448943 0.9418882,-2.20221 0.040167,-0.120948 0.2088599,-0.337476 0.086312,-0.372464 -0.1980684,-0.05655 -0.4123658,0.191511 -0.5467091,0.336899 -0.3703288,0.43271 -0.6895802,0.907442 -1.0705214,1.331722 -0.89822458,1.046459 -1.82627524,2.077302 -2.9517445,2.887988 -0.3348129,0.232246 -0.6534052,0.492144 -1.0118666,0.685903 -0.956419,0.516978 -1.9829764,0.862529 -3.0723861,0.939459 -1.4825823,-0.0041 -2.5869386,-0.296275 -3.7186814,-1.301186 -0.963633,-0.911366 -1.816243,-1.938386 -2.401117,-3.137758 -0.349869,-0.768675 -0.619362,-1.559525 -0.810829,-2.382525 0,0 -0.429338,0.235014 -0.429338,0.235014 z" />
      <path
         style="fill:#ceb568;fill-opacity:1;stroke:#7d5f00;stroke-width:1.065;stroke-linecap:square;stroke-linejoin:miter;stroke-opacity:0"
         id="path50414"
         d="m -22.057508,75.70458 c 1.860578,-0.504068 3.497409,-1.620824 5.120563,-2.623579 1.721763,-1.150668 3.38314,-2.387558 5.152311,-3.465891 0.642746,-0.419735 1.335865,-0.733698 2.0827006,-0.910492 0.5382141,-0.145164 1.0220407,-0.05197 1.5317036,0.135927 0.6256785,0.282461 1.2308488,0.613791 1.8100895,0.982006 0.5324803,0.335114 0.2696352,0.168656 0.7885967,0.499282 0,0 0.3919476,-0.25219 0.3919476,-0.25219 v 0 c -0.5196901,-0.328951 -0.258023,-0.161856 -0.7849229,-0.501409 -0.5779403,-0.373528 -1.1837242,-0.707194 -1.809061,-0.994503 -0.5138026,-0.199363 -1.0022597,-0.303638 -1.5495315,-0.157858 -1.0508866,0.242453 -1.9682596,0.788392 -2.8762606,1.359667 -1.754886,1.079159 -3.403067,2.314501 -5.118913,3.453127 -1.37552,0.847847 -2.763042,1.786155 -4.349132,2.184056 0,0 -0.390091,0.291857 -0.390091,0.291857 z" />
      <path
         style="fill:#ceb568;fill-opacity:1;stroke:#7d5f00;stroke-width:1.065;stroke-linecap:square;stroke-linejoin:miter;stroke-opacity:0"
         id="path50416"
         d="m -6.2477157,76.527114 c 0.8986189,-1.04195 1.8001948,-2.081855 2.7346984,-3.091884 0.864096,-0.91608 1.729911,-1.642425 2.85673401,-2.196343 0,0 0.35780006,-0.285745 0.35780006,-0.285745 v 0 c -1.36717897,0.668327 -2.59759987,1.517753 -3.62226737,2.652871 -0.9403188,1.019636 -1.8489207,2.067727 -2.7666314,3.107645 0,0 0.4396663,-0.186544 0.4396663,-0.186544 z" />
      <path
         style="fill:#ceb568;fill-opacity:1;stroke:#7d5f00;stroke-width:1.065;stroke-linecap:square;stroke-linejoin:miter;stroke-opacity:0"
         id="path50418"
         d="m 17.404417,66.641802 c 0.842341,-0.721731 1.765381,-1.342946 2.68781,-1.956271 1.047574,-0.698757 2.277369,-1.067496 3.533595,-1.078847 1.300209,0.114893 2.327549,0.790266 3.256929,1.655125 0.929159,1.02793 1.619224,2.239547 2.307595,3.434416 0.433917,0.794301 0.920613,1.558904 1.513668,2.243543 0.57912,0.621786 1.077283,0.674727 1.887466,0.555373 1.570509,-0.406596 2.935706,-1.37619 4.299906,-2.224275 0.927348,-0.620615 1.889167,-1.178303 2.877833,-1.693487 0.447056,-0.219461 0.896535,-0.442156 1.369369,-0.601689 0.02582,-0.0078 0.05168,-0.01558 0.07751,-0.02336 0,0 0.391321,-0.301961 0.391321,-0.301961 v 0 c -0.02688,0.0079 -0.05376,0.01577 -0.08064,0.02365 -0.482796,0.16034 -0.939879,0.390261 -1.395942,0.613069 -1.251968,0.653865 -2.469282,1.369086 -3.650895,2.143252 -1.111324,0.69089 -2.225241,1.476645 -3.514815,1.784649 -0.794546,0.123685 -1.278827,0.08649 -1.855518,-0.520055 C 30.511967,70.017597 30.02304,69.25738 29.5837,68.469046 28.887504,67.273405 28.188287,66.064045 27.264341,65.02624 26.333098,64.148813 25.303206,63.465717 23.9945,63.338529 c -1.646248,0.0024 -2.942716,0.615149 -4.314325,1.508186 -0.935036,0.622813 -1.872391,1.250868 -2.728119,1.981221 0,0 0.452361,-0.186137 0.452361,-0.186137 z" />
      <path
         style="fill:#ceb568;fill-opacity:1;stroke:#7d5f00;stroke-width:1.065;stroke-linecap:square;stroke-linejoin:miter;stroke-opacity:0"
         id="path50420"
         d="m 19.531324,69.174592 c 0.245662,1.340776 0.546276,2.668548 0.935897,3.974716 0.460598,1.460103 1.082793,2.862731 1.805162,4.210735 0.638793,1.10017 0.849026,1.35245 2.113551,0.948466 1.799618,-0.916678 3.181268,-2.398083 4.436504,-3.943451 1.118171,-1.433846 2.093357,-2.970403 3.149782,-4.448773 0.465852,-0.628044 0.948302,-1.262531 1.570157,-1.745662 0.04021,-0.02387 0.1602,-0.09648 0.120621,-0.07159 -0.105672,0.06645 -0.233021,0.105706 -0.318916,0.196278 -0.0272,0.02868 0.08304,-0.0033 0.117502,0.01611 0.06997,0.03932 0.129453,0.09614 0.185131,0.153953 0.204254,0.212066 0.308952,0.394475 0.475264,0.642019 0.630335,1.108721 1.136618,2.286093 1.672828,3.442743 0,0 0.375092,-0.21218 0.375092,-0.21218 v 0 c -0.541034,-1.158238 -1.027809,-2.347069 -1.64474,-3.466635 -0.08168,-0.125275 -0.53471,-0.978032 -0.795309,-0.881475 -0.214437,0.07945 -0.438197,0.230344 -0.639286,0.362024 -0.600353,0.491813 -1.072182,1.117015 -1.52581,1.741271 -1.044548,1.479809 -2.016096,3.012172 -3.134394,4.439038 -0.888691,1.08884 -1.674794,1.873446 -2.715578,2.810069 -0.119321,0.107378 -0.216767,0.240334 -0.347732,0.333158 -0.193505,0.137149 -0.41236,0.234471 -0.61854,0.351705 -1.222766,0.411829 -1.446002,0.176882 -2.082103,-0.893157 -0.734477,-1.337685 -1.359322,-2.736146 -1.815511,-4.194275 -0.386285,-1.309875 -0.689996,-2.641425 -0.893384,-3.992674 0,0 -0.426188,0.227595 -0.426188,0.227595 z" />
      <path
         style="fill:#ceb568;fill-opacity:1;stroke:#7d5f00;stroke-width:1.065;stroke-linecap:square;stroke-linejoin:miter;stroke-opacity:0"
         id="path50422"
         d="m 35.037236,73.653718 c 1.01269,-0.459703 2.082488,-0.773756 3.168528,-1.0019 1.189786,-0.196755 2.395958,-0.176578 3.596037,-0.129993 0.484862,-0.02395 0.99437,0.126151 1.475025,0.01114 0.305248,-0.07304 0.504593,-0.197242 0.782093,-0.339474 0.250084,-0.147253 0.500171,-0.294507 0.750258,-0.441761 0,0 -0.438214,0.169225 -0.438214,0.169225 v 0 c 0.01746,-0.0066 0.0349,-0.01328 0.05235,-0.0199 -0.258525,0.136544 -0.480079,0.273899 -0.765636,0.348343 -0.48001,0.125134 -0.99319,-0.02698 -1.478806,5.29e-4 -1.206394,-0.04108 -2.418112,-0.05894 -3.614883,0.13023 -1.077741,0.220478 -2.136053,0.531559 -3.147362,0.968822 0,0 -0.379391,0.304705 -0.379391,0.304705 z" />
      <path
         style="fill:#ceb568;fill-opacity:1;stroke:#7d5f00;stroke-width:1.065;stroke-linecap:square;stroke-linejoin:miter;stroke-opacity:0"
         id="path50424"
         d="m 31.606831,62.177072 c 0.860412,1.633704 1.943214,3.126856 3.060025,4.591336 1.349669,1.737201 2.854844,3.343936 4.43193,4.874662 0.907769,0.848963 1.864979,1.643113 2.812232,2.447255 0.387355,0.310624 0.763625,0.634503 1.138629,0.959784 0,0 0.39533,-0.246374 0.39533,-0.246374 v 0 C 43.066575,74.481369 42.690526,74.156003 42.301199,73.846753 41.350543,73.044089 40.38959,72.252455 39.469081,71.415121 37.87572,69.90114 36.365502,68.297853 35.013426,66.562488 c -1.105681,-1.466546 -2.179384,-2.966323 -2.987855,-4.622419 0,0 -0.41874,0.237003 -0.41874,0.237003 z" />
      <text
         xml:space="preserve"
         style="font-style:normal;font-variant:normal;font-weight:normal;font-stretch:normal;font-size:3.52778px;line-height:1.25;font-family:Consolas;-inkscape-font-specification:Consolas;text-align:center;text-anchor:middle;white-space:pre;inline-size:68.0867;display:inline;fill:#000000;fill-opacity:1;stroke:none;stroke-width:0.264583"
         x="48.142262"
         y="7.7254333"
         id="text43067"
         transform="translate(-37.789185,57.123106)"><tspan
           x="48.142262"
           y="7.7254333"
           id="tspan1120">Ourobourosami cválame k adorantke<tspan
   y="7.7254333"
   id="tspan1122"> </tspan></tspan><tspan
           x="48.142262"
           y="12.135159"
           id="tspan1124">(márnotratná krava!)...
</tspan><tspan
           x="48.142262"
           y="16.544884"
           id="tspan1126">
</tspan><tspan
           x="48.142262"
           y="20.954608"
           id="tspan1128">Asi...</tspan></text>
    </g>
    <g
       id="g51174"
       transform="rotate(7.4088099,-398.40857,696.48085)">
      <rect
         style="fill:#ffe491;fill-opacity:1;stroke:#7d5f00;stroke-width:1.065;stroke-linecap:square;stroke-linejoin:miter;stroke-opacity:0"
         id="rect2140"
         width="98.934998"
         height="18.934999"
         x="-39.467499"
         y="80.532501"
         ry="0" />
      <path
         style="fill:#ceb568;fill-opacity:1;stroke:#7d5f00;stroke-width:1.065;stroke-linecap:square;stroke-linejoin:miter;stroke-opacity:0"
         id="path50370"
         d="m -35.701001,95.667056 c 0.43471,-0.452329 0.993925,-0.764871 1.540359,-1.063948 -5.409589,3.142787 -3.439234,1.87379 -2.16862,1.364147 0.411522,-0.16506 0.831836,-0.311568 1.245848,-0.470559 0.868032,-0.318854 1.704243,-0.717362 2.519868,-1.151533 0.641879,-1.808387 3.343167,-1.435981 4.506929,-2.768917 0.161387,-0.184846 0.236767,-0.373851 0.343167,-0.590428 0.391758,-1.02733 0.776507,-2.056368 1.171784,-3.082669 0.354611,-0.889883 0.601896,-1.811789 0.712933,-2.762437 0.09004,-0.583372 0.290519,-1.131351 0.632671,-1.613059 0.281557,-0.563026 0.716867,-1.004816 1.197219,-1.403064 0.310683,-0.254474 0.149249,-0.139052 0.483431,-0.347483 0,0 -3.638167,1.435865 -3.638167,1.435865 v 0 c -0.311949,0.250293 -0.157935,0.120152 -0.461695,0.390832 -0.451924,0.455498 -0.868918,0.93268 -1.161121,1.510202 -0.282739,0.555315 -0.495276,1.127831 -0.545555,1.755282 -0.107466,0.903529 -0.333063,1.783954 -0.666427,2.631806 -0.406191,1.032472 -0.782598,2.083509 -1.292141,3.070251 -0.823658,1.172972 -4.330094,2.661211 1.729899,-0.659974 -0.79497,0.469776 -1.634172,0.868878 -2.493896,1.204235 -2.051638,0.770874 -3.893362,1.461569 -5.737844,2.878463 -0.564018,0.344755 -1.121201,0.700058 -1.575613,1.187754 0,0 3.656971,-1.514766 3.656971,-1.514766 z" />
      <path
         style="fill:#ceb568;fill-opacity:1;stroke:#7d5f00;stroke-width:1.065;stroke-linecap:square;stroke-linejoin:miter;stroke-opacity:0"
         id="path50388"
         d="m 4.8902148,83.47176 c -0.3273268,0.445632 -0.4277714,0.897958 -0.2510861,1.418815 0.5052166,1.235625 0.6464514,2.599888 0.8152606,3.915531 0.1486493,1.388115 0.1900635,2.78416 0.1943357,4.179218 -0.00302,0.73238 -0.018013,1.464625 -0.026032,2.196955 -0.016285,0.622707 0.00439,1.244904 0.011793,1.867405 0.040763,0.451787 0.03364,0.241623 0.03085,0.630103 0,0 3.483216,-1.794799 3.483216,-1.794799 v 0 C 9.111608,95.503914 9.131124,95.702468 9.089863,95.28934 9.097973,94.662066 9.11972,94.035106 9.108482,93.407586 9.105152,92.683144 9.095221,91.958691 9.06612,91.234759 9.009971,89.844561 8.9236102,88.455158 8.7574225,87.073181 8.6056805,85.714019 8.4471162,84.335042 8.0910307,83.013491 8.013852,82.585818 8.2335348,82.240659 8.5471851,81.956994 c 0,0 -3.6569711,1.514766 -3.6569703,1.514766 z" />
      <path
         style="fill:#ceb568;fill-opacity:1;stroke:#7d5f00;stroke-width:1.065;stroke-linecap:square;stroke-linejoin:miter;stroke-opacity:0"
         id="path50428"
         d="m 18.52654,87.872643 c 0.700185,-1.047853 1.700126,-1.854285 2.708466,-2.588847 0.952452,-0.676365 2.030117,-1.126837 3.191082,-1.261137 1.035928,-0.03383 1.893238,0.446831 2.689227,1.057132 0.858832,0.684864 1.502632,1.569405 2.088848,2.486777 0.579117,0.929751 1.094282,1.897033 1.670066,2.828665 0.441243,0.61281 0.932788,1.26781 1.60411,1.650728 0.170802,0.09743 0.358394,0.161901 0.537591,0.24285 1.515663,0.590765 3.066079,0.414851 4.622144,0.124958 2.465149,-0.432152 4.76554,-1.36987 7.04614,-2.364362 0.371816,-0.167479 0.743633,-0.334954 1.115451,-0.502433 0,0 0.319408,-0.253466 0.319408,-0.253466 v 0 c -0.375269,0.170437 -0.750538,0.340874 -1.12581,0.51131 -2.269141,0.992034 -4.559744,1.922323 -7.013683,2.351096 -1.541844,0.28698 -3.081092,0.465695 -4.583256,-0.119462 -0.175164,-0.07973 -0.35856,-0.143428 -0.525496,-0.239205 -0.664671,-0.381338 -1.157108,-1.027501 -1.595779,-1.635138 -0.579512,-0.929492 -1.098952,-1.894732 -1.678144,-2.82453 -0.584655,-0.924412 -1.228391,-1.81541 -2.09102,-2.504107 -0.800132,-0.619641 -1.663912,-1.109975 -2.708655,-1.086861 -1.468428,0.160079 -2.763574,0.866926 -3.96844,1.698144 -1.021037,0.748191 -2.037502,1.569545 -2.747381,2.632675 0,0 0.445131,-0.204787 0.445131,-0.204787 z" />
      <path
         style="fill:#ceb568;fill-opacity:1;stroke:#7d5f00;stroke-width:1.065;stroke-linecap:square;stroke-linejoin:miter;stroke-opacity:0"
         id="path50430"
         d="m 23.649807,91.171418 c 1.274871,0.364794 2.593365,0.499073 3.908002,0.627565 2.055741,0.285393 4.061071,-0.01794 6.027915,-0.61595 1.745379,-0.576953 3.349204,-1.480799 4.827024,-2.564085 1.135369,-0.946211 2.261872,-1.889726 3.484374,-2.722094 0.821838,-0.541764 0.420177,-0.279707 1.204619,-0.786739 0,0 -0.418642,0.163174 -0.418642,0.163174 v 0 c -0.778936,0.506008 -0.378738,0.244126 -1.200275,0.786141 -1.221623,0.832199 -2.341525,1.782847 -3.481072,2.72238 -0.302668,0.220617 -0.587251,0.467709 -0.905166,0.66572 -0.992823,0.618374 -2.075654,1.088081 -3.17586,1.476555 -1.959676,0.604838 -3.959651,0.912916 -6.0106,0.624247 -1.300015,-0.13277 -2.6074,-0.26625 -3.862963,-0.649263 0,0 -0.397356,0.272349 -0.397356,0.272349 z" />
      <path
         style="fill:#ceb568;fill-opacity:1;stroke:#7d5f00;stroke-width:1.065;stroke-linecap:square;stroke-linejoin:miter;stroke-opacity:0"
         id="path50432"
         d="m 25.936079,92.164055 c 1.449793,-0.363797 2.850728,-0.896983 4.272138,-1.356929 2.134037,-0.684821 4.27786,-1.341101 6.397191,-2.070571 1.581666,-0.523745 3.102861,-1.205423 4.66458,-1.782447 0.73795,-0.257144 1.48885,-0.531794 2.277343,-0.552604 0.864478,0.168534 1.561185,0.74607 2.19433,1.324726 0.772797,0.750348 1.447575,1.59407 2.158775,2.401766 0.498086,0.597268 1.073052,1.083236 1.759984,1.443284 0.961547,0.421373 2.019036,0.437782 3.050233,0.441047 1.239645,-0.02122 2.479652,-0.0537 3.717981,-0.115747 0.457319,-0.0043 0.908767,-0.07401 1.359104,-0.145116 0,0 0.376319,-0.282843 0.376319,-0.282843 v 0 c -0.452257,0.07645 -0.905695,0.151559 -1.365964,0.156591 -1.239544,0.06655 -2.481022,0.100106 -3.722095,0.121841 -1.021188,-0.0028 -2.066049,-0.02297 -3.019697,-0.435255 -0.683454,-0.355455 -1.260325,-0.832753 -1.757299,-1.424758 -0.717847,-0.804553 -1.397971,-1.645888 -2.167229,-2.402067 -0.63504,-0.589947 -1.331407,-1.171004 -2.197626,-1.36557 -0.799976,0.0077 -1.561008,0.296889 -2.308408,0.556429 -1.569749,0.583435 -3.098384,1.272058 -4.688215,1.802159 -2.117858,0.731031 -4.258985,1.393309 -6.394744,2.069735 -1.401805,0.450911 -2.784115,0.97446 -4.21584,1.322602 0,0 -0.390861,0.293727 -0.390861,0.293727 z" />
      <path
         style="fill:#ceb568;fill-opacity:1;stroke:#7d5f00;stroke-width:1.065;stroke-linecap:square;stroke-linejoin:miter;stroke-opacity:0"
         id="path50434"
         d="m 43.764631,97.660371 c 1.455391,-1.290269 2.907368,-2.584979 4.343913,-3.896489 1.583558,-1.542907 3.071535,-3.185501 4.408307,-4.946827 0.832853,-1.198933 1.602447,-2.44779 2.044232,-3.845179 0.08889,-0.877396 0.0662,-0.445283 0.07243,-1.296101 0,0 -0.404183,0.20561 -0.404183,0.20561 v 0 c -0.0047,0.843253 0.01979,0.415211 -0.0786,1.283832 -0.447456,1.385335 -1.197587,2.633803 -2.030548,3.822523 -1.331267,1.755968 -2.805372,3.401415 -4.391535,4.931487 -1.452335,1.326819 -2.920924,2.636403 -4.409509,3.922239 0,0 0.445495,-0.181095 0.445495,-0.181095 z" />
      <path
         style="fill:#ceb568;fill-opacity:1;stroke:#7d5f00;stroke-width:1.065;stroke-linecap:square;stroke-linejoin:miter;stroke-opacity:0"
         id="path50436"
         d="m -2.5891718,89.951696 c -1.0336149,0.353973 -2.0677773,0.680556 -3.0712478,1.116124 -1.8361424,0.875929 -3.6045518,1.883468 -5.4153054,2.809422 -1.671371,0.939771 -3.425146,1.676212 -5.257723,2.230279 -1.016099,0.246689 -2.101531,0.594759 -3.163073,0.422592 -0.165016,-0.02676 -0.322929,-0.08662 -0.484394,-0.129929 -0.151124,-0.08264 -0.319959,-0.138985 -0.453371,-0.247933 -1.023215,-0.835586 -1.220143,-2.31762 -1.343127,-3.532444 -0.08043,-1.96851 0.507196,-3.847012 1.171316,-5.673357 0.537066,-1.404631 1.184857,-2.663611 2.297883,-3.688421 0.15711,-0.103579 0.29103,-0.25685 0.47133,-0.31074 0.07846,-0.02344 0.142086,0.0902 0.222935,0.103232 0.239265,0.03856 0.488924,-0.0036 0.725363,0.0496 1.117751,0.251547 2.011324,0.957228 2.912947,1.615988 1.92386,1.534803 3.246332,3.595896 4.439493,5.71229 0.6680716,1.237898 1.2857099,2.502014 1.9367111,3.748723 0.2779688,0.53105 0.6098021,1.17752 1.2945893,1.228304 0.2094372,0.01553 0.4191965,-0.02638 0.6287947,-0.03955 2.1660048,-0.313579 3.995777,-1.538904 5.81638941,-2.670204 0.3130697,-0.199707 0.6261395,-0.399415 0.93920909,-0.59912 0,0 -0.38846289,0.151114 -0.38846289,0.151114 v 0 c -0.3104657,0.198501 -0.6209315,0.397005 -0.9313973,0.595509 -1.58506041,0.981495 -3.17991761,2.00375 -5.07037681,2.253501 -0.2021477,0.01437 -0.4041886,0.05592 -0.6064432,0.04313 -0.6732373,-0.04256 -0.9994154,-0.676132 -1.2776872,-1.194377 -0.6678031,-1.237543 -1.3022001,-2.493015 -1.9805158,-3.724997 -1.2076044,-2.112714 -2.5305684,-4.18303 -4.4545154,-5.723551 -0.868498,-0.639397 -2.442694,-1.905074 -3.622537,-1.719532 -0.787942,0.123912 -0.929565,0.281651 -1.477783,0.653687 -1.098489,1.03324 -1.734699,2.295194 -2.265148,3.697012 -0.659203,1.83406 -1.244699,3.718359 -1.165876,5.692185 0.12329,1.228823 0.320919,2.725513 1.340559,3.583864 0.134139,0.112921 0.305684,0.171854 0.458526,0.257783 0.163622,0.0456 0.323378,0.10854 0.490868,0.136803 1.070025,0.180565 2.168146,-0.176644 3.192303,-0.424323 1.839683,-0.55513 3.601209,-1.290492 5.277686,-2.236277 1.8059745,-0.920641 3.5685124,-1.924743 5.39799,-2.799059 0.9879867,-0.428487 2.0047432,-0.751162 3.0270626,-1.085413 0,0 0.3870286,-0.301916 0.3870286,-0.301916 z" />
      <text
         xml:space="preserve"
         style="font-style:normal;font-variant:normal;font-weight:normal;font-stretch:normal;font-size:3.52778px;line-height:1.25;font-family:Consolas;-inkscape-font-specification:Consolas;text-align:center;text-anchor:middle;white-space:pre;inline-size:116.037;display:inline;fill:#000000;fill-opacity:1;stroke:none;stroke-width:0.264583"
         x="60.641937"
         y="7.7254333"
         id="text45213"
         transform="translate(-50.647822,79.006968)"><tspan
           x="60.641937"
           y="7.7254333"
           id="tspan1130">Kapitálne &quot;G&quot;,
</tspan><tspan
           x="60.641937"
           y="12.135159"
           id="tspan1132">strašidelný útočník bielohnedožltej pleti! Vrč<tspan
   y="12.135159"
   id="tspan1134"> </tspan></tspan><tspan
           x="60.641937"
           y="16.544884"
           id="tspan1136">independentne!</tspan></text>
    </g>
    <g
       id="g51190"
       transform="rotate(2.9537922,333.81828,1382.1371)">
      <rect
         style="fill:#ffe491;fill-opacity:1;stroke:#7d5f00;stroke-width:1.065;stroke-linecap:square;stroke-linejoin:miter;stroke-opacity:0"
         id="rect2142"
         width="118.93501"
         height="18.934999"
         x="-49.467499"
         y="100.5325"
         ry="0" />
      <path
         style="fill:#ceb568;fill-opacity:1;stroke:#7d5f00;stroke-width:1.065;stroke-linecap:square;stroke-linejoin:miter;stroke-opacity:0"
         id="path49958"
         d="m -43.841136,116.14408 c 0.877218,-0.52645 1.516034,-1.29106 2.134889,-2.08831 0.573482,-0.80754 0.945361,-1.70914 1.125056,-2.67835 0.101121,-0.57821 0.121277,-1.21489 0.454287,-1.71231 0.06635,-0.0823 0.137903,-0.16059 0.199048,-0.24679 0.282901,-0.39884 0.149212,-0.29082 0.459799,-0.69322 0.282461,-0.36596 0.620077,-0.69399 0.941826,-1.02448 1.390814,-1.36075 2.904877,-2.59943 4.54523,-3.64676 -0.891276,0.52088 -1.789412,1.03019 -2.673826,1.56264 -0.143997,0.0867 0.297592,-0.15694 0.451418,-0.22468 0.180676,-0.0796 0.391835,-0.0831 0.564735,-0.17841 0.0176,-0.01 -0.02029,-0.0347 -0.03042,-0.052 0,0 3.306903,-2.21639 3.306903,-2.21639 v 0 c -0.211815,-0.14146 -0.111972,-0.12328 -0.426821,-0.0534 -1.75633,0.38963 -2.985518,2.11518 -4.696513,2.53264 -1.631688,1.12702 -3.144056,2.4212 -4.602514,3.76233 -0.597887,0.64412 -1.151705,1.32573 -1.600634,2.08398 -0.23286,0.57569 -0.304255,1.19477 -0.394692,1.80657 -0.189151,0.90657 -0.55866,1.74647 -1.134663,2.47901 -0.662824,0.80392 -1.396624,1.50635 -2.294287,2.04795 0,0 3.671181,-1.45998 3.671181,-1.45998 z" />
      <path
         style="fill:#ceb568;fill-opacity:1;stroke:#7d5f00;stroke-width:1.065;stroke-linecap:square;stroke-linejoin:miter;stroke-opacity:0"
         id="path50390"
         d="m 5.0520578,105.18633 c 0.048254,1.00447 0.072997,2.01035 0.09716,3.01578 0.036093,1.77657 -0.1841521,3.5246 -0.5009126,5.26693 -0.094737,0.67896 -0.294051,1.3534 -0.3186406,2.04211 -0.00797,0.22327 0.026109,0.63393 0.041754,0.85961 0.093035,0.70737 0.073883,1.42749 0.1827969,2.13172 0.7007019,1.83543 2.6582169,-0.62404 3.9473306,-1.45888 0.086994,-0.0563 0.055465,-0.19994 0.090811,-0.29737 0.043903,-0.12101 0.097786,-0.23817 0.1466792,-0.35726 0.3874315,-0.76769 0.4585375,-1.67823 0.882364,-2.42812 0.08862,-0.1568 0.2082117,-0.29395 0.3123176,-0.44093 0.6703011,-0.78342 1.3582781,-1.55188 2.1248291,-2.24234 0.350808,-0.25141 0.719353,-0.48363 1.099505,-0.68884 0,0 -3.6569974,1.40851 -3.6569974,1.40851 v 0 c -0.3555992,0.23066 -0.7214603,0.45066 -1.02542,0.75033 -0.7386574,0.71711 -1.427803,1.49458 -2.0484996,2.31493 -0.097162,0.16838 -0.2064703,0.33031 -0.2914862,0.50513 -0.3791278,0.77963 -0.4903719,1.67243 -0.9315389,2.42756 -0.063324,0.11476 -0.1137793,0.23763 -0.189973,0.34428 -0.050012,0.07 -0.2604436,0.22113 -0.1847498,0.18023 1.1111931,-0.6003 2.1682583,-1.30096 3.2993655,-1.86284 0.063329,-0.0315 0.044726,0.14189 0.027164,0.21039 -0.02005,0.0782 -0.2876521,-0.31263 -0.1464657,-0.19287 -0.1074946,-0.68959 -0.097571,-1.39422 -0.1947129,-2.08605 -0.055279,-0.9355 0.091677,-1.85688 0.2296525,-2.78094 0.2551353,-1.76116 0.4149791,-3.5229 0.4394829,-5.30438 0.02436,-1.03843 0.049477,-2.07725 0.09716,-3.1148 0,0 -3.5289754,1.79811 -3.5289756,1.79811 z" />
      <path
         style="fill:#ceb568;fill-opacity:1;stroke:#7d5f00;stroke-width:1.065;stroke-linecap:square;stroke-linejoin:miter;stroke-opacity:0"
         id="path50392"
         d="m 7.4346868,115.89975 c -0.098891,-0.60373 -0.3116543,-1.13407 -0.6675287,-1.63064 -0.3937762,-0.5104 -0.9508249,-0.70663 -1.5504805,-0.857 -0.5540658,-0.12521 -1.095919,-0.2969 -1.6485338,-0.42719 -0.4889881,-0.0801 -0.9555985,-0.24544 -1.4420262,-0.33769 -0.426956,-0.0809 -0.8526874,-0.1629 -1.28254591,-0.22778 0,0 -3.18152799,2.24444 -3.18152799,2.24444 v 0 c 0.4216041,0.0545 0.8426257,0.11593 1.2505733,0.2403 0.49274821,0.0651 0.95405596,0.22983 1.4403211,0.31557 0.55511729,0.10415 1.0836908,0.29549 1.6362072,0.40965 0.5113358,0.14771 1.0502226,0.18397 1.4155881,0.6271 0.3373036,0.4622 0.4977927,0.9552 0.5471462,1.52667 0,0 3.4828072,-1.88343 3.4828072,-1.88343 z" />
      <path
         style="fill:#ceb568;fill-opacity:1;stroke:#7d5f00;stroke-width:1.065;stroke-linecap:square;stroke-linejoin:miter;stroke-opacity:0"
         id="path50438"
         d="m -31.315548,109.26154 c 1.014232,-0.0691 2.02036,-0.0772 3.035215,-0.009 1.434867,0.1274 2.860674,0.32944 4.296987,0.44493 1.365694,0.0486 2.722117,-0.15443 4.086167,-0.15129 1.227115,0.009 2.322127,0.43268 3.343004,1.08081 0.824111,0.65591 1.571711,1.38355 2.48613,1.91588 1.330012,0.66153 2.446508,0.16391 3.666264,-0.46632 1.3005386,-0.69104 2.423707,-1.64432 3.5775078,-2.54627 0.027406,0.0307 0.747387,-0.63799 0.7465467,-0.52653 -7.673e-4,0.10129 -0.2157722,0.11937 -0.2091676,0.22045 0.00668,0.10221 0.1659307,0.12197 0.236397,0.1963 0.085708,0.0904 0.1529323,0.19671 0.2293985,0.29506 0,0 0.4056406,-0.24131 0.4056406,-0.24131 v 0 c -0.028341,-0.0375 -0.3784899,-0.53756 -0.4807167,-0.53663 -0.5065001,0.005 -0.978757,0.49347 -1.3592934,0.76525 -0.9154205,0.72209 -1.8135931,1.47018 -2.8000559,2.09582 -1.201967,0.62793 -2.306584,1.14126 -3.626246,0.4934 -0.916703,-0.52793 -1.660989,-1.25977 -2.48656,-1.91332 -1.026398,-0.65453 -2.12941,-1.08495 -3.364536,-1.09703 -1.364733,-0.009 -2.721153,0.19859 -4.087467,0.15635 -1.434712,-0.11236 -2.858484,-0.31163 -4.290158,-0.45043 -1.006856,-0.07 -2.005383,-0.0687 -3.012151,-0.0113 0,0 -0.392906,0.28546 -0.392906,0.28546 z" />
      <path
         style="fill:#ceb568;fill-opacity:1;stroke:#7d5f00;stroke-width:1.065;stroke-linecap:square;stroke-linejoin:miter;stroke-opacity:0"
         id="path50440"
         d="m -29.323149,108.83325 c 1.551916,-0.0459 3.037529,0.48364 4.460527,1.04034 2.177336,0.95406 4.29024,2.04169 6.477864,2.97325 1.736436,0.78992 3.574615,1.25792 5.409213,1.74511 1.606329,0.52038 3.2605023,0.71749 4.937623,0.79877 0,0 0.361238,-0.26 0.361238,-0.26 v 0 c -1.6796395,-0.0684 -3.336021,-0.26862 -4.945957,-0.78134 -1.831919,-0.49377 -3.673478,-0.94998 -5.410785,-1.73695 -2.195409,-0.91928 -4.313747,-1.9984 -6.485772,-2.96907 -1.409261,-0.56583 -2.87276,-1.09993 -4.413203,-1.09989 0,0 -0.390748,0.28978 -0.390748,0.28978 z" />
      <path
         style="fill:#ceb568;fill-opacity:1;stroke:#7d5f00;stroke-width:1.065;stroke-linecap:square;stroke-linejoin:miter;stroke-opacity:0"
         id="path50442"
         d="m -27.236451,116.72426 c 1.17364,-1.18106 2.498046,-2.19477 3.823069,-3.19704 2.441567,-1.90983 5.026292,-3.61968 7.665528,-5.24075 2.424546,-1.48894 5.035776,-2.60883 7.7207709,-3.52835 1.9383439,-0.60994 3.9521511,-1.03823 5.9947753,-0.97266 0.406057,0.013 0.8101704,0.0619 1.21525559,0.0929 1.98254861,0.18744 3.75996891,1.13281 5.51105551,2.0091 0,0 0.3281418,-0.21607 0.3281418,-0.21607 v 0 c -1.7556128,-0.86236 -3.5303617,-1.82542 -5.50678747,-2.03059 -0.40516486,-0.0324 -0.80928613,-0.083 -1.21549463,-0.0972 -2.0487678,-0.072 -4.0690599,0.35847 -6.0130055,0.97027 -2.9301135,1.00484 -5.7587995,2.26171 -8.3900545,3.9102 -2.643199,1.62466 -5.229529,3.34031 -7.677991,5.24962 -1.351861,1.01645 -2.699677,2.0472 -3.905402,3.238 0,0 0.450139,-0.18735 0.450139,-0.18735 z" />
      <path
         style="fill:#ceb568;fill-opacity:1;stroke:#7d5f00;stroke-width:1.065;stroke-linecap:square;stroke-linejoin:miter;stroke-opacity:0"
         id="path50444"
         d="m 13.274079,109.86623 c 1.01252,-0.48107 2.053116,-0.89886 3.098799,-1.30141 1.751125,-0.65486 3.614244,-0.90584 5.46927,-1.03435 1.443625,-0.0115 2.932292,0.12393 4.283879,0.67227 0.268477,0.10893 0.522282,0.251 0.783423,0.3765 1.506755,0.94215 2.81427,2.16196 4.146741,3.32911 0.714229,0.58897 1.413369,1.2477 2.265367,1.63957 0.649145,0.29856 0.898139,0.31214 1.601259,0.46657 0.954476,0.11248 1.976429,0.16063 2.91796,-0.0921 0.792607,-0.21272 1.60887,-0.64628 2.342615,-0.99882 0,0 0.316934,-0.25278 0.316934,-0.25278 v 0 c -0.721252,0.34922 -1.541179,0.78781 -2.321711,0.99867 -0.934529,0.25248 -1.950013,0.20688 -2.898018,0.0967 -0.708337,-0.15479 -0.931315,-0.16169 -1.583531,-0.46245 -0.849699,-0.39182 -1.549543,-1.04494 -2.266178,-1.62851 -1.34094,-1.16442 -2.658377,-2.3759 -4.158504,-3.33544 -0.26159,-0.12745 -0.515527,-0.27198 -0.78477,-0.38236 -1.35484,-0.55541 -2.850651,-0.68921 -4.29918,-0.68217 -1.853003,0.1265 -3.715557,0.37329 -5.467963,1.01707 -1.033105,0.39421 -2.059548,0.80595 -3.064602,1.26774 0,0 -0.38179,0.30619 -0.38179,0.30619 z" />
      <path
         style="fill:#ceb568;fill-opacity:1;stroke:#7d5f00;stroke-width:1.065;stroke-linecap:square;stroke-linejoin:miter;stroke-opacity:0"
         id="path50446"
         d="m 22.537132,114.72918 c 1.744279,-0.0801 3.420741,-0.57327 5.070572,-1.10753 2.670805,-0.91235 5.33023,-1.84477 8.043217,-2.62631 1.386221,-0.4171 2.799046,-0.73266 4.21051,-1.04921 0,0 0.31853,-0.24244 0.31853,-0.24244 v 0 c -1.414616,0.3229 -2.832095,0.63889 -4.222944,1.05589 -2.706883,0.77743 -5.36126,1.70255 -8.025907,2.61131 -1.626404,0.52308 -3.281534,1.01781 -5.002337,1.07374 0,0 -0.391641,0.28455 -0.391641,0.28455 z" />
      <path
         style="fill:#ceb568;fill-opacity:1;stroke:#7d5f00;stroke-width:1.065;stroke-linecap:square;stroke-linejoin:miter;stroke-opacity:0"
         id="path50448"
         d="m 38.899144,103.28527 c 0.582533,1.49547 1.507048,2.83976 2.402713,4.1621 1.42902,2.02725 3.324852,3.61802 5.321808,5.05572 1.414889,0.91123 2.931181,1.66814 4.569799,2.07755 0.738134,0.18443 1.253911,0.246 1.991508,0.35704 0,0 0.351824,-0.24796 0.351824,-0.24796 v 0 c -0.766669,-0.10661 -1.233376,-0.1538 -2.003925,-0.3413 -1.638903,-0.39882 -3.155862,-1.1478 -4.565279,-2.06389 -1.998618,-1.42814 -3.883049,-3.02294 -5.308047,-5.04709 -0.891612,-1.31908 -1.812621,-2.67083 -2.33122,-4.18819 0,0 -0.429181,0.23602 -0.429181,0.23602 z" />
      <path
         style="fill:#ceb568;fill-opacity:1;stroke:#7d5f00;stroke-width:1.065;stroke-linecap:square;stroke-linejoin:miter;stroke-opacity:0"
         id="path50450"
         d="m 39.371973,117.09328 c 1.203868,-0.86717 2.423909,-1.70339 3.715711,-2.43487 1.615585,-0.89255 3.351342,-1.5459 5.106675,-2.10422 1.618144,-0.56935 3.299251,-0.77546 5.004308,-0.79728 1.251127,0.0424 2.503244,-0.004 3.754242,0.0313 0.768212,0.0251 1.53457,0.0746 2.296395,0.17704 0.406344,0.0297 0.771602,0.11457 1.123953,0.31804 0.326585,0.21195 0.578032,0.51168 0.837109,0.79683 0,0 0.400699,-0.24288 0.400699,-0.24288 v 0 c -0.260726,-0.28779 -0.510826,-0.59327 -0.833202,-0.81579 -0.354243,-0.21954 -0.7194,-0.30887 -1.13623,-0.33354 -0.768892,-0.0974 -1.541473,-0.14643 -2.316226,-0.16878 -1.256344,-0.0339 -2.513607,0.0169 -3.770124,-0.0221 -1.707788,0.0238 -3.39402,0.21998 -5.015685,0.7897 -1.761308,0.55765 -3.501845,1.21473 -5.123934,2.10631 -1.54768,0.8863 -3.055573,1.82338 -4.495102,2.87854 0,0 0.451411,-0.17835 0.451411,-0.17835 z" />
      <path
         style="fill:#ceb568;fill-opacity:1;stroke:#7d5f00;stroke-width:1.065;stroke-linecap:square;stroke-linejoin:miter;stroke-opacity:0"
         id="path50452"
         d="m 51.769467,106.024 c 0.998908,-0.0397 1.994905,0.15372 2.971281,0.34405 1.102853,0.22076 2.195449,0.48857 3.271875,0.81449 0.694661,0.19269 1.340993,0.49569 1.920547,0.92236 0.655309,0.53901 0.937972,1.33226 1.185182,2.11576 0.296741,1.12922 0.357582,2.29192 0.296672,3.4521 -0.05535,0.62229 -0.150135,1.25526 -0.405111,1.83038 0.116747,0.0441 -0.45465,0.39188 -0.299712,0.31478 0.09835,-0.0489 0.207976,-0.0898 0.281448,-0.17143 0.03694,-0.0411 -0.106405,0.0318 -0.161296,0.0379 -0.05952,0.007 -0.119758,-2e-5 -0.179636,-3e-5 -0.777568,-0.14815 -1.195591,-0.87621 -1.528058,-1.52459 -0.438555,-1.09015 -0.647801,-2.29585 -0.407152,-3.46193 0.05071,-0.24571 0.141235,-0.48149 0.211855,-0.72223 0.08264,-0.20757 0.165285,-0.41513 0.247927,-0.6227 0,0 -0.408328,0.1892 -0.408328,0.1892 v 0 c -0.08011,0.20788 -0.160221,0.41577 -0.240335,0.62365 -0.06943,0.24282 -0.158514,0.48085 -0.208293,0.72845 -0.23641,1.17589 -0.02686,2.39072 0.404934,3.49323 0.332547,0.66525 0.752142,1.39974 1.532951,1.58205 0.487013,0.0238 0.950733,-0.2515 1.19566,-0.66954 0.237757,-0.58114 0.328332,-1.21111 0.373864,-1.83396 0.05093,-1.16524 -0.0095,-2.33288 -0.30163,-3.46786 -0.247854,-0.79311 -0.53009,-1.59798 -1.187548,-2.14882 -0.584517,-0.43153 -1.237517,-0.73782 -1.939808,-0.92906 -1.081614,-0.32271 -2.178897,-0.58868 -3.285657,-0.81038 -0.970478,-0.19389 -1.956491,-0.38683 -2.94994,-0.37712 0,0 -0.391692,0.29127 -0.391692,0.29127 z" />
      <text
         xml:space="preserve"
         style="font-style:normal;font-variant:normal;font-weight:normal;font-stretch:normal;font-size:3.52778px;line-height:1.25;font-family:Consolas;-inkscape-font-specification:Consolas;text-align:center;text-anchor:middle;white-space:pre;inline-size:116.037;display:inline;fill:#000000;fill-opacity:1;stroke:none;stroke-width:0.264583"
         x="55.373524"
         y="7.7254333"
         id="text48609"
         transform="translate(-45.165947,95.804097)"><tspan
           x="55.373524"
           y="7.7254333"
           id="tspan1138">Osemdesiatročné exorcizmy:
</tspan><tspan
           x="55.373524"
           y="12.135159"
           id="tspan1140">
</tspan><tspan
           x="55.373524"
           y="16.544884"
           id="tspan1142">-sociálnoenergické sovie veterinárstvo...
</tspan><tspan
           x="55.373524"
           y="20.954608"
           id="tspan1144">-takisto incinerácia KCl, E...</tspan></text>
    </g>
  </g>
</svg>
