<?xml version="1.0" encoding="UTF-8"?>
<svg xmlns="http://www.w3.org/2000/svg" xmlns:xlink="http://www.w3.org/1999/xlink" width="289pt" height="161pt" viewBox="0 0 289 161" version="1.1">
<g id="surface36411">
<path style="fill-rule:evenodd;fill:rgb(82.7%,82.7%,82.7%);fill-opacity:1;stroke-width:0.4;stroke-linecap:butt;stroke-linejoin:round;stroke:rgb(0%,0%,0%);stroke-opacity:1;stroke-miterlimit:10;" d="M 272 704 L 272 672 L 304 672 L 304 704 Z M 272 704 " transform="matrix(1,0,0,-1,-143,833)"/>
<path style="fill:none;stroke-width:0.4;stroke-linecap:butt;stroke-linejoin:round;stroke:rgb(0%,0%,0%);stroke-opacity:1;stroke-miterlimit:10;" d="M 240 704 L 240 672 L 272 672 L 272 704 Z M 240 704 " transform="matrix(1,0,0,-1,-143,833)"/>
<path style="fill:none;stroke-width:0.4;stroke-linecap:butt;stroke-linejoin:round;stroke:rgb(0%,0%,0%);stroke-opacity:1;stroke-miterlimit:10;" d="M 304 704 L 304 672 L 336 672 L 336 704 Z M 304 704 " transform="matrix(1,0,0,-1,-143,833)"/>
<path style="fill:none;stroke-width:0.4;stroke-linecap:butt;stroke-linejoin:round;stroke:rgb(0%,0%,0%);stroke-opacity:1;stroke-miterlimit:10;" d="M 336 704 L 336 672 L 368 672 L 368 704 Z M 336 704 " transform="matrix(1,0,0,-1,-143,833)"/>
<path style="fill:none;stroke-width:0.4;stroke-linecap:butt;stroke-linejoin:round;stroke:rgb(0%,0%,0%);stroke-opacity:1;stroke-miterlimit:10;" d="M 368 704 L 368 672 L 400 672 L 400 704 Z M 368 704 " transform="matrix(1,0,0,-1,-143,833)"/>
<path style="fill:none;stroke-width:0.4;stroke-linecap:butt;stroke-linejoin:round;stroke:rgb(0%,0%,0%);stroke-opacity:1;stroke-miterlimit:10;" d="M 400 704 L 400 672 L 432 672 L 432 704 Z M 400 704 " transform="matrix(1,0,0,-1,-143,833)"/>
<path style="fill:none;stroke-width:0.4;stroke-linecap:butt;stroke-linejoin:round;stroke:rgb(0%,0%,0%);stroke-opacity:1;stroke-miterlimit:10;" d="M 240 704 L 240 672 L 208 672 L 208 704 Z M 240 704 " transform="matrix(1,0,0,-1,-143,833)"/>
<path style="fill:none;stroke-width:0.4;stroke-linecap:butt;stroke-linejoin:round;stroke:rgb(0%,0%,0%);stroke-opacity:1;stroke-miterlimit:10;" d="M 208 704 L 208 672 L 176 672 L 176 704 Z M 208 704 " transform="matrix(1,0,0,-1,-143,833)"/>
<path style="fill-rule:evenodd;fill:rgb(82.7%,82.7%,82.7%);fill-opacity:1;stroke-width:0.4;stroke-linecap:butt;stroke-linejoin:round;stroke:rgb(0%,0%,0%);stroke-opacity:1;stroke-miterlimit:10;" d="M 176 704 L 176 672 L 144 672 L 144 704 Z M 176 704 " transform="matrix(1,0,0,-1,-143,833)"/>
<path style="fill-rule:evenodd;fill:rgb(82.7%,82.7%,82.7%);fill-opacity:1;stroke-width:0.4;stroke-linecap:butt;stroke-linejoin:round;stroke:rgb(0%,0%,0%);stroke-opacity:1;stroke-miterlimit:10;" d="M 176 736 L 176 704 L 208 704 L 208 736 Z M 176 736 " transform="matrix(1,0,0,-1,-143,833)"/>
<path style="fill:none;stroke-width:0.4;stroke-linecap:butt;stroke-linejoin:round;stroke:rgb(0%,0%,0%);stroke-opacity:1;stroke-miterlimit:10;" d="M 208 736 L 208 704 L 240 704 L 240 736 Z M 208 736 " transform="matrix(1,0,0,-1,-143,833)"/>
<path style="fill:none;stroke-width:0.4;stroke-linecap:butt;stroke-linejoin:round;stroke:rgb(0%,0%,0%);stroke-opacity:1;stroke-miterlimit:10;" d="M 240 736 L 240 704 L 272 704 L 272 736 Z M 240 736 " transform="matrix(1,0,0,-1,-143,833)"/>
<path style="fill-rule:evenodd;fill:rgb(82.7%,82.7%,82.7%);fill-opacity:1;stroke-width:0.4;stroke-linecap:butt;stroke-linejoin:round;stroke:rgb(0%,0%,0%);stroke-opacity:1;stroke-miterlimit:10;" d="M 272 736 L 272 704 L 304 704 L 304 736 Z M 272 736 " transform="matrix(1,0,0,-1,-143,833)"/>
<path style="fill:none;stroke-width:0.4;stroke-linecap:butt;stroke-linejoin:round;stroke:rgb(0%,0%,0%);stroke-opacity:1;stroke-miterlimit:10;" d="M 304 736 L 304 704 L 336 704 L 336 736 Z M 304 736 " transform="matrix(1,0,0,-1,-143,833)"/>
<path style="fill:none;stroke-width:0.4;stroke-linecap:butt;stroke-linejoin:round;stroke:rgb(0%,0%,0%);stroke-opacity:1;stroke-miterlimit:10;" d="M 336 736 L 336 704 L 368 704 L 368 736 Z M 336 736 " transform="matrix(1,0,0,-1,-143,833)"/>
<path style="fill:none;stroke-width:0.4;stroke-linecap:butt;stroke-linejoin:round;stroke:rgb(0%,0%,0%);stroke-opacity:1;stroke-miterlimit:10;" d="M 368 736 L 368 704 L 400 704 L 400 736 Z M 368 736 " transform="matrix(1,0,0,-1,-143,833)"/>
<path style="fill-rule:evenodd;fill:rgb(82.7%,82.7%,82.7%);fill-opacity:1;stroke-width:0.4;stroke-linecap:butt;stroke-linejoin:round;stroke:rgb(0%,0%,0%);stroke-opacity:1;stroke-miterlimit:10;" d="M 208 736 L 208 768 L 240 768 L 240 736 Z M 208 736 " transform="matrix(1,0,0,-1,-143,833)"/>
<path style="fill:none;stroke-width:0.4;stroke-linecap:butt;stroke-linejoin:round;stroke:rgb(0%,0%,0%);stroke-opacity:1;stroke-miterlimit:10;" d="M 240 736 L 240 768 L 272 768 L 272 736 Z M 240 736 " transform="matrix(1,0,0,-1,-143,833)"/>
<path style="fill-rule:evenodd;fill:rgb(82.7%,82.7%,82.7%);fill-opacity:1;stroke-width:0.4;stroke-linecap:butt;stroke-linejoin:round;stroke:rgb(0%,0%,0%);stroke-opacity:1;stroke-miterlimit:10;" d="M 272 736 L 272 768 L 304 768 L 304 736 Z M 272 736 " transform="matrix(1,0,0,-1,-143,833)"/>
<path style="fill:none;stroke-width:0.4;stroke-linecap:butt;stroke-linejoin:round;stroke:rgb(0%,0%,0%);stroke-opacity:1;stroke-miterlimit:10;" d="M 304 736 L 304 768 L 336 768 L 336 736 Z M 304 736 " transform="matrix(1,0,0,-1,-143,833)"/>
<path style="fill:none;stroke-width:0.4;stroke-linecap:butt;stroke-linejoin:round;stroke:rgb(0%,0%,0%);stroke-opacity:1;stroke-miterlimit:10;" d="M 336 736 L 336 768 L 368 768 L 368 736 Z M 336 736 " transform="matrix(1,0,0,-1,-143,833)"/>
<path style="fill-rule:evenodd;fill:rgb(82.7%,82.7%,82.7%);fill-opacity:1;stroke-width:0.4;stroke-linecap:butt;stroke-linejoin:round;stroke:rgb(0%,0%,0%);stroke-opacity:1;stroke-miterlimit:10;" d="M 240 768 L 240 800 L 272 800 L 272 768 Z M 240 768 " transform="matrix(1,0,0,-1,-143,833)"/>
<path style="fill-rule:evenodd;fill:rgb(82.7%,82.7%,82.7%);fill-opacity:1;stroke-width:0.4;stroke-linecap:butt;stroke-linejoin:round;stroke:rgb(0%,0%,0%);stroke-opacity:1;stroke-miterlimit:10;" d="M 272 800 L 272 768 L 304 768 L 304 800 Z M 272 800 " transform="matrix(1,0,0,-1,-143,833)"/>
<path style="fill:none;stroke-width:0.4;stroke-linecap:butt;stroke-linejoin:round;stroke:rgb(0%,0%,0%);stroke-opacity:1;stroke-miterlimit:10;" d="M 304 768 L 304 800 L 336 800 L 336 768 Z M 304 768 " transform="matrix(1,0,0,-1,-143,833)"/>
<path style="fill-rule:evenodd;fill:rgb(82.7%,82.7%,82.7%);fill-opacity:1;stroke-width:0.4;stroke-linecap:butt;stroke-linejoin:round;stroke:rgb(0%,0%,0%);stroke-opacity:1;stroke-miterlimit:10;" d="M 304 800 L 304 832 L 272 832 L 272 800 Z M 304 800 " transform="matrix(1,0,0,-1,-143,833)"/>
<path style="fill:none;stroke-width:0.4;stroke-linecap:butt;stroke-linejoin:round;stroke:rgb(0%,0%,0%);stroke-opacity:1;stroke-miterlimit:10;" d="M 432 704 L 432 672 " transform="matrix(1,0,0,-1,-143,833)"/>
</g>
</svg>
