<?xml version="1.0" encoding="UTF-8" standalone="no"?>
<!-- Created with Inkscape (http://www.inkscape.org/) -->

<svg
   width="442.97119mm"
   height="70.556mm"
   viewBox="0 0 442.97119 70.556"
   version="1.1"
   id="svg1"
   xml:space="preserve"
   xmlns="http://www.w3.org/2000/svg"
   xmlns:svg="http://www.w3.org/2000/svg"><defs
     id="defs1" /><g
     id="layer1"
     transform="translate(108.49088,-113.222)"><path
       style="fill:#bebebe"
       d="m 263.92474,148.5 v -35.27777 h 35.27778 35.27777 V 148.5 183.77778 h -35.27777 -35.27778 z m 62.44167,0 V 121.33612 H 299.20252 272.03863 V 148.5 175.66389 h 27.16389 27.16389 z m -47.625,18.86602 c 0,-0.10119 3.99643,-7.12588 8.88096,-15.61042 10.53129,-18.29311 11.67854,-20.37416 11.75537,-20.46566 4.27778,6.93099 8.22613,14.10841 12.28853,21.17881 l 8.66608,15.08125 h -20.79547 c -11.43751,0 -20.79547,-0.0828 -20.79547,-0.18398 z"
       id="path12" /><path
       style="fill:#fa0102"
       d="m 287.63419,157.05486 c 2.5406,-4.41413 6.15552,-10.70039 8.03317,-13.96947 1.87764,-3.26908 3.56024,-5.92072 3.73911,-5.89255 0.17887,0.0282 3.02898,4.76663 6.33359,10.52989 3.3046,5.76326 6.90259,12.02647 7.99553,13.91824 l 1.98715,3.43959 h -16.35391 -16.35391 z"
       id="path11" /><path
       style="fill:#bdbebd"
       d="M -27.351999,148.5 V 113.222 H 31.855829 91.063658 V 148.5 183.778 H 31.855829 -27.351999 Z m 62.168222,19.1192 2e-6,-8.26443 -25.7800776,0.1189 c -14.1790426,0.0654 -26.3906584,0.1209 -27.1369234,0.12335 l -1.356846,0.004 v 8.14108 8.14107 H 7.6792993 34.816221 Z m 24.944573,2.70013 c 3.271801,-3.04545 9.776715,-9.05798 14.455364,-13.36118 4.678649,-4.30321 8.435507,-8.0374 8.348573,-8.2982 -0.08693,-0.2608 -6.591849,-6.4461 -14.455365,-13.7451 l -14.297302,-13.27092 -5.797434,-0.0171 c -3.188588,-0.009 -5.797433,0.0711 -5.797433,0.17886 0,0.10777 6.438852,6.11019 14.308559,13.33872 7.869707,7.22853 14.308558,13.30876 14.308558,13.51162 0,0.20286 -5.939285,5.83844 -13.198411,12.52352 -7.259127,6.68508 -13.736681,12.7283 -14.394565,13.42937 l -1.196153,1.27468 5.883439,-0.0136 5.88344,-0.0136 z m -24.94467,-39.91137 c 5.2e-5,-3.98051 0.134864,-7.58848 0.299582,-8.01773 0.270881,-0.70591 -2.321214,-0.78045 -27.1369213,-0.78045 H -19.457622 v 7.81214 c 0,4.29668 0.09244,7.90466 0.205427,8.01773 0.112984,0.11307 12.3245566,0.20558 27.1368267,0.20558 H 34.816032 Z"
       id="path5" /><path
       style="fill:#f6f6f6"
       d="m -19.457622,167.74255 v -8.14108 l 1.356846,-0.004 c 0.746265,-0.002 12.9578808,-0.058 27.1369234,-0.12335 l 25.7800776,-0.1189 -2e-6,8.26443 -2e-6,8.26442 H 7.6792993 -19.457622 Z m 62.698962,6.86638 c 0.657884,-0.70107 7.135438,-6.74429 14.394565,-13.42937 7.259126,-6.68508 13.198411,-12.32066 13.198411,-12.52352 0,-0.20286 -6.438851,-6.28309 -14.308558,-13.51162 -7.869707,-7.22853 -14.308559,-13.23095 -14.308559,-13.33872 0,-0.10776 2.608845,-0.18825 5.797433,-0.17886 l 5.797434,0.0171 14.297302,13.27092 c 7.863516,7.299 14.368431,13.4843 14.455365,13.7451 0.08693,0.2608 -3.669924,3.99499 -8.348573,8.2982 -4.678649,4.3032 -11.183563,10.31573 -14.455364,13.36118 l -5.94873,5.53718 -5.88344,0.0136 -5.883439,0.0136 z m -62.493535,-37.16929 c -0.112985,-0.11307 -0.205427,-3.72105 -0.205427,-8.01773 v -7.81214 H 7.9787867 c 24.8157073,0 27.4078023,0.0745 27.1369213,0.78045 -0.164718,0.42925 -0.29953,4.03722 -0.299582,8.01773 l -9.4e-5,7.23727 H 7.8846317 c -14.8122701,0 -27.0238427,-0.0925 -27.1368267,-0.20558 z"
       id="path6" /><path
       style="fill:#039703"
       d="m 38.023311,166.13933 v -9.25155 L 9.5295439,156.76042 -18.964224,156.63306 v -7.88636 -7.88636 l 28.4937679,-0.12736 28.4937671,-0.12736 v -9.25152 c 0,-5.08834 0.126149,-9.25139 0.280332,-9.25123 0.24879,2.7e-4 23.41137,21.36621 27.46192,25.3318 l 1.592128,1.55873 -14.307798,13.07506 c -7.86929,7.19129 -14.469525,13.13072 -14.66719,13.19875 -0.197666,0.068 -0.359392,-4.03952 -0.359392,-9.12788 z"
       id="path4" /><path
       style="fill:#bebebe"
       d="m -108.49088,148.5 v -35.27777 h 35.277772 35.277775 V 148.5 183.77778 h -35.277775 -35.277772 z m 62.441659,18.87361 v -8.29027 h -27.163887 -27.163882 v 8.29027 8.29028 h 27.163882 27.163887 z m -0.08169,-18.9618 -0.0947,-8.20208 -27.075692,-0.0904 -27.075687,-0.0904 v 8.29246 8.29247 h 27.170383 27.170388 z m 0.08169,-18.9618 v -8.11389 h -27.163887 -27.163882 v 8.11389 8.11388 h 27.163882 27.163887 z"
       id="path2" /><path
       style="fill:#f9f9f9"
       d="m -100.37699,167.37361 v -8.29027 h 27.163882 27.163887 v 8.29027 8.29028 h -27.163887 -27.163882 z m 0,-37.9236 v -8.11389 h 27.163882 27.163887 v 8.11389 8.11388 h -27.163887 -27.163882 z"
       id="path3" /><path
       style="fill:#fa0203"
       d="m -100.37699,148.32142 v -8.29246 l 27.075688,0.0904 27.075692,0.0904 0.0947,8.20208 0.0947,8.20208 h -27.170388 -27.170382 z"
       id="path1" /><path
       style="fill:#bebebe"
       d="m 182.78587,148.5 v -35.27777 h 35.27778 35.27777 V 148.5 183.77778 h -35.27777 -35.27778 z m 62.44166,0 V 121.33612 H 218.06365 190.89976 V 148.5 175.66389 h 27.16389 27.16388 z m -32.10277,18.56238 c -3.22428,-0.89365 -5.77933,-2.41349 -8.32558,-4.95238 -4.58778,-4.28302 -5.78553,-10.094 -5.78553,-16.07944 h 19.05 19.05 v 2.27569 c 0,8.82717 -5.84983,16.50989 -14.2875,18.76413 -2.18873,0.58475 -7.57881,0.58031 -9.70139,-0.008 z"
       id="path10" /><path
       style="fill:#019801"
       d="m 213.65393,164.42056 c -3.80864,-1.09712 -7.19929,-3.65511 -9.41262,-7.10111 -1.18202,-1.84031 -2.40544,-5.53743 -2.40544,-7.26911 v -1.19756 h 16.27803 16.27804 l -0.22424,2.20486 c -0.45332,4.45736 -3.88631,9.46356 -8.15851,11.89725 -3.64143,2.07436 -8.31682,2.62899 -12.35526,1.46567 z"
       id="path9" /><path
       style="fill:#bebebe"
       d="m 101.64699,148.5 v -35.27777 h 35.27777 35.27778 V 148.5 183.77778 h -35.27778 -35.27777 z m 62.79444,0.35278 v -27.16389 h -27.16389 -27.16389 v 27.16389 27.16389 h 27.16389 27.16389 z m -38.1,0.35278 v -10.93611 h 10.75972 10.75972 v 10.93611 10.93611 h -10.75972 -10.75972 z m 18.69722,0.0112 v -8.47786 h -7.9375 -7.9375 v 8.44217 8.44216 l 7.9375,0.0357 7.9375,0.0357 z"
       id="path8" /><path
       style="fill:#2f30f8;stroke-width:1.02395"
       d="m 129.16365,149.22518 v -8.50731 h 7.9375 7.9375 v 8.50731 8.50731 h -7.9375 -7.9375 z"
       id="path7" /></g></svg>
