<?xml version="1.0" encoding="UTF-8" standalone="no"?>
<svg
   xmlns:dc="http://purl.org/dc/elements/1.1/"
   xmlns:cc="http://creativecommons.org/ns#"
   xmlns:rdf="http://www.w3.org/1999/02/22-rdf-syntax-ns#"
   xmlns:svg="http://www.w3.org/2000/svg"
   xmlns="http://www.w3.org/2000/svg"
   xmlns:sodipodi="http://sodipodi.sourceforge.net/DTD/sodipodi-0.dtd"
   xmlns:inkscape="http://www.inkscape.org/namespaces/inkscape"
   version="1.1"
   id="svg2"
   width="552"
   height="578"
   viewBox="0 0 552 578"
   sodipodi:docname="pismenkova-raw.svg"
   inkscape:version="1.0.2 (e86c870879, 2021-01-15)">
  <metadata
     id="metadata8">
    <rdf:RDF>
      <cc:Work
         rdf:about="">
        <dc:format>image/svg+xml</dc:format>
        <dc:type
           rdf:resource="http://purl.org/dc/dcmitype/StillImage" />
        <dc:title></dc:title>
      </cc:Work>
    </rdf:RDF>
  </metadata>
  <defs
     id="defs6">
    <rect
       x="203"
       y="267"
       width="56"
       height="60"
       id="rect1358" />
    <rect
       x="3.2803807"
       y="-41.668205"
       width="610.85114"
       height="651.12793"
       id="rect1316" />
    <rect
       x="10.421659"
       y="-35.388489"
       width="644.02808"
       height="647.83832"
       id="rect1310" />
    <rect
       x="321"
       y="459"
       width="56"
       height="60"
       id="rect1304" />
    <rect
       x="501"
       y="329"
       width="56"
       height="62"
       id="rect1298" />
    <rect
       x="77"
       y="267"
       width="60"
       height="60"
       id="rect1292" />
    <rect
       x="261"
       y="207"
       width="58"
       height="58"
       id="rect1286" />
    <rect
       x="501"
       y="139"
       width="56"
       height="62"
       id="rect1280" />
    <rect
       x="203"
       y="77"
       width="56"
       height="60"
       id="rect1274" />
    <rect
       x="261"
       y="397"
       width="58"
       height="60"
       id="rect1268" />
    <rect
       x="139"
       y="459"
       width="58"
       height="60"
       id="rect1262" />
    <rect
       x="17"
       y="329"
       width="58"
       height="62"
       id="rect1256" />
    <rect
       x="501"
       y="207"
       width="56"
       height="58"
       id="rect1250" />
    <rect
       x="383"
       y="207"
       width="56"
       height="58"
       id="rect1244" />
    <rect
       x="77"
       y="521"
       width="60"
       height="60"
       id="rect1238" />
    <rect
       x="139"
       y="329"
       width="58"
       height="62"
       id="rect1232" />
    <rect
       x="17"
       y="139"
       width="58"
       height="62"
       id="rect1226" />
    <rect
       x="321"
       y="139"
       width="56"
       height="62"
       id="rect1220" />
    <rect
       x="383"
       y="329"
       width="56"
       height="62"
       id="rect1214" />
    <rect
       x="203"
       y="521"
       width="56"
       height="60"
       id="rect1208" />
    <rect
       x="77"
       y="207"
       width="60"
       height="58"
       id="rect1202" />
    <rect
       x="17"
       y="397"
       width="58"
       height="60"
       id="rect1196" />
    <rect
       x="139"
       y="267"
       width="58"
       height="60"
       id="rect1190" />
    <rect
       x="321"
       y="77"
       width="56"
       height="60"
       id="rect1184" />
    <rect
       x="383"
       y="15"
       width="56"
       height="60"
       id="rect1178" />
    <rect
       x="501"
       y="77"
       width="61.98056"
       height="60.447002"
       id="rect1172" />
    <rect
       x="261"
       y="329"
       width="58"
       height="62"
       id="rect1166" />
    <rect
       x="17"
       y="521"
       width="58"
       height="60"
       id="rect1160" />
    <rect
       x="139"
       y="521"
       width="58"
       height="60"
       id="rect1154" />
    <rect
       x="261"
       y="459"
       width="58"
       height="60"
       id="rect1148" />
    <rect
       x="441"
       y="521"
       width="58"
       height="60"
       id="rect1142" />
    <rect
       x="383"
       y="459"
       width="56"
       height="60"
       id="rect1136" />
    <rect
       x="321"
       y="397"
       width="56"
       height="60"
       id="rect1130" />
    <rect
       x="441"
       y="329"
       width="58"
       height="62"
       id="rect1124" />
    <rect
       x="383"
       y="267"
       width="58"
       height="60"
       id="rect1118" />
    <rect
       x="441"
       y="267"
       width="58"
       height="60"
       id="rect1112" />
    <rect
       x="321"
       y="207"
       width="56"
       height="58"
       id="rect1106" />
    <rect
       x="203"
       y="139"
       width="56"
       height="62"
       id="rect1100" />
    <rect
       x="259"
       y="201"
       width="56"
       height="62"
       id="rect1094" />
    <rect
       x="203"
       y="329"
       width="56"
       height="62"
       id="rect1088" />
    <rect
       x="203"
       y="397"
       width="56"
       height="60"
       id="rect1082" />
    <rect
       x="259"
       y="457"
       width="56"
       height="60"
       id="rect1076" />
    <rect
       x="139"
       y="397"
       width="58"
       height="60"
       id="rect1070" />
    <rect
       x="139"
       y="329"
       width="58"
       height="62"
       id="rect1064" />
    <rect
       x="77"
       y="329"
       width="60"
       height="62"
       id="rect1058" />
    <rect
       x="17"
       y="267"
       width="58"
       height="60"
       id="rect1052" />
    <rect
       x="17"
       y="207"
       width="58"
       height="58"
       id="rect1046" />
    <rect
       x="75"
       y="265"
       width="58"
       height="58"
       id="rect1040" />
    <rect
       x="17"
       y="139"
       width="58"
       height="62"
       id="rect1034" />
    <rect
       x="139"
       y="77"
       width="58"
       height="60"
       id="rect1028" />
    <rect
       x="261"
       y="77"
       width="58"
       height="60"
       id="rect1022" />
    <rect
       x="261"
       y="139"
       width="58"
       height="62"
       id="rect1016" />
    <rect
       x="441"
       y="139"
       width="58"
       height="62"
       id="rect1010" />
    <rect
       x="383"
       y="139"
       width="56"
       height="62"
       id="rect1004" />
    <rect
       x="383"
       y="77"
       width="56"
       height="60"
       id="rect998" />
    <rect
       x="501"
       y="15"
       width="56"
       height="60"
       id="rect992" />
    <rect
       x="441"
       y="15"
       width="58"
       height="60"
       id="rect986" />
    <rect
       x="321"
       y="15"
       width="56"
       height="60"
       id="rect980" />
    <rect
       x="139"
       y="15"
       width="58"
       height="60"
       id="rect974" />
    <rect
       x="77"
       y="15"
       width="60"
       height="60"
       id="rect968" />
    <rect
       x="77"
       y="15"
       width="60"
       height="60"
       id="rect956" />
    <rect
       x="77"
       y="15"
       width="60"
       height="60"
       id="rect950" />
    <rect
       x="77"
       y="15"
       width="60"
       height="60"
       id="rect910" />
    <rect
       x="17"
       y="77"
       width="58"
       height="60"
       id="rect851" />
    <rect
       x="17"
       y="77"
       width="58"
       height="60"
       id="rect851-3" />
    <rect
       x="17"
       y="77"
       width="58"
       height="60"
       id="rect881" />
    <rect
       x="139"
       y="329"
       width="58"
       height="62"
       id="rect1232-9" />
    <rect
       x="139"
       y="329"
       width="58"
       height="62"
       id="rect1329" />
  </defs>
  <sodipodi:namedview
     pagecolor="#ffffff"
     bordercolor="#666666"
     borderopacity="1"
     objecttolerance="10"
     gridtolerance="10"
     guidetolerance="10"
     inkscape:pageopacity="0"
     inkscape:pageshadow="2"
     inkscape:window-width="1366"
     inkscape:window-height="726"
     id="namedview4"
     showgrid="false"
     inkscape:zoom="0.46999004"
     inkscape:cx="706.35488"
     inkscape:cy="471.59433"
     inkscape:window-x="0"
     inkscape:window-y="0"
     inkscape:window-maximized="1"
     inkscape:current-layer="g10" />
  <g
     inkscape:groupmode="layer"
     inkscape:label="Image"
     id="g10"
     transform="translate(-11,-9)">
    <path
       id="path1390"
       style="fill:#000000"
       d="M 75,551 V 521 H 46 17 v 30 30 h 29 29 z m 62,0 V 521 H 107 77 v 30 30 h 30 30 z m 60,0 v -30 h -29 -29 v 30 30 h 29 29 z m 62,0 v -30 h -28 -28 v 30 30 h 28 28 z m 60,0 v -30 h -29 -29 v 30 30 h 29 29 z m 58,0 v -30 h -28 -28 v 30 30 h 28 28 z m 62,0 v -30 h -28 -28 v 30 30 h 28 28 z m 60,0 v -30 h -29 -29 v 30 30 h 29 29 z M 75,489 V 459 H 46 17 v 30 30 h 29 29 z m 62,0 V 459 H 107 77 v 30 30 h 30 30 z m 60,0 v -30 h -29 -29 v 30 30 h 29 29 z m 62,0 v -30 h -28 -28 v 30 30 h 28 28 z m 60,0 v -30 h -29 -29 v 30 30 h 29 29 z m 58,0 v -30 h -28 -28 v 30 30 h 28 28 z m 62,0 v -30 h -28 -28 v 30 30 h 28 28 z m 118,0 v -30 h -28 -28 v 30 30 h 28 28 z M 75,427 V 397 H 46 17 v 30 30 h 29 29 z m 62,0 V 397 H 107 77 v 30 30 h 30 30 z m 60,0 v -30 h -29 -29 v 30 30 h 29 29 z m 62,0 v -30 h -28 -28 v 30 30 h 28 28 z m 60,0 v -30 h -29 -29 v 30 30 h 29 29 z m 58,0 v -30 h -28 -28 v 30 30 h 28 28 z m 122,0 v -30 h -29 -29 v 30 30 h 29 29 z m 58,0 v -30 h -28 -28 v 30 30 h 28 28 z M 75,360 V 329 H 46 17 v 31 31 h 29 29 z m 62,0 V 329 H 107 77 v 31 31 h 30 30 z m 60,0 v -31 h -29 -29 v 31 31 h 29 29 z m 62,0 v -31 h -28 -28 v 31 31 h 28 28 z m 60,0 v -31 h -29 -29 v 31 31 h 29 29 z m 120,0 v -31 h -28 -28 v 31 31 h 28 28 z m 60,0 v -31 h -29 -29 v 31 31 h 29 29 z m 58,0 v -31 h -28 -28 v 31 31 h 28 28 z M 75,297 V 267 H 46 17 v 30 30 h 29 29 z m 62,0 V 267 H 107 77 v 30 30 h 30 30 z m 60,0 v -30 h -29 -29 v 30 30 h 29 29 z m 62,0 v -30 h -28 -28 v 30 30 h 28 28 z m 118,0 v -30 h -28 -28 v 30 30 h 28 28 z m 62,0 v -30 h -28 -28 v 30 30 h 28 28 z m 60,0 v -30 h -29 -29 v 30 30 h 29 29 z m 58,0 v -30 h -28 -28 v 30 30 h 28 28 z M 75,236 V 207 H 46 17 v 29 29 h 29 29 z m 62,0 V 207 H 107 77 v 29 29 h 30 30 z m 60,0 v -29 h -29 -29 v 29 29 h 29 29 z m 122,0 v -29 h -29 -29 v 29 29 h 29 29 z m 58,0 v -29 h -28 -28 v 29 29 h 28 28 z m 62,0 v -29 h -28 -28 v 29 29 h 28 28 z m 60,0 v -29 h -29 -29 v 29 29 h 29 29 z m 58,0 v -29 h -28 -28 v 29 29 h 28 28 z M 75,170 V 139 H 46 17 v 31 31 h 29 29 z m 62,0 V 139 H 107 77 v 31 31 h 30 30 z m 122,0 v -31 h -28 -28 v 31 31 h 28 28 z m 60,0 v -31 h -29 -29 v 31 31 h 29 29 z m 58,0 v -31 h -28 -28 v 31 31 h 28 28 z m 62,0 v -31 h -28 -28 v 31 31 h 28 28 z m 60,0 v -31 h -29 -29 v 31 31 h 29 29 z m 58,0 v -31 h -28 -28 v 31 31 h 28 28 z M 75,107 V 77 H 46 17 v 30 30 h 29 29 z m 122,0 V 77 h -29 -29 v 30 30 h 29 29 z m 62,0 V 77 h -28 -28 v 30 30 h 28 28 z m 60,0 V 77 h -29 -29 v 30 30 h 29 29 z m 58,0 V 77 h -28 -28 v 30 30 h 28 28 z m 62,0 V 77 h -28 -28 v 30 30 h 28 28 z m 60,0 V 77 h -29 -29 v 30 30 h 29 29 z m 58,0 V 77 h -28 -28 v 30 30 h 28 28 z M 137,45 V 15 H 107 77 v 30 30 h 30 30 z m 60,0 V 15 h -29 -29 v 30 30 h 29 29 z m 62,0 V 15 h -28 -28 v 30 30 h 28 28 z m 60,0 V 15 h -29 -29 v 30 30 h 29 29 z m 58,0 V 15 h -28 -28 v 30 30 h 28 28 z m 62,0 V 15 h -28 -28 v 30 30 h 28 28 z m 60,0 V 15 h -29 -29 v 30 30 h 29 29 z m 58,0 V 15 h -28 -28 v 30 30 h 28 28 z M 11,298 V 9 H 287 563 V 298 587 H 287 11 Z" />
    <g
       id="g1561">
      <path
         style="fill:#9fc5e8;fill-opacity:1"
         d="M 75,45 V 15 H 46 17 v 30 30 h 29 29 z"
         id="path1534" />
      <path
         style="fill:#9fc5e8;fill-opacity:1"
         d="M 137,107 V 77 H 107 77 v 30 30 h 30 30 z"
         id="path1518" />
      <path
         style="fill:#9fc5e8;fill-opacity:1"
         d="m 197,170 v -31 h -29 -29 v 31 31 h 29 29 z"
         id="path1502" />
      <path
         style="fill:#9fc5e8;fill-opacity:1"
         d="m 259,236 v -29 h -28 -28 v 29 29 h 28 28 z"
         id="path1486" />
      <path
         style="fill:#9fc5e8;fill-opacity:1"
         d="m 319,297 v -30 h -29 -29 v 30 30 h 29 29 z"
         id="path1470" />
      <path
         style="fill:#9fc5e8;fill-opacity:1"
         d="m 377,360 v -31 h -28 -28 v 31 31 h 28 28 z"
         id="path1454" />
      <path
         style="fill:#9fc5e8;fill-opacity:1"
         d="m 439,427 v -30 h -28 -28 v 30 30 h 28 28 z"
         id="path1438" />
      <path
         style="fill:#9fc5e8;fill-opacity:1"
         d="m 499,489 v -30 h -29 -29 v 30 30 h 29 29 z"
         id="path1422" />
      <path
         style="fill:#9fc5e8;fill-opacity:1"
         d="m 557,551 v -30 h -28 -28 v 30 30 h 28 28 z"
         id="path1406" />
    </g>
    <text
       xml:space="preserve"
       id="text849"
       style="font-style:normal;font-variant:normal;font-weight:normal;font-stretch:normal;font-size:38.6667px;line-height:1.55;font-family:'Source Sans Pro';-inkscape-font-specification:'Source Sans Pro, Normal';font-variant-ligatures:normal;font-variant-caps:normal;font-variant-numeric:normal;font-feature-settings:normal;text-align:center;letter-spacing:0px;word-spacing:0px;writing-mode:lr-tb;white-space:pre;shape-inside:url(#rect851);fill:#000000;fill-opacity:1;stroke:none"
       x="8.2200003"
       y="0"><tspan
         x="33.708974"
         y="118.07681"><tspan
           style="font-style:normal;font-variant:normal;font-weight:normal;font-stretch:normal;font-size:38.6667px;font-family:Verdana;-inkscape-font-specification:Verdana;text-align:center;text-anchor:middle">7</tspan></tspan></text>
    <text
       xml:space="preserve"
       id="text908"
       style="font-style:normal;font-variant:normal;font-weight:normal;font-stretch:normal;font-size:40px;line-height:1.25;font-family:'Source Sans Pro';-inkscape-font-specification:'Source Sans Pro, Normal';font-variant-ligatures:normal;font-variant-caps:normal;font-variant-numeric:normal;font-feature-settings:normal;text-align:start;letter-spacing:0px;word-spacing:0px;writing-mode:lr-tb;white-space:pre;shape-inside:url(#rect910);fill:#000000;fill-opacity:1;stroke:none" />
    <text
       xml:space="preserve"
       id="text948"
       style="font-size:40px;line-height:159.3;font-family:Verdana;-inkscape-font-specification:'Verdana, Normal';letter-spacing:0px;word-spacing:0px;writing-mode:lr-tb;white-space:pre;shape-inside:url(#rect950);"><tspan
         style="visibility:hidden"
         x="77"
         y="3272.4933"><tspan>9</tspan></tspan></text>
    <text
       xml:space="preserve"
       id="text954"
       style="font-size:40px;line-height:159.3;font-family:Verdana;-inkscape-font-specification:'Verdana, Normal';letter-spacing:0px;word-spacing:0px;writing-mode:lr-tb;white-space:pre;shape-inside:url(#rect956);" />
    <text
       xml:space="preserve"
       id="text966"
       style="font-size:38.6667px;line-height:1.55;font-family:Verdana;-inkscape-font-specification:'Verdana, Normal';text-align:center;letter-spacing:0px;word-spacing:0px;writing-mode:lr-tb;white-space:pre;shape-inside:url(#rect968)"
       x="26.092449"
       y="0"><tspan
         x="77.376929"
         y="56.076805"><tspan
           style="font-size:38.6667px;text-align:center;text-anchor:middle">9</tspan><tspan
           style="font-size:38.6667px;text-align:center;text-anchor:middle">♆</tspan></tspan></text>
    <text
       xml:space="preserve"
       id="text972"
       style="font-size:38.6667px;line-height:1.55;font-family:Verdana;-inkscape-font-specification:'Verdana, Normal';text-align:center;letter-spacing:0px;word-spacing:0px;writing-mode:lr-tb;white-space:pre;shape-inside:url(#rect974)"
       x="10.856129"
       y="0"><tspan
         x="153.83983"
         y="56.076805"><tspan
           style="text-align:center;text-anchor:middle">⛢</tspan></tspan></text>
    <text
       xml:space="preserve"
       id="text978"
       style="font-size:38.6667px;line-height:1.55;font-family:Verdana;-inkscape-font-specification:'Verdana, Normal';text-align:center;letter-spacing:0px;word-spacing:0px;writing-mode:lr-tb;white-space:pre;shape-inside:url(#rect980)"
       x="9.5156326"
       y="0"><tspan
         x="336.70897"
         y="56.076805"><tspan
           style="text-align:center;text-anchor:middle">2</tspan></tspan></text>
    <text
       xml:space="preserve"
       id="text984"
       style="font-size:38.6667px;line-height:1.55;font-family:Verdana;-inkscape-font-specification:'Verdana, Normal';text-align:center;letter-spacing:0px;word-spacing:0px;writing-mode:lr-tb;white-space:pre;shape-inside:url(#rect986)"
       x="9.9498777"
       y="0"><tspan
         x="457.70897"
         y="56.076805"><tspan
           style="text-align:center;text-anchor:middle">6</tspan></tspan></text>
    <text
       xml:space="preserve"
       id="text990"
       style="font-size:38.6667px;line-height:1.55;font-family:Verdana;-inkscape-font-specification:'Verdana, Normal';text-align:center;letter-spacing:0px;word-spacing:0px;writing-mode:lr-tb;white-space:pre;shape-inside:url(#rect992)"
       x="7.6087303"
       y="0"><tspan
         x="516.70897"
         y="56.076805"><tspan
           style="text-align:center;text-anchor:middle">1</tspan></tspan></text>
    <text
       xml:space="preserve"
       id="text996"
       style="font-size:38.6667px;line-height:1.55;font-family:Verdana;-inkscape-font-specification:'Verdana, Normal';text-align:center;letter-spacing:0px;word-spacing:0px;writing-mode:lr-tb;white-space:pre;shape-inside:url(#rect998)"
       x="9.5156326"
       y="0"><tspan
         x="398.70897"
         y="118.07681"><tspan
           style="text-align:center;text-anchor:middle">2</tspan></tspan></text>
    <text
       xml:space="preserve"
       id="text1002"
       style="font-size:38.6667px;line-height:1.55;font-family:Verdana;-inkscape-font-specification:'Verdana, Normal';text-align:center;letter-spacing:0px;word-spacing:0px;writing-mode:lr-tb;white-space:pre;shape-inside:url(#rect1004)"
       x="10.856129"
       y="0"><tspan
         x="396.83983"
         y="180.07681"><tspan
           style="text-align:center;text-anchor:middle">⛢</tspan></tspan></text>
    <text
       xml:space="preserve"
       id="text1008"
       style="font-size:38.6667px;line-height:1.55;font-family:Verdana;-inkscape-font-specification:'Verdana, Normal';text-align:center;letter-spacing:0px;word-spacing:0px;writing-mode:lr-tb;white-space:pre;shape-inside:url(#rect1010)"
       x="9.9498777"
       y="0"><tspan
         x="457.70897"
         y="180.07681"><tspan
           style="text-align:center;text-anchor:middle">9</tspan></tspan></text>
    <text
       xml:space="preserve"
       id="text1014"
       style="font-size:38.6667px;line-height:1.55;font-family:Verdana;-inkscape-font-specification:'Verdana, Normal';text-align:center;letter-spacing:0px;word-spacing:0px;writing-mode:lr-tb;white-space:pre;shape-inside:url(#rect1016)"
       x="9.9498777"
       y="0"><tspan
         x="277.70897"
         y="180.07681"><tspan
           style="text-align:center;text-anchor:middle">6</tspan></tspan></text>
    <text
       xml:space="preserve"
       id="text1020"
       style="font-size:38.6667px;line-height:1.55;font-family:Verdana;-inkscape-font-specification:'Verdana, Normal';text-align:center;letter-spacing:0px;word-spacing:0px;writing-mode:lr-tb;white-space:pre;shape-inside:url(#rect1022)"
       x="9.9876385"
       y="0"><tspan
         x="277.70897"
         y="118.07681"><tspan
           style="text-align:center;text-anchor:middle">8</tspan></tspan></text>
    <text
       xml:space="preserve"
       id="text1026"
       style="font-size:38.6667px;line-height:1.55;font-family:Verdana;-inkscape-font-specification:'Verdana, Normal';text-align:center;letter-spacing:0px;word-spacing:0px;writing-mode:lr-tb;white-space:pre;shape-inside:url(#rect1028)"
       x="10.629566"
       y="0"><tspan
         x="155.70897"
         y="118.07681"><tspan
           style="text-align:center;text-anchor:middle">4</tspan></tspan></text>
    <text
       xml:space="preserve"
       id="text1032"
       style="font-size:38.6667px;line-height:1.25;font-family:Verdana;-inkscape-font-specification:'Verdana, Normal';letter-spacing:0px;word-spacing:0px;writing-mode:lr-tb;white-space:pre;shape-inside:url(#rect1034);" />
    <text
       xml:space="preserve"
       id="text1038"
       style="font-size:38.6667px;line-height:1.25;font-family:Verdana;-inkscape-font-specification:'Verdana, Normal';letter-spacing:0px;word-spacing:0px;writing-mode:lr-tb;white-space:pre;shape-inside:url(#rect1040);" />
    <text
       xml:space="preserve"
       id="text1044"
       style="font-size:38.6667px;line-height:1.55;font-family:Verdana;-inkscape-font-specification:'Verdana, Normal';text-align:center;letter-spacing:0px;word-spacing:0px;writing-mode:lr-tb;white-space:pre;shape-inside:url(#rect1046)"
       x="10.629566"
       y="0"><tspan
         x="33.708974"
         y="248.07681"><tspan
           style="text-align:center;text-anchor:middle">4</tspan></tspan></text>
    <text
       xml:space="preserve"
       id="text1050"
       style="font-size:38.6667px;line-height:1.55;font-family:Verdana;-inkscape-font-specification:'Verdana, Normal';text-align:center;letter-spacing:0px;word-spacing:0px;writing-mode:lr-tb;white-space:pre;shape-inside:url(#rect1052)"
       x="9.9498777"
       y="0"><tspan
         x="33.708974"
         y="308.07681"><tspan
           style="text-align:center;text-anchor:middle">9</tspan></tspan></text>
    <text
       xml:space="preserve"
       id="text1056"
       style="font-size:38.6667px;line-height:1.55;font-family:Verdana;-inkscape-font-specification:'Verdana, Normal';text-align:center;letter-spacing:0px;word-spacing:0px;writing-mode:lr-tb;white-space:pre;shape-inside:url(#rect1058)"
       x="9.5156326"
       y="0"><tspan
         x="94.708974"
         y="370.07681"><tspan
           style="text-align:center;text-anchor:middle">2</tspan></tspan></text>
    <text
       xml:space="preserve"
       id="text1062"
       style="font-size:38.6667px;line-height:1.25;font-family:Verdana;-inkscape-font-specification:'Verdana, Normal';letter-spacing:0px;word-spacing:0px;writing-mode:lr-tb;white-space:pre;shape-inside:url(#rect1064);" />
    <text
       xml:space="preserve"
       id="text1068"
       style="font-size:38.6667px;line-height:1.55;font-family:Verdana;-inkscape-font-specification:'Verdana, Normal';text-align:center;letter-spacing:0px;word-spacing:0px;writing-mode:lr-tb;white-space:pre;shape-inside:url(#rect1070)"
       x="9.9498777"
       y="0"><tspan
         x="155.70897"
         y="438.07681"><tspan
           style="text-align:center;text-anchor:middle">6</tspan></tspan></text>
    <text
       xml:space="preserve"
       id="text1074"
       style="font-size:38.6667px;line-height:1.25;font-family:Verdana;-inkscape-font-specification:'Verdana, Normal';letter-spacing:0px;word-spacing:0px;writing-mode:lr-tb;white-space:pre;shape-inside:url(#rect1076);" />
    <text
       xml:space="preserve"
       id="text1080"
       style="font-size:38.6667px;line-height:1.55;font-family:Verdana;-inkscape-font-specification:'Verdana, Normal';text-align:center;letter-spacing:0px;word-spacing:0px;writing-mode:lr-tb;white-space:pre;shape-inside:url(#rect1082)"
       x="10.629566"
       y="0"><tspan
         x="218.70897"
         y="438.07681"><tspan
           style="text-align:center;text-anchor:middle">4</tspan></tspan></text>
    <text
       xml:space="preserve"
       id="text1086"
       style="font-size:38.6667px;line-height:1.55;font-family:Verdana;-inkscape-font-specification:'Verdana, Normal';text-align:center;letter-spacing:0px;word-spacing:0px;writing-mode:lr-tb;white-space:pre;shape-inside:url(#rect1088)"
       x="9.6194744"
       y="0"><tspan
         x="218.70897"
         y="370.07681"><tspan
           style="text-align:center;text-anchor:middle">7</tspan></tspan></text>
    <text
       xml:space="preserve"
       id="text1092"
       style="font-size:38.6667px;line-height:1.25;font-family:Verdana;-inkscape-font-specification:'Verdana, Normal';letter-spacing:0px;word-spacing:0px;writing-mode:lr-tb;white-space:pre;shape-inside:url(#rect1094);" />
    <text
       xml:space="preserve"
       id="text1098"
       style="font-size:38.6667px;line-height:1.55;font-family:Verdana;-inkscape-font-specification:'Verdana, Normal';text-align:center;letter-spacing:0px;word-spacing:0px;writing-mode:lr-tb;white-space:pre;shape-inside:url(#rect1100)"
       x="9.2607498"
       y="0"><tspan
         x="218.70897"
         y="180.07681"><tspan
           style="text-align:center;text-anchor:middle">3</tspan></tspan></text>
    <text
       xml:space="preserve"
       id="text1104"
       style="font-size:38.6667px;line-height:1.55;font-family:Verdana;-inkscape-font-specification:'Verdana, Normal';text-align:center;letter-spacing:0px;word-spacing:0px;writing-mode:lr-tb;white-space:pre;shape-inside:url(#rect1106)"
       x="9.9498777"
       y="0"><tspan
         x="336.70897"
         y="248.07681"><tspan
           style="text-align:center;text-anchor:middle">6</tspan></tspan></text>
    <text
       xml:space="preserve"
       id="text1110"
       style="font-size:38.6667px;line-height:1.55;font-family:Verdana;-inkscape-font-specification:'Verdana, Normal';text-align:center;letter-spacing:0px;word-spacing:0px;writing-mode:lr-tb;white-space:pre;shape-inside:url(#rect1112)"
       x="9.5156326"
       y="0"><tspan
         x="457.70897"
         y="308.07681"><tspan
           style="text-align:center;text-anchor:middle">2</tspan></tspan></text>
    <text
       xml:space="preserve"
       id="text1116"
       style="font-size:37.3333px;line-height:1.55;font-family:Verdana;-inkscape-font-specification:'Verdana, Normal';text-align:center;letter-spacing:0px;word-spacing:0px;writing-mode:lr-tb;white-space:pre;shape-inside:url(#rect1118)"
       x="10.629566"
       y="0"><tspan
         x="383.39846"
         y="306.6603"><tspan
           style="font-size:37.3333px;text-align:center;text-anchor:middle">4</tspan><tspan
           style="font-size:37.3333px;text-align:center;text-anchor:middle">♃</tspan></tspan></text>
    <text
       xml:space="preserve"
       id="text1122"
       style="font-size:38.6667px;line-height:1.55;font-family:Verdana;-inkscape-font-specification:'Verdana, Normal';text-align:center;letter-spacing:0px;word-spacing:0px;writing-mode:lr-tb;white-space:pre;shape-inside:url(#rect1124)"
       x="7.6087303"
       y="0"><tspan
         x="457.70897"
         y="370.07681"><tspan
           style="text-align:center;text-anchor:middle">1</tspan></tspan></text>
    <text
       xml:space="preserve"
       id="text1128"
       style="font-size:38.6667px;line-height:1.55;font-family:Verdana;-inkscape-font-specification:'Verdana, Normal';text-align:center;letter-spacing:0px;word-spacing:0px;writing-mode:lr-tb;white-space:pre;shape-inside:url(#rect1130)"
       x="10.856129"
       y="0"><tspan
         x="334.83983"
         y="438.07681"><tspan
           style="text-align:center;text-anchor:middle">⛢</tspan></tspan></text>
    <text
       xml:space="preserve"
       id="text1134"
       style="font-size:38.6667px;line-height:1.55;font-family:Verdana;-inkscape-font-specification:'Verdana, Normal';text-align:center;letter-spacing:0px;word-spacing:0px;writing-mode:lr-tb;white-space:pre;shape-inside:url(#rect1136)"
       x="9.156909"
       y="0"><tspan
         x="398.70897"
         y="500.07681"><tspan
           style="text-align:center;text-anchor:middle">5</tspan></tspan></text>
    <text
       xml:space="preserve"
       id="text1140"
       style="font-size:38.6667px;line-height:1.55;font-family:Verdana;-inkscape-font-specification:'Verdana, Normal';text-align:center;letter-spacing:0px;word-spacing:0px;writing-mode:lr-tb;white-space:pre;shape-inside:url(#rect1142)"
       x="9.6194744"
       y="0"><tspan
         x="457.70897"
         y="562.07681"><tspan
           style="text-align:center;text-anchor:middle">7</tspan></tspan></text>
    <text
       xml:space="preserve"
       id="text1146"
       style="font-size:37.3333px;line-height:1.55;font-family:Verdana;-inkscape-font-specification:'Verdana, Normal';text-align:center;letter-spacing:0px;word-spacing:0px;writing-mode:lr-tb;white-space:pre;shape-inside:url(#rect1148)"
       x="22.640625"
       y="0"><tspan
         x="261.39846"
         y="498.6603"><tspan
           style="font-size:37.3333px;text-align:center;text-anchor:middle">2</tspan><tspan
           style="font-size:37.3333px;text-align:center;text-anchor:middle">♇</tspan></tspan></text>
    <text
       xml:space="preserve"
       id="text1152"
       style="font-size:38.6667px;line-height:1.55;font-family:Verdana;-inkscape-font-specification:'Verdana, Normal';text-align:center;letter-spacing:0px;word-spacing:0px;writing-mode:lr-tb;white-space:pre;shape-inside:url(#rect1154)"
       x="9.2607498"
       y="0"><tspan
         x="155.70897"
         y="562.07681"><tspan
           style="text-align:center;text-anchor:middle">3</tspan></tspan></text>
    <text
       xml:space="preserve"
       id="text1158"
       style="font-size:38.6667px;line-height:1.55;font-family:Verdana;-inkscape-font-specification:'Verdana, Normal';text-align:center;letter-spacing:0px;word-spacing:0px;writing-mode:lr-tb;white-space:pre;shape-inside:url(#rect1160)"
       x="7.6087303"
       y="0"><tspan
         x="33.708974"
         y="562.07681"><tspan
           style="text-align:center;text-anchor:middle">1</tspan></tspan></text>
    <text
       xml:space="preserve"
       id="text1164"
       style="font-size:38.6667px;line-height:1.55;font-family:Verdana;-inkscape-font-specification:'Verdana, Normal';text-align:center;letter-spacing:0px;word-spacing:0px;writing-mode:lr-tb;white-space:pre;shape-inside:url(#rect1166)"
       x="9.2607498"
       y="0"><tspan
         x="277.70897"
         y="370.07681"><tspan
           style="text-align:center;text-anchor:middle">3</tspan></tspan></text>
    <text
       xml:space="preserve"
       id="text1170"
       style="font-size:38.6667px;line-height:1.55;font-family:Verdana;-inkscape-font-specification:'Verdana, Normal';text-align:center;letter-spacing:0px;word-spacing:0px;writing-mode:lr-tb;white-space:pre;shape-inside:url(#rect1172)"
       x="23.203777"
       y="0"><tspan
         x="502.36716"
         y="118.07681"><tspan
           style="font-size:38.6667px;text-align:center;text-anchor:middle">5</tspan><tspan
           style="font-size:38.6667px;text-align:center;text-anchor:middle">♇</tspan></tspan></text>
    <text
       xml:space="preserve"
       id="text1176"
       style="font-size:38.6667px;line-height:1.55;font-family:Verdana;-inkscape-font-specification:'Verdana, Normal';text-align:center;letter-spacing:0px;word-spacing:0px;writing-mode:lr-tb;white-space:pre;shape-inside:url(#rect1178)"
       x="14.528333"
       y="0"><tspan
         x="393.66795"
         y="56.076805"><tspan
           style="text-align:center;text-anchor:middle">♂</tspan></tspan></text>
    <text
       xml:space="preserve"
       id="text1182"
       style="font-size:38.6667px;line-height:1.55;font-family:Verdana;-inkscape-font-specification:'Verdana, Normal';text-align:center;letter-spacing:0px;word-spacing:0px;writing-mode:lr-tb;white-space:pre;shape-inside:url(#rect1184)"
       x="14.528333"
       y="0"><tspan
         x="331.66795"
         y="118.07681"><tspan
           style="text-align:center;text-anchor:middle">♂</tspan></tspan></text>
    <text
       xml:space="preserve"
       id="text1188"
       style="font-size:38.6667px;line-height:1.55;font-family:Verdana;-inkscape-font-specification:'Verdana, Normal';text-align:center;letter-spacing:0px;word-spacing:0px;writing-mode:lr-tb;white-space:pre;shape-inside:url(#rect1190)"
       x="14.528333"
       y="0"><tspan
         x="150.66795"
         y="308.07681"><tspan
           style="text-align:center;text-anchor:middle">♂</tspan></tspan></text>
    <text
       xml:space="preserve"
       id="text1194"
       style="font-size:38.6667px;line-height:1.55;font-family:Verdana;-inkscape-font-specification:'Verdana, Normal';text-align:center;letter-spacing:0px;word-spacing:0px;writing-mode:lr-tb;white-space:pre;shape-inside:url(#rect1196)"
       x="14.528333"
       y="0"><tspan
         x="28.667955"
         y="438.07681"><tspan
           style="text-align:center;text-anchor:middle">♂</tspan></tspan></text>
    <text
       xml:space="preserve"
       id="text1200"
       style="font-size:38.6667px;line-height:1.55;font-family:Verdana;-inkscape-font-specification:'Verdana, Normal';text-align:center;letter-spacing:0px;word-spacing:0px;writing-mode:lr-tb;white-space:pre;shape-inside:url(#rect1202)"
       x="10.856129"
       y="0"><tspan
         x="92.839832"
         y="248.07681"><tspan
           style="text-align:center;text-anchor:middle">♀</tspan></tspan></text>
    <text
       xml:space="preserve"
       id="text1206"
       style="font-size:38.6667px;line-height:1.55;font-family:Verdana;-inkscape-font-specification:'Verdana, Normal';text-align:center;letter-spacing:0px;word-spacing:0px;writing-mode:lr-tb;white-space:pre;shape-inside:url(#rect1208)"
       x="10.856129"
       y="0"><tspan
         x="216.83983"
         y="562.07681"><tspan
           style="text-align:center;text-anchor:middle">♀</tspan></tspan></text>
    <text
       xml:space="preserve"
       id="text1212"
       style="font-size:38.6667px;line-height:1.55;font-family:Verdana;-inkscape-font-specification:'Verdana, Normal';text-align:center;letter-spacing:0px;word-spacing:0px;writing-mode:lr-tb;white-space:pre;shape-inside:url(#rect1214)"
       x="10.856129"
       y="0"><tspan
         x="396.83983"
         y="370.07681"><tspan
           style="text-align:center;text-anchor:middle">♀</tspan></tspan></text>
    <text
       xml:space="preserve"
       id="text1218"
       style="font-size:38.6667px;line-height:1.55;font-family:Verdana;-inkscape-font-specification:'Verdana, Normal';text-align:center;letter-spacing:0px;word-spacing:0px;writing-mode:lr-tb;white-space:pre;shape-inside:url(#rect1220)"
       x="10.856129"
       y="0"><tspan
         x="334.83983"
         y="180.07681"><tspan
           style="text-align:center;text-anchor:middle">♀</tspan></tspan></text>
    <text
       xml:space="preserve"
       id="text1224"
       style="font-size:38.6667px;line-height:1.55;font-family:Verdana;-inkscape-font-specification:'Verdana, Normal';text-align:center;letter-spacing:0px;word-spacing:0px;writing-mode:lr-tb;white-space:pre;shape-inside:url(#rect1226)"
       x="8.5621815"
       y="0"><tspan
         x="34.133779"
         y="180.07681"><tspan
           style="text-align:center;text-anchor:middle">☿</tspan></tspan></text>
    <text
       xml:space="preserve"
       id="text1230"
       style="font-size:38.6667px;line-height:1.55;font-family:Verdana;-inkscape-font-specification:'Verdana, Normal';text-align:center;letter-spacing:0px;word-spacing:0px;writing-mode:lr-tb;white-space:pre;shape-inside:url(#rect1232)"
       x="8.5621815"
       y="0"><tspan
         x="156.13378"
         y="370.07681"><tspan
           style="text-align:center;text-anchor:middle">☿</tspan></tspan></text>
    <text
       xml:space="preserve"
       id="text1236"
       style="font-size:38.6667px;line-height:1.55;font-family:Verdana;-inkscape-font-specification:'Verdana, Normal';text-align:center;letter-spacing:0px;word-spacing:0px;writing-mode:lr-tb;white-space:pre;shape-inside:url(#rect1238)"
       x="8.033535"
       y="0"><tspan
         x="89.667955"
         y="562.07681"><tspan
           style="text-align:center;text-anchor:middle">♇</tspan></tspan></text>
    <text
       xml:space="preserve"
       id="text1242"
       style="font-size:38.6667px;line-height:1.55;font-family:Verdana;-inkscape-font-specification:'Verdana, Normal';text-align:center;letter-spacing:0px;word-spacing:0px;writing-mode:lr-tb;white-space:pre;shape-inside:url(#rect1244)"
       x="8.033535"
       y="0"><tspan
         x="393.66795"
         y="248.07681"><tspan
           style="text-align:center;text-anchor:middle">♇</tspan></tspan></text>
    <text
       xml:space="preserve"
       id="text1248"
       style="font-size:38.6667px;line-height:1.55;font-family:Verdana;-inkscape-font-specification:'Verdana, Normal';text-align:center;letter-spacing:0px;word-spacing:0px;writing-mode:lr-tb;white-space:pre;shape-inside:url(#rect1250)"
       x="8.5621815"
       y="0"><tspan
         x="517.13378"
         y="248.07681"><tspan
           style="text-align:center;text-anchor:middle">☿</tspan></tspan></text>
    <text
       xml:space="preserve"
       id="text1254"
       style="font-size:38.6667px;line-height:1.55;font-family:Verdana;-inkscape-font-specification:'Verdana, Normal';text-align:center;letter-spacing:0px;word-spacing:0px;writing-mode:lr-tb;white-space:pre;shape-inside:url(#rect1256)"
       x="8.033535"
       y="0"><tspan
         x="28.667955"
         y="370.07681"><tspan
           style="text-align:center;text-anchor:middle">♇</tspan></tspan></text>
    <text
       xml:space="preserve"
       id="text1260"
       style="font-size:38.6667px;line-height:1.55;font-family:Verdana;-inkscape-font-specification:'Verdana, Normal';text-align:center;letter-spacing:0px;word-spacing:0px;writing-mode:lr-tb;white-space:pre;shape-inside:url(#rect1262)"
       x="8.854825"
       y="0"><tspan
         x="150.66795"
         y="500.07681"><tspan
           style="text-align:center;text-anchor:middle">♄</tspan></tspan></text>
    <text
       xml:space="preserve"
       id="text1266"
       style="font-size:38.6667px;line-height:1.55;font-family:Verdana;-inkscape-font-specification:'Verdana, Normal';text-align:center;letter-spacing:0px;word-spacing:0px;writing-mode:lr-tb;white-space:pre;shape-inside:url(#rect1268)"
       x="8.854825"
       y="0"><tspan
         x="272.66795"
         y="438.07681"><tspan
           style="text-align:center;text-anchor:middle">♄</tspan></tspan></text>
    <text
       xml:space="preserve"
       id="text1272"
       style="font-size:38.6667px;line-height:1.55;font-family:Verdana;-inkscape-font-specification:'Verdana, Normal';text-align:center;letter-spacing:0px;word-spacing:0px;writing-mode:lr-tb;white-space:pre;shape-inside:url(#rect1274)"
       x="8.854825"
       y="0"><tspan
         x="213.66795"
         y="118.07681"><tspan
           style="text-align:center;text-anchor:middle">♄</tspan></tspan></text>
    <text
       xml:space="preserve"
       id="text1278"
       style="font-size:38.6667px;line-height:1.55;font-family:Verdana;-inkscape-font-specification:'Verdana, Normal';text-align:center;letter-spacing:0px;word-spacing:0px;writing-mode:lr-tb;white-space:pre;shape-inside:url(#rect1280)"
       x="8.854825"
       y="0"><tspan
         x="511.66795"
         y="180.07681"><tspan
           style="text-align:center;text-anchor:middle">♄</tspan></tspan></text>
    <text
       xml:space="preserve"
       id="text1284"
       style="font-size:38.6667px;line-height:1.55;font-family:Verdana;-inkscape-font-specification:'Verdana, Normal';text-align:center;letter-spacing:0px;word-spacing:0px;writing-mode:lr-tb;white-space:pre;shape-inside:url(#rect1286)"
       x="12.413747"
       y="0"><tspan
         x="272.66795"
         y="248.07681"><tspan
           style="text-align:center;text-anchor:middle">♆</tspan></tspan></text>
    <text
       xml:space="preserve"
       id="text1290"
       style="font-size:38.6667px;line-height:1.55;font-family:Verdana;-inkscape-font-specification:'Verdana, Normal';text-align:center;letter-spacing:0px;word-spacing:0px;writing-mode:lr-tb;white-space:pre;shape-inside:url(#rect1292)"
       x="12.668631"
       y="0"><tspan
         x="90.800768"
         y="308.07681"><tspan
           style="text-align:center;text-anchor:middle">⊕</tspan></tspan></text>
    <text
       xml:space="preserve"
       id="text1296"
       style="font-size:38.6667px;line-height:1.55;font-family:Verdana;-inkscape-font-specification:'Verdana, Normal';text-align:center;letter-spacing:0px;word-spacing:0px;writing-mode:lr-tb;white-space:pre;shape-inside:url(#rect1298)"
       x="12.668631"
       y="0"><tspan
         x="512.80077"
         y="370.07681"><tspan
           style="text-align:center;text-anchor:middle">⊕</tspan></tspan></text>
    <text
       xml:space="preserve"
       id="text1302"
       style="font-size:38.6667px;line-height:1.55;font-family:Verdana;-inkscape-font-specification:'Verdana, Normal';text-align:center;letter-spacing:0px;word-spacing:0px;writing-mode:lr-tb;white-space:pre;shape-inside:url(#rect1304)"
       x="12.668631"
       y="0"><tspan
         x="332.80077"
         y="500.07681"><tspan
           style="text-align:center;text-anchor:middle">⊕</tspan></tspan></text>
    <text
       xml:space="preserve"
       id="text1308"
       style="font-size:38.6667px;line-height:159.3%;font-family:Verdana;-inkscape-font-specification:'Verdana, Normal';letter-spacing:0px;word-spacing:0px;writing-mode:lr-tb;white-space:pre;shape-inside:url(#rect1310);" />
    <text
       xml:space="preserve"
       id="text1314"
       style="font-size:38.6667px;line-height:1.55;font-family:Verdana;-inkscape-font-specification:'Verdana, Normal';letter-spacing:0px;word-spacing:0px;writing-mode:lr-tb;white-space:pre;shape-inside:url(#rect1316);" />
    <text
       xml:space="preserve"
       id="text1356"
       style="font-size:38.6667px;line-height:1.55;font-family:Verdana;-inkscape-font-specification:'Verdana, Normal';text-align:center;letter-spacing:0px;word-spacing:0px;writing-mode:lr-tb;white-space:pre;shape-inside:url(#rect1358)"
       x="8.5621815"
       y="0"><tspan
         x="219.13378"
         y="308.07681"><tspan
           style="text-align:center;text-anchor:middle">☿</tspan></tspan></text>
  </g>
</svg>
