<?xml version="1.0" encoding="UTF-8" standalone="no"?>
<svg
   width="467.83749mm"
   height="206.82193mm"
   viewBox="0 0 467.83749 206.82193"
   version="1.1"
   id="svg1038"
   sodipodi:docname="vysoka.svg"
   inkscape:version="1.1 (c4e8f9ed74, 2021-05-24)"
   xmlns:inkscape="http://www.inkscape.org/namespaces/inkscape"
   xmlns:sodipodi="http://sodipodi.sourceforge.net/DTD/sodipodi-0.dtd"
   xmlns="http://www.w3.org/2000/svg"
   xmlns:svg="http://www.w3.org/2000/svg"
   xmlns:rdf="http://www.w3.org/1999/02/22-rdf-syntax-ns#"
   xmlns:cc="http://creativecommons.org/ns#"
   xmlns:dc="http://purl.org/dc/elements/1.1/">
  <sodipodi:namedview
     id="namedview142"
     pagecolor="#ffffff"
     bordercolor="#999999"
     borderopacity="1"
     inkscape:pageshadow="0"
     inkscape:pageopacity="0"
     inkscape:pagecheckerboard="0"
     inkscape:document-units="mm"
     showgrid="false"
     inkscape:zoom="0.50542495"
     inkscape:cx="773.60645"
     inkscape:cy="481.77281"
     inkscape:window-width="1366"
     inkscape:window-height="726"
     inkscape:window-x="0"
     inkscape:window-y="0"
     inkscape:window-maximized="1"
     inkscape:current-layer="layer1" />
  <defs
     id="defs1032">
    <rect
       x="-83.291607"
       y="-43.040824"
       width="1335.8035"
       height="1062.4955"
       id="rect19668" />
    <linearGradient
       id="linearGradient24"
       y2="109.87"
       gradientUnits="userSpaceOnUse"
       x2="-0.57810003"
       gradientTransform="matrix(-0.1036,1.5966,1.5966,0.1036,2.2773e-4,161.4)"
       y1="109.87"
       x1="-100.56">
      <stop
         id="stop26"
         style="stop-color:#7563b5"
         offset="0" />
      <stop
         id="stop28"
         style="stop-color:#a6dfc9"
         offset="1" />
    </linearGradient>
  </defs>
  <metadata
     id="metadata1035">
    <rdf:RDF>
      <cc:Work
         rdf:about="">
        <dc:format>image/svg+xml</dc:format>
        <dc:type
           rdf:resource="http://purl.org/dc/dcmitype/StillImage" />
      </cc:Work>
    </rdf:RDF>
  </metadata>
  <g
     id="layer1"
     transform="translate(-151.17095,116.89019)">
    <text
       xml:space="preserve"
       style="font-size:10.9361px;line-height:1.25;font-family:'Minion Pro';-inkscape-font-specification:'Minion Pro';letter-spacing:0px;word-spacing:0px;writing-mode:lr-tb;stroke-width:0.264583"
       x="221.44171"
       y="84.867111"
       id="text103440"><tspan
         id="tspan103438"
         style="stroke-width:0.264583"
         x="221.44171"
         y="84.867111">patriaci osobe, ktorá ťaží kovy pod zemou</tspan></text>
    <text
       xml:space="preserve"
       style="font-size:10.9361px;line-height:1.25;font-family:'Minion Pro';-inkscape-font-specification:'Minion Pro';letter-spacing:0px;word-spacing:0px;writing-mode:lr-tb;stroke-width:0.264583"
       x="226.71274"
       y="61.071663"
       id="text98718"><tspan
         id="tspan98716"
         style="stroke-width:0.264583"
         x="226.71274"
         y="61.071663">Shrek bez dvanásteho písmena abecedy</tspan></text>
    <text
       xml:space="preserve"
       style="font-size:10.9361px;line-height:1.25;font-family:'Minion Pro';-inkscape-font-specification:'Minion Pro';letter-spacing:0px;word-spacing:0px;writing-mode:lr-tb;stroke-width:0.264583"
       x="240.26758"
       y="37.276211"
       id="text96954"><tspan
         id="tspan96952"
         style="stroke-width:0.264583"
         x="240.26758"
         y="37.276211">výborne vidiace mačkovité šelmy</tspan></text>
    <text
       xml:space="preserve"
       style="font-size:10.9361px;line-height:1.25;font-family:'Minion Pro';-inkscape-font-specification:'Minion Pro';letter-spacing:0px;word-spacing:0px;writing-mode:lr-tb;stroke-width:0.264583"
       x="190.41699"
       y="13.480763"
       id="text89140"><tspan
         id="tspan89138"
         style="stroke-width:0.264583"
         x="190.41699"
         y="13.480763">ozdoba hlavy kohútov a sliepok, ktorá má červenú farbu</tspan></text>
    <text
       xml:space="preserve"
       style="font-size:10.9361px;line-height:1.25;font-family:'Minion Pro';-inkscape-font-specification:'Minion Pro';letter-spacing:0px;word-spacing:0px;writing-mode:lr-tb;stroke-width:0.264583"
       x="243.58661"
       y="-10.314686"
       id="text85544"><tspan
         id="tspan85542"
         style="stroke-width:0.264583"
         x="243.58661"
         y="-10.314686">poloha so spustenými kolenami</tspan></text>
    <text
       xml:space="preserve"
       style="font-size:10.9361px;line-height:1.25;font-family:'Minion Pro';-inkscape-font-specification:'Minion Pro';letter-spacing:0px;word-spacing:0px;writing-mode:lr-tb;stroke-width:0.264583"
       x="228.9108"
       y="-34.110134"
       id="text62424"><tspan
         id="tspan62422"
         style="font-size:10.9361px;stroke-width:0.264583"
         x="228.9108"
         y="-34.110134">pšeničný, špaldový alebo aj zemiakový</tspan></text>
    <text
       xml:space="preserve"
       style="font-size:10.9361px;line-height:1.25;font-family:'Minion Pro';-inkscape-font-specification:'Minion Pro';letter-spacing:0px;word-spacing:0px;writing-mode:lr-tb;stroke-width:0.264583"
       x="189.45468"
       y="-57.905582"
       id="text58790"><tspan
         id="tspan58788"
         style="font-size:10.9361px;stroke-width:0.264583"
         x="189.45468"
         y="-57.905582">škaredý výrastok na koži typický pre čarodejnice a strigy</tspan></text>
    <text
       xml:space="preserve"
       style="font-size:10.9361px;line-height:1.25;font-family:'Minion Pro';-inkscape-font-specification:'Minion Pro';letter-spacing:0px;word-spacing:0px;writing-mode:lr-tb;stroke-width:0.264583"
       x="154.15875"
       y="-81.701035"
       id="text35598"><tspan
         id="tspan35596"
         style="font-size:10.9361px;stroke-width:0.264583"
         x="154.15875"
         y="-81.701035"
         dx="0 0 0 0 0 0 0 0 0 0 0 0 0 0 0 0 0 0 0 0 0 0 0 0 0 0 0 0 0 0 0 0 0 0 0 0 0 0 0 0 0 0 0 0 0">bývalý primátor hlavného mesta Bratislava neovplyvnený spodobovaním</tspan></text>
    <text
       xml:space="preserve"
       style="font-size:10.9361px;line-height:1.25;font-family:'Minion Pro';-inkscape-font-specification:'Minion Pro';letter-spacing:0px;word-spacing:0px;writing-mode:lr-tb;stroke-width:0.264583"
       x="199.75612"
       y="-105.49648"
       id="text30556"><tspan
         id="tspan30554"
         style="font-size:10.9361px;stroke-width:0.264583"
         x="199.75612"
         y="-105.49648">rýdzo slovenský názov korenia známeho ako zázvor</tspan></text>
    <g
       id="g10"
       transform="matrix(0.33072917,0,0,-0.33072917,464.31002,-47.161648)"
       style="fill:none;stroke:#000000;stroke-opacity:1">
      <g
         id="g12"
         style="fill:none;stroke:#000000;stroke-width:4.93127;stroke-miterlimit:4;stroke-dasharray:none;stroke-opacity:1"
         transform="matrix(0.29077634,0,0,0.29077634,31.92493,160.16216)">
        <g
           id="g14"
           style="fill:none;stroke:#000000;stroke-width:4.93127;stroke-miterlimit:4;stroke-dasharray:none;stroke-opacity:1">
          <g
             id="g16"
             style="fill:none;stroke:#000000;stroke-width:4.93127;stroke-miterlimit:4;stroke-dasharray:none;stroke-opacity:1">
            <g
               id="g22"
               style="fill:none;stroke:#000000;stroke-width:4.93127;stroke-miterlimit:4;stroke-dasharray:none;stroke-opacity:1">
              <path
                 id="path30"
                 style="fill:none;fill-rule:evenodd;stroke:#000000;stroke-width:4.93127;stroke-linecap:round;stroke-linejoin:round;stroke-miterlimit:4;stroke-dasharray:none;stroke-opacity:1"
                 d="m 0,17.401 c 4.105,5.172 13.973,15.84 29.602,32 15.464,15.945 26.503,28.16 33.117,36.637 8.695,11.363 15.386,19.949 20.082,25.761 8.16,10.078 15.707,18.321 22.64,24.719 18.719,17.176 39.31359,23.51258 58.661,24.883 20.65259,-1.37042 39.942,-7.707 58.661,-24.883 6.933,-6.398 14.48,-14.641 22.64,-24.719 4.696,-5.812 11.387,-14.398 20.082,-25.761 6.614,-8.477 17.653,-20.692 33.117,-36.637 15.629,-16.16 25.497,-26.828 29.602,-32" />
            </g>
          </g>
        </g>
      </g>
      <g
         id="g1758"
         style="fill:none;stroke:#000000;stroke-width:4.93127;stroke-miterlimit:4;stroke-dasharray:none;stroke-opacity:1"
         transform="matrix(0.29077634,0,0,0.29077634,31.92493,88.16215)">
        <g
           id="g1756"
           style="fill:none;stroke:#000000;stroke-width:4.93127;stroke-miterlimit:4;stroke-dasharray:none;stroke-opacity:1">
          <g
             id="g1754"
             style="fill:none;stroke:#000000;stroke-width:4.93127;stroke-miterlimit:4;stroke-dasharray:none;stroke-opacity:1">
            <g
               id="g1752"
               style="fill:none;stroke:#000000;stroke-width:4.93127;stroke-miterlimit:4;stroke-dasharray:none;stroke-opacity:1">
              <path
                 id="path1750"
                 style="fill:none;fill-rule:evenodd;stroke:#000000;stroke-width:4.93127;stroke-linecap:round;stroke-linejoin:round;stroke-miterlimit:4;stroke-dasharray:none;stroke-opacity:1"
                 d="m 0,17.401 c 4.105,5.172 13.973,15.84 29.602,32 15.464,15.945 26.503,28.16 33.117,36.637 8.695,11.363 15.386,19.949 20.082,25.761 8.16,10.078 15.707,18.321 22.64,24.719 18.719,17.176 39.31359,23.51258 58.661,24.883 20.65259,-1.37042 39.942,-7.707 58.661,-24.883 6.933,-6.398 14.48,-14.641 22.64,-24.719 4.696,-5.812 11.387,-14.398 20.082,-25.761 6.614,-8.477 17.653,-20.692 33.117,-36.637 15.629,-16.16 25.497,-26.828 29.602,-32" />
            </g>
          </g>
        </g>
      </g>
      <g
         id="g1768"
         style="fill:none;stroke:#000000;stroke-width:4.93127;stroke-miterlimit:4;stroke-dasharray:none;stroke-opacity:1"
         transform="matrix(0.29077634,0,0,0.29077634,31.92493,16.162168)">
        <g
           id="g1766"
           style="fill:none;stroke:#000000;stroke-width:4.93127;stroke-miterlimit:4;stroke-dasharray:none;stroke-opacity:1">
          <g
             id="g1764"
             style="fill:none;stroke:#000000;stroke-width:4.93127;stroke-miterlimit:4;stroke-dasharray:none;stroke-opacity:1">
            <g
               id="g1762"
               style="fill:none;stroke:#000000;stroke-width:4.93127;stroke-miterlimit:4;stroke-dasharray:none;stroke-opacity:1">
              <path
                 id="path1760"
                 style="fill:none;fill-rule:evenodd;stroke:#000000;stroke-width:4.93127;stroke-linecap:round;stroke-linejoin:round;stroke-miterlimit:4;stroke-dasharray:none;stroke-opacity:1"
                 d="m 0,17.401 c 4.105,5.172 13.973,15.84 29.602,32 15.464,15.945 26.503,28.16 33.117,36.637 8.695,11.363 15.386,19.949 20.082,25.761 8.16,10.078 15.707,18.321 22.64,24.719 18.719,17.176 39.31359,23.51258 58.661,24.883 20.65259,-1.37042 39.942,-7.707 58.661,-24.883 6.933,-6.398 14.48,-14.641 22.64,-24.719 4.696,-5.812 11.387,-14.398 20.082,-25.761 6.614,-8.477 17.653,-20.692 33.117,-36.637 15.629,-16.16 25.497,-26.828 29.602,-32" />
            </g>
          </g>
        </g>
      </g>
      <g
         id="g1778"
         style="fill:none;stroke:#000000;stroke-width:4.93127;stroke-miterlimit:4;stroke-dasharray:none;stroke-opacity:1"
         transform="matrix(0.29077634,0,0,0.29077634,31.92493,-55.837839)">
        <g
           id="g1776"
           style="fill:none;stroke:#000000;stroke-width:4.93127;stroke-miterlimit:4;stroke-dasharray:none;stroke-opacity:1">
          <g
             id="g1774"
             style="fill:none;stroke:#000000;stroke-width:4.93127;stroke-miterlimit:4;stroke-dasharray:none;stroke-opacity:1">
            <g
               id="g1772"
               style="fill:none;stroke:#000000;stroke-width:4.93127;stroke-miterlimit:4;stroke-dasharray:none;stroke-opacity:1">
              <path
                 id="path1770"
                 style="fill:none;fill-rule:evenodd;stroke:#000000;stroke-width:4.93127;stroke-linecap:round;stroke-linejoin:round;stroke-miterlimit:4;stroke-dasharray:none;stroke-opacity:1"
                 d="m 0,17.401 c 4.105,5.172 13.973,15.84 29.602,32 15.464,15.945 26.503,28.16 33.117,36.637 8.695,11.363 15.386,19.949 20.082,25.761 8.16,10.078 15.707,18.321 22.64,24.719 18.719,17.176 39.31359,23.51258 58.661,24.883 20.65259,-1.37042 39.942,-7.707 58.661,-24.883 6.933,-6.398 14.48,-14.641 22.64,-24.719 4.696,-5.812 11.387,-14.398 20.082,-25.761 6.614,-8.477 17.653,-20.692 33.117,-36.637 15.629,-16.16 25.497,-26.828 29.602,-32" />
            </g>
          </g>
        </g>
      </g>
      <g
         id="g1788"
         style="fill:none;stroke:#000000;stroke-width:4.93127;stroke-miterlimit:4;stroke-dasharray:none;stroke-opacity:1"
         transform="matrix(0.29077634,0,0,0.29077634,31.92493,-127.83783)">
        <g
           id="g1786"
           style="fill:none;stroke:#000000;stroke-width:4.93127;stroke-miterlimit:4;stroke-dasharray:none;stroke-opacity:1">
          <g
             id="g1784"
             style="fill:none;stroke:#000000;stroke-width:4.93127;stroke-miterlimit:4;stroke-dasharray:none;stroke-opacity:1">
            <g
               id="g1782"
               style="fill:none;stroke:#000000;stroke-width:4.93127;stroke-miterlimit:4;stroke-dasharray:none;stroke-opacity:1">
              <path
                 id="path1780"
                 style="fill:none;fill-rule:evenodd;stroke:#000000;stroke-width:4.93127;stroke-linecap:round;stroke-linejoin:round;stroke-miterlimit:4;stroke-dasharray:none;stroke-opacity:1"
                 d="m 0,17.401 c 4.105,5.172 13.973,15.84 29.602,32 15.464,15.945 26.503,28.16 33.117,36.637 8.695,11.363 15.386,19.949 20.082,25.761 8.16,10.078 15.707,18.321 22.64,24.719 18.719,17.176 39.31359,23.51258 58.661,24.883 20.65259,-1.37042 39.942,-7.707 58.661,-24.883 6.933,-6.398 14.48,-14.641 22.64,-24.719 4.696,-5.812 11.387,-14.398 20.082,-25.761 6.614,-8.477 17.653,-20.692 33.117,-36.637 15.629,-16.16 25.497,-26.828 29.602,-32" />
            </g>
          </g>
        </g>
      </g>
      <g
         id="g1798"
         style="fill:none;stroke:#000000;stroke-width:4.93127;stroke-miterlimit:4;stroke-dasharray:none;stroke-opacity:1"
         transform="matrix(0.29077634,0,0,0.29077634,367.92493,-199.83783)">
        <g
           id="g1796"
           style="fill:none;stroke:#000000;stroke-width:4.93127;stroke-miterlimit:4;stroke-dasharray:none;stroke-opacity:1">
          <g
             id="g1794"
             style="fill:none;stroke:#000000;stroke-width:4.93127;stroke-miterlimit:4;stroke-dasharray:none;stroke-opacity:1">
            <g
               id="g1792"
               style="fill:none;stroke:#000000;stroke-width:4.93127;stroke-miterlimit:4;stroke-dasharray:none;stroke-opacity:1">
              <path
                 id="path1790"
                 style="fill:none;fill-rule:evenodd;stroke:#000000;stroke-width:4.93127;stroke-linecap:round;stroke-linejoin:round;stroke-miterlimit:4;stroke-dasharray:none;stroke-opacity:1"
                 d="m 0,17.401 c 4.105,5.172 13.973,15.84 29.602,32 15.464,15.945 26.503,28.16 33.117,36.637 8.695,11.363 15.386,19.949 20.082,25.761 8.16,10.078 15.707,18.321 22.64,24.719 18.719,17.176 39.31359,23.51258 58.661,24.883 20.65259,-1.37042 39.942,-7.707 58.661,-24.883 6.933,-6.398 14.48,-14.641 22.64,-24.719 4.696,-5.812 11.387,-14.398 20.082,-25.761 6.614,-8.477 17.653,-20.692 33.117,-36.637 15.629,-16.16 25.497,-26.828 29.602,-32" />
            </g>
          </g>
        </g>
      </g>
      <g
         id="g1808"
         style="fill:none;stroke:#000000;stroke-width:4.93127;stroke-miterlimit:4;stroke-dasharray:none;stroke-opacity:1"
         transform="matrix(0.29077634,0,0,0.29077634,31.92493,-271.83784)">
        <g
           id="g1806"
           style="fill:none;stroke:#000000;stroke-width:4.93127;stroke-miterlimit:4;stroke-dasharray:none;stroke-opacity:1">
          <g
             id="g1804"
             style="fill:none;stroke:#000000;stroke-width:4.93127;stroke-miterlimit:4;stroke-dasharray:none;stroke-opacity:1">
            <g
               id="g1802"
               style="fill:none;stroke:#000000;stroke-width:4.93127;stroke-miterlimit:4;stroke-dasharray:none;stroke-opacity:1">
              <path
                 id="path1800"
                 style="fill:none;fill-rule:evenodd;stroke:#000000;stroke-width:4.93127;stroke-linecap:round;stroke-linejoin:round;stroke-miterlimit:4;stroke-dasharray:none;stroke-opacity:1"
                 d="m 0,17.401 c 4.105,5.172 13.973,15.84 29.602,32 15.464,15.945 26.503,28.16 33.117,36.637 8.695,11.363 15.386,19.949 20.082,25.761 8.16,10.078 15.707,18.321 22.64,24.719 18.719,17.176 39.31359,23.51258 58.661,24.883 20.65259,-1.37042 39.942,-7.707 58.661,-24.883 6.933,-6.398 14.48,-14.641 22.64,-24.719 4.696,-5.812 11.387,-14.398 20.082,-25.761 6.614,-8.477 17.653,-20.692 33.117,-36.637 15.629,-16.16 25.497,-26.828 29.602,-32" />
            </g>
          </g>
        </g>
      </g>
      <g
         id="g1818"
         style="fill:none;stroke:#000000;stroke-width:4.92886;stroke-miterlimit:4;stroke-dasharray:none;stroke-opacity:1"
         transform="matrix(0.29077634,0,0,0.29077634,143.92458,-343.83783)">
        <g
           id="g1816"
           style="fill:none;stroke:#000000;stroke-width:4.92886;stroke-miterlimit:4;stroke-dasharray:none;stroke-opacity:1">
          <g
             id="g1814"
             style="fill:none;stroke:#000000;stroke-width:4.92886;stroke-miterlimit:4;stroke-dasharray:none;stroke-opacity:1">
            <g
               id="g1812"
               style="fill:none;stroke:#000000;stroke-width:4.92886;stroke-miterlimit:4;stroke-dasharray:none;stroke-opacity:1">
              <path
                 id="path1810"
                 style="fill:none;fill-rule:evenodd;stroke:#000000;stroke-width:4.92886;stroke-linecap:round;stroke-linejoin:round;stroke-miterlimit:4;stroke-dasharray:none;stroke-opacity:1"
                 d="m 0,17.401 c 4.105,5.172 13.973,15.84 29.602,32 15.464,15.945 26.503,28.16 33.117,36.637 8.695,11.363 15.386,19.949 20.082,25.761 8.16,10.078 15.707,18.321 22.64,24.719 18.719,17.176 39.31359,23.51258 58.661,24.883 20.65259,-1.37042 39.942,-7.707 58.661,-24.883 6.933,-6.398 14.48,-14.641 22.64,-24.719 4.696,-5.812 11.387,-14.398 20.082,-25.761 6.614,-8.477 17.653,-20.692 33.117,-36.637 15.629,-16.16 25.497,-26.828 29.602,-32" />
            </g>
          </g>
        </g>
      </g>
      <g
         id="g1828"
         style="fill:none;stroke:#000000;stroke-width:4.1713;stroke-miterlimit:4;stroke-dasharray:none;stroke-opacity:1"
         transform="matrix(0.41168439,0,0,0.28659227,7.1765428,-383.389)">
        <path
           id="path1830"
           style="fill:none;stroke:#000000;stroke-width:4.1713;stroke-linecap:round;stroke-linejoin:round;stroke-miterlimit:4;stroke-dasharray:none;stroke-dashoffset:0.616819;stroke-opacity:1"
           transform="scale(1,-1)"
           d="M 60.467235,92.892644 A 160.2952,217.08139 0 0 1 177.31016,26.669684 160.2952,217.08139 0 0 1 293.17136,95.983929" />
      </g>
      <g
         id="g1840"
         style="fill:none;stroke:#000000;stroke-width:4.92886;stroke-miterlimit:4;stroke-dasharray:none;stroke-opacity:1"
         transform="matrix(0.29077634,0,0,0.29077634,143.92458,16.161818)">
        <g
           id="g1838"
           style="fill:none;stroke:#000000;stroke-width:4.92886;stroke-miterlimit:4;stroke-dasharray:none;stroke-opacity:1">
          <g
             id="g1836"
             style="fill:none;stroke:#000000;stroke-width:4.92886;stroke-miterlimit:4;stroke-dasharray:none;stroke-opacity:1">
            <g
               id="g1834"
               style="fill:none;stroke:#000000;stroke-width:4.92886;stroke-miterlimit:4;stroke-dasharray:none;stroke-opacity:1">
              <path
                 id="path1832"
                 style="fill:none;fill-rule:evenodd;stroke:#000000;stroke-width:4.92886;stroke-linecap:round;stroke-linejoin:round;stroke-miterlimit:4;stroke-dasharray:none;stroke-opacity:1"
                 d="m 0,17.401 c 4.105,5.172 13.973,15.84 29.602,32 15.464,15.945 26.503,28.16 33.117,36.637 8.695,11.363 15.386,19.949 20.082,25.761 8.16,10.078 15.707,18.321 22.64,24.719 18.719,17.176 39.31359,23.51258 58.661,24.883 20.65259,-1.37042 39.942,-7.707 58.661,-24.883 6.933,-6.398 14.48,-14.641 22.64,-24.719 4.696,-5.812 11.387,-14.398 20.082,-25.761 6.614,-8.477 17.653,-20.692 33.117,-36.637 15.629,-16.16 25.497,-26.828 29.602,-32" />
            </g>
          </g>
        </g>
      </g>
      <g
         id="g1850"
         style="fill:none;stroke:#000000;stroke-width:4.92886;stroke-miterlimit:4;stroke-dasharray:none;stroke-opacity:1"
         transform="matrix(0.29077634,0,0,0.29077634,143.92458,160.16181)">
        <g
           id="g1848"
           style="fill:none;stroke:#000000;stroke-width:4.92886;stroke-miterlimit:4;stroke-dasharray:none;stroke-opacity:1">
          <g
             id="g1846"
             style="fill:none;stroke:#000000;stroke-width:4.92886;stroke-miterlimit:4;stroke-dasharray:none;stroke-opacity:1">
            <g
               id="g1844"
               style="fill:none;stroke:#000000;stroke-width:4.92886;stroke-miterlimit:4;stroke-dasharray:none;stroke-opacity:1">
              <path
                 id="path1842"
                 style="fill:none;fill-rule:evenodd;stroke:#000000;stroke-width:4.92886;stroke-linecap:round;stroke-linejoin:round;stroke-miterlimit:4;stroke-dasharray:none;stroke-opacity:1"
                 d="m 0,17.401 c 4.105,5.172 13.973,15.84 29.602,32 15.464,15.945 26.503,28.16 33.117,36.637 8.695,11.363 15.386,19.949 20.082,25.761 8.16,10.078 15.707,18.321 22.64,24.719 18.719,17.176 39.31359,23.51258 58.661,24.883 20.65259,-1.37042 39.942,-7.707 58.661,-24.883 6.933,-6.398 14.48,-14.641 22.64,-24.719 4.696,-5.812 11.387,-14.398 20.082,-25.761 6.614,-8.477 17.653,-20.692 33.117,-36.637 15.629,-16.16 25.497,-26.828 29.602,-32" />
            </g>
          </g>
        </g>
      </g>
      <g
         id="g1860"
         style="fill:none;stroke:#000000;stroke-width:4.92886;stroke-miterlimit:4;stroke-dasharray:none;stroke-opacity:1"
         transform="matrix(0.29077634,0,0,0.29077634,143.92458,-127.83818)">
        <g
           id="g1858"
           style="fill:none;stroke:#000000;stroke-width:4.92886;stroke-miterlimit:4;stroke-dasharray:none;stroke-opacity:1">
          <g
             id="g1856"
             style="fill:none;stroke:#000000;stroke-width:4.92886;stroke-miterlimit:4;stroke-dasharray:none;stroke-opacity:1">
            <g
               id="g1854"
               style="fill:none;stroke:#000000;stroke-width:4.92886;stroke-miterlimit:4;stroke-dasharray:none;stroke-opacity:1">
              <path
                 id="path1852"
                 style="fill:none;fill-rule:evenodd;stroke:#000000;stroke-width:4.92886;stroke-linecap:round;stroke-linejoin:round;stroke-miterlimit:4;stroke-dasharray:none;stroke-opacity:1"
                 d="m 0,17.401 c 4.105,5.172 13.973,15.84 29.602,32 15.464,15.945 26.503,28.16 33.117,36.637 8.695,11.363 15.386,19.949 20.082,25.761 8.16,10.078 15.707,18.321 22.64,24.719 18.719,17.176 39.31359,23.51258 58.661,24.883 20.65259,-1.37042 39.942,-7.707 58.661,-24.883 6.933,-6.398 14.48,-14.641 22.64,-24.719 4.696,-5.812 11.387,-14.398 20.082,-25.761 6.614,-8.477 17.653,-20.692 33.117,-36.637 15.629,-16.16 25.497,-26.828 29.602,-32" />
            </g>
          </g>
        </g>
      </g>
      <g
         id="g1870"
         style="fill:none;stroke:#000000;stroke-width:4.92886;stroke-miterlimit:4;stroke-dasharray:none;stroke-opacity:1"
         transform="matrix(0.29077634,0,0,0.29077634,143.92458,-415.83818)">
        <g
           id="g1868"
           style="fill:none;stroke:#000000;stroke-width:4.92886;stroke-miterlimit:4;stroke-dasharray:none;stroke-opacity:1">
          <g
             id="g1866"
             style="fill:none;stroke:#000000;stroke-width:4.92886;stroke-miterlimit:4;stroke-dasharray:none;stroke-opacity:1">
            <g
               id="g1864"
               style="fill:none;stroke:#000000;stroke-width:4.92886;stroke-miterlimit:4;stroke-dasharray:none;stroke-opacity:1">
              <path
                 id="path1862"
                 style="fill:none;fill-rule:evenodd;stroke:#000000;stroke-width:4.92886;stroke-linecap:round;stroke-linejoin:round;stroke-miterlimit:4;stroke-dasharray:none;stroke-opacity:1"
                 d="m 0,17.401 c 4.105,5.172 13.973,15.84 29.602,32 15.464,15.945 26.503,28.16 33.117,36.637 8.695,11.363 15.386,19.949 20.082,25.761 8.16,10.078 15.707,18.321 22.64,24.719 18.719,17.176 39.31359,23.51258 58.661,24.883 20.65259,-1.37042 39.942,-7.707 58.661,-24.883 6.933,-6.398 14.48,-14.641 22.64,-24.719 4.696,-5.812 11.387,-14.398 20.082,-25.761 6.614,-8.477 17.653,-20.692 33.117,-36.637 15.629,-16.16 25.497,-26.828 29.602,-32" />
            </g>
          </g>
        </g>
      </g>
      <g
         id="g1874"
         style="fill:none;stroke:#000000;stroke-width:4.1713;stroke-miterlimit:4;stroke-dasharray:none;stroke-opacity:1"
         transform="matrix(0.41168439,0,0,0.28659227,231.17319,-383.389)">
        <path
           id="path1872"
           style="fill:none;stroke:#000000;stroke-width:4.1713;stroke-linecap:round;stroke-linejoin:round;stroke-miterlimit:4;stroke-dasharray:none;stroke-dashoffset:0.616819;stroke-opacity:1"
           transform="scale(1,-1)"
           d="M 60.467235,92.892644 A 160.2952,217.08139 0 0 1 177.31016,26.669684 160.2952,217.08139 0 0 1 293.17136,95.983929" />
      </g>
      <g
         id="g1884"
         style="fill:none;stroke:#000000;stroke-width:4.93127;stroke-miterlimit:4;stroke-dasharray:none;stroke-opacity:1"
         transform="matrix(0.29077634,0,0,0.29077634,255.92493,-271.83784)">
        <g
           id="g1882"
           style="fill:none;stroke:#000000;stroke-width:4.93127;stroke-miterlimit:4;stroke-dasharray:none;stroke-opacity:1">
          <g
             id="g1880"
             style="fill:none;stroke:#000000;stroke-width:4.93127;stroke-miterlimit:4;stroke-dasharray:none;stroke-opacity:1">
            <g
               id="g1878"
               style="fill:none;stroke:#000000;stroke-width:4.93127;stroke-miterlimit:4;stroke-dasharray:none;stroke-opacity:1">
              <path
                 id="path1876"
                 style="fill:none;fill-rule:evenodd;stroke:#000000;stroke-width:4.93127;stroke-linecap:round;stroke-linejoin:round;stroke-miterlimit:4;stroke-dasharray:none;stroke-opacity:1"
                 d="m 0,17.401 c 4.105,5.172 13.973,15.84 29.602,32 15.464,15.945 26.503,28.16 33.117,36.637 8.695,11.363 15.386,19.949 20.082,25.761 8.16,10.078 15.707,18.321 22.64,24.719 18.719,17.176 39.31359,23.51258 58.661,24.883 20.65259,-1.37042 39.942,-7.707 58.661,-24.883 6.933,-6.398 14.48,-14.641 22.64,-24.719 4.696,-5.812 11.387,-14.398 20.082,-25.761 6.614,-8.477 17.653,-20.692 33.117,-36.637 15.629,-16.16 25.497,-26.828 29.602,-32" />
            </g>
          </g>
        </g>
      </g>
      <g
         id="g1888"
         style="fill:none;stroke:#000000;stroke-width:4.1713;stroke-miterlimit:4;stroke-dasharray:none;stroke-opacity:1"
         transform="matrix(0.41168439,0,0,0.28659227,231.17319,-311.38865)">
        <path
           id="path1886"
           style="fill:none;stroke:#000000;stroke-width:4.1713;stroke-linecap:round;stroke-linejoin:round;stroke-miterlimit:4;stroke-dasharray:none;stroke-dashoffset:0.616819;stroke-opacity:1"
           transform="scale(1,-1)"
           d="M 60.467235,92.892644 A 160.2952,217.08139 0 0 1 177.31016,26.669684 160.2952,217.08139 0 0 1 293.17136,95.983929" />
      </g>
      <g
         id="g1892"
         style="fill:none;stroke:#000000;stroke-width:4.1713;stroke-miterlimit:4;stroke-dasharray:none;stroke-opacity:1"
         transform="matrix(0.41168439,0,0,0.28659227,231.17319,-167.389)">
        <path
           id="path1890"
           style="fill:none;stroke:#000000;stroke-width:4.1713;stroke-linecap:round;stroke-linejoin:round;stroke-miterlimit:4;stroke-dasharray:none;stroke-dashoffset:0.616819;stroke-opacity:1"
           transform="scale(1,-1)"
           d="M 60.467235,92.892644 A 160.2952,217.08139 0 0 1 177.31016,26.669684 160.2952,217.08139 0 0 1 293.17136,95.983929" />
      </g>
      <g
         id="g1896"
         style="fill:none;stroke:#000000;stroke-width:4.1713;stroke-miterlimit:4;stroke-dasharray:none;stroke-opacity:1"
         transform="matrix(0.41168439,0,0,0.28659227,231.17319,-95.389001)">
        <path
           id="path1894"
           style="fill:none;stroke:#000000;stroke-width:4.1713;stroke-linecap:round;stroke-linejoin:round;stroke-miterlimit:4;stroke-dasharray:none;stroke-dashoffset:0.616819;stroke-opacity:1"
           transform="scale(1,-1)"
           d="M 60.467235,92.892644 A 160.2952,217.08139 0 0 1 177.31016,26.669684 160.2952,217.08139 0 0 1 293.17136,95.983929" />
      </g>
      <g
         id="g1900"
         style="fill:none;stroke:#000000;stroke-width:4.1713;stroke-miterlimit:4;stroke-dasharray:none;stroke-opacity:1"
         transform="matrix(0.41168439,0,0,0.28659227,231.17319,-23.389004)">
        <path
           id="path1898"
           style="fill:none;stroke:#000000;stroke-width:4.1713;stroke-linecap:round;stroke-linejoin:round;stroke-miterlimit:4;stroke-dasharray:none;stroke-dashoffset:0.616819;stroke-opacity:1"
           transform="scale(1,-1)"
           d="M 60.467235,92.892644 A 160.2952,217.08139 0 0 1 177.31016,26.669684 160.2952,217.08139 0 0 1 293.17136,95.983929" />
      </g>
      <g
         id="g1904"
         style="fill:none;stroke:#000000;stroke-width:4.1713;stroke-miterlimit:4;stroke-dasharray:none;stroke-opacity:1"
         transform="matrix(0.41168439,0,0,0.28659227,231.17319,48.611002)">
        <path
           id="path1902"
           style="fill:none;stroke:#000000;stroke-width:4.1713;stroke-linecap:round;stroke-linejoin:round;stroke-miterlimit:4;stroke-dasharray:none;stroke-dashoffset:0.616819;stroke-opacity:1"
           transform="scale(1,-1)"
           d="M 60.467235,92.892644 A 160.2952,217.08139 0 0 1 177.31016,26.669684 160.2952,217.08139 0 0 1 293.17136,95.983929" />
      </g>
      <g
         id="g1908"
         style="fill:none;stroke:#000000;stroke-width:4.1713;stroke-miterlimit:4;stroke-dasharray:none;stroke-opacity:1"
         transform="matrix(0.41168439,0,0,0.28659227,231.17319,120.61098)">
        <path
           id="path1906"
           style="fill:none;stroke:#000000;stroke-width:4.1713;stroke-linecap:round;stroke-linejoin:round;stroke-miterlimit:4;stroke-dasharray:none;stroke-dashoffset:0.616819;stroke-opacity:1"
           transform="scale(1,-1)"
           d="M 60.467235,92.892644 A 160.2952,217.08139 0 0 1 177.31016,26.669684 160.2952,217.08139 0 0 1 293.17136,95.983929" />
      </g>
      <g
         id="g1912"
         style="fill:none;stroke:#000000;stroke-width:4.1713;stroke-miterlimit:4;stroke-dasharray:none;stroke-opacity:1"
         transform="matrix(0.41168439,0,0,0.28659227,231.17319,192.61099)">
        <path
           id="path1910"
           style="fill:none;stroke:#000000;stroke-width:4.1713;stroke-linecap:round;stroke-linejoin:round;stroke-miterlimit:4;stroke-dasharray:none;stroke-dashoffset:0.616819;stroke-opacity:1"
           transform="scale(1,-1)"
           d="M 60.467235,92.892644 A 160.2952,217.08139 0 0 1 177.31016,26.669684 160.2952,217.08139 0 0 1 293.17136,95.983929" />
      </g>
      <g
         id="g1916"
         style="fill:none;stroke:#000000;stroke-width:4.1713;stroke-miterlimit:4;stroke-dasharray:none;stroke-opacity:1"
         transform="matrix(0.41168439,0,0,0.28659227,343.17319,192.61099)">
        <path
           id="path1914"
           style="fill:none;stroke:#000000;stroke-width:4.1713;stroke-linecap:round;stroke-linejoin:round;stroke-miterlimit:4;stroke-dasharray:none;stroke-dashoffset:0.616819;stroke-opacity:1"
           transform="scale(1,-1)"
           d="M 60.467235,92.892644 A 160.2952,217.08139 0 0 1 177.31016,26.669684 160.2952,217.08139 0 0 1 293.17136,95.983929" />
      </g>
      <g
         id="g1920"
         style="fill:none;stroke:#000000;stroke-width:4.1713;stroke-miterlimit:4;stroke-dasharray:none;stroke-opacity:1"
         transform="matrix(0.41168439,0,0,0.28659227,343.17319,120.61098)">
        <path
           id="path1918"
           style="fill:none;stroke:#000000;stroke-width:4.1713;stroke-linecap:round;stroke-linejoin:round;stroke-miterlimit:4;stroke-dasharray:none;stroke-dashoffset:0.616819;stroke-opacity:1"
           transform="scale(1,-1)"
           d="M 60.467235,92.892644 A 160.2952,217.08139 0 0 1 177.31016,26.669684 160.2952,217.08139 0 0 1 293.17136,95.983929" />
      </g>
      <g
         id="g1924"
         style="fill:none;stroke:#000000;stroke-width:4.1713;stroke-miterlimit:4;stroke-dasharray:none;stroke-opacity:1"
         transform="matrix(0.41168439,0,0,0.28659227,119.17319,120.61098)">
        <path
           id="path1922"
           style="fill:none;stroke:#000000;stroke-width:4.1713;stroke-linecap:round;stroke-linejoin:round;stroke-miterlimit:4;stroke-dasharray:none;stroke-dashoffset:0.616819;stroke-opacity:1"
           transform="scale(1,-1)"
           d="M 60.467235,92.892644 A 160.2952,217.08139 0 0 1 177.31016,26.669684 160.2952,217.08139 0 0 1 293.17136,95.983929" />
      </g>
      <g
         id="g1928"
         style="fill:none;stroke:#000000;stroke-width:4.1713;stroke-miterlimit:4;stroke-dasharray:none;stroke-opacity:1"
         transform="matrix(0.41168439,0,0,0.28659227,343.17319,48.611002)">
        <path
           id="path1926"
           style="fill:none;stroke:#000000;stroke-width:4.1713;stroke-linecap:round;stroke-linejoin:round;stroke-miterlimit:4;stroke-dasharray:none;stroke-dashoffset:0.616819;stroke-opacity:1"
           transform="scale(1,-1)"
           d="M 60.467235,92.892644 A 160.2952,217.08139 0 0 1 177.31016,26.669684 160.2952,217.08139 0 0 1 293.17136,95.983929" />
      </g>
      <g
         id="g1932"
         style="fill:none;stroke:#000000;stroke-width:4.1713;stroke-miterlimit:4;stroke-dasharray:none;stroke-opacity:1"
         transform="matrix(0.41168439,0,0,0.28659227,343.17319,-23.389004)">
        <path
           id="path1930"
           style="fill:none;stroke:#000000;stroke-width:4.1713;stroke-linecap:round;stroke-linejoin:round;stroke-miterlimit:4;stroke-dasharray:none;stroke-dashoffset:0.616819;stroke-opacity:1"
           transform="scale(1,-1)"
           d="M 60.467235,92.892644 A 160.2952,217.08139 0 0 1 177.31016,26.669684 160.2952,217.08139 0 0 1 293.17136,95.983929" />
      </g>
      <g
         id="g1936"
         style="fill:none;stroke:#000000;stroke-width:4.1713;stroke-miterlimit:4;stroke-dasharray:none;stroke-opacity:1"
         transform="matrix(0.41168439,0,0,0.28659227,119.17319,-23.389004)">
        <path
           id="path1934"
           style="fill:none;stroke:#000000;stroke-width:4.1713;stroke-linecap:round;stroke-linejoin:round;stroke-miterlimit:4;stroke-dasharray:none;stroke-dashoffset:0.616819;stroke-opacity:1"
           transform="scale(1,-1)"
           d="M 60.467235,92.892644 A 160.2952,217.08139 0 0 1 177.31016,26.669684 160.2952,217.08139 0 0 1 293.17136,95.983929" />
      </g>
      <g
         id="g1940"
         style="fill:none;stroke:#000000;stroke-width:4.1713;stroke-miterlimit:4;stroke-dasharray:none;stroke-opacity:1"
         transform="matrix(0.41168439,0,0,0.28659227,343.17319,-95.389001)">
        <path
           id="path1938"
           style="fill:none;stroke:#000000;stroke-width:4.1713;stroke-linecap:round;stroke-linejoin:round;stroke-miterlimit:4;stroke-dasharray:none;stroke-dashoffset:0.616819;stroke-opacity:1"
           transform="scale(1,-1)"
           d="M 60.467235,92.892644 A 160.2952,217.08139 0 0 1 177.31016,26.669684 160.2952,217.08139 0 0 1 293.17136,95.983929" />
      </g>
      <g
         id="g1944"
         style="fill:none;stroke:#000000;stroke-width:4.1713;stroke-miterlimit:4;stroke-dasharray:none;stroke-opacity:1"
         transform="matrix(0.41168439,0,0,0.28659227,119.17319,-167.389)">
        <path
           id="path1942"
           style="fill:none;stroke:#000000;stroke-width:4.1713;stroke-linecap:round;stroke-linejoin:round;stroke-miterlimit:4;stroke-dasharray:none;stroke-dashoffset:0.616819;stroke-opacity:1"
           transform="scale(1,-1)"
           d="M 60.467235,92.892644 A 160.2952,217.08139 0 0 1 177.31016,26.669684 160.2952,217.08139 0 0 1 293.17136,95.983929" />
      </g>
      <g
         id="g1948"
         style="fill:none;stroke:#000000;stroke-width:4.1713;stroke-miterlimit:4;stroke-dasharray:none;stroke-opacity:1"
         transform="matrix(0.41168439,0,0,0.28659227,7.1731946,-167.389)">
        <path
           id="path1946"
           style="fill:none;stroke:#000000;stroke-width:4.1713;stroke-linecap:round;stroke-linejoin:round;stroke-miterlimit:4;stroke-dasharray:none;stroke-dashoffset:0.616819;stroke-opacity:1"
           transform="scale(1,-1)"
           d="M 60.467235,92.892644 A 160.2952,217.08139 0 0 1 177.31016,26.669684 160.2952,217.08139 0 0 1 293.17136,95.983929" />
      </g>
      <g
         id="g1952"
         style="fill:none;stroke:#000000;stroke-width:4.1713;stroke-miterlimit:4;stroke-dasharray:none;stroke-opacity:1"
         transform="matrix(0.41168439,0,0,0.28659227,119.17319,-239.38901)">
        <path
           id="path1950"
           style="fill:none;stroke:#000000;stroke-width:4.1713;stroke-linecap:round;stroke-linejoin:round;stroke-miterlimit:4;stroke-dasharray:none;stroke-dashoffset:0.616819;stroke-opacity:1"
           transform="scale(1,-1)"
           d="M 60.467235,92.892644 A 160.2952,217.08139 0 0 1 177.31016,26.669684 160.2952,217.08139 0 0 1 293.17136,95.983929" />
      </g>
      <g
         id="g1956"
         style="fill:none;stroke:#000000;stroke-width:4.1713;stroke-miterlimit:4;stroke-dasharray:none;stroke-opacity:1"
         transform="matrix(0.41168439,0,0,0.28659227,343.17319,-239.38901)">
        <path
           id="path1954"
           style="fill:none;stroke:#000000;stroke-width:4.1713;stroke-linecap:round;stroke-linejoin:round;stroke-miterlimit:4;stroke-dasharray:none;stroke-dashoffset:0.616819;stroke-opacity:1"
           transform="scale(1,-1)"
           d="M 60.467235,92.892644 A 160.2952,217.08139 0 0 1 177.31016,26.669684 160.2952,217.08139 0 0 1 293.17136,95.983929" />
      </g>
      <g
         id="g1960"
         style="fill:none;stroke:#000000;stroke-width:4.1713;stroke-miterlimit:4;stroke-dasharray:none;stroke-opacity:1"
         transform="matrix(0.41168439,0,0,0.28659227,343.17319,-311.38865)">
        <path
           id="path1958"
           style="fill:none;stroke:#000000;stroke-width:4.1713;stroke-linecap:round;stroke-linejoin:round;stroke-miterlimit:4;stroke-dasharray:none;stroke-dashoffset:0.616819;stroke-opacity:1"
           transform="scale(1,-1)"
           d="M 60.467235,92.892644 A 160.2952,217.08139 0 0 1 177.31016,26.669684 160.2952,217.08139 0 0 1 293.17136,95.983929" />
      </g>
      <g
         id="g1970"
         style="fill:none;stroke:#000000;stroke-width:4.92886;stroke-miterlimit:4;stroke-dasharray:none;stroke-opacity:1"
         transform="matrix(0.29077634,0,0,0.29077634,367.92458,-415.83818)">
        <g
           id="g1968"
           style="fill:none;stroke:#000000;stroke-width:4.92886;stroke-miterlimit:4;stroke-dasharray:none;stroke-opacity:1">
          <g
             id="g1966"
             style="fill:none;stroke:#000000;stroke-width:4.92886;stroke-miterlimit:4;stroke-dasharray:none;stroke-opacity:1">
            <g
               id="g1964"
               style="fill:none;stroke:#000000;stroke-width:4.92886;stroke-miterlimit:4;stroke-dasharray:none;stroke-opacity:1">
              <path
                 id="path1962"
                 style="fill:none;fill-rule:evenodd;stroke:#000000;stroke-width:4.92886;stroke-linecap:round;stroke-linejoin:round;stroke-miterlimit:4;stroke-dasharray:none;stroke-opacity:1"
                 d="m 0,17.401 c 4.105,5.172 13.973,15.84 29.602,32 15.464,15.945 26.503,28.16 33.117,36.637 8.695,11.363 15.386,19.949 20.082,25.761 8.16,10.078 15.707,18.321 22.64,24.719 18.719,17.176 39.31359,23.51258 58.661,24.883 20.65259,-1.37042 39.942,-7.707 58.661,-24.883 6.933,-6.398 14.48,-14.641 22.64,-24.719 4.696,-5.812 11.387,-14.398 20.082,-25.761 6.614,-8.477 17.653,-20.692 33.117,-36.637 15.629,-16.16 25.497,-26.828 29.602,-32" />
            </g>
          </g>
        </g>
      </g>
    </g>
    <text
       xml:space="preserve"
       style="font-size:9.525px;line-height:1.25;font-family:'Minion Pro';-inkscape-font-specification:'Minion Pro';letter-spacing:0px;word-spacing:0px;writing-mode:lr-tb;stroke-width:0.264583"
       x="181.57918"
       y="-106.15083"
       id="text12798"><tspan
         id="tspan12796"
         style="stroke-width:0.264583"
         x="181.57918"
         y="-106.15083" /></text>
    <text
       xml:space="preserve"
       transform="matrix(0.26458333,0,0,0.26458333,151.17095,-116.89019)"
       id="text19666"
       style="font-family:'Minion Pro';font-size:41.33333333px;line-height:1.25;letter-spacing:0px;word-spacing:0px;-inkscape-font-specification:'Minion Pro';writing-mode:lr;white-space:pre;shape-inside:url(#rect19668)" />
  </g>
</svg>
