<?xml version="1.0" encoding="UTF-8" standalone="no"?>
<!-- Created with Inkscape (http://www.inkscape.org/) -->

<svg
   version="1.1"
   id="svg2"
   xml:space="preserve"
   width="788.62299"
   height="438.90579"
   viewBox="0 0 788.62295 438.90579"
   sodipodi:docname="bludisko.svg"
   inkscape:version="1.1 (c4e8f9ed74, 2021-05-24)"
   xmlns:inkscape="http://www.inkscape.org/namespaces/inkscape"
   xmlns:sodipodi="http://sodipodi.sourceforge.net/DTD/sodipodi-0.dtd"
   xmlns="http://www.w3.org/2000/svg"
   xmlns:svg="http://www.w3.org/2000/svg"><sodipodi:namedview
     id="namedview145"
     pagecolor="#ffffff"
     bordercolor="#999999"
     borderopacity="1"
     inkscape:pageshadow="0"
     inkscape:pageopacity="0"
     inkscape:pagecheckerboard="0"
     showgrid="false"
     inkscape:zoom="0.47371411"
     inkscape:cx="276.5381"
     inkscape:cy="91.827537"
     inkscape:window-width="1366"
     inkscape:window-height="726"
     inkscape:window-x="0"
     inkscape:window-y="0"
     inkscape:window-maximized="1"
     inkscape:current-layer="g16" /><defs
     id="defs6"><clipPath
       clipPathUnits="userSpaceOnUse"
       id="clipPath20"><path
         d="M 310,397 H 601 V 568 H 310 Z"
         id="path18" /></clipPath></defs><g
     id="g8"
     transform="matrix(1.3333333,0,0,-1.3333333,-134.21031,661.33332)"><g
       id="g16"
       clip-path="url(#clipPath20)"
       transform="matrix(2.25,0,0,-2.25,-603.87502,1438.75)"><path
         d="m 335.5,419 v 22 m 0,20 v 85 m 24,-85 v 22 m 24,-64 v 43 M 335,482.5 h 49 m -0.5,41.5 v 22 M 383,440.5 h 25 m -0.5,-0.5 v 22 M 359,503.5 h 49 M 407.5,482 v 22 M 359,524.5 h 49 m -1,-63 h 25 m -0.5,-0.5 v 22 m 0,20 v 22 m 24,-85 v 22 M 407,482.5 h 49 m -25,21 h 25 M 455.5,482 v 43 m 24,-85 v 22 m 0,20 v 22 M 455,524.5 h 25 M 503.5,503 v 43 M 431,440.5 h 97 m -49,21 h 49 m -49,21 h 49 m -25,21 h 25 M 527.5,461 v 43 m 24,-85 v 22 m 0,41 v 22 M 503,524.5 h 49 m -217,-105 h 241 m -25,42 h 25 m -25,21 h 25 M 575.5,419 v 85 M 335,545.5 H 576 M 575.5,524 v 22"
         style="fill:none;stroke:#000000;stroke-width:1;stroke-linecap:butt;stroke-linejoin:miter;stroke-miterlimit:10;stroke-dasharray:none;stroke-opacity:1"
         id="path24" /><g
         aria-label="O"
         transform="translate(366.00012,434.19385)"
         id="text28"
         style="font-size:13px;font-family:'Minion Pro';-inkscape-font-specification:'Minion Pro'"><path
           d="m 4.953,-8.645 c -2.743,0 -4.381,2.171 -4.381,4.511 0,2.509 1.872,4.329 4.225,4.329 2.379,0 4.342,-1.716 4.342,-4.524 0,-2.613 -1.989,-4.316 -4.186,-4.316 z m -0.286,0.468 c 1.716,0 3.146,1.456 3.146,4.199 0,2.496 -1.287,3.705 -2.743,3.705 -1.833,0 -3.172,-1.781 -3.172,-4.225 0,-2.444 1.326,-3.679 2.769,-3.679 z"
           id="path37256" /></g><g
         aria-label="O"
         transform="translate(366,454.82985)"
         id="text28-9"
         style="font-size:13px;font-family:'Minion Pro';-inkscape-font-specification:'Minion Pro'"><path
           d="m 4.953,-8.645 c -2.743,0 -4.381,2.171 -4.381,4.511 0,2.509 1.872,4.329 4.225,4.329 2.379,0 4.342,-1.716 4.342,-4.524 0,-2.613 -1.989,-4.316 -4.186,-4.316 z m -0.286,0.468 c 1.716,0 3.146,1.456 3.146,4.199 0,2.496 -1.287,3.705 -2.743,3.705 -1.833,0 -3.172,-1.781 -3.172,-4.225 0,-2.444 1.326,-3.679 2.769,-3.679 z"
           id="path37256-3" /></g><g
         aria-label="B"
         transform="translate(415,434.19385)"
         id="text40"
         style="font-size:13px;font-family:'Minion Pro';-inkscape-font-specification:'Minion Pro'"><path
           d="m 4.836,-4.576 c 0.715,-0.208 1.755,-0.715 1.755,-1.95 0,-0.598 -0.273,-1.17 -0.728,-1.482 C 5.46,-8.294 4.888,-8.45 3.913,-8.45 H 0.572 v 0.364 c 1.04,0.078 1.092,0.156 1.092,1.235 v 5.252 c 0,1.079 -0.078,1.157 -1.196,1.235 V 0 h 2.873 c 1.027,0 1.885,-0.156 2.548,-0.52 0.767,-0.416 1.235,-1.092 1.235,-1.963 0,-1.3 -1.001,-1.872 -2.288,-2.067 z m -2.067,-0.13 v -2.548 c 0,-0.429 0.039,-0.572 0.169,-0.65 0.117,-0.078 0.416,-0.13 0.728,-0.13 1.235,0 1.729,0.78 1.729,1.664 0,1.092 -0.598,1.664 -2.015,1.664 z m 0,0.442 h 0.585 c 1.586,0 2.496,0.585 2.496,1.911 0,1.365 -0.949,1.898 -2.002,1.911 -0.845,0 -1.079,-0.247 -1.079,-1.183 z"
           id="path49871" /></g><g
         aria-label="E"
         transform="translate(439,434.19385)"
         id="text44"
         style="font-size:13px;font-family:'Minion Pro';-inkscape-font-specification:'Minion Pro'"><path
           d="m 6.721,-2.106 c -0.182,0.507 -0.429,0.962 -0.65,1.222 -0.286,0.338 -0.65,0.442 -1.638,0.442 -0.65,0 -1.105,0 -1.352,-0.169 C 2.847,-0.767 2.769,-1.053 2.769,-1.664 v -2.457 h 1.235 c 1.131,0 1.222,0.078 1.391,1.001 H 5.772 V -5.603 H 5.395 C 5.239,-4.732 5.174,-4.628 3.991,-4.628 H 2.769 v -2.964 c 0,-0.377 0.026,-0.416 0.429,-0.416 h 0.988 c 0.936,0 1.287,0.091 1.469,0.377 0.169,0.273 0.299,0.559 0.416,1.105 L 6.448,-6.578 C 6.409,-7.241 6.344,-8.125 6.344,-8.45 H 0.546 v 0.364 c 1.014,0.078 1.118,0.13 1.118,1.287 v 5.174 c 0,1.066 -0.104,1.17 -1.287,1.261 V 0 H 6.643 C 6.76,-0.403 7.02,-1.625 7.098,-2.054 Z"
           id="path49868" /></g><g
         aria-label="C"
         transform="translate(462,434.19385)"
         id="text48"
         style="font-size:13px;font-family:'Minion Pro';-inkscape-font-specification:'Minion Pro'"><path
           d="m 7.982,-2.275 c -0.65,1.287 -1.352,2.002 -2.678,2.002 -1.976,0 -3.406,-1.664 -3.406,-4.095 0,-1.976 1.157,-3.809 3.328,-3.809 1.404,0 2.184,0.559 2.535,1.937 L 8.138,-6.344 C 8.06,-7.033 7.982,-7.566 7.878,-8.294 7.514,-8.359 6.63,-8.645 5.577,-8.645 c -2.899,0 -5.005,1.794 -5.005,4.537 0,2.067 1.417,4.303 4.654,4.303 0.936,0 2.028,-0.26 2.392,-0.338 0.234,-0.442 0.559,-1.404 0.741,-2.002 z"
           id="path49865" /></g><g
         aria-label="N"
         transform="translate(486,434.19385)"
         id="text52"
         style="font-size:13px;font-family:'Minion Pro';-inkscape-font-specification:'Minion Pro'"><path
           d="M 9.347,-8.45 H 6.279 v 0.364 c 0.91,0.039 1.209,0.208 1.274,0.806 0.052,0.364 0.091,0.949 0.091,2.158 v 3.198 H 7.605 L 2.171,-8.45 H 0.26 v 0.364 c 0.611,0.052 0.884,0.156 1.157,0.481 0.234,0.299 0.26,0.364 0.26,1.313 v 2.86 c 0,1.183 -0.039,1.82 -0.078,2.223 -0.065,0.637 -0.403,0.806 -1.144,0.845 V 0 H 3.536 V -0.364 C 2.652,-0.416 2.353,-0.572 2.288,-1.235 2.249,-1.612 2.21,-2.236 2.21,-3.432 v -3.263 h 0.026 l 5.538,6.812 h 0.403 v -5.239 c 0,-1.209 0.026,-1.794 0.078,-2.197 0.052,-0.559 0.364,-0.728 1.092,-0.767 z"
           id="path49862" /></g><g
         aria-label="E"
         transform="translate(511,434.19385)"
         id="text56"
         style="font-size:13px;font-family:'Minion Pro';-inkscape-font-specification:'Minion Pro'"><path
           d="m 6.721,-2.106 c -0.182,0.507 -0.429,0.962 -0.65,1.222 -0.286,0.338 -0.65,0.442 -1.638,0.442 -0.65,0 -1.105,0 -1.352,-0.169 C 2.847,-0.767 2.769,-1.053 2.769,-1.664 v -2.457 h 1.235 c 1.131,0 1.222,0.078 1.391,1.001 H 5.772 V -5.603 H 5.395 C 5.239,-4.732 5.174,-4.628 3.991,-4.628 H 2.769 v -2.964 c 0,-0.377 0.026,-0.416 0.429,-0.416 h 0.988 c 0.936,0 1.287,0.091 1.469,0.377 0.169,0.273 0.299,0.559 0.416,1.105 L 6.448,-6.578 C 6.409,-7.241 6.344,-8.125 6.344,-8.45 H 0.546 v 0.364 c 1.014,0.078 1.118,0.13 1.118,1.287 v 5.174 c 0,1.066 -0.104,1.17 -1.287,1.261 V 0 H 6.643 C 6.76,-0.403 7.02,-1.625 7.098,-2.054 Z"
           id="path49859" /></g><g
         aria-label="E"
         transform="translate(559.00024,434.19385)"
         id="text56-6"
         style="font-size:13px;font-family:'Minion Pro';-inkscape-font-specification:'Minion Pro'"><path
           d="m 6.721,-2.106 c -0.182,0.507 -0.429,0.962 -0.65,1.222 -0.286,0.338 -0.65,0.442 -1.638,0.442 -0.65,0 -1.105,0 -1.352,-0.169 C 2.847,-0.767 2.769,-1.053 2.769,-1.664 v -2.457 h 1.235 c 1.131,0 1.222,0.078 1.391,1.001 H 5.772 V -5.603 H 5.395 C 5.239,-4.732 5.174,-4.628 3.991,-4.628 H 2.769 v -2.964 c 0,-0.377 0.026,-0.416 0.429,-0.416 h 0.988 c 0.936,0 1.287,0.091 1.469,0.377 0.169,0.273 0.299,0.559 0.416,1.105 L 6.448,-6.578 C 6.409,-7.241 6.344,-8.125 6.344,-8.45 H 0.546 v 0.364 c 1.014,0.078 1.118,0.13 1.118,1.287 v 5.174 c 0,1.066 -0.104,1.17 -1.287,1.261 V 0 H 6.643 C 6.76,-0.403 7.02,-1.625 7.098,-2.054 Z"
           id="path49859-2" /></g><g
         aria-label="P"
         transform="translate(535,434.19385)"
         id="text60"
         style="font-size:13px;font-family:'Minion Pro';-inkscape-font-specification:'Minion Pro'"><path
           d="m 0.598,-8.45 v 0.364 c 0.962,0.065 1.066,0.117 1.066,1.261 v 5.2 c 0,1.079 -0.104,1.183 -1.144,1.261 V 0 H 4.043 V -0.364 C 2.873,-0.442 2.756,-0.507 2.756,-1.612 v -2.041 l 0.962,0.247 c 0.143,0.013 0.39,0.013 0.585,-0.013 1.274,-0.156 2.535,-0.975 2.535,-2.665 0,-0.845 -0.325,-1.443 -0.832,-1.833 C 5.486,-8.294 4.732,-8.45 3.809,-8.45 Z m 2.158,1.183 c 0,-0.377 0.039,-0.533 0.143,-0.611 0.091,-0.091 0.364,-0.156 0.728,-0.156 1.066,0 1.963,0.598 1.963,2.002 0,1.651 -1.04,2.106 -1.885,2.106 -0.429,0 -0.78,-0.091 -0.949,-0.156 z"
           id="path49856" /></g><g
         aria-label="T"
         transform="translate(343,455.19385)"
         id="text72"
         style="font-size:13px;font-family:'Minion Pro';-inkscape-font-specification:'Minion Pro'"><path
           d="M 7.696,-6.474 C 7.618,-7.228 7.566,-8.177 7.553,-8.775 H 7.28 C 7.085,-8.528 6.981,-8.45 6.63,-8.45 H 1.495 C 1.131,-8.45 0.962,-8.476 0.78,-8.775 H 0.52 c -0.026,0.715 -0.091,1.56 -0.156,2.34 h 0.377 c 0.156,-0.572 0.26,-0.949 0.416,-1.17 0.169,-0.286 0.429,-0.403 1.508,-0.403 h 0.806 v 6.409 c 0,1.027 -0.104,1.157 -1.287,1.235 V 0 H 5.902 V -0.364 C 4.68,-0.442 4.576,-0.572 4.576,-1.599 v -6.409 h 0.91 c 0.988,0 1.196,0.104 1.417,0.416 0.143,0.208 0.273,0.533 0.403,1.157 z"
           id="path49850" /></g><g
         aria-label="T"
         transform="translate(463.0006,455.19385)"
         id="text72-2"
         style="font-size:13px;font-family:'Minion Pro';-inkscape-font-specification:'Minion Pro'"><path
           d="M 7.696,-6.474 C 7.618,-7.228 7.566,-8.177 7.553,-8.775 H 7.28 C 7.085,-8.528 6.981,-8.45 6.63,-8.45 H 1.495 C 1.131,-8.45 0.962,-8.476 0.78,-8.775 H 0.52 c -0.026,0.715 -0.091,1.56 -0.156,2.34 h 0.377 c 0.156,-0.572 0.26,-0.949 0.416,-1.17 0.169,-0.286 0.429,-0.403 1.508,-0.403 h 0.806 v 6.409 c 0,1.027 -0.104,1.157 -1.287,1.235 V 0 H 5.902 V -0.364 C 4.68,-0.442 4.576,-0.572 4.576,-1.599 v -6.409 h 0.91 c 0.988,0 1.196,0.104 1.417,0.416 0.143,0.208 0.273,0.533 0.403,1.157 z"
           id="path49850-7" /></g><g
         aria-label="D"
         transform="translate(389.99357,434.19083)"
         id="text80-7"
         style="font-size:13px;font-family:'Minion Pro';-inkscape-font-specification:'Minion Pro'"><path
           d="m 0.559,-8.45 v 0.364 c 1.001,0.078 1.105,0.13 1.105,1.248 v 5.226 c 0,1.105 -0.104,1.183 -1.222,1.261 V 0 H 3.51 C 5.096,0 6.396,-0.325 7.371,-1.079 8.359,-1.833 8.97,-2.99 8.97,-4.55 8.97,-5.772 8.515,-6.721 7.865,-7.345 7.059,-8.125 5.85,-8.45 4.199,-8.45 Z m 2.21,1.339 c 0,-0.52 0.052,-0.663 0.169,-0.741 0.13,-0.104 0.468,-0.169 1.014,-0.169 0.871,0 1.625,0.169 2.21,0.533 1.04,0.611 1.534,1.781 1.534,3.12 0,2.08 -1.131,3.9 -3.549,3.9 -0.949,0 -1.378,-0.247 -1.378,-1.235 z"
           id="path49844-5" /></g><g
         aria-label="Ô"
         transform="translate(415,455.19385)"
         id="text84"
         style="font-size:13px;font-family:'Minion Pro';-inkscape-font-specification:'Minion Pro'"><path
           d="m 4.953,-8.645 c -2.743,0 -4.381,2.171 -4.381,4.511 0,2.509 1.872,4.329 4.225,4.329 2.379,0 4.342,-1.716 4.342,-4.524 0,-2.613 -1.989,-4.316 -4.186,-4.316 z m -0.286,0.468 c 1.716,0 3.146,1.456 3.146,4.199 0,2.496 -1.287,3.705 -2.743,3.705 -1.833,0 -3.172,-1.781 -3.172,-4.225 0,-2.444 1.326,-3.679 2.769,-3.679 z m 1.95,-1.131 C 6.058,-9.737 5.486,-10.166 4.992,-10.699 H 4.706 c -0.494,0.533 -1.079,0.962 -1.638,1.391 l 0.208,0.325 c 0.52,-0.221 1.053,-0.52 1.56,-0.806 0.52,0.299 1.053,0.585 1.573,0.806 z"
           id="path49841" /></g><g
         aria-label="V"
         transform="translate(439,455.19385)"
         id="text88"
         style="font-size:13px;font-family:'Minion Pro';-inkscape-font-specification:'Minion Pro'"><path
           d="M 8.931,-8.45 H 6.006 v 0.364 c 1.053,0.13 1.131,0.221 0.884,0.975 -0.416,1.3 -1.404,3.835 -2.054,5.473 H 4.81 C 3.926,-3.874 2.977,-6.396 2.652,-7.319 2.444,-7.891 2.483,-7.995 3.406,-8.086 V -8.45 H 0.221 v 0.364 c 0.78,0.078 0.988,0.182 1.365,1.144 0.754,1.885 1.82,4.706 2.691,7.085 H 4.68 C 5.668,-2.548 7.033,-5.85 7.384,-6.708 7.878,-7.865 8.047,-7.982 8.931,-8.086 Z"
           id="path49838" /></g><g
         aria-label="E"
         transform="translate(487.00012,455.19385)"
         id="text92"
         style="font-size:13px;font-family:'Minion Pro';-inkscape-font-specification:'Minion Pro'"><path
           d="m 6.721,-2.106 c -0.182,0.507 -0.429,0.962 -0.65,1.222 -0.286,0.338 -0.65,0.442 -1.638,0.442 -0.65,0 -1.105,0 -1.352,-0.169 C 2.847,-0.767 2.769,-1.053 2.769,-1.664 v -2.457 h 1.235 c 1.131,0 1.222,0.078 1.391,1.001 H 5.772 V -5.603 H 5.395 C 5.239,-4.732 5.174,-4.628 3.991,-4.628 H 2.769 v -2.964 c 0,-0.377 0.026,-0.416 0.429,-0.416 h 0.988 c 0.936,0 1.287,0.091 1.469,0.377 0.169,0.273 0.299,0.559 0.416,1.105 L 6.448,-6.578 C 6.409,-7.241 6.344,-8.125 6.344,-8.45 H 0.546 v 0.364 c 1.014,0.078 1.118,0.13 1.118,1.287 v 5.174 c 0,1.066 -0.104,1.17 -1.287,1.261 V 0 H 6.643 C 6.76,-0.403 7.02,-1.625 7.098,-2.054 Z"
           id="path49835" /></g><g
         aria-label="Ľ"
         transform="translate(390.75412,455.10285)"
         id="text96-9"
         style="font-size:13px;font-family:'Minion Pro';-inkscape-font-specification:'Minion Pro'"><path
           d="M 6.435,-2.119 C 6.24,-1.521 6.006,-1.105 5.772,-0.845 5.473,-0.507 5.031,-0.442 4.316,-0.442 3.77,-0.442 3.328,-0.468 3.068,-0.611 2.834,-0.741 2.769,-1.001 2.769,-1.703 v -5.135 c 0,-1.118 0.117,-1.17 1.144,-1.248 V -8.45 H 0.52 v 0.364 c 1.066,0.078 1.144,0.143 1.144,1.248 v 5.2 c 0,1.105 -0.104,1.196 -1.196,1.274 V 0 h 5.889 c 0.117,-0.403 0.39,-1.638 0.468,-2.041 z m -1.43,-6.396 c -0.234,0 -0.468,0.169 -0.468,0.481 0,0.182 0.091,0.286 0.169,0.325 0.247,0.078 0.416,0.208 0.416,0.494 0,0.312 -0.195,0.533 -0.598,0.741 l 0.13,0.364 c 0.624,-0.195 1.131,-0.611 1.131,-1.365 0,-0.611 -0.364,-1.04 -0.78,-1.04 z"
           id="path49832-1" /></g><g
         aria-label="C"
         transform="translate(510,455.19385)"
         id="text100"
         style="font-size:13px;font-family:'Minion Pro';-inkscape-font-specification:'Minion Pro'"><path
           d="m 7.982,-2.275 c -0.65,1.287 -1.352,2.002 -2.678,2.002 -1.976,0 -3.406,-1.664 -3.406,-4.095 0,-1.976 1.157,-3.809 3.328,-3.809 1.404,0 2.184,0.559 2.535,1.937 L 8.138,-6.344 C 8.06,-7.033 7.982,-7.566 7.878,-8.294 7.514,-8.359 6.63,-8.645 5.577,-8.645 c -2.899,0 -5.005,1.794 -5.005,4.537 0,2.067 1.417,4.303 4.654,4.303 0.936,0 2.028,-0.26 2.392,-0.338 0.234,-0.442 0.559,-1.404 0.741,-2.002 z"
           id="path49829" /></g><g
         aria-label="O"
         transform="translate(534,455.19385)"
         id="text104"
         style="font-size:13px;font-family:'Minion Pro';-inkscape-font-specification:'Minion Pro'"><path
           d="m 4.953,-8.645 c -2.743,0 -4.381,2.171 -4.381,4.511 0,2.509 1.872,4.329 4.225,4.329 2.379,0 4.342,-1.716 4.342,-4.524 0,-2.613 -1.989,-4.316 -4.186,-4.316 z m -0.286,0.468 c 1.716,0 3.146,1.456 3.146,4.199 0,2.496 -1.287,3.705 -2.743,3.705 -1.833,0 -3.172,-1.781 -3.172,-4.225 0,-2.444 1.326,-3.679 2.769,-3.679 z"
           id="path49826" /></g><g
         aria-label="E"
         transform="translate(559,455.19385)"
         id="text108"
         style="font-size:13px;font-family:'Minion Pro';-inkscape-font-specification:'Minion Pro'"><path
           d="m 6.721,-2.106 c -0.182,0.507 -0.429,0.962 -0.65,1.222 -0.286,0.338 -0.65,0.442 -1.638,0.442 -0.65,0 -1.105,0 -1.352,-0.169 C 2.847,-0.767 2.769,-1.053 2.769,-1.664 v -2.457 h 1.235 c 1.131,0 1.222,0.078 1.391,1.001 H 5.772 V -5.603 H 5.395 C 5.239,-4.732 5.174,-4.628 3.991,-4.628 H 2.769 v -2.964 c 0,-0.377 0.026,-0.416 0.429,-0.416 h 0.988 c 0.936,0 1.287,0.091 1.469,0.377 0.169,0.273 0.299,0.559 0.416,1.105 L 6.448,-6.578 C 6.409,-7.241 6.344,-8.125 6.344,-8.45 H 0.546 v 0.364 c 1.014,0.078 1.118,0.13 1.118,1.287 v 5.174 c 0,1.066 -0.104,1.17 -1.287,1.261 V 0 H 6.643 C 6.76,-0.403 7.02,-1.625 7.098,-2.054 Z"
           id="path49823" /></g><g
         aria-label="L"
         transform="translate(343,476.19385)"
         id="text112"
         style="font-size:13px;font-family:'Minion Pro';-inkscape-font-specification:'Minion Pro'"><path
           d="M 6.435,-2.119 C 6.24,-1.521 6.006,-1.105 5.772,-0.845 5.473,-0.507 5.031,-0.442 4.316,-0.442 3.77,-0.442 3.328,-0.468 3.068,-0.611 2.834,-0.741 2.769,-1.001 2.769,-1.703 v -5.135 c 0,-1.118 0.117,-1.17 1.144,-1.248 V -8.45 H 0.52 v 0.364 c 1.066,0.078 1.144,0.143 1.144,1.248 v 5.2 c 0,1.105 -0.104,1.196 -1.196,1.274 V 0 h 5.889 c 0.117,-0.403 0.39,-1.638 0.468,-2.041 z"
           id="path49820" /></g><g
         aria-label="Č"
         transform="translate(366,476.19385)"
         id="text116"
         style="font-size:13px;font-family:'Minion Pro';-inkscape-font-specification:'Minion Pro'"><path
           d="m 7.982,-2.275 c -0.65,1.287 -1.352,2.002 -2.678,2.002 -1.976,0 -3.406,-1.664 -3.406,-4.095 0,-1.976 1.157,-3.809 3.328,-3.809 1.404,0 2.184,0.559 2.535,1.937 L 8.138,-6.331 C 8.06,-7.033 7.982,-7.566 7.878,-8.294 7.514,-8.359 6.63,-8.645 5.577,-8.645 c -2.899,0 -5.005,1.794 -5.005,4.537 0,2.067 1.417,4.303 4.654,4.303 0.936,0 2.028,-0.26 2.392,-0.338 0.234,-0.442 0.559,-1.404 0.741,-2.002 z m -1.248,-8.593 c -0.52,0.221 -1.066,0.507 -1.573,0.806 -0.52,-0.312 -1.053,-0.585 -1.573,-0.806 L 3.38,-10.53 c 0.559,0.429 1.118,0.845 1.638,1.391 h 0.286 c 0.507,-0.533 1.066,-0.975 1.625,-1.391 z"
           id="path49817" /></g><g
         aria-label="O"
         transform="translate(390,476.19385)"
         id="text120"
         style="font-size:13px;font-family:'Minion Pro';-inkscape-font-specification:'Minion Pro'"><path
           d="m 4.953,-8.645 c -2.743,0 -4.381,2.171 -4.381,4.511 0,2.509 1.872,4.329 4.225,4.329 2.379,0 4.342,-1.716 4.342,-4.524 0,-2.613 -1.989,-4.316 -4.186,-4.316 z m -0.286,0.468 c 1.716,0 3.146,1.456 3.146,4.199 0,2.496 -1.287,3.705 -2.743,3.705 -1.833,0 -3.172,-1.781 -3.172,-4.225 0,-2.444 1.326,-3.679 2.769,-3.679 z"
           id="path49814" /></g><g
         aria-label="Ý"
         transform="translate(415,476.19385)"
         id="text124"
         style="font-size:13px;font-family:'Minion Pro';-inkscape-font-specification:'Minion Pro'"><path
           d="M 8.06,-8.45 H 5.187 v 0.364 C 6.201,-7.982 6.24,-7.878 5.941,-7.228 5.577,-6.435 4.875,-5.161 4.407,-4.303 3.835,-5.278 3.198,-6.344 2.652,-7.384 2.418,-7.813 2.379,-7.969 3.302,-8.086 V -8.45 H 0.208 v 0.364 c 0.78,0.065 0.91,0.208 1.443,1.105 0.702,1.196 1.17,2.054 1.625,2.847 0.221,0.403 0.26,0.52 0.26,0.78 v 1.729 c 0,1.105 -0.104,1.183 -1.261,1.261 V 0 H 5.954 V -0.364 C 4.758,-0.442 4.641,-0.533 4.641,-1.625 v -1.768 c 0,-0.338 0.039,-0.481 0.221,-0.819 0.624,-1.144 1.066,-1.898 1.651,-2.847 0.494,-0.793 0.65,-0.923 1.547,-1.027 z M 6.11,-9.828 c -0.039,-0.182 -0.39,-0.689 -0.546,-0.715 -0.598,0.39 -1.339,0.871 -2.041,1.326 l 0.169,0.325 2.405,-0.832 z"
           id="path49811" /></g><g
         aria-label="T"
         transform="translate(439,476.19385)"
         id="text128"
         style="font-size:13px;font-family:'Minion Pro';-inkscape-font-specification:'Minion Pro'"><path
           d="M 7.696,-6.474 C 7.618,-7.228 7.566,-8.177 7.553,-8.775 H 7.28 C 7.085,-8.528 6.981,-8.45 6.63,-8.45 H 1.495 C 1.131,-8.45 0.962,-8.476 0.78,-8.775 H 0.52 c -0.026,0.715 -0.091,1.56 -0.156,2.34 h 0.377 c 0.156,-0.572 0.26,-0.949 0.416,-1.17 0.169,-0.286 0.429,-0.403 1.508,-0.403 h 0.806 v 6.409 c 0,1.027 -0.104,1.157 -1.287,1.235 V 0 H 5.902 V -0.364 C 4.68,-0.442 4.576,-0.572 4.576,-1.599 v -6.409 h 0.91 c 0.988,0 1.196,0.104 1.417,0.416 0.143,0.208 0.273,0.533 0.403,1.157 z"
           id="path49808" /></g><g
         aria-label="K"
         transform="translate(463,476.19385)"
         id="text132"
         style="font-size:13px;font-family:'Minion Pro';-inkscape-font-specification:'Minion Pro'"><path
           d="M 8.671,0 V -0.364 C 8.047,-0.442 7.787,-0.559 7.098,-1.3 6.448,-2.002 5.018,-3.601 4.043,-4.836 4.914,-5.72 5.837,-6.656 6.344,-7.111 7.163,-7.865 7.475,-7.995 8.45,-8.086 V -8.45 H 5.33 v 0.364 l 0.299,0.039 c 0.585,0.065 0.598,0.195 0.208,0.663 -0.585,0.715 -1.456,1.625 -2.171,2.314 -0.364,0.338 -0.624,0.52 -0.91,0.585 V -6.76 c 0,-1.157 0.13,-1.248 1.131,-1.326 V -8.45 H 0.533 v 0.364 c 1.027,0.078 1.131,0.143 1.131,1.326 v 5.096 c 0,1.131 -0.104,1.222 -1.092,1.3 V 0 h 3.38 V -0.364 C 2.873,-0.442 2.756,-0.533 2.756,-1.664 v -2.47 c 0.221,-0.039 0.39,0 0.702,0.351 1.157,1.378 2.21,2.652 3.224,3.783 z"
           id="path49805" /></g><g
         aria-label="O"
         transform="translate(486,476.19385)"
         id="text136"
         style="font-size:13px;font-family:'Minion Pro';-inkscape-font-specification:'Minion Pro'"><path
           d="m 4.953,-8.645 c -2.743,0 -4.381,2.171 -4.381,4.511 0,2.509 1.872,4.329 4.225,4.329 2.379,0 4.342,-1.716 4.342,-4.524 0,-2.613 -1.989,-4.316 -4.186,-4.316 z m -0.286,0.468 c 1.716,0 3.146,1.456 3.146,4.199 0,2.496 -1.287,3.705 -2.743,3.705 -1.833,0 -3.172,-1.781 -3.172,-4.225 0,-2.444 1.326,-3.679 2.769,-3.679 z"
           id="path49802" /></g><g
         aria-label="B"
         transform="translate(511,476.19385)"
         id="text140"
         style="font-size:13px;font-family:'Minion Pro';-inkscape-font-specification:'Minion Pro'"><path
           d="m 4.836,-4.576 c 0.715,-0.208 1.755,-0.715 1.755,-1.95 0,-0.598 -0.273,-1.17 -0.728,-1.482 C 5.46,-8.294 4.888,-8.45 3.913,-8.45 H 0.572 v 0.364 c 1.04,0.078 1.092,0.156 1.092,1.235 v 5.252 c 0,1.079 -0.078,1.157 -1.196,1.235 V 0 h 2.873 c 1.027,0 1.885,-0.156 2.548,-0.52 0.767,-0.416 1.235,-1.092 1.235,-1.963 0,-1.3 -1.001,-1.872 -2.288,-2.067 z m -2.067,-0.13 v -2.548 c 0,-0.429 0.039,-0.572 0.169,-0.65 0.117,-0.078 0.416,-0.13 0.728,-0.13 1.235,0 1.729,0.78 1.729,1.664 0,1.092 -0.598,1.664 -2.015,1.664 z m 0,0.442 h 0.585 c 1.586,0 2.496,0.585 2.496,1.911 0,1.365 -0.949,1.898 -2.002,1.911 -0.845,0 -1.079,-0.247 -1.079,-1.183 z"
           id="path49799" /></g><g
         aria-label="M"
         transform="translate(534,476.19385)"
         id="text144"
         style="font-size:13px;font-family:'Minion Pro';-inkscape-font-specification:'Minion Pro'"><path
           d="M 11.193,0 V -0.364 C 10.062,-0.455 10.023,-0.533 9.984,-1.911 L 9.867,-6.617 C 9.828,-7.956 9.906,-7.982 11.063,-8.086 V -8.45 H 8.853 L 5.837,-1.937 2.873,-8.45 H 0.741 v 0.364 c 1.183,0.117 1.248,0.169 1.131,1.859 L 1.69,-3.523 c -0.091,1.365 -0.169,1.924 -0.247,2.379 -0.091,0.546 -0.338,0.702 -1.105,0.78 V 0 H 3.367 V -0.364 C 2.496,-0.455 2.197,-0.546 2.171,-1.17 2.158,-1.69 2.158,-2.249 2.21,-3.328 l 0.195,-3.705 h 0.026 l 2.912,6.942 h 0.26 l 3.172,-7.124 h 0.052 l 0.052,5.304 c 0,1.378 -0.039,1.456 -1.105,1.547 V 0 Z"
           id="path49796" /></g><g
         aria-label="D"
         transform="translate(558,476.19385)"
         id="text148"
         style="font-size:13px;font-family:'Minion Pro';-inkscape-font-specification:'Minion Pro'"><path
           d="m 0.559,-8.45 v 0.364 c 1.001,0.078 1.105,0.13 1.105,1.248 v 5.226 c 0,1.105 -0.104,1.183 -1.222,1.261 V 0 H 3.51 C 5.096,0 6.396,-0.325 7.371,-1.079 8.359,-1.833 8.97,-2.99 8.97,-4.55 8.97,-5.772 8.515,-6.721 7.865,-7.345 7.059,-8.125 5.85,-8.45 4.199,-8.45 Z m 2.21,1.339 c 0,-0.52 0.052,-0.663 0.169,-0.741 0.13,-0.104 0.468,-0.169 1.014,-0.169 0.871,0 1.625,0.169 2.21,0.533 1.04,0.611 1.534,1.781 1.534,3.12 0,2.08 -1.131,3.9 -3.549,3.9 -0.949,0 -1.378,-0.247 -1.378,-1.235 z"
           id="path49793" /></g><g
         aria-label="P"
         transform="translate(343,497.19385)"
         id="text152"
         style="font-size:13px;font-family:'Minion Pro';-inkscape-font-specification:'Minion Pro'"><path
           d="m 0.598,-8.45 v 0.364 c 0.962,0.065 1.066,0.117 1.066,1.261 v 5.2 c 0,1.079 -0.104,1.183 -1.144,1.261 V 0 H 4.043 V -0.364 C 2.873,-0.442 2.756,-0.507 2.756,-1.612 v -2.041 l 0.962,0.247 c 0.143,0.013 0.39,0.013 0.585,-0.013 1.274,-0.156 2.535,-0.975 2.535,-2.665 0,-0.845 -0.325,-1.443 -0.832,-1.833 C 5.486,-8.294 4.732,-8.45 3.809,-8.45 Z m 2.158,1.183 c 0,-0.377 0.039,-0.533 0.143,-0.611 0.091,-0.091 0.364,-0.156 0.728,-0.156 1.066,0 1.963,0.598 1.963,2.002 0,1.651 -1.04,2.106 -1.885,2.106 -0.429,0 -0.78,-0.091 -0.949,-0.156 z"
           id="path49790" /></g><g
         aria-label="P"
         transform="translate(344.47657,434.1481)"
         id="text152-3"
         style="font-size:13px;font-family:'Minion Pro';-inkscape-font-specification:'Minion Pro'"><path
           d="m 0.598,-8.45 v 0.364 c 0.962,0.065 1.066,0.117 1.066,1.261 v 5.2 c 0,1.079 -0.104,1.183 -1.144,1.261 V 0 H 4.043 V -0.364 C 2.873,-0.442 2.756,-0.507 2.756,-1.612 v -2.041 l 0.962,0.247 c 0.143,0.013 0.39,0.013 0.585,-0.013 1.274,-0.156 2.535,-0.975 2.535,-2.665 0,-0.845 -0.325,-1.443 -0.832,-1.833 C 5.486,-8.294 4.732,-8.45 3.809,-8.45 Z m 2.158,1.183 c 0,-0.377 0.039,-0.533 0.143,-0.611 0.091,-0.091 0.364,-0.156 0.728,-0.156 1.066,0 1.963,0.598 1.963,2.002 0,1.651 -1.04,2.106 -1.885,2.106 -0.429,0 -0.78,-0.091 -0.949,-0.156 z"
           id="path49790-6" /></g><g
         aria-label="U"
         transform="translate(366,497.19385)"
         id="text156"
         style="font-size:13px;font-family:'Minion Pro';-inkscape-font-specification:'Minion Pro'"><path
           d="M 9.308,-8.45 H 6.214 v 0.364 c 0.923,0.065 1.196,0.221 1.261,0.728 0.052,0.403 0.091,0.949 0.091,2.145 v 0.975 c 0,2.145 -0.585,3.718 -2.457,3.718 -1.612,0 -2.444,-1.209 -2.444,-3.302 v -2.951 c 0,-1.17 0.104,-1.248 1.118,-1.313 V -8.45 H 0.429 v 0.364 c 1.014,0.091 1.131,0.143 1.131,1.313 v 3.237 c 0,1.534 0.364,2.496 1.144,3.094 0.572,0.442 1.313,0.624 2.08,0.624 0.858,0 1.729,-0.273 2.34,-0.897 0.741,-0.793 0.975,-1.898 0.975,-3.432 v -1.066 c 0,-1.196 0.039,-1.755 0.078,-2.106 0.052,-0.546 0.351,-0.715 1.131,-0.767 z"
           id="path49787" /></g><g
         aria-label="T"
         transform="translate(391,497.19385)"
         id="text160"
         style="font-size:13px;font-family:'Minion Pro';-inkscape-font-specification:'Minion Pro'"><path
           d="M 7.696,-6.474 C 7.618,-7.228 7.566,-8.177 7.553,-8.775 H 7.28 C 7.085,-8.528 6.981,-8.45 6.63,-8.45 H 1.495 C 1.131,-8.45 0.962,-8.476 0.78,-8.775 H 0.52 c -0.026,0.715 -0.091,1.56 -0.156,2.34 h 0.377 c 0.156,-0.572 0.26,-0.949 0.416,-1.17 0.169,-0.286 0.429,-0.403 1.508,-0.403 h 0.806 v 6.409 c 0,1.027 -0.104,1.157 -1.287,1.235 V 0 H 5.902 V -0.364 C 4.68,-0.442 4.576,-0.572 4.576,-1.599 v -6.409 h 0.91 c 0.988,0 1.196,0.104 1.417,0.416 0.143,0.208 0.273,0.533 0.403,1.157 z"
           id="path49784" /></g><g
         aria-label="Ĺ"
         transform="translate(415,497.19385)"
         id="text164"
         style="font-size:13px;font-family:'Minion Pro';-inkscape-font-specification:'Minion Pro'"><path
           d="M 6.435,-2.119 C 6.24,-1.521 6.006,-1.105 5.772,-0.845 5.473,-0.507 5.031,-0.442 4.316,-0.442 3.77,-0.442 3.328,-0.468 3.068,-0.611 2.834,-0.741 2.769,-1.001 2.769,-1.703 v -5.135 c 0,-1.118 0.117,-1.17 1.144,-1.248 V -8.45 H 0.52 v 0.364 c 1.066,0.078 1.144,0.143 1.144,1.248 v 5.2 c 0,1.105 -0.104,1.196 -1.196,1.274 V 0 h 5.889 c 0.117,-0.403 0.39,-1.638 0.468,-2.041 z M 4.147,-9.828 c -0.039,-0.182 -0.403,-0.689 -0.559,-0.715 -0.598,0.39 -1.339,0.871 -2.041,1.326 l 0.169,0.325 2.405,-0.832 z"
           id="path49781" /></g><g
         aria-label="Ž"
         transform="translate(439,497.19385)"
         id="text168"
         style="font-size:13px;font-family:'Minion Pro';-inkscape-font-specification:'Minion Pro'"><path
           d="m 7.293,-2.288 c -0.234,0.637 -0.442,1.053 -0.715,1.339 -0.364,0.39 -0.845,0.481 -2.47,0.481 -0.897,0 -1.703,-0.026 -2.119,-0.078 1.781,-2.639 3.562,-5.161 5.369,-7.735 L 7.267,-8.45 H 2.08 c -0.39,0 -0.533,-0.026 -0.689,-0.325 H 1.079 C 1.053,-8.19 0.988,-7.215 0.923,-6.396 L 1.3,-6.383 C 1.456,-6.955 1.599,-7.28 1.755,-7.514 1.976,-7.865 2.184,-7.982 3.588,-7.982 h 2.249 c -1.807,2.639 -3.64,5.213 -5.46,7.787 L 0.481,0 H 7.202 C 7.345,-0.533 7.579,-1.742 7.67,-2.21 Z M 5.707,-10.66 c -0.52,0.221 -1.066,0.494 -1.573,0.793 -0.52,-0.312 -1.053,-0.572 -1.573,-0.793 l -0.208,0.325 c 0.559,0.429 1.118,0.858 1.638,1.404 h 0.286 c 0.507,-0.546 1.066,-0.975 1.625,-1.404 z"
           id="path49778" /></g><g
         aria-label="A"
         transform="translate(463,497.19385)"
         id="text172"
         style="font-size:13px;font-family:'Minion Pro';-inkscape-font-specification:'Minion Pro'"><path
           d="M 8.749,0 V -0.364 C 7.904,-0.442 7.722,-0.559 7.319,-1.677 6.487,-3.939 5.616,-6.422 4.81,-8.645 L 4.407,-8.528 1.716,-1.716 C 1.274,-0.559 1.092,-0.481 0.26,-0.364 V 0 H 3.094 V -0.364 C 2.106,-0.455 2.002,-0.585 2.275,-1.404 2.444,-1.95 2.639,-2.496 2.847,-3.081 h 2.769 c 0.286,0.793 0.546,1.495 0.715,2.002 0.169,0.507 0.052,0.611 -0.767,0.715 V 0 Z M 5.434,-3.64 H 3.042 C 3.445,-4.706 3.848,-5.85 4.264,-6.955 H 4.29 Z"
           id="path49775" /></g><g
         aria-label="N"
         transform="translate(486,497.19385)"
         id="text176"
         style="font-size:13px;font-family:'Minion Pro';-inkscape-font-specification:'Minion Pro'"><path
           d="M 9.347,-8.45 H 6.279 v 0.364 c 0.91,0.039 1.209,0.208 1.274,0.806 0.052,0.364 0.091,0.949 0.091,2.158 v 3.198 H 7.605 L 2.171,-8.45 H 0.26 v 0.364 c 0.611,0.052 0.884,0.156 1.157,0.481 0.234,0.299 0.26,0.364 0.26,1.313 v 2.86 c 0,1.183 -0.039,1.82 -0.078,2.223 -0.065,0.637 -0.403,0.806 -1.144,0.845 V 0 H 3.536 V -0.364 C 2.652,-0.416 2.353,-0.572 2.288,-1.235 2.249,-1.612 2.21,-2.236 2.21,-3.432 v -3.263 h 0.026 l 5.538,6.812 h 0.403 v -5.239 c 0,-1.209 0.026,-1.794 0.078,-2.197 0.052,-0.559 0.364,-0.728 1.092,-0.767 z"
           id="path49772" /></g><g
         aria-label="I"
         transform="translate(513,497.19385)"
         id="text180"
         style="font-size:13px;font-family:'Minion Pro';-inkscape-font-specification:'Minion Pro'"><path
           d="M 3.939,0 V -0.364 C 2.873,-0.442 2.769,-0.507 2.769,-1.625 v -5.2 c 0,-1.105 0.104,-1.183 1.17,-1.261 V -8.45 H 0.494 v 0.364 c 1.066,0.078 1.17,0.156 1.17,1.261 v 5.2 c 0,1.105 -0.104,1.183 -1.17,1.261 V 0 Z"
           id="path49769" /></g><g
         aria-label="Ô"
         transform="translate(535,497.19385)"
         id="text184"
         style="font-size:13px;font-family:'Minion Pro';-inkscape-font-specification:'Minion Pro'"><path
           d="m 4.953,-8.645 c -2.743,0 -4.381,2.171 -4.381,4.511 0,2.509 1.872,4.329 4.225,4.329 2.379,0 4.342,-1.716 4.342,-4.524 0,-2.613 -1.989,-4.316 -4.186,-4.316 z m -0.286,0.468 c 1.716,0 3.146,1.456 3.146,4.199 0,2.496 -1.287,3.705 -2.743,3.705 -1.833,0 -3.172,-1.781 -3.172,-4.225 0,-2.444 1.326,-3.679 2.769,-3.679 z m 1.95,-1.131 C 6.058,-9.737 5.486,-10.166 4.992,-10.699 H 4.706 c -0.494,0.533 -1.079,0.962 -1.638,1.391 l 0.208,0.325 c 0.52,-0.221 1.053,-0.52 1.56,-0.806 0.52,0.299 1.053,0.585 1.573,0.806 z"
           id="path49766" /></g><g
         aria-label="K"
         transform="translate(559,497.19385)"
         id="text188"
         style="font-size:13px;font-family:'Minion Pro';-inkscape-font-specification:'Minion Pro'"><path
           d="M 8.671,0 V -0.364 C 8.047,-0.442 7.787,-0.559 7.098,-1.3 6.448,-2.002 5.018,-3.601 4.043,-4.836 4.914,-5.72 5.837,-6.656 6.344,-7.111 7.163,-7.865 7.475,-7.995 8.45,-8.086 V -8.45 H 5.33 v 0.364 l 0.299,0.039 c 0.585,0.065 0.598,0.195 0.208,0.663 -0.585,0.715 -1.456,1.625 -2.171,2.314 -0.364,0.338 -0.624,0.52 -0.91,0.585 V -6.76 c 0,-1.157 0.13,-1.248 1.131,-1.326 V -8.45 H 0.533 v 0.364 c 1.027,0.078 1.131,0.143 1.131,1.326 v 5.096 c 0,1.131 -0.104,1.222 -1.092,1.3 V 0 h 3.38 V -0.364 C 2.873,-0.442 2.756,-0.533 2.756,-1.664 v -2.47 c 0.221,-0.039 0.39,0 0.702,0.351 1.157,1.378 2.21,2.652 3.224,3.783 z"
           id="path49763" /></g><g
         aria-label="R"
         transform="translate(342,518.19385)"
         id="text192"
         style="font-size:13px;font-family:'Minion Pro';-inkscape-font-specification:'Minion Pro'"><path
           d="M 8.203,-0.234 C 7.917,-0.312 7.605,-0.455 7.267,-0.845 6.942,-1.183 6.682,-1.521 6.214,-2.197 5.824,-2.782 5.278,-3.653 5.057,-4.069 6.006,-4.498 6.708,-5.187 6.708,-6.305 6.708,-7.085 6.37,-7.67 5.837,-8.008 5.356,-8.333 4.719,-8.45 3.77,-8.45 H 0.546 v 0.364 c 1.014,0.091 1.118,0.13 1.118,1.235 v 5.226 c 0,1.105 -0.104,1.183 -1.17,1.261 V 0 H 3.9 V -0.364 C 2.873,-0.442 2.756,-0.52 2.756,-1.625 v -2.067 h 0.416 c 0.663,0 0.884,0.156 1.105,0.52 0.39,0.637 0.858,1.443 1.313,2.08 0.585,0.845 1.118,1.131 2.106,1.183 0.143,0.013 0.299,0.013 0.455,0.013 z M 2.756,-4.108 v -3.211 c 0,-0.364 0.039,-0.507 0.143,-0.572 0.104,-0.078 0.325,-0.13 0.702,-0.13 0.975,0 1.898,0.52 1.898,1.924 0,0.702 -0.208,1.222 -0.715,1.612 -0.325,0.273 -0.754,0.377 -1.404,0.377 z"
           id="path49760" /></g><g
         aria-label="E"
         transform="translate(367,518.19385)"
         id="text196"
         style="font-size:13px;font-family:'Minion Pro';-inkscape-font-specification:'Minion Pro'"><path
           d="m 6.721,-2.106 c -0.182,0.507 -0.429,0.962 -0.65,1.222 -0.286,0.338 -0.65,0.442 -1.638,0.442 -0.65,0 -1.105,0 -1.352,-0.169 C 2.847,-0.767 2.769,-1.053 2.769,-1.664 v -2.457 h 1.235 c 1.131,0 1.222,0.078 1.391,1.001 H 5.772 V -5.603 H 5.395 C 5.239,-4.732 5.174,-4.628 3.991,-4.628 H 2.769 v -2.964 c 0,-0.377 0.026,-0.416 0.429,-0.416 h 0.988 c 0.936,0 1.287,0.091 1.469,0.377 0.169,0.273 0.299,0.559 0.416,1.105 L 6.448,-6.578 C 6.409,-7.241 6.344,-8.125 6.344,-8.45 H 0.546 v 0.364 c 1.014,0.078 1.118,0.13 1.118,1.287 v 5.174 c 0,1.066 -0.104,1.17 -1.287,1.261 V 0 H 6.643 C 6.76,-0.403 7.02,-1.625 7.098,-2.054 Z"
           id="path49757" /></g><g
         aria-label="Č"
         transform="translate(390,518.19385)"
         id="text200"
         style="font-size:13px;font-family:'Minion Pro';-inkscape-font-specification:'Minion Pro'"><path
           d="m 7.982,-2.275 c -0.65,1.287 -1.352,2.002 -2.678,2.002 -1.976,0 -3.406,-1.664 -3.406,-4.095 0,-1.976 1.157,-3.809 3.328,-3.809 1.404,0 2.184,0.559 2.535,1.937 L 8.138,-6.331 C 8.06,-7.033 7.982,-7.566 7.878,-8.294 7.514,-8.359 6.63,-8.645 5.577,-8.645 c -2.899,0 -5.005,1.794 -5.005,4.537 0,2.067 1.417,4.303 4.654,4.303 0.936,0 2.028,-0.26 2.392,-0.338 0.234,-0.442 0.559,-1.404 0.741,-2.002 z m -1.248,-8.593 c -0.52,0.221 -1.066,0.507 -1.573,0.806 -0.52,-0.312 -1.053,-0.585 -1.573,-0.806 L 3.38,-10.53 c 0.559,0.429 1.118,0.845 1.638,1.391 h 0.286 c 0.507,-0.533 1.066,-0.975 1.625,-1.391 z"
           id="path49754" /></g><g
         aria-label="Í"
         transform="translate(417,518.19385)"
         id="text204"
         style="font-size:13px;font-family:'Minion Pro';-inkscape-font-specification:'Minion Pro'"><path
           d="M 3.939,0 V -0.364 C 2.873,-0.442 2.769,-0.507 2.769,-1.625 v -5.2 c 0,-1.105 0.104,-1.183 1.17,-1.261 V -8.45 H 0.494 v 0.364 c 1.066,0.078 1.17,0.156 1.17,1.261 v 5.2 c 0,1.105 -0.104,1.183 -1.17,1.261 V 0 Z m 0.117,-9.828 c -0.039,-0.182 -0.403,-0.689 -0.559,-0.715 -0.598,0.39 -1.339,0.884 -2.041,1.326 l 0.169,0.325 2.405,-0.832 z"
           id="path49751" /></g><g
         aria-label="N"
         transform="translate(438,518.19385)"
         id="text208"
         style="font-size:13px;font-family:'Minion Pro';-inkscape-font-specification:'Minion Pro'"><path
           d="M 9.347,-8.45 H 6.279 v 0.364 c 0.91,0.039 1.209,0.208 1.274,0.806 0.052,0.364 0.091,0.949 0.091,2.158 v 3.198 H 7.605 L 2.171,-8.45 H 0.26 v 0.364 c 0.611,0.052 0.884,0.156 1.157,0.481 0.234,0.299 0.26,0.364 0.26,1.313 v 2.86 c 0,1.183 -0.039,1.82 -0.078,2.223 -0.065,0.637 -0.403,0.806 -1.144,0.845 V 0 H 3.536 V -0.364 C 2.652,-0.416 2.353,-0.572 2.288,-1.235 2.249,-1.612 2.21,-2.236 2.21,-3.432 v -3.263 h 0.026 l 5.538,6.812 h 0.403 v -5.239 c 0,-1.209 0.026,-1.794 0.078,-2.197 0.052,-0.559 0.364,-0.728 1.092,-0.767 z"
           id="path49748" /></g><g
         aria-label="F"
         transform="translate(463,518.19385)"
         id="text212"
         style="font-size:13px;font-family:'Minion Pro';-inkscape-font-specification:'Minion Pro'"><path
           d="M 6.409,-6.539 C 6.357,-7.163 6.292,-7.982 6.279,-8.45 h -5.72 v 0.364 c 1.001,0.078 1.105,0.143 1.105,1.261 v 5.187 c 0,1.118 -0.104,1.196 -1.144,1.274 V 0 H 4.056 V -0.364 C 2.873,-0.442 2.769,-0.52 2.769,-1.638 v -2.353 h 1.339 c 1.183,0 1.248,0.143 1.404,1.04 H 5.889 V -5.46 H 5.512 C 5.356,-4.615 5.291,-4.498 4.108,-4.498 H 2.769 v -3.094 c 0,-0.377 0.039,-0.416 0.429,-0.416 h 0.988 c 0.988,0 1.261,0.117 1.482,0.481 0.169,0.26 0.247,0.52 0.364,1.04 z"
           id="path49745" /></g><g
         aria-label="I"
         transform="translate(489,518.19385)"
         id="text216"
         style="font-size:13px;font-family:'Minion Pro';-inkscape-font-specification:'Minion Pro'"><path
           d="M 3.939,0 V -0.364 C 2.873,-0.442 2.769,-0.507 2.769,-1.625 v -5.2 c 0,-1.105 0.104,-1.183 1.17,-1.261 V -8.45 H 0.494 v 0.364 c 1.066,0.078 1.17,0.156 1.17,1.261 v 5.2 c 0,1.105 -0.104,1.183 -1.17,1.261 V 0 Z"
           id="path49742" /></g><g
         aria-label="A"
         transform="translate(511,518.19385)"
         id="text220"
         style="font-size:13px;font-family:'Minion Pro';-inkscape-font-specification:'Minion Pro'"><path
           d="M 8.749,0 V -0.364 C 7.904,-0.442 7.722,-0.559 7.319,-1.677 6.487,-3.939 5.616,-6.422 4.81,-8.645 L 4.407,-8.528 1.716,-1.716 C 1.274,-0.559 1.092,-0.481 0.26,-0.364 V 0 H 3.094 V -0.364 C 2.106,-0.455 2.002,-0.585 2.275,-1.404 2.444,-1.95 2.639,-2.496 2.847,-3.081 h 2.769 c 0.286,0.793 0.546,1.495 0.715,2.002 0.169,0.507 0.052,0.611 -0.767,0.715 V 0 Z M 5.434,-3.64 H 3.042 C 3.445,-4.706 3.848,-5.85 4.264,-6.955 H 4.29 Z"
           id="path49739" /></g><g
         aria-label="Ž"
         transform="translate(535,518.19385)"
         id="text224"
         style="font-size:13px;font-family:'Minion Pro';-inkscape-font-specification:'Minion Pro'"><path
           d="m 7.293,-2.288 c -0.234,0.637 -0.442,1.053 -0.715,1.339 -0.364,0.39 -0.845,0.481 -2.47,0.481 -0.897,0 -1.703,-0.026 -2.119,-0.078 1.781,-2.639 3.562,-5.161 5.369,-7.735 L 7.267,-8.45 H 2.08 c -0.39,0 -0.533,-0.026 -0.689,-0.325 H 1.079 C 1.053,-8.19 0.988,-7.215 0.923,-6.396 L 1.3,-6.383 C 1.456,-6.955 1.599,-7.28 1.755,-7.514 1.976,-7.865 2.184,-7.982 3.588,-7.982 h 2.249 c -1.807,2.639 -3.64,5.213 -5.46,7.787 L 0.481,0 H 7.202 C 7.345,-0.533 7.579,-1.742 7.67,-2.21 Z M 5.707,-10.66 c -0.52,0.221 -1.066,0.494 -1.573,0.793 -0.52,-0.312 -1.053,-0.572 -1.573,-0.793 l -0.208,0.325 c 0.559,0.429 1.118,0.858 1.638,1.404 h 0.286 c 0.507,-0.546 1.066,-0.975 1.625,-1.404 z"
           id="path49736" /></g><g
         aria-label="E"
         transform="translate(559,518.19385)"
         id="text228"
         style="font-size:13px;font-family:'Minion Pro';-inkscape-font-specification:'Minion Pro'"><path
           d="m 6.721,-2.106 c -0.182,0.507 -0.429,0.962 -0.65,1.222 -0.286,0.338 -0.65,0.442 -1.638,0.442 -0.65,0 -1.105,0 -1.352,-0.169 C 2.847,-0.767 2.769,-1.053 2.769,-1.664 v -2.457 h 1.235 c 1.131,0 1.222,0.078 1.391,1.001 H 5.772 V -5.603 H 5.395 C 5.239,-4.732 5.174,-4.628 3.991,-4.628 H 2.769 v -2.964 c 0,-0.377 0.026,-0.416 0.429,-0.416 h 0.988 c 0.936,0 1.287,0.091 1.469,0.377 0.169,0.273 0.299,0.559 0.416,1.105 L 6.448,-6.578 C 6.409,-7.241 6.344,-8.125 6.344,-8.45 H 0.546 v 0.364 c 1.014,0.078 1.118,0.13 1.118,1.287 v 5.174 c 0,1.066 -0.104,1.17 -1.287,1.261 V 0 H 6.643 C 6.76,-0.403 7.02,-1.625 7.098,-2.054 Z"
           id="path49733" /></g><g
         aria-label="P"
         transform="translate(343,539.19385)"
         id="text232"
         style="font-size:13px;font-family:'Minion Pro';-inkscape-font-specification:'Minion Pro'"><path
           d="m 0.598,-8.45 v 0.364 c 0.962,0.065 1.066,0.117 1.066,1.261 v 5.2 c 0,1.079 -0.104,1.183 -1.144,1.261 V 0 H 4.043 V -0.364 C 2.873,-0.442 2.756,-0.507 2.756,-1.612 v -2.041 l 0.962,0.247 c 0.143,0.013 0.39,0.013 0.585,-0.013 1.274,-0.156 2.535,-0.975 2.535,-2.665 0,-0.845 -0.325,-1.443 -0.832,-1.833 C 5.486,-8.294 4.732,-8.45 3.809,-8.45 Z m 2.158,1.183 c 0,-0.377 0.039,-0.533 0.143,-0.611 0.091,-0.091 0.364,-0.156 0.728,-0.156 1.066,0 1.963,0.598 1.963,2.002 0,1.651 -1.04,2.106 -1.885,2.106 -0.429,0 -0.78,-0.091 -0.949,-0.156 z"
           id="path49730" /></g><g
         aria-label="Ä"
         transform="translate(367,539.19385)"
         id="text236"
         style="font-size:13px;font-family:'Minion Pro';-inkscape-font-specification:'Minion Pro'"><path
           d="M 8.749,0 V -0.364 C 7.904,-0.442 7.722,-0.559 7.319,-1.677 6.487,-3.939 5.616,-6.422 4.81,-8.645 L 4.407,-8.528 1.729,-1.716 C 1.274,-0.559 1.092,-0.481 0.26,-0.364 V 0 H 3.094 V -0.364 C 2.106,-0.455 2.002,-0.585 2.275,-1.404 2.457,-1.95 2.639,-2.496 2.847,-3.081 h 2.769 c 0.286,0.793 0.533,1.495 0.702,2.002 0.169,0.507 0.052,0.611 -0.767,0.715 V 0 Z M 5.434,-3.64 H 3.055 c 0.39,-1.066 0.793,-2.21 1.209,-3.315 H 4.29 Z m 0.403,-6.682 c -0.338,0 -0.624,0.286 -0.624,0.65 0,0.338 0.286,0.624 0.611,0.624 0.351,0 0.624,-0.286 0.624,-0.624 0,-0.364 -0.273,-0.65 -0.611,-0.65 z m -2.483,0 c -0.338,0 -0.624,0.286 -0.624,0.65 0,0.338 0.286,0.624 0.611,0.624 0.351,0 0.624,-0.286 0.624,-0.624 0,-0.364 -0.273,-0.65 -0.611,-0.65 z"
           id="path49727" /></g><g
         aria-label="T"
         transform="translate(391,539.19385)"
         id="text240"
         style="font-size:13px;font-family:'Minion Pro';-inkscape-font-specification:'Minion Pro'"><path
           d="M 7.696,-6.474 C 7.618,-7.228 7.566,-8.177 7.553,-8.775 H 7.28 C 7.085,-8.528 6.981,-8.45 6.63,-8.45 H 1.495 C 1.131,-8.45 0.962,-8.476 0.78,-8.775 H 0.52 c -0.026,0.715 -0.091,1.56 -0.156,2.34 h 0.377 c 0.156,-0.572 0.26,-0.949 0.416,-1.17 0.169,-0.286 0.429,-0.403 1.508,-0.403 h 0.806 v 6.409 c 0,1.027 -0.104,1.157 -1.287,1.235 V 0 H 5.902 V -0.364 C 4.68,-0.442 4.576,-0.572 4.576,-1.599 v -6.409 h 0.91 c 0.988,0 1.196,0.104 1.417,0.416 0.143,0.208 0.273,0.533 0.403,1.157 z"
           id="path49724" /></g><g
         aria-label="T"
         transform="translate(415,539.19385)"
         id="text244"
         style="font-size:13px;font-family:'Minion Pro';-inkscape-font-specification:'Minion Pro'"><path
           d="M 7.696,-6.474 C 7.618,-7.228 7.566,-8.177 7.553,-8.775 H 7.28 C 7.085,-8.528 6.981,-8.45 6.63,-8.45 H 1.495 C 1.131,-8.45 0.962,-8.476 0.78,-8.775 H 0.52 c -0.026,0.715 -0.091,1.56 -0.156,2.34 h 0.377 c 0.156,-0.572 0.26,-0.949 0.416,-1.17 0.169,-0.286 0.429,-0.403 1.508,-0.403 h 0.806 v 6.409 c 0,1.027 -0.104,1.157 -1.287,1.235 V 0 H 5.902 V -0.364 C 4.68,-0.442 4.576,-0.572 4.576,-1.599 v -6.409 h 0.91 c 0.988,0 1.196,0.104 1.417,0.416 0.143,0.208 0.273,0.533 0.403,1.157 z"
           id="path49721" /></g><g
         aria-label="A"
         transform="translate(439,539.19385)"
         id="text248"
         style="font-size:13px;font-family:'Minion Pro';-inkscape-font-specification:'Minion Pro'"><path
           d="M 8.749,0 V -0.364 C 7.904,-0.442 7.722,-0.559 7.319,-1.677 6.487,-3.939 5.616,-6.422 4.81,-8.645 L 4.407,-8.528 1.716,-1.716 C 1.274,-0.559 1.092,-0.481 0.26,-0.364 V 0 H 3.094 V -0.364 C 2.106,-0.455 2.002,-0.585 2.275,-1.404 2.444,-1.95 2.639,-2.496 2.847,-3.081 h 2.769 c 0.286,0.793 0.546,1.495 0.715,2.002 0.169,0.507 0.052,0.611 -0.767,0.715 V 0 Z M 5.434,-3.64 H 3.042 C 3.445,-4.706 3.848,-5.85 4.264,-6.955 H 4.29 Z"
           id="path49718" /></g><g
         aria-label="Š"
         transform="translate(463,539.19385)"
         id="text252"
         style="font-size:13px;font-family:'Minion Pro';-inkscape-font-specification:'Minion Pro'"><path
           d="M 5.317,-6.552 C 5.213,-7.371 5.148,-7.891 5.096,-8.346 4.602,-8.502 4.056,-8.645 3.458,-8.645 c -1.677,0 -2.678,1.066 -2.678,2.314 0,1.469 1.313,2.106 2.145,2.561 0.975,0.52 1.69,0.975 1.69,1.937 0,0.949 -0.572,1.56 -1.56,1.56 -1.352,0 -1.937,-1.313 -2.132,-2.106 l -0.39,0.091 c 0.091,0.624 0.26,1.742 0.351,2.015 0.13,0.065 0.325,0.169 0.65,0.273 0.312,0.091 0.741,0.195 1.274,0.195 1.729,0 2.886,-1.092 2.886,-2.457 0,-1.469 -1.222,-2.067 -2.249,-2.6 -1.027,-0.52 -1.651,-0.975 -1.651,-1.924 0,-0.702 0.442,-1.417 1.443,-1.417 1.131,0 1.482,0.897 1.703,1.716 z M 4.81,-10.777 c -0.533,0.221 -1.066,0.507 -1.573,0.806 -0.52,-0.325 -1.053,-0.585 -1.573,-0.806 l -0.208,0.325 c 0.559,0.429 1.118,0.858 1.638,1.404 H 3.38 c 0.507,-0.546 1.066,-0.975 1.625,-1.404 z"
           id="path49715" /></g><g
         aria-label="T"
         transform="translate(487,539.19385)"
         id="text256"
         style="font-size:13px;font-family:'Minion Pro';-inkscape-font-specification:'Minion Pro'"><path
           d="M 7.696,-6.474 C 7.618,-7.228 7.566,-8.177 7.553,-8.775 H 7.28 C 7.085,-8.528 6.981,-8.45 6.63,-8.45 H 1.495 C 1.131,-8.45 0.962,-8.476 0.78,-8.775 H 0.52 c -0.026,0.715 -0.091,1.56 -0.156,2.34 h 0.377 c 0.156,-0.572 0.26,-0.949 0.416,-1.17 0.169,-0.286 0.429,-0.403 1.508,-0.403 h 0.806 v 6.409 c 0,1.027 -0.104,1.157 -1.287,1.235 V 0 H 5.902 V -0.364 C 4.68,-0.442 4.576,-0.572 4.576,-1.599 v -6.409 h 0.91 c 0.988,0 1.196,0.104 1.417,0.416 0.143,0.208 0.273,0.533 0.403,1.157 z"
           id="path49712" /></g><g
         aria-label="I"
         transform="translate(513,539.19385)"
         id="text260"
         style="font-size:13px;font-family:'Minion Pro';-inkscape-font-specification:'Minion Pro'"><path
           d="M 3.939,0 V -0.364 C 2.873,-0.442 2.769,-0.507 2.769,-1.625 v -5.2 c 0,-1.105 0.104,-1.183 1.17,-1.261 V -8.45 H 0.494 v 0.364 c 1.066,0.078 1.17,0.156 1.17,1.261 v 5.2 c 0,1.105 -0.104,1.183 -1.17,1.261 V 0 Z"
           id="path49709" /></g><g
         aria-label="C"
         transform="translate(534,539.19385)"
         id="text264"
         style="font-size:13px;font-family:'Minion Pro';-inkscape-font-specification:'Minion Pro'"><path
           d="m 7.982,-2.275 c -0.65,1.287 -1.352,2.002 -2.678,2.002 -1.976,0 -3.406,-1.664 -3.406,-4.095 0,-1.976 1.157,-3.809 3.328,-3.809 1.404,0 2.184,0.559 2.535,1.937 L 8.138,-6.344 C 8.06,-7.033 7.982,-7.566 7.878,-8.294 7.514,-8.359 6.63,-8.645 5.577,-8.645 c -2.899,0 -5.005,1.794 -5.005,4.537 0,2.067 1.417,4.303 4.654,4.303 0.936,0 2.028,-0.26 2.392,-0.338 0.234,-0.442 0.559,-1.404 0.741,-2.002 z"
           id="path49706" /></g><g
         aria-label="E"
         transform="translate(559,539.19385)"
         id="text268"
         style="font-size:13px;font-family:'Minion Pro';-inkscape-font-specification:'Minion Pro'"><path
           d="m 6.721,-2.106 c -0.182,0.507 -0.429,0.962 -0.65,1.222 -0.286,0.338 -0.65,0.442 -1.638,0.442 -0.65,0 -1.105,0 -1.352,-0.169 C 2.847,-0.767 2.769,-1.053 2.769,-1.664 v -2.457 h 1.235 c 1.131,0 1.222,0.078 1.391,1.001 H 5.772 V -5.603 H 5.395 C 5.239,-4.732 5.174,-4.628 3.991,-4.628 H 2.769 v -2.964 c 0,-0.377 0.026,-0.416 0.429,-0.416 h 0.988 c 0.936,0 1.287,0.091 1.469,0.377 0.169,0.273 0.299,0.559 0.416,1.105 L 6.448,-6.578 C 6.409,-7.241 6.344,-8.125 6.344,-8.45 H 0.546 v 0.364 c 1.014,0.078 1.118,0.13 1.118,1.287 v 5.174 c 0,1.066 -0.104,1.17 -1.287,1.261 V 0 H 6.643 C 6.76,-0.403 7.02,-1.625 7.098,-2.054 Z"
           id="path49703" /></g><path
         style="fill:none;stroke:#000000;stroke-width:2;stroke-linecap:butt;stroke-linejoin:bevel;stroke-miterlimit:4;stroke-dasharray:none;stroke-opacity:1"
         d="m 313.12567,453.13411 h 12.73556"
         id="path31546" /><path
         id="path31550-3"
         style="fill:none;stroke:#000000;stroke-width:2;stroke-linecap:square;stroke-linejoin:miter;stroke-miterlimit:4;stroke-dasharray:none;stroke-opacity:1"
         d="m 325.86123,453.13411 -4.24884,4.24885 m 4.24884,-4.24885 -4.24884,-4.24885" /><g
         aria-label="1, 10, 3, 7, 12, 5"
         id="text52617"
         style="font-size:16px;line-height:1.25;font-family:'Fira Code';-inkscape-font-specification:'Fira Code';letter-spacing:0px;word-spacing:0px;stroke-width:0.333333"><path
           d="m 401.30693,563.42993 v -0.432 c -1.456,-0.112 -1.552,-0.24 -1.552,-1.392 v -8.336 c -0.88,0.352 -1.84,0.656 -2.848,0.832 v 0.384 l 0.768,0.032 c 0.704,0.032 0.768,0.112 0.768,0.928 v 6.16 c 0,1.152 -0.096,1.28 -1.536,1.392 v 0.432 z"
           style="font-family:'Minion Pro';-inkscape-font-specification:'Minion Pro'"
           id="path69657" /><path
           d="m 404.36293,561.34993 c -0.4,0 -0.784,0.272 -0.784,0.672 0,0.256 0.128,0.384 0.208,0.384 0.544,0.144 0.992,0.496 0.992,1.072 0,0.608 -0.448,1.04 -1.232,1.36 l 0.176,0.464 c 0.992,-0.304 2.096,-0.976 2.096,-2.224 0,-1.104 -0.88,-1.728 -1.456,-1.728 z"
           style="font-family:'Minion Pro';-inkscape-font-specification:'Minion Pro'"
           id="path69659" /><path
           d="m 416.26689,563.42993 v -0.432 c -1.456,-0.112 -1.552,-0.24 -1.552,-1.392 v -8.336 c -0.88,0.352 -1.84,0.656 -2.848,0.832 v 0.384 l 0.768,0.032 c 0.704,0.032 0.768,0.112 0.768,0.928 v 6.16 c 0,1.152 -0.096,1.28 -1.536,1.392 v 0.432 z"
           style="font-family:'Minion Pro';-inkscape-font-specification:'Minion Pro'"
           id="path69661" /><path
           d="m 421.65889,553.26993 c -2.432,0 -3.296,2.848 -3.296,5.168 0,2.544 0.864,5.184 3.28,5.184 2.4,0 3.248,-2.848 3.248,-5.184 0,-2.464 -0.848,-5.168 -3.232,-5.168 z m -0.048,0.528 c 1.456,0 1.856,2.368 1.856,4.64 0,2.24 -0.384,4.64 -1.824,4.64 -1.408,0 -1.856,-2.416 -1.856,-4.656 0,-2.24 0.384,-4.624 1.824,-4.624 z"
           style="font-family:'Minion Pro';-inkscape-font-specification:'Minion Pro'"
           id="path69663" /><path
           d="m 427.00288,561.34993 c -0.4,0 -0.784,0.272 -0.784,0.672 0,0.256 0.128,0.384 0.208,0.384 0.544,0.144 0.992,0.496 0.992,1.072 0,0.608 -0.448,1.04 -1.232,1.36 l 0.176,0.464 c 0.992,-0.304 2.096,-0.976 2.096,-2.224 0,-1.104 -0.88,-1.728 -1.456,-1.728 z"
           style="font-family:'Minion Pro';-inkscape-font-specification:'Minion Pro'"
           id="path69665" /><path
           d="m 437.32285,557.38193 c 0.48,-0.32 0.848,-0.608 1.088,-0.864 0.32,-0.304 0.496,-0.672 0.496,-1.136 0,-1.216 -0.944,-2.112 -2.368,-2.112 h -0.016 c -0.848,0 -1.584,0.4 -2.032,0.896 l -0.688,1.008 0.32,0.32 c 0.4,-0.592 1.04,-1.264 1.92,-1.264 0.848,0 1.52,0.512 1.52,1.504 0,1.184 -1.088,1.792 -2.544,2.272 l 0.096,0.464 c 0.256,-0.08 0.656,-0.176 1.024,-0.176 0.912,0 2.032,0.592 2.032,2.064 0,1.568 -0.8,2.432 -1.936,2.432 -0.912,0 -1.568,-0.448 -1.984,-0.816 -0.128,-0.112 -0.256,-0.096 -0.384,0 -0.144,0.112 -0.352,0.32 -0.368,0.528 -0.032,0.192 0.032,0.368 0.256,0.576 0.208,0.192 0.864,0.544 1.6,0.544 1.152,0 4.192,-1.184 4.192,-3.776 0,-1.168 -0.816,-2.16 -2.224,-2.432 z"
           style="font-family:'Minion Pro';-inkscape-font-specification:'Minion Pro'"
           id="path69667" /><path
           d="m 441.96284,561.34993 c -0.4,0 -0.784,0.272 -0.784,0.672 0,0.256 0.128,0.384 0.208,0.384 0.544,0.144 0.992,0.496 0.992,1.072 0,0.608 -0.448,1.04 -1.232,1.36 l 0.176,0.464 c 0.992,-0.304 2.096,-0.976 2.096,-2.224 0,-1.104 -0.88,-1.728 -1.456,-1.728 z"
           style="font-family:'Minion Pro';-inkscape-font-specification:'Minion Pro'"
           id="path69669" /><path
           d="m 454.87481,553.46193 h -6.112 c -0.064,0.688 -0.144,1.488 -0.288,2.368 h 0.464 c 0.384,-1.056 0.48,-1.2 1.536,-1.2 h 3.456 c -1.28,2.784 -3.072,6.08 -4.752,8.816 l 0.112,0.176 1.184,-0.16 c 1.536,-3.296 3.008,-6.56 4.528,-9.808 z"
           style="font-family:'Minion Pro';-inkscape-font-specification:'Minion Pro'"
           id="path69671" /><path
           d="m 456.9228,561.34993 c -0.4,0 -0.784,0.272 -0.784,0.672 0,0.256 0.128,0.384 0.208,0.384 0.544,0.144 0.992,0.496 0.992,1.072 0,0.608 -0.448,1.04 -1.232,1.36 l 0.176,0.464 c 0.992,-0.304 2.096,-0.976 2.096,-2.224 0,-1.104 -0.88,-1.728 -1.456,-1.728 z"
           style="font-family:'Minion Pro';-inkscape-font-specification:'Minion Pro'"
           id="path69673" /><path
           d="m 468.82677,563.42993 v -0.432 c -1.456,-0.112 -1.552,-0.24 -1.552,-1.392 v -8.336 c -0.88,0.352 -1.84,0.656 -2.848,0.832 v 0.384 l 0.768,0.032 c 0.704,0.032 0.768,0.112 0.768,0.928 v 6.16 c 0,1.152 -0.096,1.28 -1.536,1.392 v 0.432 z"
           style="font-family:'Minion Pro';-inkscape-font-specification:'Minion Pro'"
           id="path69675" /><path
           d="m 476.95476,561.18993 c -0.48,1.008 -0.688,1.072 -1.552,1.072 h -2.976 l 2.256,-2.384 c 1.472,-1.568 2.112,-2.512 2.112,-3.904 0,-1.68 -1.28,-2.704 -2.688,-2.704 -0.912,0 -1.664,0.416 -2.16,0.944 l -0.912,1.296 0.352,0.32 c 0.416,-0.624 1.104,-1.488 2.192,-1.488 1.168,0 1.872,0.784 1.872,2.128 0,1.376 -1.008,2.688 -2,3.872 -0.784,0.928 -1.696,1.84 -2.576,2.72 v 0.368 h 5.968 c 0.192,-0.72 0.352,-1.424 0.56,-2.096 z"
           style="font-family:'Minion Pro';-inkscape-font-specification:'Minion Pro'"
           id="path69677" /><path
           d="m 479.56276,561.34993 c -0.4,0 -0.784,0.272 -0.784,0.672 0,0.256 0.128,0.384 0.208,0.384 0.544,0.144 0.992,0.496 0.992,1.072 0,0.608 -0.448,1.04 -1.232,1.36 l 0.176,0.464 c 0.992,-0.304 2.096,-0.976 2.096,-2.224 0,-1.104 -0.88,-1.728 -1.456,-1.728 z"
           style="font-family:'Minion Pro';-inkscape-font-specification:'Minion Pro'"
           id="path69679" /><path
           d="m 487.77072,554.62993 h 3.728 l 0.416,-1.04 -0.096,-0.128 h -4.576 l -0.608,4.88 c 0.352,-0.144 0.96,-0.32 1.632,-0.32 1.76,0 2.608,1.008 2.608,2.416 0,1.2 -0.672,2.368 -2.016,2.368 -0.976,0 -1.632,-0.512 -1.984,-0.8 -0.144,-0.128 -0.272,-0.112 -0.416,-0.016 -0.192,0.16 -0.336,0.368 -0.352,0.528 -0.016,0.192 0.048,0.336 0.272,0.544 0.224,0.224 0.912,0.56 1.648,0.56 0.832,-0.016 1.904,-0.432 2.768,-1.136 0.976,-0.8 1.424,-1.696 1.424,-2.656 0,-1.328 -1.04,-2.72 -3.088,-2.72 -0.416,0 -1.168,0.256 -1.776,0.496 z"
           style="font-family:'Minion Pro';-inkscape-font-specification:'Minion Pro'"
           id="path69681" /></g></g></g></svg>
