<?xml version="1.0" encoding="UTF-8" standalone="no"?>
<svg
   xmlns:dc="http://purl.org/dc/elements/1.1/"
   xmlns:cc="http://creativecommons.org/ns#"
   xmlns:rdf="http://www.w3.org/1999/02/22-rdf-syntax-ns#"
   xmlns:svg="http://www.w3.org/2000/svg"
   xmlns="http://www.w3.org/2000/svg"
   xmlns:sodipodi="http://sodipodi.sourceforge.net/DTD/sodipodi-0.dtd"
   xmlns:inkscape="http://www.inkscape.org/namespaces/inkscape"
   height="210"
   width="560"
   version="1.1"
   id="svg54"
   sodipodi:docname="1.7_vzorak.svg"
   inkscape:version="1.0.2 (e86c870879, 2021-01-15)">
  <metadata
     id="metadata60">
    <rdf:RDF>
      <cc:Work
         rdf:about="">
        <dc:format>image/svg+xml</dc:format>
        <dc:type
           rdf:resource="http://purl.org/dc/dcmitype/StillImage" />
        <dc:title></dc:title>
      </cc:Work>
    </rdf:RDF>
  </metadata>
  <defs
     id="defs58" />
  <sodipodi:namedview
     pagecolor="#ffffff"
     bordercolor="#666666"
     borderopacity="1"
     objecttolerance="10"
     gridtolerance="10"
     guidetolerance="10"
     inkscape:pageopacity="0"
     inkscape:pageshadow="2"
     inkscape:window-width="1920"
     inkscape:window-height="1001"
     id="namedview56"
     showgrid="false"
     inkscape:zoom="1.5048814"
     inkscape:cx="313.16016"
     inkscape:cy="100.26939"
     inkscape:window-x="-9"
     inkscape:window-y="-9"
     inkscape:window-maximized="1"
     inkscape:current-layer="svg54" />
  <g
     fill="#bbdd99"
     id="g4"
     style="stroke:#000000;stroke-width:0.25;stroke-linecap:round"
     transform="translate(-187.5)">
    <path
       d="m 305,30 h 25 v 25 h -25 z m 25,0 h 25 v 25 h -25 z m -25,25 h 25 v 25 h -25 z m 25,0 h 25 v 25 h -25 z m -25,25 h 25 v 25 h -25 z"
       id="path2" />
  </g>
  <g
     fill="#dd99bb"
     id="g8"
     style="stroke:#000000;stroke-width:0.25;stroke-linecap:round">
    <path
       d="m 480,130 h 25 v 25 h -25 z m 25,0 h 25 v 25 h -25 z m 0,25 h 25 v 25 h -25 z m 0,25 h 25 v 25 h -25 z m 25,0 h 25 v 25 h -25 z"
       id="path6" />
  </g>
  <g
     fill="#aaaaee"
     id="g12"
     style="stroke:#000000;stroke-width:0.25;stroke-linecap:round">
    <path
       d="m 255,130 h 25 v 25 h -25 z m -25,25 h 25 v 25 h -25 z m 25,0 h 25 v 25 h -25 z m -50,25 h 25 v 25 h -25 z m 25,0 h 25 v 25 h -25 z"
       id="path10" />
  </g>
  <g
     fill="#99bbdd"
     id="g16"
     style="stroke:#000000;stroke-width:0.25;stroke-linecap:round">
    <path
       d="m 155,130 h 25 v 25 h -25 z m 0,25 h 25 v 25 h -25 z m -50,25 h 25 v 25 h -25 z m 25,0 h 25 v 25 h -25 z m 25,0 h 25 v 25 h -25 z"
       id="path14" />
  </g>
  <g
     fill="#aaeeaa"
     id="g20"
     style="stroke:#000000;stroke-width:0.25;stroke-linecap:round">
    <path
       d="m 405,5 h 25 v 25 h -25 z m 0,25 h 25 v 25 h -25 z m -25,25 h 25 v 25 h -25 z m 25,0 h 25 v 25 h -25 z m -25,25 h 25 v 25 h -25 z"
       id="path18" />
  </g>
  <g
     fill="#cc88cc"
     id="g24"
     style="stroke:#000000;stroke-width:0.25;stroke-linecap:round">
    <path
       d="m 430,105 h 25 v 25 h -25 z m -25,25 h 25 v 25 h -25 z m 25,0 h 25 v 25 h -25 z m 0,25 h 25 v 25 h -25 z m 0,25 h 25 v 25 h -25 z"
       id="path22" />
  </g>
  <g
     fill="#ddbb99"
     id="g28"
     style="stroke:#000000;stroke-width:0.25;stroke-linecap:round"
     transform="translate(183.5)">
    <path
       d="m 130,30 h 25 v 25 h -25 z m 25,0 h 25 v 25 h -25 z m -50,25 h 25 v 25 h -25 z m 25,0 h 25 v 25 h -25 z m 0,25 h 25 v 25 h -25 z"
       id="path26" />
  </g>
  <g
     fill="#cccc88"
     id="g32"
     style="stroke:#000000;stroke-width:0.25;stroke-linecap:round"
     transform="translate(-20)">
    <path
       d="m 230,5 h 25 v 25 h -25 z m 0,25 h 25 v 25 h -25 z m 0,25 h 25 v 25 h -25 z m 0,25 h 25 v 25 h -25 z m 25,0 h 25 v 25 h -25 z"
       id="path30" />
  </g>
  <g
     fill="#88cccc"
     id="g36"
     style="stroke:#000000;stroke-width:0.25;stroke-linecap:round">
    <path
       d="m 5,155 h 25 v 25 H 5 Z m 50,0 h 25 v 25 H 55 Z M 5,180 h 25 v 25 H 5 Z m 25,0 h 25 v 25 H 30 Z m 25,0 h 25 v 25 H 55 Z"
       id="path34" />
  </g>
  <g
     fill="#eeaaaa"
     id="g40"
     style="stroke:#000000;stroke-width:0.25;stroke-linecap:round">
    <path
       d="M 30,5 H 55 V 30 H 30 Z m 0,25 H 55 V 55 H 30 Z m 0,25 H 55 V 80 H 30 Z m 0,25 h 25 v 25 H 30 Z m 0,25 h 25 v 25 H 30 Z"
       id="path38" />
  </g>
  <g
     fill="#99ddbb"
     id="g44"
     style="stroke:#000000;stroke-width:0.25;stroke-linecap:round">
    <path
       d="m 455,30 h 25 v 25 h -25 z m 25,0 h 25 v 25 h -25 z m 25,0 h 25 v 25 h -25 z m -25,25 h 25 v 25 h -25 z m 0,25 h 25 v 25 h -25 z"
       id="path42" />
  </g>
  <g
     fill="#bb99dd"
     id="g48"
     style="stroke:#000000;stroke-width:0.25;stroke-linecap:round">
    <path
       d="m 330,130 h 25 v 25 h -25 z m -25,25 h 25 v 25 h -25 z m 25,0 h 25 v 25 h -25 z m 25,0 h 25 v 25 h -25 z m -25,25 h 25 v 25 h -25 z"
       id="path46" />
  </g>
  <path
     d="m 30,5 h 25 m 155,0 h 25 m 170,0 h 25 M 314,30 h 25 m 0,0 h 25 m -247,0 h 25 m 0,0 h 25 m 288,0 h 25 m 0,0 h 25 m 0,0 h 25 M 289,55 h 25 m 25,0 h 25 m 16,0 h 25 m 50,0 h 25 m 25,0 h 25 M 289,80 h 25 m -79,0 h 25 m -118,0 h 25 m 238,0 h 25 m -116,25 h 25 m -129,0 h 25 m 0,0 h 25 m -143,0 h 25 m 238,0 h 25 m 25,0 h 25 m 25,0 h 25 M 30,130 h 25 m 100,0 h 25 m 75,0 h 25 m 50,0 h 25 m 50,0 h 25 m 50,0 h 25 m 0,0 h 25 M 5,155 h 25 m 25,0 h 25 m 150,0 h 25 m 50,0 h 25 m 25,0 h 25 m 25,0 h 25 m 50,0 h 25 M 30,180 h 25 m 50,0 h 25 m 0,0 h 25 m 50,0 h 25 m 25,0 h 25 m 25,0 h 25 m 25,0 h 25 m 150,0 h 25 M 5,205 h 25 m 0,0 h 25 m 0,0 h 25 m 25,0 h 25 m 0,0 h 25 m 0,0 h 25 m 25,0 h 25 m 0,0 h 25 m 75,0 h 25 m 75,0 h 25 m 50,0 h 25 m 0,0 h 25 M 30,5 V 30 M 55,5 V 30 M 210,5 V 30 M 235,5 V 30 M 405,5 V 30 M 430,5 V 30 M 30,30 V 55 M 55,30 V 55 M 314,30 V 55 M 364,30 V 55 M 210,30 V 55 M 235,30 V 55 M 117,30 V 55 M 167,30 V 55 M 405,30 V 55 M 430,30 V 55 M 455,30 V 55 M 530,30 V 55 M 30,55 V 80 M 55,55 V 80 M 289,55 V 80 M 339,55 V 80 M 210,55 V 80 M 235,55 V 80 M 117,55 V 80 M 167,55 V 80 M 380,55 V 80 M 430,55 V 80 M 480,55 V 80 M 505,55 V 80 M 30,80 v 25 M 55,80 v 25 M 314,80 v 25 m 25,-25 v 25 M 210,80 v 25 m 50,-25 v 25 M 117,80 v 25 m 25,-25 v 25 M 380,80 v 25 m 25,-25 v 25 m 75,-25 v 25 m 25,-25 v 25 m -475,0 v 25 m 25,-25 v 25 m 375,-25 v 25 m 25,-25 v 25 m -300,0 v 25 m 25,-25 v 25 m 75,-25 v 25 m 25,-25 v 25 m 50,-25 v 25 m 25,-25 v 25 m 50,-25 v 25 m 50,-25 v 25 m 25,-25 v 25 m 50,-25 v 25 M 5,155 v 25 m 25,-25 v 25 m 25,-25 v 25 m 25,-25 v 25 m 75,-25 v 25 m 25,-25 v 25 m 50,-25 v 25 m 50,-25 v 25 m 25,-25 v 25 m 75,-25 v 25 m 50,-25 v 25 m 25,-25 v 25 m 50,-25 v 25 m 25,-25 v 25 M 5,180 v 25 m 75,-25 v 25 m 25,-25 v 25 m 75,-25 v 25 m 25,-25 v 25 m 50,-25 v 25 m 75,-25 v 25 m 25,-25 v 25 m 75,-25 v 25 m 25,-25 v 25 m 50,-25 v 25 m 50,-25 v 25"
     stroke-width="3"
     id="path50"
     style="stroke:#000000;stroke-linecap:round"
     sodipodi:nodetypes="cccccccccccccccccccccccccccccccccccccccccccccccccccccccccccccccccccccccccccccccccccccccccccccccccccccccccccccccccccccccccccccccccccccccccccccccccccccccccccccccccccccccccccccccccccccccccccccccccccccccccccccccccccccccccccccccccccccccccccccccccccccccccccccccccccccccccccccccccccccccccccc" />
</svg>
