<svg version="1.1"
     width="400" height="300"
     xmlns="http://www.w3.org/2000/svg">

  <rect x="0" y="0" width="100" height="100" stroke="black" stroke-width="5" fill="none" />
  <text x="50" y="65" font-size="30" text-anchor="middle" fill="black">W</text>
  <text x="10" y="60" font-size="20" text-anchor="middle" fill="black">R</text>
  <text x="90" y="60" font-size="20" text-anchor="middle" fill="black">T</text>
  <text x="50" y="20" font-size="20" text-anchor="middle" fill="black">O</text>
  <text x="50" y="95" font-size="20" text-anchor="middle" fill="black">G</text>
  <text x="70" y="75" font-size="15" text-anchor="middle" fill="black">H</text>
  
  <rect x="100" y="0" width="100" height="100" stroke="black" stroke-width="5" fill="none" />
  <text x="150" y="65" font-size="30" text-anchor="middle" fill="black">M</text>
  <text x="110" y="60" font-size="20" text-anchor="middle" fill="black">A</text>
  <text x="190" y="60" font-size="20" text-anchor="middle" fill="black">N</text>
  <text x="150" y="20" font-size="20" text-anchor="middle" fill="black">L</text>
  <text x="150" y="95" font-size="20" text-anchor="middle" fill="black">E</text>
  <text x="170" y="75" font-size="15" text-anchor="middle" fill="black">P</text>
  
  <rect x="200" y="0" width="100" height="100" stroke="black" stroke-width="5" fill="none" />
  <text x="250" y="65" font-size="30" text-anchor="middle" fill="black">J</text>
  <text x="210" y="60" font-size="20" text-anchor="middle" fill="black">I</text>
  <text x="290" y="60" font-size="20" text-anchor="middle" fill="black">E</text>
  <text x="250" y="20" font-size="20" text-anchor="middle" fill="black">F</text>
  <text x="250" y="95" font-size="20" text-anchor="middle" fill="black">U</text>
  <text x="270" y="75" font-size="15" text-anchor="middle" fill="black">X</text>
  
  <rect x="300" y="0" width="100" height="100" stroke="black" stroke-width="5" fill="none" />
  <text x="350" y="65" font-size="30" text-anchor="middle" fill="black">Q</text>
  <text x="310" y="60" font-size="20" text-anchor="middle" fill="black">R</text>
  <text x="390" y="60" font-size="20" text-anchor="middle" fill="black">U</text>
  <text x="350" y="20" font-size="20" text-anchor="middle" fill="black">A</text>
  <text x="350" y="95" font-size="20" text-anchor="middle" fill="black">T</text>
  <text x="370" y="75" font-size="15" text-anchor="middle" fill="black">Z</text>
  
  <rect x="200" y="100" width="100" height="100" stroke="black" stroke-width="5" fill="none" />
  <text x="250" y="165" font-size="30" text-anchor="middle" fill="black">B</text>
  <text x="210" y="160" font-size="20" text-anchor="middle" fill="black">K</text>
  <text x="290" y="160" font-size="20" text-anchor="middle" fill="black">I</text>
  <text x="250" y="120" font-size="20" text-anchor="middle" fill="black">T</text>
  <text x="250" y="195" font-size="20" text-anchor="middle" fill="black">L</text>
  <text x="270" y="175" font-size="15" text-anchor="middle" fill="black">S</text>
  
  <rect x="200" y="200" width="100" height="100" stroke="black" stroke-width="5" fill="none" />
  <text x="250" y="265" font-size="30" text-anchor="middle" fill="black">D</text>
  <text x="210" y="260" font-size="20" text-anchor="middle" fill="black">V</text>
  <text x="290" y="260" font-size="20" text-anchor="middle" fill="black">Y</text>
  <text x="250" y="220" font-size="20" text-anchor="middle" fill="black">A</text>
  <text x="250" y="295" font-size="20" text-anchor="middle" fill="black">N</text>
  <text x="270" y="275" font-size="15" text-anchor="middle" fill="black">C</text>
  
</svg>

