<?xml version="1.0" encoding="UTF-8" standalone="no"?>
<svg
   version="1.1"
   width="2102"
   height="1014"
   style="clip-rule:evenodd;fill-rule:evenodd;image-rendering:optimizeQuality;shape-rendering:geometricPrecision;text-rendering:geometricPrecision"
   id="svg661"
   sodipodi:docname="sach.svg"
   xml:space="preserve"
   inkscape:version="1.3.2 (091e20ef0f, 2023-11-25, custom)"
   xmlns:inkscape="http://www.inkscape.org/namespaces/inkscape"
   xmlns:sodipodi="http://sodipodi.sourceforge.net/DTD/sodipodi-0.dtd"
   xmlns="http://www.w3.org/2000/svg"
   xmlns:svg="http://www.w3.org/2000/svg"><defs
     id="defs661" /><sodipodi:namedview
     id="namedview661"
     pagecolor="#ffffff"
     bordercolor="#999999"
     borderopacity="1"
     inkscape:showpageshadow="0"
     inkscape:pageopacity="0"
     inkscape:pagecheckerboard="0"
     inkscape:deskcolor="#d1d1d1"
     inkscape:zoom="0.12724617"
     inkscape:cx="168.96383"
     inkscape:cy="318.28071"
     inkscape:window-width="1916"
     inkscape:window-height="1020"
     inkscape:window-x="0"
     inkscape:window-y="0"
     inkscape:window-maximized="0"
     inkscape:current-layer="svg661" /><g
     id="g703"
     transform="translate(62.792008,1763.6225)"><g
       id="use662"
       transform="translate(-63.292008,-2299.1225)"><path
         id="path725"
         d="m 0.5,535.5 v 59 h 59 v -59 z m 59,59 v 59 h 59 v -59 z m 59,0 h 59 v -59 h -59 z m 59,0 v 59 h 59 v -59 z m 59,0 h 59 v -59 h -59 z m 59,0 v 59 h 59 v -59 z m 59,0 h 59 v -59 h -59 z m 59,0 v 59 h 60 v -59 z m 0,59 h -59 v 59 h 59 z m 0,59 v 59 h 60 v -59 z m 0,59 h -59 v 59 h 59 z m 0,59 v 59 h 60 v -59 z m 0,59 h -59 v 59 h 59 z m 0,59 v 59 h 60 v -59 z m -59,0 h -59 v 59 h 59 z m -59,0 v -59 h -59 v 59 z m -59,0 h -59 v 59 h 59 z m -59,0 v -59 h -59 v 59 z m -59,0 h -59 v 59 h 59 z m -59,0 v -59 h -59 v 59 z m 0,-59 h 59 v -59 h -59 z m 0,-59 v -59 h -59 v 59 z m 0,-59 h 59 v -59 h -59 z m 0,-59 v -59 h -59 v 59 z m 59,0 h 59 v -59 h -59 z m 59,0 v 59 h 59 v -59 z m 59,0 h 59 v -59 h -59 z m 59,0 v 59 h 59 v -59 z m 0,59 h -59 v 59 h 59 z m 0,59 v 59 h 59 v -59 z m -59,0 h -59 v 59 h 59 z m -59,0 v -59 h -59 v 59 z"
         style="fill:#f1f1f1;fill-opacity:1" /><path
         id="path726"
         d="m 59.5,535.5 v 59 h 59 v -59 z m 59,59 v 59 h 59 v -59 z m 59,0 h 59 v -59 h -59 z m 59,0 v 59 h 59 v -59 z m 59,0 h 59 v -59 h -59 z m 59,0 v 59 h 59 v -59 z m 59,0 h 60 v -59 h -60 z m 0,59 v 59 h 60 v -59 z m 0,59 h -59 v 59 h 59 z m 0,59 v 59 h 60 v -59 z m 0,59 h -59 v 59 h 59 z m 0,59 v 59 h 60 v -59 z m 0,59 h -59 v 59 h 59 z m -59,0 v -59 h -59 v 59 z m -59,0 h -59 v 59 h 59 z m -59,0 v -59 h -59 v 59 z m -59,0 h -59 v 59 h 59 z m -59,0 v -59 h -59 v 59 z m -59,0 h -59 v 59 h 59 z m 0,-59 v -59 h -59 v 59 z m 0,-59 h 59 v -59 h -59 z m 0,-59 v -59 h -59 v 59 z m 0,-59 h 59 v -59 h -59 z m 0,-59 v -59 h -59 v 59 z m 59,59 v 59 h 59 v -59 z m 59,0 h 59 v -59 h -59 z m 59,0 v 59 h 59 v -59 z m 59,0 h 59 v -59 h -59 z m 0,59 v 59 h 59 v -59 z m 0,59 h -59 v 59 h 59 z m -59,0 v -59 h -59 v 59 z m -59,0 h -59 v 59 h 59 z"
         style="fill:#cd3c37;fill-opacity:1" /></g><g
       id="use675"
       transform="matrix(0.97313111,0,0,0.97313111,190.1423,-2625.1096)"><path
         d="m 52.375424,1240.5886 c 5.351288,-1.5312 15.959154,0.6789 21.310441,-3.1571 5.35129,3.836 15.959154,1.6259 21.310443,3.1571 0,0 2.604609,0.8525 4.735658,3.1571 -1.073419,1.5313 -2.604614,1.5628 -4.735658,0.7894 -5.351289,-1.5313 -15.959153,0.726 -21.310443,-1.5787 -5.351287,2.3047 -15.959153,0.047 -21.310441,1.5787 -2.131045,0.7734 -3.66224,0.7419 -4.735656,-0.7894 2.131045,-2.3046 4.735656,-3.1571 4.735656,-3.1571 z"
         id="path773"
         style="fill:#000000;fill-opacity:1;fill-rule:evenodd;stroke:#000000;stroke-width:2.36783;stroke-linecap:butt;stroke-linejoin:round;stroke-miterlimit:4;stroke-dasharray:none;stroke-opacity:1" /><path
         d="m 61.84673,1234.2745 c 3.946379,3.9463 19.731891,3.9463 23.67827,0 0.789277,-2.3679 0,-3.1571 0,-3.1571 0,-3.9465 -3.946379,-6.3143 -3.946379,-6.3143 8.682033,-2.3677 9.471309,-18.1534 -7.892756,-24.4675 -17.364063,6.3141 -16.574788,22.0998 -7.892756,24.4675 0,0 -3.946379,2.3678 -3.946379,6.3143 0,0 -0.789275,0.7892 0,3.1571 z"
         id="path774"
         style="fill:#000000;fill-opacity:1;fill-rule:evenodd;stroke:#000000;stroke-width:2.36783;stroke-linecap:butt;stroke-linejoin:round;stroke-miterlimit:4;stroke-dasharray:none;stroke-opacity:1" /><path
         d="m 77.632244,1196.3891 a 3.9463785,3.9463785 0 1 1 -7.892757,0 3.9463785,3.9463785 0 1 1 7.892757,0 z"
         id="path775"
         style="fill:#000000;fill-opacity:1;fill-rule:evenodd;stroke:#000000;stroke-width:2.36783;stroke-linecap:butt;stroke-linejoin:round;stroke-miterlimit:4;stroke-dasharray:none;stroke-opacity:1" /><path
         d="m 65.793109,1224.8031 h 15.785512 m -19.731891,6.3143 H 85.525 m -11.839135,-22.8891 v 7.8928 m -3.946378,-3.9463 h 7.892757"
         style="fill:none;fill-opacity:1;fill-rule:evenodd;stroke:#ffffff;stroke-width:2.36783;stroke-linecap:round;stroke-linejoin:miter;stroke-miterlimit:4;stroke-dasharray:none;stroke-opacity:1"
         id="path776" /></g><g
       id="use676"
       transform="matrix(0.97313111,0,0,0.97313111,91.55273,-2841.5865)"><path
         d="m 175.20444,1301.7017 v -8.8872"
         style="fill:none;fill-opacity:1;fill-rule:evenodd;stroke:#000000;stroke-width:2.36783;stroke-linecap:round;stroke-linejoin:miter;stroke-miterlimit:4;stroke-dasharray:none;stroke-opacity:1"
         id="path892" /><path
         d="m 175.20444,1322.807 c 0,0 7.10348,-11.8391 4.73565,-16.5748 0,0 -1.57855,-3.9464 -4.73565,-3.9464 -3.15711,0 -4.73565,3.9464 -4.73565,3.9464 -2.36783,4.7357 4.73565,16.5748 4.73565,16.5748"
         style="fill:#000000;fill-opacity:1;fill-rule:evenodd;stroke:#000000;stroke-width:2.36783;stroke-linecap:butt;stroke-linejoin:miter;stroke-miterlimit:4;stroke-dasharray:none;stroke-opacity:1"
         id="path893" /><path
         d="m 159.41893,1341.7496 c 8.68203,5.525 22.88899,5.525 31.57102,0 v -11.0498 c 0,0 14.20696,-7.1036 9.4713,-16.5748 -6.3142,-10.2606 -21.31043,-5.5251 -25.25681,6.3142 v 5.5249 -5.5249 c -3.94638,-11.8393 -18.94262,-16.5748 -25.25683,-6.3142 -4.73565,9.4712 9.47132,16.5748 9.47132,16.5748 v 11.0498"
         style="fill:#000000;fill-opacity:1;fill-rule:evenodd;stroke:#000000;stroke-width:2.36783;stroke-linecap:round;stroke-linejoin:round;stroke-miterlimit:4;stroke-dasharray:none;stroke-opacity:1"
         id="path894" /><path
         d="m 171.25806,1295.9716 h 7.89276"
         style="fill:none;fill-opacity:1;fill-rule:evenodd;stroke:#000000;stroke-width:2.36783;stroke-linecap:round;stroke-linejoin:miter;stroke-miterlimit:4;stroke-dasharray:none;stroke-opacity:1"
         id="path895" /><path
         d="m 190.20068,1329.9105 c 0,0 13.41768,-6.3143 9.51866,-15.2331 -6.12478,-9.2345 -20.56852,-2.9204 -24.5149,7.3402 v 3.3151 -3.3151 c -3.94638,-10.2606 -18.39013,-16.5747 -24.5149,-7.3402 -3.89903,8.9188 9.51866,15.2331 9.51866,15.2331"
         style="fill:none;fill-opacity:1;fill-rule:evenodd;stroke:#ffffff;stroke-width:2.36783;stroke-linecap:round;stroke-linejoin:round;stroke-miterlimit:4;stroke-dasharray:none;stroke-opacity:1"
         id="path896" /><path
         d="m 159.41893,1330.6998 c 8.68203,-4.7357 22.88899,-4.7357 31.57102,0 m -31.57102,5.5249 c 8.68203,-4.7356 22.88899,-4.7356 31.57102,0 m -31.57102,5.5249 c 8.68203,-4.7356 22.88899,-4.7356 31.57102,0"
         style="fill:none;fill-opacity:1;fill-rule:evenodd;stroke:#ffffff;stroke-width:2.36783;stroke-linecap:round;stroke-linejoin:round;stroke-miterlimit:4;stroke-dasharray:none;stroke-opacity:1"
         id="path897" /></g><g
       id="use677"
       transform="matrix(1.5361374,0,0,1.5361374,107.34886,-3728.6812)"><path
         d="m 62.41874,1400.4027 c 10.5,1 16.5,8 16,29 h -23 c 0,-9 10,-6.5 8,-21"
         style="fill:#000000;fill-opacity:1;fill-rule:evenodd;stroke:#000000;stroke-width:1.5;stroke-linecap:round;stroke-linejoin:round;stroke-miterlimit:4;stroke-dasharray:none;stroke-opacity:1"
         id="path758" /><path
         d="m 64.41874,1408.4027 c 0.38,2.91 -5.55,7.37 -8,9 -3,2 -2.82,4.34 -5,4 -1.042,-0.94 1.41,-3.04 0,-3 -1,0 0.19,1.23 -1,2 -1,0 -4.003,1 -4,-4 0,-2 6,-12 6,-12 0,0 1.89,-1.9 2,-3.5 -0.73,-0.994 -0.5,-2 -0.5,-3 1,-1 3,2.5 3,2.5 h 2 c 0,0 0.78,-1.992 2.5,-3 1,0 1,3 1,3"
         style="fill:#000000;fill-opacity:1;fill-rule:evenodd;stroke:#000000;stroke-width:1.5;stroke-linecap:round;stroke-linejoin:round;stroke-miterlimit:4;stroke-dasharray:none;stroke-opacity:1"
         id="path759" /><path
         d="m 49.91874,1415.9027 a 0.5,0.5 0 1 1 -1,0 0.5,0.5 0 1 1 1,0 z"
         style="fill:#ffffff;fill-opacity:1;fill-rule:evenodd;stroke:#ffffff;stroke-width:1.5;stroke-linecap:round;stroke-linejoin:round;stroke-miterlimit:4;stroke-dasharray:none;stroke-opacity:1"
         id="path760" /><path
         d="m 55.35174,1406.1527 a 0.499989,1.499967 30.000728 1 1 -0.866,-0.5 0.499989,1.499967 30.000728 1 1 0.866,0.5 z"
         style="fill:#ffffff;fill-opacity:1;fill-rule:evenodd;stroke:#ffffff;stroke-width:1.49997;stroke-linecap:round;stroke-linejoin:round;stroke-miterlimit:4;stroke-dasharray:none;stroke-opacity:1"
         id="path761" /><path
         d="m 64.96874,1400.8027 -0.45,1.45 0.5,0.15 c 3.15,1 5.65,2.49 7.9,6.75 2.25,4.26 3.25,10.31 2.75,20.25 l -0.05,0.5 h 2.25 l 0.05,-0.5 c 0.5,-10.06 -0.88,-16.85 -3.25,-21.34 -2.37,-4.49 -5.79,-6.64 -9.19,-7.16 z"
         style="fill:#ffffff;fill-opacity:1;fill-rule:evenodd;stroke:none;stroke-width:1.5;stroke-linecap:round;stroke-linejoin:round;stroke-miterlimit:4;stroke-dasharray:none;stroke-opacity:1"
         id="path762" /></g><g
       id="use678"
       transform="matrix(0.97313111,0,0,0.97313111,-26.569672,-2927.4097)"><path
         stroke-linejoin="miter"
         d="m 175.20444,1390.0109 v -8.8871 m -3.94638,3.157 h 7.89276"
         id="path932"
         style="fill:none;fill-rule:evenodd;stroke:#000000;stroke-width:2.36783;stroke-linecap:round" /><path
         fill="#ffffff"
         stroke-linecap="butt"
         stroke-linejoin="miter"
         d="m 175.20444,1411.1163 c 0,0 7.10348,-11.8392 4.73565,-16.5749 0,0 -1.57855,-3.9463 -4.73565,-3.9463 -3.15711,0 -4.73565,3.9463 -4.73565,3.9463 -2.36783,4.7357 4.73565,16.5749 4.73565,16.5749"
         id="path933"
         style="fill-rule:evenodd;stroke:#000000;stroke-width:2.36783" /><path
         fill="#ffffff"
         d="m 159.41893,1430.0589 c 8.68203,5.5248 22.88899,5.5248 31.57102,0 v -11.05 c 0,0 14.20696,-7.1035 9.4713,-16.5747 -6.3142,-10.2606 -21.31043,-5.5249 -25.25681,6.3141 v 5.5251 -5.5251 c -3.94638,-11.839 -18.94262,-16.5747 -25.25683,-6.3141 -4.73565,9.4712 9.47132,16.5747 9.47132,16.5747 v 11.05"
         id="path934"
         style="fill-rule:evenodd;stroke:#000000;stroke-width:2.36783;stroke-linecap:round;stroke-linejoin:round" /><path
         d="m 159.41893,1419.0089 c 8.68203,-4.7355 22.88899,-4.7355 31.57102,0 m -31.57102,5.5249 c 8.68203,-4.7355 22.88899,-4.7355 31.57102,0 m -31.57102,5.5251 c 8.68203,-4.7358 22.88899,-4.7358 31.57102,0"
         id="path935"
         style="fill:none;fill-rule:evenodd;stroke:#000000;stroke-width:2.36783;stroke-linecap:round;stroke-linejoin:round" /></g><g
       id="use679"
       transform="matrix(0.97313111,0,0,0.97313111,72.52031,-3026.9316)"><path
         d="m 73.685865,1547.9026 c -3.488598,0 -6.314204,2.8256 -6.314204,6.3142 0,1.4049 0.457779,2.6994 1.23127,3.7569 -3.078176,1.768 -5.177648,5.0671 -5.177648,8.8715 0,3.2045 1.483837,6.0616 3.804308,7.9401 -4.735654,1.6732 -11.697065,8.761 -11.697065,21.2631 h 36.30668 c 0,-12.5021 -6.961412,-19.5899 -11.697065,-21.2631 2.32047,-1.8785 3.804308,-4.7356 3.804308,-7.9401 0,-3.8044 -2.099473,-7.1035 -5.177648,-8.8715 0.77349,-1.0575 1.23127,-2.352 1.23127,-3.7569 0,-3.4886 -2.825608,-6.3142 -6.314206,-6.3142 z"
         style="opacity:1;fill:#ffffff;fill-opacity:1;fill-rule:nonzero;stroke:#000000;stroke-width:2.36783;stroke-linecap:round;stroke-linejoin:miter;stroke-miterlimit:4;stroke-dasharray:none;stroke-opacity:1"
         id="path818" /></g></g><g
     id="g699"
     transform="translate(807.56519,1191.3194)"><g
       id="use668"
       transform="translate(277.93481,-1184.8194)"><path
         id="path717"
         d="m 0.5,535.5 v 59 h 59 v -59 z m 59,59 v 59 h 59 v -59 z m 59,0 h 59 v -59 h -59 z m 59,0 v 59 h 59 v -59 z m 59,0 h 59 v -59 h -59 z m 59,0 v 59 h 59 v -59 z m 59,0 h 59 v -59 h -59 z m 59,0 v 59 h 60 v -59 z m 0,59 h -59 v 59 h 59 z m 0,59 v 59 h 60 v -59 z m 0,59 h -59 v 59 h 59 z m 0,59 v 59 h 60 v -59 z m 0,59 h -59 v 59 h 59 z m 0,59 v 59 h 60 v -59 z m -59,0 h -59 v 59 h 59 z m -59,0 v -59 h -59 v 59 z m -59,0 h -59 v 59 h 59 z m -59,0 v -59 h -59 v 59 z m -59,0 h -59 v 59 h 59 z m -59,0 v -59 h -59 v 59 z m 0,-59 h 59 v -59 h -59 z m 0,-59 v -59 h -59 v 59 z m 0,-59 h 59 v -59 h -59 z m 0,-59 v -59 h -59 v 59 z m 59,0 h 59 v -59 h -59 z m 59,0 v 59 h 59 v -59 z m 59,0 h 59 v -59 h -59 z m 59,0 v 59 h 59 v -59 z m 0,59 h -59 v 59 h 59 z m 0,59 v 59 h 59 v -59 z m -59,0 h -59 v 59 h 59 z m -59,0 v -59 h -59 v 59 z"
         style="fill:#f1f1f1;fill-opacity:1" /><path
         id="path718"
         d="m 59.5,535.5 v 59 h 59 v -59 z m 59,59 v 59 h 59 v -59 z m 59,0 h 59 v -59 h -59 z m 59,0 v 59 h 59 v -59 z m 59,0 h 59 v -59 h -59 z m 59,0 v 59 h 59 v -59 z m 59,0 h 60 v -59 h -60 z m 0,59 v 59 h 60 v -59 z m 0,59 h -59 v 59 h 59 z m 0,59 v 59 h 60 v -59 z m 0,59 h -59 v 59 h 59 z m 0,59 v 59 h 60 v -59 z m 0,59 h -59 v 59 h 59 z m -59,0 v -59 h -59 v 59 z m -59,0 h -59 v 59 h 59 z m -59,0 v -59 h -59 v 59 z m -59,0 h -59 v 59 h 59 z m -59,0 v -59 h -59 v 59 z m -59,0 h -59 v 59 h 59 z m 0,-59 v -59 h -59 v 59 z m 0,-59 h 59 v -59 h -59 z m 0,-59 v -59 h -59 v 59 z m 0,-59 h 59 v -59 h -59 z m 0,-59 v -59 h -59 v 59 z m 59,59 v 59 h 59 v -59 z m 59,0 h 59 v -59 h -59 z m 59,0 v 59 h 59 v -59 z m 59,0 h 59 v -59 h -59 z m 0,59 v 59 h 59 v -59 z m 0,59 h -59 v 59 h 59 z m -59,0 v -59 h -59 v 59 z m -59,0 h -59 v 59 h 59 z"
         style="fill:#cd3c37;fill-opacity:1" /></g><g
       id="use685"
       transform="matrix(0.97313111,0,0,0.97313111,254.74436,-1609.2428)"><path
         d="m 175.20444,1301.7017 v -8.8872"
         style="fill:none;fill-opacity:1;fill-rule:evenodd;stroke:#000000;stroke-width:2.36783;stroke-linecap:round;stroke-linejoin:miter;stroke-miterlimit:4;stroke-dasharray:none;stroke-opacity:1"
         id="path868" /><path
         d="m 175.20444,1322.807 c 0,0 7.10348,-11.8391 4.73565,-16.5748 0,0 -1.57855,-3.9464 -4.73565,-3.9464 -3.15711,0 -4.73565,3.9464 -4.73565,3.9464 -2.36783,4.7357 4.73565,16.5748 4.73565,16.5748"
         style="fill:#000000;fill-opacity:1;fill-rule:evenodd;stroke:#000000;stroke-width:2.36783;stroke-linecap:butt;stroke-linejoin:miter;stroke-miterlimit:4;stroke-dasharray:none;stroke-opacity:1"
         id="path869" /><path
         d="m 159.41893,1341.7496 c 8.68203,5.525 22.88899,5.525 31.57102,0 v -11.0498 c 0,0 14.20696,-7.1036 9.4713,-16.5748 -6.3142,-10.2606 -21.31043,-5.5251 -25.25681,6.3142 v 5.5249 -5.5249 c -3.94638,-11.8393 -18.94262,-16.5748 -25.25683,-6.3142 -4.73565,9.4712 9.47132,16.5748 9.47132,16.5748 v 11.0498"
         style="fill:#000000;fill-opacity:1;fill-rule:evenodd;stroke:#000000;stroke-width:2.36783;stroke-linecap:round;stroke-linejoin:round;stroke-miterlimit:4;stroke-dasharray:none;stroke-opacity:1"
         id="path870" /><path
         d="m 171.25806,1295.9716 h 7.89276"
         style="fill:none;fill-opacity:1;fill-rule:evenodd;stroke:#000000;stroke-width:2.36783;stroke-linecap:round;stroke-linejoin:miter;stroke-miterlimit:4;stroke-dasharray:none;stroke-opacity:1"
         id="path871" /><path
         d="m 190.20068,1329.9105 c 0,0 13.41768,-6.3143 9.51866,-15.2331 -6.12478,-9.2345 -20.56852,-2.9204 -24.5149,7.3402 v 3.3151 -3.3151 c -3.94638,-10.2606 -18.39013,-16.5747 -24.5149,-7.3402 -3.89903,8.9188 9.51866,15.2331 9.51866,15.2331"
         style="fill:none;fill-opacity:1;fill-rule:evenodd;stroke:#ffffff;stroke-width:2.36783;stroke-linecap:round;stroke-linejoin:round;stroke-miterlimit:4;stroke-dasharray:none;stroke-opacity:1"
         id="path872" /><path
         d="m 159.41893,1330.6998 c 8.68203,-4.7357 22.88899,-4.7357 31.57102,0 m -31.57102,5.5249 c 8.68203,-4.7356 22.88899,-4.7356 31.57102,0 m -31.57102,5.5249 c 8.68203,-4.7356 22.88899,-4.7356 31.57102,0"
         style="fill:none;fill-opacity:1;fill-rule:evenodd;stroke:#ffffff;stroke-width:2.36783;stroke-linecap:round;stroke-linejoin:round;stroke-miterlimit:4;stroke-dasharray:none;stroke-opacity:1"
         id="path873" /></g><g
       id="use686"
       transform="matrix(0.97313111,0,0,0.97313111,373.34023,-1754.4802)"><path
         stroke-linejoin="miter"
         d="m 175.20444,1390.0109 v -8.8871 m -3.94638,3.157 h 7.89276"
         id="path916"
         style="fill:none;fill-rule:evenodd;stroke:#000000;stroke-width:2.36783;stroke-linecap:round" /><path
         fill="#ffffff"
         stroke-linecap="butt"
         stroke-linejoin="miter"
         d="m 175.20444,1411.1163 c 0,0 7.10348,-11.8392 4.73565,-16.5749 0,0 -1.57855,-3.9463 -4.73565,-3.9463 -3.15711,0 -4.73565,3.9463 -4.73565,3.9463 -2.36783,4.7357 4.73565,16.5749 4.73565,16.5749"
         id="path917"
         style="fill-rule:evenodd;stroke:#000000;stroke-width:2.36783" /><path
         fill="#ffffff"
         d="m 159.41893,1430.0589 c 8.68203,5.5248 22.88899,5.5248 31.57102,0 v -11.05 c 0,0 14.20696,-7.1035 9.4713,-16.5747 -6.3142,-10.2606 -21.31043,-5.5249 -25.25681,6.3141 v 5.5251 -5.5251 c -3.94638,-11.839 -18.94262,-16.5747 -25.25683,-6.3141 -4.73565,9.4712 9.47132,16.5747 9.47132,16.5747 v 11.05"
         id="path918"
         style="fill-rule:evenodd;stroke:#000000;stroke-width:2.36783;stroke-linecap:round;stroke-linejoin:round" /><path
         d="m 159.41893,1419.0089 c 8.68203,-4.7355 22.88899,-4.7355 31.57102,0 m -31.57102,5.5249 c 8.68203,-4.7355 22.88899,-4.7355 31.57102,0 m -31.57102,5.5251 c 8.68203,-4.7358 22.88899,-4.7358 31.57102,0"
         id="path919"
         style="fill:none;fill-rule:evenodd;stroke:#000000;stroke-width:2.36783;stroke-linecap:round;stroke-linejoin:round" /></g><g
       id="use687"
       transform="matrix(0.97313111,0,0,0.97313111,530.93234,-1912.4973)"><path
         d="m 73.685865,1547.9026 c -3.488598,0 -6.314204,2.8256 -6.314204,6.3142 0,1.4049 0.457779,2.6994 1.23127,3.7569 -3.078176,1.768 -5.177648,5.0671 -5.177648,8.8715 0,3.2045 1.483837,6.0616 3.804308,7.9401 -4.735654,1.6732 -11.697065,8.761 -11.697065,21.2631 h 36.30668 c 0,-12.5021 -6.961412,-19.5899 -11.697065,-21.2631 2.32047,-1.8785 3.804308,-4.7356 3.804308,-7.9401 0,-3.8044 -2.099473,-7.1035 -5.177648,-8.8715 0.77349,-1.0575 1.23127,-2.352 1.23127,-3.7569 0,-3.4886 -2.825608,-6.3142 -6.314206,-6.3142 z"
         style="opacity:1;fill:#ffffff;fill-opacity:1;fill-rule:nonzero;stroke:#000000;stroke-width:2.36783;stroke-linecap:round;stroke-linejoin:miter;stroke-miterlimit:4;stroke-dasharray:none;stroke-opacity:1"
         id="path816" /></g><g
       id="use688"
       transform="matrix(0.97313111,0,0,0.97313111,530.73946,-1971.889)"><path
         d="m 73.685865,1547.9026 c -3.488598,0 -6.314204,2.8256 -6.314204,6.3142 0,1.4049 0.457779,2.6994 1.23127,3.7569 -3.078176,1.768 -5.177648,5.0671 -5.177648,8.8715 0,3.2045 1.483837,6.0616 3.804308,7.9401 -4.735654,1.6732 -11.697065,8.761 -11.697065,21.2631 h 36.30668 c 0,-12.5021 -6.961412,-19.5899 -11.697065,-21.2631 2.32047,-1.8785 3.804308,-4.7356 3.804308,-7.9401 0,-3.8044 -2.099473,-7.1035 -5.177648,-8.8715 0.77349,-1.0575 1.23127,-2.352 1.23127,-3.7569 0,-3.4886 -2.825608,-6.3142 -6.314206,-6.3142 z"
         style="opacity:1;fill:#ffffff;fill-opacity:1;fill-rule:nonzero;stroke:#000000;stroke-width:2.36783;stroke-linecap:round;stroke-linejoin:miter;stroke-miterlimit:4;stroke-dasharray:none;stroke-opacity:1"
         id="path817" /></g><g
       id="use689"
       transform="matrix(1.5361374,0,0,1.5361374,507.00579,-2673.2694)"><path
         d="m 62.41874,1400.4027 c 10.5,1 16.5,8 16,29 h -23 c 0,-9 10,-6.5 8,-21"
         style="fill:#000000;fill-opacity:1;fill-rule:evenodd;stroke:#000000;stroke-width:1.5;stroke-linecap:round;stroke-linejoin:round;stroke-miterlimit:4;stroke-dasharray:none;stroke-opacity:1"
         id="path733" /><path
         d="m 64.41874,1408.4027 c 0.38,2.91 -5.55,7.37 -8,9 -3,2 -2.82,4.34 -5,4 -1.042,-0.94 1.41,-3.04 0,-3 -1,0 0.19,1.23 -1,2 -1,0 -4.003,1 -4,-4 0,-2 6,-12 6,-12 0,0 1.89,-1.9 2,-3.5 -0.73,-0.994 -0.5,-2 -0.5,-3 1,-1 3,2.5 3,2.5 h 2 c 0,0 0.78,-1.992 2.5,-3 1,0 1,3 1,3"
         style="fill:#000000;fill-opacity:1;fill-rule:evenodd;stroke:#000000;stroke-width:1.5;stroke-linecap:round;stroke-linejoin:round;stroke-miterlimit:4;stroke-dasharray:none;stroke-opacity:1"
         id="path734" /><path
         d="m 49.91874,1415.9027 a 0.5,0.5 0 1 1 -1,0 0.5,0.5 0 1 1 1,0 z"
         style="fill:#ffffff;fill-opacity:1;fill-rule:evenodd;stroke:#ffffff;stroke-width:1.5;stroke-linecap:round;stroke-linejoin:round;stroke-miterlimit:4;stroke-dasharray:none;stroke-opacity:1"
         id="path735" /><path
         d="m 55.35174,1406.1527 a 0.499989,1.499967 30.000728 1 1 -0.866,-0.5 0.499989,1.499967 30.000728 1 1 0.866,0.5 z"
         style="fill:#ffffff;fill-opacity:1;fill-rule:evenodd;stroke:#ffffff;stroke-width:1.49997;stroke-linecap:round;stroke-linejoin:round;stroke-miterlimit:4;stroke-dasharray:none;stroke-opacity:1"
         id="path736" /><path
         d="m 64.96874,1400.8027 -0.45,1.45 0.5,0.15 c 3.15,1 5.65,2.49 7.9,6.75 2.25,4.26 3.25,10.31 2.75,20.25 l -0.05,0.5 h 2.25 l 0.05,-0.5 c 0.5,-10.06 -0.88,-16.85 -3.25,-21.34 -2.37,-4.49 -5.79,-6.64 -9.19,-7.16 z"
         style="fill:#ffffff;fill-opacity:1;fill-rule:evenodd;stroke:none;stroke-width:1.5;stroke-linecap:round;stroke-linejoin:round;stroke-miterlimit:4;stroke-dasharray:none;stroke-opacity:1"
         id="path737" /></g><g
       id="use690"
       transform="matrix(1.5361374,0,0,1.5361374,626.31556,-2554.4324)"><path
         d="m 62.41874,1400.4027 c 10.5,1 16.5,8 16,29 h -23 c 0,-9 10,-6.5 8,-21"
         style="fill:#000000;fill-opacity:1;fill-rule:evenodd;stroke:#000000;stroke-width:1.5;stroke-linecap:round;stroke-linejoin:round;stroke-miterlimit:4;stroke-dasharray:none;stroke-opacity:1"
         id="path738" /><path
         d="m 64.41874,1408.4027 c 0.38,2.91 -5.55,7.37 -8,9 -3,2 -2.82,4.34 -5,4 -1.042,-0.94 1.41,-3.04 0,-3 -1,0 0.19,1.23 -1,2 -1,0 -4.003,1 -4,-4 0,-2 6,-12 6,-12 0,0 1.89,-1.9 2,-3.5 -0.73,-0.994 -0.5,-2 -0.5,-3 1,-1 3,2.5 3,2.5 h 2 c 0,0 0.78,-1.992 2.5,-3 1,0 1,3 1,3"
         style="fill:#000000;fill-opacity:1;fill-rule:evenodd;stroke:#000000;stroke-width:1.5;stroke-linecap:round;stroke-linejoin:round;stroke-miterlimit:4;stroke-dasharray:none;stroke-opacity:1"
         id="path739" /><path
         d="m 49.91874,1415.9027 a 0.5,0.5 0 1 1 -1,0 0.5,0.5 0 1 1 1,0 z"
         style="fill:#ffffff;fill-opacity:1;fill-rule:evenodd;stroke:#ffffff;stroke-width:1.5;stroke-linecap:round;stroke-linejoin:round;stroke-miterlimit:4;stroke-dasharray:none;stroke-opacity:1"
         id="path740" /><path
         d="m 55.35174,1406.1527 a 0.499989,1.499967 30.000728 1 1 -0.866,-0.5 0.499989,1.499967 30.000728 1 1 0.866,0.5 z"
         style="fill:#ffffff;fill-opacity:1;fill-rule:evenodd;stroke:#ffffff;stroke-width:1.49997;stroke-linecap:round;stroke-linejoin:round;stroke-miterlimit:4;stroke-dasharray:none;stroke-opacity:1"
         id="path741" /><path
         d="m 64.96874,1400.8027 -0.45,1.45 0.5,0.15 c 3.15,1 5.65,2.49 7.9,6.75 2.25,4.26 3.25,10.31 2.75,20.25 l -0.05,0.5 h 2.25 l 0.05,-0.5 c 0.5,-10.06 -0.88,-16.85 -3.25,-21.34 -2.37,-4.49 -5.79,-6.64 -9.19,-7.16 z"
         style="fill:#ffffff;fill-opacity:1;fill-rule:evenodd;stroke:none;stroke-width:1.5;stroke-linecap:round;stroke-linejoin:round;stroke-miterlimit:4;stroke-dasharray:none;stroke-opacity:1"
         id="path742" /></g></g><g
     id="g700"
     transform="translate(767.88033,1195.4242)"><g
       id="use669"
       transform="translate(860.61967,-1188.9242)"><path
         id="path719"
         d="m 0.5,535.5 v 59 h 59 v -59 z m 59,59 v 59 h 59 v -59 z m 59,0 h 59 v -59 h -59 z m 59,0 v 59 h 59 v -59 z m 59,0 h 59 v -59 h -59 z m 59,0 v 59 h 59 v -59 z m 59,0 h 59 v -59 h -59 z m 59,0 v 59 h 60 v -59 z m 0,59 h -59 v 59 h 59 z m 0,59 v 59 h 60 v -59 z m 0,59 h -59 v 59 h 59 z m 0,59 v 59 h 60 v -59 z m 0,59 h -59 v 59 h 59 z m 0,59 v 59 h 60 v -59 z m -59,0 h -59 v 59 h 59 z m -59,0 v -59 h -59 v 59 z m -59,0 h -59 v 59 h 59 z m -59,0 v -59 h -59 v 59 z m -59,0 h -59 v 59 h 59 z m -59,0 v -59 h -59 v 59 z m 0,-59 h 59 v -59 h -59 z m 0,-59 v -59 h -59 v 59 z m 0,-59 h 59 v -59 h -59 z m 0,-59 v -59 h -59 v 59 z m 59,0 h 59 v -59 h -59 z m 59,0 v 59 h 59 v -59 z m 59,0 h 59 v -59 h -59 z m 59,0 v 59 h 59 v -59 z m 0,59 h -59 v 59 h 59 z m 0,59 v 59 h 59 v -59 z m -59,0 h -59 v 59 h 59 z m -59,0 v -59 h -59 v 59 z"
         style="fill:#f1f1f1;fill-opacity:1" /><path
         id="path720"
         d="m 59.5,535.5 v 59 h 59 v -59 z m 59,59 v 59 h 59 v -59 z m 59,0 h 59 v -59 h -59 z m 59,0 v 59 h 59 v -59 z m 59,0 h 59 v -59 h -59 z m 59,0 v 59 h 59 v -59 z m 59,0 h 60 v -59 h -60 z m 0,59 v 59 h 60 v -59 z m 0,59 h -59 v 59 h 59 z m 0,59 v 59 h 60 v -59 z m 0,59 h -59 v 59 h 59 z m 0,59 v 59 h 60 v -59 z m 0,59 h -59 v 59 h 59 z m -59,0 v -59 h -59 v 59 z m -59,0 h -59 v 59 h 59 z m -59,0 v -59 h -59 v 59 z m -59,0 h -59 v 59 h 59 z m -59,0 v -59 h -59 v 59 z m -59,0 h -59 v 59 h 59 z m 0,-59 v -59 h -59 v 59 z m 0,-59 h 59 v -59 h -59 z m 0,-59 v -59 h -59 v 59 z m 0,-59 h 59 v -59 h -59 z m 0,-59 v -59 h -59 v 59 z m 59,59 v 59 h 59 v -59 z m 59,0 h 59 v -59 h -59 z m 59,0 v 59 h 59 v -59 z m 59,0 h 59 v -59 h -59 z m 0,59 v 59 h 59 v -59 z m 0,59 h -59 v 59 h 59 z m -59,0 v -59 h -59 v 59 z m -59,0 h -59 v 59 h 59 z"
         style="fill:#cd3c37;fill-opacity:1" /></g><g
       id="use691"
       transform="matrix(1.5361374,0,0,1.5361374,1029.8573,-2559.0074)"><path
         d="m 62.41874,1400.4027 c 10.5,1 16.5,8 16,29 h -23 c 0,-9 10,-6.5 8,-21"
         style="fill:#000000;fill-opacity:1;fill-rule:evenodd;stroke:#000000;stroke-width:1.5;stroke-linecap:round;stroke-linejoin:round;stroke-miterlimit:4;stroke-dasharray:none;stroke-opacity:1"
         id="path743" /><path
         d="m 64.41874,1408.4027 c 0.38,2.91 -5.55,7.37 -8,9 -3,2 -2.82,4.34 -5,4 -1.042,-0.94 1.41,-3.04 0,-3 -1,0 0.19,1.23 -1,2 -1,0 -4.003,1 -4,-4 0,-2 6,-12 6,-12 0,0 1.89,-1.9 2,-3.5 -0.73,-0.994 -0.5,-2 -0.5,-3 1,-1 3,2.5 3,2.5 h 2 c 0,0 0.78,-1.992 2.5,-3 1,0 1,3 1,3"
         style="fill:#000000;fill-opacity:1;fill-rule:evenodd;stroke:#000000;stroke-width:1.5;stroke-linecap:round;stroke-linejoin:round;stroke-miterlimit:4;stroke-dasharray:none;stroke-opacity:1"
         id="path744" /><path
         d="m 49.91874,1415.9027 a 0.5,0.5 0 1 1 -1,0 0.5,0.5 0 1 1 1,0 z"
         style="fill:#ffffff;fill-opacity:1;fill-rule:evenodd;stroke:#ffffff;stroke-width:1.5;stroke-linecap:round;stroke-linejoin:round;stroke-miterlimit:4;stroke-dasharray:none;stroke-opacity:1"
         id="path745" /><path
         d="m 55.35174,1406.1527 a 0.499989,1.499967 30.000728 1 1 -0.866,-0.5 0.499989,1.499967 30.000728 1 1 0.866,0.5 z"
         style="fill:#ffffff;fill-opacity:1;fill-rule:evenodd;stroke:#ffffff;stroke-width:1.49997;stroke-linecap:round;stroke-linejoin:round;stroke-miterlimit:4;stroke-dasharray:none;stroke-opacity:1"
         id="path746" /><path
         d="m 64.96874,1400.8027 -0.45,1.45 0.5,0.15 c 3.15,1 5.65,2.49 7.9,6.75 2.25,4.26 3.25,10.31 2.75,20.25 l -0.05,0.5 h 2.25 l 0.05,-0.5 c 0.5,-10.06 -0.88,-16.85 -3.25,-21.34 -2.37,-4.49 -5.79,-6.64 -9.19,-7.16 z"
         style="fill:#ffffff;fill-opacity:1;fill-rule:evenodd;stroke:none;stroke-width:1.5;stroke-linecap:round;stroke-linejoin:round;stroke-miterlimit:4;stroke-dasharray:none;stroke-opacity:1"
         id="path747" /></g><g
       id="use692"
       transform="matrix(0.97313111,0,0,0.97313111,1015.6609,-1875.7609)"><path
         stroke-linejoin="miter"
         d="m 175.20444,1390.0109 v -8.8871 m -3.94638,3.157 h 7.89276"
         id="path920"
         style="fill:none;fill-rule:evenodd;stroke:#000000;stroke-width:2.36783;stroke-linecap:round" /><path
         fill="#ffffff"
         stroke-linecap="butt"
         stroke-linejoin="miter"
         d="m 175.20444,1411.1163 c 0,0 7.10348,-11.8392 4.73565,-16.5749 0,0 -1.57855,-3.9463 -4.73565,-3.9463 -3.15711,0 -4.73565,3.9463 -4.73565,3.9463 -2.36783,4.7357 4.73565,16.5749 4.73565,16.5749"
         id="path921"
         style="fill-rule:evenodd;stroke:#000000;stroke-width:2.36783" /><path
         fill="#ffffff"
         d="m 159.41893,1430.0589 c 8.68203,5.5248 22.88899,5.5248 31.57102,0 v -11.05 c 0,0 14.20696,-7.1035 9.4713,-16.5747 -6.3142,-10.2606 -21.31043,-5.5249 -25.25681,6.3141 v 5.5251 -5.5251 c -3.94638,-11.839 -18.94262,-16.5747 -25.25683,-6.3141 -4.73565,9.4712 9.47132,16.5747 9.47132,16.5747 v 11.05"
         id="path922"
         style="fill-rule:evenodd;stroke:#000000;stroke-width:2.36783;stroke-linecap:round;stroke-linejoin:round" /><path
         d="m 159.41893,1419.0089 c 8.68203,-4.7355 22.88899,-4.7355 31.57102,0 m -31.57102,5.5249 c 8.68203,-4.7355 22.88899,-4.7355 31.57102,0 m -31.57102,5.5251 c 8.68203,-4.7358 22.88899,-4.7358 31.57102,0"
         id="path923"
         style="fill:none;fill-rule:evenodd;stroke:#000000;stroke-width:2.36783;stroke-linecap:round;stroke-linejoin:round" /></g><g
       id="use693"
       transform="matrix(0.97313111,0,0,0.97313111,956.31449,-1908.0181)"><path
         d="m 175.20444,1301.7017 v -8.8872"
         style="fill:none;fill-opacity:1;fill-rule:evenodd;stroke:#000000;stroke-width:2.36783;stroke-linecap:round;stroke-linejoin:miter;stroke-miterlimit:4;stroke-dasharray:none;stroke-opacity:1"
         id="path874" /><path
         d="m 175.20444,1322.807 c 0,0 7.10348,-11.8391 4.73565,-16.5748 0,0 -1.57855,-3.9464 -4.73565,-3.9464 -3.15711,0 -4.73565,3.9464 -4.73565,3.9464 -2.36783,4.7357 4.73565,16.5748 4.73565,16.5748"
         style="fill:#000000;fill-opacity:1;fill-rule:evenodd;stroke:#000000;stroke-width:2.36783;stroke-linecap:butt;stroke-linejoin:miter;stroke-miterlimit:4;stroke-dasharray:none;stroke-opacity:1"
         id="path875" /><path
         d="m 159.41893,1341.7496 c 8.68203,5.525 22.88899,5.525 31.57102,0 v -11.0498 c 0,0 14.20696,-7.1036 9.4713,-16.5748 -6.3142,-10.2606 -21.31043,-5.5251 -25.25681,6.3142 v 5.5249 -5.5249 c -3.94638,-11.8393 -18.94262,-16.5748 -25.25683,-6.3142 -4.73565,9.4712 9.47132,16.5748 9.47132,16.5748 v 11.0498"
         style="fill:#000000;fill-opacity:1;fill-rule:evenodd;stroke:#000000;stroke-width:2.36783;stroke-linecap:round;stroke-linejoin:round;stroke-miterlimit:4;stroke-dasharray:none;stroke-opacity:1"
         id="path876" /><path
         d="m 171.25806,1295.9716 h 7.89276"
         style="fill:none;fill-opacity:1;fill-rule:evenodd;stroke:#000000;stroke-width:2.36783;stroke-linecap:round;stroke-linejoin:miter;stroke-miterlimit:4;stroke-dasharray:none;stroke-opacity:1"
         id="path877" /><path
         d="m 190.20068,1329.9105 c 0,0 13.41768,-6.3143 9.51866,-15.2331 -6.12478,-9.2345 -20.56852,-2.9204 -24.5149,7.3402 v 3.3151 -3.3151 c -3.94638,-10.2606 -18.39013,-16.5747 -24.5149,-7.3402 -3.89903,8.9188 9.51866,15.2331 9.51866,15.2331"
         style="fill:none;fill-opacity:1;fill-rule:evenodd;stroke:#ffffff;stroke-width:2.36783;stroke-linecap:round;stroke-linejoin:round;stroke-miterlimit:4;stroke-dasharray:none;stroke-opacity:1"
         id="path878" /><path
         d="m 159.41893,1330.6998 c 8.68203,-4.7357 22.88899,-4.7357 31.57102,0 m -31.57102,5.5249 c 8.68203,-4.7356 22.88899,-4.7356 31.57102,0 m -31.57102,5.5249 c 8.68203,-4.7356 22.88899,-4.7356 31.57102,0"
         style="fill:none;fill-opacity:1;fill-rule:evenodd;stroke:#ffffff;stroke-width:2.36783;stroke-linecap:round;stroke-linejoin:round;stroke-miterlimit:4;stroke-dasharray:none;stroke-opacity:1"
         id="path879" /></g><g
       id="use694"
       transform="matrix(0.97313111,0,0,0.97313111,1074.158,-1821.7786)"><path
         d="m 153.89399,1235.4557 c 13.41769,-2.3678 33.14958,-2.3678 42.62088,0 l 3.94638,-19.7318 -11.83913,18.1534 -0.47356,-22.2576 -8.20847,21.4682 -4.73565,-22.8889 -4.73565,22.8889 -8.20847,-21.4682 -0.47357,22.2576 -11.83914,-18.1534 z"
         style="fill:#000000;stroke:#000000;stroke-width:2.36783;stroke-linecap:butt;stroke-linejoin:round"
         id="path820" /><path
         d="m 153.89399,1235.4557 c 0,3.1571 2.36783,3.1571 3.94638,6.3142 1.57856,2.368 1.57856,1.5786 0.78927,5.525 -2.36782,1.5785 -1.57854,3.9463 -1.57854,3.9463 -2.36783,2.3679 0,3.9464 0,3.9464 10.26058,1.5787 26.04609,1.5787 36.30668,0 0,0 2.36782,-1.5785 0,-3.9464 0,0 0.78927,-2.3678 -1.57856,-3.9463 -0.78927,-3.9464 -0.78927,-3.157 0.78928,-5.525 1.57855,-3.1571 3.94637,-3.1571 3.94637,-6.3142 -13.41768,-2.3678 -29.20319,-2.3678 -42.62088,0 z"
         id="path821"
         style="fill:#000000;stroke:#000000;stroke-width:2.36783;stroke-linecap:round;stroke-linejoin:round" /><path
         d="m 157.84037,1241.7699 c 5.52493,-1.5785 29.2032,-1.5785 34.72813,0"
         id="path822"
         style="fill:#000000;stroke:#000000;stroke-width:2.36783;stroke-linecap:round;stroke-linejoin:round" /><path
         d="m 158.62964,1247.2949 c 9.47132,-1.5786 23.67828,-1.5786 33.14958,0"
         id="path823"
         style="fill:#000000;stroke:#000000;stroke-width:2.36783;stroke-linecap:round;stroke-linejoin:round" /><circle
         cx="149.15834"
         cy="1213.3561"
         r="3.1571026"
         id="circle823"
         style="fill:#000000;stroke:#000000;stroke-width:2.36783;stroke-linecap:round;stroke-linejoin:round" /><circle
         cx="161.78674"
         cy="1208.6205"
         r="3.1571026"
         id="circle824"
         style="fill:#000000;stroke:#000000;stroke-width:2.36783;stroke-linecap:round;stroke-linejoin:round" /><circle
         cx="175.20444"
         cy="1207.0419"
         r="3.1571026"
         id="circle825"
         style="fill:#000000;stroke:#000000;stroke-width:2.36783;stroke-linecap:round;stroke-linejoin:round" /><circle
         cx="188.62212"
         cy="1208.6205"
         r="3.1571026"
         id="circle826"
         style="fill:#000000;stroke:#000000;stroke-width:2.36783;stroke-linecap:round;stroke-linejoin:round" /><circle
         cx="201.25052"
         cy="1213.3561"
         r="3.1571026"
         id="circle827"
         style="fill:#000000;stroke:#000000;stroke-width:2.36783;stroke-linecap:round;stroke-linejoin:round" /><path
         d="m 157.0511,1255.1876 a 55.249296,55.249296 0 0 0 36.30668,0"
         style="fill:none;stroke:#000000;stroke-width:2.36783;stroke-linecap:butt;stroke-linejoin:round"
         id="path827" /><path
         d="m 157.0511,1240.1914 a 55.249296,55.249296 0 0 1 36.30668,0"
         id="path828"
         style="fill:none;stroke:#ffffff;stroke-width:2.36783;stroke-linecap:round;stroke-linejoin:round" /><path
         d="m 159.41893,1244.1379 h 31.57102"
         id="path829"
         style="fill:none;stroke:#ffffff;stroke-width:2.36783;stroke-linecap:round;stroke-linejoin:round" /><path
         d="m 157.84037,1248.8734 a 55.249296,55.249296 0 0 0 34.72813,0"
         id="path830"
         style="fill:none;stroke:#ffffff;stroke-width:2.36783;stroke-linecap:round;stroke-linejoin:round" /><path
         d="m 156.26182,1253.6091 a 55.249296,55.249296 0 0 0 37.88523,0"
         id="path831"
         style="fill:none;stroke:#ffffff;stroke-width:2.36783;stroke-linecap:round;stroke-linejoin:round" /></g></g><g
     id="g706"
     transform="translate(33.91191,1783.5582)"><g
       id="use663"
       transform="translate(508.58809,-2319.0582)"><path
         id="path727"
         d="m 0.5,535.5 v 59 h 59 v -59 z m 59,59 v 59 h 59 v -59 z m 59,0 h 59 v -59 h -59 z m 59,0 v 59 h 59 v -59 z m 59,0 h 59 v -59 h -59 z m 59,0 v 59 h 59 v -59 z m 59,0 h 59 v -59 h -59 z m 59,0 v 59 h 60 v -59 z m 0,59 h -59 v 59 h 59 z m 0,59 v 59 h 60 v -59 z m 0,59 h -59 v 59 h 59 z m 0,59 v 59 h 60 v -59 z m 0,59 h -59 v 59 h 59 z m 0,59 v 59 h 60 v -59 z m -59,0 h -59 v 59 h 59 z m -59,0 v -59 h -59 v 59 z m -59,0 h -59 v 59 h 59 z m -59,0 v -59 h -59 v 59 z m -59,0 h -59 v 59 h 59 z m -59,0 v -59 h -59 v 59 z m 0,-59 h 59 v -59 h -59 z m 0,-59 v -59 h -59 v 59 z m 0,-59 h 59 v -59 h -59 z m 0,-59 v -59 h -59 v 59 z m 59,0 h 59 v -59 h -59 z m 59,0 v 59 h 59 v -59 z m 59,0 h 59 v -59 h -59 z m 59,0 v 59 h 59 v -59 z m 0,59 h -59 v 59 h 59 z m 0,59 v 59 h 59 v -59 z m -59,0 h -59 v 59 h 59 z m -59,0 v -59 h -59 v 59 z"
         style="fill:#f1f1f1;fill-opacity:1" /><path
         id="path728"
         d="m 59.5,535.5 v 59 h 59 v -59 z m 59,59 v 59 h 59 v -59 z m 59,0 h 59 v -59 h -59 z m 59,0 v 59 h 59 v -59 z m 59,0 h 59 v -59 h -59 z m 59,0 v 59 h 59 v -59 z m 59,0 h 60 v -59 h -60 z m 0,59 v 59 h 60 v -59 z m 0,59 h -59 v 59 h 59 z m 0,59 v 59 h 60 v -59 z m 0,59 h -59 v 59 h 59 z m 0,59 v 59 h 60 v -59 z m 0,59 h -59 v 59 h 59 z m -59,0 v -59 h -59 v 59 z m -59,0 h -59 v 59 h 59 z m -59,0 v -59 h -59 v 59 z m -59,0 h -59 v 59 h 59 z m -59,0 v -59 h -59 v 59 z m -59,0 h -59 v 59 h 59 z m 0,-59 v -59 h -59 v 59 z m 0,-59 h 59 v -59 h -59 z m 0,-59 v -59 h -59 v 59 z m 0,-59 h 59 v -59 h -59 z m 0,-59 v -59 h -59 v 59 z m 59,59 v 59 h 59 v -59 z m 59,0 h 59 v -59 h -59 z m 59,0 v 59 h 59 v -59 z m 59,0 h 59 v -59 h -59 z m 0,59 v 59 h 59 v -59 z m 0,59 h -59 v 59 h 59 z m -59,0 v -59 h -59 v 59 z m -59,0 h -59 v 59 h 59 z"
         style="fill:#cd3c37;fill-opacity:1" /></g><g
       id="use703"
       transform="matrix(0.97313111,0,0,0.97313111,486.265,-2598.3778)"><path
         d="m 153.89399,1235.4557 c 13.41769,-2.3678 33.14958,-2.3678 42.62088,0 l 3.94638,-19.7318 -11.83913,18.1534 -0.47356,-22.2576 -8.20847,21.4682 -4.73565,-22.8889 -4.73565,22.8889 -8.20847,-21.4682 -0.47357,22.2576 -11.83914,-18.1534 z"
         style="fill:#000000;stroke:#000000;stroke-width:2.36783;stroke-linecap:butt;stroke-linejoin:round"
         id="path844" /><path
         d="m 153.89399,1235.4557 c 0,3.1571 2.36783,3.1571 3.94638,6.3142 1.57856,2.368 1.57856,1.5786 0.78927,5.525 -2.36782,1.5785 -1.57854,3.9463 -1.57854,3.9463 -2.36783,2.3679 0,3.9464 0,3.9464 10.26058,1.5787 26.04609,1.5787 36.30668,0 0,0 2.36782,-1.5785 0,-3.9464 0,0 0.78927,-2.3678 -1.57856,-3.9463 -0.78927,-3.9464 -0.78927,-3.157 0.78928,-5.525 1.57855,-3.1571 3.94637,-3.1571 3.94637,-6.3142 -13.41768,-2.3678 -29.20319,-2.3678 -42.62088,0 z"
         id="path845"
         style="fill:#000000;stroke:#000000;stroke-width:2.36783;stroke-linecap:round;stroke-linejoin:round" /><path
         d="m 157.84037,1241.7699 c 5.52493,-1.5785 29.2032,-1.5785 34.72813,0"
         id="path846"
         style="fill:#000000;stroke:#000000;stroke-width:2.36783;stroke-linecap:round;stroke-linejoin:round" /><path
         d="m 158.62964,1247.2949 c 9.47132,-1.5786 23.67828,-1.5786 33.14958,0"
         id="path847"
         style="fill:#000000;stroke:#000000;stroke-width:2.36783;stroke-linecap:round;stroke-linejoin:round" /><circle
         cx="149.15834"
         cy="1213.3561"
         r="3.1571026"
         id="circle847"
         style="fill:#000000;stroke:#000000;stroke-width:2.36783;stroke-linecap:round;stroke-linejoin:round" /><circle
         cx="161.78674"
         cy="1208.6205"
         r="3.1571026"
         id="circle848"
         style="fill:#000000;stroke:#000000;stroke-width:2.36783;stroke-linecap:round;stroke-linejoin:round" /><circle
         cx="175.20444"
         cy="1207.0419"
         r="3.1571026"
         id="circle849"
         style="fill:#000000;stroke:#000000;stroke-width:2.36783;stroke-linecap:round;stroke-linejoin:round" /><circle
         cx="188.62212"
         cy="1208.6205"
         r="3.1571026"
         id="circle850"
         style="fill:#000000;stroke:#000000;stroke-width:2.36783;stroke-linecap:round;stroke-linejoin:round" /><circle
         cx="201.25052"
         cy="1213.3561"
         r="3.1571026"
         id="circle851"
         style="fill:#000000;stroke:#000000;stroke-width:2.36783;stroke-linecap:round;stroke-linejoin:round" /><path
         d="m 157.0511,1255.1876 a 55.249296,55.249296 0 0 0 36.30668,0"
         style="fill:none;stroke:#000000;stroke-width:2.36783;stroke-linecap:butt;stroke-linejoin:round"
         id="path851" /><path
         d="m 157.0511,1240.1914 a 55.249296,55.249296 0 0 1 36.30668,0"
         id="path852"
         style="fill:none;stroke:#ffffff;stroke-width:2.36783;stroke-linecap:round;stroke-linejoin:round" /><path
         d="m 159.41893,1244.1379 h 31.57102"
         id="path853"
         style="fill:none;stroke:#ffffff;stroke-width:2.36783;stroke-linecap:round;stroke-linejoin:round" /><path
         d="m 157.84037,1248.8734 a 55.249296,55.249296 0 0 0 34.72813,0"
         id="path854"
         style="fill:none;stroke:#ffffff;stroke-width:2.36783;stroke-linecap:round;stroke-linejoin:round" /><path
         d="m 156.26182,1253.6091 a 55.249296,55.249296 0 0 0 37.88523,0"
         id="path855"
         style="fill:none;stroke:#ffffff;stroke-width:2.36783;stroke-linecap:round;stroke-linejoin:round" /></g><g
       id="use704"
       transform="matrix(0.97313111,0,0,0.97313111,663.79412,-2828.5673)"><path
         stroke-linejoin="miter"
         d="m 175.20444,1390.0109 v -8.8871 m -3.94638,3.157 h 7.89276"
         id="path936"
         style="fill:none;fill-rule:evenodd;stroke:#000000;stroke-width:2.36783;stroke-linecap:round" /><path
         fill="#ffffff"
         stroke-linecap="butt"
         stroke-linejoin="miter"
         d="m 175.20444,1411.1163 c 0,0 7.10348,-11.8392 4.73565,-16.5749 0,0 -1.57855,-3.9463 -4.73565,-3.9463 -3.15711,0 -4.73565,3.9463 -4.73565,3.9463 -2.36783,4.7357 4.73565,16.5749 4.73565,16.5749"
         id="path937"
         style="fill-rule:evenodd;stroke:#000000;stroke-width:2.36783" /><path
         fill="#ffffff"
         d="m 159.41893,1430.0589 c 8.68203,5.5248 22.88899,5.5248 31.57102,0 v -11.05 c 0,0 14.20696,-7.1035 9.4713,-16.5747 -6.3142,-10.2606 -21.31043,-5.5249 -25.25681,6.3141 v 5.5251 -5.5251 c -3.94638,-11.839 -18.94262,-16.5747 -25.25683,-6.3141 -4.73565,9.4712 9.47132,16.5747 9.47132,16.5747 v 11.05"
         id="path938"
         style="fill-rule:evenodd;stroke:#000000;stroke-width:2.36783;stroke-linecap:round;stroke-linejoin:round" /><path
         d="m 159.41893,1419.0089 c 8.68203,-4.7355 22.88899,-4.7355 31.57102,0 m -31.57102,5.5249 c 8.68203,-4.7355 22.88899,-4.7355 31.57102,0 m -31.57102,5.5251 c 8.68203,-4.7358 22.88899,-4.7358 31.57102,0"
         id="path939"
         style="fill:none;fill-rule:evenodd;stroke:#000000;stroke-width:2.36783;stroke-linecap:round;stroke-linejoin:round" /></g><g
       id="use705"
       transform="matrix(0.97313111,0,0,0.97313111,762.37504,-2875.0468)"><path
         d="m 52.375424,1419.0353 h 42.620884 v -4.7357 H 52.375424 Z"
         style="fill:#000000;fill-opacity:1;fill-rule:evenodd;stroke:#000000;stroke-width:2.36783;stroke-linecap:butt;stroke-linejoin:round;stroke-miterlimit:4;stroke-dasharray:none;stroke-opacity:1"
         id="path803" /><path
         d="m 57.900353,1407.9855 2.367827,-3.9465 h 26.835371 l 2.367827,3.9465 z"
         style="fill:#000000;fill-opacity:1;fill-rule:evenodd;stroke:#000000;stroke-width:2.36783;stroke-linecap:butt;stroke-linejoin:round;stroke-miterlimit:4;stroke-dasharray:none;stroke-opacity:1"
         id="path804" /><path
         d="m 57.111077,1414.2996 v -6.3141 h 33.149577 v 6.3141 z"
         style="fill:#000000;fill-opacity:1;fill-rule:evenodd;stroke:#000000;stroke-width:2.36783;stroke-linecap:butt;stroke-linejoin:round;stroke-miterlimit:4;stroke-dasharray:none;stroke-opacity:1"
         id="path805" /><path
         d="m 60.26818,1404.039 v -20.5212 h 26.835371 v 20.5212 z"
         style="fill:#000000;fill-opacity:1;fill-rule:evenodd;stroke:#000000;stroke-width:2.36783;stroke-linecap:butt;stroke-linejoin:miter;stroke-miterlimit:4;stroke-dasharray:none;stroke-opacity:1"
         id="path806" /><path
         d="m 60.26818,1383.5178 -4.735654,-3.9462 h 36.30668 l -4.735655,3.9462 z"
         style="fill:#000000;fill-opacity:1;fill-rule:evenodd;stroke:#000000;stroke-width:2.36783;stroke-linecap:butt;stroke-linejoin:round;stroke-miterlimit:4;stroke-dasharray:none;stroke-opacity:1"
         id="path807" /><path
         d="m 55.532526,1379.5716 v -7.8928 h 6.314204 v 3.1571 h 7.892757 v -3.1571 h 7.892757 v 3.1571 H 85.525 v -3.1571 h 6.314206 v 7.8928 z"
         style="fill:#000000;fill-opacity:1;fill-rule:evenodd;stroke:#000000;stroke-width:2.36783;stroke-linecap:butt;stroke-linejoin:round;stroke-miterlimit:4;stroke-dasharray:none;stroke-opacity:1"
         id="path808" /><path
         d="m 57.111077,1413.5104 h 33.149577 v 0"
         style="fill:none;fill-opacity:1;fill-rule:evenodd;stroke:#ffffff;stroke-width:1.57855;stroke-linecap:round;stroke-linejoin:miter;stroke-miterlimit:4;stroke-dasharray:none;stroke-opacity:1"
         id="path809" /><path
         d="M 58.689628,1407.1961 H 88.682102"
         style="fill:none;fill-opacity:1;fill-rule:evenodd;stroke:#ffffff;stroke-width:1.57855;stroke-linecap:round;stroke-linejoin:miter;stroke-miterlimit:4;stroke-dasharray:none;stroke-opacity:1"
         id="path810" /><path
         d="M 60.26818,1404.039 H 87.103551"
         style="fill:none;fill-opacity:1;fill-rule:evenodd;stroke:#ffffff;stroke-width:1.57855;stroke-linecap:round;stroke-linejoin:miter;stroke-miterlimit:4;stroke-dasharray:none;stroke-opacity:1"
         id="path811" /><path
         d="M 60.26818,1383.5178 H 87.103551"
         style="fill:none;fill-opacity:1;fill-rule:evenodd;stroke:#ffffff;stroke-width:1.57855;stroke-linecap:round;stroke-linejoin:miter;stroke-miterlimit:4;stroke-dasharray:none;stroke-opacity:1"
         id="path812" /><path
         d="m 55.532526,1379.5716 h 36.30668"
         style="fill:none;fill-opacity:1;fill-rule:evenodd;stroke:#ffffff;stroke-width:1.57855;stroke-linecap:round;stroke-linejoin:miter;stroke-miterlimit:4;stroke-dasharray:none;stroke-opacity:1"
         id="path813" /></g><g
       id="use706"
       transform="matrix(0.97313111,0,0,0.97313111,722.50229,-2860.4413)"><path
         d="m 175.20444,1301.7017 v -8.8872"
         style="fill:none;fill-opacity:1;fill-rule:evenodd;stroke:#000000;stroke-width:2.36783;stroke-linecap:round;stroke-linejoin:miter;stroke-miterlimit:4;stroke-dasharray:none;stroke-opacity:1"
         id="path898" /><path
         d="m 175.20444,1322.807 c 0,0 7.10348,-11.8391 4.73565,-16.5748 0,0 -1.57855,-3.9464 -4.73565,-3.9464 -3.15711,0 -4.73565,3.9464 -4.73565,3.9464 -2.36783,4.7357 4.73565,16.5748 4.73565,16.5748"
         style="fill:#000000;fill-opacity:1;fill-rule:evenodd;stroke:#000000;stroke-width:2.36783;stroke-linecap:butt;stroke-linejoin:miter;stroke-miterlimit:4;stroke-dasharray:none;stroke-opacity:1"
         id="path899" /><path
         d="m 159.41893,1341.7496 c 8.68203,5.525 22.88899,5.525 31.57102,0 v -11.0498 c 0,0 14.20696,-7.1036 9.4713,-16.5748 -6.3142,-10.2606 -21.31043,-5.5251 -25.25681,6.3142 v 5.5249 -5.5249 c -3.94638,-11.8393 -18.94262,-16.5748 -25.25683,-6.3142 -4.73565,9.4712 9.47132,16.5748 9.47132,16.5748 v 11.0498"
         style="fill:#000000;fill-opacity:1;fill-rule:evenodd;stroke:#000000;stroke-width:2.36783;stroke-linecap:round;stroke-linejoin:round;stroke-miterlimit:4;stroke-dasharray:none;stroke-opacity:1"
         id="path900" /><path
         d="m 171.25806,1295.9716 h 7.89276"
         style="fill:none;fill-opacity:1;fill-rule:evenodd;stroke:#000000;stroke-width:2.36783;stroke-linecap:round;stroke-linejoin:miter;stroke-miterlimit:4;stroke-dasharray:none;stroke-opacity:1"
         id="path901" /><path
         d="m 190.20068,1329.9105 c 0,0 13.41768,-6.3143 9.51866,-15.2331 -6.12478,-9.2345 -20.56852,-2.9204 -24.5149,7.3402 v 3.3151 -3.3151 c -3.94638,-10.2606 -18.39013,-16.5747 -24.5149,-7.3402 -3.89903,8.9188 9.51866,15.2331 9.51866,15.2331"
         style="fill:none;fill-opacity:1;fill-rule:evenodd;stroke:#ffffff;stroke-width:2.36783;stroke-linecap:round;stroke-linejoin:round;stroke-miterlimit:4;stroke-dasharray:none;stroke-opacity:1"
         id="path902" /><path
         d="m 159.41893,1330.6998 c 8.68203,-4.7357 22.88899,-4.7357 31.57102,0 m -31.57102,5.5249 c 8.68203,-4.7356 22.88899,-4.7356 31.57102,0 m -31.57102,5.5249 c 8.68203,-4.7356 22.88899,-4.7356 31.57102,0"
         style="fill:none;fill-opacity:1;fill-rule:evenodd;stroke:#ffffff;stroke-width:2.36783;stroke-linecap:round;stroke-linejoin:round;stroke-miterlimit:4;stroke-dasharray:none;stroke-opacity:1"
         id="path903" /></g></g><g
     id="g717"
     transform="translate(43.3116,1778.8204)"><g
       id="use664"
       transform="translate(1042.1884,-2314.3204)"><path
         id="path731"
         d="m 0.5,535.5 v 59 h 59 v -59 z m 59,59 v 59 h 59 v -59 z m 59,0 h 59 v -59 h -59 z m 59,0 v 59 h 59 v -59 z m 59,0 h 59 v -59 h -59 z m 59,0 v 59 h 59 v -59 z m 59,0 h 59 v -59 h -59 z m 59,0 v 59 h 60 v -59 z m 0,59 h -59 v 59 h 59 z m 0,59 v 59 h 60 v -59 z m 0,59 h -59 v 59 h 59 z m 0,59 v 59 h 60 v -59 z m 0,59 h -59 v 59 h 59 z m 0,59 v 59 h 60 v -59 z m -59,0 h -59 v 59 h 59 z m -59,0 v -59 h -59 v 59 z m -59,0 h -59 v 59 h 59 z m -59,0 v -59 h -59 v 59 z m -59,0 h -59 v 59 h 59 z m -59,0 v -59 h -59 v 59 z m 0,-59 h 59 v -59 h -59 z m 0,-59 v -59 h -59 v 59 z m 0,-59 h 59 v -59 h -59 z m 0,-59 v -59 h -59 v 59 z m 59,0 h 59 v -59 h -59 z m 59,0 v 59 h 59 v -59 z m 59,0 h 59 v -59 h -59 z m 59,0 v 59 h 59 v -59 z m 0,59 h -59 v 59 h 59 z m 0,59 v 59 h 59 v -59 z m -59,0 h -59 v 59 h 59 z m -59,0 v -59 h -59 v 59 z"
         style="fill:#f1f1f1;fill-opacity:1" /><path
         id="path732"
         d="m 59.5,535.5 v 59 h 59 v -59 z m 59,59 v 59 h 59 v -59 z m 59,0 h 59 v -59 h -59 z m 59,0 v 59 h 59 v -59 z m 59,0 h 59 v -59 h -59 z m 59,0 v 59 h 59 v -59 z m 59,0 h 60 v -59 h -60 z m 0,59 v 59 h 60 v -59 z m 0,59 h -59 v 59 h 59 z m 0,59 v 59 h 60 v -59 z m 0,59 h -59 v 59 h 59 z m 0,59 v 59 h 60 v -59 z m 0,59 h -59 v 59 h 59 z m -59,0 v -59 h -59 v 59 z m -59,0 h -59 v 59 h 59 z m -59,0 v -59 h -59 v 59 z m -59,0 h -59 v 59 h 59 z m -59,0 v -59 h -59 v 59 z m -59,0 h -59 v 59 h 59 z m 0,-59 v -59 h -59 v 59 z m 0,-59 h 59 v -59 h -59 z m 0,-59 v -59 h -59 v 59 z m 0,-59 h 59 v -59 h -59 z m 0,-59 v -59 h -59 v 59 z m 59,59 v 59 h 59 v -59 z m 59,0 h 59 v -59 h -59 z m 59,0 v 59 h 59 v -59 z m 59,0 h 59 v -59 h -59 z m 0,59 v 59 h 59 v -59 z m 0,59 h -59 v 59 h 59 z m -59,0 v -59 h -59 v 59 z m -59,0 h -59 v 59 h 59 z"
         style="fill:#cd3c37;fill-opacity:1" /></g><g
       id="use707"
       transform="matrix(0.97313111,0,0,0.97313111,1137.5806,-3033.1633)"><path
         d="m 175.20444,1301.7017 v -8.8872"
         style="fill:none;fill-opacity:1;fill-rule:evenodd;stroke:#000000;stroke-width:2.36783;stroke-linecap:round;stroke-linejoin:miter;stroke-miterlimit:4;stroke-dasharray:none;stroke-opacity:1"
         id="path910" /><path
         d="m 175.20444,1322.807 c 0,0 7.10348,-11.8391 4.73565,-16.5748 0,0 -1.57855,-3.9464 -4.73565,-3.9464 -3.15711,0 -4.73565,3.9464 -4.73565,3.9464 -2.36783,4.7357 4.73565,16.5748 4.73565,16.5748"
         style="fill:#000000;fill-opacity:1;fill-rule:evenodd;stroke:#000000;stroke-width:2.36783;stroke-linecap:butt;stroke-linejoin:miter;stroke-miterlimit:4;stroke-dasharray:none;stroke-opacity:1"
         id="path911" /><path
         d="m 159.41893,1341.7496 c 8.68203,5.525 22.88899,5.525 31.57102,0 v -11.0498 c 0,0 14.20696,-7.1036 9.4713,-16.5748 -6.3142,-10.2606 -21.31043,-5.5251 -25.25681,6.3142 v 5.5249 -5.5249 c -3.94638,-11.8393 -18.94262,-16.5748 -25.25683,-6.3142 -4.73565,9.4712 9.47132,16.5748 9.47132,16.5748 v 11.0498"
         style="fill:#000000;fill-opacity:1;fill-rule:evenodd;stroke:#000000;stroke-width:2.36783;stroke-linecap:round;stroke-linejoin:round;stroke-miterlimit:4;stroke-dasharray:none;stroke-opacity:1"
         id="path912" /><path
         d="m 171.25806,1295.9716 h 7.89276"
         style="fill:none;fill-opacity:1;fill-rule:evenodd;stroke:#000000;stroke-width:2.36783;stroke-linecap:round;stroke-linejoin:miter;stroke-miterlimit:4;stroke-dasharray:none;stroke-opacity:1"
         id="path913" /><path
         d="m 190.20068,1329.9105 c 0,0 13.41768,-6.3143 9.51866,-15.2331 -6.12478,-9.2345 -20.56852,-2.9204 -24.5149,7.3402 v 3.3151 -3.3151 c -3.94638,-10.2606 -18.39013,-16.5747 -24.5149,-7.3402 -3.89903,8.9188 9.51866,15.2331 9.51866,15.2331"
         style="fill:none;fill-opacity:1;fill-rule:evenodd;stroke:#ffffff;stroke-width:2.36783;stroke-linecap:round;stroke-linejoin:round;stroke-miterlimit:4;stroke-dasharray:none;stroke-opacity:1"
         id="path914" /><path
         d="m 159.41893,1330.6998 c 8.68203,-4.7357 22.88899,-4.7357 31.57102,0 m -31.57102,5.5249 c 8.68203,-4.7356 22.88899,-4.7356 31.57102,0 m -31.57102,5.5249 c 8.68203,-4.7356 22.88899,-4.7356 31.57102,0"
         style="fill:none;fill-opacity:1;fill-rule:evenodd;stroke:#ffffff;stroke-width:2.36783;stroke-linecap:round;stroke-linejoin:round;stroke-miterlimit:4;stroke-dasharray:none;stroke-opacity:1"
         id="path915" /></g><g
       id="use708"
       transform="matrix(1.5361374,0,0,1.5361374,1271.6818,-3624.9731)"><path
         d="m 62.41874,1400.4027 c 10.5,1 16.5,8 16,29 h -23 c 0,-9 10,-6.5 8,-21"
         style="fill:#000000;fill-opacity:1;fill-rule:evenodd;stroke:#000000;stroke-width:1.5;stroke-linecap:round;stroke-linejoin:round;stroke-miterlimit:4;stroke-dasharray:none;stroke-opacity:1"
         id="path768" /><path
         d="m 64.41874,1408.4027 c 0.38,2.91 -5.55,7.37 -8,9 -3,2 -2.82,4.34 -5,4 -1.042,-0.94 1.41,-3.04 0,-3 -1,0 0.19,1.23 -1,2 -1,0 -4.003,1 -4,-4 0,-2 6,-12 6,-12 0,0 1.89,-1.9 2,-3.5 -0.73,-0.994 -0.5,-2 -0.5,-3 1,-1 3,2.5 3,2.5 h 2 c 0,0 0.78,-1.992 2.5,-3 1,0 1,3 1,3"
         style="fill:#000000;fill-opacity:1;fill-rule:evenodd;stroke:#000000;stroke-width:1.5;stroke-linecap:round;stroke-linejoin:round;stroke-miterlimit:4;stroke-dasharray:none;stroke-opacity:1"
         id="path769" /><path
         d="m 49.91874,1415.9027 a 0.5,0.5 0 1 1 -1,0 0.5,0.5 0 1 1 1,0 z"
         style="fill:#ffffff;fill-opacity:1;fill-rule:evenodd;stroke:#ffffff;stroke-width:1.5;stroke-linecap:round;stroke-linejoin:round;stroke-miterlimit:4;stroke-dasharray:none;stroke-opacity:1"
         id="path770" /><path
         d="m 55.35174,1406.1527 a 0.499989,1.499967 30.000728 1 1 -0.866,-0.5 0.499989,1.499967 30.000728 1 1 0.866,0.5 z"
         style="fill:#ffffff;fill-opacity:1;fill-rule:evenodd;stroke:#ffffff;stroke-width:1.49997;stroke-linecap:round;stroke-linejoin:round;stroke-miterlimit:4;stroke-dasharray:none;stroke-opacity:1"
         id="path771" /><path
         d="m 64.96874,1400.8027 -0.45,1.45 0.5,0.15 c 3.15,1 5.65,2.49 7.9,6.75 2.25,4.26 3.25,10.31 2.75,20.25 l -0.05,0.5 h 2.25 l 0.05,-0.5 c 0.5,-10.06 -0.88,-16.85 -3.25,-21.34 -2.37,-4.49 -5.79,-6.64 -9.19,-7.16 z"
         style="fill:#ffffff;fill-opacity:1;fill-rule:evenodd;stroke:none;stroke-width:1.5;stroke-linecap:round;stroke-linejoin:round;stroke-miterlimit:4;stroke-dasharray:none;stroke-opacity:1"
         id="path772" /></g><g
       id="use709"
       transform="matrix(0.97313111,0,0,0.97313111,1020.0589,-2711.0208)"><path
         d="m 153.89399,1235.4557 c 13.41769,-2.3678 33.14958,-2.3678 42.62088,0 l 3.94638,-19.7318 -11.83913,18.1534 -0.47356,-22.2576 -8.20847,21.4682 -4.73565,-22.8889 -4.73565,22.8889 -8.20847,-21.4682 -0.47357,22.2576 -11.83914,-18.1534 z"
         style="fill:#000000;stroke:#000000;stroke-width:2.36783;stroke-linecap:butt;stroke-linejoin:round"
         id="path856" /><path
         d="m 153.89399,1235.4557 c 0,3.1571 2.36783,3.1571 3.94638,6.3142 1.57856,2.368 1.57856,1.5786 0.78927,5.525 -2.36782,1.5785 -1.57854,3.9463 -1.57854,3.9463 -2.36783,2.3679 0,3.9464 0,3.9464 10.26058,1.5787 26.04609,1.5787 36.30668,0 0,0 2.36782,-1.5785 0,-3.9464 0,0 0.78927,-2.3678 -1.57856,-3.9463 -0.78927,-3.9464 -0.78927,-3.157 0.78928,-5.525 1.57855,-3.1571 3.94637,-3.1571 3.94637,-6.3142 -13.41768,-2.3678 -29.20319,-2.3678 -42.62088,0 z"
         id="path857"
         style="fill:#000000;stroke:#000000;stroke-width:2.36783;stroke-linecap:round;stroke-linejoin:round" /><path
         d="m 157.84037,1241.7699 c 5.52493,-1.5785 29.2032,-1.5785 34.72813,0"
         id="path858"
         style="fill:#000000;stroke:#000000;stroke-width:2.36783;stroke-linecap:round;stroke-linejoin:round" /><path
         d="m 158.62964,1247.2949 c 9.47132,-1.5786 23.67828,-1.5786 33.14958,0"
         id="path859"
         style="fill:#000000;stroke:#000000;stroke-width:2.36783;stroke-linecap:round;stroke-linejoin:round" /><circle
         cx="149.15834"
         cy="1213.3561"
         r="3.1571026"
         id="circle859"
         style="fill:#000000;stroke:#000000;stroke-width:2.36783;stroke-linecap:round;stroke-linejoin:round" /><circle
         cx="161.78674"
         cy="1208.6205"
         r="3.1571026"
         id="circle860"
         style="fill:#000000;stroke:#000000;stroke-width:2.36783;stroke-linecap:round;stroke-linejoin:round" /><circle
         cx="175.20444"
         cy="1207.0419"
         r="3.1571026"
         id="circle861"
         style="fill:#000000;stroke:#000000;stroke-width:2.36783;stroke-linecap:round;stroke-linejoin:round" /><circle
         cx="188.62212"
         cy="1208.6205"
         r="3.1571026"
         id="circle862"
         style="fill:#000000;stroke:#000000;stroke-width:2.36783;stroke-linecap:round;stroke-linejoin:round" /><circle
         cx="201.25052"
         cy="1213.3561"
         r="3.1571026"
         id="circle863"
         style="fill:#000000;stroke:#000000;stroke-width:2.36783;stroke-linecap:round;stroke-linejoin:round" /><path
         d="m 157.0511,1255.1876 a 55.249296,55.249296 0 0 0 36.30668,0"
         style="fill:none;stroke:#000000;stroke-width:2.36783;stroke-linecap:butt;stroke-linejoin:round"
         id="path863" /><path
         d="m 157.0511,1240.1914 a 55.249296,55.249296 0 0 1 36.30668,0"
         id="path864"
         style="fill:none;stroke:#ffffff;stroke-width:2.36783;stroke-linecap:round;stroke-linejoin:round" /><path
         d="m 159.41893,1244.1379 h 31.57102"
         id="path865"
         style="fill:none;stroke:#ffffff;stroke-width:2.36783;stroke-linecap:round;stroke-linejoin:round" /><path
         d="m 157.84037,1248.8734 a 55.249296,55.249296 0 0 0 34.72813,0"
         id="path866"
         style="fill:none;stroke:#ffffff;stroke-width:2.36783;stroke-linecap:round;stroke-linejoin:round" /><path
         d="m 156.26182,1253.6091 a 55.249296,55.249296 0 0 0 37.88523,0"
         id="path867"
         style="fill:none;stroke:#ffffff;stroke-width:2.36783;stroke-linecap:round;stroke-linejoin:round" /></g><g
       id="use710"
       transform="matrix(0.97313111,0,0,0.97313111,1078.5079,-2765.1885)"><path
         stroke-linejoin="miter"
         d="m 175.20444,1390.0109 v -8.8871 m -3.94638,3.157 h 7.89276"
         id="path944"
         style="fill:none;fill-rule:evenodd;stroke:#000000;stroke-width:2.36783;stroke-linecap:round" /><path
         fill="#ffffff"
         stroke-linecap="butt"
         stroke-linejoin="miter"
         d="m 175.20444,1411.1163 c 0,0 7.10348,-11.8392 4.73565,-16.5749 0,0 -1.57855,-3.9463 -4.73565,-3.9463 -3.15711,0 -4.73565,3.9463 -4.73565,3.9463 -2.36783,4.7357 4.73565,16.5749 4.73565,16.5749"
         id="path945"
         style="fill-rule:evenodd;stroke:#000000;stroke-width:2.36783" /><path
         fill="#ffffff"
         d="m 159.41893,1430.0589 c 8.68203,5.5248 22.88899,5.5248 31.57102,0 v -11.05 c 0,0 14.20696,-7.1035 9.4713,-16.5747 -6.3142,-10.2606 -21.31043,-5.5249 -25.25681,6.3141 v 5.5251 -5.5251 c -3.94638,-11.839 -18.94262,-16.5747 -25.25683,-6.3141 -4.73565,9.4712 9.47132,16.5747 9.47132,16.5747 v 11.05"
         id="path946"
         style="fill-rule:evenodd;stroke:#000000;stroke-width:2.36783;stroke-linecap:round;stroke-linejoin:round" /><path
         d="m 159.41893,1419.0089 c 8.68203,-4.7355 22.88899,-4.7355 31.57102,0 m -31.57102,5.5249 c 8.68203,-4.7355 22.88899,-4.7355 31.57102,0 m -31.57102,5.5251 c 8.68203,-4.7358 22.88899,-4.7358 31.57102,0"
         id="path947"
         style="fill:none;fill-rule:evenodd;stroke:#000000;stroke-width:2.36783;stroke-linecap:round;stroke-linejoin:round" /></g><g
       id="use711"
       transform="matrix(0.97313111,0,0,0.97313111,1294.8323,-2839.1231)"><path
         d="m 73.685865,1459.5933 c -3.488598,0 -6.314204,2.8257 -6.314204,6.3144 0,1.4047 0.457779,2.6992 1.23127,3.7568 -3.078176,1.768 -5.177648,5.0672 -5.177648,8.8715 0,3.2044 1.483837,6.0617 3.804308,7.9401 -4.735654,1.6733 -11.697065,8.761 -11.697065,21.2631 h 36.30668 c 0,-12.5021 -6.961412,-19.5898 -11.697065,-21.2631 2.32047,-1.8784 3.804308,-4.7357 3.804308,-7.9401 0,-3.8043 -2.099473,-7.1035 -5.177648,-8.8715 0.77349,-1.0576 1.23127,-2.3521 1.23127,-3.7568 0,-3.4887 -2.825608,-6.3144 -6.314206,-6.3144 z"
         style="opacity:1;fill:#000000;fill-opacity:1;fill-rule:nonzero;stroke:#000000;stroke-width:2.36783;stroke-linecap:round;stroke-linejoin:miter;stroke-miterlimit:4;stroke-dasharray:none;stroke-opacity:1"
         id="path815" /></g></g><g
     id="g701"
     transform="translate(1697.4754,1205.6877)"><g
       id="use665"
       transform="translate(-68.975402,-1741.1877)"><path
         id="path721"
         d="m 0.5,535.5 v 59 h 59 v -59 z m 59,59 v 59 h 59 v -59 z m 59,0 h 59 v -59 h -59 z m 59,0 v 59 h 59 v -59 z m 59,0 h 59 v -59 h -59 z m 59,0 v 59 h 59 v -59 z m 59,0 h 59 v -59 h -59 z m 59,0 v 59 h 60 v -59 z m 0,59 h -59 v 59 h 59 z m 0,59 v 59 h 60 v -59 z m 0,59 h -59 v 59 h 59 z m 0,59 v 59 h 60 v -59 z m 0,59 h -59 v 59 h 59 z m 0,59 v 59 h 60 v -59 z m -59,0 h -59 v 59 h 59 z m -59,0 v -59 h -59 v 59 z m -59,0 h -59 v 59 h 59 z m -59,0 v -59 h -59 v 59 z m -59,0 h -59 v 59 h 59 z m -59,0 v -59 h -59 v 59 z m 0,-59 h 59 v -59 h -59 z m 0,-59 v -59 h -59 v 59 z m 0,-59 h 59 v -59 h -59 z m 0,-59 v -59 h -59 v 59 z m 59,0 h 59 v -59 h -59 z m 59,0 v 59 h 59 v -59 z m 59,0 h 59 v -59 h -59 z m 59,0 v 59 h 59 v -59 z m 0,59 h -59 v 59 h 59 z m 0,59 v 59 h 59 v -59 z m -59,0 h -59 v 59 h 59 z m -59,0 v -59 h -59 v 59 z"
         style="fill:#f1f1f1;fill-opacity:1" /><path
         id="path722"
         d="m 59.5,535.5 v 59 h 59 v -59 z m 59,59 v 59 h 59 v -59 z m 59,0 h 59 v -59 h -59 z m 59,0 v 59 h 59 v -59 z m 59,0 h 59 v -59 h -59 z m 59,0 v 59 h 59 v -59 z m 59,0 h 60 v -59 h -60 z m 0,59 v 59 h 60 v -59 z m 0,59 h -59 v 59 h 59 z m 0,59 v 59 h 60 v -59 z m 0,59 h -59 v 59 h 59 z m 0,59 v 59 h 60 v -59 z m 0,59 h -59 v 59 h 59 z m -59,0 v -59 h -59 v 59 z m -59,0 h -59 v 59 h 59 z m -59,0 v -59 h -59 v 59 z m -59,0 h -59 v 59 h 59 z m -59,0 v -59 h -59 v 59 z m -59,0 h -59 v 59 h 59 z m 0,-59 v -59 h -59 v 59 z m 0,-59 h 59 v -59 h -59 z m 0,-59 v -59 h -59 v 59 z m 0,-59 h 59 v -59 h -59 z m 0,-59 v -59 h -59 v 59 z m 59,59 v 59 h 59 v -59 z m 59,0 h 59 v -59 h -59 z m 59,0 v 59 h 59 v -59 z m 59,0 h 59 v -59 h -59 z m 0,59 v 59 h 59 v -59 z m 0,59 h -59 v 59 h 59 z m -59,0 v -59 h -59 v 59 z m -59,0 h -59 v 59 h 59 z"
         style="fill:#cd3c37;fill-opacity:1" /></g><g
       id="use680"
       transform="matrix(0.97313111,0,0,0.97313111,-52.023094,-2532.3269)"><path
         d="m 52.375424,1419.0353 h 42.620884 v -4.7357 H 52.375424 Z"
         style="fill:#000000;fill-opacity:1;fill-rule:evenodd;stroke:#000000;stroke-width:2.36783;stroke-linecap:butt;stroke-linejoin:round;stroke-miterlimit:4;stroke-dasharray:none;stroke-opacity:1"
         id="path781" /><path
         d="m 57.900353,1407.9855 2.367827,-3.9465 h 26.835371 l 2.367827,3.9465 z"
         style="fill:#000000;fill-opacity:1;fill-rule:evenodd;stroke:#000000;stroke-width:2.36783;stroke-linecap:butt;stroke-linejoin:round;stroke-miterlimit:4;stroke-dasharray:none;stroke-opacity:1"
         id="path782" /><path
         d="m 57.111077,1414.2996 v -6.3141 h 33.149577 v 6.3141 z"
         style="fill:#000000;fill-opacity:1;fill-rule:evenodd;stroke:#000000;stroke-width:2.36783;stroke-linecap:butt;stroke-linejoin:round;stroke-miterlimit:4;stroke-dasharray:none;stroke-opacity:1"
         id="path783" /><path
         d="m 60.26818,1404.039 v -20.5212 h 26.835371 v 20.5212 z"
         style="fill:#000000;fill-opacity:1;fill-rule:evenodd;stroke:#000000;stroke-width:2.36783;stroke-linecap:butt;stroke-linejoin:miter;stroke-miterlimit:4;stroke-dasharray:none;stroke-opacity:1"
         id="path784" /><path
         d="m 60.26818,1383.5178 -4.735654,-3.9462 h 36.30668 l -4.735655,3.9462 z"
         style="fill:#000000;fill-opacity:1;fill-rule:evenodd;stroke:#000000;stroke-width:2.36783;stroke-linecap:butt;stroke-linejoin:round;stroke-miterlimit:4;stroke-dasharray:none;stroke-opacity:1"
         id="path785" /><path
         d="m 55.532526,1379.5716 v -7.8928 h 6.314204 v 3.1571 h 7.892757 v -3.1571 h 7.892757 v 3.1571 H 85.525 v -3.1571 h 6.314206 v 7.8928 z"
         style="fill:#000000;fill-opacity:1;fill-rule:evenodd;stroke:#000000;stroke-width:2.36783;stroke-linecap:butt;stroke-linejoin:round;stroke-miterlimit:4;stroke-dasharray:none;stroke-opacity:1"
         id="path786" /><path
         d="m 57.111077,1413.5104 h 33.149577 v 0"
         style="fill:none;fill-opacity:1;fill-rule:evenodd;stroke:#ffffff;stroke-width:1.57855;stroke-linecap:round;stroke-linejoin:miter;stroke-miterlimit:4;stroke-dasharray:none;stroke-opacity:1"
         id="path787" /><path
         d="M 58.689628,1407.1961 H 88.682102"
         style="fill:none;fill-opacity:1;fill-rule:evenodd;stroke:#ffffff;stroke-width:1.57855;stroke-linecap:round;stroke-linejoin:miter;stroke-miterlimit:4;stroke-dasharray:none;stroke-opacity:1"
         id="path788" /><path
         d="M 60.26818,1404.039 H 87.103551"
         style="fill:none;fill-opacity:1;fill-rule:evenodd;stroke:#ffffff;stroke-width:1.57855;stroke-linecap:round;stroke-linejoin:miter;stroke-miterlimit:4;stroke-dasharray:none;stroke-opacity:1"
         id="path789" /><path
         d="M 60.26818,1383.5178 H 87.103551"
         style="fill:none;fill-opacity:1;fill-rule:evenodd;stroke:#ffffff;stroke-width:1.57855;stroke-linecap:round;stroke-linejoin:miter;stroke-miterlimit:4;stroke-dasharray:none;stroke-opacity:1"
         id="path790" /><path
         d="m 55.532526,1379.5716 h 36.30668"
         style="fill:none;fill-opacity:1;fill-rule:evenodd;stroke:#ffffff;stroke-width:1.57855;stroke-linecap:round;stroke-linejoin:miter;stroke-miterlimit:4;stroke-dasharray:none;stroke-opacity:1"
         id="path791" /></g><g
       id="use681"
       transform="matrix(0.97313111,0,0,0.97313111,-91.44569,-2460.0958)"><path
         d="m 175.20444,1301.7017 v -8.8872"
         style="fill:none;fill-opacity:1;fill-rule:evenodd;stroke:#000000;stroke-width:2.36783;stroke-linecap:round;stroke-linejoin:miter;stroke-miterlimit:4;stroke-dasharray:none;stroke-opacity:1"
         id="path880" /><path
         d="m 175.20444,1322.807 c 0,0 7.10348,-11.8391 4.73565,-16.5748 0,0 -1.57855,-3.9464 -4.73565,-3.9464 -3.15711,0 -4.73565,3.9464 -4.73565,3.9464 -2.36783,4.7357 4.73565,16.5748 4.73565,16.5748"
         style="fill:#000000;fill-opacity:1;fill-rule:evenodd;stroke:#000000;stroke-width:2.36783;stroke-linecap:butt;stroke-linejoin:miter;stroke-miterlimit:4;stroke-dasharray:none;stroke-opacity:1"
         id="path881" /><path
         d="m 159.41893,1341.7496 c 8.68203,5.525 22.88899,5.525 31.57102,0 v -11.0498 c 0,0 14.20696,-7.1036 9.4713,-16.5748 -6.3142,-10.2606 -21.31043,-5.5251 -25.25681,6.3142 v 5.5249 -5.5249 c -3.94638,-11.8393 -18.94262,-16.5748 -25.25683,-6.3142 -4.73565,9.4712 9.47132,16.5748 9.47132,16.5748 v 11.0498"
         style="fill:#000000;fill-opacity:1;fill-rule:evenodd;stroke:#000000;stroke-width:2.36783;stroke-linecap:round;stroke-linejoin:round;stroke-miterlimit:4;stroke-dasharray:none;stroke-opacity:1"
         id="path882" /><path
         d="m 171.25806,1295.9716 h 7.89276"
         style="fill:none;fill-opacity:1;fill-rule:evenodd;stroke:#000000;stroke-width:2.36783;stroke-linecap:round;stroke-linejoin:miter;stroke-miterlimit:4;stroke-dasharray:none;stroke-opacity:1"
         id="path883" /><path
         d="m 190.20068,1329.9105 c 0,0 13.41768,-6.3143 9.51866,-15.2331 -6.12478,-9.2345 -20.56852,-2.9204 -24.5149,7.3402 v 3.3151 -3.3151 c -3.94638,-10.2606 -18.39013,-16.5747 -24.5149,-7.3402 -3.89903,8.9188 9.51866,15.2331 9.51866,15.2331"
         style="fill:none;fill-opacity:1;fill-rule:evenodd;stroke:#ffffff;stroke-width:2.36783;stroke-linecap:round;stroke-linejoin:round;stroke-miterlimit:4;stroke-dasharray:none;stroke-opacity:1"
         id="path884" /><path
         d="m 159.41893,1330.6998 c 8.68203,-4.7357 22.88899,-4.7357 31.57102,0 m -31.57102,5.5249 c 8.68203,-4.7356 22.88899,-4.7356 31.57102,0 m -31.57102,5.5249 c 8.68203,-4.7356 22.88899,-4.7356 31.57102,0"
         style="fill:none;fill-opacity:1;fill-rule:evenodd;stroke:#ffffff;stroke-width:2.36783;stroke-linecap:round;stroke-linejoin:round;stroke-miterlimit:4;stroke-dasharray:none;stroke-opacity:1"
         id="path885" /></g><g
       id="use682"
       transform="matrix(0.97313111,0,0,0.97313111,66.553637,-2534.2559)"><path
         d="m 52.375424,1419.0353 h 42.620884 v -4.7357 H 52.375424 Z"
         style="fill:#000000;fill-opacity:1;fill-rule:evenodd;stroke:#000000;stroke-width:2.36783;stroke-linecap:butt;stroke-linejoin:round;stroke-miterlimit:4;stroke-dasharray:none;stroke-opacity:1"
         id="path792" /><path
         d="m 57.900353,1407.9855 2.367827,-3.9465 h 26.835371 l 2.367827,3.9465 z"
         style="fill:#000000;fill-opacity:1;fill-rule:evenodd;stroke:#000000;stroke-width:2.36783;stroke-linecap:butt;stroke-linejoin:round;stroke-miterlimit:4;stroke-dasharray:none;stroke-opacity:1"
         id="path793" /><path
         d="m 57.111077,1414.2996 v -6.3141 h 33.149577 v 6.3141 z"
         style="fill:#000000;fill-opacity:1;fill-rule:evenodd;stroke:#000000;stroke-width:2.36783;stroke-linecap:butt;stroke-linejoin:round;stroke-miterlimit:4;stroke-dasharray:none;stroke-opacity:1"
         id="path794" /><path
         d="m 60.26818,1404.039 v -20.5212 h 26.835371 v 20.5212 z"
         style="fill:#000000;fill-opacity:1;fill-rule:evenodd;stroke:#000000;stroke-width:2.36783;stroke-linecap:butt;stroke-linejoin:miter;stroke-miterlimit:4;stroke-dasharray:none;stroke-opacity:1"
         id="path795" /><path
         d="m 60.26818,1383.5178 -4.735654,-3.9462 h 36.30668 l -4.735655,3.9462 z"
         style="fill:#000000;fill-opacity:1;fill-rule:evenodd;stroke:#000000;stroke-width:2.36783;stroke-linecap:butt;stroke-linejoin:round;stroke-miterlimit:4;stroke-dasharray:none;stroke-opacity:1"
         id="path796" /><path
         d="m 55.532526,1379.5716 v -7.8928 h 6.314204 v 3.1571 h 7.892757 v -3.1571 h 7.892757 v 3.1571 H 85.525 v -3.1571 h 6.314206 v 7.8928 z"
         style="fill:#000000;fill-opacity:1;fill-rule:evenodd;stroke:#000000;stroke-width:2.36783;stroke-linecap:butt;stroke-linejoin:round;stroke-miterlimit:4;stroke-dasharray:none;stroke-opacity:1"
         id="path797" /><path
         d="m 57.111077,1413.5104 h 33.149577 v 0"
         style="fill:none;fill-opacity:1;fill-rule:evenodd;stroke:#ffffff;stroke-width:1.57855;stroke-linecap:round;stroke-linejoin:miter;stroke-miterlimit:4;stroke-dasharray:none;stroke-opacity:1"
         id="path798" /><path
         d="M 58.689628,1407.1961 H 88.682102"
         style="fill:none;fill-opacity:1;fill-rule:evenodd;stroke:#ffffff;stroke-width:1.57855;stroke-linecap:round;stroke-linejoin:miter;stroke-miterlimit:4;stroke-dasharray:none;stroke-opacity:1"
         id="path799" /><path
         d="M 60.26818,1404.039 H 87.103551"
         style="fill:none;fill-opacity:1;fill-rule:evenodd;stroke:#ffffff;stroke-width:1.57855;stroke-linecap:round;stroke-linejoin:miter;stroke-miterlimit:4;stroke-dasharray:none;stroke-opacity:1"
         id="path800" /><path
         d="M 60.26818,1383.5178 H 87.103551"
         style="fill:none;fill-opacity:1;fill-rule:evenodd;stroke:#ffffff;stroke-width:1.57855;stroke-linecap:round;stroke-linejoin:miter;stroke-miterlimit:4;stroke-dasharray:none;stroke-opacity:1"
         id="path801" /><path
         d="m 55.532526,1379.5716 h 36.30668"
         style="fill:none;fill-opacity:1;fill-rule:evenodd;stroke:#ffffff;stroke-width:1.57855;stroke-linecap:round;stroke-linejoin:miter;stroke-miterlimit:4;stroke-dasharray:none;stroke-opacity:1"
         id="path802" /></g><g
       id="use683"
       transform="matrix(0.97313111,0,0,0.97313111,-91.328286,-2369.0645)"><path
         stroke-linejoin="miter"
         d="m 175.20444,1390.0109 v -8.8871 m -3.94638,3.157 h 7.89276"
         id="path924"
         style="fill:none;fill-rule:evenodd;stroke:#000000;stroke-width:2.36783;stroke-linecap:round" /><path
         fill="#ffffff"
         stroke-linecap="butt"
         stroke-linejoin="miter"
         d="m 175.20444,1411.1163 c 0,0 7.10348,-11.8392 4.73565,-16.5749 0,0 -1.57855,-3.9463 -4.73565,-3.9463 -3.15711,0 -4.73565,3.9463 -4.73565,3.9463 -2.36783,4.7357 4.73565,16.5749 4.73565,16.5749"
         id="path925"
         style="fill-rule:evenodd;stroke:#000000;stroke-width:2.36783" /><path
         fill="#ffffff"
         d="m 159.41893,1430.0589 c 8.68203,5.5248 22.88899,5.5248 31.57102,0 v -11.05 c 0,0 14.20696,-7.1035 9.4713,-16.5747 -6.3142,-10.2606 -21.31043,-5.5249 -25.25681,6.3141 v 5.5251 -5.5251 c -3.94638,-11.839 -18.94262,-16.5747 -25.25683,-6.3141 -4.73565,9.4712 9.47132,16.5747 9.47132,16.5747 v 11.05"
         id="path926"
         style="fill-rule:evenodd;stroke:#000000;stroke-width:2.36783;stroke-linecap:round;stroke-linejoin:round" /><path
         d="m 159.41893,1419.0089 c 8.68203,-4.7355 22.88899,-4.7355 31.57102,0 m -31.57102,5.5249 c 8.68203,-4.7355 22.88899,-4.7355 31.57102,0 m -31.57102,5.5251 c 8.68203,-4.7358 22.88899,-4.7358 31.57102,0"
         id="path927"
         style="fill:none;fill-rule:evenodd;stroke:#000000;stroke-width:2.36783;stroke-linecap:round;stroke-linejoin:round" /></g><g
       id="use684"
       transform="matrix(1.5361374,0,0,1.5361374,41.890647,-3052.8135)"><path
         d="m 62.41874,1400.4027 c 10.5,1 16.5,8 16,29 h -23 c 0,-9 10,-6.5 8,-21"
         style="fill:#000000;fill-opacity:1;fill-rule:evenodd;stroke:#000000;stroke-width:1.5;stroke-linecap:round;stroke-linejoin:round;stroke-miterlimit:4;stroke-dasharray:none;stroke-opacity:1"
         id="path748" /><path
         d="m 64.41874,1408.4027 c 0.38,2.91 -5.55,7.37 -8,9 -3,2 -2.82,4.34 -5,4 -1.042,-0.94 1.41,-3.04 0,-3 -1,0 0.19,1.23 -1,2 -1,0 -4.003,1 -4,-4 0,-2 6,-12 6,-12 0,0 1.89,-1.9 2,-3.5 -0.73,-0.994 -0.5,-2 -0.5,-3 1,-1 3,2.5 3,2.5 h 2 c 0,0 0.78,-1.992 2.5,-3 1,0 1,3 1,3"
         style="fill:#000000;fill-opacity:1;fill-rule:evenodd;stroke:#000000;stroke-width:1.5;stroke-linecap:round;stroke-linejoin:round;stroke-miterlimit:4;stroke-dasharray:none;stroke-opacity:1"
         id="path749" /><path
         d="m 49.91874,1415.9027 a 0.5,0.5 0 1 1 -1,0 0.5,0.5 0 1 1 1,0 z"
         style="fill:#ffffff;fill-opacity:1;fill-rule:evenodd;stroke:#ffffff;stroke-width:1.5;stroke-linecap:round;stroke-linejoin:round;stroke-miterlimit:4;stroke-dasharray:none;stroke-opacity:1"
         id="path750" /><path
         d="m 55.35174,1406.1527 a 0.499989,1.499967 30.000728 1 1 -0.866,-0.5 0.499989,1.499967 30.000728 1 1 0.866,0.5 z"
         style="fill:#ffffff;fill-opacity:1;fill-rule:evenodd;stroke:#ffffff;stroke-width:1.49997;stroke-linecap:round;stroke-linejoin:round;stroke-miterlimit:4;stroke-dasharray:none;stroke-opacity:1"
         id="path751" /><path
         d="m 64.96874,1400.8027 -0.45,1.45 0.5,0.15 c 3.15,1 5.65,2.49 7.9,6.75 2.25,4.26 3.25,10.31 2.75,20.25 l -0.05,0.5 h 2.25 l 0.05,-0.5 c 0.5,-10.06 -0.88,-16.85 -3.25,-21.34 -2.37,-4.49 -5.79,-6.64 -9.19,-7.16 z"
         style="fill:#ffffff;fill-opacity:1;fill-rule:evenodd;stroke:none;stroke-width:1.5;stroke-linecap:round;stroke-linejoin:round;stroke-miterlimit:4;stroke-dasharray:none;stroke-opacity:1"
         id="path752" /></g></g><g
     id="g702"
     transform="translate(-536.53631,1747.4959)"><g
       id="use666"
       transform="translate(536.03631,-1740.9959)"><path
         id="path723"
         d="m 0.5,535.5 v 59 h 59 v -59 z m 59,59 v 59 h 59 v -59 z m 59,0 h 59 v -59 h -59 z m 59,0 v 59 h 59 v -59 z m 59,0 h 59 v -59 h -59 z m 59,0 v 59 h 59 v -59 z m 59,0 h 59 v -59 h -59 z m 59,0 v 59 h 60 v -59 z m 0,59 h -59 v 59 h 59 z m 0,59 v 59 h 60 v -59 z m 0,59 h -59 v 59 h 59 z m 0,59 v 59 h 60 v -59 z m 0,59 h -59 v 59 h 59 z m 0,59 v 59 h 60 v -59 z m -59,0 h -59 v 59 h 59 z m -59,0 v -59 h -59 v 59 z m -59,0 h -59 v 59 h 59 z m -59,0 v -59 h -59 v 59 z m -59,0 h -59 v 59 h 59 z m -59,0 v -59 h -59 v 59 z m 0,-59 h 59 v -59 h -59 z m 0,-59 v -59 h -59 v 59 z m 0,-59 h 59 v -59 h -59 z m 0,-59 v -59 h -59 v 59 z m 59,0 h 59 v -59 h -59 z m 59,0 v 59 h 59 v -59 z m 59,0 h 59 v -59 h -59 z m 59,0 v 59 h 59 v -59 z m 0,59 h -59 v 59 h 59 z m 0,59 v 59 h 59 v -59 z m -59,0 h -59 v 59 h 59 z m -59,0 v -59 h -59 v 59 z"
         style="fill:#f1f1f1;fill-opacity:1" /><path
         id="path724"
         d="m 59.5,535.5 v 59 h 59 v -59 z m 59,59 v 59 h 59 v -59 z m 59,0 h 59 v -59 h -59 z m 59,0 v 59 h 59 v -59 z m 59,0 h 59 v -59 h -59 z m 59,0 v 59 h 59 v -59 z m 59,0 h 60 v -59 h -60 z m 0,59 v 59 h 60 v -59 z m 0,59 h -59 v 59 h 59 z m 0,59 v 59 h 60 v -59 z m 0,59 h -59 v 59 h 59 z m 0,59 v 59 h 60 v -59 z m 0,59 h -59 v 59 h 59 z m -59,0 v -59 h -59 v 59 z m -59,0 h -59 v 59 h 59 z m -59,0 v -59 h -59 v 59 z m -59,0 h -59 v 59 h 59 z m -59,0 v -59 h -59 v 59 z m -59,0 h -59 v 59 h 59 z m 0,-59 v -59 h -59 v 59 z m 0,-59 h 59 v -59 h -59 z m 0,-59 v -59 h -59 v 59 z m 0,-59 h 59 v -59 h -59 z m 0,-59 v -59 h -59 v 59 z m 59,59 v 59 h 59 v -59 z m 59,0 h 59 v -59 h -59 z m 59,0 v 59 h 59 v -59 z m 59,0 h 59 v -59 h -59 z m 0,59 v 59 h 59 v -59 z m 0,59 h -59 v 59 h 59 z m -59,0 v -59 h -59 v 59 z m -59,0 h -59 v 59 h 59 z"
         style="fill:#cd3c37;fill-opacity:1" /></g><g
       id="use695"
       transform="matrix(1.5361374,0,0,1.5361374,706.43275,-3051.6579)"><path
         d="m 62.41874,1400.4027 c 10.5,1 16.5,8 16,29 h -23 c 0,-9 10,-6.5 8,-21"
         style="fill:#000000;fill-opacity:1;fill-rule:evenodd;stroke:#000000;stroke-width:1.5;stroke-linecap:round;stroke-linejoin:round;stroke-miterlimit:4;stroke-dasharray:none;stroke-opacity:1"
         id="path753" /><path
         d="m 64.41874,1408.4027 c 0.38,2.91 -5.55,7.37 -8,9 -3,2 -2.82,4.34 -5,4 -1.042,-0.94 1.41,-3.04 0,-3 -1,0 0.19,1.23 -1,2 -1,0 -4.003,1 -4,-4 0,-2 6,-12 6,-12 0,0 1.89,-1.9 2,-3.5 -0.73,-0.994 -0.5,-2 -0.5,-3 1,-1 3,2.5 3,2.5 h 2 c 0,0 0.78,-1.992 2.5,-3 1,0 1,3 1,3"
         style="fill:#000000;fill-opacity:1;fill-rule:evenodd;stroke:#000000;stroke-width:1.5;stroke-linecap:round;stroke-linejoin:round;stroke-miterlimit:4;stroke-dasharray:none;stroke-opacity:1"
         id="path754" /><path
         d="m 49.91874,1415.9027 a 0.5,0.5 0 1 1 -1,0 0.5,0.5 0 1 1 1,0 z"
         style="fill:#ffffff;fill-opacity:1;fill-rule:evenodd;stroke:#ffffff;stroke-width:1.5;stroke-linecap:round;stroke-linejoin:round;stroke-miterlimit:4;stroke-dasharray:none;stroke-opacity:1"
         id="path755" /><path
         d="m 55.35174,1406.1527 a 0.499989,1.499967 30.000728 1 1 -0.866,-0.5 0.499989,1.499967 30.000728 1 1 0.866,0.5 z"
         style="fill:#ffffff;fill-opacity:1;fill-rule:evenodd;stroke:#ffffff;stroke-width:1.49997;stroke-linecap:round;stroke-linejoin:round;stroke-miterlimit:4;stroke-dasharray:none;stroke-opacity:1"
         id="path756" /><path
         d="m 64.96874,1400.8027 -0.45,1.45 0.5,0.15 c 3.15,1 5.65,2.49 7.9,6.75 2.25,4.26 3.25,10.31 2.75,20.25 l -0.05,0.5 h 2.25 l 0.05,-0.5 c 0.5,-10.06 -0.88,-16.85 -3.25,-21.34 -2.37,-4.49 -5.79,-6.64 -9.19,-7.16 z"
         style="fill:#ffffff;fill-opacity:1;fill-rule:evenodd;stroke:none;stroke-width:1.5;stroke-linecap:round;stroke-linejoin:round;stroke-miterlimit:4;stroke-dasharray:none;stroke-opacity:1"
         id="path757" /></g><g
       id="use696"
       transform="matrix(0.97313111,0,0,0.97313111,632.25064,-2309.6143)"><path
         stroke-linejoin="miter"
         d="m 175.20444,1390.0109 v -8.8871 m -3.94638,3.157 h 7.89276"
         id="path928"
         style="fill:none;fill-rule:evenodd;stroke:#000000;stroke-width:2.36783;stroke-linecap:round" /><path
         fill="#ffffff"
         stroke-linecap="butt"
         stroke-linejoin="miter"
         d="m 175.20444,1411.1163 c 0,0 7.10348,-11.8392 4.73565,-16.5749 0,0 -1.57855,-3.9463 -4.73565,-3.9463 -3.15711,0 -4.73565,3.9463 -4.73565,3.9463 -2.36783,4.7357 4.73565,16.5749 4.73565,16.5749"
         id="path929"
         style="fill-rule:evenodd;stroke:#000000;stroke-width:2.36783" /><path
         fill="#ffffff"
         d="m 159.41893,1430.0589 c 8.68203,5.5248 22.88899,5.5248 31.57102,0 v -11.05 c 0,0 14.20696,-7.1035 9.4713,-16.5747 -6.3142,-10.2606 -21.31043,-5.5249 -25.25681,6.3141 v 5.5251 -5.5251 c -3.94638,-11.839 -18.94262,-16.5747 -25.25683,-6.3141 -4.73565,9.4712 9.47132,16.5747 9.47132,16.5747 v 11.05"
         id="path930"
         style="fill-rule:evenodd;stroke:#000000;stroke-width:2.36783;stroke-linecap:round;stroke-linejoin:round" /><path
         d="m 159.41893,1419.0089 c 8.68203,-4.7355 22.88899,-4.7355 31.57102,0 m -31.57102,5.5249 c 8.68203,-4.7355 22.88899,-4.7355 31.57102,0 m -31.57102,5.5251 c 8.68203,-4.7358 22.88899,-4.7358 31.57102,0"
         id="path931"
         style="fill:none;fill-rule:evenodd;stroke:#000000;stroke-width:2.36783;stroke-linecap:round;stroke-linejoin:round" /></g><g
       id="use697"
       transform="matrix(0.97313111,0,0,0.97313111,789.24669,-2383.3697)"><path
         d="m 73.685865,1459.5933 c -3.488598,0 -6.314204,2.8257 -6.314204,6.3144 0,1.4047 0.457779,2.6992 1.23127,3.7568 -3.078176,1.768 -5.177648,5.0672 -5.177648,8.8715 0,3.2044 1.483837,6.0617 3.804308,7.9401 -4.735654,1.6733 -11.697065,8.761 -11.697065,21.2631 h 36.30668 c 0,-12.5021 -6.961412,-19.5898 -11.697065,-21.2631 2.32047,-1.8784 3.804308,-4.7357 3.804308,-7.9401 0,-3.8043 -2.099473,-7.1035 -5.177648,-8.8715 0.77349,-1.0576 1.23127,-2.3521 1.23127,-3.7568 0,-3.4887 -2.825608,-6.3144 -6.314206,-6.3144 z"
         style="opacity:1;fill:#000000;fill-opacity:1;fill-rule:nonzero;stroke:#000000;stroke-width:2.36783;stroke-linecap:round;stroke-linejoin:miter;stroke-miterlimit:4;stroke-dasharray:none;stroke-opacity:1"
         id="path814" /></g><g
       id="use698"
       transform="matrix(0.97313111,0,0,0.97313111,690.63886,-2196.8253)"><path
         d="m 153.89399,1235.4557 c 13.41769,-2.3678 33.14958,-2.3678 42.62088,0 l 3.94638,-19.7318 -11.83913,18.1534 -0.47356,-22.2576 -8.20847,21.4682 -4.73565,-22.8889 -4.73565,22.8889 -8.20847,-21.4682 -0.47357,22.2576 -11.83914,-18.1534 z"
         style="fill:#000000;stroke:#000000;stroke-width:2.36783;stroke-linecap:butt;stroke-linejoin:round"
         id="path832" /><path
         d="m 153.89399,1235.4557 c 0,3.1571 2.36783,3.1571 3.94638,6.3142 1.57856,2.368 1.57856,1.5786 0.78927,5.525 -2.36782,1.5785 -1.57854,3.9463 -1.57854,3.9463 -2.36783,2.3679 0,3.9464 0,3.9464 10.26058,1.5787 26.04609,1.5787 36.30668,0 0,0 2.36782,-1.5785 0,-3.9464 0,0 0.78927,-2.3678 -1.57856,-3.9463 -0.78927,-3.9464 -0.78927,-3.157 0.78928,-5.525 1.57855,-3.1571 3.94637,-3.1571 3.94637,-6.3142 -13.41768,-2.3678 -29.20319,-2.3678 -42.62088,0 z"
         id="path833"
         style="fill:#000000;stroke:#000000;stroke-width:2.36783;stroke-linecap:round;stroke-linejoin:round" /><path
         d="m 157.84037,1241.7699 c 5.52493,-1.5785 29.2032,-1.5785 34.72813,0"
         id="path834"
         style="fill:#000000;stroke:#000000;stroke-width:2.36783;stroke-linecap:round;stroke-linejoin:round" /><path
         d="m 158.62964,1247.2949 c 9.47132,-1.5786 23.67828,-1.5786 33.14958,0"
         id="path835"
         style="fill:#000000;stroke:#000000;stroke-width:2.36783;stroke-linecap:round;stroke-linejoin:round" /><circle
         cx="149.15834"
         cy="1213.3561"
         r="3.1571026"
         id="circle835"
         style="fill:#000000;stroke:#000000;stroke-width:2.36783;stroke-linecap:round;stroke-linejoin:round" /><circle
         cx="161.78674"
         cy="1208.6205"
         r="3.1571026"
         id="circle836"
         style="fill:#000000;stroke:#000000;stroke-width:2.36783;stroke-linecap:round;stroke-linejoin:round" /><circle
         cx="175.20444"
         cy="1207.0419"
         r="3.1571026"
         id="circle837"
         style="fill:#000000;stroke:#000000;stroke-width:2.36783;stroke-linecap:round;stroke-linejoin:round" /><circle
         cx="188.62212"
         cy="1208.6205"
         r="3.1571026"
         id="circle838"
         style="fill:#000000;stroke:#000000;stroke-width:2.36783;stroke-linecap:round;stroke-linejoin:round" /><circle
         cx="201.25052"
         cy="1213.3561"
         r="3.1571026"
         id="circle839"
         style="fill:#000000;stroke:#000000;stroke-width:2.36783;stroke-linecap:round;stroke-linejoin:round" /><path
         d="m 157.0511,1255.1876 a 55.249296,55.249296 0 0 0 36.30668,0"
         style="fill:none;stroke:#000000;stroke-width:2.36783;stroke-linecap:butt;stroke-linejoin:round"
         id="path839" /><path
         d="m 157.0511,1240.1914 a 55.249296,55.249296 0 0 1 36.30668,0"
         id="path840"
         style="fill:none;stroke:#ffffff;stroke-width:2.36783;stroke-linecap:round;stroke-linejoin:round" /><path
         d="m 159.41893,1244.1379 h 31.57102"
         id="path841"
         style="fill:none;stroke:#ffffff;stroke-width:2.36783;stroke-linecap:round;stroke-linejoin:round" /><path
         d="m 157.84037,1248.8734 a 55.249296,55.249296 0 0 0 34.72813,0"
         id="path842"
         style="fill:none;stroke:#ffffff;stroke-width:2.36783;stroke-linecap:round;stroke-linejoin:round" /><path
         d="m 156.26182,1253.6091 a 55.249296,55.249296 0 0 0 37.88523,0"
         id="path843"
         style="fill:none;stroke:#ffffff;stroke-width:2.36783;stroke-linecap:round;stroke-linejoin:round" /></g><g
       id="use699"
       transform="matrix(0.97313111,0,0,0.97313111,690.37598,-2460.2033)"><path
         d="m 175.20444,1301.7017 v -8.8872"
         style="fill:none;fill-opacity:1;fill-rule:evenodd;stroke:#000000;stroke-width:2.36783;stroke-linecap:round;stroke-linejoin:miter;stroke-miterlimit:4;stroke-dasharray:none;stroke-opacity:1"
         id="path886" /><path
         d="m 175.20444,1322.807 c 0,0 7.10348,-11.8391 4.73565,-16.5748 0,0 -1.57855,-3.9464 -4.73565,-3.9464 -3.15711,0 -4.73565,3.9464 -4.73565,3.9464 -2.36783,4.7357 4.73565,16.5748 4.73565,16.5748"
         style="fill:#000000;fill-opacity:1;fill-rule:evenodd;stroke:#000000;stroke-width:2.36783;stroke-linecap:butt;stroke-linejoin:miter;stroke-miterlimit:4;stroke-dasharray:none;stroke-opacity:1"
         id="path887" /><path
         d="m 159.41893,1341.7496 c 8.68203,5.525 22.88899,5.525 31.57102,0 v -11.0498 c 0,0 14.20696,-7.1036 9.4713,-16.5748 -6.3142,-10.2606 -21.31043,-5.5251 -25.25681,6.3142 v 5.5249 -5.5249 c -3.94638,-11.8393 -18.94262,-16.5748 -25.25683,-6.3142 -4.73565,9.4712 9.47132,16.5748 9.47132,16.5748 v 11.0498"
         style="fill:#000000;fill-opacity:1;fill-rule:evenodd;stroke:#000000;stroke-width:2.36783;stroke-linecap:round;stroke-linejoin:round;stroke-miterlimit:4;stroke-dasharray:none;stroke-opacity:1"
         id="path888" /><path
         d="m 171.25806,1295.9716 h 7.89276"
         style="fill:none;fill-opacity:1;fill-rule:evenodd;stroke:#000000;stroke-width:2.36783;stroke-linecap:round;stroke-linejoin:miter;stroke-miterlimit:4;stroke-dasharray:none;stroke-opacity:1"
         id="path889" /><path
         d="m 190.20068,1329.9105 c 0,0 13.41768,-6.3143 9.51866,-15.2331 -6.12478,-9.2345 -20.56852,-2.9204 -24.5149,7.3402 v 3.3151 -3.3151 c -3.94638,-10.2606 -18.39013,-16.5747 -24.5149,-7.3402 -3.89903,8.9188 9.51866,15.2331 9.51866,15.2331"
         style="fill:none;fill-opacity:1;fill-rule:evenodd;stroke:#ffffff;stroke-width:2.36783;stroke-linecap:round;stroke-linejoin:round;stroke-miterlimit:4;stroke-dasharray:none;stroke-opacity:1"
         id="path890" /><path
         d="m 159.41893,1330.6998 c 8.68203,-4.7357 22.88899,-4.7357 31.57102,0 m -31.57102,5.5249 c 8.68203,-4.7356 22.88899,-4.7356 31.57102,0 m -31.57102,5.5249 c 8.68203,-4.7356 22.88899,-4.7356 31.57102,0"
         style="fill:none;fill-opacity:1;fill-rule:evenodd;stroke:#ffffff;stroke-width:2.36783;stroke-linecap:round;stroke-linejoin:round;stroke-miterlimit:4;stroke-dasharray:none;stroke-opacity:1"
         id="path891" /></g></g><g
     id="g716"
     transform="translate(-540.2949,1731.6523)"><g
       id="use667"
       transform="translate(1082.7949,-1725.1523)"><path
         id="path729"
         d="m 0.5,535.5 v 59 h 59 v -59 z m 59,59 v 59 h 59 v -59 z m 59,0 h 59 v -59 h -59 z m 59,0 v 59 h 59 v -59 z m 59,0 h 59 v -59 h -59 z m 59,0 v 59 h 59 v -59 z m 59,0 h 59 v -59 h -59 z m 59,0 v 59 h 60 v -59 z m 0,59 h -59 v 59 h 59 z m 0,59 v 59 h 60 v -59 z m 0,59 h -59 v 59 h 59 z m 0,59 v 59 h 60 v -59 z m 0,59 h -59 v 59 h 59 z m 0,59 v 59 h 60 v -59 z m -59,0 h -59 v 59 h 59 z m -59,0 v -59 h -59 v 59 z m -59,0 h -59 v 59 h 59 z m -59,0 v -59 h -59 v 59 z m -59,0 h -59 v 59 h 59 z m -59,0 v -59 h -59 v 59 z m 0,-59 h 59 v -59 h -59 z m 0,-59 v -59 h -59 v 59 z m 0,-59 h 59 v -59 h -59 z m 0,-59 v -59 h -59 v 59 z m 59,0 h 59 v -59 h -59 z m 59,0 v 59 h 59 v -59 z m 59,0 h 59 v -59 h -59 z m 59,0 v 59 h 59 v -59 z m 0,59 h -59 v 59 h 59 z m 0,59 v 59 h 59 v -59 z m -59,0 h -59 v 59 h 59 z m -59,0 v -59 h -59 v 59 z"
         style="fill:#f1f1f1;fill-opacity:1" /><path
         id="path730"
         d="m 59.5,535.5 v 59 h 59 v -59 z m 59,59 v 59 h 59 v -59 z m 59,0 h 59 v -59 h -59 z m 59,0 v 59 h 59 v -59 z m 59,0 h 59 v -59 h -59 z m 59,0 v 59 h 59 v -59 z m 59,0 h 60 v -59 h -60 z m 0,59 v 59 h 60 v -59 z m 0,59 h -59 v 59 h 59 z m 0,59 v 59 h 60 v -59 z m 0,59 h -59 v 59 h 59 z m 0,59 v 59 h 60 v -59 z m 0,59 h -59 v 59 h 59 z m -59,0 v -59 h -59 v 59 z m -59,0 h -59 v 59 h 59 z m -59,0 v -59 h -59 v 59 z m -59,0 h -59 v 59 h 59 z m -59,0 v -59 h -59 v 59 z m -59,0 h -59 v 59 h 59 z m 0,-59 v -59 h -59 v 59 z m 0,-59 h 59 v -59 h -59 z m 0,-59 v -59 h -59 v 59 z m 0,-59 h 59 v -59 h -59 z m 0,-59 v -59 h -59 v 59 z m 59,59 v 59 h 59 v -59 z m 59,0 h 59 v -59 h -59 z m 59,0 v 59 h 59 v -59 z m 59,0 h 59 v -59 h -59 z m 0,59 v 59 h 59 v -59 z m 0,59 h -59 v 59 h 59 z m -59,0 v -59 h -59 v 59 z m -59,0 h -59 v 59 h 59 z"
         style="fill:#cd3c37;fill-opacity:1" /></g><g
       id="use712"
       transform="matrix(0.97313111,0,0,0.97313111,942.00559,-2385.7277)"><path
         d="m 175.20444,1301.7017 v -8.8872"
         style="fill:none;fill-opacity:1;fill-rule:evenodd;stroke:#000000;stroke-width:2.36783;stroke-linecap:round;stroke-linejoin:miter;stroke-miterlimit:4;stroke-dasharray:none;stroke-opacity:1"
         id="path904" /><path
         d="m 175.20444,1322.807 c 0,0 7.10348,-11.8391 4.73565,-16.5748 0,0 -1.57855,-3.9464 -4.73565,-3.9464 -3.15711,0 -4.73565,3.9464 -4.73565,3.9464 -2.36783,4.7357 4.73565,16.5748 4.73565,16.5748"
         style="fill:#000000;fill-opacity:1;fill-rule:evenodd;stroke:#000000;stroke-width:2.36783;stroke-linecap:butt;stroke-linejoin:miter;stroke-miterlimit:4;stroke-dasharray:none;stroke-opacity:1"
         id="path905" /><path
         d="m 159.41893,1341.7496 c 8.68203,5.525 22.88899,5.525 31.57102,0 v -11.0498 c 0,0 14.20696,-7.1036 9.4713,-16.5748 -6.3142,-10.2606 -21.31043,-5.5251 -25.25681,6.3142 v 5.5249 -5.5249 c -3.94638,-11.8393 -18.94262,-16.5748 -25.25683,-6.3142 -4.73565,9.4712 9.47132,16.5748 9.47132,16.5748 v 11.0498"
         style="fill:#000000;fill-opacity:1;fill-rule:evenodd;stroke:#000000;stroke-width:2.36783;stroke-linecap:round;stroke-linejoin:round;stroke-miterlimit:4;stroke-dasharray:none;stroke-opacity:1"
         id="path906" /><path
         d="m 171.25806,1295.9716 h 7.89276"
         style="fill:none;fill-opacity:1;fill-rule:evenodd;stroke:#000000;stroke-width:2.36783;stroke-linecap:round;stroke-linejoin:miter;stroke-miterlimit:4;stroke-dasharray:none;stroke-opacity:1"
         id="path907" /><path
         d="m 190.20068,1329.9105 c 0,0 13.41768,-6.3143 9.51866,-15.2331 -6.12478,-9.2345 -20.56852,-2.9204 -24.5149,7.3402 v 3.3151 -3.3151 c -3.94638,-10.2606 -18.39013,-16.5747 -24.5149,-7.3402 -3.89903,8.9188 9.51866,15.2331 9.51866,15.2331"
         style="fill:none;fill-opacity:1;fill-rule:evenodd;stroke:#ffffff;stroke-width:2.36783;stroke-linecap:round;stroke-linejoin:round;stroke-miterlimit:4;stroke-dasharray:none;stroke-opacity:1"
         id="path908" /><path
         d="m 159.41893,1330.6998 c 8.68203,-4.7357 22.88899,-4.7357 31.57102,0 m -31.57102,5.5249 c 8.68203,-4.7356 22.88899,-4.7356 31.57102,0 m -31.57102,5.5249 c 8.68203,-4.7356 22.88899,-4.7356 31.57102,0"
         style="fill:none;fill-opacity:1;fill-rule:evenodd;stroke:#ffffff;stroke-width:2.36783;stroke-linecap:round;stroke-linejoin:round;stroke-miterlimit:4;stroke-dasharray:none;stroke-opacity:1"
         id="path909" /></g><g
       id="use713"
       transform="matrix(0.97313111,0,0,0.97313111,1100.2843,-2227.8867)"><path
         d="m 52.375424,1240.5886 c 5.351288,-1.5312 15.959154,0.6789 21.310441,-3.1571 5.35129,3.836 15.959154,1.6259 21.310443,3.1571 0,0 2.604609,0.8525 4.735658,3.1571 -1.073419,1.5313 -2.604614,1.5628 -4.735658,0.7894 -5.351289,-1.5313 -15.959153,0.726 -21.310443,-1.5787 -5.351287,2.3047 -15.959153,0.047 -21.310441,1.5787 -2.131045,0.7734 -3.66224,0.7419 -4.735656,-0.7894 2.131045,-2.3046 4.735656,-3.1571 4.735656,-3.1571 z"
         id="path777"
         style="fill:#000000;fill-opacity:1;fill-rule:evenodd;stroke:#000000;stroke-width:2.36783;stroke-linecap:butt;stroke-linejoin:round;stroke-miterlimit:4;stroke-dasharray:none;stroke-opacity:1" /><path
         d="m 61.84673,1234.2745 c 3.946379,3.9463 19.731891,3.9463 23.67827,0 0.789277,-2.3679 0,-3.1571 0,-3.1571 0,-3.9465 -3.946379,-6.3143 -3.946379,-6.3143 8.682033,-2.3677 9.471309,-18.1534 -7.892756,-24.4675 -17.364063,6.3141 -16.574788,22.0998 -7.892756,24.4675 0,0 -3.946379,2.3678 -3.946379,6.3143 0,0 -0.789275,0.7892 0,3.1571 z"
         id="path778"
         style="fill:#000000;fill-opacity:1;fill-rule:evenodd;stroke:#000000;stroke-width:2.36783;stroke-linecap:butt;stroke-linejoin:round;stroke-miterlimit:4;stroke-dasharray:none;stroke-opacity:1" /><path
         d="m 77.632244,1196.3891 a 3.9463785,3.9463785 0 1 1 -7.892757,0 3.9463785,3.9463785 0 1 1 7.892757,0 z"
         id="path779"
         style="fill:#000000;fill-opacity:1;fill-rule:evenodd;stroke:#000000;stroke-width:2.36783;stroke-linecap:butt;stroke-linejoin:round;stroke-miterlimit:4;stroke-dasharray:none;stroke-opacity:1" /><path
         d="m 65.793109,1224.8031 h 15.785512 m -19.731891,6.3143 H 85.525 m -11.839135,-22.8891 v 7.8928 m -3.946378,-3.9463 h 7.892757"
         style="fill:none;fill-opacity:1;fill-rule:evenodd;stroke:#ffffff;stroke-width:2.36783;stroke-linecap:round;stroke-linejoin:miter;stroke-miterlimit:4;stroke-dasharray:none;stroke-opacity:1"
         id="path780" /></g><g
       id="use714"
       transform="matrix(0.97313111,0,0,0.97313111,1001.268,-2353.4811)"><path
         stroke-linejoin="miter"
         d="m 175.20444,1390.0109 v -8.8871 m -3.94638,3.157 h 7.89276"
         id="path940"
         style="fill:none;fill-rule:evenodd;stroke:#000000;stroke-width:2.36783;stroke-linecap:round" /><path
         fill="#ffffff"
         stroke-linecap="butt"
         stroke-linejoin="miter"
         d="m 175.20444,1411.1163 c 0,0 7.10348,-11.8392 4.73565,-16.5749 0,0 -1.57855,-3.9463 -4.73565,-3.9463 -3.15711,0 -4.73565,3.9463 -4.73565,3.9463 -2.36783,4.7357 4.73565,16.5749 4.73565,16.5749"
         id="path941"
         style="fill-rule:evenodd;stroke:#000000;stroke-width:2.36783" /><path
         fill="#ffffff"
         d="m 159.41893,1430.0589 c 8.68203,5.5248 22.88899,5.5248 31.57102,0 v -11.05 c 0,0 14.20696,-7.1035 9.4713,-16.5747 -6.3142,-10.2606 -21.31043,-5.5249 -25.25681,6.3141 v 5.5251 -5.5251 c -3.94638,-11.839 -18.94262,-16.5747 -25.25683,-6.3141 -4.73565,9.4712 9.47132,16.5747 9.47132,16.5747 v 11.05"
         id="path942"
         style="fill-rule:evenodd;stroke:#000000;stroke-width:2.36783;stroke-linecap:round;stroke-linejoin:round" /><path
         d="m 159.41893,1419.0089 c 8.68203,-4.7355 22.88899,-4.7355 31.57102,0 m -31.57102,5.5249 c 8.68203,-4.7355 22.88899,-4.7355 31.57102,0 m -31.57102,5.5251 c 8.68203,-4.7358 22.88899,-4.7358 31.57102,0"
         id="path943"
         style="fill:none;fill-rule:evenodd;stroke:#000000;stroke-width:2.36783;stroke-linecap:round;stroke-linejoin:round" /></g><g
       id="use715"
       transform="matrix(0.97313111,0,0,0.97313111,1158.8641,-2453.0965)"><path
         d="m 73.685865,1547.9026 c -3.488598,0 -6.314204,2.8256 -6.314204,6.3142 0,1.4049 0.457779,2.6994 1.23127,3.7569 -3.078176,1.768 -5.177648,5.0671 -5.177648,8.8715 0,3.2045 1.483837,6.0616 3.804308,7.9401 -4.735654,1.6732 -11.697065,8.761 -11.697065,21.2631 h 36.30668 c 0,-12.5021 -6.961412,-19.5899 -11.697065,-21.2631 2.32047,-1.8785 3.804308,-4.7356 3.804308,-7.9401 0,-3.8044 -2.099473,-7.1035 -5.177648,-8.8715 0.77349,-1.0575 1.23127,-2.352 1.23127,-3.7569 0,-3.4886 -2.825608,-6.3142 -6.314206,-6.3142 z"
         style="opacity:1;fill:#ffffff;fill-opacity:1;fill-rule:nonzero;stroke:#000000;stroke-width:2.36783;stroke-linecap:round;stroke-linejoin:miter;stroke-miterlimit:4;stroke-dasharray:none;stroke-opacity:1"
         id="path819" /></g><g
       id="use716"
       transform="matrix(1.5361374,0,0,1.5361374,1134.4556,-3035.8733)"><path
         d="m 62.41874,1400.4027 c 10.5,1 16.5,8 16,29 h -23 c 0,-9 10,-6.5 8,-21"
         style="fill:#000000;fill-opacity:1;fill-rule:evenodd;stroke:#000000;stroke-width:1.5;stroke-linecap:round;stroke-linejoin:round;stroke-miterlimit:4;stroke-dasharray:none;stroke-opacity:1"
         id="path763" /><path
         d="m 64.41874,1408.4027 c 0.38,2.91 -5.55,7.37 -8,9 -3,2 -2.82,4.34 -5,4 -1.042,-0.94 1.41,-3.04 0,-3 -1,0 0.19,1.23 -1,2 -1,0 -4.003,1 -4,-4 0,-2 6,-12 6,-12 0,0 1.89,-1.9 2,-3.5 -0.73,-0.994 -0.5,-2 -0.5,-3 1,-1 3,2.5 3,2.5 h 2 c 0,0 0.78,-1.992 2.5,-3 1,0 1,3 1,3"
         style="fill:#000000;fill-opacity:1;fill-rule:evenodd;stroke:#000000;stroke-width:1.5;stroke-linecap:round;stroke-linejoin:round;stroke-miterlimit:4;stroke-dasharray:none;stroke-opacity:1"
         id="path764" /><path
         d="m 49.91874,1415.9027 a 0.5,0.5 0 1 1 -1,0 0.5,0.5 0 1 1 1,0 z"
         style="fill:#ffffff;fill-opacity:1;fill-rule:evenodd;stroke:#ffffff;stroke-width:1.5;stroke-linecap:round;stroke-linejoin:round;stroke-miterlimit:4;stroke-dasharray:none;stroke-opacity:1"
         id="path765" /><path
         d="m 55.35174,1406.1527 a 0.499989,1.499967 30.000728 1 1 -0.866,-0.5 0.499989,1.499967 30.000728 1 1 0.866,0.5 z"
         style="fill:#ffffff;fill-opacity:1;fill-rule:evenodd;stroke:#ffffff;stroke-width:1.49997;stroke-linecap:round;stroke-linejoin:round;stroke-miterlimit:4;stroke-dasharray:none;stroke-opacity:1"
         id="path766" /><path
         d="m 64.96874,1400.8027 -0.45,1.45 0.5,0.15 c 3.15,1 5.65,2.49 7.9,6.75 2.25,4.26 3.25,10.31 2.75,20.25 l -0.05,0.5 h 2.25 l 0.05,-0.5 c 0.5,-10.06 -0.88,-16.85 -3.25,-21.34 -2.37,-4.49 -5.79,-6.64 -9.19,-7.16 z"
         style="fill:#ffffff;fill-opacity:1;fill-rule:evenodd;stroke:none;stroke-width:1.5;stroke-linecap:round;stroke-linejoin:round;stroke-miterlimit:4;stroke-dasharray:none;stroke-opacity:1"
         id="path767" /></g></g></svg>
