<svg width="561.43" height="182.1" viewBox="0 0 148.54 48.18"><defs><clipPath id="a" clipPathUnits="userSpaceOnUse"><path d="M50.4 405.9h428.8v381.99H50.4Z" clip-rule="evenodd"/></clipPath></defs><path fill="#bfbfbf" fill-rule="evenodd" d="M71.27 6.1h6v-6h-6z"/><path fill="#bfbfbf" fill-rule="evenodd" d="M65.28 12.09h6v-6h-6zm11.98 0h6v-6h-6z"/><path fill="#bfbfbf" fill-rule="evenodd" d="M59.29 18.08h6v-6h-6zm23.96 0h6v-6h-6z"/><path fill="#bfbfbf" fill-rule="evenodd" d="M53.3 24.07h6v-6h-6zm35.94 0h6v-6h-6z"/><path fill="#bfbfbf" fill-rule="evenodd" d="M59.29 30.06h6v-6h-6zm23.96 0h6v-6h-6z"/><path fill="#bfbfbf" fill-rule="evenodd" d="M65.28 48.03h6V30.05h-6zm11.98 0h6V30.05h-6z"/><path fill-rule="evenodd" d="M29.24 0h90.1v.26H29.33Z"/><path fill-rule="evenodd" d="M29.5.08V48.1l-.26.08V0z"/><path fill-rule="evenodd" d="m29.46.04 12.02 12.02-.18.18L29.28.22z"/><path fill-rule="evenodd" d="m17.26 18.05 18-18.01.19.18-18.01 18.01z"/><path fill="none" stroke="#000" stroke-linejoin="round" stroke-miterlimit="10" stroke-width=".26" d="M35.36.08V48.1"/><path fill-rule="evenodd" d="m35.45.04 6.03 6.03-.18.18L35.27.22z"/><path fill-rule="evenodd" d="M29.24 12.06 41.26.04l.18.18-12.02 12.02z"/><path fill="none" stroke="#000" stroke-linejoin="round" stroke-miterlimit="10" stroke-width=".26" d="M41.35.08V48.1"/><path fill-rule="evenodd" d="m41.44.04 6.03 6.03-.18.18L41.26.22z"/><path fill-rule="evenodd" d="M35.23 12.06 47.25.04l.18.18L35.4 12.24z"/><path fill-rule="evenodd" d="M47.47 0v48.1h-.26V.08zm5.99 0v48.18l-.26-.08V0z"/><path fill="none" stroke="#000" stroke-linejoin="round" stroke-miterlimit="10" stroke-width=".26" d="M59.32 0v48.18M65.3 0v48.18M71.3 0v48.18M77.29 0v48.18M83.28 0v48.18M89.27 0v48.18M95.26 0v48.18M101.25 0v48.18M107.24 0v48.18M113.23 0v48.18M119.22 0v48.18"/><path fill-rule="evenodd" d="M23.25 5.99h102.09v.26H23.33Z"/><path fill-rule="evenodd" d="M23.5 6.07v36.12h-.25V5.99z"/><path fill-rule="evenodd" d="m23.47 6.03 6.03 6.03-.18.18-6.03-6.03zm5.99 0 6.03 6.03-.18.18-6.03-6.03z"/><path fill="none" stroke="#000" stroke-linejoin="round" stroke-miterlimit="10" stroke-width=".26" d="M125.2 5.99v36.2"/><path fill-rule="evenodd" d="M17.26 11.98h114.07v.26h-114Z"/><path fill-rule="evenodd" d="M17.52 12.06v24.06l-.26.08V11.98z"/><path fill-rule="evenodd" d="m17.48 12.02 6.03 6.03-.18.18-6.03-6.03z"/><path fill="none" stroke="#000" stroke-linejoin="round" stroke-miterlimit="10" stroke-width=".26" d="M131.2 11.98V36.2"/><path fill-rule="evenodd" d="M11.27 17.97h126.05l-.08.26H11.27Z"/><path fill="none" stroke="#000" stroke-linejoin="round" stroke-miterlimit="10" stroke-width=".26" d="M11.4 17.97v12.24M131.2 18.1l6.03 6.03m-6.07 0 6.03-6.03"/><path fill-rule="evenodd" d="M137.32 17.97v12.24l-.26-.08V18.05z"/><path fill="none" stroke="#000" stroke-linejoin="round" stroke-miterlimit="10" stroke-width=".26" d="M11.27 24.09h125.97m-6.04 0 6.03 6.03m-6.07 0 6.03-6.03"/><path fill-rule="evenodd" d="M11.27 29.95h125.97l.08.26H11.27Z"/><path fill-rule="evenodd" d="m17.48 29.99 6.03 6.03-.18.18-6.03-6.03z"/><path fill-rule="evenodd" d="m17.26 36.02 6.03-6.03.18.18-6.03 6.03z"/><path fill-rule="evenodd" d="m23.47 29.99 6.03 6.03-.18.18-6.03-6.03z"/><path fill-rule="evenodd" d="m23.25 36.02 6.03-6.03.18.18-6.03 6.03z"/><path fill-rule="evenodd" d="m29.46 29.99 6.03 6.03-.18.18-6.03-6.03z"/><path fill-rule="evenodd" d="m29.24 36.02 6.03-6.03.18.18-6.03 6.03z"/><path fill-rule="evenodd" d="m35.45 29.99 6.03 6.03-.18.18-6.03-6.03z"/><path fill-rule="evenodd" d="m35.23 36.02 6.03-6.03.18.18-6.03 6.03z"/><path fill-rule="evenodd" d="M17.34 35.94h113.99v.26H17.26Z"/><path fill="none" stroke="#000" stroke-linejoin="round" stroke-miterlimit="10" stroke-width=".26" d="M23.25 42.06h102.09"/><path fill-rule="evenodd" d="M29.32 47.92h90.03v.26H29.24Z"/><path fill="none" stroke="#000" stroke-linejoin="round" stroke-miterlimit="10" stroke-width=".26" d="m29.37 42.06 5.99 5.99"/><path fill-rule="evenodd" d="m29.24 48 6.25-6.26v.37l-6.07 6.07z"/><path fill="none" stroke="#000" stroke-linejoin="round" stroke-miterlimit="10" stroke-width=".26" d="m35.36 42.06 5.99 5.99"/><path fill-rule="evenodd" d="m35.23 48 6.03-6.03.18.18-6.03 6.03z"/><path fill="none" stroke="#000" stroke-linejoin="round" stroke-miterlimit="10" stroke-width=".26" d="m41.35 42.06 5.99 5.99"/><path fill-rule="evenodd" d="m41.22 48 6.03-6.03.18.18-6.03 6.03z"/><path fill="none" stroke="#000" stroke-linejoin="round" stroke-miterlimit="10" stroke-width=".26" d="m47.34 42.06 5.99 5.99"/><path fill-rule="evenodd" d="m47.2 48 6.04-6.03.18.18-6.03 6.03z"/><path fill-rule="evenodd" d="M29.3 47.92h90.05v.26H29.24Z"/><g clip-path="url(#a)" transform="matrix(.35278 0 0 -.35278 -19.7 191.39)"><path fill="none" stroke="#000" stroke-miterlimit="10" stroke-width=".99" d="M445.01 499.04c14.43-1.84 28.86-3.72 31.07-6.24 2.21-2.5-6.58-4.93-12.67-7.03"/><path fill-rule="evenodd" d="m458.25 483.99 4.65 4.76 1.95-5.64z"/><path fill="none" stroke="#000" stroke-miterlimit="10" stroke-width=".99" d="M443.76 448.44c14.49 1.93 27.5 3.6 30.02 6.55 2.53 2.92-15.64 8.5-20.38 10.32"/><path fill-rule="evenodd" d="m438.24 447.7 5.52 3.72.77-5.9z"/><path fill="none" stroke="#000" stroke-miterlimit="10" stroke-width=".99" d="M79.03 485.18c-7.88 0-15.73.03-19.3-2.3-3.52-2.38-4.45-9.24-2.02-11.9 2.44-2.64 6.16-2.81 11.2-3.4"/><path fill-rule="evenodd" d="m74.44 467-6.24-2.35.62 5.93z"/></g></svg>