<?xml version="1.0" encoding="UTF-8" standalone="no"?>
<!-- Created with Inkscape (http://www.inkscape.org/) -->

<svg
   width="189.35536mm"
   height="195.33908mm"
   viewBox="0 0 189.35536 195.33909"
   version="1.1"
   id="svg1"
   inkscape:version="1.4 (e7c3feb100, 2024-10-09)"
   sodipodi:docname="mutant.svg"
   xmlns:inkscape="http://www.inkscape.org/namespaces/inkscape"
   xmlns:sodipodi="http://sodipodi.sourceforge.net/DTD/sodipodi-0.dtd"
   xmlns="http://www.w3.org/2000/svg"
   xmlns:svg="http://www.w3.org/2000/svg">
  <sodipodi:namedview
     id="namedview1"
     pagecolor="#ffffff"
     bordercolor="#000000"
     borderopacity="0.25"
     inkscape:showpageshadow="2"
     inkscape:pageopacity="0.0"
     inkscape:pagecheckerboard="0"
     inkscape:deskcolor="#d1d1d1"
     inkscape:document-units="mm"
     inkscape:zoom="1.8023"
     inkscape:cx="396.16046"
     inkscape:cy="679.68706"
     inkscape:window-width="1182"
     inkscape:window-height="1020"
     inkscape:window-x="0"
     inkscape:window-y="0"
     inkscape:window-maximized="0"
     inkscape:current-layer="svg1" />
  <defs
     id="defs1">
    <inkscape:path-effect
       effect="spiro"
       id="path-effect13"
       is_visible="true"
       lpeversion="1" />
    <linearGradient
       id="swatch13"
       inkscape:swatch="solid">
      <stop
         style="stop-color:#000000;stop-opacity:1;"
         offset="0"
         id="stop13" />
    </linearGradient>
    <inkscape:path-effect
       effect="spiro"
       id="path-effect12"
       is_visible="true"
       lpeversion="1" />
    <linearGradient
       id="swatch12"
       inkscape:swatch="solid">
      <stop
         style="stop-color:#000000;stop-opacity:1;"
         offset="0"
         id="stop12" />
    </linearGradient>
    <linearGradient
       id="swatch6"
       inkscape:swatch="solid">
      <stop
         style="stop-color:#000000;stop-opacity:1;"
         offset="0"
         id="stop6" />
    </linearGradient>
    <inkscape:path-effect
       effect="spiro"
       id="path-effect12-5"
       is_visible="true"
       lpeversion="1" />
    <inkscape:path-effect
       effect="spiro"
       id="path-effect13-9"
       is_visible="true"
       lpeversion="1" />
  </defs>
  <path
     style="font-size:9.34861px;line-height:1.2;font-family:'Noto Sans Mono';-inkscape-font-specification:'Noto Sans Mono';stroke-width:0.264583"
     d="m 6.9764386,50.796414 q -0.09268,0.760963 -0.447281,1.198078 -0.362753,0.426704 -0.9362702,0.573462 -0.5816672,0.136347 -1.3240702,0.04593 L 0,52.09398 l 0.1017204,-0.835204 4.222417,0.514253 q 0.5196821,0.06329 0.9322864,5.32e-4 0.4137346,-0.07204 0.6703623,-0.323316 0.2484775,-0.261686 0.3095105,-0.762808 0.06442,-0.528962 -0.133672,-0.835619 Q 5.9056611,49.53588 5.519052,49.3852 5.1231629,49.23339 4.6313209,49.173488 l -4.213137,-0.513123 0.1017204,-0.835204 4.2873773,0.522165 q 0.6867228,0.08364 1.21866,0.355611 0.522657,0.270845 0.789817,0.783684 0.25788,0.51171 0.16068,1.309793 z m 0.985176,-5.508474 q -0.176985,0.745875 -0.578134,1.140707 -0.408087,0.383576 -0.994395,0.465443 -0.5932468,0.07061 -1.3209305,-0.102056 l -4.1841808,-0.99284 0.1942513,-0.818644 4.1387007,0.982048 q 0.5093785,0.120868 0.9264083,0.104524 0.419189,-0.02544 0.702244,-0.24652 0.276118,-0.232336 0.392669,-0.723522 0.123026,-0.518475 -0.03962,-0.845315 -0.160492,-0.335936 -0.52788,-0.528802 -0.376484,-0.195023 -0.8585749,-0.309416 l -4.1296045,-0.97989 0.1942513,-0.818644 4.2023731,0.997157 q 0.673107,0.159718 1.171386,0.489332 0.489183,0.327455 0.697469,0.866896 0.19919,0.537282 0.01357,1.319542 z m 0.625958,-2.95003 -5.5817876,-4.298518 0.2989384,-0.836295 7.0450126,0.205075 -0.289498,0.809885 -2.1418574,-0.09052 -0.75836,2.121548 1.713903,1.287743 z M 4.8670625,38.526013 6.5344406,39.77727 7.1354636,38.095877 5.052719,38.006627 q -0.1653864,-0.0095 -0.4666032,-0.0278 -0.3012167,-0.01832 -0.59614,-0.05425 0.2540159,0.150367 0.4985917,0.327143 0.2445758,0.176777 0.378495,0.274286 z m 6.8521435,-3.762641 q -0.335891,0.68908 -0.813709,0.986575 -0.482124,0.284994 -1.0721394,0.236595 -0.594322,-0.0609 -1.266595,-0.388599 l -3.8655695,-1.88427 0.3686616,-0.756307 3.8235519,1.863789 q 0.470591,0.229389 0.881093,0.304687 0.4145984,0.06689 0.7391674,-0.0869 0.320262,-0.166292 0.541459,-0.620077 0.233485,-0.478994 0.146287,-0.833502 -0.0831,-0.362912 -0.39939,-0.631488 -0.324691,-0.272672 -0.770072,-0.489773 l -3.8151494,-1.859693 0.368662,-0.756307 3.8823764,1.892463 q 0.621852,0.303122 1.03594,0.733771 0.405684,0.426553 0.490895,0.998496 0.07681,0.567846 -0.275469,1.29054 z m 2.725563,-4.887281 q -0.41053,0.647394 -0.918501,0.889835 -0.510859,0.22954 -1.091816,0.115745 -0.583846,-0.126696 -1.21545,-0.527213 l -3.6317254,-2.302971 0.450581,-0.710555 3.5922504,2.277939 q 0.442123,0.280362 0.841688,0.400899 0.404571,0.112642 0.744246,-0.0041 0.336787,-0.129598 0.607135,-0.555931 0.285369,-0.450018 0.238186,-0.812031 -0.04218,-0.369908 -0.326592,-0.672032 -0.292312,-0.30713 -0.71075,-0.572472 l -3.5843544,-2.272932 0.450581,-0.710555 3.6475154,2.312984 q 0.584234,0.370478 0.947795,0.844557 0.355666,0.469072 0.376664,1.046946 0.0131,0.572867 -0.417453,1.251842 z m 1.72509,-2.807041 -5.181602,-4.207778 0.760229,-0.936172 3.74204,1.60567 0.01768,-0.02177 -2.339447,-3.332871 0.766122,-0.943429 5.181601,4.207778 -0.500926,0.616858 -2.808515,-2.280687 q -0.428171,-0.347701 -0.866328,-0.727597 -0.43952,-0.393046 -0.782896,-0.756188 l -0.02357,0.02903 2.458778,3.586331 -0.48914,0.602343 -4.027745,-1.669081 -0.02357,0.02903 q 0.239923,0.134619 0.562403,0.360364 0.315223,0.219851 0.64043,0.471897 0.331101,0.244789 0.606873,0.468732 l 2.808515,2.280686 z m 5.329303,-5.848687 q -0.558262,0.525355 -1.11049,0.634241 -0.551827,0.09567 -1.086412,-0.158649 -0.534183,-0.267536 -1.046724,-0.812182 l -2.947112,-3.131714 0.612727,-0.576609 2.915078,3.097674 q 0.358778,0.381253 0.715966,0.597119 0.363996,0.209459 0.722,0.18065 0.358406,-0.04202 0.726042,-0.387989 0.388061,-0.365186 0.432134,-0.727591 0.05088,-0.368811 -0.149721,-0.732033 -0.207009,-0.37003 -0.546567,-0.730857 l -2.908671,-3.090867 0.612727,-0.576608 2.959925,3.14533 q 0.4741,0.503798 0.708728,1.053231 0.228222,0.542626 0.105247,1.107653 -0.129382,0.55822 -0.714877,1.109201 z m 2.14376,-2.130252 -1.975618,-6.762436 0.734409,-0.499396 5.57036,4.318025 -0.711217,0.483626 -1.676922,-1.335545 -1.863081,1.266888 0.625556,2.050469 z m -0.758823,-5.27228 0.609476,1.993572 1.47655,-1.004048 -1.629919,-1.299675 q -0.128019,-0.105137 -0.360556,-0.297475 -0.232536,-0.192338 -0.449611,-0.39519 0.116577,0.27119 0.209962,0.558151 0.09339,0.28696 0.144098,0.444665 z m 7.838379,1.17067 q -0.702716,0.306341 -1.259318,0.222639 -0.551769,-0.09601 -0.969288,-0.515694 -0.412686,-0.431993 -0.711555,-1.11757 L 26.063819,9.635813 26.835092,9.299585 28.534911,13.1988 q 0.209208,0.479903 0.472687,0.80357 0.272049,0.319931 0.6188,0.413528 0.351586,0.08129 0.81435,-0.120445 0.488473,-0.212945 0.652168,-0.539263 0.172264,-0.330055 0.105888,-0.739646 -0.07011,-0.418162 -0.268112,-0.872356 l -1.696083,-3.890645 0.771273,-0.336228 1.72597,3.959203 q 0.276454,0.634158 0.312073,1.230529 0.03188,0.587801 -0.274417,1.07827 -0.310036,0.481899 -1.04703,0.803184 z m 5.314949,-1.696719 Q 35.286121,13.444074 34.759414,13.2456 34.240012,13.036106 33.919704,12.538248 33.6067,12.029371 33.458122,11.296389 L 32.6038,7.081744 33.428404,6.9145939 34.273441,11.083428 q 0.104004,0.513087 0.293812,0.884778 0.19897,0.369834 0.518412,0.534012 0.326746,0.153158 0.821509,0.05287 0.522249,-0.105862 0.750687,-0.390635 0.2376,-0.286631 0.258524,-0.701038 0.01907,-0.42357 -0.07936,-0.90917 l -0.84318,-4.1596716 0.824605,-0.1671502 0.858037,4.2329698 q 0.137434,0.678008 0.0473,1.268603 -0.09199,0.581433 -0.494267,0.996831 -0.40413,0.406236 -1.192086,0.565957 z m 2.959651,-0.668127 2.408505,-6.6206284 0.887544,0.031936 1.935787,6.7769444 -0.859516,-0.03093 -0.561674,-2.068881 -2.251558,-0.08102 -0.708915,2.023163 z m 2.507757,-4.699352 -0.688212,1.967779 1.78443,0.06421 -0.545006,-2.012153 q -0.041,-0.160505 -0.11466,-0.4531495 -0.07366,-0.292645 -0.128639,-0.5846176 -0.06648,0.2876025 -0.160981,0.5741965 -0.0945,0.2865936 -0.146932,0.4437366 z m 3.123762,4.939987 4.035932,-5.7745016 0.849218,0.2599651 0.120768,7.0469615 -0.822401,-0.251756 -0.0086,-2.143751 -2.154332,-0.659491 -1.20715,1.771592 z m 3.635859,-3.892721 -1.172852,1.723429 1.707376,0.522667 -0.0071,-2.084644 q 0.0018,-0.165648 0.0062,-0.46739 0.0044,-0.301741 0.02663,-0.59801 -0.138465,0.260694 -0.303748,0.51318 -0.165283,0.252485 -0.256499,0.390768 z m 3.86498,7.091869 q -0.64012,-0.421783 -0.873645,-0.933914 -0.220575,-0.514794 -0.09664,-1.093673 0.136882,-0.581541 0.548378,-1.206049 l 2.366098,-3.590916 0.702571,0.462933 -2.34038,3.551884 q -0.288047,0.437155 -0.41555,0.834552 -0.119696,0.402541 -0.009,0.744203 0.123692,0.339001 0.545234,0.61676 0.444961,0.293191 0.807744,0.252343 0.370589,-0.0357 0.677637,-0.314796 0.312192,-0.286898 0.584808,-0.700634 l 2.335237,-3.544078 0.70257,0.462932 -2.376386,3.606529 q -0.380633,0.577669 -0.860994,0.932888 -0.475217,0.347413 -1.05337,0.358306 -0.573009,0.0031 -1.244354,-0.43927 z m 2.548502,1.654012 6.51416,-2.683157 0.574622,0.677173 -3.701536,5.99774 -0.556476,-0.655789 1.149753,-1.809368 -1.457726,-1.71788 -1.97237,0.839942 z m 5.161768,-1.314876 -1.917504,0.817906 1.155293,1.361474 1.119082,-1.75882 q 0.09094,-0.138468 0.257469,-0.39013 0.166534,-0.251661 0.345166,-0.489066 -0.257264,0.144739 -0.532674,0.268094 -0.27541,0.123355 -0.426832,0.190542 z m -1.444705,5.905751 6.056684,-2.805526 0.506881,1.094275 -3.086685,2.655827 0.01179,0.02545 4.02186,-0.636932 0.51081,1.102757 -6.056684,2.805526 -0.333991,-0.721034 3.282824,-1.520642 q 0.500482,-0.231829 1.034272,-0.458481 0.546201,-0.222098 1.023292,-0.370972 l -0.01572,-0.03393 -4.301975,0.632748 -0.326132,-0.704068 3.269191,-2.884606 -0.01572,-0.03393 q -0.226353,0.156363 -0.570841,0.346843 -0.336005,0.186549 -0.705316,0.367922 -0.365383,0.189855 -0.687727,0.339168 l -3.282825,1.520642 z m 2.564908,7.455895 q -0.137828,-0.754093 0.07073,-1.27689 0.219435,-0.51528 0.723356,-0.825964 0.514797,-0.303168 1.250498,-0.437634 l 4.230283,-0.773184 0.151275,0.827664 -4.184301,0.76478 q -0.514991,0.09413 -0.890261,0.276757 -0.373588,0.191828 -0.543874,0.508056 -0.159408,0.323743 -0.06864,0.820341 0.09581,0.524187 0.376139,0.758055 0.282013,0.243063 0.695942,0.271946 0.423124,0.0272 0.910526,-0.06188 l 4.175105,-0.763098 0.151275,0.827664 -4.248675,0.776545 q -0.680523,0.124381 -1.269278,0.02291 -0.579558,-0.103149 -0.987149,-0.513329 -0.398396,-0.411862 -0.542948,-1.202741 z m 0.568242,3.254045 6.663909,0.383029 -0.0692,1.203983 -3.974451,0.885877 -0.0016,0.028 3.846775,1.335426 -0.06974,1.213316 -6.663909,-0.383028 0.0456,-0.793323 3.611951,0.207608 q 0.550659,0.03165 1.128245,0.08358 0.586382,0.0618 1.077287,0.15556 l 0.0021,-0.03733 -4.091798,-1.471242 0.04453,-0.774656 4.243291,-1.001521 0.0021,-0.03733 q -0.273345,0.03111 -0.666949,0.03658 -0.384271,0.006 -0.795468,-0.0083 -0.411734,-0.0049 -0.766396,-0.02532 l -3.611951,-0.207608 z m -1.176989,7.804281 q 0.212737,-0.736476 0.632454,-1.111509 0.426104,-0.363458 1.015678,-0.416964 0.595961,-0.04193 1.314474,0.165618 l 4.131452,1.193401 -0.233492,0.808327 -4.086544,-1.180429 q -0.50296,-0.145283 -0.920293,-0.149063 -0.419927,0.0052 -0.713312,0.212379 -0.286997,0.218754 -0.427092,0.703751 -0.147878,0.51194 -0.0012,0.846242 0.14411,0.343282 0.501773,0.553635 0.366645,0.212947 0.84266,0.350447 l 4.077564,1.177835 -0.233492,0.808328 -4.149415,-1.19859 q -0.664625,-0.191982 -1.146434,-0.545234 -0.472828,-0.350658 -0.654866,-0.899512 -0.173056,-0.54626 0.05006,-1.318662 z m -2.090251,5.174842 q 0.355793,-0.679018 0.842062,-0.962488 0.49021,-0.27085 1.078568,-0.205309 0.592299,0.07816 1.254755,0.425276 l 3.809125,1.995913 -0.390504,0.745264 -3.767722,-1.974218 q -0.463719,-0.242981 -0.871857,-0.330187 -0.412477,-0.07893 -0.741382,0.06536 -0.324963,0.156906 -0.559266,0.604064 -0.24732,0.472 -0.17047,0.828895 0.07251,0.365175 0.380852,0.642838 0.316623,0.282001 0.755501,0.511965 l 3.759441,1.969878 -0.390505,0.745264 -3.825687,-2.00459 q -0.612772,-0.321082 -1.014158,-0.763594 -0.393105,-0.438173 -0.461643,-1.012352 -0.06026,-0.56984 0.31289,-1.281981 z m -1.532602,2.920342 5.242603,4.131526 -0.746452,0.947193 -3.765129,-1.550756 -0.01736,0.02203 2.387954,3.29829 -0.752239,0.954536 -5.242602,-4.131526 0.491848,-0.62412 2.841579,2.239357 q 0.433212,0.341401 0.876879,0.714846 0.445223,0.386574 0.793875,0.744654 l 0.02315,-0.02937 -2.51098,-3.549977 0.480276,-0.609435 4.051731,1.609981 0.02315,-0.02937 Q 60.664717,52.924491 60.338969,52.703488 60.020564,52.488271 59.691704,52.24101 59.357058,52.001091 59.07804,51.781206 L 56.236461,49.54185 Z m -3.341078,4.16418 2.850235,6.442808 -0.66213,0.591892 -6.091192,-3.545651 0.641222,-0.573201 1.838413,1.102716 1.679721,-1.501537 -0.890521,-1.950056 z m 1.447538,5.126148 -0.867078,-1.895777 -1.331231,1.190015 1.787091,1.073358 q 0.140767,0.08733 0.396638,0.247324 0.255872,0.159989 0.497805,0.33244 -0.151325,-0.253446 -0.281741,-0.525584 -0.130415,-0.272138 -0.201484,-0.421776 z m -7.873238,-0.04339 q 0.6316,-0.434437 1.193961,-0.458158 0.559956,-0.01072 1.049695,0.321869 0.487335,0.345589 0.911176,0.961784 l 2.437088,3.543121 -0.693219,0.476821 -2.410598,-3.504608 q -0.296689,-0.431336 -0.616933,-0.698965 -0.327946,-0.262331 -0.686172,-0.288248 -0.36063,-0.01292 -0.776561,0.273175 -0.439039,0.301987 -0.537662,0.653488 -0.106325,0.3568 0.03676,0.746283 0.148386,0.397185 0.429181,0.805414 l 2.4053,3.496906 -0.693219,0.476822 -2.447684,-3.558526 q -0.392054,-0.56998 -0.540481,-1.148683 -0.14313,-0.571 0.06426,-1.110784 0.212692,-0.532081 0.875101,-0.987711 z m -2.699947,1.880352 3.445248,5.71705 -1.032912,0.622461 -2.974633,-2.780756 -0.02402,0.01448 1.068949,3.929171 -1.040919,0.627286 -3.445248,-5.717049 0.680601,-0.410149 1.867382,3.098737 q 0.284692,0.472417 0.567845,0.978506 0.279971,0.518922 0.479661,0.977074 l 0.03203,-0.0193 -1.09514,-4.20809 0.664587,-0.400498 3.22184,2.937399 0.03203,-0.0193 q -0.179968,-0.208079 -0.406651,-0.5299 -0.221858,-0.313814 -0.442177,-0.6613 -0.228326,-0.342661 -0.411687,-0.646929 l -1.867382,-3.098737 z m -4.826732,2.857519 3.477959,5.697209 -1.029328,0.628371 -2.990521,-2.76366 -0.02394,0.01461 1.091452,3.92298 -1.037307,0.633242 -3.477959,-5.697209 0.678239,-0.414043 1.885112,3.087983 q 0.287395,0.470778 0.573444,0.975236 0.282941,0.517308 0.485253,0.974308 l 0.03192,-0.01949 -1.119241,-4.201745 0.66228,-0.4043 3.238623,2.918885 0.03192,-0.01948 Q 41.7316,68.028392 41.503076,67.707875 41.279424,67.395338 41.057116,67.04912 40.82683,66.707774 40.641728,66.404561 l -1.885112,-3.087983 z m -4.567978,2.750864 2.125424,6.716858 -0.72313,0.515595 -5.66495,-4.19316 0.700293,-0.499312 1.706189,1.297946 1.834465,-1.307982 -0.670973,-2.03606 z m 0.875811,5.254113 -0.653632,-1.979534 -1.453871,1.036616 1.658402,1.263129 q 0.130323,0.102266 0.367077,0.289389 0.236754,0.187122 0.458283,0.3851 -0.122575,-0.268533 -0.222315,-0.553347 -0.09974,-0.284814 -0.153944,-0.441353 z m -7.416058,-0.291428 q 0.557104,-0.526582 1.109092,-0.636684 0.551615,-0.09689 1.086758,0.156258 0.534771,0.266359 1.04851,0.809875 l 2.953996,3.125221 -0.611456,0.577956 -2.921888,-3.091251 q -0.359617,-0.380461 -0.717279,-0.595541 -0.364456,-0.208658 -0.722396,-0.179061 -0.358313,0.04281 -0.725187,0.389587 -0.387255,0.366038 -0.430531,0.728539 -0.05007,0.368923 0.151332,0.731702 0.207823,0.369573 0.548175,0.729653 l 2.915466,3.084457 -0.611456,0.577956 -2.96684,-3.138809 q -0.475209,-0.502756 -0.711046,-1.051672 -0.229415,-0.542122 -0.107683,-1.107418 0.128152,-0.558503 0.712433,-1.110772 z m -3.717313,4.212521 q 0.448645,-0.621588 0.970252,-0.833104 0.523716,-0.198464 1.096795,-0.05001 0.575189,0.16151 1.181615,0.599213 l 3.486955,2.516794 -0.492416,0.68223 -3.449053,-2.489437 q -0.424499,-0.306392 -0.816109,-0.450693 -0.397081,-0.136722 -0.743148,-0.04062 -0.343957,0.10915 -0.639407,0.518489 -0.311864,0.432079 -0.286494,0.796271 0.0199,0.371773 0.285669,0.690422 0.27335,0.32412 0.675108,0.614099 l 3.441473,2.483965 -0.492416,0.68223 -3.502115,-2.527735 q -0.560945,-0.404874 -0.895397,-0.899919 -0.326872,-0.489573 -0.313148,-1.067665 0.0213,-0.572621 0.491836,-1.22453 z m -1.667145,2.527859 5.203647,4.749281 -0.367677,0.808435 -7.003332,-0.792206 0.356066,-0.782906 2.126835,0.268925 0.93274,-2.050871 -1.600475,-1.426263 z m 3.389465,4.109048 -1.557156,-1.386021 -0.739226,1.625379 2.068035,0.262723 q 0.164019,0.02325 0.462656,0.06664 0.298638,0.04339 0.589535,0.103801 Q 26.914895,81.967 26.685922,81.770432 26.45695,81.573865 26.331634,81.46552 Z m -6.344328,3.542427 q 0.166648,-0.748253 0.562297,-1.148597 0.402741,-0.389185 0.987861,-0.479155 0.592212,-0.07881 1.322215,0.08377 l 4.197516,0.934858 -0.182907,0.821253 -4.151891,-0.924697 q -0.511002,-0.113808 -0.927766,-0.0917 -0.418796,0.03124 -0.698766,0.256213 -0.272877,0.236133 -0.382621,0.728885 -0.115841,0.520127 0.05132,0.844685 0.165124,0.333684 0.535145,0.521448 0.379147,0.189797 0.862773,0.297508 l 4.142766,0.922665 -0.182907,0.821253 -4.215766,-0.938923 q -0.675252,-0.15039 -1.178044,-0.473079 -0.493666,-0.320656 -0.709395,-0.857163 -0.206604,-0.534475 -0.03183,-1.319228 z m -0.527365,2.984025 6.689062,2.211346 -0.0056,0.8881 -6.716634,2.13567 0.0055,-0.860054 2.051336,-0.622708 0.01429,-2.25297 -2.043273,-0.648678 z m 4.771569,2.367463 -1.987301,-0.629625 -0.01132,1.785549 1.995127,-0.604367 q 0.15922,-0.04573 0.449555,-0.128032 0.290335,-0.0823 0.580551,-0.145899 -0.289446,-0.05793 -0.578713,-0.143902 -0.289268,-0.08597 -0.447894,-0.133724 z m -4.77201,3.260653 7.009988,0.702624 0.187777,0.86804 -6.09087,3.546201 -0.181847,-0.84063 1.866652,-1.054205 -0.476361,-2.20208 -2.135469,-0.188459 z m 5.172428,1.272298 -2.076693,-0.182044 0.377531,1.745217 1.815781,-1.024075 q 0.14545,-0.07929 0.410916,-0.222798 0.265466,-0.14351 0.534885,-0.268746 -0.295115,0.0065 -0.596159,-0.01451 -0.301045,-0.02096 -0.466261,-0.03305 z m -2.914209,6.609678 q -0.327628,-0.69304 -0.260939,-1.25194 0.07914,-0.554441 0.485896,-0.984561 0.419208,-0.42567 1.095351,-0.74531 l 3.887825,-1.837909 0.359591,0.760662 -3.845565,1.817937 q -0.473301,0.22374 -0.788782,0.49697 -0.311487,0.281681 -0.394466,0.631121 -0.07053,0.3539 0.145223,0.8103 0.227741,0.48175 0.5589,0.63542 0.335154,0.16212 0.742531,0.0833 0.415829,-0.0828 0.863774,-0.29459 l 3.837114,-1.813941 0.359592,0.760671 -3.904729,1.8459 q -0.625432,0.29566 -1.22044,0.34945 -0.586556,0.0498 -1.086137,-0.24141 -0.49113,-0.29519 -0.834739,-1.02205 z m 1.591856,2.90182 5.21952,-4.16065 0.751714,0.94302 -2.369554,3.31154 0.01748,0.0219 3.756437,-1.57169 0.757541,0.95033 -5.21952,4.16065 -0.495315,-0.62137 2.829067,-2.25515 q 0.431305,-0.3438 0.896195,-0.69047 0.478028,-0.34519 0.906262,-0.60286 l -0.02331,-0.0292 -4.029568,1.634 -0.483661,-0.60676 2.49266,-3.57703 -0.02331,-0.0292 q -0.182861,0.20555 -0.47241,0.47222 -0.282239,0.26085 -0.598063,0.52456 -0.309996,0.27102 -0.587786,0.49245 l -2.829067,2.25514 z m 3.366938,4.15972 5.805042,-3.99188 0.704069,0.54134 -2.358809,6.64155 -0.681836,-0.52423 0.743948,-2.01055 -1.786112,-1.37327 -1.751878,1.23558 z m 4.770308,-2.37 -1.702866,1.20251 1.415549,1.08837 0.72458,-1.95468 q 0.05981,-0.15449 0.169758,-0.43552 0.109944,-0.28103 0.23471,-0.55067 -0.221112,0.19556 -0.464459,0.37402 -0.243346,0.17847 -0.377272,0.27597 z m -0.275507,5.76347 4.656805,-5.28657 0.814791,0.35337 -0.668617,7.01621 -0.789061,-0.34221 0.231387,-2.13124 -2.066996,-0.89644 -1.397825,1.62537 z m 4.048655,-3.46138 -1.358354,1.58135 1.638159,0.71046 0.226223,-2.07235 q 0.02035,-0.1644 0.05847,-0.46376 0.03812,-0.29936 0.09339,-0.59127 -0.16677,0.24356 -0.359271,0.47596 -0.1925,0.2324 -0.298617,0.35961 z m 3.689404,6.16223 q -0.757234,-0.11937 -1.181611,-0.48913 -0.413686,-0.37753 -0.540189,-0.95585 -0.115811,-0.5861 6.53e-4,-1.32487 l 0.669673,-4.2479 0.83111,0.13103 -0.662393,4.20172 q -0.08152,0.51714 -0.03331,0.93169 0.05745,0.41602 0.299547,0.68132 0.252787,0.25752 0.751454,0.33614 0.52637,0.083 0.839802,-0.10421 0.322666,-0.18573 0.486846,-0.56681 0.165636,-0.3903 0.242794,-0.87973 l 0.660938,-4.1925 0.83111,0.13103 -0.672584,4.26636 q -0.10773,0.68336 -0.398239,1.20541 -0.289053,0.51281 -0.810969,0.76177 -0.52046,0.23973 -1.314632,0.11453 z m 3.019379,0.31575 1.517435,-6.87975 0.884041,-0.085 2.809716,6.46373 -0.856125,0.0823 -0.828723,-1.97711 -2.242674,0.21562 -0.436852,2.09878 z m 1.868347,-4.98819 -0.423609,2.04116 1.777389,-0.17088 -0.804744,-1.92307 q -0.06174,-0.15372 -0.173224,-0.43414 -0.111487,-0.28043 -0.204362,-0.56264 -0.0281,0.29384 -0.08412,0.59037 -0.05602,0.29653 -0.08733,0.4592 z m 3.726486,4.38901 -0.06746,-7.04479 0.842328,-0.28149 4.190432,5.66697 -0.815728,0.2726 -1.251839,-1.7403 -2.136854,0.7141 0.04598,2.14327 z m 0.699567,-5.28047 0.04594,2.08415 1.693523,-0.56594 -1.216328,-1.69303 q -0.0947,-0.13591 -0.266359,-0.38411 -0.171654,-0.2482 -0.325575,-0.50232 0.03865,0.29264 0.05071,0.59417 0.01205,0.30154 0.01809,0.46708 z m 4.614909,3.44349 -1.490981,-6.88553 0.767983,-0.44605 5.25005,4.70226 -0.74373,0.43196 -1.577967,-1.45113 -1.948249,1.13155 0.47854,2.08968 z m -0.382948,-5.31282 0.466537,2.03178 1.544048,-0.89679 -1.533628,-1.41201 q -0.120238,-0.11395 -0.338547,-0.3223 -0.218308,-0.20835 -0.420448,-0.42609 0.09705,0.27878 0.169844,0.57164 0.07279,0.29286 0.112194,0.45377 z m 5.216242,2.4458 -2.680127,-6.51541 0.67744,-0.5743 5.996017,3.70432 -0.656047,0.55617 -1.808833,-1.15059 -1.718558,1.45692 0.839024,1.97276 z m -1.312476,-5.16238 0.817014,1.91789 1.362011,-1.15466 -1.758299,-1.1199 q -0.138426,-0.091 -0.39001,-0.25765 -0.251584,-0.16666 -0.488906,-0.3454 0.14462,0.25733 0.267847,0.5328 0.123227,0.27547 0.190343,0.42692 z m 5.566906,1.49507 -3.642355,-6.030491 0.581937,-0.6709 6.490784,2.746631 -0.56356,0.64971 -1.963139,-0.86129 -1.476282,1.70196 1.13005,1.82173 z m -2.084368,-4.90185 1.099928,1.77086 1.17,-1.34885 -1.908515,-0.83867 q -0.150683,-0.0688 -0.424739,-0.19516 -0.274055,-0.12634 -0.535859,-0.2668 0.182171,0.23227 0.345964,0.48572 0.163794,0.25345 0.253221,0.3929 z m 5.886036,0.39946 -5.558767,-3.695201 0.66762,-1.004313 3.877944,1.242013 0.01553,-0.0234 -2.646211,-3.094932 0.672795,-1.0121 5.558767,3.695202 -0.439904,0.66176 -3.012946,-2.002865 q -0.459342,-0.305305 -0.931685,-0.641748 -0.474953,-0.349403 -0.851351,-0.678194 l -0.0207,0.03114 2.789137,3.335877 -0.429554,0.64619 -4.16839,-1.27793 -0.0207,0.0311 q 0.251653,0.11115 0.594165,0.30516 0.334727,0.18884 0.68246,0.40877 0.352907,0.21214 0.648752,0.4088 l 3.012945,2.002861 z m 2.92038,-4.460881 -4.917615,-5.044865 0.41423,-0.7856 6.945164,1.199563 -0.401149,0.760791 -2.107516,-0.392586 -1.050837,1.992942 1.514513,1.517234 z m -3.143888,-4.29985 1.473616,1.474533 0.832821,-1.579469 -2.049178,-0.382963 q -0.162383,-0.03278 -0.457979,-0.09352 -0.295597,-0.06075 -0.582472,-0.138028 0.230191,0.184787 0.447302,0.394382 0.217111,0.209595 0.33589,0.325068 z m 5.844862,-0.935066 -6.124923,-2.653243 0.479367,-1.106604 4.036525,0.536194 0.01115,-0.02574 -3.152111,-2.577835 0.483084,-1.115183 6.124924,2.653243 -0.315863,0.729158 -3.319811,-1.438102 Q 69.065028,86.587635 68.540604,86.340085 68.011317,86.08024 67.582678,85.823242 l -0.01486,0.03431 3.335417,2.789687 -0.30843,0.712 -4.328743,-0.520146 -0.01486,0.03431 q 0.267352,0.06487 0.63879,0.195211 0.362859,0.126622 0.744021,0.281549 0.384879,0.146349 0.710855,0.287558 l 3.319812,1.438102 z m 3.086446,-7.304527 q -0.266589,0.718738 -0.712877,1.061724 -0.451802,0.330969 -1.043718,0.340753 -0.59743,-0.0022 -1.298638,-0.262318 l -4.031946,-1.495496 0.292597,-0.788859 3.988121,1.47924 q 0.490845,0.18206 0.906758,0.216676 0.419163,0.02585 0.727058,-0.159078 0.302381,-0.196943 0.477939,-0.670258 0.185311,-0.499611 0.06372,-0.843841 -0.118344,-0.352995 -0.459482,-0.589208 -0.349902,-0.239463 -0.814453,-0.41177 l -3.979356,-1.47599 0.292597,-0.788859 4.049477,1.501998 q 0.648618,0.24058 1.103,0.628477 0.445617,0.384646 0.586591,0.945454 0.132208,0.557556 -0.147384,1.311355 z m 0.943819,-2.860833 -5.682181,-4.164905 0.279017,-0.843151 7.047894,0.0379 -0.270205,0.816525 -2.143402,-0.03969 -0.707821,2.138941 1.743967,1.246725 z m -3.809884,-3.722571 1.696589,1.211352 0.560971,-1.695176 -2.084276,-0.03982 q -0.165565,-0.0056 -0.467131,-0.01672 -0.301567,-0.01117 -0.597259,-0.04009 0.257511,0.144299 0.506211,0.315224 0.2487,0.170925 0.384895,0.26523 z m 5.641531,-1.875099 -6.381476,-1.957334 0.353636,-1.152956 4.071094,0.08505 0.0082,-0.02681 -3.418649,-2.212212 0.356378,-1.161893 6.381475,1.957335 -0.233016,0.759699 -3.458867,-1.060908 q -0.527297,-0.161741 -1.075948,-0.349581 -0.554847,-0.199518 -1.009352,-0.407374 l -0.01097,0.03575 3.624328,2.402418 -0.227533,0.741824 -4.359728,-0.03668 -0.01097,0.03575 q 0.272898,0.03481 0.656503,0.123135 0.374668,0.08558 0.770665,0.197266 0.398739,0.102745 0.73837,0.206916 l 3.458867,1.060909 z m 1.552152,-5.097738 -5.806823,-3.989288 0.253117,-0.851285 7.04576,-0.177526 -0.245123,0.824402 -2.143614,0.02584 -0.642116,2.159575 1.781258,1.19284 z m -3.921881,-3.604386 1.732821,1.158932 0.508897,-1.71153 -2.08452,0.0239 q -0.165657,-4.9e-4 -0.467424,-0.0024 -0.301767,-0.0019 -0.598205,-0.02182 0.261801,0.136361 0.515609,0.299605 0.253809,0.163244 0.392822,0.253343 z m 5.512413,-1.774619 -5.788025,-4.016512 0.257111,-0.850087 7.046516,-0.144438 -0.248992,0.823242 -2.143711,0.01577 -0.65225,2.156536 1.775636,1.201192 z m -3.904912,-3.622763 1.727359,1.167056 0.516929,-1.709121 -2.084608,0.01412 q -0.165653,-0.0013 -0.467408,-0.0046 -0.301755,-0.0034 -0.598096,-0.02463 0.261158,0.137589 0.514197,0.302023 0.253038,0.164434 0.391627,0.255185 z m 5.609045,-2.01514 -6.353036,-2.047763 0.369974,-1.147817 4.069476,0.142859 0.0086,-0.02669 -3.386888,-2.260537 0.372842,-1.156715 6.353035,2.047762 -0.243781,0.756314 -3.443452,-1.109922 q -0.524967,-0.169217 -1.070895,-0.364829 -0.551958,-0.207378 -1.003466,-0.421668 l -0.01147,0.03559 3.589845,2.453646 -0.238045,0.738518 -4.358767,-0.09859 -0.01147,0.03559 q 0.272377,0.03868 0.654689,0.132447 0.373414,0.0909 0.767786,0.20819 0.397239,0.108397 0.735356,0.217381 l 3.443452,1.109922 z m 1.725863,-5.337501 -6.284759,-2.248596 0.406259,-1.135482 4.062881,0.272095 0.0094,-0.02641 -3.313349,-2.367015 0.409409,-1.144283 6.284759,2.248596 -0.26769,0.748186 -3.406445,-1.218777 q -0.519329,-0.185809 -1.058766,-0.398669 -0.54509,-0.224813 -0.98956,-0.45334 l -0.0126,0.03521 3.510068,2.566474 -0.261392,0.730582 -4.353433,-0.237045 -0.0126,0.03521 q 0.27101,0.04732 0.65015,0.153182 0.370337,0.102715 0.760783,0.232482 0.393594,0.120964 0.728077,0.240638 l 3.406446,1.218777 z m 1.900688,-5.277994 -6.175465,-2.533382 0.457712,-1.115735 4.046208,0.457432 0.01064,-0.02595 -3.201747,-2.515921 0.46126,-1.124384 6.175465,2.533381 -0.301593,0.735175 -3.347206,-1.373136 Q 83.299068,44.139964 82.769919,43.902681 82.23567,43.6532 81.802104,43.404604 l -0.01419,0.0346 3.389147,2.724159 -0.294496,0.717876 -4.338057,-0.435692 -0.01419,0.0346 q 0.268565,0.05965 0.642472,0.182726 0.365258,0.119527 0.749367,0.266997 0.387657,0.13882 0.716324,0.27365 l 3.347205,1.373135 z m 3.236541,-7.231724 q -0.332658,0.690647 -0.809075,0.990378 -0.480784,0.287252 -1.071019,0.241618 -0.594601,-0.05811 -1.268403,-0.382656 l -3.87436,-1.866129 0.365113,-0.758027 3.832247,1.845845 q 0.471661,0.227181 0.882511,0.300553 0.414907,0.06495 0.738752,-0.09036 0.319478,-0.167792 0.538546,-0.622608 0.231237,-0.480084 0.142378,-0.834179 -0.0848,-0.362519 -0.402345,-0.629609 -0.325967,-0.271147 -0.77236,-0.486157 l -3.823825,-1.841788 0.365112,-0.758027 3.891205,1.874242 q 0.623267,0.300204 1.039368,0.728907 0.40768,0.424647 0.495571,0.996184 0.07947,0.567479 -0.269416,1.291816 z m 2.603417,-4.95926 q -0.382401,0.664397 -0.879513,0.92839 -0.500551,0.251226 -1.085852,0.162439 -0.588739,-0.101553 -1.236931,-0.474628 l -3.727105,-2.145179 0.419709,-0.729216 3.686593,2.121862 q 0.453734,0.261152 0.858098,0.364451 0.409028,0.0952 0.743389,-0.03595 0.330922,-0.143916 0.582747,-0.581445 0.265816,-0.461837 0.203159,-0.821495 -0.05799,-0.36776 -0.355099,-0.657414 -0.305208,-0.294318 -0.734636,-0.54148 l -3.67849,-2.117198 0.419709,-0.729216 3.74331,2.154506 q 0.599577,0.345094 0.983126,0.803153 0.375446,0.453395 0.421195,1.029838 0.03765,0.571779 -0.363409,1.268585 z m 1.593577,-2.881668 -5.485517,-3.803091 0.687113,-0.99108 3.852941,1.317532 0.01598,-0.02305 -2.585244,-3.146038 0.69244,-0.998764 5.485517,3.80309 -0.452749,0.653038 -2.973242,-2.061339 q -0.453286,-0.314259 -0.918967,-0.659865 -0.468037,-0.358615 -0.83794,-0.694697 l -0.02131,0.03073 2.723435,3.389728 -0.442096,0.637673 -4.142628,-1.359115 -0.02131,0.03073 q 0.249433,0.116054 0.58809,0.316717 0.330974,0.195336 0.674344,0.422017 0.348695,0.218999 0.640642,0.421404 l 2.973242,2.061339 z m 4.779102,-6.315532 q -0.48866,0.590652 -1.02307,0.767314 -0.53567,0.1635 -1.09771,-0.02242 -0.563287,-0.199085 -1.139533,-0.675822 l -3.313416,-2.741237 0.536329,-0.648277 3.2774,2.711441 q 0.403373,0.333716 0.784615,0.503525 0.387205,0.162606 0.738855,0.08953 0.3504,-0.08623 0.6722,-0.475199 0.33968,-0.410576 0.33838,-0.775648 0.005,-0.372276 -0.23953,-0.707756 -0.25138,-0.341439 -0.63314,-0.657277 l -3.2702,-2.705482 0.536329,-0.648277 3.327821,2.753156 q 0.53303,0.440981 0.83411,0.957002 0.29388,0.510061 0.24207,1.08599 -0.059,0.56997 -0.57151,1.189435 z m 1.86014,-2.371736 -3.25542,-6.247867 0.62302,-0.632924 6.304966,3.149868 -0.60335,0.612938 -1.90502,-0.983196 -1.580506,1.605629 1.013096,1.889277 z m -1.77159,-5.023367 0.98624,1.836603 1.252606,-1.272511 -1.851916,-0.957172 q -0.14605,-0.07818 -0.41161,-0.221518 -0.26556,-0.143342 -0.518,-0.300008 0.16719,0.243277 0.3147,0.506541 0.14751,0.263264 0.22798,0.408065 z m 5.932726,0.852337 -4.322146,-5.086592 0.919006,-0.780893 3.38415,2.264631 0.0214,-0.01816 -1.68862,-3.705347 0.92613,-0.786946 4.32215,5.086592 -0.60555,0.514542 -2.34267,-2.757019 q -0.35715,-0.42032 -0.71822,-0.87412 -0.35999,-0.466977 -0.63096,-0.886928 l -0.0285,0.02421 1.75945,3.976392 -0.5913,0.502435 -3.65339,-2.379357 -0.0285,0.02421 q 0.21117,0.176331 0.48678,0.457382 0.26957,0.273927 0.54304,0.581333 0.2806,0.301353 0.51063,0.572068 l 2.34268,2.757019 z m 6.25412,-4.857356 q -0.62761,0.440182 -1.18973,0.469033 -0.55983,0.01583 -1.05259,-0.312278 -0.49046,-0.341129 -0.91991,-0.953431 l -2.46931,-3.520737 0.68884,-0.483127 2.44247,3.482469 q 0.30061,0.428611 0.62328,0.693307 0.33033,0.259327 0.68878,0.281976 0.36073,0.0096 0.77403,-0.28025 0.43627,-0.30598 0.53168,-0.658367 0.10307,-0.357754 -0.0436,-0.745916 -0.152,-0.395815 -0.43651,-0.801465 l -2.43711,-3.474814 0.68884,-0.483127 2.48005,3.536045 q 0.39724,0.566379 0.55094,1.143704 0.14833,0.56967 -0.0541,1.111324 -0.20782,0.534 -0.86605,0.995654 z m 2.66665,-1.93303 -3.28346,-5.811477 1.04998,-0.593231 2.89542,2.863134 0.0244,-0.0138 -0.95827,-3.9576208 1.05812,-0.5978291 3.28346,5.8114779 -0.69185,0.390888 -1.77969,-3.149919 q -0.27132,-0.48022 -0.54016,-0.994055 -0.2653,-0.526574 -0.45205,-0.990149 l -0.0326,0.01839 0.97662,4.237165 -0.67556,0.381691 -3.13814,-3.026653 -0.0326,0.01839 q 0.17406,0.213047 0.39162,0.541102 0.21296,0.319917 0.42345,0.673448 0.21862,0.348933 0.39337,0.658228 l 1.77969,3.149918 z m 4.90773,-2.721917 -2.67082,-6.1172806 1.10522,-0.4825426 2.58688,3.1446972 0.0257,-0.01122 -0.54778,-4.0349693 1.11379,-0.4862832 2.67082,6.1172815 -0.72825,0.317954 -1.44763,-3.3156692 q -0.2207,-0.5054896 -0.43548,-1.0441634 -0.20996,-0.550982 -0.34824,-1.0312503 l -0.0343,0.014963 0.5374,4.3149229 -0.71111,0.310473 -2.81156,-3.3322209 -0.0343,0.014963 q 0.15131,0.2297578 0.33412,0.5783759 0.17907,0.3400505 0.35223,0.713285 0.18172,0.369494 0.32387,0.695064 l 1.44762,3.315669 z m 4.89443,-2.118578 0.0653,-7.0448098 0.84748,-0.2655702 4.08292,5.744914 -0.82072,0.257184 -1.21883,-1.7635771 -2.14993,0.6737095 0.006,2.1437616 z m 0.79894,-5.2663511 0.007,2.0846455 1.70388,-0.5339358 -1.18421,-1.7156428 q -0.0921,-0.1376773 -0.25908,-0.3890648 -0.16694,-0.2513876 -0.31605,-0.508366 0.0331,0.2933196 0.0395,0.5950257 0.006,0.3017061 0.009,0.4673382 z m 7.13326,3.2033351 q -0.75257,0.145941 -1.27758,-0.05698 -0.51761,-0.2138736 -0.8337,-0.7144195 -0.3087,-0.5115033 -0.45108,-1.245714 l -0.81869,-4.2217114 0.82599,-0.1601785 0.80979,4.1758233 q 0.0997,0.5139475 0.28633,0.8872286 0.19584,0.3715013 0.51388,0.5383717 0.32544,0.155913 0.82103,0.059806 0.52313,-0.1014464 0.75396,-0.3842801 0.24002,-0.2846134 0.26444,-0.698829 0.0226,-0.4233932 -0.0717,-0.9098078 l -0.80801,-4.1666457 0.82598,-0.1601785 0.82225,4.2400668 q 0.1317,0.6791448 0.0366,1.2689576 -0.0969,0.5806351 -0.50267,0.9926201 -0.40754,0.4028074 -1.19682,0.5558664 z m 3.22578,-0.6674586 -0.5212,-6.6545275 1.20229,-0.094167 1.41494,3.8182404 0.028,-0.00219 L 136.72617,0.094897 137.93778,0 l 0.52121,6.6545275 -0.79221,0.062048 -0.2825,-3.6068658 q -0.0431,-0.5498839 -0.0697,-1.129188 -0.018,-0.5893541 0.009,-1.0884275 l -0.0373,0.00292 -0.90467,4.2531068 -0.77357,0.060588 -1.56587,-4.0689826 -0.0373,0.00292 q 0.0678,0.266632 0.12639,0.6558849 0.0579,0.3799328 0.0993,0.7892857 0.0508,0.408623 0.0785,0.7627855 l 0.2825,3.6068658 z m 5.31915,-0.3968657 2.41848,-6.6169903 0.8875,0.033273 1.92557,6.7798548 -0.85947,-0.032223 -0.55856,-2.0697249 -2.25143,-0.08441 -0.71196,2.0220915 z m 2.51484,-4.6955663 -0.69118,1.9667397 1.78433,0.066897 -0.54197,-2.0129722 q -0.0408,-0.1605661 -0.11398,-0.4533217 -0.0732,-0.2927557 -0.12775,-0.5848108 -0.0669,0.2875019 -0.16185,0.5739531 -0.0949,0.2864513 -0.1476,0.4435149 z m 3.09525,4.925268 3.19124,-6.2808909 0.87717,0.1390012 1.10229,6.9612653 -0.84947,-0.134612 -0.30744,-2.1216096 -2.22525,-0.3526241 -0.9483,1.9226186 z m 3.05749,-4.3617072 -0.92106,1.8701445 1.76358,0.2794656 -0.29775,-2.0632831 q -0.0213,-0.1642836 -0.059,-0.4636875 -0.0377,-0.2994038 -0.057,-0.5958814 -0.10076,0.2774564 -0.22922,0.5505232 -0.12846,0.2730668 -0.1995,0.4227187 z m 2.75496,5.3380298 1.85911,-6.4107797 1.15825,0.3358901 -0.0225,4.07192 0.0269,0.00781 2.15946,-3.452216 1.16722,0.3384939 -1.85911,6.4107797 -0.76319,-0.221323 1.00767,-3.4747504 q 0.15363,-0.5297423 0.33302,-1.081213 0.19098,-0.5578456 0.39183,-1.0154892 l -0.0359,-0.010415 -2.34648,3.660791 -0.74523,-0.2161153 -0.0303,-4.3597763 -0.0359,-0.010415 q -0.0306,0.2734008 -0.11304,0.6583168 -0.0798,0.3759374 -0.18541,0.7736032 -0.0966,0.4002697 -0.19555,0.7414596 l -1.00767,3.4747506 z m 5.11721,1.508934 4.6665,-5.2780139 0.81414,0.3548624 -0.68149,7.0149715 -0.78843,-0.343656 0.23529,-2.130817 -2.06534,-0.90023 -1.40081,1.622803 z m 4.055,-3.4539455 -1.36125,1.5788547 1.63685,0.7134598 0.23002,-2.0719263 q 0.0207,-0.1643654 0.0593,-0.4636511 0.0387,-0.2992857 0.0945,-0.5911007 -0.16722,0.2432549 -0.36014,0.4753035 -0.19293,0.2320486 -0.29928,0.3590601 z m 1.32399,5.8635025 3.43702,-5.7220003 1.03381,0.620974 -1.0633,3.9307053 0.024,0.01444 2.97063,-2.785032 1.04182,0.625788 -3.43702,5.722 -0.68119,-0.409169 1.86293,-3.10142 q 0.28401,-0.472827 0.59849,-0.960067 0.32731,-0.490442 0.63853,-0.881488 l -0.032,-0.01925 -3.20479,2.938832 -0.66516,-0.399541 1.08589,-4.2224904 -0.0321,-0.019255 q -0.0995,0.256475 -0.27766,0.6075044 -0.17333,0.343016 -0.37712,0.700446 -0.19577,0.362243 -0.3787,0.666776 l -1.86292,3.10142 z m 4.78161,2.941476 4.16679,-5.214621 0.94213,0.752823 -1.57611,3.754585 0.0219,0.01751 3.31432,-2.365657 0.94944,0.758659 -4.16679,5.214621 -0.62078,-0.496046 2.25846,-2.826412 q 0.34432,-0.4309 0.72075,-0.872039 0.38957,-0.442606 0.74999,-0.788835 l -0.0292,-0.02334 -3.56684,2.486982 -0.60618,-0.484375 1.63727,-4.040782 -0.0292,-0.02334 q -0.13272,0.240977 -0.35592,0.565227 -0.21736,0.316947 -0.46683,0.644132 -0.24217,0.333021 -0.46393,0.61055 l -2.25847,2.826412 z m 4.34786,3.552086 4.84837,-4.587773 0.82888,0.875967 -2.08056,3.500327 0.0193,0.02037 3.60983,-1.884203 0.83531,0.882757 -4.84838,4.587774 -0.54616,-0.577187 2.6279,-2.486651 q 0.40063,-0.379101 0.83449,-0.763899 0.44708,-0.384432 0.85195,-0.677448 l -0.0257,-0.02716 -3.8767,1.969414 -0.53331,-0.563606 2.18074,-3.775306 -0.0257,-0.02716 q -0.1648,0.220291 -0.43072,0.510531 -0.25913,0.283815 -0.55149,0.573325 -0.28592,0.296301 -0.54396,0.540468 l -2.6279,2.486651 z m 5.0713,6.071347 q -0.44243,-0.626021 -0.47331,-1.188034 -0.0178,-0.559775 0.30849,-1.053706 0.33936,-0.491692 0.95011,-0.92334 l 3.51183,-2.481972 0.4856,0.687096 -3.47365,2.454994 q -0.42753,0.302154 -0.69106,0.625777 -0.25814,0.331258 -0.2795,0.689784 -0.008,0.360765 0.28304,0.773023 0.30755,0.435161 0.66027,0.529303 0.35813,0.101776 0.74576,-0.04626 0.39526,-0.153427 0.79989,-0.439394 l 3.46602,-2.449599 0.4856,0.687096 -3.52709,2.492764 q -0.56495,0.399274 -1.14172,0.555053 -0.56913,0.150383 -1.11151,-0.05013 -0.53474,-0.205904 -0.99877,-0.862463 z m 1.92324,2.675967 5.93689,-3.050853 0.55121,1.072632 -2.9755,2.779828 0.0128,0.02494 3.99245,-0.800864 0.55548,1.080946 -5.9369,3.050854 -0.36319,-0.706773 3.21789,-1.653614 q 0.49059,-0.252101 1.01466,-0.500391 0.53666,-0.244248 1.00727,-0.412507 l -0.0171,-0.03326 -4.2725,0.808138 -0.35465,-0.690143 3.1485,-3.015879 -0.0171,-0.03326 q -0.21977,0.165489 -0.55618,0.369896 -0.3281,0.200134 -0.68968,0.396456 -0.35732,0.204638 -0.67329,0.367008 l -3.21789,1.653614 z m 2.50787,5.022965 6.305,-2.191215 0.39589,1.139138 -3.33479,2.336713 0.009,0.02649 4.06519,-0.235048 0.39896,1.147968 -6.30499,2.191215 -0.26086,-0.750595 3.41741,-1.187675 q 0.521,-0.181067 1.07463,-0.353679 0.56553,-0.166851 1.05503,-0.267691 l -0.0123,-0.03532 -4.34352,0.203113 -0.25472,-0.732934 3.53908,-2.546271 -0.0123,-0.03532 q -0.24074,0.133152 -0.60241,0.288538 -0.35285,0.152318 -0.73832,0.296181 -0.38241,0.152694 -0.71797,0.269313 l -3.41741,1.187675 z m 1.72777,5.049084 6.99378,0.84891 0.1696,0.871773 -6.16362,3.41819 -0.16425,-0.844243 1.88827,-1.014984 -0.43026,-2.211551 -2.13106,-0.233028 z m 5.14472,1.380072 -2.07244,-0.225386 0.34099,1.752723 1.83678,-0.98592 q 0.14707,-0.07623 0.41548,-0.214165 0.26841,-0.137933 0.54038,-0.257513 -0.29518,2.84e-4 -0.59572,-0.02696 -0.30054,-0.02724 -0.46547,-0.04278 z m -4.08663,4.418809 6.66649,-0.335197 0.0606,1.204449 -3.85626,1.307786 0.001,0.02801 3.96799,0.914376 0.061,1.213786 -6.66649,0.335196 -0.0399,-0.793629 3.61335,-0.181682 q 0.55087,-0.0277 1.13069,-0.03813 0.58963,-0.0016 1.08776,0.03891 l -0.002,-0.03735 -4.22619,-1.023079 -0.039,-0.774956 4.11112,-1.451646 -0.002,-0.03735 q -0.26842,0.0603 -0.65916,0.108027 -0.3814,0.04726 -0.79175,0.07725 -0.40988,0.03933 -0.76468,0.05717 l -3.61334,0.181682 z m 0.2157,5.610014 6.64799,0.59876 -0.10818,1.201109 -4.00107,0.756627 -0.003,0.02793 3.80148,1.459373 -0.10902,1.21042 -6.64799,-0.59876 0.0713,-0.791428 3.60332,0.324538 q 0.54935,0.04948 1.12495,0.120092 0.58407,0.08076 1.07168,0.190387 l 0.003,-0.03724 -4.04197,-1.603057 0.0696,-0.772806 4.27352,-0.863499 0.003,-0.03724 q -0.27421,0.02224 -0.66778,0.01495 -0.38427,-0.0064 -0.79479,-0.03404 -0.41135,-0.01828 -0.76517,-0.05014 l -3.60333,-0.324538 z m -0.5684,5.585441 6.49824,1.52553 -0.27562,1.174052 -4.06765,0.187807 -0.006,0.0273 3.55914,1.978275 -0.27775,1.183153 -6.49825,-1.52553 0.18161,-0.7736 3.52216,0.826863 q 0.53697,0.126059 1.09697,0.27673 0.56696,0.161909 1.03437,0.338857 l 0.009,-0.03641 -3.7771,-2.154277 0.17734,-0.755398 4.35239,-0.255398 0.009,-0.03641 q -0.27462,-0.01646 -0.66328,-0.07889 -0.37955,-0.0603 -0.78214,-0.145206 -0.40473,-0.07581 -0.75057,-0.156999 l -3.52216,-0.826862 z"
     id="text5"
     inkscape:label="text5"
     aria-label="UUAUUMUAUUAAUAMUMUUMAUMMAUUAUAAUMAAUAAAAAMAMUAMAAMMMUUMUAMUMMAUMAAMAMMMUMMAMMM" />
  <path
     style="font-size:9.34861px;line-height:1.2;font-family:'Noto Sans Mono';-inkscape-font-specification:'Noto Sans Mono';stroke-width:0.264583"
     d="m 183.58881,94.557843 5.07129,-0.19228 -0.0949,0.77952 -2.50329,0.0624 q -0.35015,0.0139 -0.62153,-3.5e-4 -0.27251,-0.005 -0.55317,-0.0203 -0.28179,-0.006 -0.66453,-0.0339 l -0.003,0.0278 q 0.15437,0.0471 0.42712,0.12736 0.2809,0.0907 0.59779,0.19524 0.32504,0.11493 0.59327,0.23235 l 1.62092,0.68714 -0.11189,0.91872 -1.7362,0.25943 q -0.28858,0.0496 -0.62242,0.0843 -0.32456,0.0358 -0.61902,0.0564 -0.28632,0.0311 -0.4649,0.0281 l -0.003,0.0278 q 0.36781,0.073 0.63467,0.12439 0.27614,0.0525 0.54187,0.11308 0.26573,0.0606 0.62087,0.16038 l 2.41174,0.68927 -0.0927,0.76096 -4.87464,-1.42244 0.12206,-1.00225 1.7989,-0.23296 q 0.39178,-0.0465 0.7847,-0.1022 0.39291,-0.0557 0.77315,-0.0848 l 0.003,-0.0278 q -0.36216,-0.11945 -0.72907,-0.27715 -0.36805,-0.14842 -0.7361,-0.29684 l -1.68927,-0.6672 z m -0.78551,5.554817 5.0611,0.37462 -0.1813,0.76406 -2.49463,-0.21721 q -0.3495,-0.0253 -0.6176,-0.0697 -0.27026,-0.0353 -0.54746,-0.0819 -0.27936,-0.0375 -0.65661,-0.10776 l -0.006,0.0273 q 0.14816,0.064 0.41025,0.17421 0.26903,0.12148 0.57228,0.2607 0.31019,0.15047 0.56365,0.29708 l 1.53415,0.86366 -0.21368,0.90051 -1.7543,0.0641 q -0.29231,0.0171 -0.62794,0.0143 -0.32653,-6.2e-4 -0.62146,-0.013 -0.28799,-0.001 -0.46513,-0.0239 l -0.006,0.0273 q 0.35737,0.11362 0.61683,0.19441 0.26857,0.0829 0.52588,0.17282 0.25731,0.0899 0.5991,0.22863 l 2.31981,0.954 -0.17699,0.74587 -4.68554,-1.95732 0.2331,-0.98237 1.81365,-0.0309 q 0.39453,-0.002 0.79121,-0.014 0.39668,-0.0116 0.77778,0.002 l 0.006,-0.0273 q -0.34658,-0.15911 -0.69361,-0.35675 -0.3492,-0.18855 -0.6984,-0.3771 l -1.60429,-0.85147 z m 3.52931,9.22964 q 0.0818,-0.22888 0.28245,-0.3458 0.1975,-0.1081 0.47039,-0.0106 0.2905,0.10385 0.36591,0.3095 0.0811,0.21761 -7.5e-4,0.44649 -0.0818,0.22888 -0.27931,0.33699 -0.19183,0.12006 -0.48234,0.0162 -0.27289,-0.0975 -0.35395,-0.31515 -0.0842,-0.2088 -0.002,-0.43768 z m -4.85806,-3.99018 0.52819,0.1888 -0.46898,1.72859 3.398,1.21464 0.66512,-1.49964 0.54579,0.1951 -0.83388,2.33282 -4.05823,-1.45064 -0.69531,1.52856 -0.52819,-0.1888 z m -2.63351,6.62512 5.31529,0.53171 -0.37686,0.77312 -3.13106,-0.36143 q -0.31397,-0.0386 -0.65724,-0.0812 -0.34737,-0.0341 -0.73676,-0.0887 l -0.0123,0.0252 q 0.28288,0.27309 0.52375,0.5257 0.24518,0.26512 0.46472,0.47613 l 2.2258,2.21858 -0.38505,0.78992 -3.68498,-3.87627 z m -1.97467,3.81114 4.66231,2.00449 -0.42054,0.66319 -2.28745,-1.01881 q -0.32215,-0.13787 -0.56112,-0.26726 -0.24398,-0.12151 -0.49084,-0.25591 -0.25187,-0.12651 -0.58558,-0.31598 l -0.015,0.0237 q 0.11919,0.1088 0.33101,0.29847 0.21471,0.20257 0.45599,0.43306 0.24417,0.24339 0.43597,0.46464 l 1.16867,1.31671 -0.49564,0.78161 -1.67933,-0.51141 q -0.28191,-0.0791 -0.59829,-0.19121 -0.30848,-0.10706 -0.58327,-0.21489 -0.2719,-0.0949 -0.43191,-0.17426 l -0.015,0.0237 q 0.30078,0.22394 0.51972,0.38492 0.22684,0.16598 0.44078,0.33485 0.21394,0.16888 0.4918,0.4115 l 1.88192,1.6583 -0.41053,0.6474 -3.79118,-3.37823 0.5407,-0.85266 1.72458,0.56225 q 0.37376,0.12631 0.75253,0.24473 0.37877,0.11842 0.73462,0.25552 l 0.015,-0.0237 q -0.27575,-0.26342 -0.53937,-0.56342 -0.26863,-0.29211 -0.53725,-0.58422 l -1.23896,-1.32807 z m -3.09175,4.68179 4.39665,2.53466 -0.49503,0.6096 -2.15298,-1.27868 q -0.30387,-0.17451 -0.52612,-0.3309 -0.22814,-0.14913 -0.45764,-0.31141 -0.23539,-0.15503 -0.54472,-0.38214 l -0.0177,0.0218 q 0.10569,0.12195 0.29394,0.33503 0.18961,0.22624 0.40236,0.4833 0.21411,0.27022 0.37879,0.51233 l 1.00709,1.44405 -0.58343,0.71845 -1.60821,-0.70382 q -0.27075,-0.11148 -0.5719,-0.25969 -0.29388,-0.14231 -0.55422,-0.28146 -0.25896,-0.12599 -0.40864,-0.22345 l -0.0177,0.0218 q 0.2726,0.2575 0.47127,0.44292 0.20593,0.19131 0.39871,0.38399 0.19277,0.19267 0.44044,0.46605 l 1.67563,1.86651 -0.48325,0.59509 -3.37122,-3.79741 0.63647,-0.78377 1.64722,0.75959 q 0.35648,0.16905 0.71884,0.33084 0.36237,0.1618 0.6998,0.33947 l 0.0177,-0.0218 q -0.24314,-0.29379 -0.46996,-0.6225 -0.23272,-0.32145 -0.46543,-0.6429 l -1.07558,-1.46353 z m -0.96458,9.90656 q 0.17701,-0.16657 0.40887,-0.17937 0.22505,-0.006 0.42366,0.20466 0.21143,0.22466 0.18498,0.44211 -0.0268,0.23065 -0.20385,0.39723 -0.17701,0.16658 -0.40207,0.17297 -0.22545,0.0196 -0.43687,-0.20506 -0.19861,-0.21105 -0.17177,-0.44171 0.02,-0.22425 0.19705,-0.39083 z m -2.51005,-5.76384 0.38441,0.40848 -1.20424,1.32581 2.47301,2.62792 1.2747,-1.03268 0.39722,0.4221 -1.80414,1.6978 -2.95352,-3.13853 -1.31475,1.04469 -0.3844,-0.40848 z m -4.32589,3.88991 3.48247,3.69153 -0.64937,0.44157 -1.69454,-1.8436 q -0.24089,-0.2545 -0.4088,-0.46817 -0.17564,-0.20842 -0.3488,-0.42982 -0.1809,-0.21615 -0.41189,-0.52259 l -0.0232,0.0158 q 0.0662,0.14719 0.18522,0.40539 0.11658,0.27119 0.24646,0.57856 0.1274,0.32036 0.21552,0.59959 l 0.54949,1.67259 -0.76533,0.52043 -1.33801,-1.13641 q -0.22728,-0.1846 -0.47312,-0.41312 -0.24057,-0.22079 -0.44992,-0.4289 -0.21181,-0.19512 -0.32715,-0.33149 l -0.0232,0.0158 q 0.18708,0.325 0.32407,0.5597 0.14224,0.24243 0.2715,0.48239 0.12925,0.23996 0.28788,0.573 l 1.06837,2.2694 -0.63391,0.43105 -2.13735,-4.60621 0.83491,-0.56773 1.35935,1.20103 q 0.29283,0.26439 0.5934,0.52352 0.30056,0.25913 0.57268,0.5263 l 0.0232,-0.0158 q -0.14843,-0.35128 -0.27119,-0.73132 -0.13049,-0.37478 -0.26098,-0.74956 l -0.60948,-1.71094 z m -4.72864,3.02401 2.73942,4.27208 -0.71986,0.31381 -1.32422,-2.12527 q -0.18964,-0.29466 -0.31512,-0.53571 -0.13405,-0.23732 -0.26327,-0.48694 -0.13778,-0.24588 -0.30809,-0.58977 l -0.0257,0.0112 q 0.0378,0.15689 0.10703,0.43266 0.0644,0.28808 0.13516,0.61417 0.0659,0.3384 0.10088,0.62911 l 0.23057,1.74538 -0.8484,0.36985 -1.10468,-1.36432 q -0.1892,-0.22347 -0.38852,-0.49352 -0.19557,-0.26148 -0.36281,-0.50473 -0.17206,-0.23094 -0.26018,-0.38629 l -0.0257,0.0112 q 0.12373,0.35399 0.21493,0.60999 0.0949,0.26456 0.17756,0.52429 0.0826,0.25973 0.17692,0.61636 l 0.63007,2.42788 -0.70271,0.30634 -1.24829,-4.92212 0.92553,-0.40347 1.11368,1.43178 q 0.23887,0.314 0.48631,0.62426 0.24744,0.31027 0.46543,0.62317 l 0.0257,-0.0112 q -0.0809,-0.37268 -0.13121,-0.76886 -0.0589,-0.39246 -0.11781,-0.78491 l -0.28243,-1.79416 z m -5.21759,2.07086 1.78342,4.75126 -0.76963,0.15601 -0.84949,-2.35557 q -0.12369,-0.32786 -0.19587,-0.58986 -0.0814,-0.26013 -0.15539,-0.53128 -0.0832,-0.2693 -0.17768,-0.64124 l -0.0275,0.006 q 0.004,0.16133 0.014,0.44549 0.003,0.29517 0.003,0.62885 -0.006,0.3447 -0.0332,0.63628 l -0.14028,1.75495 -0.90706,0.18387 -0.79427,-1.56551 q -0.13818,-0.25816 -0.27648,-0.56398 -0.13644,-0.29666 -0.24899,-0.56955 -0.11985,-0.26186 -0.17347,-0.43223 l -0.0275,0.006 q 0.0468,0.37206 0.0823,0.64148 0.0374,0.27859 0.0638,0.54986 0.0264,0.27128 0.0438,0.63975 l 0.10735,2.50601 -0.75131,0.15229 -0.18919,-5.07441 0.98953,-0.20058 0.78894,1.63336 q 0.16777,0.35708 0.3447,0.7123 0.17693,0.35523 0.32452,0.70686 l 0.0275,-0.006 q -9.9e-4,-0.38135 0.0328,-0.77929 0.0246,-0.39608 0.0493,-0.79217 l 0.0998,-1.81351 z m -6.85742,0.86555 1.66964,5.07418 -0.85951,-0.0309 -0.93947,-3.00859 q -0.092,-0.30266 -0.19236,-0.63368 -0.10968,-0.33136 -0.21769,-0.70943 l -0.028,-0.001 q -0.1349,0.36933 -0.26812,0.69195 -0.1429,0.33163 -0.24674,0.61789 l -1.12524,2.93429 -0.8782,-0.0316 2.04869,-4.94038 z m -7.84585,4.70744 q 0.23242,0.0711 0.35848,0.26617 0.11712,0.19228 0.0323,0.46939 -0.0903,0.295 -0.29226,0.37983 -0.21362,0.091 -0.44604,0.0199 -0.23242,-0.0712 -0.34954,-0.26343 -0.1288,-0.18608 -0.0385,-0.48107 0.0848,-0.27711 0.29845,-0.36815 0.20469,-0.0938 0.43711,-0.0226 z m 3.76137,-5.03729 -0.16419,0.53634 -1.74842,-0.38858 -1.05628,3.45051 1.52878,0.59509 -0.16966,0.55423 -2.36888,-0.72516 1.26152,-4.12095 -1.55906,-0.62391 0.16419,-0.53635 z m -6.58658,-2.67399 -1.21136,5.20264 -0.71818,-0.47322 0.76138,-3.0585 q 0.0787,-0.30639 0.16508,-0.64133 0.0785,-0.34009 0.18281,-0.71922 l -0.0234,-0.0154 q -0.30724,0.24539 -0.58875,0.45174 -0.29446,0.20902 -0.53198,0.39958 l -2.48658,1.92175 -0.7338,-0.48351 4.31829,-3.15545 z m -4.27526,-3.60455 -2.62304,4.65345 -0.55648,-0.65579 1.5893,-2.72183 q 0.16156,-0.27196 0.33846,-0.5692 0.17086,-0.30437 0.37735,-0.63898 l -0.0182,-0.0214 q -0.36375,0.14928 -0.69187,0.26832 -0.3413,0.11796 -0.62275,0.23418 l -2.92605,1.14651 -0.56858,-0.67004 5.03041,-1.81646 z m -2.57253,-3.44242 -4.20884,2.83563 -0.33006,-0.71255 2.09469,-1.3721 q 0.29028,-0.19628 0.52842,-0.32719 0.23422,-0.1394 0.48084,-0.27425 0.24269,-0.14332 0.58263,-0.32139 l -0.0118,-0.0255 q -0.15599,0.0413 -0.43012,0.11682 -0.28654,0.0709 -0.61095,0.14905 -0.33681,0.0736 -0.62666,0.11513 l -1.7397,0.2701 -0.389,-0.83979 1.33891,-1.13534 q 0.21912,-0.19422 0.48458,-0.39961 0.25698,-0.20146 0.49637,-0.37417 0.22698,-0.17725 0.38029,-0.26888 l -0.0118,-0.0254 q -0.3511,0.13173 -0.60496,0.22871 -0.26234,0.10092 -0.52013,0.18942 -0.25779,0.0885 -0.61219,0.19085 l -2.41296,0.68499 -0.3222,-0.69559 4.89253,-1.35962 0.42436,0.91613 -1.40615,1.14588 q -0.3085,0.24593 -0.61307,0.50035 -0.30457,0.25441 -0.61244,0.47944 l 0.0118,0.0255 q 0.37074,-0.0893 0.76569,-0.14862 0.39101,-0.0678 0.78203,-0.13558 l 1.78729,-0.32306 z m -8.28891,-6.01677 q 0.0437,0.2391 -0.0715,0.44073 -0.11688,0.19242 -0.40197,0.24453 -0.30347,0.0555 -0.47167,-0.0849 -0.17908,-0.14783 -0.22278,-0.38693 -0.0437,-0.23911 0.0732,-0.43153 0.10601,-0.19994 0.40949,-0.25541 0.28508,-0.0521 0.46416,0.0957 0.17739,0.13864 0.2211,0.37774 z m 6.20278,1.02358 -0.55177,0.10085 -0.45899,-1.73127 -3.54976,0.6488 0.1746,1.6312 -0.57017,0.10421 -0.44542,-2.43701 4.23948,-0.77486 -0.16293,-1.67135 0.55178,-0.10085 z m -0.73916,-7.07695 -5.10882,1.56044 0.0494,-0.85866 3.02805,-0.87472 q 0.30456,-0.0855 0.63766,-0.17873 0.33364,-0.10255 0.71394,-0.20243 l 0.002,-0.028 q -0.36636,-0.14279 -0.68605,-0.2829 -0.32848,-0.14998 -0.61245,-0.25994 l -2.90948,-1.18791 0.0504,-0.87733 4.8953,2.15419 z m 0.47515,-4.26856 -5.03715,-0.61817 0.21792,-0.75443 2.48126,0.33722 q 0.34788,0.0421 0.61353,0.0994 0.26824,0.0483 0.54287,0.10816 0.27723,0.0509 0.65065,0.13929 l 0.008,-0.0269 q -0.1449,-0.071 -0.40138,-0.19379 -0.26285,-0.13431 -0.55904,-0.28799 -0.30258,-0.16524 -0.54867,-0.32391 l -1.49073,-0.93661 0.25684,-0.88916 1.75535,0.0205 q 0.29279,-0.003 0.6279,0.016 0.32612,0.0164 0.62011,0.0429 0.2876,0.015 0.46344,0.0463 l 0.008,-0.0269 q -0.35147,-0.13072 -0.60674,-0.22392 -0.26426,-0.0958 -0.51693,-0.19798 -0.25268,-0.10218 -0.58739,-0.25724 l -2.27112,-1.06473 0.21274,-0.73647 4.58574,2.18093 -0.28019,0.97 -1.81304,-0.0566 q -0.39418,-0.0166 -0.79095,-0.0241 -0.39678,-0.008 -0.77679,-0.0395 l -0.008,0.0269 q 0.3385,0.17562 0.6756,0.38977 0.3397,0.20516 0.6794,0.41033 l 1.56139,0.92783 z m 2.3671,-6.4972 -5.29757,-0.6861 0.39918,-0.76182 3.11923,0.45234 q 0.31271,0.0478 0.6546,0.10026 0.34623,0.0442 0.73387,0.11012 l 0.013,-0.0248 q -0.27483,-0.28121 -0.50824,-0.54072 -0.23736,-0.272127 -0.45068,-0.489447 l -2.16032,-2.28238 0.40786,-0.77839 3.57067,3.981817 z m -1.30668,-8.882257 q -0.15045,0.19091 -0.37787,0.23784 -0.22164,0.0396 -0.44926,-0.1398 -0.2423,-0.19095 -0.24829,-0.40992 -0.008,-0.23209 0.14291,-0.423 0.15045,-0.1909 0.37209,-0.23049 0.22008,-0.0527 0.46238,0.13824 0.22762,0.17938 0.23516,0.41148 0.0133,0.22475 -0.13712,0.41565 z m 3.33433,5.32959 -0.44056,-0.34719 0.99508,-1.48923 -2.83424,-2.23357 -1.10808,1.20973 -0.45524,-0.35876 1.53341,-1.94578 3.38493,2.66755 1.14591,-1.22752 0.44056,0.34718 z m 3.739,-4.4548 -3.93892,-3.19999 0.58546,-0.52336 1.92289,1.60401 q 0.27235,0.2205 0.46697,0.41016 0.20159,0.18344 0.40245,0.38007 0.20782,0.1904 0.47721,0.4637 l 0.0209,-0.0187 q -0.085,-0.13718 -0.23708,-0.37742 -0.15132,-0.25345 -0.3206,-0.541 -0.16854,-0.30076 -0.29272,-0.56593 l -0.76528,-1.58552 0.69001,-0.616809 1.4762,0.950009 q 0.24964,0.15302 0.52346,0.34712 0.2676,0.18713 0.50256,0.36581 0.2357,0.16548 0.36802,0.28545 l 0.0209,-0.0187 q -0.22831,-0.29749 -0.39505,-0.51207 -0.17298,-0.22156 -0.33275,-0.44237 -0.15977,-0.22082 -0.36094,-0.53002 l -1.35834,-2.108677 0.57153,-0.510896 2.72617,4.284093 -0.75274,0.67289 -1.50587,-1.01127 q -0.32515,-0.22345 -0.65726,-0.44068 -0.33212,-0.21723 -0.63709,-0.44617 l -0.0209,0.0187 q 0.19346,0.32863 0.36527,0.68916 0.17878,0.3543 0.35756,0.70859 l 0.8298,1.61562 z m 5.37757,-4.357492 -4.36482,-3.079499 0.70862,-0.487417 2.54745,1.855997 q 0.25426,0.1882 0.53212,0.394209 0.28556,0.200711 0.59761,0.439934 l 0.0231,-0.01589 q -0.11179,-0.376972 -0.19709,-0.715431 -0.0829,-0.35146 -0.1701,-0.643216 l -0.84521,-3.026859 0.72403,-0.498013 1.29925,5.188109 z m 2.17998,-8.403288 q -0.20818,0.125457 -0.43752,0.08902 -0.22133,-0.04126 -0.37091,-0.289478 -0.15924,-0.264233 -0.0875,-0.471194 0.0749,-0.219793 0.28311,-0.345251 0.20819,-0.125457 0.42952,-0.0842 0.22451,0.02843 0.38375,0.292659 0.14958,0.248219 0.0747,0.468013 -0.0669,0.214968 -0.27511,0.340425 z m 1.2368,6.163815 -0.28952,-0.480424 1.45697,-1.041734 -1.86255,-3.090731 -1.46397,0.740331 -0.29917,-0.496438 2.12188,-1.278698 2.22445,3.691261 1.50564,-0.743618 0.28952,0.480425 z m 5.00143,-2.966062 -3.29713,-3.857982 0.67026,-0.409171 1.60204,1.924537 q 0.2281,0.266007 0.38532,0.487664 0.1652,0.216786 0.32729,0.446422 0.17007,0.224765 0.38575,0.542174 l 0.0239,-0.01461 q -0.0589,-0.150262 -0.1651,-0.413995 -0.10313,-0.276585 -0.21776,-0.589957 -0.11153,-0.326223 -0.18585,-0.609442 l -0.46674,-1.697547 0.78995,-0.482238 1.28063,1.200696 q 0.21794,0.195538 0.45227,0.435845 0.22945,0.232326 0.42833,0.450458 0.20199,0.205281 0.31049,0.347145 l 0.0239,-0.01461 q -0.1709,-0.333784 -0.29621,-0.574926 -0.13017,-0.24912 -0.24749,-0.495133 -0.11733,-0.246012 -0.25943,-0.586431 l -0.95571,-2.319096 0.65431,-0.399429 1.90872,4.705552 -0.86176,0.526078 -1.29877,-1.266293 q -0.27951,-0.27844 -0.56699,-0.552009 -0.28749,-0.273568 -0.54617,-0.553771 l -0.0239,0.01461 q 0.13101,0.35814 0.23498,0.743743 0.11194,0.380733 0.22388,0.761466 l 0.52478,1.738788 z m 2.90219,-8.873521 q -0.19791,0.14111 -0.42938,0.122439 -0.22385,-0.0241 -0.39209,-0.260067 -0.1791,-0.251193 -0.1235,-0.463063 0.0578,-0.224909 0.2557,-0.366019 0.19791,-0.14111 0.42176,-0.117011 0.22603,0.01106 0.40513,0.262252 0.16825,0.235968 0.11046,0.460877 -0.0502,0.219482 -0.24808,0.360592 z m 1.70758,6.050324 -0.32563,-0.456714 1.37246,-1.150794 -2.09494,-2.938188 -1.40264,0.850824 -0.33649,-0.471937 2.01715,-1.438237 2.50199,3.50908 1.44393,-0.85731 0.32564,0.456714 z m 2.01551,-9.063365 q -0.17664,0.166965 -0.40848,0.180275 -0.22503,0.0069 -0.42411,-0.203725 -0.21192,-0.224201 -0.18595,-0.441701 0.0263,-0.230716 0.20298,-0.397681 0.17664,-0.166965 0.40168,-0.173853 0.22541,-0.0201 0.43733,0.204097 0.19907,0.210613 0.17274,0.441329 -0.0195,0.224294 -0.19619,0.391259 z m 2.52273,5.758309 -0.38531,-0.407638 1.20132,-1.32846 -2.47878,-2.622468 -1.27243,1.035482 -0.39815,-0.421225 1.8004,-1.701759 2.96042,3.132014 1.31244,-1.04758 0.38531,0.407637 z m 4.11444,-4.113491 -4.5336,-2.2807 0.45959,-0.636748 2.22217,1.154257 q 0.3133,0.156956 0.54408,0.300463 0.23624,0.135926 0.47459,0.284904 0.24383,0.141397 0.56556,0.350559 l 0.0164,-0.02274 q -0.11244,-0.115754 -0.31249,-0.317794 -0.20216,-0.215092 -0.42918,-0.459649 -0.22912,-0.257609 -0.40729,-0.489971 l -1.08753,-1.38448 0.54166,-0.750454 1.6456,0.611286 q 0.27665,0.09592 0.58574,0.226768 0.3015,0.125381 0.56932,0.249509 0.26571,0.111076 0.42067,0.19987 l 0.0164,-0.02274 q -0.2868,-0.241593 -0.49569,-0.415421 -0.21647,-0.179299 -0.41988,-0.360707 -0.20342,-0.181409 -0.46622,-0.440271 l -1.779,-1.768265 0.44865,-0.621588 3.58158,3.59968 -0.59089,0.818676 -1.68773,-0.664745 q -0.36551,-0.14852 -0.73648,-0.289459 -0.37098,-0.140939 -0.71797,-0.299147 l -0.0164,0.02274 q 0.25944,0.279494 0.50458,0.594781 0.25061,0.307706 0.50122,0.615412 l 1.15701,1.400039 z m 3.13269,-4.656691 -4.89412,-1.342629 0.3251,-0.714826 2.40605,0.693743 q 0.33809,0.09214 0.59261,0.18736 0.2584,0.08671 0.52143,0.185798 0.26691,0.09058 0.62355,0.232241 l 0.0116,-0.02553 q -0.13305,-0.09132 -0.369,-0.249982 -0.24058,-0.171038 -0.51133,-0.366067 -0.27539,-0.20741 -0.49586,-0.400107 l -1.33902,-1.143034 0.38316,-0.842474 1.73379,0.27503 q 0.29013,0.03952 0.61894,0.106902 0.32029,0.06351 0.60732,0.132431 0.28239,0.05654 0.45182,0.113056 l 0.0116,-0.02553 q -0.32879,-0.180341 -0.56783,-0.309599 -0.24756,-0.133128 -0.48273,-0.270896 -0.23518,-0.137768 -0.54384,-0.339768 l -2.09255,-1.383041 0.31736,-0.697806 4.22069,2.823341 -0.41799,0.919063 -1.78563,-0.319143 q -0.3876,-0.07358 -0.77908,-0.138657 -0.39147,-0.06507 -0.76283,-0.151806 l -0.0116,0.02553 q 0.30943,0.22289 0.61189,0.48369 0.30633,0.25229 0.61266,0.504581 l 1.41021,1.144596 z m 2.14791,-5.185484 -5.0658,-0.304559 0.17071,-0.766503 2.4974,0.182683 q 0.34982,0.02044 0.61851,0.06113 0.27072,0.03156 0.54854,0.07428 0.27985,0.03359 0.65804,0.09867 l 0.006,-0.02738 q -0.14902,-0.06192 -0.41261,-0.168519 -0.27069,-0.117751 -0.57584,-0.252757 -0.31224,-0.146163 -0.5677,-0.289257 l -1.54595,-0.842348 0.2012,-0.903379 1.75324,-0.0884 q 0.29204,-0.02116 0.62768,-0.02303 0.32651,-0.0039 0.62158,0.0043 0.28798,-0.0029 0.46542,0.01746 l 0.006,-0.02738 q -0.3589,-0.108667 -0.61946,-0.185854 -0.26969,-0.07922 -0.52822,-0.165531 -0.25853,-0.08631 -0.60221,-0.220321 l -2.33278,-0.921811 0.16665,-0.748253 4.71218,1.892315 -0.21949,0.985504 -1.81306,0.05593 q -0.39445,0.0079 -0.79093,0.02498 -0.39648,0.01705 -0.77774,0.0088 l -0.006,0.02737 q 0.34874,0.154293 0.69848,0.347117 0.35177,0.1837 0.70355,0.3674 l 1.61592,0.829199 z m 1.03016,-6.836915 -5.02249,1.819209 0.005,-0.860055 2.97943,-1.028169 q 0.29981,-0.100936 0.62771,-0.211042 0.32797,-0.119454 0.70267,-0.238612 l 1.8e-4,-0.02804 q -0.37316,-0.123901 -0.69959,-0.247506 -0.33571,-0.133012 -0.62492,-0.228334 l -2.96633,-1.037832 0.006,-0.878752 4.9989,1.901463 z m -0.45356,-5.581027 -4.50621,2.868636 -0.18185,-0.840628 2.68427,-1.651933 q 0.27065,-0.163761 0.56674,-0.342589 0.29411,-0.187966 0.6339,-0.385814 l -0.006,-0.02741 q -0.39119,-0.03972 -0.73669,-0.08932 -0.35661,-0.05676 -0.65963,-0.08686 l -3.1211,-0.367402 -0.1858,-0.858903 5.29289,0.767995 z m -1.11885,-4.147859 -4.18655,2.86842 -0.33562,-0.709951 2.08391,-1.388416 q 0.28874,-0.198543 0.52585,-0.331315 0.23312,-0.141224 0.47868,-0.277991 0.24157,-0.145219 0.5801,-0.325936 l -0.012,-0.02536 q -0.15566,0.04257 -0.4292,0.120172 -0.28597,0.07315 -0.60976,0.153827 -0.33622,0.07622 -0.62574,0.12002 l -1.73753,0.283685 -0.39556,-0.836728 1.33001,-1.145768 q 0.21759,-0.195929 0.48144,-0.403385 0.2554,-0.20346 0.49343,-0.37803 0.22559,-0.179026 0.37818,-0.271843 l -0.012,-0.02536 q -0.35006,0.134463 -0.60315,0.233428 -0.26154,0.10296 -0.51863,0.193473 -0.25709,0.09051 -0.61068,0.195625 l -2.40754,0.703821 -0.32762,-0.693047 4.88176,-1.397808 0.43151,0.912794 -1.39716,1.156832 q -0.30657,0.248332 -0.60914,0.505115 -0.30257,0.256784 -0.60868,0.484217 l 0.012,0.02536 q 0.37004,-0.0922 0.76451,-0.154596 0.39047,-0.07084 0.78095,-0.141688 l 1.78471,-0.337008 z m -3.4151,-6.009207 -2.7645,4.570831 -0.5361,-0.672543 1.67201,-2.671811 q 0.16982,-0.266884 0.35576,-0.558561 0.1801,-0.298986 0.39676,-0.627109 l -0.0175,-0.02193 q -0.36817,0.138056 -0.69978,0.246976 -0.34475,0.107438 -0.62964,0.214979 l -2.95983,1.056245 -0.54776,-0.687164 5.08374,-1.66135 z m -7.9763,0.307092 q 0.1927,0.148154 0.24234,0.375001 0.0422,0.221148 -0.13442,0.450897 -0.18804,0.244571 -0.40691,0.253172 -0.23199,0.01031 -0.42468,-0.137841 -0.19269,-0.148154 -0.23493,-0.369302 -0.0553,-0.219435 0.13271,-0.464006 0.17664,-0.229749 0.40863,-0.240063 0.22457,-0.01601 0.41726,0.132142 z m 5.28934,-3.397825 -0.3419,0.444675 -1.50102,-0.977193 -2.19952,2.860744 1.2229,1.093536 -0.35329,0.459498 -1.96399,-1.510031 2.62689,-3.416588 -1.24114,-1.131152 0.34189,-0.444675 z m -5.96273,-3.88106 -0.29555,5.333631 -0.78906,-0.342209 0.22226,-3.144009 q 0.0247,-0.315372 0.052,-0.660194 0.0187,-0.348542 0.056,-0.739967 l -0.0257,-0.01116 q -0.26028,0.294714 -0.50197,0.546545 -0.25398,0.256687 -0.45506,0.48537 l -2.11772,2.321963 -0.80621,-0.349648 3.70909,-3.853205 z m -5.33211,-1.698954 1.04813,5.237976 -0.84958,-0.133935 -0.57132,-3.099641 q -0.055,-0.31152 -0.11486,-0.652199 -0.0691,-0.342135 -0.13091,-0.730443 l -0.0277,-0.0044 q -0.17829,0.350457 -0.34929,0.654741 -0.18169,0.312063 -0.31917,0.583776 l -1.46951,2.777907 -0.86805,-0.136846 2.62723,-4.658563 z m -4.27578,-0.414794 1.27984,4.910913 -0.78168,0.07515 -0.60002,-2.431118 q -0.0889,-0.338943 -0.13349,-0.607018 -0.0539,-0.267182 -0.0993,-0.544563 -0.0548,-0.276487 -0.11005,-0.656232 l -0.0279,0.0027 q -0.0127,0.160881 -0.0324,0.444526 -0.0281,0.293845 -0.0619,0.625807 -0.0422,0.342162 -0.0992,0.629386 l -0.32196,1.730855 -0.92127,0.08857 -0.62722,-1.639598 q -0.11059,-0.271118 -0.21635,-0.589661 -0.10486,-0.309236 -0.18843,-0.592345 -0.092,-0.272908 -0.12759,-0.447927 l -0.0279,0.0027 q 0.008,0.374912 0.0152,0.646567 0.008,0.28096 0.006,0.55351 -0.002,0.272549 -0.0229,0.64084 l -0.15375,2.503587 -0.76307,0.07336 0.33935,-5.066587 1.00502,-0.09663 0.61487,1.706527 q 0.12974,0.372587 0.26879,0.744279 0.13904,0.371692 0.24927,0.736763 l 0.0279,-0.0027 q 0.0387,-0.379386 0.11365,-0.771656 0.0657,-0.391375 0.13136,-0.78275 l 0.28778,-1.793311 z m -6.80903,1.18657 3.34379,4.165819 -0.81573,0.272601 -1.93532,-2.487721 q -0.19235,-0.251138 -0.40245,-0.525912 -0.21897,-0.271812 -0.45276,-0.587957 l -0.0266,0.0089 q 0.003,0.393184 -0.008,0.742036 -0.0175,0.36068 -0.0143,0.665176 l -0.0242,3.142556 -0.83346,0.278527 0.18512,-5.345115 z m -5.13996,2.223253 4.11728,3.403383 -0.74373,0.43196 -2.39849,-2.044855 q -0.23917,-0.207041 -0.50051,-0.433639 -0.26943,-0.221903 -0.56233,-0.484226 l -0.0242,0.01409 q 0.0827,0.384399 0.14195,0.728378 0.0559,0.356758 0.12057,0.654315 l 0.61192,3.082498 -0.7599,0.44135 -0.89983,-5.27208 z m -4.62075,3.168099 4.65223,2.625208 -0.65605,0.556172 -2.72109,-1.590562 q -0.27189,-0.161692 -0.56905,-0.338731 -0.30428,-0.170994 -0.6388,-0.377642 l -0.0214,0.01814 q 0.14911,0.363827 0.26799,0.692 0.1178,0.341349 0.2339,0.622861 l 1.14514,2.926583 -0.67031,0.568262 -1.81411,-5.031255 z m -4.03025,3.894042 4.99815,1.88506 -0.56356,0.64971 -2.93182,-1.157005 q -0.29336,-0.118338 -0.61405,-0.247991 -0.3268,-0.122591 -0.68892,-0.27581 l -0.0184,0.02119 q 0.20284,0.336833 0.37038,0.643038 0.16848,0.319393 0.32615,0.579909 l 1.57804,2.717723 -0.57581,0.663835 -2.56014,-4.695764 z m -3.4345,4.43013 5.19769,1.23248 -0.47614,0.716256 -3.05539,-0.773798 q -0.30606,-0.07997 -0.64065,-0.167684 -0.33977,-0.07993 -0.71847,-0.185731 l -0.0155,0.02336 q 0.24413,0.308224 0.44934,0.590571 0.20782,0.295308 0.39742,0.533598 l 1.91164,2.494368 -0.48649,0.731827 -3.13789,-4.331065 z m 2.06163,8.091717 q 0.11337,-0.215006 0.32853,-0.302361 0.21079,-0.07909 0.46715,0.05608 0.27289,0.143891 0.31845,0.358146 0.0495,0.226885 -0.0639,0.441891 -0.11337,0.215006 -0.32416,0.294092 -0.20689,0.09172 -0.47978,-0.05218 -0.25636,-0.13517 -0.30582,-0.362055 -0.0538,-0.218615 0.0595,-0.433621 z m -4.24478,-4.637252 0.49617,0.261619 -0.70878,1.644874 3.19201,1.683083 0.87056,-1.390473 0.51271,0.27034 -1.15549,2.191409 -3.81222,-2.010107 -0.90454,1.41483 -0.49617,-0.261619 z m -2.63259,5.184822 4.91756,1.254053 -0.31214,0.72058 -2.41819,-0.650193 q -0.33969,-0.08602 -0.59589,-0.176631 -0.25992,-0.08203 -0.5247,-0.176353 -0.2685,-0.08575 -0.62765,-0.220947 l -0.0111,0.02574 q 0.13468,0.08891 0.37345,0.24328 0.24363,0.166667 0.51786,0.356776 0.27909,0.202404 0.503,0.391089 l 1.35944,1.118674 -0.36789,0.849254 -1.73847,-0.243684 q -0.2908,-0.03428 -0.62077,-0.09571 -0.32139,-0.05772 -0.60961,-0.121445 -0.28337,-0.05143 -0.45379,-0.10488 l -0.0111,0.02574 q 0.33198,0.174376 0.57332,0.299297 0.24992,0.128638 0.48754,0.262138 0.23763,0.133499 0.54988,0.329894 l 2.11719,1.345037 -0.30472,0.703422 -4.27097,-2.746682 0.40133,-0.926459 1.7911,0.286853 q 0.38887,0.06657 0.78146,0.124569 0.39258,0.058 0.76544,0.13801 l 0.0112,-0.02573 q -0.3134,-0.217267 -0.62052,-0.472564 -0.31084,-0.246719 -0.62167,-0.493438 l -1.43064,-1.11895 z m -2.62675,6.408884 5.34181,0.0071 -0.2991,0.806389 -3.15143,-0.05215 q -0.31624,-0.0076 -0.66203,-0.01623 -0.34904,1.59e-4 -0.74191,-0.01594 l -0.01,0.0263 q 0.30834,0.24399 0.57286,0.471724 0.27003,0.23975 0.50923,0.428184 l 2.43294,1.989239 -0.3056,0.82392 -4.04788,-3.495598 z m -1.45112,4.038175 5.00973,0.810969 -0.24671,0.745523 -2.46649,-0.432175 q -0.346,-0.05542 -0.60926,-0.122841 -0.2662,-0.05855 -0.53833,-0.128908 -0.27507,-0.06148 -0.64483,-0.164152 l -0.009,0.02663 q 0.14207,0.07655 0.39364,0.209042 0.25751,0.144299 0.54759,0.309222 0.29601,0.176735 0.53584,0.344723 l 1.4537,0.993114 -0.29077,0.878652 -1.75327,-0.08784 q -0.29269,-0.0082 -0.62682,-0.04003 -0.32526,-0.02886 -0.61801,-0.06665 -0.28682,-0.02598 -0.46133,-0.06404 l -0.009,0.02662 q 0.3462,0.144107 0.59771,0.247031 0.26039,0.105861 0.50896,0.21766 0.24857,0.1118 0.57708,0.279595 l 2.22859,1.151072 -0.24083,0.727772 -4.49869,-2.355266 0.3172,-0.958529 1.80953,0.126146 q 0.39325,0.03167 0.78945,0.05446 0.39619,0.02279 0.7747,0.06927 l 0.009,-0.02662 q -0.33152,-0.188483 -0.66016,-0.415404 -0.33158,-0.218046 -0.66316,-0.436092 l -1.52463,-0.987048 z m 3.36219,8.902163 q 0.0713,-0.232379 0.26636,-0.358332 0.19235,-0.117016 0.46942,-0.03203 0.29494,0.09047 0.37966,0.292463 0.0909,0.213677 0.0196,0.446055 -0.0713,0.232379 -0.26362,0.349395 -0.18615,0.128694 -0.4811,0.03823 -0.27706,-0.08498 -0.36798,-0.298659 -0.0937,-0.204739 -0.0224,-0.437118 z m -5.03524,-3.764129 0.53626,0.164482 -0.38954,1.74821 3.44993,1.058167 0.59593,-1.528449 0.55414,0.169964 -0.72647,2.368475 -4.12025,-1.263769 -0.62477,1.558717 -0.53626,-0.164482 z m -2.06407,6.82788 5.33059,-0.346148 -0.24512,0.824402 -3.14798,0.156347 q -0.31606,0.01331 -0.66166,0.02759 -0.34827,0.02324 -0.74134,0.03315 l -0.008,0.02688 q 0.3238,0.223067 0.60279,0.432812 0.28529,0.22137 0.53643,0.393575 l 2.55915,1.82401 -0.25045,0.842324 -4.27016,-3.220287 z m -1.59991,5.376201 5.33216,-0.321113 -0.249,0.823242 -3.14867,0.141562 q -0.31611,0.01183 -0.66178,0.02448 -0.34838,0.0216 -0.74149,0.02967 l -0.008,0.02684 q 0.32275,0.224585 0.60075,0.435637 0.28425,0.222708 0.53458,0.39609 l 2.55056,1.836008 -0.25441,0.841138 -4.25499,-3.240303 z m -1.24973,4.105115 5.01587,0.772044 -0.24091,0.747416 -2.46977,-0.413009 q -0.34643,-0.05273 -0.6102,-0.118107 -0.26664,-0.05648 -0.53931,-0.124724 -0.27554,-0.05935 -0.64609,-0.15914 l -0.009,0.02669 q 0.14266,0.07545 0.39525,0.205979 0.25863,0.142295 0.54997,0.30496 0.29738,0.174431 0.5385,0.340552 l 1.46137,0.981804 -0.28393,0.88088 -1.75391,-0.0742 q -0.29274,-0.006 -0.62711,-0.0352 -0.32547,-0.0263 -0.61851,-0.0619 -0.28701,-0.0238 -0.46181,-0.0604 l -0.009,0.0267 q 0.34731,0.14141 0.59961,0.24238 0.2612,0.10384 0.51063,0.2137 0.24943,0.10987 0.57924,0.27511 l 2.23746,1.13373 -0.23518,0.72962 -4.51684,-2.32026 0.30975,-0.96096 1.81045,0.11209 q 0.39349,0.0286 0.78985,0.0483 0.39636,0.0197 0.77521,0.0632 l 0.009,-0.0267 q -0.33297,-0.1859 -0.66336,-0.41027 -0.33327,-0.21546 -0.66653,-0.43093 l -1.53225,-0.975179 z m -2.18454,6.573635 5.34153,-0.0548 -0.28974,0.8098 -3.15181,-0.0156 q -0.31631,-0.004 -0.66218,-0.009 -0.34902,0.004 -0.74205,-0.007 l -0.009,0.0264 q 0.31115,0.2404 0.57829,0.46505 0.27279,0.23661 0.51416,0.42226 l 2.45582,1.96091 -0.29603,0.82741 -4.08811,-3.44846 z m 3.27014,8.047977 q 0.0923,-0.22488 0.29805,-0.33244 0.20225,-0.0989 0.47037,0.0111 0.28542,0.11708 0.35129,0.32599 0.071,0.2211 -0.0213,0.44598 -0.0923,0.22488 -0.2945,0.32379 -0.19715,0.11111 -0.48257,-0.006 -0.26813,-0.10999 -0.3391,-0.33109 -0.0745,-0.21246 0.0177,-0.43733 z m -4.66946,-4.209327 0.51895,0.21289 -0.54796,1.705197 3.33855,1.36959 0.73337,-1.467467 0.53624,0.219977 -0.94026,2.29202 -3.98724,-1.6357 -0.76485,1.49497 -0.51895,-0.21289 z m 2.24908,9.656577 q 0.10547,-0.21899 0.31731,-0.31411 0.20778,-0.0867 0.46888,0.0391 0.27795,0.13387 0.33126,0.34633 0.0577,0.22493 -0.0478,0.44392 -0.10548,0.21898 -0.31326,0.30568 -0.20342,0.0992 -0.48136,-0.0347 -0.2611,-0.12576 -0.31878,-0.35069 -0.0617,-0.21652 0.0437,-0.4355 z m -4.41057,-4.47987 0.50535,0.24341 -0.64851,1.66955 3.2511,1.56593 0.81943,-1.42121 0.52219,0.25152 -1.07505,2.23197 -3.88278,-1.87018 -0.85251,1.44678 -0.50535,-0.24341 z m -2.576971,5.21336 4.743941,1.8028 -0.39172,0.6806 -2.32902,-0.91982 q -0.32777,-0.12393 -0.57206,-0.24296 -0.24896,-0.11094 -0.50136,-0.23463 -0.25706,-0.1156 -0.59859,-0.2906 l -0.014,0.0243 q 0.12375,0.10359 0.34351,0.284 0.22319,0.19318 0.47413,0.41312 0.25438,0.2327 0.45548,0.44553 l 1.22404,1.2654 -0.46168,0.80214 -1.69971,-0.43896 q -0.28504,-0.067 -0.605936,-0.16538 -0.312789,-0.0937 -0.591944,-0.18969 -0.275716,-0.0832 -0.438988,-0.15559 l -0.01399,0.0243 q 0.310105,0.21084 0.535748,0.36229 0.233745,0.15611 0.454724,0.31565 0.22098,0.15955 0.508996,0.39004 l 1.95127,1.57611 -0.3824,0.66439 -3.932507,-3.21261 0.503651,-0.87506 1.747096,0.48781 q 0.37883,0.11018 0.76233,0.21226 0.3835,0.10207 0.7449,0.22379 l 0.014,-0.0243 q -0.28679,-0.25136 -0.56303,-0.53979 -0.2809,-0.28032 -0.5618,-0.56065 l -1.294743,-1.27374 z m -2.86561,4.82261 4.576051,2.19427 -0.44742,0.64535 -2.243672,-1.11188 q -0.316222,-0.15098 -0.549676,-0.29009 -0.238781,-0.13141 -0.479917,-0.27584 -0.246464,-0.13675 -0.572111,-0.33977 l -0.01598,0.023 q 0.114629,0.1136 0.31848,0.31181 0.206208,0.21121 0.437821,0.45142 0.233969,0.25321 0.416514,0.48215 l 1.113611,1.3636 -0.52732,0.76059 -1.656909,-0.57994 q -0.278422,-0.0907 -0.589931,-0.21562 -0.303827,-0.11963 -0.573952,-0.23866 -0.267769,-0.10601 -0.424395,-0.19185 l -0.01598,0.023 q 0.291333,0.23611 0.503481,0.40594 0.219831,0.17516 0.426653,0.35267 0.206821,0.17752 0.474491,0.43135 l 1.81223,1.73419 -0.436769,0.62999 -3.649251,-3.53107 0.575258,-0.82974 1.700035,0.6326 q 0.36826,0.14155 0.741845,0.27543 0.373586,0.13387 0.723509,0.28547 l 0.01598,-0.0231 q -0.2647,-0.27452 -0.515777,-0.5851 -0.256404,-0.30289 -0.512808,-0.60579 l -1.183369,-1.37783 z m -3.262089,4.56382 4.373341,2.57467 -0.500573,0.60506 -2.141225,-1.29827 q -0.302269,-0.17727 -0.523076,-0.33568 -0.226767,-0.15121 -0.454778,-0.31558 -0.23397,-0.15717 -0.541214,-0.38709 l -0.01788,0.0216 q 0.104575,0.12292 0.290871,0.33771 0.18754,0.22795 0.397933,0.48695 0.211637,0.27215 0.374096,0.51576 l 0.993878,1.45317 -0.589962,0.71311 -1.601717,-0.71847 q -0.269725,-0.11394 -0.569507,-0.26489 -0.292578,-0.14499 -0.551629,-0.28651 -0.257806,-0.12835 -0.406583,-0.22717 l -0.01788,0.0216 q 0.270246,0.25998 0.467216,0.4472 0.204174,0.19318 0.395186,0.38761 0.191011,0.19442 0.436176,0.47005 l 1.658528,1.88172 -0.488655,0.59065 -3.336438,-3.828 0.643595,-0.77794 1.64022,0.77459 q 0.354918,0.17229 0.715796,0.33739 0.360877,0.16509 0.696674,0.34584 l 0.01788,-0.0216 q -0.24045,-0.296 -0.464265,-0.62676 -0.229775,-0.32356 -0.45955,-0.64712 l -1.062177,-1.47329 z m -0.76509,9.78736 q 0.170512,-0.17322 0.401715,-0.19487 0.224645,-0.015 0.431178,0.18831 0.219858,0.21642 0.201747,0.43471 -0.01801,0.23152 -0.18852,0.40474 -0.170512,0.17322 -0.395157,0.18821 -0.22454,0.0282 -0.444398,-0.1882 -0.206533,-0.20331 -0.188526,-0.43482 0.01145,-0.22486 0.181961,-0.39808 z m -2.728573,-5.66367 0.399741,0.39349 -1.152672,1.37089 2.571672,2.53144 1.234288,-1.08065 0.413066,0.4066 -1.737912,1.76553 -3.071349,-3.02331 -1.273845,1.09419 -0.399742,-0.39349 z m -5.142603,4.9396 4.655206,2.61993 -0.655415,0.55691 -2.722888,-1.58747 q -0.272074,-0.16138 -0.569433,-0.33809 -0.304483,-0.17064 -0.639234,-0.37691 l -0.02137,0.0182 q 0.149524,0.36366 0.268781,0.69169 0.118187,0.34122 0.234602,0.6226 l 1.148466,2.92528 -0.669663,0.56902 -1.819823,-5.02919 z m -3.325352,2.71343 3.535513,3.64077 -0.642917,0.45092 -1.721037,-1.8189 q -0.244541,-0.25098 -0.415523,-0.4622 -0.178636,-0.20586 -0.354985,-0.42473 -0.184004,-0.21351 -0.419403,-0.51658 l -0.02296,0.0161 q 0.0683,0.14622 0.191069,0.40267 0.120488,0.26948 0.254794,0.57494 0.132021,0.31848 0.224179,0.5964 l 0.573625,1.66448 -0.757724,0.53144 -1.35431,-1.11693 q -0.229926,-0.1813 -0.479039,-0.40624 -0.243745,-0.21728 -0.456078,-0.42234 -0.214618,-0.19204 -0.331919,-0.32673 l -0.02296,0.0161 q 0.191762,0.32225 0.332129,0.55495 0.145734,0.24035 0.278447,0.47841 0.132713,0.23807 0.296145,0.56877 l 1.101081,2.25371 -0.627609,0.44018 -2.203756,-4.57481 0.826608,-0.57975 1.376579,1.18124 q 0.296629,0.26012 0.600912,0.51488 0.304282,0.25476 0.580235,0.51796 l 0.02296,-0.0161 q -0.153493,-0.3491 -0.281739,-0.72732 -0.135899,-0.37285 -0.271799,-0.74571 l -0.634163,-1.70194 z m -3.401311,9.2427 q 0.211622,-0.11956 0.439848,-0.0767 0.220087,0.0475 0.362646,0.29977 0.151757,0.2686 0.07423,0.47347 -0.08107,0.2176 -0.292691,0.33717 -0.211622,0.11956 -0.431709,0.0721 -0.223628,-0.0347 -0.375384,-0.30331 -0.14256,-0.25232 -0.06149,-0.46993 0.07293,-0.213 0.28455,-0.33257 z m -1.063342,-6.19609 0.275921,0.48836 -1.48563,1.00044 1.775093,3.14178 1.484164,-0.69896 0.285119,0.50464 -2.156921,1.21865 -2.119994,-3.75223 -1.52592,0.70107 -0.275921,-0.48836 z m -4.497595,8.9686 q 0.222759,-0.0973 0.445394,-0.0312 0.214067,0.0697 0.330027,0.33535 0.123441,0.28273 0.02533,0.47858 -0.102934,0.20815 -0.325692,0.30541 -0.222758,0.0973 -0.436826,0.0275 -0.218894,-0.0574 -0.342335,-0.34017 -0.11596,-0.26559 -0.01303,-0.47375 0.09437,-0.20441 0.317125,-0.30167 z m -0.422975,-6.27243 0.224438,0.51406 -1.580306,0.84298 1.443888,3.3071 1.547961,-0.54324 0.23192,0.5312 -2.270419,0.99127 -1.724436,-3.94968 -1.589713,0.54106 -0.224439,-0.51405 z m -5.36892,2.23558 2.26557,4.54118 -0.749353,0.23482 -1.088715,-2.25501 q -0.156958,-0.3133 -0.255869,-0.56641 -0.107831,-0.25032 -0.209537,-0.51236 -0.110627,-0.25924 -0.243083,-0.6194 l -0.02676,0.008 q 0.02076,0.16004 0.06002,0.44164 0.03313,0.29332 0.06853,0.62512 0.02927,0.34351 0.03285,0.6363 l 0.0421,1.76004 -0.883165,0.27675 -0.952025,-1.4749 q -0.164152,-0.24247 -0.333361,-0.53233 -0.166413,-0.28095 -0.306598,-0.54072 -0.14631,-0.24806 -0.217266,-0.41197 l -0.02676,0.008 q 0.08506,0.36522 0.148283,0.62952 0.06602,0.27321 0.120329,0.54031 0.05431,0.26709 0.109805,0.63177 l 0.366125,2.48144 -0.731511,0.22923 -0.71334,-5.02758 0.963454,-0.30191 0.953751,1.54294 q 0.203823,0.3378 0.416567,0.6728 0.212744,0.33501 0.39593,0.66948 l 0.02676,-0.008 q -0.04045,-0.3792 -0.04802,-0.7785 -0.01649,-0.3965 -0.03297,-0.79301 l -0.08843,-1.8141 z m -6.138894,7.75104 q 0.238619,-0.0463 0.44147,0.0668 0.193674,0.11481 0.248846,0.39931 0.05873,0.30287 -0.07977,0.47257 -0.145899,0.18065 -0.384517,0.22693 -0.238619,0.0463 -0.432292,-0.0685 -0.201072,-0.10384 -0.259804,-0.40671 -0.05517,-0.2845 0.09073,-0.46516 0.136721,-0.17888 0.375339,-0.22515 z m 0.956735,-6.21345 0.106786,0.55066 -1.726232,0.4776 0.686987,3.54256 1.629223,-0.19215 0.110345,0.56902 -2.432073,0.47163 -0.820469,-4.23089 -1.669493,0.18092 -0.106785,-0.55066 z m -5.728944,1.00163 1.192793,4.93277 -0.782886,0.0613 -0.556926,-2.44135 q -0.08293,-0.34046 -0.122739,-0.60928 -0.04913,-0.26809 -0.08967,-0.54624 -0.04986,-0.27741 -0.09843,-0.65807 l -0.02796,0.002 q -0.01555,0.16063 -0.04025,0.44388 -0.03329,0.2933 -0.07298,0.62462 -0.04828,0.34136 -0.110263,0.62753 l -0.352517,1.72489 -0.922687,0.0723 -0.598129,-1.65043 q -0.10578,-0.27304 -0.20589,-0.5934 -0.09938,-0.31104 -0.177929,-0.59558 -0.08714,-0.2745 -0.11965,-0.45012 l -0.02796,0.002 q 0.0012,0.375 0.0038,0.64674 0.0033,0.28106 -0.0035,0.55353 -0.0068,0.27247 -0.03424,0.64034 l -0.197999,2.50047 -0.764245,0.0599 0.428898,-5.05979 1.006568,-0.0788 0.584598,1.71713 q 0.12313,0.37483 0.25558,0.74892 0.13245,0.37409 0.236209,0.74105 l 0.02796,-0.002 q 0.04536,-0.37865 0.127274,-0.76953 0.07259,-0.39015 0.145183,-0.7803 l 0.319448,-1.78795 z m -6.917783,0.2808 1.661992,5.07668 -0.859468,-0.0322 -0.934931,-3.01 q -0.09155,-0.3028 -0.1914,-0.63397 -0.109188,-0.33153 -0.216625,-0.70976 l -0.02803,-0.001 q -0.135456,0.36913 -0.269162,0.69155 -0.143397,0.33141 -0.247675,0.61751 l -1.129662,2.93259 -0.878153,-0.0329 2.056143,-4.93729 z m -7.10299,5.27321 q 0.240068,0.038 0.392092,0.21358 0.142791,0.17407 0.09743,0.46031 -0.04828,0.3047 -0.236433,0.41686 -0.198845,0.11994 -0.438914,0.0819 -0.240068,-0.038 -0.382858,-0.21211 -0.153487,-0.1663 -0.105203,-0.471 0.04536,-0.28624 0.244204,-0.40617 0.189612,-0.1214 0.42968,-0.0834 z m 3.022169,-5.5126 -0.08779,0.554 -1.785526,-0.14096 -0.564784,3.56409 1.596823,0.37609 -0.09072,0.57247 -2.446851,-0.38774 0.674522,-4.2566 -1.630831,-0.4004 0.08779,-0.55401 z m -6.991332,-1.39107 0.382143,5.32813 -0.826039,-0.23955 -0.177604,-3.14685 q -0.01544,-0.31596 -0.03205,-0.66146 -0.02559,-0.3481 -0.03816,-0.7411 l -0.02694,-0.008 q -0.220875,0.3253 -0.428731,0.60571 -0.219438,0.28678 -0.389943,0.53908 l -1.806684,2.5714 -0.843997,-0.24475 3.191374,-4.29182 z m -5.295409,-1.8394 -0.30533,5.33308 -0.788432,-0.34365 0.228027,-3.1436 q 0.02526,-0.31533 0.05316,-0.6601 0.01933,-0.3485 0.05734,-0.73986 l -0.02571,-0.0112 q -0.260825,0.29424 -0.502973,0.54563 -0.254453,0.25622 -0.455949,0.48453 l -2.121976,2.31807 -0.805571,-0.35112 3.716154,-3.8464 z m -8.574616,2.25917 q 0.208365,0.12516 0.283611,0.34485 0.06723,0.21487 -0.08199,0.4633 -0.158853,0.26446 -0.375312,0.29803 -0.229286,0.0368 -0.43765,-0.0884 -0.208364,-0.12516 -0.275596,-0.34003 -0.08006,-0.21167 0.07879,-0.47613 0.149226,-0.24844 0.378512,-0.2852 0.221272,-0.0416 0.429636,0.0836 z m 4.866285,-3.98014 -0.288825,0.48084 -1.602881,-0.79922 -1.858109,3.09341 1.339872,0.94659 -0.298452,0.49687 -2.123712,-1.27565 2.21914,-3.69446 -1.362301,-0.98187 0.288826,-0.48084 z m -10.112236,0.32616 q 0.189888,0.15173 0.235279,0.37947 0.03809,0.2219 -0.142823,0.4483 -0.192583,0.24102 -0.411581,0.24552 -0.232138,0.006 -0.422026,-0.14576 -0.189888,-0.15173 -0.227976,-0.37363 -0.05123,-0.22043 0.141356,-0.46144 0.180911,-0.22641 0.413049,-0.23238 0.224834,-0.0118 0.414722,0.13992 z m 5.351954,-3.29831 -0.35015,0.4382 -1.482485,-1.00509 -2.252633,2.81911 1.202228,1.11621 -0.361822,0.45282 -1.935399,-1.5465 2.690321,-3.36686 -1.21977,-1.15417 0.350151,-0.4382 z m -5.368871,-4.68756 -2.367436,4.78855 -0.591142,-0.62472 1.439709,-2.80382 q 0.146614,-0.28031 0.307174,-0.58669 0.154135,-0.31316 0.342222,-0.65846 l -0.01928,-0.0204 q -0.355148,0.16874 -0.676344,0.30536 -0.334413,0.13625 -0.609171,0.26753 l -2.859734,1.30314 -0.603992,-0.6383 4.924766,-2.08596 z m -2.850008,-3.21049 -3.62802,3.54859 -0.453229,-0.64129 1.812688,-1.72757 q 0.2501,-0.24545 0.460706,-0.41719 0.205211,-0.17937 0.423452,-0.35651 0.212846,-0.18477 0.515065,-0.42126 l -0.01619,-0.0229 q -0.145971,0.0688 -0.401981,0.19252 -0.269041,0.12145 -0.574014,0.25686 -0.318003,0.13317 -0.595595,0.22632 l -1.662398,0.57962 -0.534163,-0.75581 1.112047,-1.35832 q 0.180472,-0.23058 0.404511,-0.4805 0.216405,-0.24453 0.420698,-0.4576 0.191263,-0.2153 0.325526,-0.33309 l -0.01619,-0.0229 q -0.321563,0.19292 -0.553752,0.33412 -0.239823,0.1466 -0.477407,0.28017 -0.237585,0.13357 -0.5677,0.29819 l -2.2497319,1.10919 -0.4424383,-0.62603 4.5668522,-2.2202 0.582724,0.82451 -1.17628,1.38082 q -0.259055,0.29757 -0.512714,0.60277 -0.253659,0.30519 -0.51587,0.58209 l 0.01619,0.0229 q 0.348541,-0.15474 0.726298,-0.28435 0.372362,-0.13724 0.744724,-0.27448 l 1.699652,-0.64029 z m -3.126606,-4.65864 -4.0893565,3.00536 -0.3589238,-0.69845 2.0368253,-1.45661 q 0.282017,-0.20798 0.514605,-0.34853 0.228316,-0.14886 0.469219,-0.29368 0.236631,-0.15313 0.568999,-0.34495 l -0.01282,-0.0249 q -0.154173,0.0477 -0.424987,0.13431 -0.283402,0.0826 -0.604336,0.17391 -0.333523,0.0873 -0.621428,0.14066 l -1.7272015,0.34102 -0.4230173,-0.82319 1.2913654,-1.18914 q 0.2109931,-0.20302 0.467834,-0.41909 0.2485264,-0.2118 0.4806524,-0.39415 0.219539,-0.18639 0.368978,-0.28421 l -0.01282,-0.0249 q -0.345418,0.14597 -0.595098,0.25325 -0.2579947,0.11156 -0.5119477,0.21053 -0.253953,0.099 -0.6038744,0.21572 l -2.3829304,0.78309 -0.350378,-0.68183 4.8328425,-1.55856 0.461473,0.89802 -1.358116,1.20243 q -0.2981849,0.25834 -0.5920969,0.52499 -0.2939121,0.26665 -0.5923279,0.50409 l 0.012819,0.0249 q 0.3667822,-0.10439 0.7589711,-0.1798 0.3879157,-0.0837 0.7758317,-0.16745 l 1.772588,-0.39587 z m -2.445277,-5.04978 -4.4692335,2.40437 -0.2577902,-0.74176 2.2204009,-1.15766 q 0.3083158,-0.16653 0.5582632,-0.27319 0.2468784,-0.11549 0.5056563,-0.22522 0.255709,-0.11856 0.6116227,-0.26205 l -0.00921,-0.0265 q -0.1593258,0.0257 -0.4395862,0.0736 -0.2921598,0.0422 -0.6227107,0.0877 -0.3424504,0.0398 -0.6349865,0.0524 l -1.7579094,0.0963 -0.3038241,-0.87422 1.4448785,-0.99701 q 0.2372954,-0.17154 0.5218123,-0.3496 0.2756864,-0.17498 0.5310191,-0.3231 0.2434333,-0.15388 0.4050754,-0.22986 l -0.00921,-0.0265 q -0.3624278,0.0963 -0.6246509,0.16761 -0.2710536,0.0744 -0.5363456,0.13691 -0.265292,0.0625 -0.6280961,0.12921 l -2.4689842,0.44239 -0.2516523,-0.72411 5.0032273,-0.86786 0.3314445,0.9537 -1.5128301,1.00082 q -0.3313622,0.21414 -0.6596555,0.4371 -0.3282933,0.22296 -0.6569629,0.41636 l 0.00921,0.0265 q 0.3777725,-0.0521 0.7766512,-0.072 0.3958097,-0.0287 0.7916195,-0.0574 l 1.8105163,-0.14426 z m -7.8893198,-6.09348 q 0.046417,0.23859 -0.066487,0.44151 -0.1146898,0.19374 -0.3991632,0.24908 -0.3028264,0.0589 -0.4726101,-0.0795 -0.1807454,-0.14579 -0.2271629,-0.38438 -0.046417,-0.23859 0.068272,-0.43234 0.1037279,-0.20113 0.4065545,-0.26004 0.2844733,-0.0554 0.4652187,0.0904 0.1789602,0.13661 0.2253777,0.37521 z m 6.2140228,0.95299 -0.5505936,0.10711 -0.4786384,-1.72594 -3.5421522,0.68912 0.1931301,1.62911 -0.5689467,0.11069 -0.4731013,-2.43179 4.2303942,-0.82302 -0.1819182,-1.66938 0.5505936,-0.10712 z m -1.0415811,-7.05029 -4.9115793,2.10032 -0.043191,-0.85898 2.9165274,-1.19502 q 0.293614,-0.11772 0.614769,-0.2462 0.3206855,-0.13781 0.6880551,-0.27796 l -0.00141,-0.028 Q 6.589364,101.89243 6.2564725,101.78748 5.9137747,101.67366 5.6196388,101.59485 L 2.5993604,100.72642 2.555231,99.848763 7.6536561,101.4645 Z M 1.9023901,95.769123 q -0.021804,0.24208 -0.1867116,0.40557 -0.1640696,0.15418 -0.4527082,0.12819 -0.30726035,-0.0277 -0.43182935,-0.20785 -0.1330414,-0.19033 -0.1112378,-0.43241 0.021804,-0.24209 0.1858731,-0.39627 0.15559715,-0.16432 0.46285755,-0.13665 0.2886385,0.026 0.42168,0.21632 0.1338799,0.18102 0.1120763,0.4231 z m 5.7034514,2.64441 -0.5586553,-0.0503 0.020509,-1.79097 -3.5940156,-0.3237 -0.2677968,1.61851 -0.5772771,-0.052 0.2222287,-2.4674 4.2923347,0.3866 0.2897731,-1.65408 0.5586553,0.0503 z m -4.6686986,-8.99758 q -0.055551,0.23663 -0.2417657,0.37536 -0.1840776,0.12964 -0.4662142,0.0634 -0.3003389,-0.0705 -0.3983978,-0.26637 -0.1050235,-0.20711 -0.049472,-0.443743 0.055552,-0.23663 0.2396291,-0.366266 0.1771131,-0.140873 0.477452,-0.07037 0.2821365,0.06623 0.38716,0.273343 0.1071602,0.198007 0.051609,0.434646 z m 5.2760389,3.41843 -0.5460708,-0.1282 0.2715723,-1.77037 -3.5130551,-0.82473 -0.4922198,1.56493 -0.564273,-0.13247 0.5661981,-2.411808 4.1956436,0.984968 0.5189685,-1.597059 0.5460707,0.128195 z"
     id="text6"
     aria-label="wwivwwiwwwvivvwivwviwviwiiwwwvvwvivvwvvvvviwvwivvwviiwwwivwiiwiwvivviivwwwivii" />
  <path
     style="fill:none;fill-opacity:1;stroke:none;stroke-width:0.264999;stroke-dasharray:none;stroke-opacity:1"
     d="M 6.0227391,53.558689 C 6.6373731,44.04256 10.026657,34.722029 15.668137,27.033845 19.684788,21.559969 24.952502,16.832886 31.2934,14.40599 c 3.170449,-1.213448 6.581091,-1.834456 9.97221,-1.677884 3.391119,0.156573 6.759484,1.102038 9.668511,2.851829 3.22249,1.93834 5.835835,4.844214 7.528206,8.202411 1.692371,3.358197 2.471892,7.155158 2.357843,10.913961 -0.228099,7.517606 -4.041629,14.683178 -9.58463,19.766638 -3.729111,3.419957 -8.166107,5.952497 -12.518926,8.532287 -4.35282,2.57978 -8.715264,5.27889 -12.197404,8.95 -3.199099,3.3727 -5.581193,7.53015 -6.782814,12.02075 -1.201621,4.4906 -1.210299,9.30693 0.06497,13.777167 1.275273,4.470241 3.841856,8.577311 7.361992,11.613431 3.520136,3.03612 7.987949,4.97839 12.61827,5.3901 3.949333,0.35116 7.964966,-0.40007 11.610552,-1.959 3.645585,-1.55893 6.927384,-3.90998 9.7351,-6.70949 5.615431,-5.59903 9.274303,-12.862928 12.11182,-20.267698 6.163972,-16.08548 8.96105,-33.557577 17.482286,-48.528411 8.03804,-14.121931 21.458344,-25.524712 37.271324,-29.264877 7.90649,-1.8700843 16.29592,-1.8068793 24.10433,0.437776 7.80841,2.244651 15.00707,6.695507 20.30881,12.851911 4.36943,5.073791 7.42413,11.270262 8.78769,17.825864 1.36357,6.555601 1.03306,13.456196 -0.9508,19.851477"
     id="path13" />
  <path
     style="fill:none;fill-opacity:1;stroke:none;stroke-width:0.264999;stroke-dasharray:none;stroke-opacity:1"
     d="m 17.482283,97.358233 c 0.614634,-9.516128 4.003918,-18.836659 9.645398,-26.524844 4.016652,-5.473876 9.284366,-10.200959 15.625263,-12.627855 3.170449,-1.213448 6.581092,-1.834456 9.972211,-1.677883 3.391118,0.156572 6.759484,1.102037 9.66851,2.851828 3.22249,1.938341 5.835835,4.844214 7.528206,8.202411 1.692372,3.358197 2.471892,7.155158 2.357843,10.913961 -0.228098,7.517606 -4.041629,14.683178 -9.58463,19.766638 -3.729111,3.419951 -8.166107,5.952501 -12.518926,8.532281 -4.352819,2.57979 -8.715264,5.27889 -12.197404,8.95 -3.199099,3.37271 -5.581193,7.53015 -6.782814,12.02075 -1.201621,4.4906 -1.210298,9.30693 0.06497,13.77717 1.275273,4.47024 3.841857,8.57732 7.361992,11.61343 3.520136,3.03612 7.98795,4.97839 12.61827,5.3901 3.949333,0.35116 7.964967,-0.40007 11.610552,-1.959 3.645585,-1.55893 6.927384,-3.90998 9.7351,-6.70949 5.615431,-5.59903 9.274303,-12.86292 12.11182,-20.2677 6.163972,-16.08548 8.96105,-33.55757 17.482282,-48.528405 8.03805,-14.121931 21.45834,-25.524711 37.27132,-29.26488 7.90649,-1.870084 16.29591,-1.806879 24.10433,0.437776 7.80841,2.244655 15.00707,6.69551 20.30881,12.851914 4.36942,5.073791 7.42412,11.270263 8.78769,17.825864 1.36357,6.555602 1.03306,13.456197 -0.9508,19.851471"
     id="path13-4"
     transform="rotate(180,96.936788,99.54985)"
     inkscape:original-d="m 17.482283,97.358233 c 3.416079,-8.841615 6.530738,-17.683228 9.645398,-26.524844 3.114659,-8.841615 23.711604,-7.434992 35.265984,-11.45391 11.554383,-4.018915 0,25.821534 0.301419,38.88301 0.301421,13.061481 -16.477554,11.554381 -24.71633,17.482281 -8.238778,5.9279 8.74114,28.63478 13.262422,42.80145 4.52128,14.16668 22.405454,-19.49174 33.457472,-28.93619 11.052019,-9.44445 11.453911,-32.251797 17.482282,-48.528405 6.02838,-16.276608 54.65726,-10.7506 81.68446,-15.97519 27.02721,-5.224592 5.2246,25.218694 7.83689,37.677335"
     inkscape:path-effect="#path-effect13-9" />
  <text
     xml:space="preserve"
     style="font-size:5.64444px;line-height:normal;font-family:'Minion Pro';-inkscape-font-specification:'Minion Pro';text-align:start;text-decoration-color:#000000;writing-mode:lr-tb;direction:ltr;text-anchor:start;fill:#ffffff;stroke-width:26.6592;stroke-linecap:round;stroke-linejoin:round;stroke-miterlimit:3.2;paint-order:stroke fill markers"
     x="97.917709"
     y="194.66098"
     id="text1"><tspan
       sodipodi:role="line"
       id="tspan1"
       style="stroke-width:26.6591"
       x="97.917709"
       y="194.66098">.</tspan></text>
</svg>
