<?xml version="1.0" encoding="UTF-8" standalone="no"?>
<svg
   baseprofile="tiny"
   fill="#ececec"
   height="684"
   stroke="black"
   stroke-linecap="round"
   stroke-linejoin="round"
   stroke-width=".1"
   version="1.2"
   viewbox="0 0 1000 684"
   width="1000"
   id="svg1046"
   sodipodi:docname="europe.svg"
   inkscape:version="1.2.2 (732a01da63, 2022-12-09)"
   xmlns:inkscape="http://www.inkscape.org/namespaces/inkscape"
   xmlns:sodipodi="http://sodipodi.sourceforge.net/DTD/sodipodi-0.dtd"
   xmlns="http://www.w3.org/2000/svg"
   xmlns:svg="http://www.w3.org/2000/svg">
  <defs
     id="defs1050" />
  <sodipodi:namedview
     id="namedview1048"
     pagecolor="#ffffff"
     bordercolor="#000000"
     borderopacity="0.25"
     inkscape:showpageshadow="2"
     inkscape:pageopacity="0.0"
     inkscape:pagecheckerboard="0"
     inkscape:deskcolor="#d1d1d1"
     showgrid="false"
     inkscape:zoom="1.2134503"
     inkscape:cx="521.65301"
     inkscape:cy="588.81687"
     inkscape:window-width="958"
     inkscape:window-height="981"
     inkscape:window-x="952"
     inkscape:window-y="0"
     inkscape:window-maximized="0"
     inkscape:current-layer="svg1046" />
  <path
     d="M567.9 355.2l-3.4-0.1-0.2-1.7-1.1-1-0.1-1 4.7 2.6 0.1 1.2z m-34.8-8.1l-1.8 0-1.4-0.7 0.8-1 1.7 0.4 0.7 1.3z m28.3 0.5l-1.3 0.7-1.3 0-1.3 1.3-2.1-1.1-0.5-1.1 0.1-2.2 0.6-1.4 2-0.9 0.9 1.2 1.7 0.6-0.5 1.7 1.7 1.2z m-46.6-6.6l1.8 0.7 1.6 1.6 0.1 1.4-1.7 1.6 3.2-0.3 0.8 1.2 1.7-0.4 4.5 1.8 3.2-0.9 0.7 1.4-0.6 1.5-2.2 1.6 1.4 1.2 2.1-0.2 3.6 0.9 3.3-2.5 1.1-0.5 3.6-0.3 5.1-4.5 5.3 0.9 1.5 1.9 3.7 2.1 3.2-0.2 1.3 2 0.8 2.5 1.9 1.3 2.8 0.5 0.7 2.6 1.8 4.1-0.3 2.7-1.9 1.8-0.7 1.6 1.6 1.4 3.3 2.1 1.4 1.7-0.6 2.6 2 2.3 0.8 1.9-0.7 2.6-0.8 1.1 1.9 3.1 0 1.6 2.2 0.9 1.6 3.2-0.4 2.3-1.6 3.6-0.9 0.7-1.4-0.6 0-0.9-1.5-1.5-2.2-0.4-0.8 0.6 1.5 1.5-1.9 0.6-3.5 1.5-4.4 1-0.6 1.2-1.1-0.1-1.6 0.7-0.6 1-2 0.3-0.8 1.3-2.1-0.4-2.6 0.6-1.1 0.6-1.9 2.6-1.9-2-0.5 0.7 2.5 3.4 2.3 1.3 0.6 1.6-1.2 1.7 1.4 1.5 1.8 2.7 2.3 2 1.3 0 2.9 2.6 2.5 1.5 1.3 1.6 1.3 0 2.9 2.2 0.6 0.7-0.2 2.8-1.3 0.9-2.3-0.9-0.7 2.9-1 1-2.9 0.8-3.1 1.8-0.6 1.3 2.5 2.8 0.1 1.3-0.6 1.3 1.7 0.3 0.3 1.9-0.3 1.5-1.7-0.4-1.2-0.9-0.2-1.1-1.1-0.5-2.5 0.5-1.5-0.8-2-0.3-0.1 1.4-5.7 0.5-3.9 1.5-1.1 0.9-3.8 0.5-1.4-1.9-2.7-0.4-2.8 0.1-0.2 1.9-1 1.6-1.6 0.5 0.1-1.3-1.2-0.3-0.9-1.4-3.5-1.6-0.7 0.5-2.2-1.2-5.1-2.3 1 1.6-3.7 0.2-1.1-0.9-0.8 0.2-1.4-1-1.3 0-1.3 1.2 0.2 1.5-2.6-0.2-3.3 0.6-2.8-0.1-1-0.3-1.1-1.3 0-1.5 0.6-2-0.2-2.4 0.3-1.5 1-1.8 1.4-5.5 3.5-3.8-0.1-1.3-1.6-0.6-4.8-0.8-2-1.4-3 0.6-2.1-0.1-0.3-0.9-1.4-0.4-1.8 0.7-3.5-4.3-1.4-0.1 0.6-3 0.9-0.9 0-1.4-2.8-1.1-1.5-1.6-0.3-2.2 0.6-1.7 2.3-1.3-0.4-2-1.7-0.7 0.4-1.5-3-2.3 0.6-2.4-1.9-1.2 0.5-0.8 2.2-1.6-0.7-1.2 1.3-2.8 0-1.2-3.1-4.1 0.7-1.1 1.8-0.7 2.3 0.8 4.5-1.3 0.7-1-1-0.9 0.3-0.9 2.6-1.6 0.6-2.6-0.8-1-2.6-0.3-0.7-1 0.6-1.6 3.1 0.1 1.1-3.8 0.7-1.7-0.1-4.3-1.7-1.4 0.5-2.7 1.1-1.4 0.9-0.4 4-0.3 4.5 0.1 1.9 2.2-0.6 1.2 1.6 0.3 0.9-2.4 1.4 0.8 1.1-0.1-0.5-1.7 0.2-1.6 0.9-1.4 3.3 0.6 3.6-0.3 0.1-0.6-2.8-0.5-0.9-1.1-0.2-3.9-1.5-0.8-1.6 0.3 0-1.5 3.4-1.1 0-1-3.4-3.8-0.2-1.6 2.7 0.1 5.2 1.3 3.1-0.7 1.5 0.4z"
     id="DE"
     name="Germany" />
  <path
     d="M389.1 403.1l-1.6 1.3-1.3 0.2-2.5-1.2 0-0.5 2.5-1.1 2 0.6 0.9 0.7z m-36.5-39.7l1.3 0.9-3.4 1.9-1.2-0.6-0.9-1.2-0.1-1.9 1.2-0.5 1.8 0 1.3 1.4z m-23.3-11.4l-2.1 0.4-2.9 0 0.1-1.5-1.4-0.5-1.8-2.7-1.3-0.5-1.9 1.6 0.5 0.9-2.4 1.8-2.9-0.3-0.8-0.7-2.1-0.4-0.2-1-2.7-2 1-1.4 2.9-0.9-1-1.4 0.2-0.8 1.6 0.1 2.2-0.8 1.2-1.6 1-2.3 1.9-0.9 1.3 0.6 1.9-2 2.8-0.1 2.7-0.7 3.9 0.3 1.1 1.1 0.5 1.7 1.3 1.7 1.7 1.4 0 0.9-2 1.1 3.5 0.3 1.2 2.5-2.1 0.3-0.1 1.4 1.1 0.2-0.6 1.4-2.6 0.6-1.4 2.2-1 0.5-2.3-0.5z m13.7-20.2l-2.6-0.5-0.6-2 0.9-1.4 1.8 0.7 0.6 1.3-0.1 1.9z m-11.5-7.1l0.7 3.4-2.4 1.3-0.8-2.4-1.4 1 0.2-1.9 1.5-0.3 2.2-1.1z m1.7 1.7l-1.1-1.2 1.6-2.2 1.7-1-0.1 1.6-2.1 2.8z m2.5-7.8l-4.6 0.8 0.6-3-1.9-0.9 0.3-0.9 2.1-0.5 1.7 1.7 2.1 0.6-0.3 2.2z m-16.2-11.4l-1.5-0.2-0.4-1.4 0.2-2.3 1.6 0.2 0.1 3.7z m12.8-5.7l-0.1 2.8 2.9 0.8 2-0.1 0.4 0.6-3.3 2.7-0.7-0.1-0.2-2.2-1.4 0.3-1.9-0.3-1.2-1.9-2.7-0.5-0.9-1.1 1.4-0.6 0.3-1.2 2.8-0.6 1.5-0.7 0.9 1 0.2 1.1z m-11.9-2.6l1.2 0.9-1.1 1.3-1.5 0-2.2-1 0.2-0.5 3.4-0.7z m11.8-9.9l-1.6 2.6-1 0.7-0.2 1.7-3 1.6-3.2 2.4-1.4-1 2.6-1.7-2.1-1-0.2-2.6 0.8-0.7 1.4 0.7 1.9-0.3-0.7-1.2 6.3-3.2 0.4 2z m34.8-2.2l0 1.2-1.3 1.6-2.2 1.2-4.2 2.8-2.5 1.3-0.5 1.6 1.4 0.1 0.2 0.8-2.2 1.6-0.6 1.5 3-0.4 5.3-1.5 3.6 0.5 2.6-0.3 6.9 0.2 1.9-0.3 2.3 1.3 1 1.7-2.8 3.4-0.8 2.3-2 3.5-1.9 2-2 2.5-2.1 1.1-3.1 0.5 4.5 1.9-1.4 1.8-2.4 0.1-2.3 1.7-2.1 0.7 3.6 1.1 2.4-1 2.7-0.1 5.2 1.9 3.6 3.4 2 1.5 0.5 1.1 2.1 6.9 1.5 3.8 1.6 1.8 4.5 1.6 1.1 0.6 3.4 3.3 3.4 2.4-1.4 1.5 0.4 1.2 2.1 2.9 0.3 1.6-1.3-0.1-2.3-1.4-0.3 0.7 5 3.3 1.6 2 1 2.7-0.6 1.1-3 2.7 2.8 1.4 1.2-0.2 2-2.1 1.7-0.2 4.2 0.3 3.8 1 3.3 2.1 0.7 1.1 0.4 3.1-2.2 5.8-2.8 1.9-0.5 1.7-2.1 0.9-1.7-0.3-2.4 1.2 1.7 0.6 0 1.7-1.1 0.6-2.5 0.2 1.1 2 2.5 0.4 4.3-0.2 1.9 0.2-0.2 2.7-0.4 0.4-3.8 1.7-1 1.8-2.2-0.1-1.1 0.7-5.7 1.9-4.9-0.8-2.9 0.1-4 0.6-4.2-1.2-1.8-0.2-2.8 1.7-4.2 0.5-2-0.2 0.9 1.5-0.9 0.4-3.8-0.5-1 0.5-1.4-0.2-2.7-1.4-2.6-0.1-4.9 1.2-1 1.3-1.3 3.5-1.1 1.2-1.4 0.2-4.5-2.5-1.5 0.5-2.5 0.3-2.7 0.7-3.9 2.4-0.9 1.5-1.3 0.2-1.1-0.9-1.4-0.3-2.3 0.8-0.3-1.3 1-1 2.8-0.7 2.5-1.9 2.2-2.3 4.6-3.8 0.8-3.1 2.7-0.7 1.4-2.5 4.1-0.6 2.8 0 2.8 0.5 2.9-0.1 1.1-0.7 1.9-2.4 3.6-3-4.7 1-3.8 2.3-3.2-0.4-2.3-1.9-2.1-0.8-2.1 0.4-0.7-0.9-2.4-1.7-2.6 0-3.6 1.7-2.6-1.2-0.9-2.3 0.3-1.4 1.1-0.7 2.5-0.6 3.8-1.7 2.2-0.7 2.8-1.9 1.2-2.3-0.3-2 0.5-1.4-0.9-1.7 0.3-1.5-3 0.3-2.7 1.2-0.7-1.1 2.8-1.8 1-1.4 2.6-1.7 3.6-1.3 1.9 0.1 3.7-0.7 2.7 1.3-0.8-2.1 1.2-0.4 0.1-2.4 1.6-2.2-1.2-0.6 0.1-2 1.5-0.8 0.7-2.6-1.7-0.5-2.1 0.6-1.7-1.5-2.8-3.6-0.3-1.4 1.6-3.1 2.3-2-1.9-0.8-1.4 0.2-2.7 1.2-2 1.3-2.1 0-0.8-0.9-1.1 0.1-2.5 1.1-3.5-1.3-1.1 2.3-2.6-2.5-0.3-1.9 1.3 0 1.2-2.4 2.9-4 0.6-1.2-0.5-1.4-1.9-1.5 0.3-2.6 0.8-1 1.5-0.4-1.9-1.2-2.9 0.9-1.8 0.9 0.3-2-0.6-0.4-1.5 1.4 0.1 3.3-2.1 5.7-1.1 0.9-1.4-0.5 1.1-3.9 1.4-2.5-0.6-0.3 0.3-3.6 1-2.9 1.7-3.8 2.2-3.5-4.1 2.7-1 0.5-2.4-0.4-0.8-0.7-1-2.3 1.8-0.2 1.7-1.1-1.5-0.7 1.5-0.9 1.7-2.1 0.4-1.9-1-1.5-1.6-0.6-0.2-0.9 1.7-1.9-0.7-1.5 1.6-3.1 3 0.1 1.9-0.4-2.3-2 0.7-2.9 3.7-0.3-0.8-1.8 0.3-2 1.6-0.9 1.3 0.2 1 0.9 2.6-0.9 0.6 0.8 2.8-0.6 3.7-0.3 4.5-0.6 2.2-0.4 2.3 0.2-0.6 1.7z m-0.6-4l-1.3 0.1-1.3-1.4 1.5-0.3 1.1 1.6z m1.3-3.4l2.7 0.6-0.6 1.4-1.4-0.7-2 0.3-1.9-1 0.4-2.1 1.7-0.1 1.2 0.5-0.1 1.1z m3.7-2.3l-1 0.3-0.4-1.2-1.7-0.6 0.4-0.8 2.7 2.3z m16.1-19.5l1.6 1.8 1 0.5-1.3 3.8-0.2 1.6-1 1.7-0.8-0.4 0.9-2.9-0.5-1.1-1.7 0.3-0.4-0.9 1.6-1.4-0.8-2-1.1-0.2 1.5-1.6 1.2 0.8z m2.9 0.4l-1.4-1.3 1.3-0.6 0.1 1.9z"
     id="GB"
     name="United Kingdom" />
  <path
     d="M611.2 521.2l2.3 0.4-1.1 0.9-1.2-1.3z m12.9 1.5l1.6-0.1 0.6 0.9 6.2 3.8 1.7 0.7 1.2 1.9-4.8-3.1-4.4-2.5-3.1-0.7-4.3-2-0.5-0.9 5.8 2z m-6.3-3.5l-0.8 0.1-5.6-0.1-1.7-0.3-0.5-1.3 1.8 0.2 0.5 0.6 6.3 0.8z m-5.3-2.3l-2 0.1-2.6-0.8 0.3-1.1 4.8 0.6-0.5 1.2z m-21.2-16.5l-0.3 0.4-3.3-2.7-0.3-1.9 2.8 2.7 1.1 1.5z m-4.9-6.5l-1.9-0.2 0.8-1.1 1.1 1.3z m-4.2 1.5l-0.9-0.1-1.7-4.2 0.4-1.2-0.8-2 0.9-0.3 0.5 2.1 1 0.9-0.1 1.6 0.7 3.2z m3.7-4.9l-1.5 0.3-1-1-1.3-0.2-1-1 1-0.7 0.5-1.2 3.3 3.8z m49.5-14.7l-0.7 1.5 1.6 2.7 0.2 1.6 1.3 0.4-0.4 2 1.2 1 3 1 0.9 1.5-2.3 0.1-1.7 0.4 0.7 2.6-1 1.6-2.2-0.2-1.3-2.2-1.1-0.8-2.2-0.2-2.6-0.7-1.8 0.2-1.8-0.3-2.2 1-1.6-1.3-1.7 0.6-2.8-0.7-2.5-0.1-2.7-1.6-1.5 1.2-3.2-0.3-2.7 3.2-1.8-1-1.7-1.8-1.8-0.4-1.2 0.6-0.3 5 0.1 1.4 1.9 1.3 3.4 3.2 1.3 4 2.3 2.4 2.8 2.3 1.7 2 5 4.1 2.4 1.1 0.4 2.2 1.5 1.6 3 2.5-0.3 1.6-3.5-2.8-2.6-1.5-3.1-2.8-3.8-1.1-2.7-1.2-3.3 0.6-1.8-0.2-0.7-2.2-5.8-3.9-4.3-4-0.8-1.3 3.1-1.2-1.4-0.8-3.9-3.4-1.2-1.6-0.1-4.1-0.8-1.7-2.9-2.2-1.1-1.1-2.1-0.7-1.4 0.9-0.3 1.9-3 5-1.3 0-3.1-4.2-0.5-1.9-1.3-3.9 0.7-0.5 0.5 0.6 3.3 0.8 1.4-1.3 1.1 0.5 3.6-0.1 0.6-0.3 1.2-2.2 2.6 2.1 1.5 0.7 1.3-0.5 2 0.7 1.6 0.2 1.2-0.4-0.8-2.3 0.7-0.7-1-1.1 2.1-1 2.1-0.6 0.4-1.1-0.2-2.2-0.9-0.9 0.4-1.4 4.4-1.7 0.7-1 2 0 0-1.7 0.9-0.8 2.5 0.6 2.9 1.2 1.7 1.2 0.9 1.3 2.7 1.8 2.2 2.2 1.3 0.7 2.5 0.6 1.3 1.3 3.3 0.9 4.9 0.2 2.5-0.9 1.1-1.4 2.9-0.4z"
     id="HR"
     name="Croatia" />
  <path
     d="M671 437.8l1.5 0 1.4 2.3 2.2 0.8 0.9 1.1 2.3 0.4 0.9 0.7 0.7 1.7-2.2 2.3-4.6 1.1-1.9 2.4-1.2 1 0.1 1.7-1.4 1.4-0.7 2.5-1.4 1.5 0 1.2-1.6 2.7 0.2 1.3-2.1 1.5-1.5 4.7-1.3 0.9-2.6-0.3-2.5 2-1.4-0.5-3.2 0.9-1-0.5-2.8-0.3-1.1 0.2-2.9-0.4-1 0.3-1.5 1.6-2.2 1-1.6-0.5-2.1 1.3-2.9 0.4-1.1 1.4-2.5 0.9-4.9-0.2-3.3-0.9-1.3-1.3-2.5-0.6-1.3-0.7-2.2-2.2-2.7-1.8-0.9-1.3-1.7-1.2-2.9-1.2-1.9-2.2-1.4-3.3-2.4-0.1 1.8-1.7 2.5-0.5 0.3-1.8-1.1-1.6 0.5-0.7-0.4-1.5 2.2-1.2 0.5-1.4-0.5-1.1-2.6-0.7 1.3-1.4 2.5 0.9 3.9-0.3-0.7-2 0.6-1.9 0.6-0.7 2.1 0.3 4.2 2.7 1.6 0.7 4.7 0.1 7-0.4 0.6-1-0.5-1.3 0.4-1 1.4-0.7 4.3-0.4 2.4-0.6 1-1.5 0.7-0.2 3.5 1.4 5-2.5 1.6-3.5 1.8-0.4 2.7 0.1 2.5 0.6 4.6-0.7 1.4 0.9 2.2 2.2 0.6 0.2 4.3-1.1z"
     id="HU"
     name="Hungary" />
  <path
     d="M602.6 595.6l-1.2 2.5-2.8 4.3-1.5 5.1 0.3 2 1.6 1.4-0.7 0.5 1.6 1.8 0.1 1.3-1.8 1.9-0.4 1.7 0.1 1.5-2.9-0.6-1.4 0.3-3.7-1.4-1.9-2.8-3-2-3 0-1.4-0.5-2.9-1.9-3-1.4-2.6-2.1-1.7-0.4-1.5-1-2.9 0-2.3-1.6-1.3-2.3 1.3-3.7 1.4-0.8 0.9-1.2 2.3 2.3 1.8-0.8 1.4-1.6 2.4 0.1 0.5 0.9 1.4 0.3 2.5 1.6 1.4 0.4 3.4-1 3 0.4 2.8-0.5 1.7-0.6 1.2-1 1.4-0.3 3.5 0.3 2-1.2 0.8 0.2 2-1.2 1.1 1.1z m-78.3-41.5l0.7 0.9 1.8 5-0.6 1.6-1.3 2 0.8 2.8-0.6 11.5-0.6 2.9-0.9 0.4-2.9-1.2-1.5 0.3-1.2-0.6-0.3 3-1.8 2.1-3-0.2-0.7-0.6-2.4-3.8-0.4-4.3 0.6-1.3 0-2.5 1.1-0.1 0-1.7-1.8-1.2 0-1.9 0.7-1.4-0.1-2.6-0.8-0.9-0.8-2.3-2.2-2.4 0.1-3.4 3.4 0.6 1.3-0.3 3.1-1.5 2.1-2.5 1.4-0.5 1.5-1.8 0.7 0.9 2.2 0.8 1.2 1.5 0.9 0.5-0.7 1.4 1 0.8z m8.3-30.8l0.3 1.4-2.5 0.5-1.1-1.1 2.9-0.2 0.4-0.6z m37.9-56.6l-0.2 0.9-3.3 2.3 0.7 1.4 2.3 0.7-1.6 2.1 0.3 1 1.3 0.2-0.4 2 1.9 1.1 1.5 1.3 0.2 1.3-1.5 0.1 0.7-0.6-2-2.2-2 0.9-3.2-0.9-2.1 2-1.5 0.4-1.7 1.1-3.2 1.2-1.8-0.4-1 0.7-0.4 3.1 0.8 0.6 1.5 2.6 1.7 1.1-0.7 1.9-0.9 0.7-1.3-0.5-0.3 1.7 0.9 4.5 1.4 3.2 1.2 1.3 2.7 2.2 2.7 1.1 5.1 3.7 2.8 1.1 0.7 0.7 1.8 2.8 1.6 3.2 1.8 5.1 1.3 2.5 2.3 2.9 4.8 4.1 4.3 2.9 4 1.9 3 0.3 7-0.4 2.6 0.7 0.4 1.2-0.4 0.9-2.9 2.1 0 1.7 1.5 1.2 7.1 3.2 7.2 2.6 2.2 1.4 2.7 2.1 6.4 2.9 1.1 1.4 4 3 1.8 2.4 0.5 1.8-1.5 4.4-1.6-0.5-1.9-1.3-3.1-5.4-5-0.5-2.9-1.3-0.7-1.4-2.3-0.4-1.3 0.9-1.4 2-1.5 3-1.5 4.3 0 1.7 1.1 1.7 2.9 1 2.4 1.5 1.6 1.6 0.3 3.8 0.9 2.1-0.9 1.3-1.9-0.3-2.5 0.7-1.7 1.4-0.7 1.4 0.5 3.4-0.3 1.4-3.3 2.5-1.6 2.5-1 2.3-4.3 0-1.1-1.5-0.1-2.2 0.6-1.3 1.6-0.7 0.9-2.8-0.5-2 1.1-1.6 2.8-0.7 0-2.9-1.4-1.3-1.4-5.1-2.4-4.3-1.4-3.8-1.1-1.8-1.4-1-3.7-0.3-4.6-2.6-0.3-1.1 0.6-1.1-1.1-2.8-2-1.7-2.6 0.6-1.2-0.1-0.1-1.5-2-1.3-2.7-0.2-0.7-0.7-2.6-4-1.7-1.7-2.3 0.1-3.9-0.9-2 0.7-3.2-2.6-2.8-0.9-5.7-5.3-1.8-2-3.5-2.2-2.3-3.2-1.8-1.2-4-1.4-0.3-1.3-3.1-3.1-1.7-1-1.3-2.1-2.5-0.5 0.1-2.7-1.2-3.5-1.7-2.2-1.2-5.3-0.8-1.5-1.8-1.1-4-1.2-5.7-3.4-1.1-0.1-3.4-1.3-2.1-0.2-2.6 1.2-3.1 3.2-2.5 3.4-0.9 0.6-3.4 1.2-3 0.5-0.2-1.5 2.1-2.6-0.3-2-3.3 0.6-5.1-2.4-0.9-0.9-0.1-1.4-0.7-1.3 1.4-2.5 0.8-0.7-0.5-1.7-3.2-1.4-1.5-3.1 0.8-0.4 1.9 0.2 1.7-1.3 1.2-0.3 0.8-2.5-1.8-1.6-1.7-2.6-0.9-0.6-0.1-1.6 2.6-1.7 1.4 0.7 2.4-0.5 2.6-1 3.1 0.8 2.4-1.4 1.6-2.2-0.6-1.5 3.4-2.9 1 0.6 0.2 2.5 2.4 2 2.2 0.6-0.4 1.2 1.3 1.2 0.9 1.4 1.2-0.7-0.7-1.7 0.2-1 2.2-2.6 0.5-1.1 0-2.9 2-0.1 0.8 2.1 2 0.8 2.9-1.1 0.7 0.1 1.4 1.9 1.2-0.3-1.5-3.5 0.6-1.8 1.3-0.3 1 0.9 1.9 0.2-0.5-1.8 0.5-3.1 3 0.3 0.9 0.8 2.1 0.4 1.1-0.4 1.2-2.2 1.4-0.6 3.4-0.3 3.1 0.2 4.7-1.5 0 2.3 3.1 3.5 1.1 0.5 8.6 1.5 4 0.3 2.6 0.5z"
     id="IT"
     name="Italy" />
  <path
     d="M666.8 348l0.6-0.6 2.3 0.7 4.5 2.2 1.1 0.9 0.8 3 2.1 5.1 2.9 4.9 1.7 3.6 0.9 3.9-0.6 1.6-4 1.7-0.8 0.5-2 2.7 0 1.2 3.3 1.3 1.8 1 0.8 1-0.2 2.4 0.4 1.1-0.8 1.5 0.1 1.3 1 1.6 1.2 1.8 0 1.3 2.7 2.8 1.9 2.8 1.4 1-1.2 1.3 1.8 2.6 0.1 1.3-1.2 1.8-3 0.5-4.8 4.6-2.4 2.7-3.4 4.4-0.6 1 1.5 3.8-0.1 1.8 1.9 1.4-0.4 0.9-3.3-0.7-0.9-0.2-5.7-1.9-0.8-1.4-1-0.7-3.1-1-3.6-0.3-3.2 0.2-1.4 1.5-1.8-0.1-2.4-1-3 0.1-2.3 1-1.1 2.1-1.7-0.6-1.4 0.4-0.6-2.7-1.4-0.4-3-3-2.2 1.3-1 1.7-2.2 0-0.5-1.5-1.3-0.2-0.5-1.6-2.8-2.2-0.5-1.8-2.7-0.8-0.5 0.2-3.5-1.8-1.8 1-1-0.6-2.7-2.3 1.4-0.5 0-1.6-3.6 0.7-3.3-1.9-2.2-0.6-1.3 0 1.7 2.4-3.5 2.5-1-0.4-1.5-1.9-2-1.8-1.6-0.9 1.6-1.2 0.7-1.1-1.8-1.2-3.2 0.7-0.8-0.9-2.7-1.1-4.6-1.1-1-1.1-0.3-1.1-3.3-0.8 0.1 1.9-2.1 0.4 1.6-3.6 0.4-2.3-1.6-3.2-2.2-0.9 0-1.6-1.9-3.1 0.8-1.1 0.7-2.6-0.8-1.9-2-2.3 0.6-2.6-1.4-1.7-3.3-2.1-1.6-1.4 0.7-1.6 1.9-1.8 0.3-2.7-1.8-4.1-0.7-2.6 2.8 0.9 0.7-0.5-0.1-1.8-4.1-0.7-0.1-1.2 2 0.4 3.8-1.4 6.5-1.8 6.9-1.7 3.3-0.5 2-2.2 1.9-1.7 3.8-0.7 1.3-0.8 2.8-1.2 6.6-1.2 5.5-0.4 5.4 2.3-0.9 0.3-3-1.2 2.2 3.5 1.1 1.2 2 0.9 1.7 0.3 4.9-0.5 2.2-1.1 0.5 0.1 6.6 0.4 22.9 0.9 7 0.1z"
     id="PL"
     name="Poland" />
  <path
     d="M420.4 584.7l-0.4 1-2-0.4 0-1.5 1.2-1.6 2.7-0.7 0.8 1.3-2.3 1.9z m21.7-13.6l1.2 0.5 1.3-0.5 1.4 0.4 0.2 1-2.2 3.5-0.6 1.4-2.1 1.3-4-1.7-0.3-1.6-1.4-0.7-1.7 1.3-1.4-1-0.3-1.2 5.3-3.7 1.5-0.9 3.2-0.9 0.5 1.2-0.6 1.6z m14.7-0.8l-0.3 0.2-3.9-1.9-1.6-0.4 0.1-1.4 2.6-0.2 2.1 0.7 1.2 1.8-0.2 1.2z m-77.4-55.5l0.5 1.3 4.3 1.3-0.3 3.2 1.8-0.4 4.4 1.7 2.2 0.2 2.2 2.1 3.6-0.4 3.2 2.1 3.1-0.4 0.7 0.4 4.7 0 0.8-2.4 4 1.1 2.5 1 1.7 0.3 1.1 1.5 0 2.1 0.7 0.4 2.8-1.1 2.8 1.2 1.3 1.2 2.1-1.1 4.7 1.2 1.2-0.8 3.8-1.1 3.1 0.6 1.2 2.2-1.8 0.5-0.2 1.4 1.2 1.3 0.1 2.1-3 2.8-8.7 4.7-2.9 2.7-6.6 1.5-4.5 1.5-2.2 0.5-4.1 3.8 1.1 0.3 1.2 1.2-0.4 0.6-2.5 1.1-0.9 0-2.9 4.6-2.6 3.3-1.5 1.5-1.5 2.1-3.2 5.6-0.1 1.6 1.6 5.5 2.2 2.7 2.4 1.1 0.6 1-0.8 1-2.4 1.7-4.3 2.3-1.8 1.9-0.3 1.8-1.3 0.8-0.5 2.5-1.8 4.4 1.3 1.2-1.3 0.8-6.5 0.3-4.1 2.8-2 2.4-1.9 4.5-2.2 2.6-1 0.5-1.5-1.2-1.9-0.1-1.9 0.3-1 1-1.5 0.5-1.5-0.5-4.6-0.2-2.3 0.8-1.9-0.5-3.2-0.3-7 0.6-4 3.4-3.4 0-3.1 1.2-2.1 3-0.5 1.6-1-0.3-0.3 1.2-2.1 0.8-2.4-1-2-1.5-1-0.1-1.6-2.2-1.2-3.1 0-1.1-1.5-0.6-0.3-1.4 0.2-1.6-1.2-2-5-3.7-3.7-0.3-3 0.5-1.1-6.4 0.8-2.2 3.5-4.3 2.1-0.6 0.7-2.4-1.7 0.2-3-4.3 0.9-4 3.2-3 0.6-2.4-0.5-0.8-1.7-0.4-1.6-3.2-0.3-1.9-1.4-1.2-1.1-1.9 1.1-0.3 4.3 0 1-0.5 1.7-3.5 0-1.9-1.4-1.3 0.2-1 2.7-2.1-0.4-1.1 0.4-3.8-0.4-3.5-0.8-2 2-1.6 1.1-1.6 1.6-1.4 2.1-1.1 2.5-2.5-0.3-1.1-1.9-0.9-1.9-0.2-0.1-3.1-0.7-1.1-5.2-0.1-1.5-0.5-0.8 1.4-2.5 0.9-1.4 0-2.2-0.8-2.9 0.1-3 1.1-0.9-1.3 1.3-1.9-1-1.8-4.1 1-1.9 0.9-1.2 1.1-1.3-0.1 0-2.5 2.6-2.6-1.6-0.2 1.2-1.9-1-1 0.1-2.6-2.3 0.9-0.5-1.2 1.4-2.2-1.4-0.2-2.3-2.5 0.8-3.1 2-1 1.9-1.5 2.6 0.3 1.7-0.3 3.6-1.6-0.4-1.5 0.4-0.7 3.2-1.7 2-0.2 1.9-0.9 1.3 0.5 1.1-0.1 1.3 0.6 1.7 1.6 2.5 0.6 2-0.5 3.6-0.1 1.7 0.2 3.2-0.3 1.8 0.1 2.9-0.8 2.3 1 4.4 0.4 2.6 0.8 7.2 1.4 2.7 0 3.7-0.8 1.6-0.5 1.5 0.3 2.1-0.6 2.3 1 4.7 1.3 2.1-1.3 3.4 0.6 3.3 1.3 1.8 0.1 2.6-0.3 2.5-1z"
     id="ES"
     name="Spain" />
  <path
     d="M521.2 524.1l-0.3 2.3 1 1.7 0.6 6.5-1.8 3.2 0.1 3-1.6 4.3-0.8 1.1-3.8-2-1.2-1.1 1-1.8-2.2-0.9 0.4-1.7-0.2-0.9-1.6-0.5 1-1.3 0-0.8-1.5-1-0.3-0.9 1.3-1.1-0.6-0.9 0.1-1.3 0.9-1.9 1.2-0.9 2.8-0.8 1.2-1.1 1.9 0.6 0.6-1.2-0.2-2.7 0.3-1.1 1.3 0.5 0.4 2.7z m-133.9-47.9l-0.4 1.4-1.9-2.4 1-0.5 1.3 1.5z m84.4-55.6l2.1 1.2 1.4 0 2-0.6 1.3 0.7 1.4 0.1 3.5 4.3 1.8-0.7 1.4 0.4 0.3 0.9 2.1 0.1 3-0.6 2 1.4 4.8 0.8 1.6 0.6 0.1 1.3-3.5 3.8-1.4 5.5-1 1.8-0.3 1.5 0.2 2.4-0.6 2 0 1.5 1.1 1.3-1.5 0.7-0.8 1.4-2.7 0.3-0.8-0.8-1.1 0-1.8 1.4 1.3 1.1-0.6 0.9-3.8 4-2.1 0.9-0.5 2.9-3 2.2-1.1 2.9 0.8 0.7-0.3 1.5-1.5 1 0 1 1.4 0.1 2.3-1.6-0.5-1.3 2.3-1.5 1.9-0.1 2.2 0.3 0.8 2.2-0.5 1.7 2.3 2.3 0.9 1.4-2.6 1.7 0.1 1.6 0.9 0.6 1.7 2.6 1.8 1.6-0.8 2.5-1.2 0.3-1.7 1.3-1.9-0.2-0.8 0.4 1.5 3.1 3.2 1.4 0.5 1.7-0.8 0.7-1.4 2.5 0.7 1.3 0.1 1.4 0.9 0.9 5.1 2.4 3.3-0.6 0.3 2-2.1 2.6 0.2 1.5-0.6 0.3-0.8 0.3-2.4 1.1-3.9 3.4-1.8 1-0.7 1.8-2 1.4-2.4 0.5-2.3 1-1.1-0.4-2.8 0-1.7-1.2-3.4-0.8-1.1-1.8-2.5-0.1-0.8-1.5-1.9 0.3-1.5 0.7-2-0.1-5.9-1.8-1.4-1.4-1.7 0.5-1.6 1.6-6.5 4.1-2.6 4.3-0.1 1.2 0.7 3.9 1.6 2.5-3.1-0.6-3.8 1.1-1.2 0.8-4.7-1.2-2.1 1.1-1.3-1.2-2.8-1.2 0-1.5-2.6-0.6-0.9 0.7-1.1-1.5-1.7-0.3-2.5-1-4-1.1-0.8 2.4-4.7 0-0.7-0.4-3.1 0.4-3.2-2.1-3.6 0.4-2.2-2.1-2.2-0.2-4.4-1.7-1.8 0.4 0.3-3.2-4.3-1.3-0.5-1.3 2-0.5 1.9-1.9 1.7-7.1 1.3-8.3 1-1.6 1.2-0.4-1-1.2-1.1 1.5 0.7-7.6 0.5-2.8 0.9-3 3.1 2.4 0.8 1 0.9 3.4 0.6 0.1-1.1-4.6-1.8-2.3-3.6-2.3-0.5-1.3 1.8-0.6-0.5-1.8-0.5-5.9-3-0.6-4.8-2.6-1.7-2.6-1.6-1.9-0.4-1.7 0.9-1.8-0.8-1.1-1.4-0.8 1.1-1.6-3-0.2-1.8-0.5-0.3-1.1 1.3-1.4-1.6-0.8-2.6 0.2-0.2-1.7-2.2 0.3-1.2-0.3-1.1-1.1-1.3 0.2-2.2-0.4-0.8-0.7-4.8-1.3-2-0.1-1.9 0.6-1.1-0.3-1.3-2.2-3.1-1.1 0.6-0.7 3.1-0.6 0.6-0.7-2.2-0.9-0.2-1.2 1.6 0.3 0.1-1.2-4 0.1-0.4-1.3 0.5-1.4 2.3-1.2 5.8-1.4 2.5 0.2 1.7-0.2 3-1.6 2.9-0.4 2.7 0.8 2.5 2.8 1.2 1 3.1-1.7 4.4 0.1 0.9 0.9 1.2-1.7 1 1 4.7-0.2-1.5-2.5-0.2-6-1.3-1.7-2.1-4.3 0.2-1.4 3.2 0.3 2.7-0.6 1.3 0.4 0.3 2.8 1.1 1.6 2.2 0 2.3 0.5 3 0.1 4.3 0.8 1.8-0.5 3.5-2-1.8-0.7-0.2-0.7 0.9-2.2 5.2-2.5 3.7-0.7 3.8-1.3 2-1.4 1.2-1.8 0.5-1.3 0.3-6.8 1-2.2 2.9-1.6 6.4-1.1 0.9-0.5 0.9 2.2 0 1.2 2.9 2.4 3.2-1 1.6 1.8 0.5 2 4.2 1.1 0.6 2 0.9-0.3 3.6 0.4 1.6 1.1-0.4 1.6 0.7 0.7-0.7 1.4 0.5 0.6 2.3 0.3 2.2-0.3 1.3-0.6 0.5-1.4 1.9-0.6-0.8 2.7 0.6 0.6 0.4 2 1.7 0.1 3.3 1.5 2.8 2.6 3.4-0.4z"
     id="FR"
     name="France" />
  <circle
     cx="399.9"
     cy="390.8"
     id="0" />
  <circle
     cx="575.4"
     cy="412"
     id="1" />
  <circle
     cx="521"
     cy="266.6"
     id="2" />
  <circle
     style="fill:#000000;fill-opacity:1;stroke:none;stroke-width:1.23561"
     id="path1268"
     cx="633.27008"
     cy="453.71393"
     r="2.4765775" />
  <circle
     style="fill:#000000;fill-opacity:1;stroke:none;stroke-width:1.23561"
     id="path1268-3"
     cx="598.79608"
     cy="479.91998"
     r="2.4765775" />
  <circle
     style="fill:#000000;fill-opacity:1;stroke:none;stroke-width:1.23561"
     id="path1268-4"
     cx="659.80872"
     cy="380.75107"
     r="2.4765775" />
  <circle
     style="fill:#000000;fill-opacity:1;stroke:none;stroke-width:1.23561"
     id="path1268-4-9"
     cx="559.69257"
     cy="375.11957"
     r="2.4765775" />
  <circle
     style="fill:#000000;fill-opacity:1;stroke:none;stroke-width:1.23561"
     id="path1268-4-2"
     cx="402.11841"
     cy="391.81882"
     r="2.4765775" />
  <circle
     style="fill:#000000;fill-opacity:1;stroke:none;stroke-width:1.23561"
     id="path1268-4-2-1"
     cx="426.80679"
     cy="436.65387"
     r="2.4765775" />
  <circle
     style="fill:#000000;fill-opacity:1;stroke:none;stroke-width:1.23561"
     id="path1268-4-2-1-8"
     cx="354.36438"
     cy="561.05133"
     r="2.4765775" />
  <circle
     style="fill:#000000;fill-opacity:1;stroke:none;stroke-width:1.23561"
     id="path1268-4-2-1-8-4"
     cx="555.64557"
     cy="536.26782"
     r="2.4765775" />
  <circle
     style="fill:none;fill-opacity:1;stroke:#000000;stroke-width:1.236;stroke-dasharray:none;stroke-opacity:1"
     id="path1268-4-2-1-8-4-2"
     cx="520.41687"
     cy="454.38617"
     r="2.4765775" />
</svg>
