<?xml version="1.0" encoding="UTF-8" standalone="no"?>
<svg
   xmlns:dc="http://purl.org/dc/elements/1.1/"
   xmlns:cc="http://creativecommons.org/ns#"
   xmlns:rdf="http://www.w3.org/1999/02/22-rdf-syntax-ns#"
   xmlns:svg="http://www.w3.org/2000/svg"
   xmlns="http://www.w3.org/2000/svg"
   xmlns:sodipodi="http://sodipodi.sourceforge.net/DTD/sodipodi-0.dtd"
   xmlns:inkscape="http://www.inkscape.org/namespaces/inkscape"
   version="1.1"
   id="svg2"
   width="727.20001"
   height="781.59998"
   viewBox="0 0 727.20001 781.59998"
   sodipodi:docname="morseFood-raw.svg"
   inkscape:version="1.0.2 (e86c870879, 2021-01-15)">
  <metadata
     id="metadata8">
    <rdf:RDF>
      <cc:Work
         rdf:about="">
        <dc:format>image/svg+xml</dc:format>
        <dc:type
           rdf:resource="http://purl.org/dc/dcmitype/StillImage" />
        <dc:title></dc:title>
      </cc:Work>
    </rdf:RDF>
  </metadata>
  <defs
     id="defs6">
    <rect
       x="149.66383"
       y="96.183636"
       width="130.1648"
       height="93.046914"
       id="rect1752" />
    <rect
       x="149.66383"
       y="96.18364"
       width="176.34431"
       height="59.950828"
       id="rect1752-3" />
    <rect
       x="149.66383"
       y="96.18364"
       width="130.16479"
       height="93.046913"
       id="rect1765" />
    <rect
       x="149.66383"
       y="96.18364"
       width="230.29226"
       height="119.08996"
       id="rect1752-3-7" />
    <rect
       x="149.66383"
       y="96.18364"
       width="176.34431"
       height="59.950829"
       id="rect1816" />
    <rect
       x="149.66383"
       y="96.18364"
       width="176.34431"
       height="59.950829"
       id="rect1752-3-3" />
    <rect
       x="149.66383"
       y="96.18364"
       width="176.34431"
       height="59.950829"
       id="rect1859" />
    <rect
       x="149.66383"
       y="96.18364"
       width="176.34431"
       height="59.950829"
       id="rect1752-3-2" />
    <rect
       x="149.66383"
       y="96.18364"
       width="176.34431"
       height="59.950829"
       id="rect1859-9" />
    <rect
       x="149.66383"
       y="96.18364"
       width="247.42041"
       height="106.46053"
       id="rect1752-3-27" />
    <rect
       x="149.66383"
       y="96.18364"
       width="176.34431"
       height="59.950829"
       id="rect1859-0" />
    <rect
       x="149.66383"
       y="96.18364"
       width="176.34431"
       height="59.950829"
       id="rect1752-3-36" />
    <rect
       x="149.66383"
       y="96.18364"
       width="176.34431"
       height="59.950829"
       id="rect1859-06" />
    <rect
       x="149.66383"
       y="96.18364"
       width="235.4651"
       height="56.373865"
       id="rect1752-3-6" />
    <rect
       x="149.66383"
       y="96.18364"
       width="176.34431"
       height="59.950829"
       id="rect1859-1" />
  </defs>
  <sodipodi:namedview
     pagecolor="#ffffff"
     bordercolor="#666666"
     borderopacity="1"
     objecttolerance="10"
     gridtolerance="10"
     guidetolerance="10"
     inkscape:pageopacity="0"
     inkscape:pageshadow="2"
     inkscape:window-width="1366"
     inkscape:window-height="726"
     id="namedview4"
     showgrid="false"
     inkscape:zoom="0.60535907"
     inkscape:cx="395.51311"
     inkscape:cy="448.0954"
     inkscape:window-x="0"
     inkscape:window-y="0"
     inkscape:window-maximized="1"
     inkscape:current-layer="g10" />
  <g
     inkscape:groupmode="layer"
     inkscape:label="Image"
     id="g10">
    <path
       id="path1571"
       style="fill:#000000;stroke-width:0.8"
       d="m 195.65088,206.27998 c -59.27715,-5.22057 -102.186263,-40.26772 -93.64642,-76.4882 1.20905,-5.12804 4.86569,-13.12836 7.8379,-17.14849 1.0216,-1.38179 1.37463,-2.52312 0.91215,-2.9489 -0.41498,-0.38204 -12.274509,-9.2375 -26.354509,-19.678776 -14.08,-10.44129 -26.099384,-19.458478 -26.709742,-20.038201 -0.885725,-0.841268 -0.159016,-0.821421 3.6,0.09832 2.590358,0.633798 20.81103,5.086767 40.490391,9.895489 l 35.78064,8.743131 6.69789,-3.138736 c 45.85408,-21.487947 112.70023,-18.109147 151.4193,7.653632 14.77629,9.831801 23.29528,20.167401 27.99996,33.970751 2.3048,6.7622 2.00424,18.74144 -0.64715,25.79324 -13.56466,36.07737 -67.34285,58.57427 -127.38041,53.28674 z m 34.06436,-1.47928 c 21.21482,-2.04676 37.70212,-6.51461 53.88476,-14.60208 10.59382,-5.29438 17.9561,-10.47721 24.95558,-17.56798 10.52558,-10.66285 15.00724,-20.64635 15.00724,-33.43064 0,-12.72279 -4.08245,-21.93733 -14.59345,-32.93907 C 275.69023,71.428047 198.81206,62.078463 146.4,86.489966 L 138,90.402358 101,81.334014 C 80.650001,76.346429 64.000001,72.381295 64.000001,72.522608 c 0,0.141312 10.89,8.409942 24.2,18.374726 13.309999,9.964796 24.470869,18.358276 24.801949,18.652176 0.33106,0.2939 -0.32778,1.7755 -1.46409,3.29243 -5.48275,7.31922 -9.11421,17.82129 -9.11421,26.35806 0,24.98124 25.01557,48.84644 62.51461,59.63979 20.41504,5.87606 43.57044,8.00687 64.77698,5.96091 z"
       sodipodi:nodetypes="sssssssscssssssssssscssssssss" />
    <path
       id="path1481"
       style="fill:#000000;stroke-width:0.8"
       d="m 485.60001,273.46663 c -36.48861,-3.43687 -69.90802,-19.06492 -84.39636,-39.46664 -11.01762,-15.51441 -12.80383,-30.05024 -5.61613,-45.70307 11.87222,-25.85448 46.98693,-44.74892 91.15143,-49.04654 34.30356,-3.33806 73.4287,4.5256 96.75337,19.44621 l 4.61161,2.95001 43.65119,-7.65559 c 24.00816,-4.21057 44.01107,-7.53562 44.4509,-7.38901 0.43984,0.14661 -14.18659,8.82553 -32.50316,19.28648 -18.31656,10.46096 -33.30285,19.1934 -33.30285,19.40544 0,0.21204 0.56832,1.48455 1.26293,2.82778 3.5976,6.95698 5.13477,18.15581 3.55211,25.87829 -2.10671,10.27948 -8.51904,21.05032 -17.46053,29.32856 -24.31988,22.51592 -68.11956,34.28574 -112.15451,30.13808 z m 44.8,-2.641 c 50.55572,-7.71505 86.32606,-36.43599 83.72583,-67.22564 -0.46478,-5.50355 -2.37018,-12.25791 -4.76359,-16.88625 l -1.21357,-2.34678 30.75601,-17.48648 c 16.9158,-9.61756 30.65235,-17.58688 30.52566,-17.7096 -0.12668,-0.12273 -18.51258,2.99148 -40.85755,6.92045 l -40.62721,7.14359 -6.01785,-3.65308 C 568.86002,151.6492 551.27947,145.52849 532.03049,142.21 c -14.45869,-2.49265 -42.40228,-2.49265 -56.86096,0 -29.74045,5.1272 -52.84824,15.96056 -67.85077,31.8097 -13.27085,14.01974 -17.50503,29.93385 -12.1239,45.56747 3.77852,10.97759 14.33519,23.54882 26.40515,31.44413 16.24268,10.62481 40.15814,18.47328 63.77368,20.92897 9.86377,1.02568 35.02473,0.39164 45.02632,-1.13464 z"
       sodipodi:nodetypes="ssssscssssssssssscssscssssssss" />
    <path
       id="path1353"
       style="fill:#000000;stroke-width:0.8"
       d="m 203.2,383.11783 c -29.88678,-3.36017 -56.87017,-15.22502 -74.40791,-32.71784 -17.00559,-16.96204 -24.91775,-38.24148 -21.56566,-58 0.44788,-2.64 0.89516,-5.40249 0.99395,-6.13885 0.12831,-0.9564 -7.01911,-5.95812 -25.020379,-17.50911 -13.86,-8.89364 -25.457126,-16.39628 -25.77139,-16.67254 -0.314264,-0.27625 14.805736,0.27931 33.599998,1.23458 l 34.171391,1.73687 3.6,-3.38309 c 19.38573,-18.21767 45.43357,-29.34936 75.88476,-32.42978 52.97382,-5.35878 105.11497,18.82216 121.53272,56.36192 17.72624,40.53168 -8.32903,83.56734 -61.21825,101.11463 -18.46899,6.12754 -42.29431,8.59615 -61.79923,6.40321 z m 34,-1.91399 c 41.00303,-5.34107 72.62907,-24.61095 86.37185,-52.62675 4.46265,-9.09749 6.03742,-14.87594 6.58883,-24.1771 1.06535,-17.97036 -5.98107,-35.12484 -20.56068,-50.05488 -43.19969,-44.238 -132.09229,-45.86314 -177.72297,-3.24912 l -5.90582,5.51538 -28.785601,-1.52138 c -15.832088,-0.83676 -29.98875,-1.42432 -31.459258,-1.30569 -2.432961,0.19628 -0.602437,1.54803 20.334018,15.01569 12.654216,8.14 23.269771,14.98 23.590111,15.2 0.32035,0.22 0.0515,3.1 -0.59741,6.4 -1.39245,7.08115 -0.98674,18.76283 0.903,26 1.72802,6.61786 7.52844,18.15753 12.28104,24.43259 22.29657,29.43907 70.07717,46.21808 114.96289,40.37126 z"
       sodipodi:nodetypes="ssssssscsssssssssscssssssss" />
    <path
       id="path1277"
       style="fill:#000000;stroke-width:0.8"
       d="m 475.65089,419.07997 c -40.89588,-3.60172 -77.39315,-22.6632 -89.44223,-46.71312 -3.82477,-7.63422 -4.97045,-12.32876 -4.97045,-20.36686 0,-17.57017 9.82712,-32.89197 29.48592,-45.97249 24.63389,-16.39082 63.46107,-24.66819 99.33693,-21.17712 32.79239,3.191 60.60942,14.32654 78.50992,31.42857 l 6.23401,5.95594 41.0973,0.5949 c 22.60352,0.3272 40.6024,0.85796 39.99751,1.17948 -0.60489,0.32151 -16.62308,5.93711 -35.59598,12.47911 l -34.4962,11.89455 -0.47032,6.00852 c -1.3109,16.74704 -11.22524,31.31401 -29.66141,43.58103 -24.84716,16.53272 -62.27943,24.43177 -100.025,21.10749 z m 34.41017,-1.53036 c 33.6639,-3.27582 62.10566,-15.02341 78.87952,-32.58042 9.65776,-10.10866 13.98538,-19.18222 14.82527,-31.08359 l 0.46278,-6.55769 27.28569,-9.39351 c 15.00713,-5.16642 29.42975,-10.17558 32.05028,-11.13145 l 4.76459,-1.73795 -21.16459,-0.53086 c -11.64053,-0.29198 -28.37425,-0.53161 -37.18605,-0.53251 l -16.02145,-0.002 -5.57855,-5.65717 c -43.13957,-43.74764 -148.82945,-43.3668 -190.91912,0.68797 -9.47446,9.9168 -13.91958,19.08123 -14.79518,30.50301 -1.52973,19.9542 13.69186,40.41059 39.6774,53.32273 24.92508,12.3852 56.71524,17.71008 87.71941,14.69308 z"
       sodipodi:nodetypes="sssssscssscssscsscsscsccsssscc" />
    <path
       id="path1201"
       style="fill:#000000;stroke-width:0.8"
       d="m 206.4,515.46289 c -27.14508,-1.94208 -53.80166,-10.16467 -71.84981,-22.16305 -7.08796,-4.71208 -16.67919,-14.84747 -19.80301,-20.92656 l -2.45283,-4.77329 -27.782181,-5.96939 c -16.121248,-3.46388 -27.179879,-6.19141 -26.347181,-6.49836 0.789257,-0.29092 13.391036,-2.97248 28.003957,-5.959 l 26.568935,-5.43005 2.16045,-4.4158 c 2.74325,-5.60699 12.28658,-15.6309 19.46998,-20.45045 25.40669,-17.04603 65.08079,-25.49725 103.66138,-22.08153 35.73123,3.16344 64.8245,14.57927 81.41782,31.9473 16.51016,17.28099 16.52849,37.21438 0.0501,54.46213 -16.57857,17.3526 -44.96499,28.57082 -80.92365,31.98075 -7.93099,0.75209 -23.64471,0.88752 -32.17394,0.2773 z m 42.4,-2.96322 c 12.33272,-1.95021 19.76924,-3.65414 28.66344,-6.56767 28.29636,-9.2692 47.13636,-24.62009 51.82446,-42.22672 3.09388,-11.61939 -1.1151,-24.11623 -11.73488,-34.84185 -36.8441,-37.21133 -132.27616,-42.02263 -181.70719,-9.16094 -7.85675,5.22315 -15.89827,13.58356 -19.15329,19.91282 -1.64407,3.19682 -3.31557,5.38826 -4.29254,5.62779 -0.88,0.21574 -12.01826,2.55257 -24.751695,5.19294 -12.733432,2.64037 -23.255046,4.90402 -23.381363,5.03034 -0.126317,0.12632 9.571946,2.30497 21.551699,4.84145 30.305449,6.41658 27.391729,5.39714 29.865449,10.44913 10.97362,22.41106 45.85744,39.1502 89.91591,43.14652 7.47077,0.67764 35.87413,-0.24535 43.2,-1.40381 z"
       sodipodi:nodetypes="ssscssscsssssssssssssssssssss" />
    <path
       id="path1005"
       style="fill:#000000;stroke-width:0.8"
       d="m 453.60001,587.97559 c -62.38668,-4.85936 -113.02453,-28.93665 -128.48965,-61.09425 -18.96699,-39.43922 17.92573,-80.13001 87.68965,-96.71721 7.37654,-1.75386 17.21872,-3.48403 28.8,-5.0628 12.30435,-1.67733 47.87264,-1.93196 61.45813,-0.43996 55.36556,6.08041 98.95265,26.31436 117.1038,54.36179 1.62906,2.51726 3.27313,4.94105 3.65348,5.38622 0.38036,0.44517 12.68296,4.03001 27.33913,7.96632 20.42824,5.48655 26.20388,7.30598 24.74652,7.79559 -1.04559,0.35127 -12.31564,4.35032 -25.04457,8.88678 l -23.1435,8.24812 -2.10048,5.18542 c -9.81405,24.22778 -37.47657,44.35204 -76.81251,55.88049 -13.96069,4.09155 -24.29715,6.2039 -41.2,8.41961 -11.59534,1.51997 -41.31896,2.17163 -54,1.18388 z m 41.6,-1.59811 c 27.42987,-2.07913 53.42318,-8.06532 74.95414,-17.26175 27.92767,-11.92862 48.55095,-30.27116 54.39875,-48.38273 l 1.44228,-4.46697 22.06858,-7.8031 c 12.13772,-4.29169 22.47523,-8.05441 22.97226,-8.36159 0.49702,-0.30718 -7.63275,-2.85122 -18.06616,-5.65344 -10.43342,-2.80221 -21.52901,-5.78684 -24.65688,-6.63251 -5.24732,-1.4187 -5.83064,-1.79573 -7.5447,-4.87649 -5.29815,-9.52266 -15.49258,-19.89041 -27.0267,-27.48622 -53.42132,-35.18069 -149.07023,-40.76963 -215.09572,-12.56844 -16.45718,7.02928 -28.40302,14.75965 -38.72021,25.05651 -11.80389,11.78065 -17.27297,22.55253 -18.11645,35.68217 -2.28947,35.63763 41.36296,68.56448 105.41323,79.51275 21.57624,3.68808 46.44399,4.87401 67.97758,3.24181 z"
       sodipodi:nodetypes="sssssssssscssssssscsssssssssss" />
    <path
       id="path935"
       style="fill:#000000;stroke-width:0.8"
       d="m 206.4,659.46289 c -27.14508,-1.94208 -53.80166,-10.16467 -71.84981,-22.16306 -7.08796,-4.71207 -16.67919,-14.84746 -19.80301,-20.92655 l -2.45283,-4.7733 -27.782181,-5.96939 c -16.121248,-3.46387 -27.179879,-6.19141 -26.347181,-6.49835 0.789257,-0.29093 13.391036,-2.97248 28.003957,-5.95901 l 26.568935,-5.43005 2.16045,-4.41579 c 2.74325,-5.607 12.28658,-15.6309 19.46998,-20.45045 25.40669,-17.04603 65.08079,-25.49725 103.66138,-22.08154 35.73123,3.16345 64.8245,14.57927 81.41782,31.94731 16.51016,17.28099 16.52849,37.21438 0.0501,54.46213 -16.57857,17.3526 -44.96499,28.57082 -80.92365,31.98074 -7.93099,0.7521 -23.64471,0.88753 -32.17394,0.27731 z m 42.4,-2.96322 c 12.33272,-1.95021 19.76924,-3.65414 28.66344,-6.56767 28.29636,-9.2692 47.13636,-24.6201 51.82446,-42.22673 3.09388,-11.61938 -1.1151,-24.11622 -11.73488,-34.84184 -36.8441,-37.21133 -132.27616,-42.02264 -181.70719,-9.16095 -7.85675,5.22315 -15.89827,13.58357 -19.15329,19.91283 -1.64407,3.19682 -3.31557,5.38826 -4.29254,5.62779 -0.88,0.21574 -12.01826,2.55256 -24.751695,5.19293 -12.733432,2.64038 -23.255046,4.90403 -23.381363,5.03035 -0.126317,0.12632 9.571946,2.30496 21.551699,4.84144 30.305449,6.41659 27.391729,5.39715 29.865449,10.44914 10.97362,22.41106 45.85744,39.1502 89.91591,43.14652 7.47077,0.67764 35.87413,-0.24535 43.2,-1.40381 z"
       sodipodi:nodetypes="ssscssscsssssssssssssssssssss" />
    <path
       id="path837"
       style="fill:#000000;stroke-width:0.8"
       d="m 501.20001,719.16159 c -57.33561,-4.76606 -100.66169,-22.79646 -112.48392,-46.81082 -2.44555,-4.9676 -2.71608,-6.19781 -2.71608,-12.35079 0,-6.07268 0.28537,-7.41332 2.56275,-12.03932 6.93249,-14.08191 24.57511,-26.32177 50.63102,-35.12614 60.44484,-20.42448 148.74933,-15.66943 195.60623,10.53306 25.93551,14.5032 34.99823,32.92848 25.05075,50.93031 -1.30621,2.36384 -2.077,4.56369 -1.71285,4.88855 0.36416,0.32485 6.13009,4.73569 12.81319,9.80186 l 12.15109,9.21123 -26.55109,0.57207 -26.55109,0.57207 -6,2.66405 c -16.81847,7.46755 -39.01531,12.98971 -64.4,16.02153 -12.51591,1.49483 -46.18566,2.14767 -58.4,1.13234 z m 45.6,-1.57471 c 29.29901,-2.11005 58.43916,-8.6309 77.11266,-17.25592 l 5.91267,-2.73098 14.88733,-0.10847 c 8.18803,-0.0597 19.13345,-0.32966 24.32314,-0.6 l 9.4358,-0.49153 -11.54289,-8.61361 -11.54289,-8.61363 3.30709,-6.47519 c 3.09402,-6.05799 3.30451,-6.8947 3.26695,-12.98637 -0.0342,-5.54063 -0.38808,-7.21043 -2.37432,-11.20208 -12.94392,-26.01283 -63.03088,-44.67708 -125.18554,-46.64876 -50.10756,-1.58952 -99.00028,9.01212 -126.42772,27.41394 -7.23262,4.85255 -15.16056,13.29541 -18.05933,19.23225 -1.97437,4.04361 -2.29167,5.63497 -2.29167,11.49345 0,9.4578 2.30839,14.11335 11.50339,23.2 18.91051,18.6877 55.47821,30.64163 106.07533,34.67589 7.70673,0.61448 31.33393,0.45034 41.6,-0.28899 z"
       sodipodi:nodetypes="ssssssssscccssssscsscccssssssssss" />
    <text
       xml:space="preserve"
       id="text1750"
       style="font-style:normal;font-variant:normal;font-weight:normal;font-stretch:normal;font-size:21.3333px;line-height:1.25;font-family:Verdana;-inkscape-font-specification:Verdana;font-variant-ligatures:normal;font-variant-caps:normal;font-variant-numeric:normal;font-feature-settings:normal;text-align:center;letter-spacing:0px;word-spacing:0px;writing-mode:lr-tb;white-space:pre;shape-inside:url(#rect1752);fill:#000000;fill-opacity:1;stroke:none"
       x="50.987919"
       y="0"
       transform="translate(-0.4677568,4.3840734)"><tspan
         x="169.91804"
         y="115.64661"><tspan
           style="shape-inside:url(#rect1752)">Čo mám
</tspan></tspan><tspan
         x="175.8347"
         y="142.31324"><tspan
           style="shape-inside:url(#rect1752)">doniesť
</tspan></tspan><tspan
         x="154.27744"
         y="168.97986"><tspan
           style="shape-inside:url(#rect1752)">z obchodu?
</tspan></tspan></text>
    <text
       xml:space="preserve"
       id="text1750-6"
       style="font-style:normal;font-variant:normal;font-weight:normal;font-stretch:normal;font-size:21.3333px;line-height:1.25;font-family:Verdana;-inkscape-font-specification:Verdana;font-variant-ligatures:normal;font-variant-caps:normal;font-variant-numeric:normal;font-feature-settings:normal;text-align:center;letter-spacing:0px;word-spacing:0px;writing-mode:lr-tb;white-space:pre;shape-inside:url(#rect1752-3);fill:#000000;fill-opacity:1;stroke:none;"
       x="50.987919"
       y="0"
       transform="translate(265.73908,77.701761)"><tspan
         x="154.14857"
         y="115.64661"><tspan
           style="shape-inside:url(#rect1752-3)">Hrach, špagety,
</tspan></tspan><tspan
         x="157.45065"
         y="142.31324"><tspan
           style="shape-inside:url(#rect1752-3)">párky a jablká.</tspan></tspan></text>
    <text
       xml:space="preserve"
       id="text1750-6-5"
       style="font-style:normal;font-variant:normal;font-weight:normal;font-stretch:normal;font-size:21.3333px;line-height:1.25;font-family:Verdana;-inkscape-font-specification:Verdana;font-variant-ligatures:normal;font-variant-caps:normal;font-variant-numeric:normal;font-feature-settings:normal;text-align:center;letter-spacing:0px;word-spacing:0px;writing-mode:lr-tb;white-space:pre;shape-inside:url(#rect1752-3-7);fill:#000000;fill-opacity:1;stroke:none;"
       x="50.987919"
       y="0"
       transform="translate(-41.988343,156.4438)"><tspan
         x="187.92004"
         y="115.64661"><tspan
           style="shape-inside:url(#rect1752-3-7)">Ja si poprosím
</tspan></tspan><tspan
         x="193.56587"
         y="142.31324"><tspan
           style="shape-inside:url(#rect1752-3-7)">niečo zdravé,
</tspan></tspan><tspan
         x="211.83146"
         y="168.97986"><tspan
           style="shape-inside:url(#rect1752-3-7)">pomaranč
</tspan></tspan><tspan
         x="213.18563"
         y="195.64649"><tspan
           style="shape-inside:url(#rect1752-3-7)">a uhorku.</tspan></tspan></text>
    <text
       xml:space="preserve"
       id="text1750-6-56"
       style="font-style:normal;font-variant:normal;font-weight:normal;font-stretch:normal;font-size:21.3333px;line-height:1.25;font-family:Verdana;-inkscape-font-specification:Verdana;font-variant-ligatures:normal;font-variant-caps:normal;font-variant-numeric:normal;font-feature-settings:normal;text-align:center;letter-spacing:0px;word-spacing:0px;writing-mode:lr-tb;white-space:pre;shape-inside:url(#rect1752-3-3);fill:#000000;fill-opacity:1;stroke:none;"
       x="50.987919"
       y="0"
       transform="translate(255.09225,223.76867)"><tspan
         x="174.22145"
         y="115.64661"><tspan
           style="shape-inside:url(#rect1752-3-3)">Mne postačí
</tspan></tspan><tspan
         x="154.08607"
         y="142.31324"><tspan
           style="shape-inside:url(#rect1752-3-3)">rožok a mango.</tspan></tspan></text>
    <text
       xml:space="preserve"
       id="text1750-6-1"
       style="font-style:normal;font-variant:normal;font-weight:normal;font-stretch:normal;font-size:21.3333px;line-height:1.25;font-family:Verdana;-inkscape-font-specification:Verdana;font-variant-ligatures:normal;font-variant-caps:normal;font-variant-numeric:normal;font-feature-settings:normal;text-align:center;letter-spacing:0px;word-spacing:0px;writing-mode:lr-tb;white-space:pre;shape-inside:url(#rect1752-3-2);fill:#000000;fill-opacity:1;stroke:none;"
       x="50.987919"
       y="0"
       transform="translate(-14.670425,327.21171)"><tspan
         x="181.77353"
         y="115.64661"><tspan
           style="shape-inside:url(#rect1752-3-2)">Nezabudni
</tspan></tspan><tspan
         x="154.63294"
         y="142.31324"><tspan
           style="shape-inside:url(#rect1752-3-2)">kúpiť aj orechy.</tspan></tspan></text>
    <text
       xml:space="preserve"
       id="text1750-6-9"
       style="font-style:normal;font-variant:normal;font-weight:normal;font-stretch:normal;font-size:21.3333px;line-height:1.25;font-family:Verdana;-inkscape-font-specification:Verdana;font-variant-ligatures:normal;font-variant-caps:normal;font-variant-numeric:normal;font-feature-settings:normal;text-align:center;letter-spacing:0px;word-spacing:0px;writing-mode:lr-tb;white-space:pre;shape-inside:url(#rect1752-3-27);fill:#000000;fill-opacity:1;stroke:none;"
       x="50.987919"
       y="0"
       transform="translate(209.05948,359.64744)"><tspan
         x="193.82207"
         y="115.64661"><tspan
           style="shape-inside:url(#rect1752-3-27)">Na víkend ešte
</tspan></tspan><tspan
         x="155.47838"
         y="142.31324"><tspan
           style="shape-inside:url(#rect1752-3-27)">potrebujeme tarhoňu,
</tspan></tspan><tspan
         x="192.17624"
         y="168.97986"><tspan
           style="shape-inside:url(#rect1752-3-27)">klobásu, čierne
</tspan></tspan><tspan
         x="174.48876"
         y="195.64649"><tspan
           style="shape-inside:url(#rect1752-3-27)">korenie a čerešne.</tspan></tspan></text>
    <text
       xml:space="preserve"
       id="text1750-6-2"
       style="font-style:normal;font-variant:normal;font-weight:normal;font-stretch:normal;font-size:21.3333px;line-height:1.25;font-family:Verdana;-inkscape-font-specification:Verdana;font-variant-ligatures:normal;font-variant-caps:normal;font-variant-numeric:normal;font-feature-settings:normal;text-align:center;letter-spacing:0px;word-spacing:0px;writing-mode:lr-tb;white-space:pre;shape-inside:url(#rect1752-3-36);fill:#000000;fill-opacity:1;stroke:none;"
       x="50.987919"
       y="0"
       transform="translate(-17.238499,471.82652)"><tspan
         x="174.0652"
         y="115.64661"><tspan
           style="shape-inside:url(#rect1752-3-36)">Ja si prosím
</tspan></tspan><tspan
         x="153.54961"
         y="142.31324"><tspan
           style="shape-inside:url(#rect1752-3-36)">žemľu s rascou.</tspan></tspan></text>
    <text
       xml:space="preserve"
       id="text1750-6-8"
       style="font-style:normal;font-variant:normal;font-weight:normal;font-stretch:normal;font-size:21.3333px;line-height:1.25;font-family:Verdana;-inkscape-font-specification:Verdana;font-variant-ligatures:normal;font-variant-caps:normal;font-variant-numeric:normal;font-feature-settings:normal;text-align:center;letter-spacing:0px;word-spacing:0px;writing-mode:lr-tb;white-space:pre;shape-inside:url(#rect1752-3-6);fill:#000000;fill-opacity:1;stroke:none;"
       x="50.987919"
       y="0"
       transform="translate(266.72134,532.94294)"><tspan
         x="192.63098"
         y="115.64661"><tspan
           style="shape-inside:url(#rect1752-3-6)">A tiež bagetu,
</tspan></tspan><tspan
         x="160.1102"
         y="142.31324"><tspan
           style="shape-inside:url(#rect1752-3-6)">hrozno a pelendrek.</tspan></tspan></text>
  </g>
</svg>
