<?xml version="1.0" encoding="UTF-8" standalone="no"?>
<svg
   width="2427.1819"
   height="382.02853"
   viewBox="0 0 2427.1819 382.02854"
   version="1.2"
   id="svg482"
   sodipodi:docname="akordy-1.svg"
   inkscape:version="1.1 (c68e22c387, 2021-05-23)"
   inkscape:export-filename="C:\Users\HP\Desktop\Suši\akordy-1.png"
   inkscape:export-xdpi="600.04498"
   inkscape:export-ydpi="600.04498"
   xmlns:inkscape="http://www.inkscape.org/namespaces/inkscape"
   xmlns:sodipodi="http://sodipodi.sourceforge.net/DTD/sodipodi-0.dtd"
   xmlns="http://www.w3.org/2000/svg"
   xmlns:svg="http://www.w3.org/2000/svg"
   xmlns:rdf="http://www.w3.org/1999/02/22-rdf-syntax-ns#"
   xmlns:cc="http://creativecommons.org/ns#"
   xmlns:dc="http://purl.org/dc/elements/1.1/">
  <defs
     id="defs486" />
  <sodipodi:namedview
     id="namedview484"
     pagecolor="#ffffff"
     bordercolor="#666666"
     borderopacity="1.0"
     inkscape:pageshadow="2"
     inkscape:pageopacity="0.0"
     inkscape:pagecheckerboard="0"
     showgrid="false"
     inkscape:snap-center="true"
     fit-margin-top="0"
     fit-margin-left="0"
     fit-margin-right="0"
     fit-margin-bottom="0"
     inkscape:zoom="0.81931376"
     inkscape:cx="753.06925"
     inkscape:cy="370.43196"
     inkscape:window-width="1920"
     inkscape:window-height="1051"
     inkscape:window-x="-9"
     inkscape:window-y="-9"
     inkscape:window-maximized="1"
     inkscape:current-layer="svg482" />
  <title
     id="title2">Bez názvu</title>
  <desc
     id="desc4">Generated by MuseScore 3.6.2</desc>
  <polyline
     class="StaffLines"
     fill="none"
     stroke="#000000"
     stroke-width="2.73"
     stroke-linejoin="bevel"
     points="336.598,411.727 2763.78,411.727"
     id="polyline6"
     transform="translate(-336.598,-212.59848)" />
  <polyline
     class="StaffLines"
     fill="none"
     stroke="#000000"
     stroke-width="2.73"
     stroke-linejoin="bevel"
     points="336.598,436.527 2763.78,436.527"
     id="polyline8"
     transform="translate(-336.598,-212.59848)" />
  <polyline
     class="StaffLines"
     fill="none"
     stroke="#000000"
     stroke-width="2.73"
     stroke-linejoin="bevel"
     points="336.598,461.327 2763.78,461.327"
     id="polyline10"
     transform="translate(-336.598,-212.59848)" />
  <polyline
     class="StaffLines"
     fill="none"
     stroke="#000000"
     stroke-width="2.73"
     stroke-linejoin="bevel"
     points="336.598,486.127 2763.78,486.127"
     id="polyline12"
     transform="translate(-336.598,-212.59848)" />
  <polyline
     class="StaffLines"
     fill="none"
     stroke="#000000"
     stroke-width="2.73"
     stroke-linejoin="bevel"
     points="336.598,510.927 2763.78,510.927"
     id="polyline14"
     transform="translate(-336.598,-212.59848)" />
  <polyline
     class="BarLine"
     fill="none"
     stroke="#000000"
     stroke-width="4.46"
     stroke-linejoin="bevel"
     points="1634.21,410.363 1634.21,512.291"
     id="polyline102"
     transform="translate(-629.52606,-212.59848)" />
  <polyline
     class="BarLine"
     fill="none"
     stroke="#000000"
     stroke-width="4.46"
     stroke-linejoin="bevel"
     points="2761.55,410.363 2761.55,512.291"
     id="polyline106"
     transform="translate(-336.598,-212.59848)" />
  <polyline
     class="LedgerLine"
     fill="none"
     stroke="#000000"
     stroke-width="3.97"
     stroke-linejoin="bevel"
     points="597.572,386.927 647.164,386.927"
     id="polyline166"
     transform="translate(-336.598,-212.59848)" />
  <polyline
     class="LedgerLine"
     fill="none"
     stroke="#000000"
     stroke-width="3.97"
     stroke-linejoin="bevel"
     points="597.572,362.127 647.164,362.127"
     id="polyline168"
     transform="translate(-336.598,-212.59848)" />
  <polyline
     class="LedgerLine"
     fill="none"
     stroke="#000000"
     stroke-width="3.97"
     stroke-linejoin="bevel"
     points="597.572,337.327 647.164,337.327"
     id="polyline170"
     transform="translate(-336.598,-212.59848)" />
  <polyline
     class="LedgerLine"
     fill="none"
     stroke="#000000"
     stroke-width="3.97"
     stroke-linejoin="bevel"
     points="597.572,312.527 647.164,312.527"
     id="polyline172"
     transform="translate(-336.598,-212.59848)" />
  <polyline
     class="LedgerLine"
     fill="none"
     stroke="#000000"
     stroke-width="3.97"
     stroke-linejoin="bevel"
     points="597.572,287.727 647.164,287.727"
     id="polyline174"
     transform="translate(-336.598,-212.59848)" />
  <polyline
     class="LedgerLine"
     fill="none"
     stroke="#000000"
     stroke-width="3.97"
     stroke-linejoin="bevel"
     points="831.637,386.927 881.229,386.927"
     id="polyline176"
     transform="translate(-336.598,-212.59848)" />
  <polyline
     class="LedgerLine"
     fill="none"
     stroke="#000000"
     stroke-width="3.97"
     stroke-linejoin="bevel"
     points="831.637,362.127 881.229,362.127"
     id="polyline178"
     transform="translate(-336.598,-212.59848)" />
  <polyline
     class="LedgerLine"
     fill="none"
     stroke="#000000"
     stroke-width="3.97"
     stroke-linejoin="bevel"
     points="831.637,337.327 881.229,337.327"
     id="polyline180"
     transform="translate(-336.598,-212.59848)" />
  <polyline
     class="LedgerLine"
     fill="none"
     stroke="#000000"
     stroke-width="3.97"
     stroke-linejoin="bevel"
     points="831.637,312.527 881.229,312.527"
     id="polyline182"
     transform="translate(-336.598,-212.59848)" />
  <polyline
     class="LedgerLine"
     fill="none"
     stroke="#000000"
     stroke-width="3.97"
     stroke-linejoin="bevel"
     points="831.637,287.727 881.229,287.727"
     id="polyline184"
     transform="translate(-336.598,-212.59848)" />
  <polyline
     class="LedgerLine"
     fill="none"
     stroke="#000000"
     stroke-width="3.97"
     stroke-linejoin="bevel"
     points="831.637,262.927 881.229,262.927"
     id="polyline186"
     transform="translate(-336.598,-212.59848)" />
  <polyline
     class="LedgerLine"
     fill="none"
     stroke="#000000"
     stroke-width="3.97"
     stroke-linejoin="bevel"
     points="1111.09,386.927 1190.18,386.927"
     id="polyline188"
     transform="translate(-336.598,-212.59848)" />
  <polyline
     class="LedgerLine"
     fill="none"
     stroke="#000000"
     stroke-width="3.97"
     stroke-linejoin="bevel"
     points="1111.09,362.127 1190.18,362.127"
     id="polyline190"
     transform="translate(-336.598,-212.59848)" />
  <polyline
     class="LedgerLine"
     fill="none"
     stroke="#000000"
     stroke-width="3.97"
     stroke-linejoin="bevel"
     points="1111.09,337.327 1190.18,337.327"
     id="polyline192"
     transform="translate(-336.598,-212.59848)" />
  <polyline
     class="LedgerLine"
     fill="none"
     stroke="#000000"
     stroke-width="3.97"
     stroke-linejoin="bevel"
     points="1381.94,386.927 1431.53,386.927"
     id="polyline194"
     transform="translate(-336.598,-212.59848)" />
  <polyline
     class="LedgerLine"
     fill="none"
     stroke="#000000"
     stroke-width="3.97"
     stroke-linejoin="bevel"
     points="1381.94,362.127 1431.53,362.127"
     id="polyline196"
     transform="translate(-336.598,-212.59848)" />
  <polyline
     class="LedgerLine"
     fill="none"
     stroke="#000000"
     stroke-width="3.97"
     stroke-linejoin="bevel"
     points="1381.94,337.327 1431.53,337.327"
     id="polyline198"
     transform="translate(-336.598,-212.59848)" />
  <polyline
     class="LedgerLine"
     fill="none"
     stroke="#000000"
     stroke-width="3.97"
     stroke-linejoin="bevel"
     points="1381.94,312.527 1431.53,312.527"
     id="polyline200"
     transform="translate(-336.598,-212.59848)" />
  <polyline
     class="LedgerLine"
     fill="none"
     stroke="#000000"
     stroke-width="3.97"
     stroke-linejoin="bevel"
     points="1381.94,287.727 1431.53,287.727"
     id="polyline202"
     transform="translate(-336.598,-212.59848)" />
  <polyline
     class="LedgerLine"
     fill="none"
     stroke="#000000"
     stroke-width="3.97"
     stroke-linejoin="bevel"
     points="1668.68,386.927 1718.27,386.927"
     id="polyline204"
     transform="translate(-336.598,-212.59848)" />
  <polyline
     class="LedgerLine"
     fill="none"
     stroke="#000000"
     stroke-width="3.97"
     stroke-linejoin="bevel"
     points="1668.68,362.127 1718.27,362.127"
     id="polyline206"
     transform="translate(-336.598,-212.59848)" />
  <polyline
     class="LedgerLine"
     fill="none"
     stroke="#000000"
     stroke-width="3.97"
     stroke-linejoin="bevel"
     points="1668.68,337.327 1718.27,337.327"
     id="polyline208"
     transform="translate(-336.598,-212.59848)" />
  <polyline
     class="LedgerLine"
     fill="none"
     stroke="#000000"
     stroke-width="3.97"
     stroke-linejoin="bevel"
     points="1668.68,312.527 1718.27,312.527"
     id="polyline210"
     transform="translate(-336.598,-212.59848)" />
  <polyline
     class="LedgerLine"
     fill="none"
     stroke="#000000"
     stroke-width="3.97"
     stroke-linejoin="bevel"
     points="1668.68,287.727 1718.27,287.727"
     id="polyline212"
     transform="translate(-336.598,-212.59848)" />
  <polyline
     class="LedgerLine"
     fill="none"
     stroke="#000000"
     stroke-width="3.97"
     stroke-linejoin="bevel"
     points="1668.68,262.927 1718.27,262.927"
     id="polyline214"
     transform="translate(-336.598,-212.59848)" />
  <polyline
     class="LedgerLine"
     fill="none"
     stroke="#000000"
     stroke-width="3.97"
     stroke-linejoin="bevel"
     points="1890.94,386.927 1970.04,386.927"
     id="polyline216"
     transform="translate(-336.598,-212.59848)" />
  <polyline
     class="LedgerLine"
     fill="none"
     stroke="#000000"
     stroke-width="3.97"
     stroke-linejoin="bevel"
     points="1890.94,362.127 1970.04,362.127"
     id="polyline218"
     transform="translate(-336.598,-212.59848)" />
  <polyline
     class="LedgerLine"
     fill="none"
     stroke="#000000"
     stroke-width="3.97"
     stroke-linejoin="bevel"
     points="1890.94,337.327 1970.04,337.327"
     id="polyline220"
     transform="translate(-336.598,-212.59848)" />
  <polyline
     class="LedgerLine"
     fill="none"
     stroke="#000000"
     stroke-width="3.97"
     stroke-linejoin="bevel"
     points="1920.44,312.527 1970.04,312.527"
     id="polyline222"
     transform="translate(-336.598,-212.59848)" />
  <polyline
     class="LedgerLine"
     fill="none"
     stroke="#000000"
     stroke-width="3.97"
     stroke-linejoin="bevel"
     points="1920.44,287.727 1970.04,287.727"
     id="polyline224"
     transform="translate(-336.598,-212.59848)" />
  <polyline
     class="LedgerLine"
     fill="none"
     stroke="#000000"
     stroke-width="3.97"
     stroke-linejoin="bevel"
     points="1920.44,262.927 1970.04,262.927"
     id="polyline226"
     transform="translate(-336.598,-212.59848)" />
  <polyline
     class="LedgerLine"
     fill="none"
     stroke="#000000"
     stroke-width="3.97"
     stroke-linejoin="bevel"
     points="1920.44,238.127 1970.04,238.127"
     id="polyline228"
     transform="translate(-336.598,-212.59848)" />
  <polyline
     class="LedgerLine"
     fill="none"
     stroke="#000000"
     stroke-width="3.97"
     stroke-linejoin="bevel"
     points="1920.44,535.727 1970.04,535.727"
     id="polyline230"
     transform="translate(-336.598,-212.59848)" />
  <polyline
     class="LedgerLine"
     fill="none"
     stroke="#000000"
     stroke-width="3.97"
     stroke-linejoin="bevel"
     points="2217.6,386.927 2296.69,386.927"
     id="polyline232"
     transform="translate(-336.598,-212.59848)" />
  <polyline
     class="LedgerLine"
     fill="none"
     stroke="#000000"
     stroke-width="3.97"
     stroke-linejoin="bevel"
     points="2217.6,362.127 2296.69,362.127"
     id="polyline234"
     transform="translate(-336.598,-212.59848)" />
  <polyline
     class="LedgerLine"
     fill="none"
     stroke="#000000"
     stroke-width="3.97"
     stroke-linejoin="bevel"
     points="2217.6,337.327 2296.69,337.327"
     id="polyline236"
     transform="translate(-336.598,-212.59848)" />
  <polyline
     class="LedgerLine"
     fill="none"
     stroke="#000000"
     stroke-width="3.97"
     stroke-linejoin="bevel"
     points="2217.6,312.527 2296.69,312.527"
     id="polyline238"
     transform="translate(-336.598,-212.59848)" />
  <polyline
     class="LedgerLine"
     fill="none"
     stroke="#000000"
     stroke-width="3.97"
     stroke-linejoin="bevel"
     points="2217.6,287.727 2296.69,287.727"
     id="polyline240"
     transform="translate(-336.598,-212.59848)" />
  <polyline
     class="LedgerLine"
     fill="none"
     stroke="#000000"
     stroke-width="3.97"
     stroke-linejoin="bevel"
     points="2217.6,262.927 2296.69,262.927"
     id="polyline242"
     transform="translate(-336.598,-212.59848)" />
  <polyline
     class="LedgerLine"
     fill="none"
     stroke="#000000"
     stroke-width="3.97"
     stroke-linejoin="bevel"
     points="2469.36,386.927 2548.46,386.927"
     id="polyline244"
     transform="translate(-336.598,-212.59848)" />
  <polyline
     class="LedgerLine"
     fill="none"
     stroke="#000000"
     stroke-width="3.97"
     stroke-linejoin="bevel"
     points="2469.36,362.127 2548.46,362.127"
     id="polyline246"
     transform="translate(-336.598,-212.59848)" />
  <polyline
     class="LedgerLine"
     fill="none"
     stroke="#000000"
     stroke-width="3.97"
     stroke-linejoin="bevel"
     points="2469.36,337.327 2548.46,337.327"
     id="polyline248"
     transform="translate(-336.598,-212.59848)" />
  <polyline
     class="LedgerLine"
     fill="none"
     stroke="#000000"
     stroke-width="3.97"
     stroke-linejoin="bevel"
     points="2469.36,312.527 2548.46,312.527"
     id="polyline250"
     transform="translate(-336.598,-212.59848)" />
  <polyline
     class="LedgerLine"
     fill="none"
     stroke="#000000"
     stroke-width="3.97"
     stroke-linejoin="bevel"
     points="2469.36,287.727 2548.46,287.727"
     id="polyline252"
     transform="translate(-336.598,-212.59848)" />
  <polyline
     class="LedgerLine"
     fill="none"
     stroke="#000000"
     stroke-width="3.97"
     stroke-linejoin="bevel"
     points="2469.36,262.927 2548.46,262.927"
     id="polyline254"
     transform="translate(-336.598,-212.59848)" />
  <polyline
     class="LedgerLine"
     fill="none"
     stroke="#000000"
     stroke-width="3.97"
     stroke-linejoin="bevel"
     points="2498.87,238.127 2548.46,238.127"
     id="polyline256"
     transform="translate(-336.598,-212.59848)" />
  <polyline
     class="Stem"
     fill="none"
     stroke="#000000"
     stroke-width="2.73"
     stroke-linejoin="bevel"
     points="607.616,291.06 607.616,585.327"
     id="polyline258"
     transform="translate(-336.598,-212.59848)" />
  <polyline
     class="Stem"
     fill="none"
     stroke="#000000"
     stroke-width="2.73"
     stroke-linejoin="bevel"
     points="841.681,253.86 841.681,576.027"
     id="polyline260"
     transform="translate(-336.598,-212.59848)" />
  <polyline
     class="Stem"
     fill="none"
     stroke="#000000"
     stroke-width="2.73"
     stroke-linejoin="bevel"
     points="1150.63,328.26 1150.63,576.027"
     id="polyline262"
     transform="translate(-336.598,-212.59848)" />
  <polyline
     class="Stem"
     fill="none"
     stroke="#000000"
     stroke-width="2.73"
     stroke-linejoin="bevel"
     points="1391.99,291.06 1391.99,585.327"
     id="polyline264"
     transform="translate(-336.598,-212.59848)" />
  <polyline
     class="Stem"
     fill="none"
     stroke="#000000"
     stroke-width="2.73"
     stroke-linejoin="bevel"
     points="1678.72,266.26 1678.72,585.327"
     id="polyline266"
     transform="translate(-336.598,-212.59848)" />
  <polyline
     class="Stem"
     fill="none"
     stroke="#000000"
     stroke-width="2.73"
     stroke-linejoin="bevel"
     points="1930.49,229.06 1930.49,594.627"
     id="polyline268"
     transform="translate(-336.598,-212.59848)" />
  <polyline
     class="Stem"
     fill="none"
     stroke="#000000"
     stroke-width="2.73"
     stroke-linejoin="bevel"
     points="2257.14,253.86 2257.14,585.327"
     id="polyline270"
     transform="translate(-336.598,-212.59848)" />
  <polyline
     class="Stem"
     fill="none"
     stroke="#000000"
     stroke-width="2.73"
     stroke-linejoin="bevel"
     points="2508.91,241.46 2508.91,585.327"
     id="polyline272"
     transform="translate(-336.598,-212.59848)" />
  <path
     class="Note"
     d="m 300.902,302.65302 c -1.78252,-3.2705 -5.54895,-5.05302 -10.12148,-5.05302 -3.36347,0 -7.03704,0.992 -10.61747,2.86748 -6.54105,3.47204 -10.50905,9.33104 -10.50905,14.38404 0,1.395 0.2945,2.79 0.992,4.07651 1.7825,3.28597 5.549,4.97554 10.12148,4.97554 3.36357,0 7.03704,-0.89905 10.61757,-2.77452 6.54095,-3.48753 10.50895,-9.34653 10.50895,-14.41503 0,-1.3795 -0.29452,-2.7745 -0.992,-4.061 m -4.26252,6.7425 c -1.68948,1.6895 -5.06843,3.76651 -8.63348,5.766 -3.56495,1.984 -7.14548,3.472 -9.517,3.968 -0.496,0.10851 -0.992,0.20151 -1.488,0.20151 -1.5965,0 -2.79,-0.589 -3.472,-1.891 -0.31,-0.496 -0.496,-1.085 -0.496,-1.68951 0,-1.085 0.682,-2.387 1.7825,-3.472 1.6895,-1.6895 4.95998,-3.7665 8.52502,-5.7505 3.58053,-1.984 7.14548,-3.472 9.53253,-3.968 0.496,-0.1085 0.992,-0.2015 1.488,-0.2015 1.58095,0 2.86747,0.589 3.56495,1.8755 0.29452,0.496 0.40305,1.1005 0.40305,1.6895 0,1.1005 -0.60453,2.2785 -1.68957,3.472"
     id="path274"
     style="stroke-width:0.992" />
  <path
     class="Note"
     d="m 271.398,240.65302 c -1.78252,-3.2705 -5.54895,-5.05302 -10.12148,-5.05302 -3.36347,0 -7.03704,0.992 -10.61747,2.86748 -6.54105,3.47204 -10.50905,9.33104 -10.50905,14.38404 0,1.395 0.2945,2.79 0.992,4.07651 1.7825,3.28597 5.549,4.97554 10.12148,4.97554 3.36357,0 7.03704,-0.89905 10.61757,-2.77452 6.54095,-3.48753 10.50895,-9.34653 10.50895,-14.41503 0,-1.3795 -0.29452,-2.7745 -0.992,-4.061 m -4.26252,6.7425 c -1.68948,1.6895 -5.06843,3.76651 -8.63348,5.766 -3.56495,1.984 -7.14548,3.472 -9.517,3.968 -0.496,0.10851 -0.992,0.20151 -1.488,0.20151 -1.5965,0 -2.79,-0.589 -3.472,-1.891 -0.31,-0.496 -0.496,-1.085 -0.496,-1.68951 0,-1.085 0.682,-2.387 1.7825,-3.472 1.6895,-1.6895 4.95998,-3.7665 8.52502,-5.7505 3.58053,-1.984 7.14548,-3.472 9.53253,-3.968 0.496,-0.1085 0.992,-0.2015 1.488,-0.2015 1.58095,0 2.86747,0.589 3.56495,1.8755 0.29452,0.496 0.40305,1.1005 0.40305,1.6895 0,1.1005 -0.60453,2.2785 -1.68957,3.472"
     id="path276"
     style="stroke-width:0.992" />
  <path
     class="Note"
     d="m 300.902,228.25302 c -1.78252,-3.2705 -5.54895,-5.05302 -10.12148,-5.05302 -3.36347,0 -7.03704,0.992 -10.61747,2.86748 -6.54105,3.47204 -10.50905,9.33104 -10.50905,14.38404 0,1.395 0.2945,2.79 0.992,4.07651 1.7825,3.28597 5.549,4.97554 10.12148,4.97554 3.36357,0 7.03704,-0.89905 10.61757,-2.77452 6.54095,-3.48753 10.50895,-9.34653 10.50895,-14.41503 0,-1.3795 -0.29452,-2.7745 -0.992,-4.061 m -4.26252,6.7425 c -1.68948,1.6895 -5.06843,3.76651 -8.63348,5.766 -3.56495,1.984 -7.14548,3.472 -9.517,3.968 -0.496,0.10851 -0.992,0.20151 -1.488,0.20151 -1.5965,0 -2.79,-0.589 -3.472,-1.891 -0.31,-0.496 -0.496,-1.085 -0.496,-1.68951 0,-1.085 0.682,-2.387 1.7825,-3.472 1.6895,-1.6895 4.95998,-3.7665 8.52502,-5.7505 3.58053,-1.984 7.14548,-3.472 9.53253,-3.968 0.496,-0.1085 0.992,-0.2015 1.488,-0.2015 1.58095,0 2.86747,0.589 3.56495,1.8755 0.29452,0.496 0.40305,1.1005 0.40305,1.6895 0,1.1005 -0.60453,2.2785 -1.68957,3.472"
     id="path278"
     style="stroke-width:0.992" />
  <path
     class="Note"
     d="m 300.902,153.85302 c -1.78252,-3.2705 -5.54895,-5.05302 -10.12148,-5.05302 -3.36347,0 -7.03704,0.992 -10.61747,2.86748 -6.54105,3.47204 -10.50905,9.33104 -10.50905,14.38404 0,1.395 0.2945,2.79 0.992,4.07651 1.7825,3.28597 5.549,4.97554 10.12148,4.97554 3.36357,0 7.03704,-0.89905 10.61757,-2.77452 6.54095,-3.48753 10.50895,-9.34653 10.50895,-14.41503 0,-1.3795 -0.29452,-2.7745 -0.992,-4.061 m -4.26252,6.7425 c -1.68948,1.6895 -5.06843,3.76651 -8.63348,5.766 -3.56495,1.984 -7.14548,3.472 -9.517,3.968 -0.496,0.10851 -0.992,0.20151 -1.488,0.20151 -1.5965,0 -2.79,-0.589 -3.472,-1.891 -0.31,-0.496 -0.496,-1.085 -0.496,-1.68951 0,-1.085 0.682,-2.387 1.7825,-3.472 1.6895,-1.6895 4.95998,-3.7665 8.52502,-5.7505 3.58053,-1.984 7.14548,-3.472 9.53253,-3.968 0.496,-0.1085 0.992,-0.2015 1.488,-0.2015 1.58095,0 2.86747,0.589 3.56495,1.8755 0.29452,0.496 0.40305,1.1005 0.40305,1.6895 0,1.1005 -0.60453,2.2785 -1.68957,3.472"
     id="path280"
     style="stroke-width:0.992" />
  <path
     class="Note"
     d="M 300.902,129.05302 C 299.11948,125.78252 295.35305,124 290.78052,124 c -3.36347,0 -7.03704,0.992 -10.61747,2.86748 -6.54105,3.47204 -10.50905,9.33104 -10.50905,14.38404 0,1.395 0.2945,2.79 0.992,4.07651 1.7825,3.28597 5.549,4.97554 10.12148,4.97554 3.36357,0 7.03704,-0.89905 10.61757,-2.77452 6.54095,-3.48753 10.50895,-9.34653 10.50895,-14.41503 0,-1.3795 -0.29452,-2.7745 -0.992,-4.061 m -4.26252,6.7425 c -1.68948,1.6895 -5.06843,3.76651 -8.63348,5.766 -3.56495,1.984 -7.14548,3.472 -9.517,3.968 -0.496,0.10851 -0.992,0.20151 -1.488,0.20151 -1.5965,0 -2.79,-0.589 -3.472,-1.891 -0.31,-0.496 -0.496,-1.085 -0.496,-1.68951 0,-1.085 0.682,-2.387 1.7825,-3.472 1.6895,-1.6895 4.95998,-3.7665 8.52502,-5.7505 3.58053,-1.984 7.14548,-3.472 9.53253,-3.968 0.496,-0.1085 0.992,-0.2015 1.488,-0.2015 1.58095,0 2.86747,0.589 3.56495,1.8755 0.29452,0.496 0.40305,1.1005 0.40305,1.6895 0,1.1005 -0.60453,2.2785 -1.68957,3.472"
     id="path282"
     style="stroke-width:0.992" />
  <path
     class="Note"
     d="M 300.902,67.05302 C 299.11948,63.782525 295.35305,62 290.78052,62 c -3.36347,0 -7.03704,0.992 -10.61747,2.867475 -6.54105,3.47205 -10.50905,9.33105 -10.50905,14.38405 0,1.395 0.2945,2.79 0.992,4.076505 1.7825,3.28597 5.549,4.975544 10.12148,4.975544 3.36357,0 7.03704,-0.899049 10.61757,-2.774524 6.54095,-3.487525 10.50895,-9.346525 10.50895,-14.41503 0,-1.379495 -0.29452,-2.774495 -0.992,-4.061 m -4.26252,6.742505 c -1.68948,1.6895 -5.06843,3.766505 -8.63348,5.766 -3.56495,1.984 -7.14548,3.472 -9.517,3.968 -0.496,0.108505 -0.992,0.201505 -1.488,0.201505 -1.5965,0 -2.79,-0.589 -3.472,-1.891 -0.31,-0.496 -0.496,-1.085 -0.496,-1.689505 0,-1.085 0.682,-2.387 1.7825,-3.472 1.6895,-1.6895 4.95998,-3.766505 8.52502,-5.750505 3.58053,-1.984 7.14548,-3.472 9.53253,-3.968 0.496,-0.108495 0.992,-0.201495 1.488,-0.201495 1.58095,0 2.86747,0.589 3.56495,1.875495 0.29452,0.496 0.40305,1.100505 0.40305,1.689505 0,1.100495 -0.60453,2.278495 -1.68957,3.472"
     id="path284"
     style="stroke-width:0.992" />
  <path
     class="Note"
     d="m 534.967,290.25302 c -1.78252,-3.2705 -5.54895,-5.05302 -10.12148,-5.05302 -3.36347,0 -7.03704,0.992 -10.61747,2.86748 -6.54105,3.47204 -10.50905,9.33104 -10.50905,14.38404 0,1.395 0.2945,2.79 0.992,4.07651 1.7825,3.28597 5.549,4.97554 10.12148,4.97554 3.36357,0 7.03704,-0.89905 10.61757,-2.77452 6.54095,-3.48753 10.50895,-9.34653 10.50895,-14.41503 0,-1.3795 -0.29452,-2.7745 -0.992,-4.061 m -4.26252,6.7425 c -1.68948,1.6895 -5.06843,3.76651 -8.63348,5.766 -3.56495,1.984 -7.14548,3.472 -9.517,3.968 -0.496,0.10851 -0.992,0.20151 -1.488,0.20151 -1.5965,0 -2.79,-0.589 -3.472,-1.891 -0.31,-0.496 -0.496,-1.085 -0.496,-1.68951 0,-1.085 0.682,-2.387 1.7825,-3.472 1.6895,-1.6895 4.95998,-3.7665 8.52502,-5.7505 3.58053,-1.984 7.14548,-3.472 9.53253,-3.968 0.496,-0.1085 0.992,-0.2015 1.488,-0.2015 1.58095,0 2.86747,0.589 3.56495,1.8755 0.29452,0.496 0.40305,1.1005 0.40305,1.6895 0,1.1005 -0.60453,2.2785 -1.68957,3.472"
     id="path286"
     style="stroke-width:0.992" />
  <path
     class="Note"
     d="m 534.967,215.85302 c -1.78252,-3.2705 -5.54895,-5.05302 -10.12148,-5.05302 -3.36347,0 -7.03704,0.992 -10.61747,2.86748 -6.54105,3.47204 -10.50905,9.33104 -10.50905,14.38404 0,1.395 0.2945,2.79 0.992,4.07651 1.7825,3.28597 5.549,4.97554 10.12148,4.97554 3.36357,0 7.03704,-0.89905 10.61757,-2.77452 6.54095,-3.48753 10.50895,-9.34653 10.50895,-14.41503 0,-1.3795 -0.29452,-2.7745 -0.992,-4.061 m -4.26252,6.7425 c -1.68948,1.6895 -5.06843,3.76651 -8.63348,5.766 -3.56495,1.984 -7.14548,3.472 -9.517,3.968 -0.496,0.10851 -0.992,0.20151 -1.488,0.20151 -1.5965,0 -2.79,-0.589 -3.472,-1.891 -0.31,-0.496 -0.496,-1.085 -0.496,-1.68951 0,-1.085 0.682,-2.387 1.7825,-3.472 1.6895,-1.6895 4.95998,-3.7665 8.52502,-5.7505 3.58053,-1.984 7.14548,-3.472 9.53253,-3.968 0.496,-0.1085 0.992,-0.2015 1.488,-0.2015 1.58095,0 2.86747,0.589 3.56495,1.8755 0.29452,0.496 0.40305,1.1005 0.40305,1.6895 0,1.1005 -0.60453,2.2785 -1.68957,3.472"
     id="path288"
     style="stroke-width:0.992" />
  <path
     class="Note"
     d="M 534.967,191.05302 C 533.18448,187.78252 529.41805,186 524.84552,186 c -3.36347,0 -7.03704,0.992 -10.61747,2.86748 -6.54105,3.47204 -10.50905,9.33104 -10.50905,14.38404 0,1.395 0.2945,2.79 0.992,4.07651 1.7825,3.28597 5.549,4.97554 10.12148,4.97554 3.36357,0 7.03704,-0.89905 10.61757,-2.77452 6.54095,-3.48753 10.50895,-9.34653 10.50895,-14.41503 0,-1.3795 -0.29452,-2.7745 -0.992,-4.061 m -4.26252,6.7425 c -1.68948,1.6895 -5.06843,3.76651 -8.63348,5.766 -3.56495,1.984 -7.14548,3.472 -9.517,3.968 -0.496,0.10851 -0.992,0.20151 -1.488,0.20151 -1.5965,0 -2.79,-0.589 -3.472,-1.891 -0.31,-0.496 -0.496,-1.085 -0.496,-1.68951 0,-1.085 0.682,-2.387 1.7825,-3.472 1.6895,-1.6895 4.95998,-3.7665 8.52502,-5.7505 3.58053,-1.984 7.14548,-3.472 9.53253,-3.968 0.496,-0.1085 0.992,-0.2015 1.488,-0.2015 1.58095,0 2.86747,0.589 3.56495,1.8755 0.29452,0.496 0.40305,1.1005 0.40305,1.6895 0,1.1005 -0.60453,2.2785 -1.68957,3.472"
     id="path290"
     style="stroke-width:0.992" />
  <path
     class="Note"
     d="M 534.967,129.05302 C 533.18448,125.78252 529.41805,124 524.84552,124 c -3.36347,0 -7.03704,0.992 -10.61747,2.86748 -6.54105,3.47204 -10.50905,9.33104 -10.50905,14.38404 0,1.395 0.2945,2.79 0.992,4.07651 1.7825,3.28597 5.549,4.97554 10.12148,4.97554 3.36357,0 7.03704,-0.89905 10.61757,-2.77452 6.54095,-3.48753 10.50895,-9.34653 10.50895,-14.41503 0,-1.3795 -0.29452,-2.7745 -0.992,-4.061 m -4.26252,6.7425 c -1.68948,1.6895 -5.06843,3.76651 -8.63348,5.766 -3.56495,1.984 -7.14548,3.472 -9.517,3.968 -0.496,0.10851 -0.992,0.20151 -1.488,0.20151 -1.5965,0 -2.79,-0.589 -3.472,-1.891 -0.31,-0.496 -0.496,-1.085 -0.496,-1.68951 0,-1.085 0.682,-2.387 1.7825,-3.472 1.6895,-1.6895 4.95998,-3.7665 8.52502,-5.7505 3.58053,-1.984 7.14548,-3.472 9.53253,-3.968 0.496,-0.1085 0.992,-0.2015 1.488,-0.2015 1.58095,0 2.86747,0.589 3.56495,1.8755 0.29452,0.496 0.40305,1.1005 0.40305,1.6895 0,1.1005 -0.60453,2.2785 -1.68957,3.472"
     id="path292"
     style="stroke-width:0.992" />
  <path
     class="Note"
     d="M 534.967,104.25302 C 533.18448,100.98252 529.41805,99.2 524.84552,99.2 c -3.36347,0 -7.03704,0.992 -10.61747,2.86748 -6.54105,3.47204 -10.50905,9.33104 -10.50905,14.38404 0,1.395 0.2945,2.79 0.992,4.07651 1.7825,3.28597 5.549,4.97554 10.12148,4.97554 3.36357,0 7.03704,-0.89905 10.61757,-2.77452 6.54095,-3.48753 10.50895,-9.34653 10.50895,-14.41503 0,-1.3795 -0.29452,-2.7745 -0.992,-4.061 m -4.26252,6.7425 c -1.68948,1.6895 -5.06843,3.76651 -8.63348,5.766 -3.56495,1.984 -7.14548,3.472 -9.517,3.968 -0.496,0.10851 -0.992,0.20151 -1.488,0.20151 -1.5965,0 -2.79,-0.589 -3.472,-1.891 -0.31,-0.496 -0.496,-1.085 -0.496,-1.68951 0,-1.085 0.682,-2.387 1.7825,-3.472 1.6895,-1.6895 4.95998,-3.7665 8.52502,-5.7505 3.58053,-1.984 7.14548,-3.472 9.53253,-3.968 0.496,-0.1085 0.992,-0.2015 1.488,-0.2015 1.58095,0 2.86747,0.589 3.56495,1.8755 0.29452,0.496 0.40305,1.1005 0.40305,1.6895 0,1.1005 -0.60453,2.2785 -1.68957,3.472"
     id="path294"
     style="stroke-width:0.992" />
  <path
     class="Note"
     d="M 534.967,29.85302 C 533.18448,26.582525 529.41805,24.8 524.84552,24.8 c -3.36347,0 -7.03704,0.992 -10.61747,2.867475 -6.54105,3.47205 -10.50905,9.33105 -10.50905,14.38405 0,1.395 0.2945,2.79 0.992,4.076505 1.7825,3.28597 5.549,4.975544 10.12148,4.975544 3.36357,0 7.03704,-0.899049 10.61757,-2.774524 6.54095,-3.487525 10.50895,-9.346525 10.50895,-14.41503 0,-1.379495 -0.29452,-2.774495 -0.992,-4.061 m -4.26252,6.742505 c -1.68948,1.6895 -5.06843,3.766505 -8.63348,5.766 -3.56495,1.984 -7.14548,3.472 -9.517,3.968 -0.496,0.108505 -0.992,0.201505 -1.488,0.201505 -1.5965,0 -2.79,-0.589 -3.472,-1.891 -0.31,-0.496 -0.496,-1.085 -0.496,-1.689505 0,-1.085 0.682,-2.387 1.7825,-3.472 1.6895,-1.6895 4.95998,-3.766505 8.52502,-5.750505 3.58053,-1.984 7.14548,-3.472 9.53253,-3.968 0.496,-0.108495 0.992,-0.201495 1.488,-0.201495 1.58095,0 2.86747,0.589 3.56495,1.875495 0.29452,0.496 0.40305,1.100505 0.40305,1.689505 0,1.100495 -0.60453,2.278495 -1.68957,3.472"
     id="path296"
     style="stroke-width:0.992" />
  <path
     class="Note"
     d="m 814.42,290.25302 c -1.78252,-3.2705 -5.54895,-5.05302 -10.12148,-5.05302 -3.36347,0 -7.03704,0.992 -10.61747,2.86748 -6.54105,3.47204 -10.50905,9.33104 -10.50905,14.38404 0,1.395 0.2945,2.79 0.992,4.07651 1.7825,3.28597 5.549,4.97554 10.12148,4.97554 3.36357,0 7.03704,-0.89905 10.61757,-2.77452 6.54095,-3.48753 10.50895,-9.34653 10.50895,-14.41503 0,-1.3795 -0.29452,-2.7745 -0.992,-4.061 m -4.26252,6.7425 c -1.68948,1.6895 -5.06843,3.76651 -8.63348,5.766 -3.56495,1.984 -7.14548,3.472 -9.517,3.968 -0.496,0.10851 -0.992,0.20151 -1.488,0.20151 -1.5965,0 -2.79,-0.589 -3.472,-1.891 -0.31,-0.496 -0.496,-1.085 -0.496,-1.68951 0,-1.085 0.682,-2.387 1.7825,-3.472 1.6895,-1.6895 4.95998,-3.7665 8.52502,-5.7505 3.58053,-1.984 7.14548,-3.472 9.53253,-3.968 0.496,-0.1085 0.992,-0.2015 1.488,-0.2015 1.58095,0 2.86747,0.589 3.56495,1.8755 0.29452,0.496 0.40305,1.1005 0.40305,1.6895 0,1.1005 -0.60453,2.2785 -1.68957,3.472"
     id="path298"
     style="stroke-width:0.992" />
  <path
     class="Note"
     d="m 843.92,277.85302 c -1.78252,-3.2705 -5.54895,-5.05302 -10.12148,-5.05302 -3.36347,0 -7.03704,0.992 -10.61747,2.86748 -6.54105,3.47204 -10.50905,9.33104 -10.50905,14.38404 0,1.395 0.2945,2.79 0.992,4.07651 1.7825,3.28597 5.549,4.97554 10.12148,4.97554 3.36357,0 7.03704,-0.89905 10.61757,-2.77452 6.54095,-3.48753 10.50895,-9.34653 10.50895,-14.41503 0,-1.3795 -0.29452,-2.7745 -0.992,-4.061 m -4.26252,6.7425 c -1.68948,1.6895 -5.06843,3.76651 -8.63348,5.766 -3.56495,1.984 -7.14548,3.472 -9.517,3.968 -0.496,0.10851 -0.992,0.20151 -1.488,0.20151 -1.5965,0 -2.79,-0.589 -3.472,-1.891 -0.31,-0.496 -0.496,-1.085 -0.496,-1.68951 0,-1.085 0.682,-2.387 1.7825,-3.472 1.6895,-1.6895 4.95998,-3.7665 8.52502,-5.7505 3.58053,-1.984 7.14548,-3.472 9.53253,-3.968 0.496,-0.1085 0.992,-0.2015 1.488,-0.2015 1.58095,0 2.86747,0.589 3.56495,1.8755 0.29452,0.496 0.40305,1.1005 0.40305,1.6895 0,1.1005 -0.60453,2.2785 -1.68957,3.472"
     id="path300"
     style="stroke-width:0.992" />
  <path
     class="Note"
     d="m 843.92,203.45302 c -1.78252,-3.2705 -5.54895,-5.05302 -10.12148,-5.05302 -3.36347,0 -7.03704,0.992 -10.61747,2.86748 -6.54105,3.47204 -10.50905,9.33104 -10.50905,14.38404 0,1.395 0.2945,2.79 0.992,4.07651 1.7825,3.28597 5.549,4.97554 10.12148,4.97554 3.36357,0 7.03704,-0.89905 10.61757,-2.77452 6.54095,-3.48753 10.50895,-9.34653 10.50895,-14.41503 0,-1.3795 -0.29452,-2.7745 -0.992,-4.061 m -4.26252,6.7425 c -1.68948,1.6895 -5.06843,3.76651 -8.63348,5.766 -3.56495,1.984 -7.14548,3.472 -9.517,3.968 -0.496,0.10851 -0.992,0.20151 -1.488,0.20151 -1.5965,0 -2.79,-0.589 -3.472,-1.891 -0.31,-0.496 -0.496,-1.085 -0.496,-1.68951 0,-1.085 0.682,-2.387 1.7825,-3.472 1.6895,-1.6895 4.95998,-3.7665 8.52502,-5.7505 3.58053,-1.984 7.14548,-3.472 9.53253,-3.968 0.496,-0.1085 0.992,-0.2015 1.488,-0.2015 1.58095,0 2.86747,0.589 3.56495,1.8755 0.29452,0.496 0.40305,1.1005 0.40305,1.6895 0,1.1005 -0.60453,2.2785 -1.68957,3.472"
     id="path302"
     style="stroke-width:0.992" />
  <path
     class="Note"
     d="m 843.92,178.65302 c -1.78252,-3.2705 -5.54895,-5.05302 -10.12148,-5.05302 -3.36347,0 -7.03704,0.992 -10.61747,2.86748 -6.54105,3.47204 -10.50905,9.33104 -10.50905,14.38404 0,1.395 0.2945,2.79 0.992,4.07651 1.7825,3.28597 5.549,4.97554 10.12148,4.97554 3.36357,0 7.03704,-0.89905 10.61757,-2.77452 6.54095,-3.48753 10.50895,-9.34653 10.50895,-14.41503 0,-1.3795 -0.29452,-2.7745 -0.992,-4.061 m -4.26252,6.7425 c -1.68948,1.6895 -5.06843,3.76651 -8.63348,5.766 -3.56495,1.984 -7.14548,3.472 -9.517,3.968 -0.496,0.10851 -0.992,0.20151 -1.488,0.20151 -1.5965,0 -2.79,-0.589 -3.472,-1.891 -0.31,-0.496 -0.496,-1.085 -0.496,-1.68951 0,-1.085 0.682,-2.387 1.7825,-3.472 1.6895,-1.6895 4.95998,-3.7665 8.52502,-5.7505 3.58053,-1.984 7.14548,-3.472 9.53253,-3.968 0.496,-0.1085 0.992,-0.2015 1.488,-0.2015 1.58095,0 2.86747,0.589 3.56495,1.8755 0.29452,0.496 0.40305,1.1005 0.40305,1.6895 0,1.1005 -0.60453,2.2785 -1.68957,3.472"
     id="path304"
     style="stroke-width:0.992" />
  <path
     class="Note"
     d="m 814.42,116.65302 c -1.78252,-3.2705 -5.54895,-5.05302 -10.12148,-5.05302 -3.36347,0 -7.03704,0.992 -10.61747,2.86748 -6.54105,3.47204 -10.50905,9.33104 -10.50905,14.38404 0,1.395 0.2945,2.79 0.992,4.07651 1.7825,3.28597 5.549,4.97554 10.12148,4.97554 3.36357,0 7.03704,-0.89905 10.61757,-2.77452 6.54095,-3.48753 10.50895,-9.34653 10.50895,-14.41503 0,-1.3795 -0.29452,-2.7745 -0.992,-4.061 m -4.26252,6.7425 c -1.68948,1.6895 -5.06843,3.76651 -8.63348,5.766 -3.56495,1.984 -7.14548,3.472 -9.517,3.968 -0.496,0.10851 -0.992,0.20151 -1.488,0.20151 -1.5965,0 -2.79,-0.589 -3.472,-1.891 -0.31,-0.496 -0.496,-1.085 -0.496,-1.68951 0,-1.085 0.682,-2.387 1.7825,-3.472 1.6895,-1.6895 4.95998,-3.7665 8.52502,-5.7505 3.58053,-1.984 7.14548,-3.472 9.53253,-3.968 0.496,-0.1085 0.992,-0.2015 1.488,-0.2015 1.58095,0 2.86747,0.589 3.56495,1.8755 0.29452,0.496 0.40305,1.1005 0.40305,1.6895 0,1.1005 -0.60453,2.2785 -1.68957,3.472"
     id="path306"
     style="stroke-width:0.992" />
  <path
     class="Note"
     d="M 843.92,104.25302 C 842.13748,100.98252 838.37105,99.2 833.79852,99.2 c -3.36347,0 -7.03704,0.992 -10.61747,2.86748 -6.54105,3.47204 -10.50905,9.33104 -10.50905,14.38404 0,1.395 0.2945,2.79 0.992,4.07651 1.7825,3.28597 5.549,4.97554 10.12148,4.97554 3.36357,0 7.03704,-0.89905 10.61757,-2.77452 6.54095,-3.48753 10.50895,-9.34653 10.50895,-14.41503 0,-1.3795 -0.29452,-2.7745 -0.992,-4.061 m -4.26252,6.7425 c -1.68948,1.6895 -5.06843,3.76651 -8.63348,5.766 -3.56495,1.984 -7.14548,3.472 -9.517,3.968 -0.496,0.10851 -0.992,0.20151 -1.488,0.20151 -1.5965,0 -2.79,-0.589 -3.472,-1.891 -0.31,-0.496 -0.496,-1.085 -0.496,-1.68951 0,-1.085 0.682,-2.387 1.7825,-3.472 1.6895,-1.6895 4.95998,-3.7665 8.52502,-5.7505 3.58053,-1.984 7.14548,-3.472 9.53253,-3.968 0.496,-0.1085 0.992,-0.2015 1.488,-0.2015 1.58095,0 2.86747,0.589 3.56495,1.8755 0.29452,0.496 0.40305,1.1005 0.40305,1.6895 0,1.1005 -0.60453,2.2785 -1.68957,3.472"
     id="path308"
     style="stroke-width:0.992" />
  <path
     class="Note"
     d="m 1085.27,302.65302 c -1.7825,-3.2705 -5.549,-5.05302 -10.1215,-5.05302 -3.3635,0 -7.037,0.992 -10.6175,2.86748 -6.541,3.47204 -10.509,9.33104 -10.509,14.38404 0,1.395 0.2945,2.79 0.992,4.07651 1.7825,3.28597 5.549,4.97554 10.1215,4.97554 3.3635,0 7.037,-0.89905 10.6175,-2.77452 6.541,-3.48753 10.509,-9.34653 10.509,-14.41503 0,-1.3795 -0.2945,-2.7745 -0.992,-4.061 m -4.2625,6.7425 c -1.6895,1.6895 -5.0685,3.76651 -8.6335,5.766 -3.565,1.984 -7.1455,3.472 -9.517,3.968 -0.496,0.10851 -0.992,0.20151 -1.488,0.20151 -1.5965,0 -2.79,-0.589 -3.472,-1.891 -0.31,-0.496 -0.496,-1.085 -0.496,-1.68951 0,-1.085 0.682,-2.387 1.7825,-3.472 1.6895,-1.6895 4.96,-3.7665 8.525,-5.7505 3.5805,-1.984 7.1455,-3.472 9.5325,-3.968 0.496,-0.1085 0.992,-0.2015 1.488,-0.2015 1.581,0 2.8675,0.589 3.565,1.8755 0.2945,0.496 0.403,1.1005 0.403,1.6895 0,1.1005 -0.6045,2.2785 -1.6895,3.472"
     id="path310"
     style="stroke-width:0.992" />
  <path
     class="Note"
     d="m 1055.77,240.65302 c -1.7825,-3.2705 -5.549,-5.05302 -10.1215,-5.05302 -3.3635,0 -7.037,0.992 -10.6175,2.86748 -6.541,3.47204 -10.509,9.33104 -10.509,14.38404 0,1.395 0.2945,2.79 0.992,4.07651 1.7825,3.28597 5.549,4.97554 10.1215,4.97554 3.3635,0 7.037,-0.89905 10.6175,-2.77452 6.541,-3.48753 10.509,-9.34653 10.509,-14.41503 0,-1.3795 -0.2945,-2.7745 -0.992,-4.061 m -4.2625,6.7425 c -1.6895,1.6895 -5.0685,3.76651 -8.6335,5.766 -3.565,1.984 -7.1455,3.472 -9.517,3.968 -0.496,0.10851 -0.992,0.20151 -1.488,0.20151 -1.5965,0 -2.79,-0.589 -3.472,-1.891 -0.31,-0.496 -0.496,-1.085 -0.496,-1.68951 0,-1.085 0.682,-2.387 1.7825,-3.472 1.6895,-1.6895 4.96,-3.7665 8.525,-5.7505 3.5805,-1.984 7.1455,-3.472 9.5325,-3.968 0.496,-0.1085 0.992,-0.2015 1.488,-0.2015 1.581,0 2.8675,0.589 3.565,1.8755 0.2945,0.496 0.403,1.1005 0.403,1.6895 0,1.1005 -0.6045,2.2785 -1.6895,3.472"
     id="path312"
     style="stroke-width:0.992" />
  <path
     class="Note"
     d="m 1085.27,228.25302 c -1.7825,-3.2705 -5.549,-5.05302 -10.1215,-5.05302 -3.3635,0 -7.037,0.992 -10.6175,2.86748 -6.541,3.47204 -10.509,9.33104 -10.509,14.38404 0,1.395 0.2945,2.79 0.992,4.07651 1.7825,3.28597 5.549,4.97554 10.1215,4.97554 3.3635,0 7.037,-0.89905 10.6175,-2.77452 6.541,-3.48753 10.509,-9.34653 10.509,-14.41503 0,-1.3795 -0.2945,-2.7745 -0.992,-4.061 m -4.2625,6.7425 c -1.6895,1.6895 -5.0685,3.76651 -8.6335,5.766 -3.565,1.984 -7.1455,3.472 -9.517,3.968 -0.496,0.10851 -0.992,0.20151 -1.488,0.20151 -1.5965,0 -2.79,-0.589 -3.472,-1.891 -0.31,-0.496 -0.496,-1.085 -0.496,-1.68951 0,-1.085 0.682,-2.387 1.7825,-3.472 1.6895,-1.6895 4.96,-3.7665 8.525,-5.7505 3.5805,-1.984 7.1455,-3.472 9.5325,-3.968 0.496,-0.1085 0.992,-0.2015 1.488,-0.2015 1.581,0 2.8675,0.589 3.565,1.8755 0.2945,0.496 0.403,1.1005 0.403,1.6895 0,1.1005 -0.6045,2.2785 -1.6895,3.472"
     id="path314"
     style="stroke-width:0.992" />
  <path
     class="Note"
     d="m 1085.27,153.85302 c -1.7825,-3.2705 -5.549,-5.05302 -10.1215,-5.05302 -3.3635,0 -7.037,0.992 -10.6175,2.86748 -6.541,3.47204 -10.509,9.33104 -10.509,14.38404 0,1.395 0.2945,2.79 0.992,4.07651 1.7825,3.28597 5.549,4.97554 10.1215,4.97554 3.3635,0 7.037,-0.89905 10.6175,-2.77452 6.541,-3.48753 10.509,-9.34653 10.509,-14.41503 0,-1.3795 -0.2945,-2.7745 -0.992,-4.061 m -4.2625,6.7425 c -1.6895,1.6895 -5.0685,3.76651 -8.6335,5.766 -3.565,1.984 -7.1455,3.472 -9.517,3.968 -0.496,0.10851 -0.992,0.20151 -1.488,0.20151 -1.5965,0 -2.79,-0.589 -3.472,-1.891 -0.31,-0.496 -0.496,-1.085 -0.496,-1.68951 0,-1.085 0.682,-2.387 1.7825,-3.472 1.6895,-1.6895 4.96,-3.7665 8.525,-5.7505 3.5805,-1.984 7.1455,-3.472 9.5325,-3.968 0.496,-0.1085 0.992,-0.2015 1.488,-0.2015 1.581,0 2.8675,0.589 3.565,1.8755 0.2945,0.496 0.403,1.1005 0.403,1.6895 0,1.1005 -0.6045,2.2785 -1.6895,3.472"
     id="path316"
     style="stroke-width:0.992" />
  <path
     class="Note"
     d="M 1085.27,129.05302 C 1083.4875,125.78252 1079.721,124 1075.1485,124 c -3.3635,0 -7.037,0.992 -10.6175,2.86748 -6.541,3.47204 -10.509,9.33104 -10.509,14.38404 0,1.395 0.2945,2.79 0.992,4.07651 1.7825,3.28597 5.549,4.97554 10.1215,4.97554 3.3635,0 7.037,-0.89905 10.6175,-2.77452 6.541,-3.48753 10.509,-9.34653 10.509,-14.41503 0,-1.3795 -0.2945,-2.7745 -0.992,-4.061 m -4.2625,6.7425 c -1.6895,1.6895 -5.0685,3.76651 -8.6335,5.766 -3.565,1.984 -7.1455,3.472 -9.517,3.968 -0.496,0.10851 -0.992,0.20151 -1.488,0.20151 -1.5965,0 -2.79,-0.589 -3.472,-1.891 -0.31,-0.496 -0.496,-1.085 -0.496,-1.68951 0,-1.085 0.682,-2.387 1.7825,-3.472 1.6895,-1.6895 4.96,-3.7665 8.525,-5.7505 3.5805,-1.984 7.1455,-3.472 9.5325,-3.968 0.496,-0.1085 0.992,-0.2015 1.488,-0.2015 1.581,0 2.8675,0.589 3.565,1.8755 0.2945,0.496 0.403,1.1005 0.403,1.6895 0,1.1005 -0.6045,2.2785 -1.6895,3.472"
     id="path318"
     style="stroke-width:0.992" />
  <path
     class="Note"
     d="M 1085.27,67.05302 C 1083.4875,63.782525 1079.721,62 1075.1485,62 c -3.3635,0 -7.037,0.992 -10.6175,2.867475 -6.541,3.47205 -10.509,9.33105 -10.509,14.38405 0,1.395 0.2945,2.79 0.992,4.076505 1.7825,3.28597 5.549,4.975544 10.1215,4.975544 3.3635,0 7.037,-0.899049 10.6175,-2.774524 6.541,-3.487525 10.509,-9.346525 10.509,-14.41503 0,-1.379495 -0.2945,-2.774495 -0.992,-4.061 m -4.2625,6.742505 c -1.6895,1.6895 -5.0685,3.766505 -8.6335,5.766 -3.565,1.984 -7.1455,3.472 -9.517,3.968 -0.496,0.108505 -0.992,0.201505 -1.488,0.201505 -1.5965,0 -2.79,-0.589 -3.472,-1.891 -0.31,-0.496 -0.496,-1.085 -0.496,-1.689505 0,-1.085 0.682,-2.387 1.7825,-3.472 1.6895,-1.6895 4.96,-3.766505 8.525,-5.750505 3.5805,-1.984 7.1455,-3.472 9.5325,-3.968 0.496,-0.108495 0.992,-0.201495 1.488,-0.201495 1.581,0 2.8675,0.589 3.565,1.875495 0.2945,0.496 0.403,1.100505 0.403,1.689505 0,1.100495 -0.6045,2.278495 -1.6895,3.472"
     id="path320"
     style="stroke-width:0.992" />
  <path
     class="Note"
     d="m 1372.01,302.65302 c -1.7825,-3.2705 -5.549,-5.05302 -10.1215,-5.05302 -3.3635,0 -7.037,0.992 -10.6175,2.86748 -6.541,3.47204 -10.509,9.33104 -10.509,14.38404 0,1.395 0.2945,2.79 0.992,4.07651 1.7825,3.28597 5.549,4.97554 10.1215,4.97554 3.3635,0 7.037,-0.89905 10.6175,-2.77452 6.541,-3.48753 10.509,-9.34653 10.509,-14.41503 0,-1.3795 -0.2945,-2.7745 -0.992,-4.061 m -4.2625,6.7425 c -1.6895,1.6895 -5.0685,3.76651 -8.6335,5.766 -3.565,1.984 -7.1455,3.472 -9.517,3.968 -0.496,0.10851 -0.992,0.20151 -1.488,0.20151 -1.5965,0 -2.79,-0.589 -3.472,-1.891 -0.31,-0.496 -0.496,-1.085 -0.496,-1.68951 0,-1.085 0.682,-2.387 1.7825,-3.472 1.6895,-1.6895 4.96,-3.7665 8.525,-5.7505 3.5805,-1.984 7.1455,-3.472 9.5325,-3.968 0.496,-0.1085 0.992,-0.2015 1.488,-0.2015 1.581,0 2.8675,0.589 3.565,1.8755 0.2945,0.496 0.403,1.1005 0.403,1.6895 0,1.1005 -0.6045,2.2785 -1.6895,3.472"
     id="path322"
     style="stroke-width:0.992" />
  <path
     class="Note"
     d="m 1372.01,228.25302 c -1.7825,-3.2705 -5.549,-5.05302 -10.1215,-5.05302 -3.3635,0 -7.037,0.992 -10.6175,2.86748 -6.541,3.47204 -10.509,9.33104 -10.509,14.38404 0,1.395 0.2945,2.79 0.992,4.07651 1.7825,3.28597 5.549,4.97554 10.1215,4.97554 3.3635,0 7.037,-0.89905 10.6175,-2.77452 6.541,-3.48753 10.509,-9.34653 10.509,-14.41503 0,-1.3795 -0.2945,-2.7745 -0.992,-4.061 m -4.2625,6.7425 c -1.6895,1.6895 -5.0685,3.76651 -8.6335,5.766 -3.565,1.984 -7.1455,3.472 -9.517,3.968 -0.496,0.10851 -0.992,0.20151 -1.488,0.20151 -1.5965,0 -2.79,-0.589 -3.472,-1.891 -0.31,-0.496 -0.496,-1.085 -0.496,-1.68951 0,-1.085 0.682,-2.387 1.7825,-3.472 1.6895,-1.6895 4.96,-3.7665 8.525,-5.7505 3.5805,-1.984 7.1455,-3.472 9.5325,-3.968 0.496,-0.1085 0.992,-0.2015 1.488,-0.2015 1.581,0 2.8675,0.589 3.565,1.8755 0.2945,0.496 0.403,1.1005 0.403,1.6895 0,1.1005 -0.6045,2.2785 -1.6895,3.472"
     id="path324"
     style="stroke-width:0.992" />
  <path
     class="Note"
     d="m 1372.01,203.45302 c -1.7825,-3.2705 -5.549,-5.05302 -10.1215,-5.05302 -3.3635,0 -7.037,0.992 -10.6175,2.86748 -6.541,3.47204 -10.509,9.33104 -10.509,14.38404 0,1.395 0.2945,2.79 0.992,4.07651 1.7825,3.28597 5.549,4.97554 10.1215,4.97554 3.3635,0 7.037,-0.89905 10.6175,-2.77452 6.541,-3.48753 10.509,-9.34653 10.509,-14.41503 0,-1.3795 -0.2945,-2.7745 -0.992,-4.061 m -4.2625,6.7425 c -1.6895,1.6895 -5.0685,3.76651 -8.6335,5.766 -3.565,1.984 -7.1455,3.472 -9.517,3.968 -0.496,0.10851 -0.992,0.20151 -1.488,0.20151 -1.5965,0 -2.79,-0.589 -3.472,-1.891 -0.31,-0.496 -0.496,-1.085 -0.496,-1.68951 0,-1.085 0.682,-2.387 1.7825,-3.472 1.6895,-1.6895 4.96,-3.7665 8.525,-5.7505 3.5805,-1.984 7.1455,-3.472 9.5325,-3.968 0.496,-0.1085 0.992,-0.2015 1.488,-0.2015 1.581,0 2.8675,0.589 3.565,1.8755 0.2945,0.496 0.403,1.1005 0.403,1.6895 0,1.1005 -0.6045,2.2785 -1.6895,3.472"
     id="path326"
     style="stroke-width:0.992" />
  <path
     class="Note"
     d="m 1372.01,141.45302 c -1.7825,-3.2705 -5.549,-5.05302 -10.1215,-5.05302 -3.3635,0 -7.037,0.992 -10.6175,2.86748 -6.541,3.47204 -10.509,9.33104 -10.509,14.38404 0,1.395 0.2945,2.79 0.992,4.07651 1.7825,3.28597 5.549,4.97554 10.1215,4.97554 3.3635,0 7.037,-0.89905 10.6175,-2.77452 6.541,-3.48753 10.509,-9.34653 10.509,-14.41503 0,-1.3795 -0.2945,-2.7745 -0.992,-4.061 m -4.2625,6.7425 c -1.6895,1.6895 -5.0685,3.76651 -8.6335,5.766 -3.565,1.984 -7.1455,3.472 -9.517,3.968 -0.496,0.10851 -0.992,0.20151 -1.488,0.20151 -1.5965,0 -2.79,-0.589 -3.472,-1.891 -0.31,-0.496 -0.496,-1.085 -0.496,-1.68951 0,-1.085 0.682,-2.387 1.7825,-3.472 1.6895,-1.6895 4.96,-3.7665 8.525,-5.7505 3.5805,-1.984 7.1455,-3.472 9.5325,-3.968 0.496,-0.1085 0.992,-0.2015 1.488,-0.2015 1.581,0 2.8675,0.589 3.565,1.8755 0.2945,0.496 0.403,1.1005 0.403,1.6895 0,1.1005 -0.6045,2.2785 -1.6895,3.472"
     id="path328"
     style="stroke-width:0.992" />
  <path
     class="Note"
     d="m 1372.01,116.65302 c -1.7825,-3.2705 -5.549,-5.05302 -10.1215,-5.05302 -3.3635,0 -7.037,0.992 -10.6175,2.86748 -6.541,3.47204 -10.509,9.33104 -10.509,14.38404 0,1.395 0.2945,2.79 0.992,4.07651 1.7825,3.28597 5.549,4.97554 10.1215,4.97554 3.3635,0 7.037,-0.89905 10.6175,-2.77452 6.541,-3.48753 10.509,-9.34653 10.509,-14.41503 0,-1.3795 -0.2945,-2.7745 -0.992,-4.061 m -4.2625,6.7425 c -1.6895,1.6895 -5.0685,3.76651 -8.6335,5.766 -3.565,1.984 -7.1455,3.472 -9.517,3.968 -0.496,0.10851 -0.992,0.20151 -1.488,0.20151 -1.5965,0 -2.79,-0.589 -3.472,-1.891 -0.31,-0.496 -0.496,-1.085 -0.496,-1.68951 0,-1.085 0.682,-2.387 1.7825,-3.472 1.6895,-1.6895 4.96,-3.7665 8.525,-5.7505 3.5805,-1.984 7.1455,-3.472 9.5325,-3.968 0.496,-0.1085 0.992,-0.2015 1.488,-0.2015 1.581,0 2.8675,0.589 3.565,1.8755 0.2945,0.496 0.403,1.1005 0.403,1.6895 0,1.1005 -0.6045,2.2785 -1.6895,3.472"
     id="path330"
     style="stroke-width:0.992" />
  <path
     class="Note"
     d="M 1372.01,42.25302 C 1370.2275,38.982525 1366.461,37.2 1361.8885,37.2 c -3.3635,0 -7.037,0.992 -10.6175,2.867475 -6.541,3.47205 -10.509,9.33105 -10.509,14.38405 0,1.395 0.2945,2.79 0.992,4.076505 1.7825,3.28597 5.549,4.975544 10.1215,4.975544 3.3635,0 7.037,-0.899049 10.6175,-2.774524 6.541,-3.487525 10.509,-9.346525 10.509,-14.41503 0,-1.379495 -0.2945,-2.774495 -0.992,-4.061 m -4.2625,6.742505 c -1.6895,1.6895 -5.0685,3.766505 -8.6335,5.766 -3.565,1.984 -7.1455,3.472 -9.517,3.968 -0.496,0.108505 -0.992,0.201505 -1.488,0.201505 -1.5965,0 -2.79,-0.589 -3.472,-1.891 -0.31,-0.496 -0.496,-1.085 -0.496,-1.689505 0,-1.085 0.682,-2.387 1.7825,-3.472 1.6895,-1.6895 4.96,-3.766505 8.525,-5.750505 3.5805,-1.984 7.1455,-3.472 9.5325,-3.968 0.496,-0.108495 0.992,-0.201495 1.488,-0.201495 1.581,0 2.8675,0.589 3.565,1.875495 0.2945,0.496 0.403,1.100505 0.403,1.689505 0,1.100495 -0.6045,2.278495 -1.6895,3.472"
     id="path332"
     style="stroke-width:0.992" />
  <path
     class="Note"
     d="M 1623.77,315.05302 C 1621.9875,311.78252 1618.221,310 1613.6485,310 c -3.3635,0 -7.037,0.992 -10.6175,2.86748 -6.541,3.47204 -10.509,9.33104 -10.509,14.38404 0,1.395 0.2945,2.79 0.992,4.07651 1.7825,3.28597 5.549,4.97554 10.1215,4.97554 3.3635,0 7.037,-0.89905 10.6175,-2.77452 6.541,-3.48753 10.509,-9.34653 10.509,-14.41503 0,-1.3795 -0.2945,-2.7745 -0.992,-4.061 m -4.2625,6.7425 c -1.6895,1.6895 -5.0685,3.76651 -8.6335,5.766 -3.565,1.984 -7.1455,3.472 -9.517,3.968 -0.496,0.10851 -0.992,0.20151 -1.488,0.20151 -1.5965,0 -2.79,-0.589 -3.472,-1.891 -0.31,-0.496 -0.496,-1.085 -0.496,-1.68951 0,-1.085 0.682,-2.387 1.7825,-3.472 1.6895,-1.6895 4.96,-3.7665 8.525,-5.7505 3.5805,-1.984 7.1455,-3.472 9.5325,-3.968 0.496,-0.1085 0.992,-0.2015 1.488,-0.2015 1.581,0 2.8675,0.589 3.565,1.8755 0.2945,0.496 0.403,1.1005 0.403,1.6895 0,1.1005 -0.6045,2.2785 -1.6895,3.472"
     id="path334"
     style="stroke-width:0.992" />
  <path
     class="Note"
     d="m 1623.77,265.45302 c -1.7825,-3.2705 -5.549,-5.05302 -10.1215,-5.05302 -3.3635,0 -7.037,0.992 -10.6175,2.86748 -6.541,3.47204 -10.509,9.33104 -10.509,14.38404 0,1.395 0.2945,2.79 0.992,4.07651 1.7825,3.28597 5.549,4.97554 10.1215,4.97554 3.3635,0 7.037,-0.89905 10.6175,-2.77452 6.541,-3.48753 10.509,-9.34653 10.509,-14.41503 0,-1.3795 -0.2945,-2.7745 -0.992,-4.061 m -4.2625,6.7425 c -1.6895,1.6895 -5.0685,3.76651 -8.6335,5.766 -3.565,1.984 -7.1455,3.472 -9.517,3.968 -0.496,0.10851 -0.992,0.20151 -1.488,0.20151 -1.5965,0 -2.79,-0.589 -3.472,-1.891 -0.31,-0.496 -0.496,-1.085 -0.496,-1.68951 0,-1.085 0.682,-2.387 1.7825,-3.472 1.6895,-1.6895 4.96,-3.7665 8.525,-5.7505 3.5805,-1.984 7.1455,-3.472 9.5325,-3.968 0.496,-0.1085 0.992,-0.2015 1.488,-0.2015 1.581,0 2.8675,0.589 3.565,1.8755 0.2945,0.496 0.403,1.1005 0.403,1.6895 0,1.1005 -0.6045,2.2785 -1.6895,3.472"
     id="path336"
     style="stroke-width:0.992" />
  <path
     class="Note"
     d="m 1623.77,228.25302 c -1.7825,-3.2705 -5.549,-5.05302 -10.1215,-5.05302 -3.3635,0 -7.037,0.992 -10.6175,2.86748 -6.541,3.47204 -10.509,9.33104 -10.509,14.38404 0,1.395 0.2945,2.79 0.992,4.07651 1.7825,3.28597 5.549,4.97554 10.1215,4.97554 3.3635,0 7.037,-0.89905 10.6175,-2.77452 6.541,-3.48753 10.509,-9.34653 10.509,-14.41503 0,-1.3795 -0.2945,-2.7745 -0.992,-4.061 m -4.2625,6.7425 c -1.6895,1.6895 -5.0685,3.76651 -8.6335,5.766 -3.565,1.984 -7.1455,3.472 -9.517,3.968 -0.496,0.10851 -0.992,0.20151 -1.488,0.20151 -1.5965,0 -2.79,-0.589 -3.472,-1.891 -0.31,-0.496 -0.496,-1.085 -0.496,-1.68951 0,-1.085 0.682,-2.387 1.7825,-3.472 1.6895,-1.6895 4.96,-3.7665 8.525,-5.7505 3.5805,-1.984 7.1455,-3.472 9.5325,-3.968 0.496,-0.1085 0.992,-0.2015 1.488,-0.2015 1.581,0 2.8675,0.589 3.565,1.8755 0.2945,0.496 0.403,1.1005 0.403,1.6895 0,1.1005 -0.6045,2.2785 -1.6895,3.472"
     id="path338"
     style="stroke-width:0.992" />
  <path
     class="Note"
     d="m 1623.77,203.45302 c -1.7825,-3.2705 -5.549,-5.05302 -10.1215,-5.05302 -3.3635,0 -7.037,0.992 -10.6175,2.86748 -6.541,3.47204 -10.509,9.33104 -10.509,14.38404 0,1.395 0.2945,2.79 0.992,4.07651 1.7825,3.28597 5.549,4.97554 10.1215,4.97554 3.3635,0 7.037,-0.89905 10.6175,-2.77452 6.541,-3.48753 10.509,-9.34653 10.509,-14.41503 0,-1.3795 -0.2945,-2.7745 -0.992,-4.061 m -4.2625,6.7425 c -1.6895,1.6895 -5.0685,3.76651 -8.6335,5.766 -3.565,1.984 -7.1455,3.472 -9.517,3.968 -0.496,0.10851 -0.992,0.20151 -1.488,0.20151 -1.5965,0 -2.79,-0.589 -3.472,-1.891 -0.31,-0.496 -0.496,-1.085 -0.496,-1.68951 0,-1.085 0.682,-2.387 1.7825,-3.472 1.6895,-1.6895 4.96,-3.7665 8.525,-5.7505 3.5805,-1.984 7.1455,-3.472 9.5325,-3.968 0.496,-0.1085 0.992,-0.2015 1.488,-0.2015 1.581,0 2.8675,0.589 3.565,1.8755 0.2945,0.496 0.403,1.1005 0.403,1.6895 0,1.1005 -0.6045,2.2785 -1.6895,3.472"
     id="path340"
     style="stroke-width:0.992" />
  <path
     class="Note"
     d="m 1623.77,178.65302 c -1.7825,-3.2705 -5.549,-5.05302 -10.1215,-5.05302 -3.3635,0 -7.037,0.992 -10.6175,2.86748 -6.541,3.47204 -10.509,9.33104 -10.509,14.38404 0,1.395 0.2945,2.79 0.992,4.07651 1.7825,3.28597 5.549,4.97554 10.1215,4.97554 3.3635,0 7.037,-0.89905 10.6175,-2.77452 6.541,-3.48753 10.509,-9.34653 10.509,-14.41503 0,-1.3795 -0.2945,-2.7745 -0.992,-4.061 m -4.2625,6.7425 c -1.6895,1.6895 -5.0685,3.76651 -8.6335,5.766 -3.565,1.984 -7.1455,3.472 -9.517,3.968 -0.496,0.10851 -0.992,0.20151 -1.488,0.20151 -1.5965,0 -2.79,-0.589 -3.472,-1.891 -0.31,-0.496 -0.496,-1.085 -0.496,-1.68951 0,-1.085 0.682,-2.387 1.7825,-3.472 1.6895,-1.6895 4.96,-3.7665 8.525,-5.7505 3.5805,-1.984 7.1455,-3.472 9.5325,-3.968 0.496,-0.1085 0.992,-0.2015 1.488,-0.2015 1.581,0 2.8675,0.589 3.565,1.8755 0.2945,0.496 0.403,1.1005 0.403,1.6895 0,1.1005 -0.6045,2.2785 -1.6895,3.472"
     id="path342"
     style="stroke-width:0.992" />
  <path
     class="Note"
     d="m 1594.27,141.45302 c -1.7825,-3.2705 -5.549,-5.05302 -10.1215,-5.05302 -3.3635,0 -7.037,0.992 -10.6175,2.86748 -6.541,3.47204 -10.509,9.33104 -10.509,14.38404 0,1.395 0.2945,2.79 0.992,4.07651 1.7825,3.28597 5.549,4.97554 10.1215,4.97554 3.3635,0 7.037,-0.89905 10.6175,-2.77452 6.541,-3.48753 10.509,-9.34653 10.509,-14.41503 0,-1.3795 -0.2945,-2.7745 -0.992,-4.061 m -4.2625,6.7425 c -1.6895,1.6895 -5.0685,3.76651 -8.6335,5.766 -3.565,1.984 -7.1455,3.472 -9.517,3.968 -0.496,0.10851 -0.992,0.20151 -1.488,0.20151 -1.5965,0 -2.79,-0.589 -3.472,-1.891 -0.31,-0.496 -0.496,-1.085 -0.496,-1.68951 0,-1.085 0.682,-2.387 1.7825,-3.472 1.6895,-1.6895 4.96,-3.7665 8.525,-5.7505 3.5805,-1.984 7.1455,-3.472 9.5325,-3.968 0.496,-0.1085 0.992,-0.2015 1.488,-0.2015 1.581,0 2.8675,0.589 3.565,1.8755 0.2945,0.496 0.403,1.1005 0.403,1.6895 0,1.1005 -0.6045,2.2785 -1.6895,3.472"
     id="path344"
     style="stroke-width:0.992" />
  <path
     class="Note"
     d="M 1623.77,129.05302 C 1621.9875,125.78252 1618.221,124 1613.6485,124 c -3.3635,0 -7.037,0.992 -10.6175,2.86748 -6.541,3.47204 -10.509,9.33104 -10.509,14.38404 0,1.395 0.2945,2.79 0.992,4.07651 1.7825,3.28597 5.549,4.97554 10.1215,4.97554 3.3635,0 7.037,-0.89905 10.6175,-2.77452 6.541,-3.48753 10.509,-9.34653 10.509,-14.41503 0,-1.3795 -0.2945,-2.7745 -0.992,-4.061 m -4.2625,6.7425 c -1.6895,1.6895 -5.0685,3.76651 -8.6335,5.766 -3.565,1.984 -7.1455,3.472 -9.517,3.968 -0.496,0.10851 -0.992,0.20151 -1.488,0.20151 -1.5965,0 -2.79,-0.589 -3.472,-1.891 -0.31,-0.496 -0.496,-1.085 -0.496,-1.68951 0,-1.085 0.682,-2.387 1.7825,-3.472 1.6895,-1.6895 4.96,-3.7665 8.525,-5.7505 3.5805,-1.984 7.1455,-3.472 9.5325,-3.968 0.496,-0.1085 0.992,-0.2015 1.488,-0.2015 1.581,0 2.8675,0.589 3.565,1.8755 0.2945,0.496 0.403,1.1005 0.403,1.6895 0,1.1005 -0.6045,2.2785 -1.6895,3.472"
     id="path346"
     style="stroke-width:0.992" />
  <path
     class="Note"
     d="m 1594.27,104.25302 c -1.7825,-3.2705 -5.549,-5.05302 -10.1215,-5.05302 -3.3635,0 -7.037,0.992 -10.6175,2.86748 -6.541,3.47204 -10.509,9.33104 -10.509,14.38404 0,1.395 0.2945,2.79 0.992,4.07651 1.7825,3.28597 5.549,4.97554 10.1215,4.97554 3.3635,0 7.037,-0.89905 10.6175,-2.77452 6.541,-3.48753 10.509,-9.34653 10.509,-14.41503 0,-1.3795 -0.2945,-2.7745 -0.992,-4.061 m -4.2625,6.7425 c -1.6895,1.6895 -5.0685,3.76651 -8.6335,5.766 -3.565,1.984 -7.1455,3.472 -9.517,3.968 -0.496,0.10851 -0.992,0.20151 -1.488,0.20151 -1.5965,0 -2.79,-0.589 -3.472,-1.891 -0.31,-0.496 -0.496,-1.085 -0.496,-1.68951 0,-1.085 0.682,-2.387 1.7825,-3.472 1.6895,-1.6895 4.96,-3.7665 8.525,-5.7505 3.5805,-1.984 7.1455,-3.472 9.5325,-3.968 0.496,-0.1085 0.992,-0.2015 1.488,-0.2015 1.581,0 2.8675,0.589 3.565,1.8755 0.2945,0.496 0.403,1.1005 0.403,1.6895 0,1.1005 -0.6045,2.2785 -1.6895,3.472"
     id="path348"
     style="stroke-width:0.992" />
  <path
     class="Note"
     d="M 1623.77,91.85302 C 1621.9875,88.582525 1618.221,86.8 1613.6485,86.8 c -3.3635,0 -7.037,0.992 -10.6175,2.867475 -6.541,3.47205 -10.509,9.33105 -10.509,14.384045 0,1.395 0.2945,2.79 0.992,4.07651 1.7825,3.28597 5.549,4.97554 10.1215,4.97554 3.3635,0 7.037,-0.89905 10.6175,-2.77452 6.541,-3.48753 10.509,-9.34653 10.509,-14.41503 0,-1.379495 -0.2945,-2.774495 -0.992,-4.061 m -4.2625,6.742505 c -1.6895,1.689495 -5.0685,3.766505 -8.6335,5.765995 -3.565,1.984 -7.1455,3.472 -9.517,3.968 -0.496,0.10851 -0.992,0.20151 -1.488,0.20151 -1.5965,0 -2.79,-0.589 -3.472,-1.891 -0.31,-0.496 -0.496,-1.085 -0.496,-1.68951 0,-1.085 0.682,-2.387 1.7825,-3.472 1.6895,-1.689495 4.96,-3.7665 8.525,-5.7505 3.5805,-1.984 7.1455,-3.472 9.5325,-3.968 0.496,-0.108495 0.992,-0.201495 1.488,-0.201495 1.581,0 2.8675,0.589 3.565,1.875495 0.2945,0.496 0.403,1.100505 0.403,1.689505 0,1.100495 -0.6045,2.278495 -1.6895,3.472"
     id="path350"
     style="stroke-width:0.992" />
  <path
     class="Note"
     d="M 1623.77,54.65302 C 1621.9875,51.382525 1618.221,49.6 1613.6485,49.6 c -3.3635,0 -7.037,0.992 -10.6175,2.867475 -6.541,3.47205 -10.509,9.33105 -10.509,14.38405 0,1.395 0.2945,2.79 0.992,4.076505 1.7825,3.28597 5.549,4.975544 10.1215,4.975544 3.3635,0 7.037,-0.899049 10.6175,-2.774524 6.541,-3.487525 10.509,-9.346525 10.509,-14.41503 0,-1.379495 -0.2945,-2.774495 -0.992,-4.061 m -4.2625,6.742505 c -1.6895,1.6895 -5.0685,3.766505 -8.6335,5.766 -3.565,1.984 -7.1455,3.472 -9.517,3.968 -0.496,0.108505 -0.992,0.201505 -1.488,0.201505 -1.5965,0 -2.79,-0.589 -3.472,-1.891 -0.31,-0.496 -0.496,-1.085 -0.496,-1.689505 0,-1.085 0.682,-2.387 1.7825,-3.472 1.6895,-1.6895 4.96,-3.766505 8.525,-5.750505 3.5805,-1.984 7.1455,-3.472 9.5325,-3.968 0.496,-0.108495 0.992,-0.201495 1.488,-0.201495 1.581,0 2.8675,0.589 3.565,1.875495 0.2945,0.496 0.403,1.100505 0.403,1.689505 0,1.100495 -0.6045,2.278495 -1.6895,3.472"
     id="path352"
     style="stroke-width:0.992" />
  <path
     class="Note"
     d="M 1623.77,5.0530198 C 1621.9875,1.7825248 1618.221,0 1613.6485,0 c -3.3635,0 -7.037,0.992 -10.6175,2.8674752 -6.541,3.4720496 -10.509,9.3310498 -10.509,14.3840498 0,1.395 0.2945,2.79 0.992,4.076505 1.7825,3.28597 5.549,4.975544 10.1215,4.975544 3.3635,0 7.037,-0.899049 10.6175,-2.774524 6.541,-3.487525 10.509,-9.346525 10.509,-14.4150302 0,-1.379495 -0.2945,-2.774495 -0.992,-4.061 m -4.2625,6.7425052 c -1.6895,1.6895 -5.0685,3.766505 -8.6335,5.766 -3.565,1.984 -7.1455,3.472 -9.517,3.968 -0.496,0.108505 -0.992,0.201505 -1.488,0.201505 -1.5965,0 -2.79,-0.589 -3.472,-1.891 -0.31,-0.496 -0.496,-1.085 -0.496,-1.689505 0,-1.085 0.682,-2.387 1.7825,-3.472 1.6895,-1.6895 4.96,-3.766505 8.525,-5.7505052 3.5805,-1.984 7.1455,-3.472 9.5325,-3.968 0.496,-0.108495 0.992,-0.201495 1.488,-0.201495 1.581,0 2.8675,0.589 3.565,1.875495 0.2945,0.496 0.403,1.100505 0.403,1.689505 0,1.100495 -0.6045,2.2784952 -1.6895,3.4720002"
     id="path354"
     style="stroke-width:0.992" />
  <path
     class="Note"
     d="m 1950.43,302.65302 c -1.7825,-3.2705 -5.549,-5.05302 -10.1215,-5.05302 -3.3635,0 -7.037,0.992 -10.6175,2.86748 -6.541,3.47204 -10.509,9.33104 -10.509,14.38404 0,1.395 0.2945,2.79 0.992,4.07651 1.7825,3.28597 5.549,4.97554 10.1215,4.97554 3.3635,0 7.037,-0.89905 10.6175,-2.77452 6.541,-3.48753 10.509,-9.34653 10.509,-14.41503 0,-1.3795 -0.2945,-2.7745 -0.992,-4.061 m -4.2625,6.7425 c -1.6895,1.6895 -5.0685,3.76651 -8.6335,5.766 -3.565,1.984 -7.1455,3.472 -9.517,3.968 -0.496,0.10851 -0.992,0.20151 -1.488,0.20151 -1.5965,0 -2.79,-0.589 -3.472,-1.891 -0.31,-0.496 -0.496,-1.085 -0.496,-1.68951 0,-1.085 0.682,-2.387 1.7825,-3.472 1.6895,-1.6895 4.96,-3.7665 8.525,-5.7505 3.5805,-1.984 7.1455,-3.472 9.5325,-3.968 0.496,-0.1085 0.992,-0.2015 1.488,-0.2015 1.581,0 2.8675,0.589 3.565,1.8755 0.2945,0.496 0.403,1.1005 0.403,1.6895 0,1.1005 -0.6045,2.2785 -1.6895,3.472"
     id="path356"
     style="stroke-width:0.992" />
  <path
     class="Note"
     d="m 1920.93,215.85302 c -1.7825,-3.2705 -5.549,-5.05302 -10.1215,-5.05302 -3.3635,0 -7.037,0.992 -10.6175,2.86748 -6.541,3.47204 -10.509,9.33104 -10.509,14.38404 0,1.395 0.2945,2.79 0.992,4.07651 1.7825,3.28597 5.549,4.97554 10.1215,4.97554 3.3635,0 7.037,-0.89905 10.6175,-2.77452 6.541,-3.48753 10.509,-9.34653 10.509,-14.41503 0,-1.3795 -0.2945,-2.7745 -0.992,-4.061 m -4.2625,6.7425 c -1.6895,1.6895 -5.0685,3.76651 -8.6335,5.766 -3.565,1.984 -7.1455,3.472 -9.517,3.968 -0.496,0.10851 -0.992,0.20151 -1.488,0.20151 -1.5965,0 -2.79,-0.589 -3.472,-1.891 -0.31,-0.496 -0.496,-1.085 -0.496,-1.68951 0,-1.085 0.682,-2.387 1.7825,-3.472 1.6895,-1.6895 4.96,-3.7665 8.525,-5.7505 3.5805,-1.984 7.1455,-3.472 9.5325,-3.968 0.496,-0.1085 0.992,-0.2015 1.488,-0.2015 1.581,0 2.8675,0.589 3.565,1.8755 0.2945,0.496 0.403,1.1005 0.403,1.6895 0,1.1005 -0.6045,2.2785 -1.6895,3.472"
     id="path358"
     style="stroke-width:0.992" />
  <path
     class="Note"
     d="m 1950.43,203.45302 c -1.7825,-3.2705 -5.549,-5.05302 -10.1215,-5.05302 -3.3635,0 -7.037,0.992 -10.6175,2.86748 -6.541,3.47204 -10.509,9.33104 -10.509,14.38404 0,1.395 0.2945,2.79 0.992,4.07651 1.7825,3.28597 5.549,4.97554 10.1215,4.97554 3.3635,0 7.037,-0.89905 10.6175,-2.77452 6.541,-3.48753 10.509,-9.34653 10.509,-14.41503 0,-1.3795 -0.2945,-2.7745 -0.992,-4.061 m -4.2625,6.7425 c -1.6895,1.6895 -5.0685,3.76651 -8.6335,5.766 -3.565,1.984 -7.1455,3.472 -9.517,3.968 -0.496,0.10851 -0.992,0.20151 -1.488,0.20151 -1.5965,0 -2.79,-0.589 -3.472,-1.891 -0.31,-0.496 -0.496,-1.085 -0.496,-1.68951 0,-1.085 0.682,-2.387 1.7825,-3.472 1.6895,-1.6895 4.96,-3.7665 8.525,-5.7505 3.5805,-1.984 7.1455,-3.472 9.5325,-3.968 0.496,-0.1085 0.992,-0.2015 1.488,-0.2015 1.581,0 2.8675,0.589 3.565,1.8755 0.2945,0.496 0.403,1.1005 0.403,1.6895 0,1.1005 -0.6045,2.2785 -1.6895,3.472"
     id="path360"
     style="stroke-width:0.992" />
  <path
     class="Note"
     d="M 1950.43,129.05302 C 1948.6475,125.78252 1944.881,124 1940.3085,124 c -3.3635,0 -7.037,0.992 -10.6175,2.86748 -6.541,3.47204 -10.509,9.33104 -10.509,14.38404 0,1.395 0.2945,2.79 0.992,4.07651 1.7825,3.28597 5.549,4.97554 10.1215,4.97554 3.3635,0 7.037,-0.89905 10.6175,-2.77452 6.541,-3.48753 10.509,-9.34653 10.509,-14.41503 0,-1.3795 -0.2945,-2.7745 -0.992,-4.061 m -4.2625,6.7425 c -1.6895,1.6895 -5.0685,3.76651 -8.6335,5.766 -3.565,1.984 -7.1455,3.472 -9.517,3.968 -0.496,0.10851 -0.992,0.20151 -1.488,0.20151 -1.5965,0 -2.79,-0.589 -3.472,-1.891 -0.31,-0.496 -0.496,-1.085 -0.496,-1.68951 0,-1.085 0.682,-2.387 1.7825,-3.472 1.6895,-1.6895 4.96,-3.7665 8.525,-5.7505 3.5805,-1.984 7.1455,-3.472 9.5325,-3.968 0.496,-0.1085 0.992,-0.2015 1.488,-0.2015 1.581,0 2.8675,0.589 3.565,1.8755 0.2945,0.496 0.403,1.1005 0.403,1.6895 0,1.1005 -0.6045,2.2785 -1.6895,3.472"
     id="path362"
     style="stroke-width:0.992" />
  <path
     class="Note"
     d="m 1950.43,104.25302 c -1.7825,-3.2705 -5.549,-5.05302 -10.1215,-5.05302 -3.3635,0 -7.037,0.992 -10.6175,2.86748 -6.541,3.47204 -10.509,9.33104 -10.509,14.38404 0,1.395 0.2945,2.79 0.992,4.07651 1.7825,3.28597 5.549,4.97554 10.1215,4.97554 3.3635,0 7.037,-0.89905 10.6175,-2.77452 6.541,-3.48753 10.509,-9.34653 10.509,-14.41503 0,-1.3795 -0.2945,-2.7745 -0.992,-4.061 m -4.2625,6.7425 c -1.6895,1.6895 -5.0685,3.76651 -8.6335,5.766 -3.565,1.984 -7.1455,3.472 -9.517,3.968 -0.496,0.10851 -0.992,0.20151 -1.488,0.20151 -1.5965,0 -2.79,-0.589 -3.472,-1.891 -0.31,-0.496 -0.496,-1.085 -0.496,-1.68951 0,-1.085 0.682,-2.387 1.7825,-3.472 1.6895,-1.6895 4.96,-3.7665 8.525,-5.7505 3.5805,-1.984 7.1455,-3.472 9.5325,-3.968 0.496,-0.1085 0.992,-0.2015 1.488,-0.2015 1.581,0 2.8675,0.589 3.565,1.8755 0.2945,0.496 0.403,1.1005 0.403,1.6895 0,1.1005 -0.6045,2.2785 -1.6895,3.472"
     id="path364"
     style="stroke-width:0.992" />
  <path
     class="Note"
     d="M 1920.93,42.25302 C 1919.1475,38.982525 1915.381,37.2 1910.8085,37.2 c -3.3635,0 -7.037,0.992 -10.6175,2.867475 -6.541,3.47205 -10.509,9.33105 -10.509,14.38405 0,1.395 0.2945,2.79 0.992,4.076505 1.7825,3.28597 5.549,4.975544 10.1215,4.975544 3.3635,0 7.037,-0.899049 10.6175,-2.774524 6.541,-3.487525 10.509,-9.346525 10.509,-14.41503 0,-1.379495 -0.2945,-2.774495 -0.992,-4.061 m -4.2625,6.742505 c -1.6895,1.6895 -5.0685,3.766505 -8.6335,5.766 -3.565,1.984 -7.1455,3.472 -9.517,3.968 -0.496,0.108505 -0.992,0.201505 -1.488,0.201505 -1.5965,0 -2.79,-0.589 -3.472,-1.891 -0.31,-0.496 -0.496,-1.085 -0.496,-1.689505 0,-1.085 0.682,-2.387 1.7825,-3.472 1.6895,-1.6895 4.96,-3.766505 8.525,-5.750505 3.5805,-1.984 7.1455,-3.472 9.5325,-3.968 0.496,-0.108495 0.992,-0.201495 1.488,-0.201495 1.581,0 2.8675,0.589 3.565,1.875495 0.2945,0.496 0.403,1.100505 0.403,1.689505 0,1.100495 -0.6045,2.278495 -1.6895,3.472"
     id="path366"
     style="stroke-width:0.992" />
  <path
     class="Note"
     d="M 1950.43,29.85302 C 1948.6475,26.582525 1944.881,24.8 1940.3085,24.8 c -3.3635,0 -7.037,0.992 -10.6175,2.867475 -6.541,3.47205 -10.509,9.33105 -10.509,14.38405 0,1.395 0.2945,2.79 0.992,4.076505 1.7825,3.28597 5.549,4.975544 10.1215,4.975544 3.3635,0 7.037,-0.899049 10.6175,-2.774524 6.541,-3.487525 10.509,-9.346525 10.509,-14.41503 0,-1.379495 -0.2945,-2.774495 -0.992,-4.061 m -4.2625,6.742505 c -1.6895,1.6895 -5.0685,3.766505 -8.6335,5.766 -3.565,1.984 -7.1455,3.472 -9.517,3.968 -0.496,0.108505 -0.992,0.201505 -1.488,0.201505 -1.5965,0 -2.79,-0.589 -3.472,-1.891 -0.31,-0.496 -0.496,-1.085 -0.496,-1.689505 0,-1.085 0.682,-2.387 1.7825,-3.472 1.6895,-1.6895 4.96,-3.766505 8.525,-5.750505 3.5805,-1.984 7.1455,-3.472 9.5325,-3.968 0.496,-0.108495 0.992,-0.201495 1.488,-0.201495 1.581,0 2.8675,0.589 3.565,1.875495 0.2945,0.496 0.403,1.100505 0.403,1.689505 0,1.100495 -0.6045,2.278495 -1.6895,3.472"
     id="path368"
     style="stroke-width:0.992" />
  <path
     class="Note"
     d="m 2202.2,302.65302 c -1.7825,-3.2705 -5.549,-5.05302 -10.1215,-5.05302 -3.3635,0 -7.037,0.992 -10.6175,2.86748 -6.541,3.47204 -10.509,9.33104 -10.509,14.38404 0,1.395 0.2945,2.79 0.992,4.07651 1.7825,3.28597 5.549,4.97554 10.1215,4.97554 3.3635,0 7.037,-0.89905 10.6175,-2.77452 6.541,-3.48753 10.509,-9.34653 10.509,-14.41503 0,-1.3795 -0.2945,-2.7745 -0.992,-4.061 m -4.2625,6.7425 c -1.6895,1.6895 -5.0685,3.76651 -8.6335,5.766 -3.565,1.984 -7.1455,3.472 -9.517,3.968 -0.496,0.10851 -0.992,0.20151 -1.488,0.20151 -1.5965,0 -2.79,-0.589 -3.472,-1.891 -0.31,-0.496 -0.496,-1.085 -0.496,-1.68951 0,-1.085 0.682,-2.387 1.7825,-3.472 1.6895,-1.6895 4.96,-3.7665 8.525,-5.7505 3.5805,-1.984 7.1455,-3.472 9.5325,-3.968 0.496,-0.1085 0.992,-0.2015 1.488,-0.2015 1.581,0 2.8675,0.589 3.565,1.8755 0.2945,0.496 0.403,1.1005 0.403,1.6895 0,1.1005 -0.6045,2.2785 -1.6895,3.472"
     id="path370"
     style="stroke-width:0.992" />
  <path
     class="Note"
     d="m 2202.2,265.45302 c -1.7825,-3.2705 -5.549,-5.05302 -10.1215,-5.05302 -3.3635,0 -7.037,0.992 -10.6175,2.86748 -6.541,3.47204 -10.509,9.33104 -10.509,14.38404 0,1.395 0.2945,2.79 0.992,4.07651 1.7825,3.28597 5.549,4.97554 10.1215,4.97554 3.3635,0 7.037,-0.89905 10.6175,-2.77452 6.541,-3.48753 10.509,-9.34653 10.509,-14.41503 0,-1.3795 -0.2945,-2.7745 -0.992,-4.061 m -4.2625,6.7425 c -1.6895,1.6895 -5.0685,3.76651 -8.6335,5.766 -3.565,1.984 -7.1455,3.472 -9.517,3.968 -0.496,0.10851 -0.992,0.20151 -1.488,0.20151 -1.5965,0 -2.79,-0.589 -3.472,-1.891 -0.31,-0.496 -0.496,-1.085 -0.496,-1.68951 0,-1.085 0.682,-2.387 1.7825,-3.472 1.6895,-1.6895 4.96,-3.7665 8.525,-5.7505 3.5805,-1.984 7.1455,-3.472 9.5325,-3.968 0.496,-0.1085 0.992,-0.2015 1.488,-0.2015 1.581,0 2.8675,0.589 3.565,1.8755 0.2945,0.496 0.403,1.1005 0.403,1.6895 0,1.1005 -0.6045,2.2785 -1.6895,3.472"
     id="path372"
     style="stroke-width:0.992" />
  <path
     class="Note"
     d="m 2172.69,215.85302 c -1.7825,-3.2705 -5.549,-5.05302 -10.1215,-5.05302 -3.3635,0 -7.037,0.992 -10.6175,2.86748 -6.541,3.47204 -10.509,9.33104 -10.509,14.38404 0,1.395 0.2945,2.79 0.992,4.07651 1.7825,3.28597 5.549,4.97554 10.1215,4.97554 3.3635,0 7.037,-0.89905 10.6175,-2.77452 6.541,-3.48753 10.509,-9.34653 10.509,-14.41503 0,-1.3795 -0.2945,-2.7745 -0.992,-4.061 m -4.2625,6.7425 c -1.6895,1.6895 -5.0685,3.76651 -8.6335,5.766 -3.565,1.984 -7.1455,3.472 -9.517,3.968 -0.496,0.10851 -0.992,0.20151 -1.488,0.20151 -1.5965,0 -2.79,-0.589 -3.472,-1.891 -0.31,-0.496 -0.496,-1.085 -0.496,-1.68951 0,-1.085 0.682,-2.387 1.7825,-3.472 1.6895,-1.6895 4.96,-3.7665 8.525,-5.7505 3.5805,-1.984 7.1455,-3.472 9.5325,-3.968 0.496,-0.1085 0.992,-0.2015 1.488,-0.2015 1.581,0 2.8675,0.589 3.565,1.8755 0.2945,0.496 0.403,1.1005 0.403,1.6895 0,1.1005 -0.6045,2.2785 -1.6895,3.472"
     id="path374"
     style="stroke-width:0.992" />
  <path
     class="Note"
     d="m 2202.2,203.45302 c -1.7825,-3.2705 -5.549,-5.05302 -10.1215,-5.05302 -3.3635,0 -7.037,0.992 -10.6175,2.86748 -6.541,3.47204 -10.509,9.33104 -10.509,14.38404 0,1.395 0.2945,2.79 0.992,4.07651 1.7825,3.28597 5.549,4.97554 10.1215,4.97554 3.3635,0 7.037,-0.89905 10.6175,-2.77452 6.541,-3.48753 10.509,-9.34653 10.509,-14.41503 0,-1.3795 -0.2945,-2.7745 -0.992,-4.061 m -4.2625,6.7425 c -1.6895,1.6895 -5.0685,3.76651 -8.6335,5.766 -3.565,1.984 -7.1455,3.472 -9.517,3.968 -0.496,0.10851 -0.992,0.20151 -1.488,0.20151 -1.5965,0 -2.79,-0.589 -3.472,-1.891 -0.31,-0.496 -0.496,-1.085 -0.496,-1.68951 0,-1.085 0.682,-2.387 1.7825,-3.472 1.6895,-1.6895 4.96,-3.7665 8.525,-5.7505 3.5805,-1.984 7.1455,-3.472 9.5325,-3.968 0.496,-0.1085 0.992,-0.2015 1.488,-0.2015 1.581,0 2.8675,0.589 3.565,1.8755 0.2945,0.496 0.403,1.1005 0.403,1.6895 0,1.1005 -0.6045,2.2785 -1.6895,3.472"
     id="path376"
     style="stroke-width:0.992" />
  <path
     class="Note"
     d="M 2172.69,191.05302 C 2170.9075,187.78252 2167.141,186 2162.5685,186 c -3.3635,0 -7.037,0.992 -10.6175,2.86748 -6.541,3.47204 -10.509,9.33104 -10.509,14.38404 0,1.395 0.2945,2.79 0.992,4.07651 1.7825,3.28597 5.549,4.97554 10.1215,4.97554 3.3635,0 7.037,-0.89905 10.6175,-2.77452 6.541,-3.48753 10.509,-9.34653 10.509,-14.41503 0,-1.3795 -0.2945,-2.7745 -0.992,-4.061 m -4.2625,6.7425 c -1.6895,1.6895 -5.0685,3.76651 -8.6335,5.766 -3.565,1.984 -7.1455,3.472 -9.517,3.968 -0.496,0.10851 -0.992,0.20151 -1.488,0.20151 -1.5965,0 -2.79,-0.589 -3.472,-1.891 -0.31,-0.496 -0.496,-1.085 -0.496,-1.68951 0,-1.085 0.682,-2.387 1.7825,-3.472 1.6895,-1.6895 4.96,-3.7665 8.525,-5.7505 3.5805,-1.984 7.1455,-3.472 9.5325,-3.968 0.496,-0.1085 0.992,-0.2015 1.488,-0.2015 1.581,0 2.8675,0.589 3.565,1.8755 0.2945,0.496 0.403,1.1005 0.403,1.6895 0,1.1005 -0.6045,2.2785 -1.6895,3.472"
     id="path378"
     style="stroke-width:0.992" />
  <path
     class="Note"
     d="m 2202.2,178.65302 c -1.7825,-3.2705 -5.549,-5.05302 -10.1215,-5.05302 -3.3635,0 -7.037,0.992 -10.6175,2.86748 -6.541,3.47204 -10.509,9.33104 -10.509,14.38404 0,1.395 0.2945,2.79 0.992,4.07651 1.7825,3.28597 5.549,4.97554 10.1215,4.97554 3.3635,0 7.037,-0.89905 10.6175,-2.77452 6.541,-3.48753 10.509,-9.34653 10.509,-14.41503 0,-1.3795 -0.2945,-2.7745 -0.992,-4.061 m -4.2625,6.7425 c -1.6895,1.6895 -5.0685,3.76651 -8.6335,5.766 -3.565,1.984 -7.1455,3.472 -9.517,3.968 -0.496,0.10851 -0.992,0.20151 -1.488,0.20151 -1.5965,0 -2.79,-0.589 -3.472,-1.891 -0.31,-0.496 -0.496,-1.085 -0.496,-1.68951 0,-1.085 0.682,-2.387 1.7825,-3.472 1.6895,-1.6895 4.96,-3.7665 8.525,-5.7505 3.5805,-1.984 7.1455,-3.472 9.5325,-3.968 0.496,-0.1085 0.992,-0.2015 1.488,-0.2015 1.581,0 2.8675,0.589 3.565,1.8755 0.2945,0.496 0.403,1.1005 0.403,1.6895 0,1.1005 -0.6045,2.2785 -1.6895,3.472"
     id="path380"
     style="stroke-width:0.992" />
  <path
     class="Note"
     d="M 2202.2,129.05302 C 2200.4175,125.78252 2196.651,124 2192.0785,124 c -3.3635,0 -7.037,0.992 -10.6175,2.86748 -6.541,3.47204 -10.509,9.33104 -10.509,14.38404 0,1.395 0.2945,2.79 0.992,4.07651 1.7825,3.28597 5.549,4.97554 10.1215,4.97554 3.3635,0 7.037,-0.89905 10.6175,-2.77452 6.541,-3.48753 10.509,-9.34653 10.509,-14.41503 0,-1.3795 -0.2945,-2.7745 -0.992,-4.061 m -4.2625,6.7425 c -1.6895,1.6895 -5.0685,3.76651 -8.6335,5.766 -3.565,1.984 -7.1455,3.472 -9.517,3.968 -0.496,0.10851 -0.992,0.20151 -1.488,0.20151 -1.5965,0 -2.79,-0.589 -3.472,-1.891 -0.31,-0.496 -0.496,-1.085 -0.496,-1.68951 0,-1.085 0.682,-2.387 1.7825,-3.472 1.6895,-1.6895 4.96,-3.7665 8.525,-5.7505 3.5805,-1.984 7.1455,-3.472 9.5325,-3.968 0.496,-0.1085 0.992,-0.2015 1.488,-0.2015 1.581,0 2.8675,0.589 3.565,1.8755 0.2945,0.496 0.403,1.1005 0.403,1.6895 0,1.1005 -0.6045,2.2785 -1.6895,3.472"
     id="path382"
     style="stroke-width:0.992" />
  <path
     class="Note"
     d="M 2202.2,91.85302 C 2200.4175,88.582525 2196.651,86.8 2192.0785,86.8 c -3.3635,0 -7.037,0.992 -10.6175,2.867475 -6.541,3.47205 -10.509,9.33105 -10.509,14.384045 0,1.395 0.2945,2.79 0.992,4.07651 1.7825,3.28597 5.549,4.97554 10.1215,4.97554 3.3635,0 7.037,-0.89905 10.6175,-2.77452 6.541,-3.48753 10.509,-9.34653 10.509,-14.41503 0,-1.379495 -0.2945,-2.774495 -0.992,-4.061 m -4.2625,6.742505 c -1.6895,1.689495 -5.0685,3.766505 -8.6335,5.765995 -3.565,1.984 -7.1455,3.472 -9.517,3.968 -0.496,0.10851 -0.992,0.20151 -1.488,0.20151 -1.5965,0 -2.79,-0.589 -3.472,-1.891 -0.31,-0.496 -0.496,-1.085 -0.496,-1.68951 0,-1.085 0.682,-2.387 1.7825,-3.472 1.6895,-1.689495 4.96,-3.7665 8.525,-5.7505 3.5805,-1.984 7.1455,-3.472 9.5325,-3.968 0.496,-0.108495 0.992,-0.201495 1.488,-0.201495 1.581,0 2.8675,0.589 3.565,1.875495 0.2945,0.496 0.403,1.100505 0.403,1.689505 0,1.100495 -0.6045,2.278495 -1.6895,3.472"
     id="path384"
     style="stroke-width:0.992" />
  <path
     class="Note"
     d="M 2172.69,29.85302 C 2170.9075,26.582525 2167.141,24.8 2162.5685,24.8 c -3.3635,0 -7.037,0.992 -10.6175,2.867475 -6.541,3.47205 -10.509,9.33105 -10.509,14.38405 0,1.395 0.2945,2.79 0.992,4.076505 1.7825,3.28597 5.549,4.975544 10.1215,4.975544 3.3635,0 7.037,-0.899049 10.6175,-2.774524 6.541,-3.487525 10.509,-9.346525 10.509,-14.41503 0,-1.379495 -0.2945,-2.774495 -0.992,-4.061 m -4.2625,6.742505 c -1.6895,1.6895 -5.0685,3.766505 -8.6335,5.766 -3.565,1.984 -7.1455,3.472 -9.517,3.968 -0.496,0.108505 -0.992,0.201505 -1.488,0.201505 -1.5965,0 -2.79,-0.589 -3.472,-1.891 -0.31,-0.496 -0.496,-1.085 -0.496,-1.689505 0,-1.085 0.682,-2.387 1.7825,-3.472 1.6895,-1.6895 4.96,-3.766505 8.525,-5.750505 3.5805,-1.984 7.1455,-3.472 9.5325,-3.968 0.496,-0.108495 0.992,-0.201495 1.488,-0.201495 1.581,0 2.8675,0.589 3.565,1.875495 0.2945,0.496 0.403,1.100505 0.403,1.689505 0,1.100495 -0.6045,2.278495 -1.6895,3.472"
     id="path386"
     style="stroke-width:0.992" />
  <path
     class="Note"
     d="M 2202.2,17.45302 C 2200.4175,14.182525 2196.651,12.4 2192.0785,12.4 c -3.3635,0 -7.037,0.992 -10.6175,2.867475 -6.541,3.47205 -10.509,9.33105 -10.509,14.38405 0,1.395 0.2945,2.79 0.992,4.076505 1.7825,3.28597 5.549,4.975544 10.1215,4.975544 3.3635,0 7.037,-0.899049 10.6175,-2.774524 6.541,-3.487525 10.509,-9.346525 10.509,-14.41503 0,-1.379495 -0.2945,-2.774495 -0.992,-4.061 m -4.2625,6.742505 c -1.6895,1.6895 -5.0685,3.766505 -8.6335,5.766 -3.565,1.984 -7.1455,3.472 -9.517,3.968 -0.496,0.108505 -0.992,0.201505 -1.488,0.201505 -1.5965,0 -2.79,-0.589 -3.472,-1.891 -0.31,-0.496 -0.496,-1.085 -0.496,-1.689505 0,-1.085 0.682,-2.387 1.7825,-3.472 1.6895,-1.6895 4.96,-3.766505 8.525,-5.750505 3.5805,-1.984 7.1455,-3.472 9.5325,-3.968 0.496,-0.108495 0.992,-0.201495 1.488,-0.201495 1.581,0 2.8675,0.589 3.565,1.875495 0.2945,0.496 0.403,1.100505 0.403,1.689505 0,1.100495 -0.6045,2.278495 -1.6895,3.472"
     id="path388"
     style="stroke-width:0.992" />
  <path
     class="Clef"
     d="m 82.692525,267.65402 c -1.224525,-5.37854 -3.844,-9.17602 -4.61905,-10.19897 -3.162,-4.24705 -7.145475,-7.068 -11.795475,-8.41653 -3.084525,-0.868 -6.060525,-0.992 -8.46295,-0.806 -1.038525,-5.96747 -2.030525,-11.79547 -2.929575,-17.20504 5.409575,-6.12243 9.005575,-11.87296 11.268525,-16.13548 3.44105,-6.52548 4.572525,-11.06695 4.634525,-11.26852 1.70495,-5.17696 2.061475,-12.81843 0.96095,-20.956 -0.992,-7.48643 -3.06895,-14.15108 -5.409475,-17.37508 -1.007475,-1.41063 -2.061475,-2.13975 -3.084525,-2.13975 -1.20895,0 -3.704425,1.22512 -6.572,3.98387 -2.278425,2.16951 -5.518,6.02938 -8.06,11.99696 -2.976,7.006 -3.19295,16.41452 -2.836425,23.07957 0.372,7.22295 1.472425,12.86495 1.488,12.91147 0.01548,0.093 0.27895,1.58096 0.71295,4.12296 -0.21695,0.23252 -0.46495,0.44957 -0.71295,0.69757 -1.02305,0.992 -2.20105,2.108 -3.580525,3.48747 -0.852525,0.85253 -1.798,1.75148 -2.79,2.71253 C 32.534525,234.22052 19.84,246.45 19.84,265.45302 c 0,4.6655 0.899,9.052 2.666,13.0355 1.565505,3.565 3.844,6.82 6.758,9.672 7.672525,7.502 18.181475,10.67948 25.172,10.52453 2.929475,-0.0775 5.54905,-0.31 7.920525,-0.75948 1.813475,9.53243 2.94495,16.50748 2.976,21.80843 0.04653,6.46357 -1.596525,10.416 -5.456,13.15957 -2.418,1.72043 -5.208,2.666 -8.27705,2.80548 -2.57295,0.124 -4.820425,-0.34105 -6.23095,-0.744 h -0.01547 c 0,0 -0.27905,-0.0931 -0.294525,-0.27905 -0.01548,-0.186 0.34095,-0.23243 0.34095,-0.23243 h 0.03105 c 1.906525,-0.434 5.440525,-1.65852 7.78095,-4.92905 1.782525,-2.51095 2.650525,-7.09895 0.821575,-11.00495 -1.100525,-2.37157 -3.580525,-5.30105 -9.160525,-5.75052 -2.48,-0.20148 -4.727475,0.31 -6.711475,1.50347 -1.798,1.06948 -3.286,2.69705 -4.324525,4.68105 -2.433475,4.66548 -1.984,10.354 1.116,14.16695 2.94495,3.596 7.517475,5.89 12.911475,6.46348 0.852525,0.0931 1.689475,0.124 2.526525,0.124 4.402,0 8.757475,-1.19348 12.30695,-3.37895 3.62705,-2.55748 5.73505,-6.51 6.401575,-12.09 0.558,-4.60348 0.170425,-10.478 -1.20905,-18.49148 -0.356525,-2.07705 -0.89895,-5.084 -1.55,-8.804 5.704,-1.90652 9.82705,-5.456 13.562525,-11.26852 3.270525,-5.68853 4.200525,-11.74903 2.79,-18.01103 M 48.74748,293.66305 C 44.144,292.454 39.742,289.974 36.022,286.48652 c -1.302,-1.20895 -3.162,-3.36349 -4.61895,-6.727 -1.348525,-3.14649 -2.01505,-6.5565 -1.95305,-10.106 0.062,-4.6655 1.364,-9.455 3.844,-14.19804 2.898525,-5.53348 7.424525,-11.02043 13.438525,-16.306 1.441475,-1.27096 2.805475,-2.542 4.076525,-3.81296 0.759475,4.23148 1.58095,8.88148 2.44895,13.71748 -3.81295,1.25548 -8.52495,4.38652 -11.609475,9.99748 -3.518525,6.51004 -3.37905,11.99704 -2.650525,15.45354 0.93,4.4175 3.44105,8.15301 6.866525,10.23003 0.93,0.558 5.022,2.666 6.85095,2.09252 0.372,-0.10852 0.635575,-0.34105 0.77505,-0.66652 0.511475,-1.16253 -0.511475,-1.798 -2.046,-2.74353 -0.604525,-0.372 -1.27105,-0.79049 -1.984,-1.31749 -3.301475,-2.46451 -4.74305,-6.882 -3.673475,-11.23751 0.573475,-2.3715 1.844425,-4.526 3.673475,-6.2155 1.64295,-1.5345 3.673475,-2.61954 6.029475,-3.25502 2.030525,11.16002 4.076525,22.22705 5.704,30.51957 0.124,0.682 0.263475,1.34843 0.387475,2.01495 -4.34,0.93 -8.64895,0.83705 -12.834,-0.26347 M 59.98505,260.72548 c 10.26095,-0.46496 14.492425,6.91304 15.376,11.70254 0.46495,2.5265 0.46495,6.9285 -1.069575,11.11355 -1.162425,3.14643 -3.596,7.192 -8.695475,9.238 -0.062,-0.41852 -0.139475,-0.85252 -0.21695,-1.27105 -1.534525,-8.711 -3.456525,-19.623 -5.394,-30.78304 M 52.715475,190.34 c 1.76705,-5.68852 4.479575,-8.91252 6.463575,-10.63295 1.736,-1.50357 3.363475,-2.21653 4.278,-2.21653 0.139475,0 0.263475,0.031 0.356425,0.062 0.46505,0.13948 0.992,0.69748 1.45705,1.56548 2.294,4.24705 1.55,10.912 0.21695,15.314 -1.612,5.36305 -4.510425,10.92748 -13.23695,20.46 C 52.08,213.79148 51.92505,212.75305 51.77,211.77652 50.53,203.56148 50.855475,196.33852 52.715475,190.34"
     id="path390"
     style="stroke-width:0.992" />
  <path
     class="KeySig"
     d="m 128.04605,240.88552 c -0.58905,-3.85952 -2.976,-7.533 -8.02905,-7.533 -4.96,0 -7.843,3.06896 -8.339,3.67348 l 0.403,-31.85252 c 0,-0.79043 -0.589,-1.37948 -1.395,-1.37948 h -1.178 c -0.806,0 -1.395,0.58905 -1.395,1.37948 l 0.496,59.62852 c 0,0.79052 0.589,1.37957 1.395,1.37957 0.186,0 0.589,-0.0931 0.7905,-0.186 0.3875,-0.20157 6.8355,-3.37905 12.1985,-9.42405 3.76652,-4.278 5.25452,-9.1295 5.25452,-13.206 0,-0.8835 -0.093,-1.674 -0.20147,-2.48 m -6.83557,3.875 c 0,1.488 -0.40296,6.045 -2.88296,9.827 -1.68952,2.573 -5.05302,5.25448 -6.94402,6.74248 l 0.2945,-19.34398 c 0.2015,-0.899 1.6895,-3.76654 5.6575,-3.76654 3.58055,0 3.87498,3.36354 3.87498,5.45604 v 1.085"
     id="path406"
     style="stroke-width:0.992" />
  <path
     class="TimeSig"
     d="m 183.683,222.58002 c 3.31705,-2.48 5.59548,-5.642 5.59548,-9.6255 0,-7.17652 -7.82748,-12.98904 -17.46843,-12.98904 -9.65653,0 -17.48405,5.81252 -17.48405,12.98904 0,3.9835 0.992,7.5485 5.6885,10.478 -4.526,2.65051 -6.9595,6.293 -6.9595,11.02053 0,8.01347 8.3855,14.508 18.75505,14.508 10.354,0 18.73947,-6.49453 18.73947,-14.508 0,-4.72753 -1.72052,-9.25353 -6.86652,-11.87303 m -11.88852,20.8165 c -6.30843,0 -11.79548,-3.45652 -11.79548,-8.99 0,-6.64949 5.13052,-8.246 5.13052,-8.246 6.74253,2.24751 16.41453,5.65751 16.41453,11.06705 0,2.71243 -3.44105,6.16895 -9.74957,6.16895 m 6.33957,-23.5445 c -6.758,-2.0925 -14.18253,-5.363 -14.18253,-9.8735 0,-3.906 3.58053,-5.44052 7.84296,-5.44052 6.10704,0 10.32304,2.86748 10.32304,7.42452 0,4.7585 -2.20104,7.0215 -3.98347,7.8895"
     id="path422"
     style="stroke-width:0.992" />
  <path
     class="TimeSig"
     d="m 183.683,271.31202 c 3.31705,-2.48 5.59548,-5.642 5.59548,-9.6255 0,-7.17652 -7.82748,-12.98904 -17.46843,-12.98904 -9.65653,0 -17.48405,5.81252 -17.48405,12.98904 0,3.9835 0.992,7.5485 5.6885,10.478 -4.526,2.65051 -6.9595,6.293 -6.9595,11.02053 0,8.01347 8.3855,14.508 18.75505,14.508 10.354,0 18.73947,-6.49453 18.73947,-14.508 0,-4.72753 -1.72052,-9.25353 -6.86652,-11.87303 m -11.88852,20.8165 c -6.30843,0 -11.79548,-3.45652 -11.79548,-8.99 0,-6.64949 5.13052,-8.246 5.13052,-8.246 6.74253,2.24751 16.41453,5.65751 16.41453,11.06705 0,2.71243 -3.44105,6.16895 -9.74957,6.16895 m 6.33957,-23.5445 c -6.758,-2.0925 -14.18253,-5.363 -14.18253,-9.8735 0,-3.906 3.58053,-5.44052 7.84296,-5.44052 6.10704,0 10.32304,2.86748 10.32304,7.42452 0,4.7585 -2.20104,7.0215 -3.98347,7.8895"
     id="path424"
     style="stroke-width:0.992" />
  <metadata
     id="metadata1303">
    <rdf:RDF>
      <cc:Work
         rdf:about="">
        <dc:title>Bez názvu</dc:title>
      </cc:Work>
    </rdf:RDF>
  </metadata>
  <ellipse
     style="fill:#000000;stroke:#ff0000;stroke-width:0;stroke-miterlimit:4;stroke-dasharray:none;stroke-opacity:0;stop-color:#000000"
     id="path2217"
     cx="338.28723"
     cy="-114.51429"
     rx="10.518084"
     ry="15.338871"
     transform="rotate(62.848682)" />
  <ellipse
     style="fill:#000000;stroke:#ff0000;stroke-width:0;stroke-miterlimit:4;stroke-dasharray:none;stroke-opacity:0;stop-color:#000000"
     id="path2217-4"
     cx="274.51611"
     cy="-180.37756"
     rx="10.518084"
     ry="15.338871"
     transform="rotate(62.848682)" />
  <ellipse
     style="fill:#000000;stroke:#ff0000;stroke-width:0;stroke-miterlimit:4;stroke-dasharray:none;stroke-opacity:0;stop-color:#000000"
     id="path2217-0"
     cx="197.28108"
     cy="-219.98804"
     rx="10.518084"
     ry="15.338871"
     transform="rotate(62.848682)" />
  <ellipse
     style="fill:#000000;stroke:#ff0000;stroke-width:0;stroke-miterlimit:4;stroke-dasharray:none;stroke-opacity:0;stop-color:#000000"
     id="path2217-5"
     cx="502.69916"
     cy="-326.4046"
     rx="10.518084"
     ry="15.338871"
     transform="rotate(62.848682)" />
  <ellipse
     style="fill:#000000;stroke:#ff0000;stroke-width:0;stroke-miterlimit:4;stroke-dasharray:none;stroke-opacity:0;stop-color:#000000"
     id="path2217-3"
     cx="414.43054"
     cy="-371.67371"
     rx="10.518084"
     ry="15.338871"
     transform="rotate(62.848682)" />
  <ellipse
     style="fill:#000000;stroke:#ff0000;stroke-width:0;stroke-miterlimit:4;stroke-dasharray:none;stroke-opacity:0;stop-color:#000000"
     id="path2217-30"
     cx="337.1955"
     cy="-411.28418"
     rx="10.518084"
     ry="15.338871"
     transform="rotate(62.848682)" />
  <ellipse
     style="fill:#000000;stroke:#ff0000;stroke-width:0;stroke-miterlimit:4;stroke-dasharray:none;stroke-opacity:0;stop-color:#000000"
     id="path2217-9"
     cx="632.65381"
     cy="-606.97095"
     rx="10.518084"
     ry="15.338871"
     transform="rotate(62.848682)" />
  <ellipse
     style="fill:#000000;stroke:#ff0000;stroke-width:0;stroke-miterlimit:4;stroke-dasharray:none;stroke-opacity:0;stop-color:#000000"
     id="path2217-6"
     cx="544.38519"
     cy="-652.24011"
     rx="10.518084"
     ry="15.338871"
     transform="rotate(62.848682)" />
  <ellipse
     style="fill:#000000;stroke:#ff0000;stroke-width:0;stroke-miterlimit:4;stroke-dasharray:none;stroke-opacity:0;stop-color:#000000"
     id="path2217-50"
     cx="478.18378"
     cy="-686.19196"
     rx="10.518084"
     ry="15.338871"
     transform="rotate(62.848682)" />
  <ellipse
     style="fill:#000000;stroke:#ff0000;stroke-width:0;stroke-miterlimit:4;stroke-dasharray:none;stroke-opacity:0;stop-color:#000000"
     id="path2217-54"
     cx="764.85913"
     cy="-810.40796"
     rx="10.518084"
     ry="15.338871"
     transform="rotate(62.848682)" />
  <ellipse
     style="fill:#000000;stroke:#ff0000;stroke-width:0;stroke-miterlimit:4;stroke-dasharray:none;stroke-opacity:0;stop-color:#000000"
     id="path2217-94"
     cx="698.65771"
     cy="-844.35986"
     rx="10.518084"
     ry="15.338871"
     transform="rotate(62.848682)" />
  <ellipse
     style="fill:#000000;stroke:#ff0000;stroke-width:0;stroke-miterlimit:4;stroke-dasharray:none;stroke-opacity:0;stop-color:#000000"
     id="path2217-34"
     cx="610.38904"
     cy="-889.62891"
     rx="10.518084"
     ry="15.338871"
     transform="rotate(62.848682)" />
  <ellipse
     style="fill:#000000;stroke:#ff0000;stroke-width:0;stroke-miterlimit:4;stroke-dasharray:none;stroke-opacity:0;stop-color:#000000"
     id="path2217-2"
     cx="829.50916"
     cy="-1099.5023"
     rx="10.518084"
     ry="15.338871"
     transform="rotate(62.848682)" />
  <ellipse
     style="fill:#000000;stroke:#ff0000;stroke-width:0;stroke-miterlimit:4;stroke-dasharray:none;stroke-opacity:0;stop-color:#000000"
     id="path2217-24"
     cx="752.25122"
     cy="-1139.119"
     rx="10.518084"
     ry="15.338871"
     transform="rotate(62.848682)" />
  <ellipse
     style="fill:#000000;stroke:#ff0000;stroke-width:0;stroke-miterlimit:4;stroke-dasharray:none;stroke-opacity:0;stop-color:#000000"
     id="path2217-25"
     cx="663.9826"
     cy="-1184.3882"
     rx="10.518084"
     ry="15.338871"
     transform="rotate(62.848682)" />
  <ellipse
     style="fill:#000000;stroke:#ff0000;stroke-width:0;stroke-miterlimit:4;stroke-dasharray:none;stroke-opacity:0;stop-color:#000000"
     id="path2217-1"
     cx="1021.6122"
     cy="-1283.9197"
     rx="10.518084"
     ry="15.338871"
     transform="rotate(62.848682)" />
  <ellipse
     style="fill:#000000;stroke:#ff0000;stroke-width:0;stroke-miterlimit:4;stroke-dasharray:none;stroke-opacity:0;stop-color:#000000"
     id="path2217-7"
     cx="944.39783"
     cy="-1323.5195"
     rx="10.518084"
     ry="15.338871"
     transform="rotate(62.848682)" />
  <ellipse
     style="fill:#000000;stroke:#ff0000;stroke-width:0;stroke-miterlimit:4;stroke-dasharray:none;stroke-opacity:0;stop-color:#000000"
     id="path2217-8"
     cx="900.26355"
     cy="-1346.1541"
     rx="10.518084"
     ry="15.338871"
     transform="rotate(62.848682)" />
  <ellipse
     style="fill:#000000;stroke:#ff0000;stroke-width:0;stroke-miterlimit:4;stroke-dasharray:none;stroke-opacity:0;stop-color:#000000"
     id="path2217-02"
     cx="856.12927"
     cy="-1368.7887"
     rx="10.518084"
     ry="15.338871"
     transform="rotate(62.848682)" />
  <ellipse
     style="fill:#000000;stroke:#ff0000;stroke-width:0;stroke-miterlimit:4;stroke-dasharray:none;stroke-opacity:0;stop-color:#000000"
     id="path2217-43"
     cx="823.00781"
     cy="-1385.7751"
     rx="10.518084"
     ry="15.338871"
     transform="rotate(62.848682)" />
  <ellipse
     style="fill:#000000;stroke:#ff0000;stroke-width:0;stroke-miterlimit:4;stroke-dasharray:none;stroke-opacity:0;stop-color:#000000"
     id="path2217-86"
     cx="745.79346"
     cy="-1425.3751"
     rx="10.518084"
     ry="15.338871"
     transform="rotate(62.848682)" />
  <ellipse
     style="fill:#000000;stroke:#ff0000;stroke-width:0;stroke-miterlimit:4;stroke-dasharray:none;stroke-opacity:0;stop-color:#000000"
     id="path2217-59"
     cx="1068.9709"
     cy="-1593.5924"
     rx="10.518084"
     ry="15.338871"
     transform="rotate(62.848682)" />
  <ellipse
     style="fill:#000000;stroke:#ff0000;stroke-width:0;stroke-miterlimit:4;stroke-dasharray:none;stroke-opacity:0;stop-color:#000000"
     id="path2217-06"
     cx="1005.198"
     cy="-1659.4521"
     rx="10.518084"
     ry="15.338871"
     transform="rotate(62.848682)" />
  <ellipse
     style="fill:#000000;stroke:#ff0000;stroke-width:0;stroke-miterlimit:4;stroke-dasharray:none;stroke-opacity:0;stop-color:#000000"
     id="path2217-258"
     cx="914.50085"
     cy="-1672.8135"
     rx="10.518084"
     ry="15.338871"
     transform="rotate(62.848682)" />
  <ellipse
     style="fill:#000000;stroke:#ff0000;stroke-width:0;stroke-miterlimit:4;stroke-dasharray:none;stroke-opacity:0;stop-color:#000000"
     id="path2217-65"
     cx="1274.5613"
     cy="-1804.2572"
     rx="10.518084"
     ry="15.338871"
     transform="rotate(62.848682)" />
  <ellipse
     style="fill:#000000;stroke:#ff0000;stroke-width:0;stroke-miterlimit:4;stroke-dasharray:none;stroke-opacity:0;stop-color:#000000"
     id="path2217-85"
     cx="1183.8596"
     cy="-1817.6096"
     rx="10.518084"
     ry="15.338871"
     transform="rotate(62.848682)" />
  <ellipse
     style="fill:#000000;stroke:#ff0000;stroke-width:0;stroke-miterlimit:4;stroke-dasharray:none;stroke-opacity:0;stop-color:#000000"
     id="path2217-22"
     cx="1161.7924"
     cy="-1828.9269"
     rx="10.518084"
     ry="15.338871"
     transform="rotate(62.848682)" />
  <ellipse
     style="fill:#000000;stroke:#ff0000;stroke-width:0;stroke-miterlimit:4;stroke-dasharray:none;stroke-opacity:0;stop-color:#000000"
     id="path2217-28"
     cx="1120.0912"
     cy="-1883.4783"
     rx="10.518084"
     ry="15.338871"
     transform="rotate(62.848682)" />
  <ellipse
     style="fill:#000000;stroke:#ff0000;stroke-width:0;stroke-miterlimit:4;stroke-dasharray:none;stroke-opacity:0;stop-color:#000000"
     id="path2217-80"
     cx="1018.356"
     cy="-1902.4893"
     rx="10.518084"
     ry="15.338871"
     transform="rotate(62.848682)" />
</svg>
