<?xml version="1.0" encoding="UTF-8" standalone="no"?>
<!-- Created with Inkscape (http://www.inkscape.org/) -->

<svg
   width="46.832283mm"
   height="44.715099mm"
   viewBox="0 0 46.832283 44.715099"
   version="1.1"
   id="svg355"
   xmlns="http://www.w3.org/2000/svg"
   xmlns:svg="http://www.w3.org/2000/svg">
  <defs
     id="defs352">
    <clipPath
       clipPathUnits="userSpaceOnUse"
       id="clipPath614">
      <g
         id="g620">
        <g
           id="g618">
          <path
             d="M 64.081062,50.760431 H 111.44148 V 96.004177 H 64.081062 Z"
             clip-rule="evenodd"
             id="path616"
             style="stroke-width:0.0846667" />
        </g>
      </g>
    </clipPath>
    <clipPath
       clipPathUnits="userSpaceOnUse"
       id="clipPath622">
      <g
         id="g628">
        <g
           id="g626">
          <path
             d="M 64.081062,50.760431 H 111.44148 V 96.004177 H 64.081062 Z"
             clip-rule="evenodd"
             id="path624"
             style="stroke-width:0.0846667" />
        </g>
      </g>
    </clipPath>
    <clipPath
       clipPathUnits="userSpaceOnUse"
       id="clipPath630">
      <g
         id="g636">
        <g
           id="g634">
          <path
             d="M 64.081062,50.760431 H 111.44148 V 96.004177 H 64.081062 Z"
             clip-rule="evenodd"
             id="path632"
             style="stroke-width:0.0846667" />
        </g>
      </g>
    </clipPath>
    <clipPath
       clipPathUnits="userSpaceOnUse"
       id="clipPath646">
      <g
         id="g652">
        <g
           id="g650">
          <path
             d="M 64.081062,50.760431 H 111.44148 V 96.004177 H 64.081062 Z"
             clip-rule="evenodd"
             id="path648"
             style="stroke-width:0.0846667" />
        </g>
      </g>
    </clipPath>
    <clipPath
       clipPathUnits="userSpaceOnUse"
       id="clipPath654">
      <g
         id="g660">
        <g
           id="g658">
          <path
             d="M 64.081062,50.760431 H 111.44148 V 96.004177 H 64.081062 Z"
             clip-rule="evenodd"
             id="path656"
             style="stroke-width:0.0846667" />
        </g>
      </g>
    </clipPath>
    <clipPath
       clipPathUnits="userSpaceOnUse"
       id="clipPath662">
      <g
         id="g668">
        <g
           id="g666">
          <path
             d="M 64.081062,50.760431 H 111.44148 V 96.004177 H 64.081062 Z"
             clip-rule="evenodd"
             id="path664"
             style="stroke-width:0.0846667" />
        </g>
      </g>
    </clipPath>
    <clipPath
       clipPathUnits="userSpaceOnUse"
       id="clipPath670">
      <g
         id="g676">
        <g
           id="g674">
          <path
             d="M 64.081062,50.760431 H 111.44148 V 96.004177 H 64.081062 Z"
             clip-rule="evenodd"
             id="path672"
             style="stroke-width:0.0846667" />
        </g>
      </g>
    </clipPath>
    <clipPath
       clipPathUnits="userSpaceOnUse"
       id="clipPath678">
      <g
         id="g684">
        <g
           id="g682">
          <path
             d="M 64.081062,50.760431 H 111.44148 V 96.004177 H 64.081062 Z"
             clip-rule="evenodd"
             id="path680"
             style="stroke-width:0.0846667" />
        </g>
      </g>
    </clipPath>
    <clipPath
       clipPathUnits="userSpaceOnUse"
       id="clipPath686">
      <g
         id="g692">
        <g
           id="g690">
          <path
             d="M 64.081062,50.760431 H 111.44148 V 96.004177 H 64.081062 Z"
             clip-rule="evenodd"
             id="path688"
             style="stroke-width:0.0846667" />
        </g>
      </g>
    </clipPath>
    <clipPath
       clipPathUnits="userSpaceOnUse"
       id="clipPath694">
      <g
         id="g700">
        <g
           id="g698">
          <path
             d="M 64.081062,50.760431 H 111.44148 V 96.004177 H 64.081062 Z"
             clip-rule="evenodd"
             id="path696"
             style="stroke-width:0.0846667" />
        </g>
      </g>
    </clipPath>
  </defs>
  <g
     id="layer1"
     transform="translate(-64.345426,-51.025309)">
    <path
       id="path36"
       clip-path="none"
       style="fill:#000000;fill-opacity:1;fill-rule:nonzero;stroke:none;stroke-width:0.264583"
       d="m 64.345943,51.025309 v 0.26355 5.293217 0.26355 5.29115 0.265617 5.291149 0.265617 5.290633 h -5.17e-4 v 5.820834 h 5.17e-4 v 5.291666 h -5.17e-4 v 5.820834 h 5.17e-4 v 5.17e-4 5.291149 0.265617 h 0.26355 5.556767 0.265617 5.55625 0.264066 5.55625 0.264067 5.55625 0.265617 5.554699 0.265617 5.556767 0.26355 5.55677 0.26355 5.55676 0.26562 v -0.265617 -5.291149 -0.265617 -5.29115 -0.26355 -5.293217 -0.26355 -5.2927 -0.264067 -5.290633 -0.265617 -5.291149 -0.265617 -5.29115 -0.26355 -5.293217 -0.26355 h -0.26562 -5.55676 -0.26355 -5.55677 -0.26355 -5.556767 -0.265617 -5.554699 -0.265617 -5.55625 -0.264067 -5.55625 -0.264066 -5.55625 -0.265617 -5.556767 z m 0.26355,0.26355 h 5.556767 v 5.293217 h -5.556767 z m 5.822384,0 h 5.55625 v 5.293217 h -5.55625 z m 5.820316,0 h 5.55625 v 5.293217 h -5.55625 z m 5.820317,0 h 5.55625 v 5.293217 h -5.55625 z m 5.821867,0 h 5.554699 v 5.293217 h -5.554699 z m 5.820316,0 h 5.556767 v 5.293217 h -5.556767 z m 5.820317,0 h 5.55677 v 5.293217 h -5.55677 z m 5.82032,0 h 5.55676 v 5.293217 h -5.55676 z m -40.745837,5.556767 h 5.556767 v 5.29115 h -5.556767 z m 5.822384,0 h 5.55625 v 5.29115 h -5.55625 z m 5.820316,0 h 5.55625 v 5.29115 h -5.55625 z m 5.820317,0 h 5.55625 v 5.29115 h -5.55625 z m 5.821867,0 h 5.554699 v 5.29115 h -5.554699 z m 5.820316,0 h 5.556767 v 5.29115 h -5.556767 z m 5.820317,0 h 5.55677 v 5.29115 h -5.55677 z m 5.82032,0 h 5.55676 v 5.29115 h -5.55676 z m -40.745837,5.556767 h 5.556767 v 5.291149 h -5.556767 z m 5.822384,0 h 5.55625 v 5.291149 h -5.55625 z m 5.820316,0 h 5.55625 v 5.291149 h -5.55625 z m 5.820317,0 h 5.55625 v 5.291149 h -5.55625 z m 5.821867,0 h 5.554699 v 5.291149 h -5.554699 z m 5.820316,0 h 5.556767 v 5.291149 h -5.556767 z m 5.820317,0 h 5.55677 v 5.291149 h -5.55677 z m 5.82032,0 h 5.55676 v 5.291149 h -5.55676 z m -40.745837,5.556766 h 5.556767 v 5.290633 h -5.556767 z m 5.822384,0 h 5.55625 v 5.290633 h -0.001 -5.555216 z m 5.820316,0 h 5.55625 v 5.290633 h -5.55625 z m 5.820317,0 h 5.55625 v 5.290633 h -5.55625 z m 5.821867,0 h 5.554699 v 5.290633 h -5.554699 z m 5.820316,0 h 5.556767 v 5.290633 h -5.556767 z m 5.820317,0 h 5.55677 v 5.290633 h -5.55677 z m 5.82032,0 h 5.55676 v 5.290633 h -5.55676 z m -34.923453,5.5547 h 5.555216 v 5.292183 h -5.555216 z m 11.640633,0 h 5.55625 v 5.2927 h -5.55625 z m 5.821867,0 h 5.554699 v 5.2927 h -5.554699 z m 5.820316,0 h 5.556767 v 5.2927 h -5.556767 z m 5.820317,0 h 5.55677 v 5.2927 h -5.55677 z m 5.82032,0 h 5.55676 v 5.2927 h -5.55676 z m -23.28282,5.55625 h 5.55625 v 5.293217 h -5.55625 v -0.001 -5.291666 z m 5.821867,0 h 5.554699 v 5.293217 h -5.554699 z m 5.820316,0 h 5.556767 v 5.293217 h -5.556767 z m 5.820317,0 h 5.55677 v 5.293217 h -5.55677 z m 5.82032,0 h 5.55676 v 5.293217 h -5.55676 z m -40.745837,5.17e-4 h 5.556767 v 5.291666 h -5.556767 z m 11.6427,0 h 5.55625 v 5.291666 h -5.55625 z m 5.820317,5.55625 h 5.55625 v 5.29115 h -5.55625 z m 5.821867,0 h 5.554699 v 5.29115 h -5.554699 z m 5.820316,0 h 5.556767 v 5.29115 h -5.556767 z m 5.820317,0 h 5.55677 v 5.29115 h -5.55677 z m 5.82032,0 h 5.55676 v 5.29115 h -5.55676 z m -40.745837,5.556767 h 5.556767 v 5.291149 h -5.556767 z m 5.822384,0 h 5.55625 v 5.291149 h -5.55625 z m 5.820316,0 h 5.55625 v 5.291149 h -5.55625 z m 5.820317,0 h 5.55625 v 5.291149 h -5.55625 z m 5.821867,0 h 5.554699 v 5.291149 h -5.554699 z m 5.820316,0 h 5.556767 v 5.291149 h -5.556767 z m 5.820317,0 h 5.55677 v 5.291149 h -5.55677 z m 5.82032,0 h 5.55676 v 5.291149 h -5.55676 z" />
  </g>
</svg>
