<?xml version="1.0" encoding="UTF-8" standalone="no"?>
<!-- Created with Inkscape (http://www.inkscape.org/) -->

<svg
   width="190.5mm"
   height="275.16663mm"
   viewBox="0 0 190.5 275.16663"
   version="1.1"
   id="svg5"
   xmlns="http://www.w3.org/2000/svg"
   xmlns:svg="http://www.w3.org/2000/svg">
  <defs
     id="defs2">
    <clipPath
       clipPathUnits="userSpaceOnUse"
       id="clipPath4216">
      <g
         id="g4220"
         transform="translate(0,-3.1535434e-5)">
        <path
           d="M 0,1.8311e-4 H 540 V 780.00018 H 0 Z"
           clip-rule="evenodd"
           id="path4218" />
      </g>
    </clipPath>
  </defs>
  <g
     id="layer1"
     transform="translate(-49.115431,-42.615068)">
    <g
       id="g830"
       transform="matrix(0.35277777,0,0,-0.35277777,49.115431,317.78175)">
      <path
         d="m 75.568,132.89 c -1.462,0.78 -2.015,2.6 -1.235,4.06 0.78,1.46 2.597,2.02 4.059,1.24 1.462,-0.78 2.015,-2.6 1.235,-4.06 -0.78,-1.46 -2.597,-2.02 -4.059,-1.24 z m 1.412,2.65 c 0,0 0,0 0,0 0,0 0,0 0,0 0,0 0,0 0,0 0,0 0,0 0,0 z"
         style="fill:#000000;fill-opacity:1;fill-rule:nonzero;stroke:none"
         id="path842" />
      <path
         d="m 75.568,172.73 c -1.462,0.78 -2.015,2.6 -1.235,4.06 0.78,1.46 2.597,2.02 4.059,1.24 1.462,-0.78 2.015,-2.6 1.235,-4.06 -0.78,-1.46 -2.597,-2.02 -4.059,-1.24 z m 1.412,2.65 c 0,0 0,0 0,0 0,0 0,0 0,0 0,0 0,0 0,0 0,0 0,0 0,0 z"
         style="fill:#000000;fill-opacity:1;fill-rule:nonzero;stroke:none"
         id="path844" />
      <path
         d="m 74.791,213.17 c -1.133,1.21 -1.072,3.11 0.137,4.24 1.209,1.13 3.107,1.07 4.241,-0.14 1.133,-1.21 1.072,-3.11 -0.137,-4.24 -1.209,-1.13 -3.107,-1.07 -4.241,0.14 z m 2.189,2.05 c 0,0 0,0 0,0 0,0 0,0 0,0 0,0 0,0 0,0 0,0 0,0 0,0 z"
         style="fill:#000000;fill-opacity:1;fill-rule:nonzero;stroke:none"
         id="path846" />
      <path
         d="m 75.568,252.41 c -1.462,0.78 -2.015,2.6 -1.235,4.06 0.78,1.46 2.597,2.02 4.059,1.24 1.462,-0.78 2.015,-2.6 1.235,-4.06 -0.78,-1.46 -2.597,-2.02 -4.059,-1.24 z m 1.412,2.65 c 0,0 0,0 0,0 0,0 0,0 0,0 0,0 0,0 0,0 0,0 0,0 0,0 z"
         style="fill:#000000;fill-opacity:1;fill-rule:nonzero;stroke:none"
         id="path848" />
      <path
         d="m 75.568,292.25 c -1.462,0.78 -2.015,2.6 -1.235,4.06 0.78,1.46 2.597,2.02 4.059,1.24 1.462,-0.78 2.015,-2.6 1.235,-4.06 -0.78,-1.46 -2.597,-2.02 -4.059,-1.24 z m 1.412,2.65 c 0,0 0,0 0,0 0,0 0,0 0,0 0,0 0,0 0,0 0,0 0,0 0,0 z"
         style="fill:#000000;fill-opacity:1;fill-rule:nonzero;stroke:none"
         id="path850" />
      <path
         d="m 75.568,332.21 c -1.462,0.78 -2.015,2.6 -1.235,4.06 0.78,1.46 2.597,2.02 4.059,1.24 1.462,-0.78 2.015,-2.6 1.235,-4.06 -0.78,-1.46 -2.597,-2.02 -4.059,-1.24 z m 1.412,2.65 c 0,0 0,0 0,0 0,0 0,0 0,0 0,0 0,0 0,0 0,0 0,0 0,0 z"
         style="fill:#000000;fill-opacity:1;fill-rule:nonzero;stroke:none"
         id="path852" />
      <path
         d="m 75.568,372.05 c -1.462,0.78 -2.015,2.6 -1.235,4.06 0.78,1.46 2.597,2.02 4.059,1.24 1.462,-0.78 2.015,-2.6 1.235,-4.06 -0.78,-1.46 -2.597,-2.02 -4.059,-1.24 z m 1.412,2.65 c 0,0 0,0 0,0 0,0 0,0 0,0 0,0 0,0 0,0 0,0 0,0 0,0 z"
         style="fill:#000000;fill-opacity:1;fill-rule:nonzero;stroke:none"
         id="path854" />
      <path
         d="m 74.791,412.49 c -1.133,1.21 -1.072,3.11 0.137,4.24 1.209,1.13 3.107,1.07 4.241,-0.14 1.133,-1.21 1.072,-3.11 -0.137,-4.24 -1.209,-1.13 -3.107,-1.07 -4.241,0.14 z m 2.189,2.05 c 0,0 0,0 0,0 0,0 0,0 0,0 0,0 0,0 0,0 0,0 0,0 0,0 z"
         style="fill:#000000;fill-opacity:1;fill-rule:nonzero;stroke:none"
         id="path856" />
      <path
         d="m 75.106,452.04 c -1.294,1.03 -1.504,2.92 -0.469,4.21 1.035,1.3 2.923,1.51 4.217,0.47 1.294,-1.03 1.504,-2.92 0.469,-4.21 -1.035,-1.3 -2.923,-1.51 -4.217,-0.47 z m 1.874,2.34 c 0,0 0,0 0,0 0,0 0,0 0,0 0,0 0,0 0,0 0,0 0,0 0,0 z"
         style="fill:#000000;fill-opacity:1;fill-rule:nonzero;stroke:none"
         id="path858" />
      <path
         d="m 75.106,491.88 c -1.294,1.03 -1.504,2.92 -0.469,4.21 1.035,1.3 2.923,1.51 4.217,0.47 1.294,-1.03 1.504,-2.92 0.469,-4.21 -1.035,-1.3 -2.923,-1.51 -4.217,-0.47 z m 1.874,2.34 c 0,0 0,0 0,0 0,0 0,0 0,0 0,0 0,0 0,0 0,0 0,0 0,0 z"
         style="fill:#000000;fill-opacity:1;fill-rule:nonzero;stroke:none"
         id="path860" />
      <path
         d="m 473.5,137.38 c -1.17,1.17 -1.17,3.07 0,4.24 1.17,1.17 3.07,1.17 4.24,0 1.17,-1.17 1.17,-3.07 0,-4.24 -1.17,-1.17 -3.07,-1.17 -4.24,0 z m 2.12,2.12 c 0,0 0,0 0,0 0,0 0,0 0,0 0,0 0,0 0,0 0,0 0,0 0,0 z"
         style="fill:#000000;fill-opacity:1;fill-rule:nonzero;stroke:none"
         id="path862" />
      <path
         d="m 473.5,181.18 c -1.17,1.17 -1.17,3.07 0,4.24 1.17,1.17 3.07,1.17 4.24,0 1.17,-1.17 1.17,-3.07 0,-4.24 -1.17,-1.17 -3.07,-1.17 -4.24,0 z m 2.12,2.12 c 0,0 0,0 0,0 0,0 0,0 0,0 0,0 0,0 0,0 0,0 0,0 0,0 z"
         style="fill:#000000;fill-opacity:1;fill-rule:nonzero;stroke:none"
         id="path864" />
      <path
         d="m 472.94,225.88 c -0.74,1.48 -0.14,3.28 1.34,4.02 1.48,0.74 3.28,0.14 4.02,-1.34 0.74,-1.48 0.14,-3.28 -1.34,-4.02 -1.48,-0.74 -3.28,-0.14 -4.02,1.34 z m 2.68,1.34 c 0,0 0,0 0,0 0,0 0,0 0,0 0,0 0,0 0,0 0,0 0,0 0,0 z"
         style="fill:#000000;fill-opacity:1;fill-rule:nonzero;stroke:none"
         id="path866" />
      <path
         d="m 472.94,269.68 c -0.74,1.48 -0.14,3.28 1.34,4.02 1.48,0.74 3.28,0.14 4.02,-1.34 0.74,-1.48 0.14,-3.28 -1.34,-4.02 -1.48,-0.74 -3.28,-0.14 -4.02,1.34 z m 2.68,1.34 c 0,0 0,0 0,0 0,0 0,0 0,0 0,0 0,0 0,0 0,0 0,0 0,0 z"
         style="fill:#000000;fill-opacity:1;fill-rule:nonzero;stroke:none"
         id="path868" />
      <path
         d="m 473.5,312.82 c -1.17,1.17 -1.17,3.07 0,4.24 1.17,1.17 3.07,1.17 4.24,0 1.17,-1.17 1.17,-3.07 0,-4.24 -1.17,-1.17 -3.07,-1.17 -4.24,0 z m 2.12,2.12 c 0,0 0,0 0,0 0,0 0,0 0,0 0,0 0,0 0,0 0,0 0,0 0,0 z"
         style="fill:#000000;fill-opacity:1;fill-rule:nonzero;stroke:none"
         id="path870" />
      <path
         d="m 473.5,356.62 c -1.17,1.17 -1.17,3.07 0,4.24 1.17,1.17 3.07,1.17 4.24,0 1.17,-1.17 1.17,-3.07 0,-4.24 -1.17,-1.17 -3.07,-1.17 -4.24,0 z m 2.12,2.12 c 0,0 0,0 0,0 0,0 0,0 0,0 0,0 0,0 0,0 0,0 0,0 0,0 z"
         style="fill:#000000;fill-opacity:1;fill-rule:nonzero;stroke:none"
         id="path872" />
      <path
         d="m 473.5,400.42 c -1.17,1.17 -1.17,3.07 0,4.24 1.17,1.17 3.07,1.17 4.24,0 1.17,-1.17 1.17,-3.07 0,-4.24 -1.17,-1.17 -3.07,-1.17 -4.24,0 z m 2.12,2.12 c 0,0 0,0 0,0 0,0 0,0 0,0 0,0 0,0 0,0 0,0 0,0 0,0 z"
         style="fill:#000000;fill-opacity:1;fill-rule:nonzero;stroke:none"
         id="path874" />
      <path
         d="m 473.5,444.34 c -1.17,1.17 -1.17,3.07 0,4.24 1.17,1.17 3.07,1.17 4.24,0 1.17,-1.17 1.17,-3.07 0,-4.24 -1.17,-1.17 -3.07,-1.17 -4.24,0 z m 2.12,2.12 c 0,0 0,0 0,0 0,0 0,0 0,0 0,0 0,0 0,0 0,0 0,0 0,0 z"
         style="fill:#000000;fill-opacity:1;fill-rule:nonzero;stroke:none"
         id="path876" />
      <path
         d="m 472.62,490.23 c 0,-1.66 1.34,-3 3,-3 1.66,0 3,1.34 3,3 0,1.65 -1.34,3 -3,3 -1.66,0 -3,-1.35 -3,-3 z m 3,1.11 c 0,0 0,0 0,0 0,0 0,0 0,0 0,0 0,0 0,0 0,0 0,0 0,0 z"
         style="fill:#000000;fill-opacity:1;fill-rule:nonzero;stroke:none"
         id="path878" />
      <path
         d="m 393.32,532.4 c -0.92,1.37 -0.54,3.24 0.84,4.16 1.37,0.92 3.24,0.54 4.16,-0.84 0.92,-1.37 0.54,-3.24 -0.84,-4.16 -1.37,-0.92 -3.24,-0.54 -4.16,0.84 z m 2.5,1.66 c 0,0 0,0 0,0 0,0 0,0 0,0 0,0 0,0 0,0 0,0 0,0 0,0 z"
         style="fill:#000000;fill-opacity:1;fill-rule:nonzero;stroke:none"
         id="path880" />
      <path
         d="m 314.02,531.94 c -1.17,1.17 -1.17,3.07 0,4.24 1.17,1.17 3.07,1.17 4.24,0 1.17,-1.17 1.17,-3.07 0,-4.24 -1.17,-1.17 -3.07,-1.17 -4.24,0 z m 2.12,2.12 c 0,0 0,0 0,0 0,0 0,0 0,0 0,0 0,0 0,0 0,0 0,0 0,0 z"
         style="fill:#000000;fill-opacity:1;fill-rule:nonzero;stroke:none"
         id="path882" />
      <path
         d="m 234.66,531.66 c -1.33,0.99 -1.59,2.87 -0.6,4.2 0.99,1.33 2.87,1.59 4.2,0.6 1.33,-0.99 1.59,-2.87 0.6,-4.2 -0.99,-1.33 -2.87,-1.59 -4.2,-0.6 z m 1.8,2.4 c 0,0 0,0 0,0 0,0 0,0 0,0 0,0 0,0 0,0 0,0 0,0 0,0 z"
         style="fill:#000000;fill-opacity:1;fill-rule:nonzero;stroke:none"
         id="path884" />
      <path
         d="m 154.83,531.78 c -1.26,1.08 -1.41,2.97 -0.33,4.23 1.08,1.26 2.97,1.41 4.23,0.33 1.26,-1.08 1.41,-2.97 0.33,-4.23 -1.08,-1.26 -2.97,-1.41 -4.23,-0.33 z m 1.95,2.28 c 0,0 0,0 0,0 0,0 0,0 0,0 0,0 0,0 0,0 0,0 0,0 0,0 z"
         style="fill:#000000;fill-opacity:1;fill-rule:nonzero;stroke:none"
         id="path886" />
      <path
         d="m 375.9,92.7 c -1.66,0 -3,1.343 -3,3 0,1.657 1.34,3 3,3 1.66,0 3,-1.343 3,-3 0,-1.657 -1.34,-3 -3,-3 z m 0,3 c 0,0 0,0 0,0 0,0 0,0 0,0 0,0 0,0 0,0 0,0 0,0 0,0 z"
         style="fill:#000000;fill-opacity:1;fill-rule:nonzero;stroke:none"
         id="path888" />
      <path
         d="m 276.3,92.7 c -1.66,0 -3,1.343 -3,3 0,1.657 1.34,3 3,3 1.66,0 3,-1.343 3,-3 0,-1.657 -1.34,-3 -3,-3 z m 0,3 c 0,0 0,0 0,0 0,0 0,0 0,0 0,0 0,0 0,0 0,0 0,0 0,0 z"
         style="fill:#000000;fill-opacity:1;fill-rule:nonzero;stroke:none"
         id="path890" />
      <path
         d="m 176.7,92.7 c -1.66,0 -3,1.343 -3,3 0,1.657 1.34,3 3,3 1.66,0 3,-1.343 3,-3 0,-1.657 -1.34,-3 -3,-3 z m 0,3 c 0,0 0,0 0,0 0,0 0,0 0,0 0,0 0,0 0,0 0,0 0,0 0,0 z"
         style="fill:#000000;fill-opacity:1;fill-rule:nonzero;stroke:none"
         id="path892" />
      <path
         d="m 475.89,358.88 4.94,-6.89 2.44,-3.4 2.4,-3.38 2.34,-3.34 2.26,-3.26 2.18,-3.2 2.08,-3.11 1.96,-3.03 1.83,-2.91 1.69,-2.8 1.53,-2.66 0.7,-1.28 0.66,-1.24 0.61,-1.21 0.56,-1.16 0.5,-1.13 0.46,-1.09 0.41,-1.04 0.35,-1 0.29,-0.96 0.23,-0.92 0.16,-0.87 0.11,-0.82 0.03,-0.78 -0.04,-0.74 -0.12,-0.71 -0.22,-0.64 -0.3,-0.6 -0.41,-0.54 -0.51,-0.45 -0.59,-0.36 -0.66,-0.27 -0.74,-0.18 -0.8,-0.1 -0.88,-0.02 -0.96,0.06 -1.03,0.14 -1.12,0.21 -1.2,0.29 -1.29,0.37 -1.39,0.44 -1.48,0.53 -1.58,0.62 -1.67,0.69 -1.77,0.78 -1.89,0.87 -1.99,0.96 -2.1,1.05 -2.2,1.14 -2.32,1.23 -2.43,1.33 -2.6,1.47 -2.8,1.65 -2.97,1.83 -3.18,1.99 -3.35,2.17 -3.52,2.31 -3.69,2.47 -3.86,2.61 -4.01,2.76 -4.16,2.89 -4.31,3.02 -4.44,3.15 -4.58,3.25 -4.71,3.38 -4.82,3.48 -4.95,3.58 -10.2,7.44 -10.6,7.77 -10.93,8.06 -11.23,8.31 -11.48,8.49 -11.67,8.66 -11.83,8.76 -11.93,8.81 -23.98,17.63 v 0 l -11.95,8.72 -11.87,8.6 v 0 l -11.73,8.42 v 0 l -11.55,8.21 v 0 l -11.32,7.95 0.01,-0.01 -11.04,7.65 v 0 l -10.72,7.29 h 0.01 l -10.34,6.89 v -0.01 l -5.02,3.28 h 0.01 l -4.91,3.16 v 0 l -4.79,3.05 0.01,-0.01 -4.67,2.92 h 0.01 l -4.54,2.77 h 0.01 l -4.4,2.64 v 0 l -4.26,2.49 h 0.01 l -4.11,2.35 0.01,-0.01 -3.96,2.18 h 0.01 l -3.8,2.02 h 0.01 l -3.64,1.86 0.02,-0.01 -3.47,1.68 0.01,-0.01 -3.34,1.56 0.01,-0.01 -3.29,1.46 h 0.01 l -3.22,1.39 0.01,-0.01 -3.17,1.31 h 0.01 l -3.1,1.23 0.02,-0.01 -3.05,1.15 0.01,-0.01 -2.98,1.08 0.02,-0.01 -2.93,1 h 0.01 l -2.87,0.92 0.01,-0.01 -2.8,0.85 h 0.01 l -2.75,0.78 0.01,-0.01 -2.7,0.71 h 0.01 l -2.64,0.64 h 0.02 l -2.59,0.57 0.02,-0.01 -2.53,0.51 0.02,-0.01 -2.48,0.44 h 0.01 l -2.42,0.37 h 0.02 l -2.38,0.31 0.01,-0.01 -2.31,0.26 h 0.02 l -2.28,0.19 0.02,-0.01 -2.218,0.13 h 0.02 l -2.175,0.07 h 0.018 l -2.115,0.01 h 0.019 l -2.078,-0.03 h 0.023 l -2.025,-0.1 h 0.02 l -1.972,-0.15 h 0.021 l -1.935,-0.2 h 0.02 l -1.883,-0.25 0.023,0.01 -1.837,-0.3 h 0.023 l -1.8,-0.35 h 0.022 l -1.747,-0.39 h 0.018 l -1.71,-0.43 0.038,0.01 -3.285,-1.02 0.044,0.01 -3.112,-1.18 0.042,0.01 -2.955,-1.33 0.044,0.02 -2.797,-1.49 0.039,0.02 -2.647,-1.63 0.038,0.03 -2.497,-1.76 0.035,0.03 -2.363,-1.87 0.033,0.02 -2.22,-1.98 0.031,0.03 -2.085,-2.08 0.027,0.02 -1.958,-2.16 0.024,0.03 -1.837,-2.25 0.021,0.02 -1.725,-2.32 0.02,0.03 -1.605,-2.37 0.016,0.02 -1.5,-2.42 0.015,0.02 -1.395,-2.46 0.011,0.02 -1.305,-2.49 0.015,0.03 -1.215,-2.59 0.012,0.03 -1.162,-2.76 0.011,0.03 -1.087,-2.92 0.01,0.03 -1.005,-3.08 0.009,0.02 -0.915,-3.23 0.007,0.03 -0.818,-3.38 0.007,0.03 -0.713,-3.53 0.005,0.03 -0.6,-3.67 0.004,0.03 -0.472,-3.8 0.003,0.02 -0.345,-3.94 0.002,0.03 -0.203,-4.06 10e-4,0.02 -0.06,-4.19 v 0.03 l 0.105,-4.3 -0.001,0.02 0.27,-4.42 -0.002,0.02 0.435,-4.53 -0.004,0.03 0.63,-4.64 -0.004,0.03 0.81,-4.74 -0.005,0.02 1.013,-4.83 -0.007,0.02 1.223,-4.92 -0.007,0.02 1.433,-5.02 -0.008,0.03 1.657,-5.11 -0.009,0.03 1.898,-5.18 -0.009,0.02 2.13,-5.26 -0.011,0.03 2.385,-5.34 -0.011,0.03 2.64,-5.4 -0.012,0.03 2.91,-5.46 -0.012,0.02 3.18,-5.51 -0.013,0.02 3.465,-5.57 -0.013,0.02 3.757,-5.62 -0.013,0.02 4.057,-5.66 -0.014,0.02 4.372,-5.71 -0.014,0.02 4.68,-5.74 -0.013,0.01 2.513,-2.91 -0.01,0.01 2.685,-2.99 h -0.008 l 2.85,-3.07 -0.009,0.01 3.015,-3.14 h -0.008 l 3.172,-3.21 -0.006,0.01 3.322,-3.28 -0.006,0.01 3.465,-3.35 -0.007,0.01 3.619,-3.4 -0.01,0.01 3.74,-3.47 -0.01,0.01 3.87,-3.51 v 0 l 3.99,-3.57 v 0.01 l 4.11,-3.62 -0.01,0.01 8.55,-7.37 v 0.01 l 8.95,-7.53 h -0.01 l 9.31,-7.67 h -0.01 l 9.62,-7.78 h -0.01 l 9.89,-7.88 h -0.01 l 10.11,-7.95 h -0.01 l 10.28,-7.99 v 0 l 10.41,-8.02 h -0.01 l 21.03,-16.03 v 0 l 21,-15.85 10.39,-7.8 10.23,-7.7 10.06,-7.55 9.83,-7.39 9.55,-7.22 9.23,-7.01 8.87,-6.79 8.45,-6.54 4.05,-3.16 3.94,-3.1 3.82,-3.02 3.69,-2.95 3.54,-2.86 3.41,-2.79 3.26,-2.7 3.1,-2.61 2.95,-2.52 2.79,-2.43 2.61,-2.33 2.43,-2.23 2.32,-2.16 2.27,-2.09 2.23,-2.05 2.18,-2 2.13,-1.95 2.08,-1.91 2.04,-1.86 1.99,-1.8 1.93,-1.77 1.89,-1.71 1.83,-1.67 1.78,-1.63 1.72,-1.57 1.67,-1.54 1.62,-1.49 1.56,-1.45 1.5,-1.39 1.45,-1.36 1.39,-1.33 1.33,-1.26 1.27,-1.24 1.2,-1.2 1.15,-1.15 1.08,-1.11 1.03,-1.07 0.96,-1.03 0.89,-1 0.83,-0.96 0.76,-0.92 0.7,-0.89 0.63,-0.85 0.57,-0.82 0.49,-0.78 0.42,-0.76 0.36,-0.72 0.28,-0.71 0.21,-0.68 0.13,-0.655 0.05,-0.647 -0.04,-0.619 -0.14,-0.607 -0.25,-0.555 -0.34,-0.514 -0.42,-0.462 -0.51,-0.412 -0.59,-0.352 -0.65,-0.315 -0.73,-0.27 -0.81,-0.232 -0.88,-0.196 -0.96,-0.163 -1.03,-0.131 -1.13,-0.108 -1.2,-0.069 -1.29,-0.045 -1.38,-0.015 -1.46,0.007 -1.55,0.045 -1.64,0.061 -1.74,0.09 -1.82,0.121 -1.92,0.143 -2.01,0.166 -2.11,0.195 -2.28,0.234 -2.49,0.317 -2.71,0.384 -2.92,0.459 -3.12,0.526 -3.32,0.594 -3.5,0.653 -3.69,0.714 -3.85,0.773 -4.01,0.835 -4.18,0.88 -4.34,0.94 -4.48,1 -4.61,1.04 -4.74,1.09 -4.87,1.14 -10.08,2.4 -10.49,2.55 -10.84,2.7 -11.14,2.83 -11.38,2.93 -11.56,3.02 -11.68,3.11 -11.76,3.16 -23.48,6.45 -11.61,3.26 -11.47,3.25 -11.24,3.23 -10.96,3.2 -10.65,3.15 -10.25,3.07 -4.96,1.51 -4.85,1.49 -4.72,1.46 -4.59,1.43 -4.45,1.41 -4.31,1.38 -4.15,1.33 -3.98,1.32 -3.826,1.27 -3.648,1.23 -3.469,1.18 -3.275,1.15 -3.088,1.11 -2.878,1.06 -2.67,1 -2.45,0.96 -2.312,0.92 -2.257,0.89 -2.211,0.87 -2.153,0.84 -2.106,0.83 -2.048,0.8 -1.997,0.79 -1.935,0.76 -1.885,0.75 -1.816,0.72 -1.765,0.71 -1.697,0.69 -1.647,0.68 -1.571,0.66 -1.512,0.64 -1.455,0.63 -1.38,0.62 -1.319,0.61 -1.247,0.59 -1.175,0.59 -1.114,0.57 -1.035,0.57 -0.97,0.55 -0.899,0.56 -0.816,0.54 -0.754,0.54 -0.68,0.54 -0.599,0.55 -0.52,0.54 -0.447,0.56 -0.372,0.56 -0.278,0.59 -0.184,0.6 -0.085,0.61 0.029,0.62 0.141,0.61 0.239,0.59 0.348,0.58 0.438,0.55 0.531,0.54 0.614,0.52 0.706,0.53 0.792,0.52 0.894,0.52 0.986,0.51 1.078,0.52 1.174,0.53 1.275,0.53 1.38,0.55 1.485,0.54 1.585,0.55 1.689,0.57 1.794,0.57 1.905,0.59 2.017,0.59 2.121,0.61 2.232,0.63 2.353,0.63 2.465,0.66 2.575,0.66 2.696,0.68 2.807,0.7 2.937,0.72 3.051,0.73 3.289,0.75 h -0.004 l 3.61,0.84 3.924,0.89 4.232,0.96 4.524,1 4.813,1.06 5.08,1.1 5.34,1.15 5.59,1.19 5.82,1.24 6.05,1.27 6.27,1.3 6.47,1.33 6.66,1.37 6.85,1.39 7.01,1.41 7.17,1.42 7.32,1.45 7.45,1.45 7.57,1.47 15.49,2.97 15.83,2.97 16.1,2.96 16.28,2.93 32.73,5.64 16.26,2.68 16.08,2.55 15.79,2.39 15.43,2.23 7.54,1.04 7.43,0.99 7.28,0.93 7.13,0.88 6.97,0.82 6.8,0.75 6.62,0.68 6.42,0.62 6.22,0.55 6,0.47 5.77,0.39 5.53,0.31 5.29,0.24 5.01,0.14 4.75,0.05 4.46,-0.04 4.17,-0.13 3.86,-0.23 3.55,-0.33 3.23,-0.44 2.88,-0.55 2.55,-0.67 2.2,-0.78 1.84,-0.92 1.5,-1.09 1.2,-1.28 0.87,-1.44 0.55,-1.6 0.24,-1.72 -0.07,-1.84 -0.34,-1.95 -0.61,-2.04 -0.86,-2.15 -1.11,-2.25 -1.35,-2.36 -1.56,-2.45 -1.79,-2.54 -1.99,-2.64 -2.2,-2.73 -2.39,-2.8 -2.57,-2.89 -2.77,-2.96 -2.92,-3.04 -3.09,-3.1 -3.25,-3.16 -3.4,-3.22 -3.54,-3.27 -3.66,-3.32 -3.79,-3.36 -3.92,-3.41 -8.13,-6.9 -8.5,-7.01 -8.81,-7.08 -9.05,-7.09 -9.23,-7.09 -9.35,-7.04 -9.4,-6.95 -9.38,-6.83 -9.32,-6.67 -9.17,-6.49 -8.98,-6.24 -8.7,-5.96 -8.37,-5.67 -7.99,-5.31 -3.82,-2.52 -3.71,-2.42 -3.57,-2.31 -3.43,-2.2 -3.29,-2.09 -3.13,-1.97 -2.97,-1.843 -2.81,-1.72 -2.62,-1.586 -2.45,-1.443 -2.32,-1.347 -2.28,-1.28 -2.23,-1.212 -2.19,-1.152 -2.15,-1.093 -2.1,-1.032 -2.07,-0.974 -2.03,-0.904 -1.98,-0.86 -1.96,-0.801 -1.91,-0.74 -1.88,-0.687 -1.84,-0.635 -1.82,-0.582 -1.78,-0.537 -1.75,-0.478 -1.72,-0.431 -1.7,-0.386 -1.66,-0.341 -1.65,-0.289 -3.2,-0.455 -3.11,-0.28 -3.03,-0.122 -2.96,0.038 -2.88,0.175 -2.83,0.319 -2.77,0.44 -2.74,0.554 -2.7,0.667 -2.67,0.764 -2.66,0.855 -2.65,0.936 -2.65,1.004 -2.65,1.069 -2.68,1.122 -2.7,1.172 -2.74,1.202 -2.79,1.238 0.01,-0.002 -2.85,1.245 -2.9,1.267 0.01,-0.003 -2.99,1.268 0.01,-0.003 -3.06,1.26 -3.15,1.31 -3.2,1.457 -3.24,1.584 -3.28,1.702 -3.31,1.82 -3.32,1.92 -3.36,2.04 -3.37,2.12 -3.37,2.22 -3.39,2.31 -3.39,2.38 -3.38,2.47 -3.38,2.53 -3.35,2.61 -3.34,2.66 -3.32,2.71 -3.28,2.77 -3.25,2.81 -3.21,2.85 -3.17,2.88 -3.11,2.9 -3.07,2.94 -3,2.94 -2.941,2.97 -2.864,2.97 -2.797,2.96 -2.715,2.97 -2.624,2.95 -2.543,2.94 -2.438,2.92 -2.347,2.89 -2.236,2.86 -2.17,2.89 -2.125,2.98 -2.078,3.04 -2.04,3.11 -2.003,3.17 -1.942,3.23 -1.904,3.29 -1.844,3.32 -1.798,3.36 -1.746,3.39 -1.685,3.42 -1.632,3.43 -1.573,3.44 -1.512,3.45 -1.452,3.46 -1.384,3.44 -1.317,3.44 -1.256,3.41 -1.182,3.39 -1.113,3.36 -1.039,3.32 -0.964,3.28 -0.888,3.22 -0.814,3.18 -0.731,3.11 -0.648,3.04 -0.566,2.98 -0.483,2.88 -0.4,2.8 -0.303,2.71 -0.219,2.62 -0.121,2.51 -0.023,2.42 0.091,2.36 0.191,2.3 0.305,2.24 0.396,2.18 0.496,2.11 0.587,2.06 0.679,2 0.763,1.96 0.846,1.9 0.922,1.85 0.997,1.8 1.065,1.76 1.134,1.72 1.2,1.67 1.252,1.64 1.313,1.6 1.365,1.56 1.415,1.54 1.463,1.51 3.027,2.92 3.176,2.84 3.278,2.77 3.108,2.49 0.937,-1.17 -3.1,-2.48 0.016,0.01 -3.263,-2.76 0.016,0.02 -3.158,-2.82 0.022,0.02 -3.007,-2.91 0.016,0.01 -1.447,-1.49 0.013,0.01 -1.402,-1.52 0.013,0.02 -1.35,-1.55 0.015,0.02 -1.298,-1.58 0.016,0.02 -1.237,-1.62 0.013,0.02 -1.185,-1.65 0.017,0.02 -1.117,-1.7 0.015,0.03 -1.05,-1.73 0.015,0.02 -0.983,-1.78 0.015,0.03 -0.907,-1.82 0.014,0.03 -0.833,-1.87 0.014,0.03 -0.75,-1.92 0.011,0.04 -0.667,-1.98 0.011,0.04 -0.578,-2.03 0.009,0.04 -0.487,-2.08 0.007,0.04 -0.39,-2.15 0.006,0.04 -0.3,-2.2 0.004,0.04 -0.188,-2.27 0.002,0.04 -0.09,-2.33 10e-4,0.04 0.022,-2.4 v 0.03 l 0.12,-2.48 -0.002,0.03 0.217,-2.59 -0.002,0.02 0.3,-2.69 -0.003,0.02 0.398,-2.78 -0.003,0.02 0.48,-2.87 -0.003,0.02 0.563,-2.96 -0.003,0.02 0.645,-3.03 -0.004,0.01 0.728,-3.09 -0.004,0.02 0.81,-3.17 -0.003,0.02 0.885,-3.21 -0.004,0.01 0.96,-3.27 -0.004,0.01 1.035,-3.31 -0.004,0.02 1.11,-3.35 -0.003,0.01 1.177,-3.38 -0.004,0.01 1.252,-3.4 -0.003,0.01 1.312,-3.42 -0.004,0.01 1.38,-3.44 -0.005,0.01 1.448,-3.44 -0.004,0.01 1.507,-3.44 -0.005,0.01 1.568,-3.44 -0.005,0.01 1.627,-3.42 -0.004,0.01 1.68,-3.4 -0.006,0.01 1.74,-3.38 -0.006,0.01 1.793,-3.35 -0.006,0.01 1.838,-3.31 -0.007,0.01 1.897,-3.27 -0.006,0.01 1.935,-3.22 -0.008,0.02 1.995,-3.17 -0.007,0.01 2.032,-3.09 -0.008,0.01 2.07,-3.03 -0.009,0.01 2.115,-2.96 -0.011,0.01 2.16,-2.87 -0.008,0.01 2.227,-2.85 -0.008,0.01 2.34,-2.89 -0.007,0.01 2.43,-2.91 -0.009,0.01 2.535,-2.92 -0.006,0.01 2.618,-2.95 -0.008,0.01 2.707,-2.96 -0.007,0.01 2.79,-2.96 h -0.006 l 2.858,-2.96 -0.008,0.01 2.933,-2.96 -0.01,0.01 3,-2.94 -0.01,0.01 3.06,-2.93 -0.01,0.01 3.11,-2.9 v 0 l 3.15,-2.87 v 0.01 l 3.2,-2.85 -0.01,0.01 3.24,-2.81 v 0.01 l 3.27,-2.76 v 0.01 l 3.3,-2.71 -0.01,0.01 3.34,-2.66 -0.01,0.01 3.35,-2.6 -0.01,0.01 3.37,-2.53 -0.01,0.01 3.37,-2.46 -0.01,0.01 3.38,-2.38 h -0.01 l 3.38,-2.3 -0.02,0.01 3.37,-2.21 h -0.01 l 3.35,-2.11 -0.01,0.01 3.35,-2.03 -0.02,0.01 3.32,-1.92 -0.02,0.01 3.3,-1.81 -0.02,0.01 3.26,-1.697 -0.01,0.009 3.22,-1.575 -0.02,0.008 3.18,-1.447 -0.02,0.01 3.14,-1.305 -0.01,0.001 3.07,-1.262 2.99,-1.271 2.91,-1.269 2.84,-1.246 2.78,-1.238 v 0.002 l 2.74,-1.2 v 10e-4 l 2.7,-1.17 -0.01,0.003 2.67,-1.117 -0.01,0.004 2.64,-1.065 -0.02,0.006 2.64,-0.998 -0.02,0.006 2.63,-0.93 -0.02,0.007 2.63,-0.848 -0.02,0.007 2.65,-0.757 -0.03,0.007 2.67,-0.66 -0.03,0.007 2.71,-0.548 -0.03,0.006 2.74,-0.435 -0.04,0.004 2.8,-0.315 -0.04,0.004 2.84,-0.173 -0.03,0.002 2.91,-0.038 h -0.04 l 3,0.119 -0.04,-0.002 3.08,0.278 -0.04,-0.005 3.17,0.45 -0.03,-0.004 1.62,0.285 -0.02,-0.004 1.65,0.338 -0.01,-0.004 1.68,0.383 -0.02,-0.004 1.7,0.428 -0.01,-0.004 1.74,0.472 -0.02,-0.005 1.76,0.532 -0.01,-0.004 1.8,0.578 -0.01,-0.005 1.83,0.63 -0.02,-0.005 1.87,0.683 -0.01,-0.006 1.89,0.735 -0.01,-0.005 1.94,0.795 -0.01,-0.006 1.97,0.855 -0.01,-0.003 2.02,0.9 -0.01,-0.006 2.05,0.967 -0.01,-0.005 2.09,1.027 -0.01,-0.004 2.14,1.087 -0.01,-0.004 2.19,1.147 -0.01,-0.005 2.22,1.208 -0.01,-0.005 2.27,1.275 -0.01,-0.005 2.32,1.342 -0.01,-0.003 2.44,1.44 -0.01,-0.004 2.62,1.582 v -0.002 l 2.8,1.713 v 0 l 2.96,1.85 3.13,1.96 v 0 l 3.29,2.08 h -0.01 l 3.43,2.2 v 0 l 3.57,2.31 v 0 l 3.7,2.41 v 0 l 3.81,2.52 v 0 l 7.98,5.31 v -0.01 l 8.37,5.67 -0.01,-0.01 8.7,5.97 v -0.01 l 8.97,6.24 h -0.01 l 9.17,6.48 v 0 l 9.31,6.66 v 0 l 9.38,6.83 -0.01,-0.01 9.39,6.96 v -0.01 l 9.34,7.04 v -0.01 l 9.22,7.09 v 0 l 9.04,7.08 v 0 l 8.79,7.06 v 0 l 8.49,7 -0.01,-0.01 8.13,6.9 -0.01,-0.01 3.91,3.41 -0.01,-0.01 3.79,3.36 h -0.01 l 3.66,3.31 v 0 l 3.53,3.26 -0.01,-0.01 3.39,3.22 v -0.01 l 3.24,3.15 -0.01,-0.01 3.08,3.09 h -0.01 l 2.92,3.03 -0.01,-0.01 2.75,2.94 -0.01,-0.01 2.57,2.88 -0.01,-0.01 2.37,2.79 -0.01,-0.02 2.18,2.71 -0.01,-0.02 1.98,2.62 -0.02,-0.02 1.77,2.52 -0.01,-0.03 1.54,2.42 -0.02,-0.03 1.32,2.32 -0.02,-0.04 1.09,2.2 -0.03,-0.05 0.84,2.09 -0.02,-0.06 0.59,1.97 -0.02,-0.08 0.33,1.85 -0.01,-0.1 0.06,1.71 v -0.12 l -0.22,1.59 0.04,-0.15 -0.5,1.46 0.06,-0.14 -0.78,1.3 0.09,-0.13 -1.09,1.17 0.1,-0.1 -1.39,1.02 0.1,-0.07 -1.75,0.88 0.09,-0.04 -2.12,0.76 0.06,-0.02 -2.49,0.65 0.05,-0.01 -2.85,0.54 h 0.04 l -3.18,0.43 h 0.03 l -3.53,0.33 h 0.03 l -3.84,0.22 h 0.02 l -4.15,0.14 h 0.02 l -4.45,0.03 h 0.02 l -4.74,-0.05 h 0.02 l -5.01,-0.14 h 0.02 l -5.28,-0.23 h 0.01 l -5.52,-0.32 h 0.01 l -5.77,-0.39 h 0.01 l -5.99,-0.47 v 0 l -6.21,-0.54 h 0.01 l -6.41,-0.62 v 0 l -6.61,-0.68 v 0 l -6.79,-0.75 v 0 l -6.96,-0.82 v 0 l -7.12,-0.88 v 0 l -7.28,-0.93 v 0 l -7.42,-0.99 h 0.01 l -7.54,-1.04 v 0 l -15.42,-2.22 v 0 l -15.79,-2.4 h 0.01 l -16.07,-2.55 v 0.01 l -16.26,-2.68 h 0.01 l -32.72,-5.64 h 0.01 l -16.28,-2.93 v 0 l -16.1,-2.95 h 0.01 l -15.84,-2.98 h 0.01 l -15.48,-2.96 -7.58,-1.47 -7.44,-1.45 -7.31,-1.45 -7.17,-1.43 -7.01,-1.4 -6.85,-1.39 -6.66,-1.37 -6.46,-1.33 -6.27,-1.3 -6.05,-1.27 -5.82,-1.23 -5.59,-1.2 -5.34,-1.14 -5.07,-1.1 -4.807,-1.06 -4.521,-1.01 -4.228,-0.95 -3.923,-0.89 h 0.004 l -3.609,-0.84 -3.287,-0.75 h 0.008 l -3.045,-0.73 h 0.004 l -2.93,-0.72 -2.805,-0.69 h 0.003 l -2.69,-0.68 -2.573,-0.66 h 0.006 l -2.46,-0.65 h 0.005 l -2.348,-0.64 h 0.005 l -2.227,-0.62 h 0.005 l -2.115,-0.61 h 0.005 l -2.01,-0.59 h 0.009 l -1.898,-0.58 h 0.008 l -1.785,-0.57 h 0.01 l -1.68,-0.56 h 0.008 l -1.575,-0.54 h 0.012 l -1.47,-0.54 0.017,0.01 -1.365,-0.54 h 0.013 l -1.26,-0.52 0.018,0.01 -1.155,-0.52 0.019,0.01 -1.057,-0.51 0.022,0.01 -0.96,-0.5 0.03,0.01 -0.863,-0.5 0.033,0.02 -0.758,-0.5 0.037,0.03 -0.668,-0.49 0.041,0.03 -0.57,-0.49 0.047,0.04 -0.48,-0.48 0.052,0.06 -0.382,-0.48 0.056,0.08 -0.292,-0.49 0.051,0.1 -0.195,-0.48 0.036,0.12 -0.112,-0.49 0.018,0.13 -0.022,-0.48 -0.007,0.14 0.068,-0.49 -0.026,0.12 0.15,-0.49 -0.038,0.1 0.232,-0.49 -0.053,0.09 0.323,-0.49 -0.042,0.06 0.405,-0.5 -0.042,0.05 0.48,-0.51 -0.038,0.04 0.562,-0.51 -0.034,0.03 0.645,-0.52 -0.035,0.03 0.728,-0.52 -0.018,0.01 0.795,-0.53 -0.024,0.02 0.878,-0.54 -0.02,0.01 0.953,-0.55 -0.016,0.01 1.02,-0.56 -0.014,0.01 1.103,-0.57 -0.011,0.01 1.163,-0.58 -0.013,0.01 1.237,-0.59 h -0.005 l 1.312,-0.6 h -0.008 l 1.372,-0.62 -0.007,0.01 1.447,-0.63 h -0.007 l 1.507,-0.64 1.567,-0.66 -0.006,0.01 1.643,-0.68 H 54.14 l 1.694,-0.69 1.762,-0.71 h -0.004 l 1.816,-0.72 1.882,-0.75 h -0.004 l 1.937,-0.75 1.993,-0.79 2.047,-0.8 2.109,-0.83 2.152,-0.85 2.214,-0.87 2.258,-0.89 2.31,-0.92 -0.004,0.01 2.445,-0.96 -0.007,0.01 2.662,-1.01 h -0.005 l 2.872,-1.05 h -0.006 l 3.082,-1.1 h -0.004 l 3.27,-1.15 h -0.006 l 3.465,-1.18 h -0.003 l 3.645,-1.23 h -0.003 l 3.811,-1.27 3.99,-1.31 h -0.01 l 4.15,-1.33 4.3,-1.38 v 0 l 4.45,-1.4 4.58,-1.44 4.72,-1.46 v 0 l 4.84,-1.48 4.96,-1.51 v 0 l 10.25,-3.07 v 0 l 10.64,-3.15 v 0 l 10.96,-3.2 v 0 l 11.23,-3.23 v 0 l 11.46,-3.25 11.62,-3.25 h -0.01 l 23.48,-6.45 h -0.01 l 11.76,-3.16 v 0 l 11.67,-3.11 v 0 l 11.56,-3.02 h -0.01 l 11.38,-2.93 v 0 l 11.14,-2.83 h -0.01 l 10.84,-2.69 v 0 l 10.48,-2.56 v 0 l 10.07,-2.4 v 0.01 l 4.86,-1.14 4.74,-1.08 v 0 l 4.61,-1.05 4.48,-0.99 h -0.01 l 4.33,-0.94 v 0 l 4.18,-0.88 h -0.01 l 4.01,-0.84 v 0.01 l 3.85,-0.78 h -0.01 l 3.68,-0.709 v 10e-4 l 3.5,-0.652 -0.01,0.001 3.31,-0.593 -0.01,0.002 3.11,-0.525 -0.01,0.001 2.91,-0.458 -0.01,0.002 2.7,-0.382 -0.01,0.001 2.48,-0.315 -0.01,0.002 2.26,-0.232 h -0.01 l 2.1,-0.195 v 0.001 l 2,-0.165 -0.01,10e-4 1.92,-0.143 h -0.01 l 1.81,-0.12 -0.01,10e-4 1.73,-0.09 -0.01,0.001 1.63,-0.06 v 0 l 1.53,-0.045 h -0.01 l 1.44,-0.007 h -0.01 l 1.37,0.015 -0.02,-0.001 1.27,0.045 -0.02,-0.001 1.18,0.068 -0.02,-0.002 1.09,0.105 -0.02,-0.003 1.01,0.128 -0.03,-0.005 0.92,0.157 -0.04,-0.007 0.84,0.188 -0.04,-0.011 0.76,0.217 -0.06,-0.018 0.67,0.248 -0.06,-0.027 0.59,0.285 -0.06,-0.034 0.51,0.307 -0.09,-0.058 0.43,0.345 -0.08,-0.076 0.35,0.375 -0.08,-0.097 0.27,0.412 -0.06,-0.104 0.2,0.435 -0.05,-0.135 0.11,0.48 -0.01,-0.116 0.03,0.503 v -0.117 l -0.04,0.547 0.01,-0.082 -0.11,0.578 0.02,-0.078 -0.19,0.611 0.02,-0.06 -0.26,0.65 0.02,-0.05 -0.33,0.68 0.01,-0.04 -0.4,0.72 0.02,-0.02 -0.48,0.75 0.02,-0.03 -0.55,0.8 0.02,-0.02 -0.62,0.83 0.02,-0.02 -0.69,0.87 0.01,-0.01 -0.75,0.91 0.01,-0.02 -0.82,0.95 0.01,-0.01 -0.88,0.99 v -0.01 l -0.95,1.03 0.01,-0.01 -1.02,1.06 v 0 l -1.07,1.1 0.01,-0.01 -1.15,1.15 v 0 l -1.2,1.19 h 0.01 l -1.27,1.23 0.01,-0.01 -1.33,1.27 -1.38,1.32 v 0 l -1.44,1.35 v 0 l -1.5,1.4 -1.56,1.44 v 0 l -1.61,1.49 -1.67,1.53 v 0 l -1.73,1.58 -1.77,1.62 v 0 l -1.83,1.67 -1.89,1.72 -1.93,1.76 -1.99,1.81 -2.04,1.86 -2.08,1.9 -2.13,1.95 -2.19,2.01 -2.23,2.04 -2.27,2.11 -2.32,2.15 0.01,-0.01 -2.43,2.23 v 0 l -2.6,2.32 0.01,-0.01 -2.79,2.43 0.01,-0.01 -2.94,2.51 v 0 l -3.09,2.61 v 0 l -3.25,2.7 v -0.01 l -3.4,2.79 v -0.01 l -3.54,2.86 v 0 l -3.68,2.95 v -0.01 l -3.82,3.03 h 0.01 l -3.94,3.08 -4.05,3.17 v 0 l -8.45,6.54 v -0.01 l -8.86,6.78 -9.22,7.02 v -0.01 l -9.56,7.22 -9.82,7.39 -10.06,7.56 -10.24,7.69 -10.38,7.8 -21.01,15.86 -21.03,16.03 -10.41,8.02 -10.28,8 -10.11,7.95 -9.88,7.89 -9.62,7.79 -9.32,7.68 -8.95,7.53 -8.56,7.37 -4.11,3.62 -4,3.58 -3.88,3.51 -3.74,3.47 -3.62,3.4 -3.471,3.35 -3.329,3.29 -3.18,3.21 -3.023,3.16 -2.859,3.08 -2.694,3 -2.524,2.93 -4.693,5.76 -4.387,5.72 -4.072,5.69 -3.771,5.63 -3.478,5.6 -3.192,5.53 -2.922,5.48 -2.652,5.42 -2.396,5.36 -2.139,5.28 -1.907,5.21 -1.666,5.13 -1.44,5.04 -1.229,4.96 -1.018,4.86 -0.814,4.77 -0.634,4.67 -0.438,4.55 -0.271,4.46 -0.106,4.33 0.06,4.22 0.204,4.09 0.348,3.97 0.476,3.83 0.604,3.69 0.718,3.56 0.824,3.41 0.923,3.26 1.015,3.11 1.098,2.94 1.175,2.79 1.228,2.62 1.318,2.51 1.408,2.49 1.516,2.45 1.623,2.41 1.745,2.34 1.86,2.28 1.983,2.19 2.114,2.12 2.252,2.01 2.396,1.9 2.535,1.78 2.686,1.65 2.84,1.52 2.998,1.35 3.156,1.2 3.326,1.03 1.738,0.45 1.768,0.4 1.822,0.36 1.861,0.3 1.904,0.25 1.956,0.2 1.993,0.16 2.047,0.09 2.098,0.04 2.133,-0.01 2.194,-0.07 2.242,-0.13 2.29,-0.19 2.33,-0.26 2.4,-0.3 2.44,-0.38 2.5,-0.44 2.54,-0.51 2.6,-0.57 2.66,-0.65 2.71,-0.71 2.77,-0.78 2.81,-0.85 2.89,-0.93 2.94,-1 2.98,-1.08 3.06,-1.15 3.11,-1.23 3.17,-1.31 3.24,-1.39 3.29,-1.47 3.36,-1.56 3.48,-1.68 3.65,-1.87 3.81,-2.03 3.97,-2.19 4.12,-2.35 4.26,-2.5 4.41,-2.65 4.55,-2.77 4.67,-2.93 4.79,-3.04 4.91,-3.17 5.03,-3.28 10.34,-6.9 10.73,-7.29 11.04,-7.65 11.32,-7.96 11.56,-8.21 11.74,-8.43 11.87,-8.6 11.96,-8.72 23.98,-17.63 11.93,-8.81 11.83,-8.76 11.68,-8.66 11.47,-8.5 11.23,-8.3 10.93,-8.06 10.6,-7.77 10.2,-7.44 h -0.01 l 4.95,-3.57 4.82,-3.48 4.7,-3.38 v 0 l 4.58,-3.25 4.44,-3.14 v 0 l 4.3,-3.02 v 0 l 4.15,-2.89 v 0 l 4.01,-2.75 v 0 l 3.85,-2.61 -0.01,0.01 3.69,-2.47 v 0 l 3.51,-2.31 v 0.01 l 3.34,-2.16 v 0 l 3.16,-1.99 -0.01,0.01 2.97,-1.83 -0.01,0.01 2.79,-1.65 -0.02,0.01 2.59,-1.46 -0.01,0.01 2.43,-1.33 h -0.01 l 2.31,-1.23 -0.01,0.01 2.2,-1.13 h -0.01 l 2.09,-1.05 -0.01,0.01 1.97,-0.96 -0.01,0.01 1.88,-0.86 h -0.02 l 1.77,-0.77 h -0.02 l 1.66,-0.69 -0.02,0.01 1.56,-0.61 -0.01,0.01 1.46,-0.52 h -0.03 l 1.36,-0.43 -0.02,0.01 1.26,-0.36 h -0.02 l 1.17,-0.28 -0.04,0.01 1.08,-0.21 -0.04,0.01 0.98,-0.13 -0.05,0.01 0.9,-0.06 h -0.07 l 0.81,0.02 h -0.07 l 0.72,0.09 -0.09,-0.02 0.65,0.16 -0.1,-0.03 0.55,0.22 -0.11,-0.05 0.48,0.29 -0.11,-0.08 0.41,0.36 -0.1,-0.11 0.33,0.42 -0.08,-0.11 0.25,0.48 -0.04,-0.1 0.18,0.54 -0.03,-0.11 0.1,0.61 -0.01,-0.08 0.04,0.66 v -0.08 l -0.03,0.71 0.01,-0.06 -0.1,0.77 0.01,-0.04 -0.16,0.82 0.01,-0.04 -0.22,0.88 0.01,-0.04 -0.28,0.92 v -0.02 l -0.33,0.97 0.01,-0.02 -0.4,1.02 0.01,-0.02 -0.45,1.07 v -0.02 l -0.5,1.11 0.01,-0.01 -0.55,1.14 0.01,-0.01 -0.61,1.19 0.01,-0.01 -0.66,1.24 0.01,-0.01 -0.69,1.27 0.01,-0.02 -1.53,2.65 0.01,-0.02 -1.68,2.79 0.01,-0.01 -1.82,2.9 v -0.01 l -1.95,3.01 v 0 l -2.08,3.1 h 0.01 l -2.18,3.19 h 0.01 l -2.26,3.26 v -0.01 l -2.34,3.33 v 0 l -2.39,3.38 v -0.01 l -2.43,3.41 -4.95,6.88 z M 62.151,328.11 73.11,330.32 68.307,320.23 Z"
         style="fill:#000000;fill-opacity:1;fill-rule:nonzero;stroke:none"
         id="path894" />
      <path
         d="m 276.3,624.57 h 69.22 v -1.5 H 276.3 Z m 68.22,4.25 10,-5 -10,-5 z"
         style="fill:#000000;fill-opacity:1;fill-rule:nonzero;stroke:none"
         id="path896" />
      <path
         d="m 277.05,624.3 v -27.23 h -1.5 v 27.23 z m 4.25,-26.23 -5,-10 -5,10 z"
         style="fill:#000000;fill-opacity:1;fill-rule:nonzero;stroke:none"
         id="path898" />
      <path
         d="m 277.05,624.3 v 36.72 h -1.5 V 624.3 Z m 4.25,35.72 -5,10 -5,-10 z"
         style="fill:#000000;fill-opacity:1;fill-rule:nonzero;stroke:none"
         id="path900" />
      <path
         d="m 276.27,624.45 h -90.09 v -1.5 h 90.09 z m -89.09,4.25 -10,-5 10,-5 z"
         style="fill:#000000;fill-opacity:1;fill-rule:nonzero;stroke:none"
         id="path902" />
      <text
         transform="scale(1,-1)"
         style="font-style:normal;font-variant:normal;font-weight:bold;font-stretch:normal;font-size:24px;font-family:'Minion Pro';-inkscape-font-specification:'Minion Pro, Bold';font-variant-ligatures:normal;font-variant-caps:normal;font-variant-numeric:normal;font-variant-east-asian:normal;writing-mode:lr-tb;fill:#000000;fill-opacity:1;fill-rule:nonzero;stroke:none"
         id="text914"
         x="271.39392"
         y="-569.20233"><tspan
           x="271.39392"
           y="-569.20233"
           id="tspan912"
           style="font-style:normal;font-variant:normal;font-weight:bold;font-stretch:normal;font-size:24px;font-family:'Minion Pro';-inkscape-font-specification:'Minion Pro, Bold';font-variant-ligatures:normal;font-variant-caps:normal;font-variant-numeric:normal;font-variant-east-asian:normal">?</tspan></text>
      <text
         transform="scale(1,-1)"
         style="font-style:normal;font-variant:normal;font-weight:bold;font-stretch:normal;font-size:24px;font-family:'Minion Pro';-inkscape-font-specification:'Minion Pro, Bold';font-variant-ligatures:normal;font-variant-caps:normal;font-variant-numeric:normal;font-variant-east-asian:normal;writing-mode:lr-tb;fill:#000000;fill-opacity:1;fill-rule:nonzero;stroke:none"
         id="text926"
         x="356.6348"
         y="-616.95575"><tspan
           x="356.6348"
           y="-616.95575"
           id="tspan924"
           style="font-style:normal;font-variant:normal;font-weight:bold;font-stretch:normal;font-size:24px;font-family:'Minion Pro';-inkscape-font-specification:'Minion Pro, Bold';font-variant-ligatures:normal;font-variant-caps:normal;font-variant-numeric:normal;font-variant-east-asian:normal">?</tspan></text>
      <text
         transform="scale(1,-1)"
         style="font-style:normal;font-variant:normal;font-weight:bold;font-stretch:normal;font-size:24px;font-family:'Minion Pro';-inkscape-font-specification:'Minion Pro, Bold';font-variant-ligatures:normal;font-variant-caps:normal;font-variant-numeric:normal;font-variant-east-asian:normal;writing-mode:lr-tb;fill:#000000;fill-opacity:1;fill-rule:nonzero;stroke:none"
         id="text938"
         x="271.67307"
         y="-672.76233"><tspan
           x="271.67307"
           y="-672.76233"
           id="tspan936"
           style="font-style:normal;font-variant:normal;font-weight:bold;font-stretch:normal;font-size:24px;font-family:'Minion Pro';-inkscape-font-specification:'Minion Pro, Bold';font-variant-ligatures:normal;font-variant-caps:normal;font-variant-numeric:normal;font-variant-east-asian:normal">?</tspan></text>
      <text
         transform="scale(1,-1)"
         style="font-style:normal;font-variant:normal;font-weight:bold;font-stretch:normal;font-size:24px;font-family:'Minion Pro';-inkscape-font-specification:'Minion Pro, Bold';font-variant-ligatures:normal;font-variant-caps:normal;font-variant-numeric:normal;font-variant-east-asian:normal;writing-mode:lr-tb;fill:#000000;fill-opacity:1;fill-rule:nonzero;stroke:none"
         id="text950"
         x="166.25896"
         y="-616.95575"><tspan
           x="166.25896"
           y="-616.95575"
           id="tspan948"
           style="font-style:normal;font-variant:normal;font-weight:bold;font-stretch:normal;font-size:24px;font-family:'Minion Pro';-inkscape-font-specification:'Minion Pro, Bold';font-variant-ligatures:normal;font-variant-caps:normal;font-variant-numeric:normal;font-variant-east-asian:normal">?</tspan></text>
    </g>
  </g>
</svg>
