<?xml version="1.0" encoding="UTF-8" standalone="no"?>
<svg
   width="895.91577"
   height="604.86096"
   overflow="hidden"
   version="1.1"
   id="svg52"
   sodipodi:docname="utrzky.svg"
   inkscape:version="1.3 (0e150ed6c4, 2023-07-21)"
   xmlns:inkscape="http://www.inkscape.org/namespaces/inkscape"
   xmlns:sodipodi="http://sodipodi.sourceforge.net/DTD/sodipodi-0.dtd"
   xmlns="http://www.w3.org/2000/svg"
   xmlns:svg="http://www.w3.org/2000/svg">
  <sodipodi:namedview
     id="namedview1"
     pagecolor="#ffffff"
     bordercolor="#999999"
     borderopacity="1"
     inkscape:showpageshadow="0"
     inkscape:pageopacity="0"
     inkscape:pagecheckerboard="0"
     inkscape:deskcolor="#d1d1d1"
     inkscape:zoom="1.0098387"
     inkscape:cx="457.4988"
     inkscape:cy="278.75738"
     inkscape:window-width="1916"
     inkscape:window-height="1020"
     inkscape:window-x="0"
     inkscape:window-y="0"
     inkscape:window-maximized="1"
     inkscape:current-layer="svg52" />
  <defs
     id="defs26" />
  <path
     style="fill:#7498cc"
     d="m 609.81531,463.54829 -2.25,-0.38811 v -1.41021 -1.41021 l -1.63124,-4.07687 -1.63124,-4.07686 -1.28649,0.49367 -1.28649,0.49367 -2.83227,-2.43582 -2.83227,-2.43582 -1,-0.0316 -1,-0.0316 1.75,-1.01928 1.75,-1.01928 v -3.3913 -3.39129 l 1,-0.61803 1,-0.61804 v -2.28599 -2.286 l -1.91007,-1.72858 -1.91006,-1.72859 -0.60899,-2.4264 -0.60899,-2.4264 h -1.98094 -1.98095 v -1.18555 -1.18555 l -2.0326,-2.16361 -2.0326,-2.1636 0.9784,-2.57339 0.97839,-2.57338 -1.3818,-1.1468 -1.3818,-1.14679 0.57705,-6.88305 0.57705,-6.88305 -1.26237,-3.04761 -1.26236,-3.04762 h -0.87868 -0.87868 v -2.39302 -2.39301 l -1.58179,-0.60699 -1.58179,-0.60698 h -1.89916 -1.89916 l -0.62746,-2.5 -0.62746,-2.5 -2.14159,-0.0153 -2.14159,-0.0153 -1.30799,-0.82954 -1.30799,-0.82955 0.54263,-2.40514 0.54263,-2.40514 -0.76803,-3.4628 -0.76803,-3.4628 -2.46661,-0.5765 -2.46661,-0.5765 -0.30811,-3.14036 -0.30812,-3.14036 4.30812,-0.85666 4.30811,-0.85666 0.0599,-3.17428 0.0599,-3.17428 1.37349,-2.56639 1.37349,-2.56638 2.31658,-0.58143 2.31658,-0.58142 v -3.03405 -3.03405 l 5.8328,0.60965 5.83281,0.60965 1.05229,-1.05229 1.05229,-1.05229 2.86491,1.45524 2.8649,1.45525 4.67869,0.68043 4.6787,0.68044 0.3213,-2.80058 0.32131,-2.80058 3.25064,-0.31341 3.25065,-0.31341 0.96398,2.53548 0.96399,2.53548 2.6427,0.66327 2.64271,0.66328 0.64266,-0.97081 0.64267,-0.97081 1.76275,-0.96143 1.76276,-0.96142 6.43592,1.05324 6.43593,1.05324 2.05132,2.20184 2.05132,2.20183 v 0.95848 0.95848 l 1.16776,0.38925 1.16776,0.38926 -4.69408,4.69408 -4.69407,4.69408 h -0.97369 -0.97368 v 1.8 1.8 l -1.24164,1.24164 -1.24164,1.24164 1.49164,0.94304 1.49164,0.94305 -1.5,0.13373 -1.5,0.13374 -0.75,-0.11842 -0.75,-0.11842 v 1 1 h 1 1 v 2.84501 2.84501 l 1.95072,1.76538 1.95072,1.76538 -1.55294,2.37009 -1.55294,2.37008 -1.83204,-0.98048 -1.83204,-0.98047 h -1.6452 -1.64519 l 0.67761,3.25 0.67762,3.25 1.29969,2.05892 1.2997,2.05892 -0.51553,2.69683 -0.51553,2.69682 1.35592,1.63378 1.35592,1.63378 1.07731,4.24291 1.07732,4.24291 -0.80818,2.18473 -0.80819,2.18473 -0.4382,2.41657 -0.43821,2.41656 0.93083,0.57529 0.93083,0.57528 v 2.88197 2.88196 l 1.06514,0.6583 1.06514,0.65829 -1.68842,1.86568 -1.68841,1.86568 0.51925,2.7163 0.51925,2.71629 -1.02049,2.56875 -1.02049,2.56875 -0.77352,2 -0.77353,2 -1.60196,3.65113 -1.60196,3.65112 v 1.79888 1.79887 l -1.2,-1.2 -1.2,-1.2 h -1.19159 -1.1916 l -0.61959,2.46865 -0.61959,2.46866 -3.73882,3.8499 -3.73881,3.84989 z"
     id="path62" />
  <path
     style="fill:#cc5656"
     d="m 597.14775,323.84324 -0.7071,-1.14411 0.0775,-2.7247 0.0775,-2.7247 -2.23458,-1.19591 -2.23458,-1.19591 -1.12928,-2.99181 -1.12928,-2.99181 1.43447,-0.55046 1.43448,-0.55046 0.0789,-2.64301 0.079,-2.64301 0.50439,1.25 0.50438,1.25 h 1.91667 1.91667 v -3.07553 -3.07553 l -4.59499,0.28257 -4.59498,0.28257 -1.88338,-3.95704 -1.88338,-3.95704 0.52818,-2.61504 0.52817,-2.61503 -3.13017,-0.62604 -3.13017,-0.62603 -1.41964,1.41964 -1.41964,1.41964 -0.0318,2.32143 -0.0318,2.32143 -1.32844,-1.75 -1.32844,-1.75 h -0.89921 -0.89921 l -1.22007,-1.95364 -1.22007,-1.95364 0.99584,-0.61546 0.99583,-0.61546 -0.62541,-1.01192 -0.6254,-1.01193 -2.39091,0.60008 -2.3909,0.60007 v -1.47091 -1.47091 l -3.5,-3.39916 -3.5,-3.39916 v -8.64898 -8.64898 h 1 1 v -1.87755 -1.87756 l 1.5,-1.24489 1.5,-1.24489 v -3.03254 -3.03254 l 1.87597,1.69773 1.87597,1.69773 3.72411,0.60434 3.72411,0.60434 0.67937,-1.09925 0.67938,-1.09925 2.47054,1.41294 2.47055,1.41295 1.28724,0.6605 1.28725,0.6605 1.71275,-1.49079 1.71276,-1.49079 1.25,0.45284 1.25,0.45285 v -0.97205 -0.97204 l 3.61174,-0.67757 3.61175,-0.67756 -0.54617,-2.73082 -0.54616,-2.73082 0.68442,-0.98681 0.68442,-0.98682 4.60299,-3.71609 4.60299,-3.71609 3.39701,-0.0239 3.39701,-0.0239 4,-1.05846 4,-1.05845 2.5,-0.48101 2.5,-0.481 2,1.56331 2,1.56332 -1.78346,1.38471 -1.78346,1.38471 -0.60584,5.11529 -0.60583,5.11529 h -0.73938 -0.73939 l -1.31892,3.18414 -1.31891,3.18413 1.11943,0.37314 1.11943,0.37315 -0.53996,5.23166 -0.53995,5.23167 4.24907,2.8119 4.24907,2.81191 2.48396,-1.13177 2.48395,-1.13176 1.82174,0.57819 1.82174,0.5782 0.31335,2.10059 0.31336,2.1006 1.5,0.73623 1.5,0.73624 2.65464,1.23384 2.65465,1.23384 0.97389,-0.6019 0.97389,-0.6019 3.1207,1.55681 3.1207,1.55681 0.5626,2.24161 0.56261,2.24161 -0.31184,1.25926 -0.31184,1.25926 3.5,1.34046 3.5,1.34045 2.75,0.60487 2.75,0.60486 v 1.90847 1.90847 l 3.1099,2.43387 3.1099,2.43386 -0.69983,3.1863 -0.69983,3.18631 -1.91007,1.19286 -1.91007,1.19285 v 2.12079 2.12078 l -2.52319,-0.48234 -2.52318,-0.48234 -2.35541,2.54153 -2.35541,2.54153 -4.62141,0.69303 -4.6214,0.69302 -0.11849,1.13645 -0.11848,1.13646 0.11966,1.06423 0.11966,1.06422 -3.62504,1.72867 -3.62505,1.72866 -1.70487,-1.54289 -1.70487,-1.54289 h -1.17126 -1.17126 v -1 -1 h -1.87756 -1.87755 l -1.24489,1.5 -1.24489,1.5 h -1.09733 -1.09733 l -2.76676,3.24173 -2.76677,3.24172 -1.47886,-2.11136 -1.47885,-2.11136 -3.43574,-1.63037 -3.43573,-1.63036 h -1.05196 -1.05195 l -1.67808,3.53629 -1.67808,3.53629 -1.69758,-1.53629 -1.69757,-1.53629 h -1.67126 -1.67126 v 1.5 1.5 h -2.44099 -2.44098 z"
     id="path60" />
  <path
     style="fill:#a184c9"
     d="m 503.09052,277.40878 v -2.87756 l -1.5,-1.24489 -1.5,-1.24489 v -3.37755 -3.37756 h 1 1 v -1.57537 -1.57536 l -2.75061,0.28852 -2.7506,0.28852 -1.2494,-0.77217 -1.24939,-0.77217 v -2.94099 -2.94098 h 1 1 l -0.0134,-1.25 -0.0134,-1.25 -2.23659,-2.91335 -2.23658,-2.91336 -3.15,-3.33664 -3.15,-3.33665 h -1.43103 -1.43102 l -1.22365,-2.28641 -1.22365,-2.28641 -2.19533,-0.97266 -2.19532,-0.97265 0.29123,-1.72962 0.29124,-1.72962 -1.04394,-1.95063 -1.04394,-1.95062 1.0027,-0.61971 1.00271,-0.6197 v -2.61998 -2.61998 l -3.6257,-3.321 -3.62569,-3.32101 h -1.81529 -1.81529 l -0.64805,-1.04856 -0.64804,-1.04856 -1.33025,1.10401 -1.33025,1.10401 -0.83072,-1.38086 -0.83072,-1.38086 -1.76501,-0.64896 -1.76501,-0.64897 -0.92771,-2.44005 -0.92771,-2.44006 -2.04833,-0.65012 -2.04834,-0.65011 -0.94749,0.58558 -0.94748,0.58558 -0.81146,-1.36362 -0.81146,-1.36362 -2.75,-1.77243 -2.75,-1.77242 v -1.91637 -1.91638 l -1.25,-0.37942 -1.25,-0.37942 -4.75,-1.30751 -4.75,-1.30751 v -2.6999 -2.69989 l -0.60699,-1.58179 -0.60699,-1.58179 h -1.834 -1.83399 l -0.67188,-1.08712 -0.67187,-1.08712 -2.00237,0.52364 -2.00237,0.52363 -2.13477,-1.09194 -2.13477,-1.09194 -1.5,-0.6967 -1.5,-0.6967 -0.31956,-2.14788 -0.31955,-2.14787 h -5.06241 -5.06242 l -3.36803,-2.08156 -3.36803,-2.08156 v -1.3351 -1.33511 l 1.10625,-0.36875 1.10625,-0.36875 -1.02347,-3.70673 -1.02348,-3.70672 0.82747,-0.51141 0.82747,-0.5114 1.15999,-6.87719 1.15998,-6.87718 2.43738,-2.11927 2.43737,-2.11927 h 1.49239 1.4924 v -3.40638 -3.40638 l 2.00532,0.52441 2.00533,0.5244 1.44668,-1.20064 1.44669,-1.20065 2.12171,0.67341 2.1217,0.6734 2.92628,-1.2121 2.92629,-1.21211 v -1.37868 -1.37868 h 2.5 2.5 v -2.38337 -2.38337 l 2.09645,-0.54823 2.09645,-0.54824 1.40355,0.5386 1.40355,0.53859 v 0.89301 0.89301 h 1.94098 1.94098 l 0.56426,0.91299 0.56426,0.91299 4.11849,0.69581 4.1185,0.69582 0.76195,-1.23287 0.76196,-1.23286 3.33606,1.87406 3.33606,1.87406 2.51803,2.25 2.51803,2.25 h 1.69848 1.69848 l -0.18826,2.75 -0.18826,2.75 h 2.5 2.5 l 1.15612,0.751 1.15612,0.75099 -0.49677,1.89964 -0.49677,1.89964 2.84065,0.54349 2.84065,0.5435 8.22166,0.0297 8.22166,0.0297 1.77834,0.95317 1.77834,0.95318 1.81338,0.56593 1.81338,0.56594 -0.53064,0.85858 -0.53063,0.85859 3.90383,1.16961 3.90383,1.16962 0.81342,-0.15492 0.81343,-0.15492 3.19539,0.74786 3.1954,0.74786 0.3046,2.13592 0.30461,2.13592 5.43541,1.74099 5.43541,1.74099 0.56459,0.88338 0.56459,0.88338 3.27436,0.71044 3.27436,0.71043 -0.2337,1.1652 -0.23369,1.16519 1.44988,2.25 1.44988,2.25 h 1.09894 1.09894 l 1.13907,2.5 1.13908,2.5 h 2.03122 2.03123 l 1.71245,2 1.71246,2 h 1.8435 1.8435 l 1.90258,1.01823 1.90257,1.01823 -0.88627,2.33108 -0.88628,2.33108 2.66796,2.60382 2.66796,2.60382 1.75,2.04687 1.75,2.04687 v 1.01357 1.01357 l -1.25,2.23643 -1.25,2.23643 -0.89572,0.64908 -0.89572,0.64907 0.61433,1.60093 0.61434,1.60092 h -0.85199 -0.85198 l -0.54933,2.10062 -0.54932,2.10061 -0.91663,-0.56651 -0.91663,-0.5665 -2.15068,2.4735 -2.15067,2.47349 v 0.9924 0.99239 h -1 -1 v 1.5 1.5 h -1.48095 -1.48095 l -0.63201,2.51813 -0.63201,2.51813 0.68491,5.48187 0.68492,5.48187 h 1.0678 1.0678 l 1.32844,1.75 1.32844,1.75 0.0318,1.80902 0.0318,1.80902 -0.96353,-0.5955 -0.96353,-0.59549 -2.03647,2.03648 -2.03647,2.03647 h -0.83103 -0.83102 l -1.29934,2.42786 -1.29935,2.42785 0.63037,2.57215 0.63037,2.57214 0.66101,2.73244 0.66101,2.73244 1.33899,1.33899 1.33899,1.33899 v 0.92857 0.92857 l -2.75,0.0646 -2.75,0.0646 -5.5,0.49947 -5.5,0.49948 -0.29795,0.82977 -0.29795,0.82977 -2.05425,-0.53719 -2.05425,-0.5372 0.3522,4.84622 0.3522,4.84623 -3.70345,1.41511 -3.70345,1.41511 -1.64485,-1.64485 -1.64486,-1.64485 -3.6517,0.64816 -3.65169,0.64816 -0.95,0.87871 -0.95,0.87871 h -1.3 -1.3 z"
     id="path58" />
  <path
     style="fill:#cc5656"
     d="m 535.91682,121.40646 -0.66667,-0.66667 v -1.83333 -1.83333 h -1 -1 v -2.39302 -2.39301 l 1.5,-0.5756 1.5,-0.57561 v -2.53138 -2.53138 h -1.45559 -1.45559 l -3.68396,-2.5 -3.68395,-2.5 h -2.28903 -2.28902 l -1.57143,-1.571433 -1.57143,-1.571429 v -0.928571 -0.928572 h -1.28439 -1.28439 l -1.71561,2.904292 -1.71561,2.904293 v 1.44574 1.44574 l -6.04863,5.26094 -6.04864,5.26094 -1.7801,-1.61097 -1.78011,-1.61097 h -0.9505 -0.9505 l -1.47076,-2.05706 -1.47076,-2.05705 -4.30139,-1.90945 -4.30139,-1.90945 -2.69861,-2.08683 -2.69861,-2.086826 -3.79441,-2.446669 -3.79441,-2.44667 h -1.95559 -1.95559 v -1 -1 l -1.75,-0.0062 -1.75,-0.0062 -2.8643,-1.493839 -2.86431,-1.49384 h -1.72518 -1.72518 l -1.16051,2.547053 -1.16052,2.547053 v 1.371293 1.371292 l -4.56599,5.331653 -4.56599,5.33166 -0.55901,2.75 -0.55901,2.75 -0.625,0.0397 -0.625,0.0397 -5.25,0.32268 -5.25,0.32269 v -0.69345 -0.69346 l -2.41911,-1.29467 -2.41911,-1.29467 -3.11508,2.21814 -3.11509,2.21813 -4.3841,-3.59244 -4.3841,-3.59244 h -0.92119 -0.92119 l -1.15186,2.52806 -1.15186,2.52807 -1.38597,0.53184 -1.38597,0.53185 -3.37268,-2.05618 -3.37269,-2.05617 -3.59636,-0.004 -3.59636,-0.004 -2.90364,1.40346 -2.90364,1.40346 -3.18402,0.6615 -3.18403,0.6615 -1.52593,-2.81496 -1.52594,-2.81496 -0.04,0.73291 -0.04,0.73292 -3.53041,-1.98292 -3.53042,-1.98291 h -1.46958 -1.46959 v -0.86515 -0.86514 l 2.06432,-2.62435 2.06431,-2.62435 0.4833,-2.665208 0.48329,-2.665209 0.97442,-1.820717 0.97442,-1.820718 -2.57891,-0.647264 -2.5789,-0.647264 2.05688,-1.916272 2.05687,-1.916272 V 84.111722 83.22823 l 3.2756,-1.081046 3.27561,-1.081046 4.89762,-4.496506 4.89762,-4.496507 h 2.33977 2.33978 l 1.88664,-4.25 1.88665,-4.25 1.0363,-2.656476 1.03631,-2.656477 2.89479,-0.635804 2.8948,-0.635803 1.30519,-4.793063 1.30519,-4.793062 2.36407,0.45192 2.36406,0.45192 v -1.647962 -1.647962 l -1.37759,-0.528632 -1.37759,-0.528631 1.1112,-2.354621 1.11121,-2.354621 0.75133,0.464348 0.75133,0.464348 -0.49476,-3.299711 -0.49476,-3.299711 0.59315,1.25 0.59315,1.25 h 1.54167 1.54166 l -0.6,-3 -0.6,-3 h 0.90761 0.90762 l 0.63404,-1.997676 0.63403,-1.997676 2.37824,-0.5969 2.37824,-0.5969 0.30511,-1.405333 0.30511,-1.405333 3.25,1.985211 3.25,1.98521 v 3.514699 3.514698 l 2.25,0.01365 2.25,0.01365 2.25,0.602976 2.25,0.602977 0.0524,-2.366631 0.0525,-2.366632 1.56952,2.25 1.56952,2.25 h 1.26301 1.26302 l 1.61501,-2.464816 1.61501,-2.464817 v -1.503799 -1.503798 l 1.75,0.611691 1.75,0.611691 3.64523,3.457565 3.64523,3.457565 1.94466,-0.617211 1.94466,-0.617211 1.32022,-2.46686 1.32023,-2.466859 1.83988,-0.583958 1.83989,-0.583958 v -0.859288 -0.859288 l 1.75,-0.342874 1.75,-0.342874 2.11467,2.26955 2.11467,2.269549 h 2.91283 2.91282 l 2.22251,-1.556704 2.2225,-1.556704 v -1.871579 -1.87158 l 5.5,-1.230846 5.5,-1.230846 v -0.84087 -0.840871 h 1.5 1.5 v -1.019052 -1.019052 l 2.5,0.62746 2.5,0.62746 v -2.214487 -2.214488 l 2.5,-1.966501 2.5,-1.9664999 V 6.607534 4.287103 l 1.64088,-0.6296638 1.64088,-0.6296637 1.85912,0.5900626 1.85912,0.5900626 V 6.640513 9.0731254 h 1.96482 1.96482 l 1.00707,1.8817276 1.00707,1.881729 4.20115,0.05798 4.20116,0.05798 3.48108,3.481087 3.48109,3.481086 -1.25045,3.018848 -1.25045,3.018848 0.84632,1.310357 0.84632,1.310357 v 2.5 2.5 l 2.25,0.319551 2.25,0.319551 v 1.382409 1.382408 l 4.25,2.935483 4.25,2.935484 2.55624,2.886438 2.55624,2.886438 0.71102,1.852867 0.71101,1.852868 -1.06818,1.287073 -1.06817,1.287074 0.87381,3.336178 0.87382,3.336178 2.9271,0.115291 2.92711,0.115291 0.82143,0.134709 0.82143,0.134709 -1.62371,1.623712 -1.62371,1.623713 0.66357,3.126287 0.66358,3.126288 1.59667,1.808536 1.59667,1.808536 -1.04886,1.691464 -1.04885,1.691464 -3.20624,1.547439 -3.20624,1.547439 -1.94628,2.952561 -1.94628,2.952561 -0.007,4.75 -0.007,4.75 h 1 1 v 0.930449 0.930449 l -2.25,0.322786 -2.25,0.322786 0.24417,2.280385 0.24417,2.28039 -1.49417,0.57337 -1.49417,0.57336 v 1.834 1.83399 l -0.94222,0.58233 -0.94222,0.58232 -0.67132,4.47669 -0.67132,4.4767 h -1.38646 -1.38646 v 1.5 1.5 h -1.83333 -1.83333 z"
     id="path56" />
  <path
     style="fill:#ccc156"
     d="m 630.51794,214.62515 v -1.43402 l -2.9172,-0.58344 -2.9172,-0.58344 -4.05656,-3.97625 -4.05657,-3.97624 -3.27623,-0.31532 -3.27624,-0.31531 -0.22118,-3.5 -0.22119,-3.5 -0.005,-3 -0.005,-3 0.54343,-1.75 0.54342,-1.75 h 2.06345 2.06346 l -0.56797,-3.5 -0.56797,-3.5 h 0.93712 0.93713 v -2.34699 -2.34699 l -2.00385,-2.31046 -2.00385,-2.31047 -1.05525,-3.91887 -1.05524,-3.91888 1.17097,-1.41094 1.17098,-1.41093 -0.76057,-1.76274 -0.76056,-1.76273 0.22025,-2.25 0.22026,-2.25 h -1.41793 -1.41793 l -3.15364,-1.57324 -3.15364,-1.57325 v -1.85417 -1.85418 l -2.63485,-2.07258 -2.63486,-2.07258 h -1.86514 -1.86515 v -1.38499 -1.38499 l -2.5,-1.63806 -2.5,-1.63807 v -2.47694 -2.47695 h -1.48658 -1.48658 l -1.46239,-3.5 -1.46239,-3.5 h -1.35103 -1.35103 l -1.05622,1.05622 -1.05622,1.05622 -3.14204,-6.13906 -3.14204,-6.13906 0.5685,-2.26506 0.56849,-2.26507 2.42977,0.46448 2.42976,0.46448 v -1.71228 -1.71229 l 1.37818,-2.65429 1.37818,-2.65429 1.37182,-2.905532 1.37182,-2.90553 -0.0523,-5.313343 -0.0523,-5.313343 1.38983,-0.533328 1.38984,-0.533329 -0.70059,-4.247798 -0.7006,-4.247798 -1.03629,-1.282428 -1.03629,-1.282428 1.29313,-3.918231 1.29314,-3.918232 -1.29895,-4.799341 -1.29895,-4.79934 -0.88789,-1.154347 -0.88788,-1.154347 0.65472,-2.608639 0.65473,-2.608639 -1.15368,-1.390096 -1.15368,-1.390096 -0.85177,-2.969962 -0.85177,-2.969962 2.87981,1.08701 2.87982,1.08701 0.94321,-0.963966 0.9432,-0.963966 0.65742,-2.663342 0.65742,-2.663342 -2.08666,-2.086658 -2.08666,-2.086658 v -2 -2 h 1.5 1.5 v -1.5 -1.5 h -0.96861 -0.96862 l 0.66053,-1.75 0.66052,-1.75 6.05809,-5.766154 6.05809,-5.7661539 2.75,-0.6088462 2.75,-0.6088463 v -1.375 -1.375 l 5.75,0.031803 5.75,0.031803 1.94113,1.4681966 1.94113,1.4681966 h 4.30887 4.30887 V 5.0481174 4.1551062 l 1.62675,-0.6242418 1.62675,-0.6242419 1.35948,1.128267 1.35948,1.128267 3.51025,-0.4098016 3.51024,-0.4098017 0.58396,1.8398733 0.58395,1.8398732 3.00431,0.6008612 3.0043,0.6008612 0.8001,2.1080529 0.8001,2.108054 -0.99206,1.231664 -0.99206,1.231664 0.14053,10.667716 0.14053,10.667716 0.47915,0.77527 0.47914,0.775271 0.37608,3.904421 0.37607,3.904421 -1.97261,1.231915 -1.97261,1.231915 -2.86584,-0.629445 -2.86585,-0.629446 0.26823,4.553427 0.26824,4.553427 0.4317,0.265032 0.43169,0.265032 3.85641,1.964775 3.85641,1.964775 0.82415,2.167685 0.82416,2.167686 3.06944,2.185634 3.06943,2.185633 v 6.731906 6.731906 l 1.10633,1.106325 1.10633,1.106326 -0.0257,6.343674 -0.0257,6.343675 -0.9193,6.894761 -0.91931,6.89476 -2.66133,1.93864 -2.66134,1.93865 v 3.19435 3.19436 l -1.75,1.68736 -1.75,1.68737 -1.84955,1.96328 -1.84956,1.96328 2.07483,5.77018 2.07483,5.77017 -1.34573,1.55142 -1.34573,1.55142 -0.66464,11.65497 -0.66464,11.65496 1.2851,0.48028 1.28509,0.48028 -1.65078,1.36476 -1.65078,1.36475 -1.47461,5.5 -1.47461,5.5 -1.30608,8.88072 -1.30609,8.88071 1.4679,1.11929 1.4679,1.11928 -2.26268,4 -2.26268,4 -0.96206,2.15286 -0.96206,2.15286 -1.06168,0.65616 -1.06169,0.65615 z"
     id="path54" />
  <path
     style="fill:#ccc155"
     d="m 795.00952,192.82552 v -2.65499 h -1.06574 -1.06574 l -1.93426,1.03519 -1.93426,1.03518 v -1.53518 -1.53519 h -2.88871 -2.88871 l -0.75326,-3.75 -0.75326,-3.75 -0.16218,-5 -0.16219,-5 -1.86312,-6.84557 -1.86312,-6.84558 -1.22222,-0.46901 -1.22221,-0.469 0.50612,-1.93542 0.50612,-1.93542 h -1.0656 -1.06561 l 1.51117,-3.61673 1.51117,-3.61673 -0.52434,-1.36641 -0.52434,-1.36641 -1.78785,0.67037 -1.78786,0.67037 1.36167,-1.67424 1.36167,-1.67425 -0.65246,-2.5996 -0.65246,-2.5996 -4.20921,0.28992 -4.20921,0.28993 -3.21245,-0.77452 -3.21245,-0.77451 -2.05795,-3.32984 -2.05795,-3.32984 -1.9796,0.51768 -1.9796,0.51767 v -1.61663 -1.61663 h -1.5 -1.5 l -0.0314,-1.25 -0.0314,-1.25 -2.65156,-1.93471 -2.65156,-1.93471 -3.69719,0.21815 -3.6972,0.21815 -0.58843,-1.53344 -0.58844,-1.53344 h -4.03138 -4.03139 v -1.5 -1.5 h -1.25945 -1.25945 l -1.24903,-2 -1.24902,-2 h -3.49152 -3.49153 v -1.5 -1.5 h -0.88337 -0.88337 l -0.5111,-1.95446 -0.5111,-1.95446 -2.75026,-0.69027 -2.75027,-0.69028 -1.87818,-1.87818 -1.87819,-1.878185 1.05811,-1.977082 1.0581,-1.977082 -0.78518,-0.03041 -0.78519,-0.03041 1.77103,-1.031052 1.77104,-1.031052 -0.58005,-0.938539 -0.58005,-0.93854 h 1.12544 1.12544 l -0.31643,-2.75 -0.31642,-2.75 -2.25,0.238211 -2.25,0.23821 V 83.26573 81.384509 l -1.35131,-0.518546 -1.35131,-0.518546 0.24192,-3.338443 0.24192,-3.338443 0.74217,-1.817217 0.74218,-1.817218 -0.90147,-0.901463 -0.90146,-0.901464 -3.98132,-0.623302 -3.98132,-0.623302 -0.33928,-0.925874 -0.33929,-0.925874 -1.16071,-1.262576 -1.16072,-1.262577 -1.64652,-2.969566 -1.64652,-2.969567 -2.10348,-0.987128 -2.10348,-0.987129 v -4.262871 -4.262872 h -1 -1 v -3.932612 -3.932612 l -1.89203,-0.600507 -1.89203,-0.600507 -0.54066,-2.067497 -0.54066,-2.067496 -1.17911,0.728731 -1.17912,0.728731 -0.87288,-1.378115 -0.87288,-1.378116 -0.0153,-0.688727 -0.0153,-0.688727 4.51512,-0.677084 4.51512,-0.677084 0.73488,-1.232156 0.73488,-1.232155 3.81222,0.464636 3.81222,0.464637 -0.49354,1.286131 -0.49353,1.286131 1.18132,1.485427 1.18131,1.485426 5.32362,1.229174 5.32362,1.229174 1.38718,-1.980474 1.38717,-1.980474 4.1375,-0.554955 4.1375,-0.554954 2.21616,-2.081973 2.21615,-2.081973 h 2.57125 2.57124 l 2.80421,-1.45484 2.8042,-1.454841 4.29178,0.588253 4.29177,0.588253 1.8304,-2.260445 1.8304,-2.260446 2.26025,0.717375 2.26024,0.717375 -0.77304,1.659658 -0.77305,1.659658 -0.0493,5 -0.0493,5 2.89622,-0.340726 2.89622,-0.340727 2.3209,1.242112 2.32091,1.242111 1.892,-2.336524 1.892,-2.336525 5.14088,0.234575 5.14087,0.234574 v -1.049435 -1.049435 h 1.45455 1.45454 l 2.41636,-2.25 2.41635,-2.25 2.83978,-2.361991 2.83978,-2.361991 1.53932,0.994632 1.53932,0.994632 -0.27716,1.544744 -0.27716,1.544743 2.57261,2.572615 2.57262,2.572616 h 2.73204 2.73204 l 2.22251,-1.556704 2.2225,-1.556704 v -1.014724 -1.014725 l 1.42857,-1.428571 1.42857,-1.428572 h 0.89712 0.89711 l 2.17432,-2.314451 2.17431,-2.314451 V 17.35608 16.170531 h 1.47432 1.47432 l 1.51997,-2.939295 1.51997,-2.939296 2.22822,-1.5607044 2.22821,-1.5607043 h 0.82952 0.82951 l 1.01088,2.8998177 1.01088,2.899818 1.99874,0.52268 1.99873,0.522681 -0.18012,1.327501 -0.18011,1.327502 0.11848,1.75 0.11848,1.75 h 1.59362 1.59362 l 0.52301,2 0.52301,2 h 1.73506 1.73505 l 3.14832,3.008698 3.14831,3.008698 v 1.84922 1.849221 l 4.25,0.901609 4.25,0.901609 -0.3285,2.793418 -0.32851,2.793419 1.20095,1.447054 1.20095,1.447054 h -1.12244 -1.12245 l 0.006,2.25 0.006,2.25 1.0014,3.605035 1.0014,3.605036 1.99302,2.297974 1.99302,2.297975 v 1.287973 1.287973 l -1.10074,0.680297 -1.10075,0.680298 0.57575,2.878719 0.57574,2.87872 h -1.86801 -1.86801 l -0.78463,1.75 -0.78464,1.75 -0.28495,4 -0.28496,4 0.61129,1.5 0.61128,1.5 -0.21274,2.192671 -0.21273,2.19267 3.65191,0.685103 3.65191,0.685103 3.83372,3.872227 3.83372,3.872226 h 1.64416 1.64416 l 1.93426,1.035184 1.93426,1.035185 v 2.79363 2.79363 l 4.25,1.92118 4.25,1.92119 -0.2976,2.15995 -0.2976,2.15996 2.28563,1.60092 2.28563,1.60091 -1.26706,1.73913 -1.26706,1.73913 -0.57313,1.69467 -0.57313,1.69468 -2.02849,-1.19468 -2.0285,-1.19467 -0.45268,1.25 -0.45268,1.25 -2.66666,-0.006 -2.66667,-0.006 -2.86431,-1.49384 -2.8643,-1.49384 h -0.8857 -0.88569 v 1.09887 1.09887 l -1.35947,3.15113 -1.35947,3.15113 -1.11909,2.75 -1.11909,2.75 h -1.399 -1.39899 l -1.30259,1.56952 -1.30259,1.56953 -1.81985,-0.47591 -1.81986,-0.4759 v 0.70638 0.70638 l 1.25,1.26732 1.25,1.26732 -1.75,1.29292 -1.75,1.29293 v 1.13975 1.13976 h -0.84699 -0.84699 l -2.30602,2 -2.30602,2 -2.59699,0.0153 -2.59699,0.0153 -1.38742,0.87863 -1.38742,0.87864 0.48867,5.08568 0.48867,5.08568 -1.95739,1.77037 -1.95739,1.77037 -5.29852,-0.33621 -5.29852,-0.33621 -1.98031,1.05984 -1.98031,1.05983 -0.67702,2.69745 -0.67702,2.69746 -1.93801,2.46378 -1.93801,2.46378 v 1.68364 1.68364 l -1.53575,5.17142 -1.53574,5.17142 -2.71426,0.64439 -2.71425,0.64439 -1.75,1.52068 -1.75,1.52068 z"
     id="path52" />
  <path
     style="fill:#cc5656"
     d="m 689.13247,277.79277 0.65418,-1.70477 -1.7746,-3.29523 -1.7746,-3.29523 h -1.77259 -1.7726 v 2.18709 2.1871 l -2.75,-2.56234 -2.75,-2.56233 -1.5,-0.54581 -1.5,-0.54581 1.25,-0.079 1.25,-0.0789 v -1.42742 -1.42742 l 2.37579,-1.86879 2.37578,-1.86879 0.67837,-3.08861 0.67838,-3.08861 -2.333,-1.86518 -2.33299,-1.86518 0.35216,-1.75 0.35216,-1.75 h -0.86855 -0.86855 l 0.35083,-5.48985 0.35082,-5.48985 -2.51014,-2.51015 -2.51015,-2.51015 h -3.04545 -3.04546 v -1.16666 -1.16667 l 0.69631,0.6963 0.6963,0.69631 1.8037,-3.7082 1.80369,-3.7082 v -2.61 -2.60999 l -2.03676,-3.96144 -2.03675,-3.96145 0.40742,-1.61343 0.40743,-1.61344 -3.37067,-2.81043 -3.37067,-2.81043 v -1.82613 -1.82614 h 1.81291 1.81291 l 2.55144,-2.75 2.55145,-2.75 0.52949,-2.20205 0.52948,-2.20205 -1.14384,-0.469 -1.14384,-0.469 1.75,-0.0789 1.75,-0.079 v -0.8185 -0.81849 l -1.54532,-5.20367 -1.54532,-5.20366 0.61442,-0.99415 0.61442,-0.99415 0.89022,0.55019 0.89023,0.55019 2.252,-1.28388 2.25201,-1.28388 1.09619,-1 1.09618,-1 0.94248,-6 0.94249,-6 2.18472,-0.95902 2.18472,-0.95902 1.06528,-2.33803 1.06528,-2.33803 v -1.45295 -1.45295 l -1.25,-0.0304 -1.25,-0.0304 1.5,-0.84863 1.5,-0.84863 2.25,-0.68835 2.25,-0.68835 v 2.06739 2.06738 h 1.06574 1.06574 l 1.96647,-1.05242 1.96647,-1.05242 -0.64062,2.55242 -0.64062,2.55242 h 1.98597 1.98596 l 1.19154,-1.43572 1.19155,-1.43572 2.93184,-0.64394 2.93184,-0.64394 0.49906,-2.42034 0.49906,-2.42034 0.51905,-2.5 0.51905,-2.5 h 2.92194 2.92193 l 0.67187,1.08712 0.67188,1.08712 1.92532,-0.50348 1.92532,-0.50349 2.46182,2.46182 2.46182,2.46182 v 1.46545 1.46544 l 2.11013,4.4891 2.11012,4.4891 h 1.95562 1.95561 l 1.90414,1.01907 1.90413,1.01906 -0.84198,2.23094 -0.84198,2.23093 -1.14599,3.62105 -1.146,3.62105 0.6701,1.87895 0.6701,1.87895 1.54839,1.80017 1.54839,1.80017 -1.8244,3.38769 -1.82439,3.38769 0.65741,2.61934 0.65742,2.61934 1.71659,-0.17235 1.71659,-0.17236 2.75,0.11516 2.75,0.11515 v 1.5 1.5 h 1.5 1.5 v 1.5 1.5 h 2 2 v 1 1 h 2.35398 2.35398 l 2.69754,-2.5 2.69754,-2.5 h 0.94848 0.94848 l 0.11842,1.25 0.11842,1.25 -0.11842,0.75 -0.11842,0.75 3.75,0.0153 3.75,0.0153 -1.40004,0.88643 -1.40005,0.88644 0.55309,5.35888 0.55308,5.35888 -1.81333,2.23937 -1.81333,2.23937 h -1.6211 -1.62109 l -0.6014,1.56722 -0.60139,1.56722 0.97146,0.97146 0.97147,0.97147 -1.08338,3.46132 -1.08337,3.46131 h -0.75531 -0.75531 v 1.94099 1.94098 l -0.928,0.57354 -0.92801,0.57353 -0.63938,-2.01452 -0.63938,-2.01452 h -4.36452 -4.36452 l -2.166,3.04186 -2.16599,3.04186 0.59955,2.38881 0.59955,2.3888 2.23043,0.31934 2.23044,0.31933 1.0355,5.47924 1.03551,5.47924 2.48241,1.30535 2.48241,1.30535 3.25,-0.47172 3.25,-0.47172 v 0.9507 0.9507 l -1.25,2.01694 -1.25,2.01695 1.5,0.95417 1.5,0.95418 -1.68261,0.0153 -1.68261,0.0153 -0.59007,1.85913 -0.59006,1.85912 0.62966,1.64088 0.62967,1.64087 h 0.89301 0.89301 v 1.5 1.5 h -2 -2 v 1.01906 1.01905 l -2.42783,-0.60935 -2.42783,-0.60934 -2.07217,0.65768 -2.07217,0.65768 v 1.32562 1.32563 l -1.58179,0.60698 -1.58178,0.60699 h -2.75155 -2.75155 l -0.75115,0.75 -0.75115,0.75 -7.66551,0.28863 -7.66552,0.28863 -4.90385,0.0215 -4.90386,0.0214 -0.59614,-0.9233 -0.59615,-0.92329 -5,-0.15858 -5,-0.15858 -3.18983,-0.15568 -3.18984,-0.15568 -3.25,3.17748 -3.25001,3.17748 h -1.41715 -1.41715 z"
     id="path34" />
  <path
     style="fill:#ccc155"
     d="m 868.69775,348.44702 -1.5,-0.96937 -7,-0.13363 -7,-0.13363 -3,-0.68728 -3,-0.68728 0.28452,-1.29796 0.28452,-1.29797 -0.6019,-1.89644 -0.60191,-1.89644 h -1.49836 -1.49835 l -1.80448,-0.96572 -1.80447,-0.96573 1.06505,-3.99024 1.06506,-3.99024 -1.69484,-1.87277 -1.69484,-1.87278 v -2.04881 -2.04882 l -1.39122,-1.15461 -1.39122,-1.15461 -0.64045,-3.21784 -0.64044,-3.21783 0.0122,-2.15047 0.0122,-2.15047 -1.48056,-0.56814 -1.48057,-0.56815 v -3.125 -3.12501 l -2,-0.52301 -2,-0.52301 v -0.85838 -0.85837 l -4.44513,-2.025 -4.44514,-2.02499 h -1.86777 -1.86777 l -2.61005,-2.75 -2.61005,-2.75 -1.68562,-4.25 -1.68563,-4.25 h -3.4228 -3.42281 l -0.5756,-1.5 -0.5756,-1.5 h -1.34149 -1.34149 l -2.63678,-2.44369 -2.63679,-2.44368 0.78131,-2.30632 0.78131,-2.30631 -0.27424,-1.39962 -0.27425,-1.39963 -1.1718,-1.11204 -1.17181,-1.11204 -2.6318,-1.16304 -2.6318,-1.16304 -0.4174,-3.5753 -0.41739,-3.57529 h 1.79919 1.7992 v -1.44346 -1.44347 l -2.84368,-1.6798 -2.84369,-1.67981 -1.15631,-3.19773 -1.15632,-3.19772 v -3.10758 -3.10757 l 1.57143,-1.57143 1.57143,-1.57143 h 3.34679 3.34678 l 1.58179,-0.60699 1.58178,-0.60699 v -1.56427 -1.56427 l -1.71683,-1.89708 -1.71683,-1.89708 1.46995,-2.6189 1.46995,-2.6189 3.49688,-0.89261 3.49688,-0.89261 3,-3.39613 3,-3.39612 4.5,-2.34896 4.5,-2.34896 0.30322,-2.05042 0.30322,-2.05042 -1.5056,-1.5056 -1.5056,-1.50559 0.61905,-0.61905 0.61905,-0.61905 h 1.92695 1.92695 l 0.52301,-2 0.52302,-2 h 1.55032 1.55032 l 6.54359,-3.59681 6.5436,-3.59681 1.03945,-1.33245 1.03945,-1.33245 2.47497,-0.32074 2.47497,-0.32074 1.14424,-2.30415 1.14424,-2.30414 0.53717,2.05414 0.53717,2.05415 1.84362,-0.0153 1.84362,-0.0153 1.44612,-0.91492 1.44612,-0.91491 2.05388,1.09357 2.05388,1.09357 1,1.2088 1,1.20881 3.16875,1.04751 3.16875,1.0475 1.80743,-1.32162 1.80743,-1.32163 2.14707,2.15197 2.14707,2.15197 2.7117,2.25 2.71171,2.25 h 1.36973 1.36974 l 0.73123,3.75 0.73123,3.75 0.10801,1.5 0.10801,1.5 0.8349,5.25 0.83491,5.25 h 1.23307 1.23307 l 0.68929,6.72783 0.68929,6.72782 1.58682,1.75342 1.58682,1.75342 -1.15477,1.39141 -1.15477,1.39141 1.13626,5.37734 1.13625,5.37735 1.07981,2 1.0798,2 -0.27136,2.25374 -0.27136,2.25373 1.4426,0.55358 1.44259,0.55357 -0.19753,4.69269 -0.19752,4.69269 -1.67302,0.32333 -1.67301,0.32332 v 1.89149 1.89149 l 1.97461,1.05678 1.97461,1.05678 -2.22461,2.5643 -2.22461,2.5643 -4.19513,1.91411 -4.19514,1.9141 h -1.94056 -1.94055 l -2.86431,1.49384 -2.86431,1.49384 -1.82142,0.006 -1.82143,0.006 -1.42857,1.42857 -1.42858,1.42857 v 1.37143 1.37143 l 1.16284,1.16284 1.16284,1.16284 -2.45393,0.93299 -2.45394,0.93298 -1.32078,1.59144 -1.32078,1.59144 0.58049,1.51274 0.58049,1.51273 h 2.03139 2.03138 v 0.35078 0.35077 l -1.09782,3.14923 -1.09783,3.14922 h -1.23319 -1.2332 l -1.22469,2.28836 -1.22469,2.28836 1.01578,2.67171 1.01578,2.6717 2.03993,2.03994 2.03993,2.03993 h 2.8 2.8 l 1.2,-1.2 1.2,-1.2 v 1.65031 1.65031 l 1.3491,0.79969 1.34909,0.79969 0.65668,2.69708 0.65667,2.69708 -1.29003,0.80292 -1.29004,0.80292 -1.38782,6.5 -1.38781,6.5 0.0566,2 0.0566,2 0.73211,2.25 0.73211,2.25 -0.86663,-0.0153 -0.86664,-0.0153 z m 4.51009,-34.01631 0.62811,-1.01631 0.9309,0.57533 0.9309,0.57533 v 0.44098 0.44098 h -1.55901 -1.55902 z"
     id="path32" />
  <path
     style="fill:#7498cc"
     d="m 773.20331,468.22043 -1.24489,-1.5 h -1.87756 -1.87755 v -2.39301 -2.39301 l -1.35849,-0.52131 -1.35849,-0.5213 -0.67079,-4.19489 -0.67079,-4.19489 -2.97227,0.43624 -2.97226,0.43624 -1.65344,-1.82704 -1.65345,-1.82703 -1.59501,-0.036 -1.59501,-0.036 -2.88302,-2.35766 -2.88301,-2.35767 2.13301,-1.14155 2.13302,-1.14156 v -2.91183 -2.91183 l -4.17682,0.16656 -4.17682,0.16656 -0.40651,-1.21955 -0.40652,-1.21954 h -1.79422 -1.79422 l -1.24489,-1.5 -1.24489,-1.5 h -2.2427 -2.24269 l -2.75643,2.1682 -2.75642,2.16821 -1.62844,-1.17457 -1.62843,-1.17457 -1.28725,-0.61492 -1.28724,-0.61491 -2.03622,1.84275 -2.03621,1.84275 -4.54483,1.15397 -4.54483,1.15398 -1.63171,-0.31521 -1.63171,-0.31522 -2.65747,-0.55606 -2.65747,-0.55606 0.52549,-2.0095 0.5255,-2.00949 -1.24047,-1.49468 -1.24047,-1.49467 h -2.15505 -2.15505 l -1.97251,-1.35081 -1.9725,-1.3508 -2.5,-0.60584 -2.5,-0.60583 -1.79946,-3.34279 -1.79945,-3.34279 -2.95055,-1.11371 -2.95054,-1.1137 v -3.08687 -3.08686 h -2.03139 -2.03138 l -0.48171,1.25 -0.48171,1.25 -5.27303,0.12282 -5.27303,0.12281 -1.21388,-2.57218 -1.21387,-2.57218 v -1.67564 -1.67563 l 3.25,-0.70752 3.25,-0.70752 -2.04219,-0.97756 -2.04218,-0.97757 0.41399,-3.54612 0.41399,-3.54613 -3.18786,0.70017 -3.18785,0.70017 -2.93395,-1.21528 -2.93395,-1.21528 -0.1063,-3.12868 -0.1063,-3.12868 -0.1437,-2 -0.1437,-2 -2.75,-0.31642 -2.75,-0.31643 v -2.89462 -2.89462 l 2.18856,-2.03896 2.18856,-2.03895 h 2.74405 2.74405 l 0.65328,2.05829 0.65328,2.0583 2.16411,-0.31153 2.16411,-0.31153 -0.23821,-2.24677 -0.23821,-2.24676 h 1.60484 1.60484 l -0.52275,-1.99901 -0.52275,-1.999 1.00686,-0.62228 1.00687,-0.62227 -0.58211,-2.91056 -0.58212,-2.91055 2.42057,-0.9203 2.42056,-0.9203 1.04672,-1.9558 1.04671,-1.9558 -0.42221,-5.02249 -0.42221,-5.02249 1.4363,-1.19202 1.4363,-1.19202 v -3.90256 -3.90255 l 2.97757,-0.59552 2.97758,-0.59551 1.14487,-1.37949 1.14487,-1.37948 h 2.18642 2.18643 l 1.86799,-1.36591 1.86799,-1.36591 -1.35372,-3.26818 -1.35373,-3.26818 1.72951,-1.26465 1.72951,-1.26465 0.96346,-3.48936 0.96346,-3.48937 4.2339,0.008 4.23389,0.008 1.64885,-0.68839 1.64885,-0.6884 0.66016,1.06817 0.66017,1.06818 h 3.35765 3.35765 l 0.37561,1.12683 0.37561,1.12683 5.07779,0.48792 5.07779,0.48791 0.6972,-1.12809 0.69719,-1.12808 0.0779,-2.74147 0.0779,-2.74147 -0.63396,-1.9974 -0.63395,-1.9974 5.04776,-3.44457 5.04777,-3.44457 -0.60839,-2.42402 -0.60839,-2.42402 1.52955,1.52955 1.52955,1.52956 3.94772,0.66696 3.94771,0.66696 -0.1779,2.67428 -0.17789,2.67429 2.51453,0.2937 2.51453,0.2937 2.19366,-2.0437 2.19365,-2.0437 h 1.49636 1.49636 l 2.54004,-2.54004 2.54004,-2.54004 0.63322,-3.95996 0.63322,-3.95996 h 0.54346 0.54345 l 1.70471,1.54274 1.70471,1.54275 3.87403,0.60375 3.87403,0.60376 2.8063,1.96169 2.80631,1.96168 5.36032,-0.66972 5.36032,-0.66973 0.55199,-1.43846 0.55199,-1.43846 h 3.03138 3.03139 v 3.60841 3.6084 l 2.5,-0.62746 2.5,-0.62746 v 1.51906 1.51905 h -0.81144 -0.81144 l -1.93856,1.75797 -1.93856,1.75797 -2.75,1.76508 -2.75,1.76508 v 1.97695 1.97695 h 1.57332 1.57333 l -0.33152,1.75 -0.33151,1.75 -3.17996,0.30874 -3.17996,0.30875 -0.31185,2.18189 -0.31185,2.18189 -2.75,1.31393 -2.75,1.31393 v 3.44543 3.44544 h 0.83797 0.83797 l 0.13343,3.54921 0.13343,3.54922 0.58761,0.95078 0.58762,0.95079 h 2.5744 2.57439 l 3.86462,3.75 3.86463,3.75 -0.58957,3.1447 -0.58958,3.1447 1.11446,2.08238 1.11445,2.08238 1.8456,0.98774 1.8456,0.98773 2.88149,-2.93704 2.88148,-2.93704 1.75,-0.0278 1.75,-0.0278 v -1.5 -1.5 h 0.57143 0.57143 l 1.31836,1.31836 1.31836,1.31837 -0.48302,4.18163 -0.48303,4.18164 h 1.09323 1.09324 v 1.5 1.5 h -1.25693 -1.25692 l -3.24308,3.53366 -3.24307,3.53366 v 1.3127 1.3127 l 1.57324,3.15364 1.57324,3.15364 h 2.42676 2.42676 v 1 1 h 1.60699 1.60699 l -0.53157,1.38524 -0.53157,1.38524 2.67458,2.34158 2.67458,2.34158 -1.84279,0.36437 -1.84278,0.36437 0.49916,1.90881 0.49917,1.90881 h -0.81276 -0.81276 l 0.46756,1.78796 0.46756,1.78796 -2.60984,2.81606 -2.60984,2.81607 0.42589,1.14597 0.42589,1.14598 -3.01859,3.19345 -3.01859,3.19345 -0.50117,5.21575 -0.50116,5.21574 1.89252,1.45556 1.89253,1.45555 -1.25,0.46858 -1.25,0.46859 v 1.35996 1.35996 l 1.77862,1.3067 1.77862,1.30671 0.19746,3 0.19746,3 0.0779,3.72436 0.0779,3.72436 0.94599,0.58466 0.946,0.58465 v 0.94099 0.94098 h -1.5 -1.5 v 1.46861 1.46862 l -1.25,-0.45811 -1.25,-0.45811 -1.1003,0.73949 -1.10029,0.7395 -1.14108,2.16814 -1.14108,2.16813 0.61638,3.08187 0.61637,3.08186 h -1.925 -1.925 l -1.2,1.2 -1.2,1.2 v 1.74098 1.74098 l -1.15712,0.71514 -1.15712,0.71514 -3.29155,-0.12374 -3.29154,-0.12374 -4.80134,1.4568 -4.80133,1.45679 -0.62756,0.0108 -0.62755,0.0108 z"
     id="path30" />
  <path
     style="fill:#ccc156"
     d="m 825.1452,597.18552 -2,-1.08973 -3.24316,-2.12986 -3.24317,-2.12987 -0.007,-3.21146 -0.007,-3.21145 -3.95499,-1.06497 -3.955,-1.06497 -1.545,-1.54501 -1.54501,-1.545 v -0.92857 -0.92857 h -3.55901 -3.55902 l 0.80092,-1.25 0.80092,-1.25 1.24304,-3.5 1.24304,-3.5 0.0151,-1.15384 0.0151,-1.15385 -5.97449,-4.84615 -5.97449,-4.84616 -2.77551,-0.50826 -2.77551,-0.50827 -0.63461,-5.90066 -0.63462,-5.90066 0.78216,-2.72724 0.78217,-2.72724 -2.39755,-1.0924 -2.39755,-1.09239 -0.0278,-1.27144 -0.0278,-1.27144 -2.97218,-3.92814 -2.97218,-3.92814 -0.0106,-1.07186 -0.0106,-1.07186 -3.97819,-5 -3.9782,-5 1.73395,-1.28949 1.73395,-1.28948 -1.20753,-0.74629 -1.20753,-0.7463 0.57903,-2.21422 0.57904,-2.21422 h 2.40177 2.40177 l 4.86743,-2.54511 4.86744,-2.54511 1.73544,-1.91765 1.73544,-1.91764 -0.58989,-1.53725 -0.5899,-1.53724 h 1.96862 1.96861 v -1 -1 h 1.47695 1.47695 l 1.59658,2.43669 1.59658,2.4367 2.96711,0.65169 2.96711,0.65168 2.38352,-1.56174 2.38352,-1.56174 0.7193,-2.27664 0.7193,-2.27664 1.85654,-1.3067 1.85654,-1.30671 v -1.58305 -1.58306 l 1.75,-1.35422 1.75,-1.35422 4.5,-2.1244 4.5,-2.12439 1.5,-0.74676 1.5,-0.74676 0.13727,-2.38486 0.13726,-2.38487 0.73774,-3.25 0.73773,-3.25 h 0.875 0.875 v -2.05902 -2.05901 l 1.06731,0.65963 1.06731,0.65963 0.56308,-2.15321 0.56307,-2.1532 3.57071,0.30259 3.57072,0.30259 1.86128,3.19919 1.86128,3.19919 -1.15658,2.30081 -1.15658,2.30081 -2.42088,2.04959 -2.42088,2.04959 0.64008,3.20041 0.64008,3.20041 h 1.65669 1.65668 l 1.46454,4.75 1.46454,4.75 -0.24831,2.5 -0.24831,2.5 0.81675,1.25913 0.81675,1.25914 3.93533,-0.0577 3.93534,-0.0577 5.90127,0.0304 5.90127,0.0304 1.67747,1.51809 1.67747,1.51809 h 1.61314 1.61313 l 1.39998,4.75 1.39997,4.75 -0.84185,0.95 -0.84185,0.95 v 2.14501 2.14501 l 1.84589,1.67051 1.84589,1.6705 1.90411,-0.17396 1.90411,-0.17396 2.78519,0.15845 2.78518,0.15844 -1.1683,2.183 -1.16831,2.18299 2.00136,1.62061 2.00137,1.6206 -1.77854,2.1964 -1.77853,2.1964 h -1.61446 -1.61446 l -0.9505,2.5 -0.9505,2.5 h -1.41776 -1.41776 l -0.54755,1.42689 -0.54755,1.42688 1.44056,1.19556 1.44056,1.19556 v 2.3585 2.35851 l 2.4254,0.60873 2.42539,0.60874 2.59109,5.47245 2.59108,5.47246 2.73352,2.40626 2.73352,2.40626 -1.6242,0.0316 -1.6242,0.0316 -0.0607,4.25 -0.0607,4.25 -0.65889,4.66385 -0.6589,4.66384 -2.33365,2.19235 -2.33365,2.19235 -3.60684,-2.75107 -3.60684,-2.75107 -2.52281,1.14948 -2.52282,1.14947 -1.69285,-0.8848 -1.69286,-0.8848 -5.3989,-0.10515 -5.3989,-0.10516 -2.27348,2.45313 -2.27348,2.45312 -0.64501,2.03223 -0.645,2.03223 h -1.93262 -1.93261 v 1 1 h -1.5 -1.5 v 0.96861 0.96862 l -1.53724,-0.5899 -1.53725,-0.58989 -1.71275,1.5198 -1.71276,1.5198 -3.78041,2.10148 -3.78042,2.10148 -2.21958,-0.0304 -2.21959,-0.0304 z"
     id="path28" />
  <path
     style="fill:#cc5555"
     d="m 649.61834,602.60901 -1.24994,-0.50437 -3.50006,-3.39902 -3.50005,-3.39902 v -5.01766 -5.01767 h -4.53139 -4.53138 l -0.57561,-1.5 -0.5756,-1.5 h -1.69301 -1.69301 l -1.32982,1.25 -1.32982,1.25 1.74483,-2.75 1.74483,-2.75 h 0.88499 0.88499 v -2.41821 -2.41821 l -0.60699,-1.58179 -0.60699,-1.58179 h -1.91445 -1.91445 l -3.89517,2.5777 -3.89516,2.57769 -2.46602,-1.61579 -2.46601,-1.6158 -0.57148,-2.85736 -0.57147,-2.85737 0.58494,-3.60453 0.58493,-3.60454 h -2.57182 -2.57183 l -0.6974,1.12842 -0.6974,1.12841 -0.91131,-1.62841 -0.9113,-1.62842 h -3.5491 -3.5491 l -2.80242,3 -2.80242,3 h -1.03141 -1.0314 l -0.67862,2.25 -0.67862,2.25 -1.49024,3.22372 -1.49024,3.22373 -3.39195,0.63633 -3.39196,0.63634 -2.52,-0.63248 -2.51999,-0.63248 0.62183,-2.47758 0.62183,-2.47758 h -2.98596 -2.98596 l -1.29381,1.55895 -1.29381,1.55894 -3.62564,-0.61254 -3.62563,-0.61255 -2.703,2.12618 -2.703,2.12618 v -1.18916 -1.18915 l -2.67639,0.51162 -2.67638,0.51162 -1.49539,-1.49538 -1.49538,-1.49539 -3.74081,0.59818 -3.74081,0.59818 -1.33742,0.51273 -1.33742,0.51272 -0.11513,-8.32429 -0.11512,-8.32429 -1.178,-2.20111 -1.178,-2.20111 1.54312,-0.59215 1.54313,-0.59216 v -1.34332 -1.34332 l -1.68071,-0.94057 -1.68071,-0.94057 2.65927,-3.35912 2.65928,-3.35912 2.36222,-2.5 2.36223,-2.5 0.55305,-2.20205 0.55305,-2.20205 -0.80424,-0.29795 -0.80424,-0.29795 -0.68671,-4.6404 -0.68671,-4.6404 3.52981,-1.16494 3.52981,-1.16494 0.69249,-3.15293 0.6925,-3.15292 -1.1252,-0.37507 -1.12519,-0.37507 v -1.30003 -1.30004 l -1.9625,-0.5132 -1.9625,-0.51321 0.4339,-2.2531 0.43391,-2.2531 -0.91519,-4.07321 -0.91519,-4.07321 0.52555,-0.52554 0.52554,-0.52554 1.34788,1.84333 1.34788,1.84334 3.07036,-0.67437 3.07036,-0.67436 v -0.87349 -0.87349 l -1.16244,-2.55128 -1.16244,-2.55128 0.51365,-0.51366 0.51366,-0.51366 2.89878,1.51172 2.89879,1.51173 1.27475,0.006 1.27475,0.006 0.99267,2.61093 0.99268,2.61093 4.60438,-0.69047 4.60438,-0.69047 3.87282,-2.01863 3.87283,-2.01863 4.54357,2.66272 4.54358,2.66271 2.20243,-0.31454 2.20242,-0.31455 1.32454,-2.77213 1.32455,-2.77214 4.11482,3.52214 4.11482,3.52213 h 0.86966 0.86967 l 3.12178,-1.61433 3.12178,-1.61434 2.57856,1.43196 2.57856,1.43197 5.25,-0.19263 5.25,-0.19263 0.92054,-0.125 0.92055,-0.125 0.60746,-2.76577 0.60746,-2.76576 3.66605,-3.98424 3.66604,-3.98423 1.34183,-3.5 1.34183,-3.5 0.58075,-1.75 0.58075,-1.75 h 0.76906 0.76906 l 2.86431,1.49384 2.86431,1.49384 1.69098,0.006 1.69098,0.006 0.61804,1 0.61803,1 h 1.92955 1.92955 l 1.76144,1.46631 1.76143,1.46632 3.5,2.49635 3.5,2.49635 5.60209,2.97706 5.60209,2.97707 3.6661,3.56027 3.6661,3.56027 h 0.54879 0.54879 l 5.96465,-5.25 5.96465,-5.25 2.12697,-4.39335 2.12696,-4.39334 1.20165,1.64334 1.20164,1.64335 1.88976,0.0164 1.88976,0.0165 4,2.44605 4,2.44604 2.1822,0.98698 2.18221,0.98698 -1.10195,2.9194 -1.10195,2.9194 0.91974,4.38113 0.91975,4.38112 2.80016,0.32126 2.80016,0.32127 1.63505,3.42873 1.63505,3.42874 1.56479,0.15553 1.56479,0.15552 2.5,-0.18833 2.5,-0.18834 2.5,-0.89482 2.5,-0.89482 4.66711,-0.62121 4.66711,-0.62121 0.6899,2.17368 0.6899,2.17369 -0.86658,0.62516 -0.86659,0.62515 -1.88756,4 -1.88757,4 -0.9004,1.81255 -0.9004,1.81255 0.59744,1.88236 0.59744,1.88236 -4.0499,1.21338 -4.0499,1.21338 v 0.84171 0.84171 h -1.84502 -1.84501 l -1.65499,1.82874 -1.65498,1.82874 v 1.21672 1.21671 l -2.5,2.5 -2.5,2.5 v 1.42887 1.42886 l -2.75,1.39789 -2.75,1.3979 -1.66746,-0.62222 -1.66745,-0.62221 -2.15513,-2.75 -2.15512,-2.75 h -1.37773 -1.37773 l -0.9259,1.65449 -0.9259,1.65449 -1.62379,-0.6231 -1.62379,-0.62311 -0.0318,2.21862 -0.0318,2.21861 -1.33428,1.75799 -1.33428,1.75799 -4.46946,2.37643 -4.46947,2.37644 -3.16539,0.69524 -3.1654,0.69524 -0.5932,2.3635 -0.5932,2.3635 0.61045,0.98774 0.61046,0.98773 -1.0052,0.62125 -1.00519,0.62125 1.69494,2.69785 1.69494,2.69785 2.79394,3.2848 2.79395,3.28479 v 1.12082 1.12081 l 2.5,3.27767 2.5,3.27767 v 1.06672 1.06672 h -1.42858 -1.42857 l -1.45613,1.45614 -1.45614,1.45613 -1.77028,-1.95613 -1.77028,-1.95614 h -1.84501 -1.84501 v 1.3 1.3 l 1.09933,1.09934 1.09934,1.09933 -0.68977,2.17329 -0.68978,2.17328 -3.90956,-0.66052 -3.90956,-0.66051 v 1.26221 1.26221 l -2.36958,-2.2261 -2.36957,-2.2261 -2.63988,0.66256 -2.63987,0.66257 -0.52595,0.85101 -0.52596,0.85101 -2.45287,-0.93258 -2.45288,-0.93258 -0.62013,2.47079 -0.62013,2.47079 -5.64159,-0.0789 -5.64159,-0.0789 z"
     id="path26" />
  <path
     style="fill:#7acc8c"
     d="m 499.79047,415.29858 v -1 h -3.88337 -3.88337 l -0.58964,-2.25 -0.58963,-2.25 1.12833,-3.12401 1.12834,-3.12402 -0.62395,-1.62598 -0.62394,-1.62599 h -2.99621 -2.9962 l -1.09811,2.05184 -1.09811,2.05184 -4.29083,-0.64345 -4.29083,-0.64345 -4.59138,2.09161 -4.59138,2.09161 h -1.72612 -1.72612 l -1.75113,1.58475 -1.75112,1.58475 -4.11563,0.55202 -4.11563,0.55202 -0.97724,1.82599 -0.97724,1.826 -1.23475,-0.41339 -1.23474,-0.41339 -4.25,-1.08792 -4.25,-1.08791 v -2.93008 -2.93007 l -1.50224,0.57647 -1.50224,0.57646 -2.48892,-0.62468 -2.48892,-0.62468 0.34093,-1.73317 0.34092,-1.73317 0.78698,-1.82754 0.78697,-1.82754 -1.45829,-1.45829 -1.45829,-1.45829 0.44992,-3.06548 0.44991,-3.06548 0.62164,0.97568 0.62163,0.97568 3.0021,0.65064 3.0021,0.65064 1.20433,-2.27501 1.20432,-2.27501 0.6602,-1.75 0.66021,-1.75 h 1.25837 1.25837 l 0.63354,-3.16771 0.63354,-3.16771 -2.03072,-1.8919 -2.03071,-1.8919 0.52772,-0.85387 0.52771,-0.85386 4.31018,-2.08652 4.31019,-2.08653 h 1.18427 1.18428 v -1.95031 -1.95031 l 1.71662,-0.96067 1.71662,-0.96067 -1.36734,-2.55489 -1.36733,-2.55489 -0.75469,0.46642 -0.75468,0.46642 -3.03207,-4.57758 -3.03206,-4.57758 -0.64199,-2.92297 -0.64199,-2.92297 h -0.72513 -0.72513 l -3.88697,-3.56033 -3.88698,-3.56033 -2.23611,0.56123 -2.23612,0.56123 -1.60901,-1.60901 -1.60902,-1.60902 -3.17662,0.46623 -3.17663,0.46623 -1.26883,-1.26883 -1.26883,-1.26882 -1.22406,-0.40802 -1.22406,-0.40802 0.25154,-4.26303 0.25153,-4.26303 -2.12595,-0.55595 -2.12595,-0.55595 0.69414,-2.11229 0.69414,-2.11229 0.49678,-3.80522 0.49678,-3.80523 2.74437,0.60276 2.74437,0.60277 3.11478,-3.54754 3.11477,-3.54754 h 1.70181 1.70181 l 1.78845,-1.61852 1.78845,-1.61852 2.54029,0.63757 2.5403,0.63758 v 2.43126 2.43125 l 1.62101,0.90717 1.62102,0.90716 5.96808,-1.85747 5.96808,-1.85748 h 2.00317 2.00318 l 2.57905,-2.02868 2.57905,-2.02868 1.02868,1.02868 1.02868,1.02868 h 2.37142 2.37143 l 1.41943,-1.41942 1.41943,-1.41943 6.75914,-0.71801 6.75915,-0.71802 3.20967,-3.391 3.20968,-3.39101 2.54032,2.20878 2.54033,2.20878 v 2.31967 2.31966 h 2.5 2.5 v -2.2 -2.2 l 1.2,1.2 1.2,1.2 h 2.8 2.8 v 2.5 2.5 h 3.5 3.5 v 1.87405 1.87405 l 2.59034,4.63463 2.59034,4.63462 -1.72326,5.47871 -1.72326,5.4787 1.25536,1.51262 1.25537,1.51262 -1.37245,0.0318 -1.37244,0.0318 1.5364,1.2182 1.53639,1.21819 -0.35861,1.74422 -0.35861,1.74422 2.0982,2.94664 2.09819,2.94664 1.89044,0.6 1.89043,0.6 1.1146,2.70914 1.11459,2.70914 1.43952,2.5 1.43952,2.5 -0.97053,0.33334 -0.97053,0.33333 v 3.88473 3.88473 l -2.75,1.44592 -2.75,1.44593 2.75,0.69442 2.75,0.69442 v 0.77765 0.77765 l 3.30715,1.56935 3.30715,1.56935 1.11505,2.29459 1.11505,2.29459 0.62315,2.85478 0.62314,2.85477 1.95465,-0.51115 1.95466,-0.51116 v 0.90638 0.90638 h 0.94847 0.94848 l 2.55152,-2.36467 2.55153,-2.36467 v -1.13533 -1.13533 h 0.78885 0.78885 l 2.85002,5.44748 2.85001,5.44747 -1.62605,3.30253 -1.62605,3.30252 -3.01282,2.91667 -3.01281,2.91667 v 0.71201 0.71201 l -2.79442,1.15749 -2.79441,1.15748 -1.07817,2.8564 -1.07817,2.85639 -3.17867,0.69816 -3.17868,0.69815 -2.20502,-2.37925 -2.20501,-2.37925 0.35467,-1.84164 0.35466,-1.84163 -1.34839,-0.85452 -1.34839,-0.85451 -2.16505,-0.0153 -2.16505,-0.0153 -2.71405,2.25 -2.71405,2.25 -2.18274,2 -2.18273,2 -2.56956,1.35551 -2.56957,1.3555 -3.05995,-0.67207 -3.05995,-0.67208 -2.05865,1.10175 -2.05865,1.10176 v 1.46482 1.46481 h -1 -1 z"
     id="path24" />
  <path
     style="fill:#7acc8c"
     d="m 441.75029,599.39234 -0.63745,-1.03142 -6.51479,0.24053 -6.51478,0.24054 -0.93323,-1.66758 -0.93322,-1.66758 -1.38321,0.53079 -1.38321,0.53079 -0.50303,-1.82232 -0.50302,-1.82232 -0.61353,-3.64817 -0.61352,-3.64817 -2.51978,-0.63243 -2.51978,-0.63242 -0.95401,0.58961 -0.95402,0.58961 v -1.08377 -1.08376 l -2.5,-0.9505 -2.5,-0.9505 v -0.99907 -0.99907 l -3.25,-1.69882 -3.25,-1.69882 -3.25,0.20446 -3.25,0.20447 v -1.03133 -1.03132 h -2.63365 -2.63365 l -2.23179,-2.5973 -2.23179,-2.5973 -0.0295,-10.9027 -0.0295,-10.9027 h 2.28063 2.28062 l 2.86431,-1.49384 2.8643,-1.49384 3.25,-0.006 3.25,-0.006 v -4.06456 -4.06456 l -3.1618,-2.68544 -3.16181,-2.68544 -1.83819,-0.71778 -1.8382,-0.71777 v -2.03223 -2.03222 h -6.35065 -6.35066 l 0.78701,-4.97855 0.787,-4.97855 -0.93635,-3.26485 -0.93635,-3.26485 v -3.2566 -3.2566 h 1.5 1.5 v -4 -4 h 2.86299 2.86298 l 3.77468,-7.4367 3.77467,-7.4367 -0.61266,-3.0633 -0.61266,-3.0633 h 1.475 1.475 v -3.03139 -3.03138 l -1.75,-0.67306 -1.75,-0.67306 -5,0.17861 -5,0.17861 -5,0.27583 -5,0.27584 -1.25894,0.81454 -1.25895,0.81455 -1.95631,-0.62091 -1.95632,-0.62091 -0.64603,-3.44363 -0.64603,-3.44364 h -1.27521 -1.27521 l -0.6135,-3 -0.6135,-3 -0.62171,-3.05599 -0.62172,-3.05599 2.07405,-2.20772 2.07405,-2.20773 -0.20233,-5.71454 -0.20234,-5.71455 2.25,-1.57844 2.25,-1.57845 v -2.69919 -2.69918 l 2.75,-1.14686 2.75,-1.14687 3.63982,-0.62189 3.63981,-0.62189 0.55228,-2.11194 0.55229,-2.11193 3.19578,0.63915 3.19577,0.63916 1.12499,-1.53852 1.12499,-1.53851 7.73714,-0.0901 7.73713,-0.0901 v -0.87398 -0.87397 h 1.5 1.5 v 2.89159 2.89159 l 2.41741,0.60673 2.4174,0.60673 2.19329,3.54882 2.19329,3.54881 2.91012,0.58203 2.91011,0.58202 0.53821,0.87084 0.53821,0.87084 h 1.80612 1.80613 l 2.63486,2.07258 2.63485,2.07258 v 1.90837 1.90836 l 2.75,0.69754 2.75,0.69754 3,-0.086 3,-0.0859 3,-0.19517 3,-0.19518 2.15566,-1.98303 2.15565,-1.98304 2.0286,1.08568 2.02861,1.08568 h 1.66137 1.66137 l 2.81267,-2.0028 2.81267,-2.0028 6.08306,3.11338 6.08306,3.11337 2.50864,-0.62963 2.50864,-0.62963 v 2.46936 2.46937 l -1.60274,0.89694 -1.60274,0.89694 0.35274,1.77616 0.35274,1.77617 5.38838,2.87658 5.38837,2.87659 h 2.84981 2.84981 l 0.62975,3.93826 0.62976,3.93827 1.38206,0.53035 1.38206,0.53035 v 2.53138 2.53139 h 1.87756 1.87755 l 1.32606,1.5978 1.32606,1.5978 3.04639,-0.51273 3.04638,-0.51272 1.75,-0.69207 1.75,-0.69206 v 2.72049 2.72049 l 2.82412,-0.4145 2.82412,-0.41449 1.01316,1.08459 1.01316,1.0846 0.70265,2.79958 0.70265,2.79957 -2.03993,0.53346 -2.03993,0.53345 v 2.43539 2.43539 l -3,1.0458 -3,1.04581 v 2.93356 2.93356 l -1.35175,0.51871 -1.35175,0.51872 0.44952,2.35148 0.44951,2.35148 -2.09776,0.66581 -2.09777,0.6658 v 0.95167 0.95166 l -2.5,-0.62746 -2.5,-0.62746 v 1.10841 1.10841 l -1.75,0.0333 -1.75,0.0333 -2.04863,1.71673 -2.04863,1.71673 -0.66998,1.75 -0.66999,1.75 h -1.17114 -1.17114 l -1.20854,-1.65278 -1.20854,-1.65277 -1.1517,0.71179 -1.15171,0.71179 v 1.41623 1.41624 l -2.5,-0.9505 -2.5,-0.9505 v 1.17525 1.17525 l -1.2,-1.2 -1.2,-1.2 h -1.3 -1.3 v 1.93261 1.93261 l -1.88091,0.59698 -1.88092,0.59698 -0.61463,3.07312 -0.61462,3.07311 0.55456,0.89729 0.55456,0.8973 h -1.05902 -1.05902 v 2.10608 2.10608 l -2.5,1.9665 -2.5,1.9665 v 2.34408 2.34409 l -1.1,0.36667 -1.1,0.36666 v 3.83493 3.83492 l -3.80268,-0.51005 -3.80268,-0.51004 -0.6551,4.36848 -0.65509,4.36848 -0.94222,0.58233 -0.94223,0.58232 v 1.94098 1.94099 h -1.46861 -1.46862 l 0.57568,1.75 0.57568,1.75 1.44511,3.26107 1.44511,3.26108 -0.62127,1.00523 -0.62127,1.00524 -0.85028,-0.5255 -0.85029,-0.52551 -1.37726,1.37726 -1.37726,1.37726 -2.20336,0.69932 -2.20336,0.69932 v 1.43261 1.43262 h -1.5 -1.5 l -0.10629,2.75 -0.1063,2.75 -0.23066,1.5 -0.23066,1.5 -0.77967,2.25 -0.77968,2.25 h -1.38337 -1.38337 v 1.44098 1.44098 l 0.7974,0.49282 0.79739,0.49282 -0.16844,2.8162 -0.16845,2.8162 -0.12895,1.25 -0.12895,1.25 h -0.94098 -0.94098 z"
     id="path22" />
  <path
     style="fill:#a285ca"
     d="m 343.2612,582.50593 0.0494,-2.87821 -3.8481,-0.31622 -3.84809,-0.31621 -1.71752,1.55434 -1.71753,1.55433 -3.13128,0.62626 -3.13128,0.62625 -3.3031,-1.9832 -3.3031,-1.9832 -3.33111,-0.6224 -3.33112,-0.6224 -2.53634,-1.99509 -2.53635,-1.99509 1.61746,-0.62067 1.61746,-0.62068 v -1.39301 -1.39301 h 2.5 2.5 v -2.45031 -2.45031 l 1.75,-0.99422 1.75,-0.99421 -1.2312,-2.0118 -1.2312,-2.0118 -0.58177,-4.29368 -0.58178,-4.29367 -0.42202,-2.1143 -0.42202,-2.11429 1.74568,-1.88571 1.74568,-1.8857 2.0546,-1.14312 2.05461,-1.14313 1.68554,0.94328 1.68555,0.94328 5.99916,-1.18026 5.99917,-1.18026 -0.019,-1.6199 -0.019,-1.61989 -3.00493,-4.5 -3.00492,-4.5 -2.47608,-3.39789 -2.47607,-3.39788 0.003,-2.60212 0.003,-2.60211 2.99658,-7.35362 2.99657,-7.35361 v -3.33737 -3.33737 l -1.00271,-0.61971 -1.0027,-0.6197 1.03789,-1.93931 1.03788,-1.93931 h 1.9058 1.9058 l 0.61804,-1 0.61803,-1 h 2.86956 2.86955 l 1.57143,1.57142 1.57143,1.57143 v 1.42857 1.42858 h 0.75432 0.75432 l -0.21427,8.21573 -0.21427,8.21574 1.20995,0.76895 1.20995,0.76895 5.69098,0.0153 5.69098,0.0153 0.68714,1.1118 0.68713,1.1118 -1.27336,0.78698 -1.27336,0.78698 0.60215,3.01077 0.60216,3.01076 -1.45691,0.55907 -1.45691,0.55907 v 2.3624 2.36241 l 2.5,1.33796 2.5,1.33796 v 3.70857 3.70858 l -1.5,1.24489 -1.5,1.24489 v 1.27056 1.27057 l -1.44607,0.55491 -1.44607,0.5549 -2.55393,5.39858 -2.55393,5.39857 v 1.65351 1.65351 h 1 1 v 1.375 1.375 l 3.08911,0.61782 3.08911,0.61782 -0.67542,3.99776 -0.67541,3.99775 1.68024,4.39965 1.68024,4.39964 -1.11686,2.08686 -1.11685,2.08686 -2.02804,1.08537 -2.02803,1.08537 -6.74843,0.56577 -6.74842,0.56576 z"
     id="path20" />
  <path
     style="fill:#7acc8c"
     d="m 216.46035,568.91154 -1.1677,-2.56283 -2.78844,-0.55769 -2.78843,-0.55768 -1.19282,-1.43726 -1.19282,-1.43726 -3.45173,-1.44223 -3.45173,-1.44222 h -1.79454 -1.79454 l -0.38666,-1.15999 -0.38666,-1.15998 0.41682,-2.84002 0.41683,-2.84001 h 1.35131 1.35132 l 1.07037,-2 1.07037,-2 h 1.46481 1.46482 v -2.17126 -2.17126 l -1.67478,-1.85062 -1.67479,-1.85061 1.63706,-3.43294 1.63705,-3.43293 3.03773,-1.57087 3.03773,-1.57088 v -2.40922 -2.40922 l -0.97525,-2.5651 -0.97525,-2.56509 h -1.72003 -1.72003 l -2.80472,-2.6871 -2.80472,-2.68709 v -1.24648 -1.24649 l -2.68394,-0.31642 -2.68394,-0.31642 -0.73255,-2.76113 -0.73256,-2.76113 1.05794,-7.12788 1.05793,-7.12789 -2.39144,-1.83875 -2.39144,-1.83875 -1.35699,-0.0222 -1.35699,-0.0222 0.52655,-1.37216 0.52654,-1.37215 0.69399,-4.62785 0.69399,-4.62784 h 1.38645 1.38646 v -2.56673 -2.56672 l -2.56336,-3.36074 -2.56337,-3.36074 2.7125,-0.32254 2.71251,-0.32253 0.69543,-1.5 0.69544,-1.5 1.20296,-2.31255 1.20296,-2.31255 -0.65027,-2.04883 -0.65028,-2.04883 -4.01607,0.64219 -4.01608,0.6422 0.61881,-1.61261 0.61882,-1.6126 v -1.39253 -1.39253 l 2.95034,-1.52568 2.95034,-1.52568 h 6.95604 6.95604 l -0.49179,1.88062 -0.4918,1.88062 3.83542,0.70845 3.83541,0.70845 6.59578,0.28682 6.59577,0.28683 2.65423,1.73911 2.65422,1.73912 v 1.21067 1.21068 l 2.31445,2.17431 2.31445,2.17432 h 1.10222 1.10221 l 0.36009,-1.08028 0.3601,-1.08028 2.71918,1.23894 2.71917,1.23894 2.00407,-1.81365 2.00406,-1.81365 v -1.452 -1.452 l 1.75,0.73069 1.75,0.7307 3,0.67139 3,0.67138 0.079,2.45491 0.079,2.45491 0.17104,3.24246 0.17105,3.24247 4.75,-0.24247 4.75,-0.24246 0.95486,3.24311 0.95486,3.24312 3.54514,0.55126 3.54514,0.55125 4,1.05232 4,1.05233 1.46776,0.74195 1.46777,0.74196 1.58452,2.85888 1.58453,2.85888 -0.32866,3.55247 -0.32866,3.55247 0.58764,4.25 0.58764,4.25 h 1.89168 1.89167 l 2.57103,1.17143 2.57103,1.17144 0.57544,2.29273 0.57544,2.29273 1.91147,0.60667 1.91148,0.60668 1.96407,4.06516 1.96407,4.06517 -0.53398,0.86399 -0.53398,0.864 h -2.4153 -2.4153 l -1.4233,2.75236 -1.4233,2.75236 -1.91588,1.73384 -1.91587,1.73384 -5.17688,-0.11663 -5.17689,-0.11664 -1.28653,1.06773 -1.28653,1.06773 -7.08745,1.61201 -7.08745,1.612 -2.12907,1.98354 -2.12908,1.98353 -0.63437,3.96716 -0.63438,3.96717 h -3.24974 -3.24975 l -1.24489,-1.5 -1.24489,-1.5 h -1.26406 -1.26405 l -0.6135,3 -0.6135,3 -0.6135,3 -0.6135,3 h -1.8865 -1.8865 v 2.60564 2.60564 l 2.5,2.97108 2.5,2.97109 v 1.86425 1.86426 l -1.19316,0.73741 -1.19316,0.73742 -11.31209,0.16773 -11.3121,0.16774 -1.11719,-1.34613 -1.11719,-1.34613 h -1.38417 -1.38417 l -2.17372,2.5 -2.17372,2.5 h -0.84111 -0.8411 z"
     id="path18" />
  <path
     style="fill:#a185c9"
     d="m 311.16179,441.85091 -1.62729,-1.62729 -7.33699,-0.51262 -7.33699,-0.51262 -0.60179,-0.92929 -0.60178,-0.92929 -6.1393,-0.22188 -6.1393,-0.22188 -1.20891,-1.20891 -1.20892,-1.20892 -4.55,0.001 -4.55,10e-4 -2.90554,2.49878 -2.90554,2.49878 h -0.83192 -0.83191 l -2.57334,-4.07643 -2.57333,-4.07642 -3.40709,-1.42358 -3.40709,-1.42357 h -1.94403 -1.94402 l 0.1619,-4.66483 0.16191,-4.66482 -3.35845,-0.89187 -3.35844,-0.89187 -0.53559,-2.04808 -0.53558,-2.04808 -3.79562,0.60694 -3.79561,0.60694 -0.61937,-1.00216 -0.61937,-1.00217 h -2.81854 -2.81854 l -1.28179,1.54446 -1.28178,1.54446 -3.09066,-0.64262 -3.09066,-0.64262 -2.21104,-1.39936 -2.21103,-1.39936 0.36238,-6.25248 0.36238,-6.25248 0.70035,-2.19288 0.70035,-2.19288 2.8983,-0.63658 2.89831,-0.63657 v -1.34382 -1.34382 l -2.60579,-3.0968 -2.60578,-3.0968 1.19609,-1.4412 1.19609,-1.4412 2.15969,-0.66992 2.1597,-0.66992 2.90785,-2.0493 2.90785,-2.04929 2.45037,-0.10727 2.45037,-0.10727 1.14178,-1.52421 1.14178,-1.52421 1.77268,-0.66535 1.77268,-0.66535 0.62617,-1.63177 0.62617,-1.63177 2.22819,-2.40426 2.22819,-2.40425 6.77055,0.95883 6.77055,0.95883 2.61095,-0.5222 2.61096,-0.52219 2.39446,2.07671 2.39447,2.07671 h 1.692 1.692 l 1.65499,-1.82874 1.65499,-1.82874 v -2.737 -2.737 l 1.0609,-1.98232 1.06091,-1.98231 2.18909,0.66633 2.1891,0.66634 1.73867,1.52646 1.73868,1.52645 -0.59887,3.74508 -0.59886,3.74507 2.11019,2.11019 2.11019,2.11019 h 1.39301 1.39301 l 0.57561,1.5 0.5756,1.5 h 3.8731 3.87309 l 1.18493,3.95493 1.18493,3.95494 2.56225,3.04506 2.56226,3.04507 h 2.9111 2.91111 v 1 1 h 2 2 l 1.83775,1.75 1.83775,1.75 1.91225,1.10085 1.91225,1.10085 0.31336,3.14915 0.31336,3.14915 h 0.77692 0.77693 l 1.32483,5.75 1.32484,5.75 1.33488,1.57874 1.33488,1.57874 v 2.12157 2.12157 l 1.61366,0.90305 1.61366,0.90305 -1.11366,2.0809 -1.11366,2.0809 v 2.59074 2.59074 l 3.25,0.6515 3.25,0.65151 -2.98003,0.79853 -2.98002,0.79853 -3.69697,-0.59117 -3.69697,-0.59117 -3.1515,1.36614 -3.15149,1.36613 -1.37049,3.25 -1.37048,3.25 h -1.33674 -1.33674 z"
     id="path16" />
  <path
     style="fill:#7498cc"
     d="m 344.32379,398.99127 v -0.88337 l -2.00662,-0.52475 -2.00662,-0.52474 -0.61838,-3.09189 -0.61838,-3.09189 h -0.875 -0.875 v -1 -1 h 2 2 v -2.02144 -2.02143 l 2.75,-1.2169 2.75,-1.2169 1.25,-1.19023 1.25,-1.19024 v -1.52174 -1.52174 l -1.60358,-0.8974 -1.60357,-0.89741 1.31572,-2.1068 1.31572,-2.10681 -0.52474,-0.52474 -0.52475,-0.52475 -5.2945,-0.41355 -5.29451,-0.41356 -1.48049,-1.48048 -1.48049,-1.48049 1.28965,-2.06506 1.28965,-2.06505 -1.75316,-5.56164 -1.75315,-5.56164 h -1.86557 -1.86556 l -0.38496,-1.15488 -0.38496,-1.15488 -6.86796,-0.82682 -6.86796,-0.82682 -1.23476,1.02476 -1.23476,1.02476 -2.84566,-0.69703 -2.84565,-0.69703 -0.70754,-1.08635 -0.70755,-1.08635 1.3923,-2.12492 1.39231,-2.12492 -1.0274,-1.0274 -1.0274,-1.0274 1.25636,-2.35736 1.25636,-2.35736 -1.73993,1.4357 -1.73994,1.4357 -0.91328,-1.4357 -0.91328,-1.4357 0.45811,-1.25 0.45811,-1.25 h -1.99336 -1.99337 l -0.9824,-2.58391 -0.98241,-2.58392 0.56617,-0.91608 0.56618,-0.91609 1.19098,-0.0124 1.19098,-0.0124 2.37931,-3.67086 2.3793,-3.67085 -1.13169,-1.56677 -1.13169,-1.56677 -0.9356,-2.15198 -0.93559,-2.15198 -3.31202,-1.00803 -3.31202,-1.00803 -1.5,-0.0913 -1.5,-0.0913 -3.5,-0.56956 -3.5,-0.56955 -4,0.9875 -4,0.98751 -3.27058,1.01947 -3.27058,1.01948 -1.92964,-2.07123 -1.92965,-2.07124 -0.62778,-2.85828 -0.62779,-2.85828 1.4963,-1.4963 1.49629,-1.49629 0.70887,-3.22747 0.70887,-3.22746 1.12285,-1.99415 1.12284,-1.99416 1.25,-1.3601 1.25,-1.36009 v -1.81194 -1.81194 l 2,-0.52302 2,-0.52301 v -1.59362 -1.59362 h -0.92054 -0.92055 l -0.62821,-2.86021 -0.6282,-2.86021 2.16765,-3.67389 2.16765,-3.6739 3.97735,-1.92164 3.97734,-1.92165 2.90376,0.58075 2.90375,0.58075 v -1.01659 -1.01659 l 2.7108,-0.68037 2.7108,-0.68036 1.23786,1.69288 1.23787,1.69288 3.47998,-0.65285 3.47998,-0.65285 2.29782,-1.86066 2.29782,-1.86066 -1.40626,-2.62762 -1.40626,-2.62762 1.3265,-1.22979 1.3265,-1.2298 -0.70572,1.25 -0.70572,1.25 h 1.00932 1.00933 l 0.84827,-1.51577 0.84827,-1.51576 8.19952,-0.63231 8.19953,-0.6323 2.48773,2.68432 2.48774,2.68431 -1.23584,2.09441 -1.23584,2.09441 1.21094,0.43966 1.21094,0.43966 -0.59592,2.9796 -0.59592,2.97961 2.11555,1.97093 2.11555,1.97094 0.48908,0.0103 0.48908,0.0102 6.63008,6.46889 6.63009,6.46889 h -1.19625 -1.19625 l 0.34652,5.00063 0.34651,5.00062 -0.65102,-6.2e-4 -0.65102,-6.3e-4 0.0992,3.5 0.0992,3.5 h 1.86391 1.86392 l 5.18789,1.57752 5.1879,1.57752 2.82052,1.52067 2.82051,1.52068 1.92949,-0.50458 1.92948,-0.50457 v 0.90638 0.90638 h 1.3709 1.37089 l -0.88643,4.74483 -0.88643,4.74482 0.90938,0.30312 0.90938,0.30313 -0.55613,2.20205 -0.55613,2.20205 -0.95448,0.63119 -0.95448,0.63118 1.21742,3.68883 1.21743,3.68883 1.39934,0.53697 1.39934,0.53698 v 1.39301 1.39301 h 1.43261 1.43262 l 0.63477,2 0.63478,2 h 1.87359 1.8736 l 0.61803,1 0.61804,1 h 1.94098 1.94098 v 1.11658 1.11658 l 2.5,-0.47791 2.5,-0.4779 v 1.36133 1.36132 h 3.3 3.3 l 1.18333,-1.18333 1.18334,-1.18333 0.63676,0.63676 0.63676,0.63676 -0.61592,2.45404 -0.61593,2.45405 -1.88547,-0.49307 -1.88548,-0.49306 -1.86869,1.95024 -1.8687,1.95023 -5.69595,3.13536 -5.69595,3.13535 h -2.05405 -2.05405 v 1.53139 1.53138 l -1.75,0.62062 -1.75,0.62061 -1.76126,1.51318 -1.76126,1.51318 2.06208,1.92113 2.06208,1.92112 -1.14112,1.37497 -1.14113,1.37497 -2.08288,0.66108 -2.08289,0.66108 -1.37481,1.12765 -1.37482,1.12764 -1.87541,1.85636 -1.8754,1.85635 -1.18372,-0.73158 -1.18373,-0.73159 0.65716,2.07054 0.65717,2.07053 -3.80003,0.71092 -3.80003,0.71092 -1.2182,1.59378 -1.21819,1.59377 -0.0318,3.05 -0.0318,3.05 1.18333,1.18334 1.18334,1.18333 -0.60734,0.60734 -0.60734,0.60733 -5.32599,1.17743 -5.326,1.17742 -0.31642,2.73191 -0.31642,2.7319 h -1.43358 -1.43358 z"
     id="path14" />
  <path
     style="fill:#a285c9"
     d="m 438.44129,288.16183 -2.26992,-3.25 -1.04818,-0.72291 -1.04818,-0.7229 -3,0.0542 -3,0.0542 -4.5,-0.66749 -4.5,-0.6675 -2.30471,2.17611 -2.30471,2.17611 -1.94529,-2.24294 -1.94529,-2.24293 v -0.98675 -0.98675 l -1.75,-1.42306 -1.75,-1.42307 1.25,-0.52051 1.25,-0.52051 v -1.64479 -1.64478 l -4.12638,-3.77188 -4.12638,-3.77189 h -1.38341 -1.3834 l -1.71513,-2.00311 -1.71512,-2.00312 -3.08922,0.57954 -3.08922,0.57954 -1.30831,-1.57642 -1.30832,-1.57643 h -3.20857 -3.20858 l -1.33796,-2.5 -1.33796,-2.5 h -0.7374 -0.7374 l 0.52301,-2 0.52301,-2 h -2.18401 -2.18402 l 0.68567,-2.25 0.68566,-2.25 1.38172,-1.57874 1.38172,-1.57874 v -1.60171 -1.6017 l -2.25,-0.31955 -2.25,-0.31956 -0.33877,-2.9816 -0.33877,-2.9816 -4.16123,-3.75428 -4.16123,-3.75428 -1.60398,-0.0141 -1.60397,-0.0141 -2.39603,-2.38062 -2.39602,-2.38063 -1.79668,-2.61937 -1.79669,-2.61938 h -1.54693 -1.54694 l -0.52301,2 -0.52301,2 -2.13337,0.0318 -2.13337,0.0318 -1.83125,1.38785 -1.83125,1.38786 -3.06542,-1.06861 -3.06541,-1.06861 -1.83976,1.14895 -1.83977,1.14895 h -0.51357 -0.51357 v -2 -2 h -1.38337 -1.38337 l -0.52301,-2 -0.52301,-2 h -1.59362 -1.59362 v 1 1 h -1.5 -1.5 v -1.5 -1.5 h -3.4349 -3.4349 l -2.562,0.97408 -2.56201,0.97407 -1.2105,4.52593 -1.2105,4.52592 h -0.71099 -0.711 l -4.08018,-3.92023 -4.08017,-3.92023 -2.99484,-0.65778 -2.99485,-0.65777 -1.50658,1.50658 -1.50658,1.50658 v 2.51241 2.51241 l -0.95932,0.59289 -0.95932,0.5929 -2.04068,-1.27442 -2.04068,-1.27443 v -1.25945 -1.25946 h -1.42371 -1.42371 l -5.19421,1.19897 -5.19422,1.19897 -1.24232,-1.69897 -1.24231,-1.69897 h -3.43976 -3.43976 l -0.95,-0.94271 -0.95,-0.94272 -5.397,-0.30728 -5.39701,-0.30729 -1.05072,-1.67524 -1.05073,-1.67524 1.87443,-3.48061 1.87443,-3.4806 -1.70643,-2.60434 -1.70643,-2.60435 1.02973,-1.92406 1.02973,-1.92407 v -2.36574 -2.36575 l -1.11353,-1.11352 -1.11353,-1.11353 2.63047,-5.56036 2.63047,-5.56035 1.91732,-1.02612 1.91732,-1.02612 h 2.4433 2.44329 l 1.13172,1.36364 1.13172,1.36364 4.24073,0.005 4.24072,0.005 2.42132,-1.89701 2.42132,-1.89702 1.02868,1.02868 1.02868,1.02868 h 2.17756 2.17755 l 1.15521,-1.39193 1.1552,-1.39194 1.88992,-0.49422 1.88992,-0.49423 -0.17268,2.57262 -0.17268,2.57261 3.27324,0.96487 3.27324,0.96488 3.90232,-1.16917 3.90232,-1.16916 1.65481,-4.98216 1.65481,-4.98217 h 1.91963 1.91963 v -1.34501 -1.34501 l 1.82874,-1.65499 1.82874,-1.65499 h 2.61225 2.61224 l 0.67354,1.08981 0.67353,1.08981 3.38548,-0.63512 3.38548,-0.63512 v 0.98021 0.98022 l -0.96179,2.52969 -0.96179,2.5297 0.96179,0.59442 0.96179,0.59442 v 1.76065 1.76064 l 2.50761,2.18034 2.5076,2.18033 h 1.06433 1.06432 l 4.56383,-2.67458 4.56383,-2.67458 1.36596,1.86807 1.36597,1.86806 -2.50173,2.61124 -2.50172,2.61123 v 2.20376 2.20375 l 2.06091,-1.25847 2.0609,-1.25848 1.29934,1.75 1.29934,1.75 h 4.13975 4.13976 v 5.5 5.5 h 1.05637 1.05637 l 2.96741,3.25 2.96741,3.25 h 7.18643 7.18644 l 1.03978,-2 1.03979,-2 3.96092,-0.13276 3.96093,-0.13277 0.37918,-1.13754 0.37918,-1.13755 1.98248,2.52031 1.98247,2.52031 h 1.42742 1.42742 v -1.04531 -1.04531 l 3.60951,0.67715 3.6095,0.67714 0.87518,-1.38183 0.87519,-1.38184 0.0153,-2.75 0.0153,-2.75 h -1.16666 -1.16667 l 0.62443,-0.62443 0.62443,-0.62443 3.23427,2.72146 3.23427,2.72146 0.77574,-2.09703 0.77574,-2.09703 1.78223,0.0137 1.78222,0.0137 2.0967,0.56289 2.09669,0.56289 -0.39227,2.17346 -0.39228,2.17345 0.79558,6.92948 0.79558,6.92948 2.55738,0.68252 2.55737,0.68253 6.19043,4.70785 6.19042,4.70786 -0.9978,1.8644 -0.9978,1.8644 v 2.06574 2.06574 h -1 -1 v 2 2 h 3.5 3.5 v 0.96105 0.96104 l 2.18856,2.03896 2.18857,2.03895 h 2.11143 2.11144 l 1.2,1.2 1.2,1.2 v 2.81243 2.81242 l 5.45197,3.48758 5.45196,3.48757 0.79804,3e-5 0.79803,3e-5 2.75,3.44655 2.75,3.44654 v 0.77908 0.77908 l -4.24547,3.76647 -4.24546,3.76647 1.1427,1.82976 1.14271,1.82976 -0.51501,4.56914 -0.51501,4.56914 -3.63223,0.58078 -3.63223,0.58077 -2.25,-0.58843 -2.25,-0.58843 v 1.5 1.5 l -2.25,0.60298 -2.25,0.60298 -0.6819,0.0137 -0.68191,0.0136 z"
     id="path12" />
  <path
     style="fill:#7acc8c"
     d="m 158.1026,247.13477 -1.75,-2.34052 -0.0703,-2.81189 -0.0703,-2.8119 -0.79376,-2 -0.79376,-2 1.45393,-4.5 1.45394,-4.5 -0.10578,-2.75 -0.10577,-2.75 h 0.9485 0.94849 l 0.64576,-2.03459 0.64575,-2.03459 -2.097,-3.55415 -2.097,-3.55416 2.01863,-0.52788 2.01864,-0.52789 v -1.31598 -1.31598 l -2.07344,-0.65808 -2.07344,-0.65809 -1.39476,1.8407 -1.39475,1.84069 -0.0318,0.75 -0.0318,0.75 h -2.81194 -2.81194 l -2.18806,-2.9595 -2.18806,-2.95951 v -1.45871 -1.4587 l 0.60699,-1.58179 0.60699,-1.58179 1.14301,-0.0258 1.14301,-0.0258 1.75,-3.80182 1.75,-3.80181 v -0.60284 -0.60283 l -2.25,-0.31956 -2.25,-0.31955 V 186.7 185.22953 l 2,-1.02981 2,-1.02981 1.31514,-0.849 1.31515,-0.849 -1.70316,-1.88197 -1.70315,-1.88196 1.19558,-1.44059 1.19558,-1.44058 3.93719,-0.66519 3.93719,-0.66518 0.56426,-0.91299 0.56425,-0.91299 h 2.49585 2.49585 l 4.38757,-1.99877 4.38757,-1.99876 1.55756,-2.22374 1.55757,-2.22374 v -1.77749 -1.7775 h -1.5 -1.5 v -1.27776 -1.27775 l 2.02772,-1.73619 2.02772,-1.73619 -1.17112,-2.18825 -1.17112,-2.18826 1.1434,-0.38113 1.1434,-0.38113 v -1.80968 -1.80968 l -1.56895,-0.60206 -1.56895,-0.60206 0.60097,-1.8935 0.60097,-1.89349 -1.91693,-3.36144 -1.91693,-3.36143 -0.51991,-4.24981 -0.51991,-4.2498 0.90482,-0.55921 0.90482,-0.55921 v -1.94098 -1.94099 h 0.95031 0.95031 l 0.79969,1.30873 0.79969,1.30872 3.10381,1.25204 3.10381,1.25205 2.85553,-0.31077 2.85553,-0.31077 -0.28581,4.25 -0.28581,4.25 h 1.00908 1.00908 l 0.63478,2 0.63478,2 h 1.40425 1.40426 l 6.42804,6.5558 6.42804,6.5558 3.80295,-0.3058 3.80295,-0.3058 1.00398,2.7886 1.00398,2.7886 -1.82953,3.39724 -1.82953,3.39724 0.66368,3.31416 0.66367,3.31416 0.0237,1.5 0.0237,1.5 -0.69501,3 -0.69501,3 -1.29152,1.5 -1.29152,1.5 -0.60497,2.5 -0.60498,2.5 2.50548,2.88042 2.50548,2.88042 -0.48616,0.78662 -0.48616,0.78663 1.26351,5.83295 1.26351,5.83296 -0.50576,5.5 -0.50577,5.5 -1.10902,1.87377 -1.10901,1.87377 -8.94127,0.82505 -8.94127,0.82505 -2.78363,1.05834 -2.78363,1.05833 -1.79861,-2.22119 -1.79861,-2.22119 -2.36748,1.08039 -2.36747,1.08039 -0.28241,4.51977 -0.28241,4.51978 2.55076,4.79733 2.55077,4.79733 -3.21452,3.31654 -3.21452,3.31654 h -1.18139 -1.18139 l -1.24489,-1.5 -1.24489,-1.5 h -1.37755 -1.37756 v 1.38922 1.38922 l -1.7749,2.1919 -1.7749,2.19191 -2.69549,-1.22814 -2.69548,-1.22815 -1.27962,1.04943 -1.27961,1.04944 z"
     id="path10" />
  <path
     style="fill:#cc5555"
     d="m 301.36949,152.40607 -2.92937,-1.8142 -0.80786,-1.44356 -0.80786,-1.44357 -2.5847,-0.64872 -2.5847,-0.64871 -3.42807,2.11866 -3.42807,2.11866 v -1.08156 -1.08155 h -1.4171 -1.41709 l -4.58291,-1.96447 -4.5829,-1.96446 v -1.46411 -1.46411 l -1.26438,-1.32143 -1.26439,-1.32142 -3.3014,-4.22697 -3.3014,-4.22696 -2.59197,-1.27304 -2.59198,-1.27303 -1.09224,-1.93155 -1.09224,-1.93155 -2.75,-2.78475 -2.75,-2.78475 v -0.87319 -0.87318 l -2.61908,-1.19334 -2.61907,-1.19333 -12.13093,-1.51438 -12.13092,-1.51438 -5,-1.61072 -5,-1.61072 -8.437,0.15656 -8.437,0.15655 -2.37487,-2.23107 -2.37487,-2.23108 0.67384,-5.017562 0.67384,-5.017563 1.00287,-1.240841 1.00288,-1.240841 -0.63839,-3.259159 -0.63839,-3.259159 0.0583,-3.652521 0.0583,-3.652522 -2.08865,-4.007176 -2.08866,-4.007176 -0.0664,-7.052439 -0.0664,-7.052439 -3.37974,-1.115416 -3.37974,-1.115415 v -3.487066 -3.487067 l 2.05952,-4.685381 2.05952,-4.685382 3.50982,-2.25 3.50982,-2.25 h 0.81565 0.81565 l 1.63806,-2.5 1.63806,-2.5 h 2.97695 2.97695 v -1 -1 h 2.04966 2.04966 l 3.20034,-1.639532 3.20034,-1.639532 0.572,-0.881471 0.57199,-0.881471 6.75872,-0.631139 6.75872,-0.631138 1.50171,-1.501714 1.50171,-1.501714 -0.63594,-3.389858 -0.63594,-3.3898567 0.59028,-1.8597896 0.59027,-1.8597895 3.36437,-1.5964974 3.36437,-1.5964974 h 3.69114 3.69114 l 2.54259,2 2.54259,2 h 0.89736 0.89737 l 0.82419,-2.2280016 0.82419,-2.2280016 1.64358,3.1783417 1.64359,3.1783417 v 2.5496594 2.54966 l 1.75,-0.0046 1.75,-0.0046 3,-2.80851 3,-2.808511 1.88461,-1.0519472 1.88462,-1.0519473 3.11538,0.7824986 3.11539,0.7824986 7,1.1862896 7,1.1862896 2,-0.1212041 2,-0.121204 6.25,-0.4403847 6.25,-0.4403847 v 1.9134766 1.913477 l -2.58716,3.794409 -2.58717,3.794409 0.58951,4.507993 0.5895,4.507992 -2.00234,1.250482 -2.00234,1.250481 v 2.977175 2.977175 l 1.2074,4.514351 1.20741,4.514351 h 1.13431 1.1343 l 1.19552,3.990293 1.19553,3.990293 2.47575,0.621375 2.47575,0.621374 1.24523,-1.033448 1.24523,-1.033449 10.00042,-0.579528 10.00042,-0.579529 1.22262,1.957732 1.22263,1.957732 -2.03073,1.422379 -2.03073,1.422379 0.64545,2.571677 0.64545,2.571677 -2.53657,5.299522 -2.53656,5.299521 -1.37118,1.683705 -1.37118,1.683704 -2.68824,0.674704 -2.68823,0.674703 v 3.341902 3.341902 l -1.63991,0.917739 -1.63991,0.917739 0.71256,5.381951 0.71255,5.381951 -0.15056,6.90061 -0.15057,6.9006 5.95848,-0.62279 5.95848,-0.62278 0.59444,2.97218 0.59444,2.97219 h 1.07843 1.07843 l 3.44654,2.75 3.44654,2.75 3e-5,3.25 3e-5,3.25 -3.25,0.006 -3.25,0.006 -2.86431,1.49384 -2.86431,1.49384 h -2.47724 -2.47725 l 0.60526,6.15634 0.60526,6.15634 -0.61952,4.67013 -0.61951,4.67014 -9.14419,0.0429 -9.14419,0.0429 z"
     id="path8" />
  <path
     style="fill:#ccc156"
     d="m 32.618443,121.44806 -0.595534,-1.55194 0.905212,0.55946 0.905212,0.55945 v -4.62293 -4.62292 l -1.847492,-0.48313 -1.847491,-0.48313 -0.525501,-1.36944 -0.525501,-1.36943 0.935847,-0.57839 0.935848,-0.57838 -1.220068,-1.95364 L 28.518906,103 H 26.759453 25 v -0.89301 -0.89301 l 1.374846,-0.52758 1.374845,-0.52758 0.451962,-3.079409 L 28.653614,94 27.576807,93.936614 26.5,93.873227 l 2.263828,-0.909504 2.263827,-0.909505 -0.222283,-6.423472 -0.222283,-6.423473 1.19151,-1.435681 1.19151,-1.435682 L 31.514858,74.417955 30.063607,72.5 30.031803,70.75 30,69 h 1.940983 1.940983 l 0.74459,-1.204772 0.744591,-1.204773 0.306008,-2.795227 L 35.983164,61 H 34.026766 32.070368 L 30.845339,58.75 29.62031,56.5 29.338626,50.291421 29.056941,44.082842 30.031175,43.480733 31.005409,42.878623 29.853,40.689312 28.700592,38.5 27.600296,37.765313 26.5,37.030626 27.643011,37.015313 28.786022,37 29.392119,35.420537 29.998216,33.841074 29.408892,31.493019 28.819568,29.144965 24.889547,27.572482 20.959527,26 H 18.561551 16.163575 L 14.581787,25.393011 13,24.786022 V 22.82727 20.868517 L 11.842064,18.704894 10.684128,16.541271 9.4134927,15.270636 8.1428571,14 H 6.6211187 5.0993802 L 4.1169399,15.75 3.1344995,17.5 2.5074376,15.87294 1.8803756,14.245881 2.1901878,9.3729403 2.5,4.5 7,3.8659816 11.5,3.2319631 12.45,4.1159816 13.4,5 h 4.183369 4.183368 L 22.321793,7.1225367 22.876849,9.2450735 25.688424,8.704847 28.5,8.1646206 32.191289,7.2008627 35.882578,6.2371048 38.090856,9.1185524 40.299134,12 h 1.315249 1.315249 L 44.04182,9.9218593 45.154007,7.8437186 44.608388,6.4218593 44.06277,5 H 45.031385 46 V 3.6389306 2.2778612 l 4,1.0676611 4,1.0676612 v 1.324793 1.3247931 L 55.75,7.6914894 57.5,8.3202093 59.288955,10.160105 61.07791,12 H 62.538955 64 V 9.1348587 6.2697174 L 66.07258,3.6348587 68.14516,1 H 72.57258 77 V 2.4063804 3.8127608 L 79,3.289749 81,2.7667373 V 1.7609239 0.75511057 L 82.5,2 84,3.2448894 V 4.6224447 6 h 1 1 v 2 2 h 1.8 1.8 L 90.744365,8.8556349 91.88873,7.7112698 94.897107,8.9573802 97.905483,10.20349 100.85711,8.1017452 103.80874,6 h 1.23539 1.23538 l 1.22766,-1.6789158 1.22765,-1.6789158 2.76548,4.1789158 L 114.26577,11 h 1.86152 1.86151 l 5.56333,5.225254 5.56332,5.225255 -0.48439,1.852328 -0.4844,1.852329 2.92667,1.020242 L 134,27.19565 v 1.041933 1.041932 L 132.51347,30.389757 131.02694,31.5 130.38847,34.75 129.75,38 h 2 2 l 0.57589,2.879464 0.5759,2.879465 1.62053,1.620535 L 138.14286,47 h 2.46375 2.46376 l 2.41585,1.582928 2.41585,1.582928 2.13609,-0.677969 2.1361,-0.677969 1.95182,2.095041 L 156.07791,53 h 1.41759 1.41759 l 4.29345,4.09085 4.29346,4.090851 -1.25,0.492483 -1.25,0.492483 V 64.108333 66.05 l -3.07335,0.614671 -3.07336,0.61467 0.57677,2.298013 0.57676,2.298012 -3.75341,-0.563649 -3.75341,-0.563649 -3.3652,-1.54264 -3.36519,-1.542639 -1.63481,0.928112 -1.6348,0.928111 -5,-0.101811 -5,-0.101812 -2.24042,-0.722042 -2.24042,-0.722041 1.74042,3.188161 1.74042,3.188162 -1.49038,0.539647 -1.49039,0.539647 -2.88293,2.88293 -2.88293,2.882929 0.56045,3.453609 0.56044,3.453609 -2.68713,0.01531 -2.68713,0.01531 -1.17728,0.748763 -1.17729,0.748763 -0.32271,3.985924 L 115.5,97.5 l 2.67205,0.308901 2.67206,0.308901 0.65319,3.866238 0.6532,3.86623 -1.07525,2.00912 L 120,109.86852 V 111.93426 114 h -1.40638 -1.40638 l 0.48005,-1.83572 0.48005,-1.83572 -2.66256,-3.16428 L 112.82221,104 h -1.84372 -1.84371 l -0.61173,1.92739 -0.61173,1.92738 -3.51282,2.07262 L 100.88568,112 H 95.94284 91 l -2,2 -2,2 H 85.5 84 v -1 -1 h -2.377555 -2.377556 l -1.154611,1.39122 -1.154612,1.39122 -2.717833,0.52647 -2.717833,0.52647 -4,1.17588 -4,1.17589 -2.476481,0.15642 -2.47648,0.15643 -0.528267,-3 -0.528267,-3 -2.784495,-0.32021 -2.784496,-0.32021 -4.554409,2.20475 -4.554408,2.20475 -2.552371,2.36546 L 37.707955,123 h -2.246989 -2.246988 z"
     id="path6" />
  <path
     style="fill:#a185c9"
     d="m 84.756243,297.87831 -0.437324,-1.32103 -0.367939,-2 -0.36794,-2 -1.208476,0.25596 -1.208475,0.25595 -3.296353,-1.3773 -3.296353,-1.37731 0.407171,-3.48771 0.407171,-3.48771 -2.325706,-0.60819 -2.325705,-0.60818 1.232753,-1.23276 1.232753,-1.23275 v -2.07749 -2.0775 l -1.556704,-2.2225 -1.556704,-2.22251 h -2.083053 -2.083053 l -1.425852,1.75 -1.425851,1.75 0.431499,-2.77387 0.4315,-2.77386 -0.800047,-0.49446 -0.800047,-0.49445 0.531957,-3.27807 0.531957,-3.27806 -1.597801,-1.32606 -1.597801,-1.32606 v -2.31854 -2.31853 l 1,-0.61804 1,-0.61803 v -1.44099 -1.44098 h -1.920544 -1.920545 l -0.704654,-3.20827 -0.704653,-3.20826 1.125198,-0.37507 1.125198,-0.37507 v -1.91666 -1.91667 h -1.932612 -1.932612 l -0.634776,-2 -0.634775,-2 h -2.491629 -2.49163 l 0.573538,-0.928 0.573538,-0.92801 -2.005572,-0.63654 -2.005573,-0.63654 -1.258948,0.7565 -1.258949,0.75651 1.414452,-1.74257 1.414451,-1.74258 -2.192494,-0.57335 -2.192494,-0.57335 0.551643,-1.73807 0.551643,-1.73807 -2.057645,-4.38797 -2.057645,-4.38796 -1.378662,-2.39139 -1.378663,-2.3914 -2.616632,-2.42628 -2.616632,-2.42628 -1.720661,0.32623 -1.720661,0.32622 -0.308255,2.65682 -0.308256,2.65681 -1.619286,0.62138 -1.619286,0.62138 -1.544108,-1.54411 -1.544109,-1.54411 -0.02835,-2.24263 -0.02835,-2.24264 -2.25,-0.31955 -2.25,-0.31955 v -0.93045 -0.93045 h -2 -2 v -0.94987 -0.94986 l 2.96528,-4.39372 2.965279,-4.39371 1.032333,-2.40642 1.032333,-2.40642 1.201935,-1.67812 1.201934,-1.67813 -2.176394,-1.82187 -2.176394,-1.82188 2.07711,-11 2.07711,-11 0.832057,-2 0.832057,-2 0.06768,2.61514 0.06768,2.61514 2.072581,2.63486 2.07258,2.63486 h 1.42742 1.427419 v -1.83948 -1.83949 l 2.547053,-1.16051 2.547053,-1.16052 h 2.952947 2.952947 v -1 -1 h 1.428798 1.428798 l 3.711081,-3.5 3.711081,-3.5 h 0.360121 0.360121 v 4.5 4.5 h 2.8 2.8 l 1.047176,1.04718 1.047176,1.04717 4.902824,0.37321 4.902824,0.37321 2.8151,1.07961 2.8151,1.07962 h 1.819348 1.819349 l -0.07652,-5.07228 -0.07652,-5.07227 1.244857,-0.76937 1.244857,-0.76936 -0.302786,-1.40836 -0.302787,-1.40836 2.75,-0.31642 2.75,-0.31642 v -2.93358 -2.93358 h -1.059017 -1.059017 l 0.680298,-1.10074 0.680297,-1.10075 2.716178,0.54324 2.716179,0.54323 4.096171,-1.20945 4.096173,-1.20946 0.73304,-0.73303 0.73303,-0.73304 h 2.83334 2.83333 v 1.83102 1.83102 l 2.49339,1.33443 2.4934,1.33442 1.52966,2.33456 1.52966,2.33455 h -1.13969 -1.13968 l 0.52301,2 0.52301,2 h -0.90638 -0.90638 v 1.32569 1.32568 l -2.31445,2.17432 -2.31445,2.17431 h -0.54567 -0.54567 l -3.63866,3.4317 -3.638668,3.4317 -1.001217,2.6334 -1.001217,2.6334 v 0.88959 0.88959 l 3.750002,0.67197 3.75,0.67197 1.5,1.14664 1.5,1.14663 3.74971,-0.0233 3.7497,-0.0233 3e-4,0.75 2.9e-4,0.75 h 1.34501 1.34502 l 1.78863,1.97642 1.78863,1.97642 0.91016,-0.56251 0.91016,-0.56251 1.44346,1.19797 1.44346,1.19796 1.268,-0.48657 1.268,-0.48658 1.07085,1.14635 1.07085,1.14635 -0.448,1.34401 -0.448,1.344 1.2289,0.7595 1.22889,0.7595 -0.61389,1.93423 -0.6139,1.93422 -2.74312,0.96505 -2.74311,0.96505 -0.0345,7.47557 -0.0345,7.47557 -2.21545,4.87712 -2.21545,4.87712 v 4.22908 4.22908 l 3.32299,4.3938 3.32299,4.3938 1.9176,3.29229 1.9176,3.29229 -1.49059,0.9424 -1.49059,0.9424 -2.5,0.1038 -2.5,0.10381 -5,0.17542 -5,0.17542 -2.75,2.41642 -2.75,2.41642 v 1.81967 1.81966 h 0.77643 0.77642 l -0.38146,4 -0.38146,4 h 1.07365 1.07365 l -0.63109,1.64461 -0.6311,1.64461 1.81598,1.32787 1.81597,1.32788 -1.65349,0.6345 -1.6535,0.63451 v 2.31356 2.31355 l -3.00873,0.66083 -3.00872,0.66083 0.60934,0.98593 0.60934,0.98594 -2.11155,0.55218 -2.11156,0.55219 -0.48906,2.3805 -0.48906,2.38051 -0.474157,2.25 -0.474155,2.25 -2.392194,2.75 -2.392194,2.75 h -1.72928 -1.729281 l -2.908497,2.07103 -2.908497,2.07104 z"
     id="path4" />
  <path
     style="fill:#7acc8c"
     d="m 9.2051504,464.532 -2.009198,-2.89772 0.1643158,-2.5 0.1643158,-2.5 0.7834762,-1.76274 0.7834762,-1.76273 -1.0206107,-1.23727 -1.0206107,-1.23726 0.5562305,-10.82607 0.5562305,-10.82607 1.4951377,-1.49513 1.4951373,-1.49514 -1.3135271,-5.4754 -1.3135275,-5.4754 -0.864551,-0.53432 -0.864551,-0.53432 3.5354456,-3.63992 3.535445,-3.63992 v -3.20657 -3.20658 l 2.598939,-2.04433 2.598938,-2.04432 0.877205,-3.77826 0.877205,-3.77825 0.02386,-3.26357 0.02386,-3.26357 1.157821,-1.85397 1.15782,-1.85396 -0.801329,-1.88247 -0.80133,-1.88246 0.218507,-2.74648 0.218506,-2.74648 -1.574998,-3.15716 -1.574997,-3.15716 v -6.27827 -6.27826 l -3.069439,-2.18564 -3.069439,-2.18563 -0.896769,-2.35868 -0.896768,-2.35868 -3.7837924,-1.77521 -3.7837925,-1.77521 -0.3133585,-3.24857 -0.3133585,-3.24857 2.8133585,-0.0318 2.8133585,-0.0318 1.8556639,-1.4057 1.855664,-1.4057 -0.639441,-4.8125 -0.639441,-4.81249 -0.55993,-9.75 -0.5599306,-9.75 h 3.5937076 3.593707 v 0.92667 0.92668 l 1.683384,0.32419 1.683384,0.32419 2.071125,3.99913 2.071125,3.99914 2.304563,0.32729 2.304563,0.32729 2.577291,-2.57729 2.577292,-2.57729 h 3.80462 3.804619 l 0.618034,1 0.618034,1 h 4.990643 4.990643 l 2.70034,1.38572 2.70034,1.38573 6.193851,-0.11279 6.193851,-0.11279 2.618972,2.4604 2.618972,2.46039 h 5.937177 5.937177 v 0.78024 0.78024 l -1.155426,2.23643 -1.155426,2.23643 -0.695436,1.5 -0.695436,1.5 -2.649138,0.31642 -2.649138,0.31642 v 1.03968 1.03967 l 3.174423,4.00803 3.174423,4.00804 -2.057735,1.63587 -2.057735,1.63587 -0.636912,6 -0.636912,6 2.930089,1.29392 2.930089,1.29392 0.444477,1.20608 0.444478,1.20608 -1.331794,6.44735 -1.331795,6.44736 0.785242,3.05264 0.785241,3.05265 2.69221,0.31642 2.692211,0.31642 v 0.81492 0.81492 l 3.189838,3.11866 3.189838,3.11866 h 1.703173 1.703179 l 0.60699,1.58178 0.60699,1.58179 v 2.44297 2.44296 l -2.447709,0.93061 -2.447701,0.93062 -1.433332,2.29463 -1.433331,2.29464 -0.622638,2.68871 -0.622638,2.68872 0.998293,0.61698 0.998293,0.61697 1.045619,1.95376 1.04562,1.95376 -2.540242,0.9658 -2.540242,0.9658 v 1.02475 1.02475 H 90.481336 89.09488 l -0.648782,4.32638 -0.648781,4.32639 0.603411,1.57246 0.603411,1.57247 -1.068173,0.66016 -1.068174,0.66017 v 4.44098 4.44099 h -1.545313 -1.545313 l 0.626916,3.34175 0.626917,3.34175 -5.235846,2.2524 -5.235846,2.2524 -2.83482,-0.56696 -2.834819,-0.56697 -1.510938,0.5798 -1.510938,0.5798 v 1.39302 1.39301 h 1.069551 1.069551 l -0.319551,2.25 -0.319551,2.25 -2.602812,0.30222 -2.602813,0.30222 -1.28662,5.36323 -1.28662,5.36323 0.64194,1.67287 0.64194,1.67287 -4.252508,-0.70367 -4.252507,-0.70368 -0.90174,-0.53744 -0.901741,-0.53745 -3.098259,-0.30366 -3.09826,-0.30365 -4.369959,-0.66002 -4.369959,-0.66002 0.605871,-4.42032 0.605872,-4.42031 -1.594074,-0.61171 -1.594075,-0.6117 -2.904125,3.10741 -2.904125,3.1074 -3.237713,1.48245 -3.237713,1.48245 -4.301625,1.11108 -4.301625,1.11109 -0.775093,2.09527 -0.775094,2.09528 z"
     id="path2" />
  <path
     style="fill:#7599cd;fill-opacity:1"
     d="m 44.880413,603.10479 v -1.18174 l -1.738517,0.33481 -1.738516,0.33481 -1.761484,-1.76148 -1.761483,-1.76149 v -0.93872 -0.93873 l -4.43271,-0.66473 -4.43271,-0.66472 -0.542686,-1.41422 -0.542685,-1.41422 1.620357,-3.39792 1.620357,-3.39793 -2.08784,-4.00561 -2.08784,-4.0056 1.076922,-3.3288 1.076922,-3.3288 0.865956,-1.73643 0.865957,-1.73643 v -1.49452 -1.49451 l -2.75,-0.60258 -2.75,-0.60257 -1.258652,-0.38842 -1.258652,-0.38841 -1.13188,-2.77806 -1.13188,-2.77807 -1.359468,-3.15113 -1.359468,-3.15113 v -0.6703 -0.67029 L 16.451841,548.49827 15.02327,547.0697 H 12.510858 9.9984466 l -0.618034,-1 -0.618034,-1 h -2.940983 -2.940983 l 0.00659,-1.25 0.00659,-1.25 1.9868216,-3 1.9868216,-3 0.00659,-1.59501 0.00659,-1.59501 1.983831,-1.79535 1.9838314,-1.79534 5.937631,0.53841 5.937631,0.5384 2.084037,-2.21835 2.084038,-2.21836 -0.654942,-4.77832 -0.654941,-4.77831 1.399442,-0.88607 1.399442,-0.88606 2.678571,-0.0153 2.678571,-0.0153 1.5,-1.5 1.5,-1.5 h 1.004041 1.004041 l 0.605455,-1.90762 0.605455,-1.90762 1.461933,-0.56099 1.461933,-0.561 0,-1.62109 v -1.62109 l 2.25,-1.87703 2.25,-1.87702 1.271438,-0.0333 1.271439,-0.0333 0.909824,-2.25 0.909824,-2.25 1.69038,-4.71277 1.690379,-4.71278 3.007921,1.55546 3.00792,1.55545 3.870437,-0.3691 3.870438,-0.36911 v 1.21741 1.21741 l 1.01862,0.62954 1.01862,0.62954 1.279134,-2.82052 1.279134,-2.82053 1.952246,-3.24368 1.952246,-3.24367 1.25,-0.006 1.25,-0.006 v -2.44098 -2.44098 l 0.955879,-0.59077 0.955879,-0.59077 2.573651,2.23776 2.573651,2.23777 1.334062,2.54398 1.334063,2.54399 1.630246,3 1.630247,3 0.0062,2.84362 0.0062,2.84362 1.930803,0.50492 1.930803,0.50491 -0.537792,1.40147 -0.537792,1.40146 h 2.606989 2.606986 v 1 1 h 1.53139 1.53138 l 0.605,1.57661 0.605,1.5766 2.49559,0.94882 2.4956,0.94883 -1.76387,1.94905 -1.76387,1.94905 1.25321,3.02552 1.25321,3.02552 1.12868,0.11842 1.12868,0.11842 1,-0.18985 1,-0.18984 -1.25,1.27142 -1.25,1.27143 v 3.67756 3.67755 l 1.45756,1.20967 1.45755,1.20966 -0.58255,2.91278 -0.58256,2.91278 h 0.9242 0.9242 l -0.4086,3.5 -0.40861,3.5 h 1.57422 1.57423 l 1.10492,-2.06456 1.10492,-2.06457 1.48486,1.23232 1.48486,1.23232 1.03804,1.93961 1.03804,1.9396 -1.09264,1.09264 -1.09264,1.09264 v 1.68337 l 0,1.68337 2,0.52301 2,0.52301 v 1.98663 1.98663 l -1.42788,0.54793 -1.42787,0.54793 -0.32213,2.78589 -0.32212,2.78589 -2.00833,1.02317 -2.00833,1.02317 -2.41913,1.71845 -2.41914,1.71845 1.12108,3.6528 1.12107,3.65279 -1.58966,2.42613 -1.58966,2.42614 -3.08928,-0.67852 -3.08928,-0.67852 -2.18424,-1.43117 -2.18423,-1.43116 -1.33043,0.23531 -1.330437,0.23531 -2.720387,-1.32002 -2.720386,-1.32003 -1.279614,0.95318 -1.279613,0.95318 -4.130782,-0.21318 -4.130782,-0.21318 -1.028541,2.15702 -1.02854,2.15702 -0.629899,1.5 -0.629899,1.5 -1.351254,2.3468 -1.351254,2.34681 1.372905,2.64627 1.372904,2.64628 -1.732429,0.68663 -1.732429,0.68664 -1.842271,0.0703 -1.842271,0.0703 -2.542588,2 -2.542588,2 h -1.865141 -1.865141 v 2.4433 2.44329 l -2.222507,1.55671 -2.222506,1.5567 h -0.660862 -0.660863 l -0.523011,-2 -0.523012,-2 h -2.54393 -2.543929 l -0.79969,1.42038 -0.79969,1.42038 -2.75,0.68803 -2.75,0.68803 z"
     id="path1" />
  <path
     style="fill:#7498cc"
     d="m 133.33797,522.98533 v -1.85078 l 1.08095,-3.10081 1.08094,-3.10081 -1.13795,-5.48148 -1.13795,-5.48147 -3.01056,-0.66124 -3.01057,-0.66123 -0.58031,-1.6557 -0.58032,-1.6557 -2.60212,-3.5 -2.60211,-3.5 0.0762,-6.5 0.0762,-6.5 1.37652,-4.23556 1.37652,-4.23556 -1.82205,-5.06696 -1.82205,-5.06695 1.78846,-1.30776 1.78847,-1.30775 -0.0627,-3.38973 -0.0626,-3.38973 -2.1787,-8.5 -2.17869,-8.5 -0.55769,-5.32305 -0.5577,-5.32304 1.08274,-2.17696 1.08274,-2.17695 1.04157,-4 1.04157,-4 0.006,-3.29966 0.006,-3.29966 1.36079,-2.70034 1.3608,-2.70034 1.57906,-7 1.57907,-7 0.50044,-3 0.50045,-3 -1.12809,-3.21376 -1.12809,-3.21377 1.88817,-2.0864 1.88817,-2.08641 -1.61537,-3.19983 -1.61537,-3.19983 -0.52076,-4.5 -0.52076,-4.5 1.2864,-1.73689 1.2864,-1.73689 -0.48372,-7.53734 -0.48372,-7.53734 1.53443,-1.72577 1.53442,-1.72577 1.27392,-4.30672 1.27392,-4.30672 3.07472,-2.16938 3.07472,-2.16937 4.38586,-4.29763 4.38585,-4.29762 2.95674,-1.72628 2.95674,-1.72628 -0.56364,-4.17835 -0.56365,-4.17835 4.72105,-1.66766 4.72105,-1.66766 2.22241,-0.86999 2.22241,-0.86998 0.67802,-2.78401 0.67802,-2.784 3.02864,-3.5 3.02864,-3.5 2.93574,-1.25 2.93574,-1.25 h 1.53168 1.53169 l 5.32204,-3.53258 5.32204,-3.53257 0.78146,-1.29481 0.78147,-1.29482 4.5,-2.29756 4.5,-2.29757 1.5,-0.72689 1.5,-0.72689 0.31399,-4.281 0.31398,-4.281 1.55103,-2.36716 1.55102,-2.36715 h 2.38499 2.38499 v 1.46481 1.46482 l 1.93227,1.03412 1.93228,1.03412 0.66201,2.08581 0.66201,2.0858 2.4895,-0.62482 2.4895,-0.62483 -0.70173,1.13544 -0.70174,1.13543 1.28693,2.40465 1.28693,2.40465 h 1.28133 1.28133 l 0.91801,1.64039 0.91801,1.6404 1.13168,-0.69941 1.13168,-0.69942 v -1.51241 -1.51241 l 1.36916,-1.36917 1.36917,-1.36916 1.97753,0.51713 1.97753,0.51714 -0.4362,2.28184 -0.43621,2.28185 2.10483,4.62038 2.10483,4.62038 4.48468,-0.61469 4.48468,-0.61469 v 2.13592 2.13593 h -1 -1 v -1 -1 h -1.5 -1.5 v 2.39301 2.39301 l -1.5,0.5756 -1.5,0.57561 v 1.83138 1.83139 l 1.2,1.2 1.2,1.2 h -1.7 -1.7 v 1.39159 1.39159 l -2.5,0.62746 -2.5,0.62746 v 0.82794 0.82794 l -1.99768,2.30334 -1.99768,2.30334 1.05483,1.27099 1.05483,1.271 -1.91657,-0.5012 -1.91657,-0.50119 -0.65862,4.11876 -0.65862,4.11877 -2.11628,0.78286 -2.11629,0.78287 2.88432,2.27776 2.88433,2.27776 -2.36272,-0.34952 -2.36271,-0.34952 -2.13729,4.22216 -2.13728,4.22216 -1.25,0.0278 -1.25,0.0278 v 1 1 h -1.33102 -1.33102 l -1.02711,2.25 -1.02711,2.25 -1.47837,4.5 -1.47838,4.5 -2.65187,0.3153 -2.65188,0.3153 -2.76898,2.76898 -2.76899,2.76898 -4.22276,2.66572 -4.22277,2.66572 h -1.45248 -1.45249 l -0.61854,1.94884 -0.61854,1.94885 -1.94885,0.61854 -1.94884,0.61854 v 1.43261 1.43262 h 2.54531 2.54531 l -0.68761,3.66527 -0.68761,3.66528 -2.3577,3.47427 -2.3577,3.47427 v 0.73473 0.73472 l 1.43872,4.07779 1.43873,4.07778 -2.14449,0.68064 -2.1445,0.68064 -0.37756,-1.1327 -0.37757,-1.13269 h -2.25813 -2.25813 l 0.72833,4.75 0.72834,4.75 -0.33416,1.77444 -0.33416,1.77444 1.94729,1.21611 1.94729,1.2161 v 1.17612 1.17612 l 1.13269,0.37756 1.1327,0.37757 -0.70548,2.22276 -0.70547,2.22275 -3.54122,1.47962 -3.54122,1.47961 0.64403,3.2534 0.64403,3.2534 0.0336,1.73031 0.0336,1.7303 0.93637,0.57871 0.93637,0.57871 v 0.78758 0.78758 l -3.49434,3.9034 -3.49434,3.90341 -2.00566,2.28527 -2.00566,2.28528 v 1.35773 1.35774 l 1.52264,0.58429 1.52265,0.5843 -1.21692,1.9486 -1.21692,1.9486 1.03003,2.32409 1.03004,2.3241 0.16298,7.84346 0.16299,7.84346 0.51885,0.83952 0.51886,0.83953 -2.5176,4.50946 -2.5176,4.50945 v 1.85756 1.85756 l 0.9801,0.9801 0.98011,0.98011 -1.08082,3.9144 -1.08081,3.9144 1.56714,2.65296 1.56714,2.65296 -1.96643,2.11072 -1.96643,2.11072 v 1.91937 1.91937 l 1.31701,1.09302 1.31701,1.09302 -1.20295,7.08203 -1.20296,7.08203 -0.58285,0.58285 -0.58285,0.58285 -2.59141,-1.69796 -2.59141,-1.69795 h -6.65751 -6.65751 l -1.29486,1.8125 -1.29485,1.8125 -2.73743,3.22838 -2.73743,3.22839 -2.34362,0.0216 -2.34362,0.0216 -0.52301,2 -0.52302,2 h -0.88336 -0.88337 z"
     id="path3" />
  <text
     font-family="'Comic Sans MS', 'Comic Sans MS_MSFontService', sans-serif"
     font-weight="700"
     font-size="43px"
     transform="rotate(90)"
     id="text27"
     x="56.999996"
     y="-242.32172"
     clip-path="none">5</text>
  <text
     font-family="'Comic Sans MS', 'Comic Sans MS_MSFontService', sans-serif"
     font-weight="700"
     font-size="43px"
     transform="rotate(90)"
     id="text28"
     x="355.22165"
     y="-581.59576"
     clip-path="none">4</text>
  <text
     font-family="'Comic Sans MS', 'Comic Sans MS_MSFontService', sans-serif"
     font-weight="700"
     font-size="43px"
     transform="rotate(90)"
     id="text29"
     x="494.16483"
     y="-226.10059"
     clip-path="none">2</text>
  <text
     font-family="'Comic Sans MS', 'Comic Sans MS_MSFontService', sans-serif"
     font-weight="700"
     font-size="43px"
     transform="rotate(90)"
     id="text30"
     x="181.91833"
     y="-170.47385"
     clip-path="none">6</text>
  <text
     font-family="'Comic Sans MS', 'Comic Sans MS_MSFontService', sans-serif"
     font-weight="700"
     font-size="43px"
     transform="rotate(90)"
     id="text31"
     x="329.83752"
     y="-470.89642"
     clip-path="none">10</text>
  <text
     font-family="'Comic Sans MS', 'Comic Sans MS_MSFontService', sans-serif"
     font-weight="700"
     font-size="43px"
     transform="rotate(90)"
     id="text32"
     x="518.8584"
     y="-814.35565"
     clip-path="none">7</text>
  <text
     font-family="'Comic Sans MS', 'Comic Sans MS_MSFontService', sans-serif"
     font-weight="700"
     font-size="43px"
     transform="rotate(90)"
     id="text33"
     x="199.48853"
     y="-698.15405"
     clip-path="none">9</text>
  <text
     font-family="'Comic Sans MS', 'Comic Sans MS_MSFontService', sans-serif"
     font-weight="700"
     font-size="43px"
     transform="rotate(90)"
     id="text34"
     x="462.11566"
     y="-421.78763"
     clip-path="none">1,8</text>
  <path
     d="m 476.23566,192.04736 h 33.886 v 4 h -33.886 z m 31.886,-4 12,6 -12,6 z"
     id="path35"
     clip-path="none" />
  <path
     d="m 272.69553,196.06434 h 33.886 v 4 h -33.886 z m 31.886,-4 12,6 -12,6 z"
     id="path36"
     clip-path="none" />
  <path
     d="m 56.01141,205.58504 h 33.886 v 4 h -33.886 z m 31.886,-4 12,6 -12,6 z"
     id="path37"
     clip-path="none" />
  <path
     d="m 33.56712,388.41708 h 33.886 v 4 h -33.886 z m 31.886,-4 12,6 -12,6 z"
     id="path38"
     clip-path="none" />
  <path
     d="m 162.29903,315.24919 h 33.886 v 4 h -33.886 z m 31.886,-4 12,6 -12,6 z"
     id="path39"
     clip-path="none" />
  <path
     d="m 255.63671,401 h 33.886 v 4 h -33.886 z m 31.886,-4 12,6 -12,6 z"
     id="path40"
     clip-path="none" />
  <path
     d="m 58,55.72624 h 33.886 v 4 H 58 Z m 31.886,-4 12,6 -12,6 z"
     id="path41"
     clip-path="none" />
  <path
     d="m 762.24498,86.24425 h 33.886 v 4 h -33.886 z m 31.886,-4 12,6 -12,6 z"
     id="path42"
     clip-path="none" />
  <path
     d="m 596.08603,281.08254 h 33.886 v 4 h -33.886 z m 31.886,-4 12,6 -12,6 z"
     id="path43"
     clip-path="none" />
  <path
     d="m 819.91575,244.50203 h 33.886 v 4 h -33.886 z m 31.886,-4 12,6 -12,6 z"
     id="path44"
     clip-path="none" />
  <path
     d="m 321.0222,568.61651 h 22.534 v 3.99999 h -22.534 z m 20.534,-4 12,6 -12,5.99999 z"
     id="path45"
     clip-path="none" />
  <text
     font-family="'Comic Sans MS', 'Comic Sans MS_MSFontService', sans-serif"
     font-weight="700"
     font-size="43px"
     transform="rotate(90)"
     id="text46"
     x="49.999996"
     y="-457.57971"
     clip-path="none">3</text>
  <path
     d="m 596.92901,88.9663 h 33.886 v 4 h -33.886 z m 31.886,-4 12,6 -12,6 z"
     id="path47"
     clip-path="none" />
  <path
     d="m 710.83356,375.45638 h 33.886 v 4 h -33.886 z m 31.886,-4 12,6 -12,6 z"
     id="path48"
     clip-path="none" />
  <path
     d="m 614.19903,531.38116 h 33.886 v 4 h -33.886 z m 31.886,-4 12,6 -12,6 z"
     id="path49"
     clip-path="none" />
  <path
     d="m 317.99339,315.80832 h 33.886 v 4 h -33.886 z m 31.886,-4 12,6 -12,6 z"
     id="path50"
     clip-path="none" />
  <path
     d="m 46.38438,540.86098 33.886,10e-5 v 4 l -33.886,-10e-5 z m 31.886,-3.9999 12,6 -12,6 z"
     id="path51"
     clip-path="none" />
</svg>
