<?xml version="1.0" encoding="UTF-8" standalone="no"?>
<!-- Created with Inkscape (http://www.inkscape.org/) -->

<svg
   width="70.55555mm"
   height="70.55555mm"
   viewBox="0 0 70.55555 70.55555"
   version="1.1"
   id="svg1"
   xmlns="http://www.w3.org/2000/svg"
   xmlns:svg="http://www.w3.org/2000/svg">
  <defs
     id="defs1" />
  <g
     id="layer1"
     transform="translate(-39.158333,-100.27708)">
    <path
       style="fill:#bebebe"
       d="m 39.158333,135.55485 v -35.27777 h 35.277772 35.277775 v 35.27777 35.27778 H 74.436105 39.158333 Z m 62.441657,18.87361 v -8.29027 H 74.436105 47.272223 v 8.29027 8.29028 h 27.163882 27.163885 z m -0.0817,-18.9618 -0.0947,-8.20208 -27.07569,-0.0904 -27.075687,-0.0904 v 8.29246 8.29247 h 27.170383 27.170384 z m 0.0817,-18.9618 v -8.11389 H 74.436105 47.272223 v 8.11389 8.11388 h 27.163882 27.163885 z"
       id="path2" />
    <path
       style="fill:#f9f9f9"
       d="m 47.272223,154.42846 v -8.29027 h 27.163882 27.163885 v 8.29027 8.29028 H 74.436105 47.272223 Z m 0,-37.9236 v -8.11389 h 27.163882 27.163885 v 8.11389 8.11388 H 74.436105 47.272223 Z"
       id="path3" />
    <path
       style="fill:#fa0203"
       d="m 47.272223,135.37627 v -8.29246 l 27.075688,0.0904 27.075689,0.0904 0.0947,8.20208 0.0947,8.20208 H 74.442615 47.272233 Z"
       id="path1" />
  </g>
</svg>
