<?xml version="1.0" encoding="UTF-8" standalone="no"?>
<svg
   width="35.049999"
   height="11.05"
   viewBox="0 0 9.2736455 2.923646"
   version="1.1"
   id="svg8"
   inkscape:version="1.1 (c68e22c387, 2021-05-23)"
   sodipodi:docname="1.8_cuzdokrajna_vyciernene (1).svg"
   xmlns:inkscape="http://www.inkscape.org/namespaces/inkscape"
   xmlns:sodipodi="http://sodipodi.sourceforge.net/DTD/sodipodi-0.dtd"
   xmlns="http://www.w3.org/2000/svg"
   xmlns:svg="http://www.w3.org/2000/svg"
   xmlns:rdf="http://www.w3.org/1999/02/22-rdf-syntax-ns#"
   xmlns:cc="http://creativecommons.org/ns#"
   xmlns:dc="http://purl.org/dc/elements/1.1/">
  <defs
     id="defs2" />
  <sodipodi:namedview
     id="base"
     pagecolor="#ffffff"
     bordercolor="#666666"
     borderopacity="1.0"
     inkscape:pageopacity="0.0"
     inkscape:pageshadow="2"
     inkscape:zoom="42.281409"
     inkscape:cx="25.673222"
     inkscape:cy="4.0088541"
     inkscape:document-units="mm"
     inkscape:current-layer="layer1"
     inkscape:document-rotation="0"
     showgrid="false"
     inkscape:lockguides="true"
     inkscape:window-width="1920"
     inkscape:window-height="1051"
     inkscape:window-x="-9"
     inkscape:window-y="-9"
     inkscape:window-maximized="1"
     fit-margin-top="1"
     lock-margins="true"
     fit-margin-left="1"
     fit-margin-right="1"
     fit-margin-bottom="1"
     units="px"
     inkscape:snap-object-midpoints="true"
     inkscape:pagecheckerboard="0">
    <inkscape:grid
       type="xygrid"
       id="grid833"
       originx="-108.20796"
       originy="-87.041311" />
  </sodipodi:namedview>
  <metadata
     id="metadata5">
    <rdf:RDF>
      <cc:Work
         rdf:about="">
        <dc:format>image/svg+xml</dc:format>
        <dc:type
           rdf:resource="http://purl.org/dc/dcmitype/StillImage" />
        <dc:title />
      </cc:Work>
    </rdf:RDF>
  </metadata>
  <g
     inkscape:label="Layer 1"
     inkscape:groupmode="layer"
     id="layer1"
     transform="translate(-108.20797,-87.041301)">
    <path
       id="rect1020"
       style="fill:#000000;fill-opacity:1;stroke:none;stroke-width:0.105833;stroke-linejoin:round"
       d="m 109.27292,88.106255 h 0.79375 v 0.264583 h -0.79375 z" />
    <path
       style="fill:none;stroke:#000000;stroke-width:0.0132292;stroke-linecap:round;stroke-linejoin:round;stroke-miterlimit:4;stroke-dasharray:none;stroke-opacity:1"
       d="m 108.47917,87.312499 v 2.38125 h 0.79375 0.79375 0.79375 0.79375 0.79375 0.79375 0.79375 0.79375 0.79375 0.79375 0.79375 v -2.38125 h -8.73125"
       id="path835" />
    <path
       style="fill:none;stroke:#000000;stroke-width:0.0132292;stroke-linecap:round;stroke-linejoin:round;stroke-miterlimit:4;stroke-dasharray:none;stroke-opacity:1"
       d="m 109.27292,89.693749 v -2.38125"
       id="path837" />
    <path
       style="fill:none;stroke:#000000;stroke-width:0.0132292;stroke-linecap:round;stroke-linejoin:round;stroke-miterlimit:4;stroke-dasharray:none;stroke-opacity:1"
       d="m 110.06667,89.693749 v -2.38125"
       id="path839" />
    <path
       style="fill:none;stroke:#000000;stroke-width:0.0132292;stroke-linecap:round;stroke-linejoin:round;stroke-miterlimit:4;stroke-dasharray:none;stroke-opacity:1"
       d="m 110.86042,89.693749 v -2.38125"
       id="path841" />
    <path
       style="fill:none;stroke:#000000;stroke-width:0.0132292;stroke-linecap:round;stroke-linejoin:round;stroke-miterlimit:4;stroke-dasharray:none;stroke-opacity:1"
       d="m 111.65417,89.693749 v -2.38125"
       id="path843" />
    <path
       style="fill:none;stroke:#000000;stroke-width:0.0132292;stroke-linecap:round;stroke-linejoin:round;stroke-miterlimit:4;stroke-dasharray:none;stroke-opacity:1"
       d="m 112.44792,89.693749 v -2.38125"
       id="path845" />
    <path
       style="fill:none;stroke:#000000;stroke-width:0.0132292;stroke-linecap:round;stroke-linejoin:round;stroke-miterlimit:4;stroke-dasharray:none;stroke-opacity:1"
       d="m 113.24167,89.693749 v -2.38125"
       id="path847" />
    <path
       style="fill:none;stroke:#000000;stroke-width:0.0132292;stroke-linecap:round;stroke-linejoin:round;stroke-miterlimit:4;stroke-dasharray:none;stroke-opacity:1"
       d="m 114.03542,89.693749 v -2.38125"
       id="path849" />
    <path
       style="fill:none;stroke:#000000;stroke-width:0.0132292;stroke-linecap:round;stroke-linejoin:round;stroke-miterlimit:4;stroke-dasharray:none;stroke-opacity:1"
       d="m 114.82917,89.693749 v -2.38125"
       id="path851" />
    <path
       style="fill:none;stroke:#000000;stroke-width:0.0132292;stroke-linecap:round;stroke-linejoin:round;stroke-miterlimit:4;stroke-dasharray:none;stroke-opacity:1"
       d="m 115.62292,89.693749 v -2.38125"
       id="path853" />
    <path
       style="fill:none;stroke:#000000;stroke-width:0.0132292;stroke-linecap:round;stroke-linejoin:round;stroke-miterlimit:4;stroke-dasharray:none;stroke-opacity:1"
       d="m 116.41667,89.693749 v -2.38125"
       id="path855" />
    <path
       style="fill:none;stroke:#000000;stroke-width:0.0132292;stroke-linecap:round;stroke-linejoin:round;stroke-miterlimit:4;stroke-dasharray:none;stroke-opacity:1"
       d="m 108.47917,87.577082 h 8.73125"
       id="path857" />
    <path
       style="fill:none;stroke:#000000;stroke-width:0.0132292;stroke-linecap:round;stroke-linejoin:round;stroke-miterlimit:4;stroke-dasharray:none;stroke-opacity:1"
       d="m 108.47917,87.841666 h 8.73125"
       id="path859" />
    <path
       style="fill:none;stroke:#000000;stroke-width:0.0132292;stroke-linecap:round;stroke-linejoin:round;stroke-miterlimit:4;stroke-dasharray:none;stroke-opacity:1"
       d="m 117.21042,88.106249 h -8.73125"
       id="path861" />
    <path
       style="fill:none;stroke:#000000;stroke-width:0.0132292;stroke-linecap:round;stroke-linejoin:round;stroke-miterlimit:4;stroke-dasharray:none;stroke-opacity:1"
       d="m 108.47917,88.370832 h 8.73125"
       id="path863" />
    <path
       style="fill:none;stroke:#000000;stroke-width:0.0132292;stroke-linecap:round;stroke-linejoin:round;stroke-miterlimit:4;stroke-dasharray:none;stroke-opacity:1"
       d="m 117.21042,88.635416 h -8.73125"
       id="path865" />
    <path
       style="fill:none;stroke:#000000;stroke-width:0.0132292;stroke-linecap:round;stroke-linejoin:round;stroke-miterlimit:4;stroke-dasharray:none;stroke-opacity:1"
       d="m 108.47917,88.899999 h 8.73125"
       id="path867" />
    <path
       style="fill:none;stroke:#000000;stroke-width:0.0132292;stroke-linecap:round;stroke-linejoin:round;stroke-miterlimit:4;stroke-dasharray:none;stroke-opacity:1"
       d="m 117.21042,89.164582 h -8.73125"
       id="path869" />
    <path
       style="fill:none;stroke:#000000;stroke-width:0.0132292;stroke-linecap:round;stroke-linejoin:round;stroke-miterlimit:4;stroke-dasharray:none;stroke-opacity:1"
       d="m 108.47917,89.429166 h 8.73125"
       id="path871" />
    <g
       id="text879"
       style="font-size:0.211667px;line-height:1.25;font-family:'Minion Pro';-inkscape-font-specification:'Minion Pro';letter-spacing:0px;stroke-width:0.264583" />
    <g
       id="text875-9"
       style="font-size:0.211667px;line-height:1.25;font-family:'Minion Pro';-inkscape-font-specification:'Minion Pro';letter-spacing:0px;stroke-width:0.264583" />
    <g
       aria-label="KRV"
       id="text907"
       style="font-size:0.211667px;line-height:1.25;font-family:'Minion Pro';-inkscape-font-specification:'Minion Pro';letter-spacing:0px;stroke-width:0.264583">
      <path
         d="m 113.56975,88.041794 v -0.007 c -0.01,-0.0011 -0.0148,-0.003 -0.0256,-0.01439 -0.0108,-0.01143 -0.0336,-0.03768 -0.0495,-0.05757 0.014,-0.01397 0.0288,-0.029 0.0368,-0.03619 0.0131,-0.01185 0.0184,-0.01397 0.0349,-0.01545 v -0.007 h -0.0525 v 0.007 l 0.005,6.35e-4 c 0.009,0.0011 0.009,0.0032 0.003,0.01016 -0.01,0.01185 -0.0226,0.02519 -0.0345,0.03641 -0.006,0.0059 -0.0106,0.0087 -0.0155,0.0097 v -0.03598 c 0,-0.01841 0.002,-0.01968 0.0188,-0.02095 v -0.007 h -0.0561 v 0.007 c 0.0173,0.0013 0.019,0.0023 0.019,0.02095 v 0.08192 c 0,0.01799 -0.002,0.01947 -0.0182,0.02074 v 0.007 h 0.0563 v -0.007 c -0.0178,-0.0013 -0.0199,-0.0028 -0.0199,-0.02074 v -0.03958 c 0.004,-8.47e-4 0.007,-2.12e-4 0.0123,0.0057 0.0197,0.02328 0.0362,0.0436 0.0521,0.06159 z"
         style="font-size:0.211667px;stroke-width:0.264583"
         id="path2894" />
      <path
         d="m 113.70691,88.037349 c -0.005,-0.0013 -0.01,-0.0038 -0.0155,-0.0097 -0.005,-0.0055 -0.009,-0.01037 -0.0169,-0.0218 -0.006,-0.0095 -0.015,-0.02371 -0.0188,-0.03048 0.0157,-0.0068 0.0269,-0.01799 0.0269,-0.0362 0,-0.0127 -0.006,-0.02222 -0.0144,-0.02773 -0.008,-0.0053 -0.0184,-0.0072 -0.0339,-0.0072 h -0.0536 v 0.007 c 0.0167,0.0013 0.0184,0.0019 0.0184,0.0199 v 0.0834 c 0,0.01799 -0.002,0.01905 -0.0195,0.02032 v 0.007 h 0.0567 v -0.007 c -0.0171,-0.0013 -0.0191,-0.0025 -0.0191,-0.02032 v -0.03238 h 0.007 c 0.0112,0 0.0148,0.0025 0.0184,0.0083 0.006,0.01016 0.0138,0.02349 0.0212,0.03365 0.01,0.01397 0.0188,0.01863 0.0341,0.01947 0.003,2.12e-4 0.005,2.12e-4 0.008,2.12e-4 z m -0.0895,-0.06308 v -0.0508 c 0,-0.0055 6.4e-4,-0.008 0.002,-0.0093 0.002,-0.0013 0.005,-0.0021 0.0114,-0.0021 0.0159,0 0.0313,0.008 0.0313,0.03048 0,0.01122 -0.003,0.01926 -0.0116,0.02561 -0.005,0.0044 -0.0123,0.0061 -0.0231,0.0061 z"
         style="font-size:0.211667px;stroke-width:0.264583"
         id="path2896" />
      <path
         d="m 113.84195,87.90421 h -0.0487 v 0.007 c 0.0173,0.0019 0.0184,0.0036 0.0144,0.01566 -0.006,0.0182 -0.0218,0.05906 -0.0332,0.08763 h -4.3e-4 c -0.014,-0.03535 -0.0294,-0.0762 -0.0349,-0.09123 -0.003,-0.0089 -0.003,-0.01058 0.0125,-0.01206 v -0.007 h -0.0529 v 0.007 c 0.0127,0.0013 0.0163,0.003 0.0224,0.01799 0.0116,0.029 0.0298,0.07599 0.044,0.114512 h 0.007 c 0.0161,-0.04339 0.0385,-0.09694 0.044,-0.110067 0.008,-0.01905 0.0108,-0.02096 0.0254,-0.02244 z"
         style="font-size:0.211667px;stroke-width:0.264583"
         id="path2898" />
    </g>
    <g
       aria-label="CEChY"
       id="text911"
       style="font-size:0.211667px;line-height:1.25;font-family:'Minion Pro';-inkscape-font-specification:'Minion Pro';letter-spacing:0px;stroke-width:0.264583">
      <path
         d="m 109.4647,87.744617 c -0.0112,0.02201 -0.022,0.03281 -0.0434,0.03281 -0.0315,0 -0.0555,-0.02625 -0.0555,-0.06562 0,-0.03175 0.0188,-0.06117 0.0542,-0.06117 0.0231,0 0.0351,0.0093 0.0409,0.03175 l 0.007,-0.0017 c -0.001,-0.01207 -0.003,-0.02074 -0.004,-0.03281 -0.006,-0.0011 -0.0203,-0.0057 -0.0377,-0.0057 -0.0474,0 -0.0823,0.02921 -0.0823,0.07408 0,0.03323 0.0235,0.06985 0.0762,0.06985 0.0157,0 0.0336,-0.0042 0.0398,-0.0057 0.004,-0.0068 0.009,-0.02286 0.0121,-0.03302 z"
         style="font-size:0.211667px;stroke-width:0.264583"
         id="path2883" />
      <path
         d="m 109.58683,87.748003 c -0.003,0.0087 -0.007,0.01588 -0.0106,0.0199 -0.005,0.0055 -0.0112,0.007 -0.0265,0.007 -0.0106,0 -0.0182,0 -0.0222,-0.0028 -0.004,-0.0025 -0.005,-0.0072 -0.005,-0.01714 v -0.03874 h 0.0199 c 0.0184,0 0.0199,8.47e-4 0.0229,0.0163 h 0.007 v -0.04127 h -0.007 c -0.003,0.01439 -0.004,0.01587 -0.0229,0.01587 h -0.0199 v -0.04699 c 0,-0.0063 4.2e-4,-0.0068 0.007,-0.0068 h 0.0169 c 0.0146,0 0.0203,0.0015 0.0231,0.0059 0.003,0.0049 0.005,0.0093 0.007,0.0182 l 0.007,-8.46e-4 c -8.5e-4,-0.01206 -0.002,-0.02667 -0.002,-0.03133 h -0.0961 v 0.0068 c 0.0167,0.0013 0.0184,0.0021 0.0184,0.02074 v 0.08297 c 0,0.01714 -0.002,0.01884 -0.0212,0.02032 v 0.0068 h 0.10393 c 0.002,-0.0063 0.006,-0.02709 0.008,-0.03408 z"
         style="font-size:0.211667px;stroke-width:0.264583"
         id="path2885" />
      <path
         d="m 109.72992,87.744617 c -0.0112,0.02201 -0.022,0.03281 -0.0434,0.03281 -0.0315,0 -0.0555,-0.02625 -0.0555,-0.06562 0,-0.03175 0.0188,-0.06117 0.0542,-0.06117 0.0231,0 0.0351,0.0093 0.0409,0.03175 l 0.007,-0.0017 c -0.001,-0.01207 -0.003,-0.02074 -0.004,-0.03281 -0.006,-0.0011 -0.0203,-0.0057 -0.0377,-0.0057 -0.0474,0 -0.0823,0.02921 -0.0823,0.07408 0,0.03323 0.0235,0.06985 0.0762,0.06985 0.0157,0 0.0336,-0.0042 0.0398,-0.0057 0.004,-0.0068 0.009,-0.02286 0.0121,-0.03302 z"
         style="font-size:0.211667px;stroke-width:0.264583"
         id="path2887" />
      <path
         d="m 109.85332,87.782928 v -0.0063 c -0.0125,-0.0011 -0.0142,-0.0023 -0.0142,-0.01609 v -0.03683 c 0,-0.02498 -0.0123,-0.0362 -0.0298,-0.0362 -0.0112,0 -0.0226,0.0078 -0.0303,0.01524 v -0.07006 c -0.008,0.0025 -0.0216,0.0059 -0.032,0.0074 v 0.0059 c 0.0142,0.0013 0.0148,0.0021 0.0148,0.01545 v 0.09906 c 0,0.01376 -0.002,0.01482 -0.0148,0.01609 v 0.0063 h 0.0457 v -0.0063 c -0.0127,-0.0013 -0.0138,-0.0025 -0.0138,-0.01609 v -0.04932 c 0.006,-0.0068 0.014,-0.01101 0.0222,-0.01101 0.014,0 0.0208,0.0085 0.0208,0.02582 v 0.0345 c 0,0.01355 -0.002,0.01482 -0.014,0.01609 v 0.0063 z"
         style="font-size:0.211667px;stroke-width:0.264583"
         id="path2889" />
      <path
         d="m 109.99154,87.645345 h -0.0483 v 0.007 c 0.0167,0.0017 0.0172,0.0034 0.0125,0.01376 -0.006,0.0127 -0.0169,0.03239 -0.0248,0.04635 -0.009,-0.01566 -0.0195,-0.03238 -0.0281,-0.04826 -0.004,-0.0074 -0.005,-0.0099 0.0106,-0.01185 v -0.007 h -0.0516 v 0.007 c 0.0129,0.0013 0.0155,0.0038 0.0239,0.01757 0.0112,0.01884 0.0188,0.03217 0.0269,0.04614 0.004,0.0063 0.004,0.0083 0.004,0.01249 v 0.02752 c 0,0.01757 -0.002,0.01884 -0.0209,0.02011 v 0.0068 h 0.0612 v -0.0068 c -0.0201,-0.0013 -0.0218,-0.0028 -0.0218,-0.02011 v -0.02815 c 0,-0.0055 6.3e-4,-0.0078 0.003,-0.01291 0.0104,-0.01863 0.0174,-0.03048 0.0264,-0.04509 0.009,-0.01376 0.0114,-0.01609 0.0263,-0.01757 z"
         style="font-size:0.211667px;stroke-width:0.264583"
         id="path2891" />
    </g>
    <g
       aria-label="BER"
       id="text919"
       style="font-size:0.211667px;line-height:1.25;font-family:'Minion Pro';-inkscape-font-specification:'Minion Pro';letter-spacing:0px;stroke-width:0.264583">
      <path
         d="m 113.52392,87.702284 c 0.011,-0.0032 0.0277,-0.01143 0.0277,-0.03133 0,-0.0097 -0.004,-0.01926 -0.0118,-0.02434 -0.007,-0.0044 -0.0161,-0.007 -0.032,-0.007 h -0.0557 v 0.0068 c 0.0174,0.0013 0.018,0.0025 0.018,0.0199 v 0.08403 c 0,0.01736 -0.001,0.01863 -0.0197,0.0199 v 0.007 h 0.0476 c 0.0169,0 0.0311,-0.0025 0.0421,-0.0085 0.0127,-0.007 0.0205,-0.01799 0.0205,-0.03217 0,-0.02159 -0.0163,-0.03069 -0.0368,-0.03387 z m -0.0354,-0.0023 v -0.04043 c 0,-0.0066 8.5e-4,-0.0089 0.003,-0.01016 0.002,-0.0013 0.007,-0.0023 0.0125,-0.0023 0.0199,0 0.0281,0.01206 0.0281,0.02646 0,0.01757 -0.0102,0.02646 -0.0328,0.02646 z m 0,0.008 h 0.01 c 0.0254,0 0.0409,0.0089 0.0409,0.03048 0,0.02201 -0.0157,0.03048 -0.033,0.03069 -0.014,2.11e-4 -0.0178,-0.0038 -0.0178,-0.01884 z"
         style="font-size:0.211667px;stroke-width:0.264583"
         id="path2867" />
      <path
         d="m 113.67907,87.742289 c -0.003,0.0087 -0.007,0.01587 -0.0106,0.0199 -0.005,0.0055 -0.0112,0.007 -0.0265,0.007 -0.0106,0 -0.0182,0 -0.0222,-0.0028 -0.004,-0.0025 -0.005,-0.0072 -0.005,-0.01714 v -0.03874 h 0.0199 c 0.0184,0 0.0199,8.47e-4 0.0229,0.0163 h 0.007 v -0.04127 h -0.007 c -0.003,0.01439 -0.004,0.01587 -0.0229,0.01587 h -0.0199 v -0.04699 c 0,-0.0063 4.2e-4,-0.0068 0.007,-0.0068 h 0.0169 c 0.0146,0 0.0203,0.0015 0.0231,0.0059 0.003,0.0049 0.005,0.0093 0.007,0.0182 l 0.007,-8.47e-4 c -8.5e-4,-0.01207 -0.002,-0.02667 -0.002,-0.03133 h -0.0961 v 0.0068 c 0.0167,0.0013 0.0184,0.0021 0.0184,0.02074 v 0.08297 c 0,0.01715 -0.002,0.01884 -0.0212,0.02032 v 0.0068 h 0.10393 c 0.002,-0.0063 0.006,-0.02709 0.008,-0.03408 z"
         style="font-size:0.211667px;stroke-width:0.264583"
         id="path2869" />
      <path
         d="m 113.82661,87.772769 c -0.005,-0.0013 -0.01,-0.0038 -0.0155,-0.0097 -0.005,-0.0055 -0.009,-0.01037 -0.0169,-0.0218 -0.006,-0.0095 -0.015,-0.02371 -0.0188,-0.03048 0.0157,-0.0068 0.0269,-0.01799 0.0269,-0.0362 0,-0.0127 -0.006,-0.02222 -0.0144,-0.02773 -0.008,-0.0053 -0.0184,-0.0072 -0.0339,-0.0072 h -0.0536 v 0.007 c 0.0167,0.0013 0.0184,0.0019 0.0184,0.0199 v 0.0834 c 0,0.01799 -0.002,0.01905 -0.0195,0.02032 v 0.007 h 0.0567 v -0.007 c -0.0171,-0.0013 -0.019,-0.0025 -0.019,-0.02032 v -0.03239 h 0.007 c 0.0112,0 0.0148,0.0025 0.0184,0.0083 0.006,0.01016 0.0138,0.02349 0.0212,0.03365 0.01,0.01397 0.0188,0.01863 0.0341,0.01947 0.003,2.12e-4 0.005,2.12e-4 0.008,2.12e-4 z m -0.0895,-0.06308 v -0.0508 c 0,-0.0055 6.4e-4,-0.008 0.002,-0.0093 0.002,-0.0013 0.005,-0.0021 0.0114,-0.0021 0.0159,0 0.0313,0.008 0.0313,0.03048 0,0.01122 -0.003,0.01926 -0.0117,0.02561 -0.005,0.0044 -0.0123,0.0061 -0.0231,0.0061 z"
         style="font-size:0.211667px;stroke-width:0.264583"
         id="path2871" />
    </g>
    <g
       aria-label="ČO"
       id="text923"
       style="font-size:0.211667px;line-height:1.25;font-family:'Minion Pro';-inkscape-font-specification:'Minion Pro';letter-spacing:0px;stroke-width:0.264583">
      <path
         d="m 114.4057,87.758693 c -0.0112,0.02201 -0.022,0.03281 -0.0434,0.03281 -0.0315,0 -0.0555,-0.02625 -0.0555,-0.06562 0,-0.03175 0.0188,-0.06117 0.0542,-0.06117 0.0231,0 0.0351,0.0093 0.0408,0.03175 l 0.007,-0.0017 c -0.001,-0.01207 -0.003,-0.02074 -0.004,-0.03281 -0.006,-0.0011 -0.0203,-0.0057 -0.0377,-0.0057 -0.0474,0 -0.0823,0.02921 -0.0823,0.07408 0,0.03323 0.0235,0.06985 0.0762,0.06985 0.0157,0 0.0337,-0.0042 0.0398,-0.0057 0.004,-0.0068 0.009,-0.02286 0.0121,-0.03302 z m -0.0195,-0.140124 c -0.009,0.0038 -0.0176,0.0087 -0.0262,0.01355 -0.009,-0.0053 -0.0178,-0.0097 -0.0265,-0.01355 l -0.004,0.0066 c 0.01,0.0072 0.019,0.01397 0.0275,0.02307 h 0.005 c 0.008,-0.0091 0.018,-0.01587 0.0275,-0.02307 z"
         style="font-size:0.211667px;stroke-width:0.264583"
         id="path2862" />
      <path
         d="m 114.50095,87.656246 c -0.0449,0 -0.072,0.03514 -0.072,0.07345 0,0.04106 0.0311,0.07048 0.0694,0.07048 0.0392,0 0.0715,-0.02752 0.0715,-0.07366 0,-0.04254 -0.0328,-0.07027 -0.0688,-0.07027 z m -0.004,0.0085 c 0.0273,0 0.0512,0.02286 0.0512,0.06752 0,0.04043 -0.0214,0.05948 -0.0447,0.05948 -0.0296,0 -0.0519,-0.02879 -0.0519,-0.06794 0,-0.03937 0.0218,-0.05906 0.0451,-0.05906 z"
         style="font-size:0.211667px;stroke-width:0.264583"
         id="path2864" />
    </g>
    <g
       aria-label="Z"
       id="text935"
       style="font-size:0.211667px;line-height:1.25;font-family:'Minion Pro';-inkscape-font-specification:'Minion Pro';letter-spacing:0px;stroke-width:0.264583">
      <path
         d="m 108.92895,88.007507 c -0.004,0.01058 -0.007,0.01736 -0.0119,0.0218 -0.006,0.0063 -0.0142,0.0076 -0.0394,0.0076 -0.0142,0 -0.0275,-4.23e-4 -0.0347,-0.0013 0.0294,-0.04255 0.0586,-0.0834 0.088,-0.124883 l -0.002,-0.003 h -0.0851 c -0.006,0 -0.009,-4.23e-4 -0.0112,-0.0053 h -0.006 c -4.3e-4,0.0099 -0.002,0.02498 -0.003,0.03958 h 0.007 c 0.002,-0.0095 0.005,-0.01503 0.008,-0.01884 0.004,-0.0051 0.007,-0.007 0.0294,-0.007 h 0.0362 c -0.0299,0.04276 -0.0599,0.08403 -0.0895,0.12573 l 0.002,0.0034 h 0.11091 c 0.002,-0.0083 0.006,-0.02858 0.008,-0.03641 z"
         style="font-size:0.211667px;stroke-width:0.264583"
         id="path2837" />
    </g>
    <g
       aria-label="KRV"
       id="text943"
       style="font-size:0.211667px;line-height:1.25;font-family:'Minion Pro';-inkscape-font-specification:'Minion Pro';letter-spacing:0px;stroke-width:0.264583">
      <path
         d="m 116.76584,87.512634 v -0.007 c -0.01,-0.0011 -0.0148,-0.003 -0.0256,-0.01439 -0.0108,-0.01143 -0.0336,-0.03768 -0.0495,-0.05757 0.014,-0.01397 0.0288,-0.029 0.0368,-0.0362 0.0131,-0.01185 0.0184,-0.01397 0.0349,-0.01545 v -0.007 h -0.0525 v 0.007 l 0.005,6.35e-4 c 0.009,0.0011 0.009,0.0032 0.003,0.01016 -0.01,0.01185 -0.0226,0.02519 -0.0345,0.03641 -0.006,0.0059 -0.0106,0.0087 -0.0155,0.0097 v -0.03598 c 0,-0.01842 0.002,-0.01968 0.0188,-0.02096 v -0.007 h -0.0561 v 0.007 c 0.0174,0.0013 0.0191,0.0023 0.0191,0.02096 v 0.08191 c 0,0.01799 -0.002,0.01947 -0.0182,0.02074 v 0.007 h 0.0563 v -0.007 c -0.0178,-0.0013 -0.0199,-0.0028 -0.0199,-0.02074 v -0.03958 c 0.004,-8.46e-4 0.007,-2.11e-4 0.0123,0.0057 0.0197,0.02328 0.0362,0.0436 0.0521,0.0616 z"
         style="font-size:0.211667px;stroke-width:0.264583"
         id="path2819" />
      <path
         d="m 116.903,87.508189 c -0.005,-0.0013 -0.01,-0.0038 -0.0155,-0.0097 -0.005,-0.0055 -0.009,-0.01037 -0.0169,-0.0218 -0.006,-0.0095 -0.015,-0.02371 -0.0188,-0.03048 0.0157,-0.0068 0.0269,-0.01799 0.0269,-0.0362 0,-0.0127 -0.006,-0.02223 -0.0144,-0.02773 -0.008,-0.0053 -0.0184,-0.0072 -0.0339,-0.0072 h -0.0536 v 0.007 c 0.0167,0.0013 0.0184,0.0019 0.0184,0.0199 v 0.0834 c 0,0.01799 -0.002,0.01905 -0.0195,0.02032 v 0.007 h 0.0567 v -0.007 c -0.0172,-0.0013 -0.0191,-0.0025 -0.0191,-0.02032 v -0.03238 h 0.007 c 0.0112,0 0.0148,0.0025 0.0184,0.0083 0.006,0.01016 0.0138,0.0235 0.0212,0.03366 0.01,0.01397 0.0188,0.01863 0.0341,0.01947 0.003,2.11e-4 0.005,2.11e-4 0.008,2.11e-4 z m -0.0895,-0.06308 v -0.0508 c 0,-0.0055 6.3e-4,-0.008 0.002,-0.0093 0.002,-0.0013 0.005,-0.0021 0.0114,-0.0021 0.0159,0 0.0313,0.008 0.0313,0.03048 0,0.01122 -0.003,0.01926 -0.0116,0.02561 -0.005,0.0044 -0.0123,0.0061 -0.0231,0.0061 z"
         style="font-size:0.211667px;stroke-width:0.264583"
         id="path2821" />
      <path
         d="m 117.03805,87.375051 h -0.0487 v 0.007 c 0.0174,0.0019 0.0184,0.0036 0.0144,0.01566 -0.006,0.0182 -0.0218,0.05906 -0.0332,0.08763 h -4.3e-4 c -0.014,-0.03535 -0.0294,-0.0762 -0.0349,-0.09123 -0.003,-0.0089 -0.003,-0.01058 0.0125,-0.01207 v -0.007 h -0.0529 v 0.007 c 0.0127,0.0013 0.0163,0.003 0.0224,0.01799 0.0116,0.029 0.0298,0.07599 0.044,0.114512 h 0.007 c 0.0161,-0.04339 0.0385,-0.09694 0.044,-0.110067 0.008,-0.01905 0.0108,-0.02096 0.0254,-0.02244 z"
         style="font-size:0.211667px;stroke-width:0.264583"
         id="path2823" />
    </g>
    <g
       aria-label="HLT"
       id="text947"
       style="font-size:0.211667px;line-height:1.25;font-family:'Minion Pro';-inkscape-font-specification:'Minion Pro';letter-spacing:0px;stroke-width:0.264583">
      <path
         d="m 109.6226,88.172391 h -0.0565 v 0.007 c 0.0169,0.0013 0.0186,0.0023 0.0186,0.01968 v 0.03302 h -0.0722 v -0.03302 c 0,-0.01736 0.002,-0.01842 0.0184,-0.01968 v -0.007 h -0.0565 v 0.007 c 0.018,0.0013 0.0197,0.0021 0.0197,0.01968 v 0.08424 c 0,0.01757 -0.002,0.01842 -0.019,0.01968 v 0.007 h 0.0569 v -0.007 c -0.0176,-0.0013 -0.0195,-0.0023 -0.0195,-0.01968 v -0.04127 h 0.0722 v 0.04127 c 0,0.01757 -0.002,0.01842 -0.0203,0.01968 v 0.007 h 0.058 v -0.007 c -0.0176,-0.0013 -0.0193,-0.0021 -0.0193,-0.01968 v -0.08424 c 0,-0.01736 0.002,-0.01842 0.0195,-0.01968 z"
         style="font-size:0.211667px;stroke-width:0.264583;fill:#ffffff;fill-opacity:1"
         id="path2812" />
      <path
         d="m 109.73627,88.274838 c -0.003,0.0097 -0.007,0.01651 -0.011,0.02074 -0.005,0.0053 -0.0121,0.0063 -0.0231,0.0063 -0.009,0 -0.0161,-4.23e-4 -0.0203,-0.0028 -0.004,-0.0021 -0.005,-0.0061 -0.005,-0.01736 v -0.08234 c 0,-0.01799 0.002,-0.01905 0.0193,-0.02011 v -0.007 h -0.0567 v 0.007 c 0.0176,0.0013 0.0191,0.0023 0.0191,0.02011 v 0.08319 c 0,0.01778 -0.002,0.01905 -0.0197,0.02032 v 0.007 h 0.0971 c 0.002,-0.0063 0.007,-0.02688 0.008,-0.03387 z"
         style="font-size:0.211667px;stroke-width:0.264583;fill:#ffffff;fill-opacity:1"
         id="path2814" />
      <path
         d="m 109.86073,88.204988 c -0.001,-0.01228 -0.002,-0.02794 -0.002,-0.03789 h -0.005 c -0.003,0.004 -0.005,0.0053 -0.0108,0.0053 h -0.0838 c -0.006,0 -0.009,-4.23e-4 -0.0119,-0.0053 h -0.005 c -4.2e-4,0.01185 -0.001,0.02561 -0.003,0.03874 h 0.007 c 0.003,-0.0095 0.004,-0.01566 0.007,-0.01926 0.003,-0.0044 0.007,-0.0061 0.0235,-0.0061 h 0.0138 v 0.102659 c 0,0.01693 -0.002,0.01863 -0.0216,0.0199 v 0.007 h 0.0622 v -0.007 c -0.0205,-0.0013 -0.0222,-0.0032 -0.0222,-0.0199 v -0.102659 h 0.015 c 0.0155,0 0.0186,0.0015 0.0222,0.0063 0.003,0.0032 0.005,0.0087 0.007,0.01884 z"
         style="font-size:0.211667px;stroke-width:0.264583;fill:#ffffff;fill-opacity:1"
         id="path2816" />
    </g>
    <g
       aria-label="CECh"
       id="text951"
       style="font-size:0.211667px;line-height:1.25;font-family:'Minion Pro';-inkscape-font-specification:'Minion Pro';letter-spacing:0px;stroke-width:0.264583">
      <path
         d="m 111.12352,88.273776 c -0.0112,0.02201 -0.022,0.03281 -0.0434,0.03281 -0.0315,0 -0.0554,-0.02625 -0.0554,-0.06562 0,-0.03175 0.0188,-0.06117 0.0542,-0.06117 0.0231,0 0.0351,0.0093 0.0409,0.03175 l 0.007,-0.0017 c -0.001,-0.01206 -0.003,-0.02074 -0.004,-0.03281 -0.006,-0.0011 -0.0203,-0.0057 -0.0377,-0.0057 -0.0474,0 -0.0823,0.02921 -0.0823,0.07408 0,0.03323 0.0235,0.06985 0.0762,0.06985 0.0157,0 0.0337,-0.0042 0.0398,-0.0057 0.004,-0.0068 0.009,-0.02286 0.0121,-0.03302 z"
         style="font-size:0.211667px;stroke-width:0.264583"
         id="path2803" />
      <path
         d="m 111.24565,88.277163 c -0.003,0.0087 -0.007,0.01587 -0.0106,0.0199 -0.005,0.0055 -0.0112,0.007 -0.0265,0.007 -0.0106,0 -0.0182,0 -0.0222,-0.0028 -0.004,-0.0025 -0.005,-0.0072 -0.005,-0.01714 v -0.03874 h 0.0199 c 0.0184,0 0.0199,8.47e-4 0.0229,0.0163 h 0.007 v -0.04127 h -0.007 c -0.003,0.01439 -0.004,0.01587 -0.0229,0.01587 h -0.0199 v -0.04699 c 0,-0.0064 4.2e-4,-0.0068 0.007,-0.0068 h 0.0169 c 0.0146,0 0.0203,0.0015 0.0231,0.0059 0.003,0.0049 0.005,0.0093 0.007,0.0182 l 0.007,-8.47e-4 c -8.5e-4,-0.01207 -0.002,-0.02667 -0.002,-0.03133 h -0.0961 v 0.0068 c 0.0167,0.0013 0.0184,0.0021 0.0184,0.02074 v 0.08297 c 0,0.01714 -0.002,0.01884 -0.0212,0.02032 v 0.0068 h 0.10393 c 0.002,-0.0063 0.006,-0.02709 0.008,-0.03408 z"
         style="font-size:0.211667px;stroke-width:0.264583"
         id="path2805" />
      <path
         d="m 111.38873,88.273776 c -0.0112,0.02201 -0.022,0.03281 -0.0434,0.03281 -0.0315,0 -0.0554,-0.02625 -0.0554,-0.06562 0,-0.03175 0.0188,-0.06117 0.0542,-0.06117 0.0231,0 0.0351,0.0093 0.0408,0.03175 l 0.007,-0.0017 c -0.001,-0.01206 -0.003,-0.02074 -0.004,-0.03281 -0.006,-0.0011 -0.0203,-0.0057 -0.0377,-0.0057 -0.0474,0 -0.0823,0.02921 -0.0823,0.07408 0,0.03323 0.0235,0.06985 0.0762,0.06985 0.0157,0 0.0337,-0.0042 0.0398,-0.0057 0.004,-0.0068 0.009,-0.02286 0.0121,-0.03302 z"
         style="font-size:0.211667px;stroke-width:0.264583"
         id="path2807" />
      <path
         d="m 111.51214,88.312088 v -0.0063 c -0.0125,-0.0011 -0.0142,-0.0023 -0.0142,-0.01609 v -0.03683 c 0,-0.02498 -0.0123,-0.03619 -0.0298,-0.03619 -0.0112,0 -0.0226,0.0078 -0.0303,0.01524 v -0.07006 c -0.008,0.0025 -0.0216,0.0059 -0.032,0.0074 v 0.0059 c 0.0142,0.0013 0.0148,0.0021 0.0148,0.01545 v 0.09906 c 0,0.01376 -0.002,0.01482 -0.0148,0.01609 v 0.0063 h 0.0457 v -0.0063 c -0.0127,-0.0013 -0.0138,-0.0025 -0.0138,-0.01609 v -0.04932 c 0.006,-0.0068 0.014,-0.01101 0.0222,-0.01101 0.014,0 0.0207,0.0085 0.0207,0.02582 v 0.0345 c 0,0.01355 -0.002,0.01482 -0.014,0.01609 v 0.0063 z"
         style="font-size:0.211667px;stroke-width:0.264583"
         id="path2809" />
    </g>
    <g
       aria-label="CIT"
       id="text959"
       style="font-size:0.211667px;line-height:1.25;font-family:'Minion Pro';-inkscape-font-specification:'Minion Pro';letter-spacing:0px;stroke-width:0.264583">
      <path
         d="m 116.75837,88.270068 c -0.0112,0.02201 -0.022,0.03281 -0.0434,0.03281 -0.0315,0 -0.0554,-0.02625 -0.0554,-0.06562 0,-0.03175 0.0188,-0.06117 0.0542,-0.06117 0.0231,0 0.0351,0.0093 0.0408,0.03175 l 0.007,-0.0017 c -0.001,-0.01207 -0.003,-0.02074 -0.004,-0.03281 -0.006,-0.0011 -0.0203,-0.0057 -0.0377,-0.0057 -0.0474,0 -0.0823,0.02921 -0.0823,0.07408 0,0.03323 0.0235,0.06985 0.0762,0.06985 0.0157,0 0.0337,-0.0042 0.0398,-0.0057 0.004,-0.0068 0.009,-0.02286 0.0121,-0.03302 z"
         style="font-size:0.211667px;stroke-width:0.264583"
         id="path2789" />
      <path
         d="m 116.83521,88.30838 v -0.007 c -0.0174,-0.0013 -0.0193,-0.0021 -0.0193,-0.02011 v -0.08319 c 0,-0.01799 0.002,-0.01905 0.0193,-0.02032 v -0.007 h -0.0569 v 0.007 c 0.0176,0.0013 0.0193,0.0023 0.0193,0.02032 v 0.08319 c 0,0.01778 -0.002,0.01884 -0.0193,0.02011 v 0.007 z"
         style="font-size:0.211667px;stroke-width:0.264583"
         id="path2791" />
      <path
         d="m 116.97089,88.203393 c -0.001,-0.01228 -0.002,-0.02794 -0.002,-0.03789 h -0.005 c -0.003,0.004 -0.005,0.0053 -0.0108,0.0053 h -0.0838 c -0.006,0 -0.009,-4.24e-4 -0.0119,-0.0053 h -0.005 c -4.2e-4,0.01185 -0.001,0.02561 -0.003,0.03874 h 0.007 c 0.003,-0.0095 0.004,-0.01566 0.007,-0.01926 0.003,-0.0044 0.007,-0.0061 0.0235,-0.0061 h 0.0138 v 0.102658 c 0,0.01693 -0.002,0.01863 -0.0216,0.0199 v 0.007 h 0.0622 v -0.007 c -0.0205,-0.0013 -0.0222,-0.0032 -0.0222,-0.0199 V 88.17884 h 0.015 c 0.0155,0 0.0186,0.0015 0.0222,0.0064 0.003,0.0032 0.005,0.0087 0.007,0.01884 z"
         style="font-size:0.211667px;stroke-width:0.264583"
         id="path2793" />
    </g>
    <g
       aria-label="FIT"
       id="text963"
       style="font-size:0.211667px;line-height:1.25;font-family:'Minion Pro';-inkscape-font-specification:'Minion Pro';letter-spacing:0px;stroke-width:0.264583">
      <path
         d="m 109.61192,88.468729 c -0.001,-0.01058 -0.002,-0.02392 -0.002,-0.03175 h -0.0948 v 0.0068 c 0.0167,0.0013 0.0184,0.0023 0.0184,0.02032 v 0.08319 c 0,0.01799 -0.002,0.01905 -0.0188,0.02032 v 0.007 h 0.0588 v -0.007 c -0.0197,-0.0015 -0.0216,-0.0023 -0.0216,-0.02032 v -0.03725 h 0.0216 c 0.0193,0 0.0201,0.0021 0.0229,0.01693 h 0.007 v -0.0417 h -0.007 c -0.003,0.01397 -0.004,0.01566 -0.0229,0.01566 h -0.0216 v -0.04911 c 0,-0.0063 6.4e-4,-0.0068 0.007,-0.0068 h 0.0169 c 0.015,0 0.0195,0.0017 0.0231,0.0072 0.003,0.0042 0.004,0.0085 0.006,0.01736 z"
         style="font-size:0.211667px;stroke-width:0.264583"
         id="path2782" />
      <path
         d="m 109.68515,88.574562 v -0.007 c -0.0173,-0.0013 -0.0193,-0.0021 -0.0193,-0.02011 v -0.08319 c 0,-0.01799 0.002,-0.01905 0.0193,-0.02032 v -0.007 h -0.0569 v 0.007 c 0.0176,0.0013 0.0193,0.0023 0.0193,0.02032 v 0.08319 c 0,0.01778 -0.002,0.01884 -0.0193,0.02011 v 0.007 z"
         style="font-size:0.211667px;stroke-width:0.264583"
         id="path2784" />
      <path
         d="m 109.82083,88.469575 c -0.001,-0.01228 -0.002,-0.02794 -0.002,-0.03789 h -0.005 c -0.003,0.004 -0.005,0.0053 -0.0108,0.0053 h -0.0838 c -0.006,0 -0.009,-4.24e-4 -0.0118,-0.0053 h -0.005 c -4.2e-4,0.01185 -0.001,0.02561 -0.003,0.03874 h 0.007 c 0.003,-0.0095 0.004,-0.01566 0.007,-0.01926 0.003,-0.0044 0.007,-0.0061 0.0235,-0.0061 h 0.0137 v 0.102658 c 0,0.01693 -0.002,0.01863 -0.0216,0.0199 v 0.007 h 0.0622 v -0.007 c -0.0205,-0.0013 -0.0222,-0.0032 -0.0222,-0.0199 v -0.102658 h 0.015 c 0.0155,0 0.0186,0.0015 0.0222,0.0064 0.003,0.0032 0.005,0.0087 0.007,0.01884 z"
         style="font-size:0.211667px;stroke-width:0.264583"
         id="path2786" />
    </g>
    <g
       aria-label="A"
       id="text967"
       style="font-size:0.211667px;line-height:1.25;font-family:'Minion Pro';-inkscape-font-specification:'Minion Pro';letter-spacing:0px;stroke-width:0.264583"
       transform="translate(6.3482,0.26634411)">
      <path
         d="m 110.52563,88.573502 v -0.007 c -0.014,-0.0015 -0.0169,-0.0034 -0.0235,-0.02138 -0.0133,-0.03577 -0.0277,-0.07662 -0.0408,-0.112395 l -0.007,0.0021 -0.0438,0.109855 c -0.007,0.01884 -0.0104,0.0199 -0.0241,0.0218 v 0.007 h 0.0474 v -0.007 c -0.0161,-0.0017 -0.0178,-0.0036 -0.0133,-0.01672 0.003,-0.0085 0.006,-0.01693 0.009,-0.0254 h 0.0459 c 0.004,0.01164 0.008,0.02244 0.011,0.03069 0.003,0.008 0.001,0.0097 -0.0127,0.01143 v 0.007 z m -0.0544,-0.05906 h -0.0387 c 0.006,-0.01757 0.0129,-0.03577 0.0197,-0.05376 h 4.2e-4 z"
         style="font-size:0.211667px;stroke-width:0.264583"
         id="path2779" />
    </g>
    <g
       aria-label="TÚŽ"
       id="text971"
       style="font-size:0.211667px;line-height:1.25;font-family:'Minion Pro';-inkscape-font-specification:'Minion Pro';letter-spacing:0px;stroke-width:0.264583">
      <path
         d="m 111.17231,88.753122 c -0.001,-0.01228 -0.002,-0.02794 -0.002,-0.03789 h -0.005 c -0.003,0.004 -0.005,0.0053 -0.0108,0.0053 h -0.0838 c -0.006,0 -0.009,-4.23e-4 -0.0119,-0.0053 h -0.005 c -4.3e-4,0.01185 -0.001,0.02561 -0.003,0.03874 h 0.007 c 0.003,-0.0095 0.004,-0.01566 0.007,-0.01926 0.003,-0.0044 0.007,-0.0061 0.0235,-0.0061 h 0.0138 v 0.102659 c 0,0.01693 -0.002,0.01863 -0.0216,0.0199 v 0.007 h 0.0622 v -0.007 c -0.0205,-0.0013 -0.0222,-0.0032 -0.0222,-0.0199 v -0.102659 h 0.015 c 0.0155,0 0.0186,0.0015 0.0222,0.0063 0.003,0.0032 0.005,0.0087 0.007,0.01884 z"
         style="font-size:0.211667px;stroke-width:0.264583"
         id="path2772" />
      <path
         d="m 111.33191,88.720525 h -0.0523 v 0.007 c 0.0152,0.0011 0.0201,0.0036 0.0212,0.01143 8.5e-4,0.0066 0.001,0.01524 0.001,0.03493 v 0.01524 c 0,0.03662 -0.011,0.05969 -0.04,0.05969 -0.0246,0 -0.0398,-0.01714 -0.0398,-0.05313 v -0.04741 c 0,-0.01863 0.002,-0.01969 0.0186,-0.02074 v -0.007 h -0.0561 v 0.007 c 0.0171,0.0015 0.019,0.0023 0.019,0.02074 v 0.05186 c 0,0.0254 0.006,0.04106 0.0186,0.0508 0.01,0.0072 0.022,0.01016 0.0345,0.01016 0.014,0 0.0286,-0.0044 0.0385,-0.0146 0.0123,-0.01291 0.0163,-0.03111 0.0163,-0.05652 v -0.01587 c 0,-0.0199 4.2e-4,-0.02879 0.001,-0.03471 8.5e-4,-0.0083 0.006,-0.01101 0.0186,-0.01185 z m -0.0413,-0.02307 c -6.3e-4,-0.0032 -0.007,-0.01228 -0.01,-0.01291 -0.0106,0.0068 -0.0229,0.01482 -0.0347,0.02223 l 0.003,0.0063 0.0409,-0.01376 z"
         style="font-size:0.211667px;stroke-width:0.264583"
         id="path2774" />
      <path
         d="m 111.45594,88.82022 c -0.004,0.01058 -0.007,0.01736 -0.0118,0.0218 -0.006,0.0063 -0.0142,0.0076 -0.0394,0.0076 -0.0142,0 -0.0275,-4.23e-4 -0.0347,-0.0013 0.0294,-0.04255 0.0586,-0.0834 0.0881,-0.124884 l -0.002,-0.003 h -0.0851 c -0.006,0 -0.009,-4.23e-4 -0.0112,-0.0053 h -0.006 c -4.2e-4,0.0099 -0.002,0.02498 -0.003,0.03958 h 0.007 c 0.002,-0.0095 0.005,-0.01503 0.008,-0.01884 0.004,-0.0051 0.007,-0.007 0.0294,-0.007 h 0.0362 c -0.0298,0.04276 -0.0599,0.08403 -0.0895,0.12573 l 0.002,0.0034 h 0.11091 c 0.002,-0.0083 0.006,-0.02858 0.008,-0.03641 z m -0.0243,-0.137372 c -0.009,0.0038 -0.0176,0.0087 -0.0263,0.01355 -0.009,-0.0053 -0.0178,-0.0097 -0.0264,-0.01355 l -0.004,0.0066 c 0.01,0.0072 0.019,0.01397 0.0275,0.02307 h 0.005 c 0.008,-0.0091 0.018,-0.01587 0.0275,-0.02307 z"
         style="font-size:0.211667px;stroke-width:0.264583"
         id="path2776" />
    </g>
    <g
       aria-label="HORU"
       id="text975"
       style="font-size:0.211667px;line-height:1.25;font-family:'Minion Pro';-inkscape-font-specification:'Minion Pro';letter-spacing:0px;stroke-width:0.264583">
      <path
         d="m 112.6963,88.709279 h -0.0565 v 0.007 c 0.0169,0.0013 0.0186,0.0023 0.0186,0.01969 v 0.03302 h -0.0722 v -0.03302 c 0,-0.01736 0.002,-0.01842 0.0184,-0.01969 v -0.007 h -0.0565 v 0.007 c 0.018,0.0013 0.0197,0.0021 0.0197,0.01969 v 0.08424 c 0,0.01757 -0.002,0.01841 -0.019,0.01968 v 0.007 h 0.0569 v -0.007 c -0.0176,-0.0013 -0.0195,-0.0023 -0.0195,-0.01968 v -0.04127 h 0.0722 v 0.04127 c 0,0.01757 -0.002,0.01841 -0.0203,0.01968 v 0.007 h 0.058 v -0.007 c -0.0176,-0.0013 -0.0193,-0.0021 -0.0193,-0.01968 v -0.08424 c 0,-0.01736 0.002,-0.01842 0.0195,-0.01969 z"
         style="font-size:0.211667px;stroke-width:0.264583"
         id="path2763" />
      <path
         d="m 112.78436,88.706104 c -0.0449,0 -0.072,0.03514 -0.072,0.07345 0,0.04106 0.0311,0.07048 0.0694,0.07048 0.0392,0 0.0715,-0.02752 0.0715,-0.07366 0,-0.04254 -0.0328,-0.07027 -0.0688,-0.07027 z m -0.004,0.0085 c 0.0273,0 0.0512,0.02286 0.0512,0.06752 0,0.04043 -0.0214,0.05948 -0.0447,0.05948 -0.0296,0 -0.0519,-0.02879 -0.0519,-0.06795 0,-0.03937 0.0218,-0.05905 0.0451,-0.05905 z"
         style="font-size:0.211667px;stroke-width:0.264583"
         id="path2765" />
      <path
         d="m 112.99666,88.842418 c -0.005,-0.0013 -0.01,-0.0038 -0.0155,-0.0097 -0.005,-0.0055 -0.009,-0.01037 -0.0169,-0.0218 -0.006,-0.0095 -0.015,-0.02371 -0.0188,-0.03048 0.0157,-0.0068 0.0269,-0.01799 0.0269,-0.0362 0,-0.0127 -0.006,-0.02222 -0.0144,-0.02773 -0.008,-0.0053 -0.0184,-0.0072 -0.0339,-0.0072 h -0.0536 v 0.007 c 0.0167,0.0013 0.0184,0.0019 0.0184,0.0199 v 0.0834 c 0,0.01799 -0.002,0.01905 -0.0195,0.02032 v 0.007 h 0.0567 v -0.007 c -0.0171,-0.0013 -0.019,-0.0025 -0.019,-0.02032 v -0.03239 h 0.007 c 0.0112,0 0.0148,0.0025 0.0184,0.0083 0.006,0.01016 0.0138,0.02349 0.0212,0.03365 0.01,0.01397 0.0188,0.01863 0.0341,0.01947 0.003,2.12e-4 0.005,2.12e-4 0.008,2.12e-4 z m -0.0895,-0.06308 v -0.0508 c 0,-0.0055 6.4e-4,-0.008 0.002,-0.0093 0.002,-0.0013 0.005,-0.0021 0.0114,-0.0021 0.0159,0 0.0313,0.008 0.0313,0.03048 0,0.01122 -0.003,0.01926 -0.0116,0.02561 -0.005,0.0044 -0.0123,0.0061 -0.0231,0.0061 z"
         style="font-size:0.211667px;stroke-width:0.264583"
         id="path2767" />
      <path
         d="m 113.14144,88.709279 h -0.0523 v 0.007 c 0.0152,0.0011 0.0201,0.0036 0.0212,0.01143 8.5e-4,0.0066 0.001,0.01524 0.001,0.03493 v 0.01524 c 0,0.03662 -0.011,0.05969 -0.04,0.05969 -0.0245,0 -0.0398,-0.01714 -0.0398,-0.05313 v -0.04741 c 0,-0.01863 0.002,-0.01969 0.0186,-0.02074 v -0.007 h -0.0561 v 0.007 c 0.0172,0.0015 0.019,0.0023 0.019,0.02074 v 0.05186 c 0,0.0254 0.006,0.04106 0.0186,0.0508 0.01,0.0072 0.022,0.01016 0.0345,0.01016 0.014,0 0.0286,-0.0044 0.0385,-0.0146 0.0123,-0.01291 0.0163,-0.03111 0.0163,-0.05652 v -0.01587 c 0,-0.0199 4.2e-4,-0.02879 0.001,-0.03471 8.5e-4,-0.0083 0.006,-0.01101 0.0186,-0.01185 z"
         style="font-size:0.211667px;stroke-width:0.264583"
         id="path2769" />
    </g>
    <g
       aria-label="RÚŽ"
       id="text979"
       style="font-size:0.211667px;line-height:1.25;font-family:'Minion Pro';-inkscape-font-specification:'Minion Pro';letter-spacing:0px;stroke-width:0.264583">
      <path
         d="m 111.97653,88.846507 c -0.005,-0.0013 -0.01,-0.0038 -0.0155,-0.0097 -0.005,-0.0055 -0.009,-0.01037 -0.0169,-0.0218 -0.006,-0.0095 -0.015,-0.02371 -0.0188,-0.03048 0.0157,-0.0068 0.0269,-0.01799 0.0269,-0.03619 0,-0.0127 -0.006,-0.02223 -0.0144,-0.02773 -0.008,-0.0053 -0.0184,-0.0072 -0.0339,-0.0072 h -0.0536 v 0.007 c 0.0167,0.0013 0.0184,0.0019 0.0184,0.0199 v 0.0834 c 0,0.01799 -0.002,0.01905 -0.0195,0.02032 v 0.007 h 0.0567 v -0.007 c -0.0171,-0.0013 -0.019,-0.0025 -0.019,-0.02032 v -0.03238 h 0.007 c 0.0112,0 0.0148,0.0025 0.0184,0.0083 0.006,0.01016 0.0138,0.0235 0.0212,0.03366 0.01,0.01397 0.0188,0.01863 0.0341,0.01947 0.003,2.12e-4 0.005,2.12e-4 0.008,2.12e-4 z m -0.0895,-0.06308 v -0.0508 c 0,-0.0055 6.3e-4,-0.008 0.002,-0.0093 0.002,-0.0013 0.005,-0.0021 0.0114,-0.0021 0.0159,0 0.0313,0.008 0.0313,0.03048 0,0.01122 -0.003,0.01926 -0.0116,0.02561 -0.005,0.0044 -0.0123,0.0061 -0.0231,0.0061 z"
         style="font-size:0.211667px;stroke-width:0.264583"
         id="path2756" />
      <path
         d="m 112.12131,88.713369 h -0.0523 v 0.007 c 0.0152,0.0011 0.0201,0.0036 0.0212,0.01143 8.4e-4,0.0066 0.001,0.01524 0.001,0.03493 v 0.01524 c 0,0.03662 -0.011,0.05969 -0.04,0.05969 -0.0246,0 -0.0398,-0.01714 -0.0398,-0.05313 v -0.04741 c 0,-0.01863 0.002,-0.01968 0.0186,-0.02074 v -0.007 h -0.0561 v 0.007 c 0.0171,0.0015 0.0191,0.0023 0.0191,0.02074 v 0.05186 c 0,0.0254 0.006,0.04106 0.0186,0.0508 0.01,0.0072 0.022,0.01016 0.0345,0.01016 0.014,0 0.0286,-0.0044 0.0385,-0.01461 0.0123,-0.01291 0.0163,-0.03111 0.0163,-0.05652 v -0.01587 c 0,-0.0199 4.2e-4,-0.02879 0.001,-0.03471 8.4e-4,-0.0083 0.006,-0.01101 0.0186,-0.01185 z m -0.0413,-0.02307 c -6.4e-4,-0.0032 -0.007,-0.01228 -0.01,-0.01291 -0.0106,0.0068 -0.0229,0.01482 -0.0347,0.02223 l 0.003,0.0063 0.0409,-0.01376 z"
         style="font-size:0.211667px;stroke-width:0.264583"
         id="path2758" />
      <path
         d="m 112.24535,88.813064 c -0.004,0.01058 -0.007,0.01736 -0.0118,0.0218 -0.006,0.0064 -0.0142,0.0076 -0.0394,0.0076 -0.0142,0 -0.0275,-4.23e-4 -0.0347,-0.0013 0.0294,-0.04255 0.0586,-0.0834 0.0881,-0.124883 l -0.002,-0.003 h -0.0851 c -0.006,0 -0.009,-4.24e-4 -0.0112,-0.0053 h -0.006 c -4.2e-4,0.0099 -0.002,0.02498 -0.003,0.03958 h 0.007 c 0.002,-0.0095 0.005,-0.01503 0.008,-0.01884 0.004,-0.0051 0.007,-0.007 0.0294,-0.007 h 0.0362 c -0.0298,0.04276 -0.0599,0.08403 -0.0895,0.12573 l 0.002,0.0034 h 0.11092 c 0.002,-0.0083 0.006,-0.02858 0.008,-0.03641 z m -0.0243,-0.137372 c -0.009,0.0038 -0.0176,0.0087 -0.0263,0.01355 -0.009,-0.0053 -0.0178,-0.0097 -0.0265,-0.01355 l -0.004,0.0066 c 0.01,0.0072 0.019,0.01397 0.0275,0.02307 h 0.005 c 0.008,-0.0091 0.018,-0.01588 0.0275,-0.02307 z"
         style="font-size:0.211667px;stroke-width:0.264583"
         id="path2760" />
    </g>
    <g
       aria-label="DO"
       id="text983"
       style="font-size:0.211667px;line-height:1.25;font-family:'Minion Pro';-inkscape-font-specification:'Minion Pro';letter-spacing:0px;stroke-width:0.264583">
      <path
         d="m 108.72542,88.963506 v 0.007 c 0.0167,0.0013 0.0184,0.0021 0.0184,0.0199 v 0.08361 c 0,0.01799 -0.002,0.01905 -0.0203,0.02032 v 0.0068 h 0.051 c 0.0265,0 0.047,-0.0053 0.0631,-0.01736 0.0165,-0.01249 0.0265,-0.03133 0.0265,-0.05673 0,-0.0199 -0.008,-0.03556 -0.018,-0.04551 -0.0133,-0.0127 -0.0335,-0.01799 -0.0605,-0.01799 z m 0.0368,0.02244 c 0,-0.0076 6.3e-4,-0.01016 0.003,-0.01164 0.002,-0.0017 0.008,-0.003 0.0173,-0.003 0.0144,0 0.0267,0.003 0.0362,0.0089 0.0165,0.0099 0.0245,0.02858 0.0245,0.04974 0,0.03366 -0.0186,0.06265 -0.058,0.06265 -0.0161,0 -0.0226,-0.0042 -0.0226,-0.02011 z"
         style="font-size:0.211667px;stroke-width:0.264583"
         id="path2751" />
      <path
         d="m 108.95952,88.960331 c -0.0449,0 -0.072,0.03514 -0.072,0.07345 0,0.04106 0.0311,0.07049 0.0694,0.07049 0.0392,0 0.0715,-0.02752 0.0715,-0.07366 0,-0.04254 -0.0328,-0.07027 -0.0688,-0.07027 z m -0.004,0.0085 c 0.0273,0 0.0512,0.02286 0.0512,0.06752 0,0.04043 -0.0214,0.05948 -0.0447,0.05948 -0.0296,0 -0.0519,-0.02879 -0.0519,-0.06795 0,-0.03937 0.0218,-0.05905 0.0451,-0.05905 z"
         style="font-size:0.211667px;stroke-width:0.264583"
         id="path2753" />
    </g>
    <g
       aria-label="BEH"
       id="text991"
       style="font-size:0.211667px;line-height:1.25;font-family:'Minion Pro';-inkscape-font-specification:'Minion Pro';letter-spacing:0px;stroke-width:0.264583">
      <path
         d="m 114.3083,89.026159 c 0.011,-0.0032 0.0277,-0.01143 0.0277,-0.03133 0,-0.0097 -0.004,-0.01926 -0.0118,-0.02434 -0.007,-0.0044 -0.0161,-0.007 -0.032,-0.007 h -0.0557 v 0.0068 c 0.0174,0.0013 0.018,0.0025 0.018,0.0199 v 0.08403 c 0,0.01736 -0.001,0.01863 -0.0197,0.0199 v 0.007 h 0.0476 c 0.0169,0 0.0311,-0.0025 0.0421,-0.0085 0.0127,-0.007 0.0205,-0.01799 0.0205,-0.03217 0,-0.02159 -0.0163,-0.03069 -0.0368,-0.03387 z m -0.0354,-0.0023 v -0.04043 c 0,-0.0066 8.5e-4,-0.0089 0.003,-0.01016 0.002,-0.0013 0.007,-0.0023 0.0125,-0.0023 0.0199,0 0.0281,0.01207 0.0281,0.02646 0,0.01757 -0.0102,0.02646 -0.0328,0.02646 z m 0,0.008 h 0.01 c 0.0254,0 0.0409,0.0089 0.0409,0.03048 0,0.02201 -0.0157,0.03048 -0.033,0.03069 -0.014,2.12e-4 -0.0178,-0.0038 -0.0178,-0.01884 z"
         style="font-size:0.211667px;stroke-width:0.264583"
         id="path2735" />
      <path
         d="m 114.46345,89.066164 c -0.003,0.0087 -0.007,0.01587 -0.0106,0.0199 -0.005,0.0055 -0.0112,0.007 -0.0265,0.007 -0.0106,0 -0.0182,0 -0.0222,-0.0028 -0.004,-0.0025 -0.005,-0.0072 -0.005,-0.01714 v -0.03874 h 0.0199 c 0.0184,0 0.0199,8.47e-4 0.0229,0.0163 h 0.007 v -0.04127 h -0.007 c -0.003,0.01439 -0.004,0.01587 -0.0229,0.01587 h -0.0199 v -0.04699 c 0,-0.0063 4.3e-4,-0.0068 0.007,-0.0068 h 0.0169 c 0.0146,0 0.0203,0.0015 0.0231,0.0059 0.003,0.0049 0.005,0.0093 0.007,0.0182 l 0.007,-8.46e-4 c -8.5e-4,-0.01207 -0.002,-0.02667 -0.002,-0.03133 h -0.0961 v 0.0068 c 0.0167,0.0013 0.0184,0.0021 0.0184,0.02074 v 0.08297 c 0,0.01714 -0.002,0.01884 -0.0212,0.02032 v 0.0068 h 0.10393 c 0.002,-0.0063 0.006,-0.02709 0.008,-0.03408 z"
         style="font-size:0.211667px;stroke-width:0.264583"
         id="path2737" />
      <path
         d="m 114.63194,88.963506 h -0.0565 v 0.007 c 0.0169,0.0013 0.0186,0.0023 0.0186,0.01969 v 0.03302 h -0.0722 v -0.03302 c 0,-0.01736 0.002,-0.01842 0.0184,-0.01969 v -0.007 h -0.0565 v 0.007 c 0.018,0.0013 0.0197,0.0021 0.0197,0.01969 v 0.08424 c 0,0.01757 -0.002,0.01841 -0.0191,0.01968 v 0.007 h 0.0569 v -0.007 c -0.0176,-0.0013 -0.0195,-0.0023 -0.0195,-0.01968 v -0.04128 h 0.0722 v 0.04128 c 0,0.01757 -0.002,0.01841 -0.0203,0.01968 v 0.007 h 0.058 v -0.007 c -0.0176,-0.0013 -0.0193,-0.0021 -0.0193,-0.01968 v -0.08424 c 0,-0.01736 0.002,-0.01842 0.0195,-0.01969 z"
         style="font-size:0.211667px;stroke-width:0.264583"
         id="path2739" />
    </g>
    <g
       aria-label="CER"
       id="text995"
       style="font-size:0.211667px;line-height:1.25;font-family:'Minion Pro';-inkscape-font-specification:'Minion Pro';letter-spacing:0px;stroke-width:0.264583">
      <path
         d="m 112.7705,89.327358 c -0.0112,0.02201 -0.022,0.03281 -0.0434,0.03281 -0.0315,0 -0.0555,-0.02625 -0.0555,-0.06562 0,-0.03175 0.0188,-0.06117 0.0542,-0.06117 0.0231,0 0.0351,0.0093 0.0408,0.03175 l 0.007,-0.0017 c -0.001,-0.01207 -0.003,-0.02074 -0.004,-0.03281 -0.006,-0.0011 -0.0203,-0.0057 -0.0377,-0.0057 -0.0474,0 -0.0823,0.02921 -0.0823,0.07408 0,0.03323 0.0235,0.06985 0.0762,0.06985 0.0157,0 0.0337,-0.0042 0.0398,-0.0057 0.004,-0.0068 0.009,-0.02286 0.0121,-0.03302 z"
         style="font-size:0.211667px;stroke-width:0.264583"
         id="path2728" />
      <path
         d="m 112.89263,89.330744 c -0.003,0.0087 -0.007,0.01588 -0.0106,0.0199 -0.005,0.0055 -0.0112,0.007 -0.0264,0.007 -0.0106,0 -0.0182,0 -0.0222,-0.0028 -0.004,-0.0025 -0.005,-0.0072 -0.005,-0.01714 v -0.03874 h 0.0199 c 0.0184,0 0.0199,8.47e-4 0.0229,0.0163 h 0.007 v -0.04128 h -0.007 c -0.003,0.01439 -0.004,0.01587 -0.0229,0.01587 h -0.0199 v -0.04699 c 0,-0.0063 4.2e-4,-0.0068 0.007,-0.0068 h 0.0169 c 0.0146,0 0.0203,0.0015 0.0231,0.0059 0.003,0.0049 0.005,0.0093 0.007,0.0182 l 0.007,-8.47e-4 c -8.5e-4,-0.01206 -0.002,-0.02667 -0.002,-0.03133 h -0.0961 v 0.0068 c 0.0167,0.0013 0.0184,0.0021 0.0184,0.02074 v 0.08297 c 0,0.01714 -0.002,0.01884 -0.0212,0.02032 v 0.0068 h 0.10393 c 0.002,-0.0063 0.006,-0.02709 0.008,-0.03408 z"
         style="font-size:0.211667px;stroke-width:0.264583"
         id="path2730" />
      <path
         d="m 113.04016,89.361224 c -0.005,-0.0013 -0.01,-0.0038 -0.0155,-0.0097 -0.005,-0.0055 -0.009,-0.01037 -0.0169,-0.0218 -0.006,-0.0095 -0.015,-0.02371 -0.0188,-0.03048 0.0157,-0.0068 0.0269,-0.01799 0.0269,-0.03619 0,-0.0127 -0.006,-0.02223 -0.0144,-0.02773 -0.008,-0.0053 -0.0184,-0.0072 -0.0339,-0.0072 h -0.0536 v 0.007 c 0.0167,0.0013 0.0184,0.0019 0.0184,0.0199 v 0.0834 c 0,0.01799 -0.002,0.01905 -0.0195,0.02032 v 0.007 h 0.0567 v -0.007 c -0.0172,-0.0013 -0.019,-0.0025 -0.019,-0.02032 v -0.03239 h 0.007 c 0.0112,0 0.0148,0.0025 0.0184,0.0083 0.006,0.01016 0.0138,0.02349 0.0212,0.03365 0.01,0.01397 0.0188,0.01863 0.0341,0.01947 0.003,2.11e-4 0.005,2.11e-4 0.008,2.11e-4 z m -0.0895,-0.06308 v -0.0508 c 0,-0.0055 6.3e-4,-0.008 0.002,-0.0093 0.002,-0.0013 0.005,-0.0021 0.0114,-0.0021 0.0159,0 0.0313,0.008 0.0313,0.03048 0,0.01122 -0.003,0.01926 -0.0116,0.02561 -0.005,0.0044 -0.0123,0.0061 -0.0231,0.0061 z"
         style="font-size:0.211667px;stroke-width:0.264583"
         id="path2732" />
    </g>
    <g
       aria-label="A"
       id="text999"
       style="font-size:0.211667px;line-height:1.25;font-family:'Minion Pro';-inkscape-font-specification:'Minion Pro';letter-spacing:0px;stroke-width:0.264583">
      <path
         d="m 113.70839,89.367256 v -0.007 c -0.014,-0.0015 -0.0169,-0.0034 -0.0235,-0.02138 -0.0133,-0.03577 -0.0277,-0.07662 -0.0409,-0.112395 l -0.007,0.0021 -0.0438,0.109855 c -0.007,0.01884 -0.0104,0.0199 -0.0241,0.0218 v 0.007 h 0.0474 v -0.007 c -0.0161,-0.0017 -0.0178,-0.0036 -0.0133,-0.01672 0.003,-0.0085 0.006,-0.01693 0.009,-0.0254 h 0.0459 c 0.004,0.01164 0.008,0.02244 0.011,0.03069 0.003,0.008 0.001,0.0097 -0.0127,0.01143 v 0.007 z m -0.0544,-0.05906 h -0.0387 c 0.006,-0.01757 0.0129,-0.03577 0.0197,-0.05376 h 4.3e-4 z"
         style="font-size:0.211667px;stroke-width:0.264583"
         id="path2725" />
    </g>
    <g
       aria-label="O"
       id="text1003"
       style="font-size:0.211667px;line-height:1.25;font-family:'Minion Pro';-inkscape-font-specification:'Minion Pro';letter-spacing:0px;stroke-width:0.264583">
      <path
         d="m 108.87751,89.48949 c -0.0449,0 -0.072,0.03514 -0.072,0.07345 0,0.04106 0.0311,0.07049 0.0694,0.07049 0.0392,0 0.0715,-0.02752 0.0715,-0.07366 0,-0.04255 -0.0328,-0.07027 -0.0688,-0.07027 z m -0.004,0.0085 c 0.0273,0 0.0512,0.02286 0.0512,0.06752 0,0.04043 -0.0214,0.05948 -0.0447,0.05948 -0.0296,0 -0.0519,-0.02879 -0.0519,-0.06794 0,-0.03937 0.0218,-0.05906 0.0451,-0.05906 z"
         style="font-size:0.211667px;stroke-width:0.264583"
         id="path2722" />
    </g>
    <g
       aria-label="K"
       id="text1015"
       style="font-size:0.211667px;line-height:1.25;font-family:'Minion Pro';-inkscape-font-specification:'Minion Pro';letter-spacing:0px;stroke-width:0.264583">
      <path
         d="m 112.9121,89.630249 v -0.007 c -0.01,-0.0011 -0.0148,-0.003 -0.0256,-0.01439 -0.0108,-0.01143 -0.0337,-0.03768 -0.0495,-0.05757 0.014,-0.01397 0.0288,-0.029 0.0368,-0.0362 0.0131,-0.01185 0.0184,-0.01397 0.0349,-0.01545 v -0.007 h -0.0525 v 0.007 l 0.005,6.35e-4 c 0.009,0.0011 0.009,0.0032 0.003,0.01016 -0.01,0.01185 -0.0226,0.02519 -0.0345,0.03641 -0.006,0.0059 -0.0106,0.0087 -0.0155,0.0097 v -0.03598 c 0,-0.01842 0.002,-0.01969 0.0188,-0.02096 v -0.007 h -0.0561 v 0.007 c 0.0174,0.0013 0.0191,0.0023 0.0191,0.02096 v 0.08191 c 0,0.01799 -0.002,0.01947 -0.0182,0.02074 v 0.007 h 0.0563 v -0.007 c -0.0178,-0.0013 -0.0199,-0.0028 -0.0199,-0.02074 v -0.03958 c 0.004,-8.47e-4 0.007,-2.12e-4 0.0123,0.0057 0.0197,0.02328 0.0362,0.0436 0.0521,0.0616 z"
         style="font-size:0.211667px;stroke-width:0.264583"
         id="path2705" />
    </g>
    <g
       id="g1030"
       transform="translate(0,-0.00121014)">
      <g
         aria-label="0"
         id="text1019"
         style="font-size:0.211667px;line-height:1.25;font-family:'Minion Pro';-inkscape-font-specification:'Minion Pro';letter-spacing:0px;stroke-width:0.264583">
        <path
           d="m 116.02,89.229613 c -0.0322,0 -0.0438,0.03746 -0.0438,0.06837 0,0.0345 0.0114,0.06858 0.0438,0.06858 0.032,0 0.0434,-0.03768 0.0434,-0.06858 0,-0.03323 -0.0114,-0.06837 -0.0432,-0.06837 z m 0,0.0078 c 0.0186,0 0.0241,0.03048 0.0241,0.06033 0,0.02963 -0.005,0.06075 -0.0239,0.06075 -0.0184,0 -0.0248,-0.03133 -0.0248,-0.06075 0,-0.02942 0.005,-0.06033 0.0243,-0.06033 z"
           style="font-size:0.211667px;stroke-width:0.264583"
           id="path2702" />
      </g>
      <path
         style="fill:none;stroke:#000000;stroke-width:0.0062406;stroke-linecap:round;stroke-linejoin:round;stroke-miterlimit:4;stroke-dasharray:none;stroke-opacity:1"
         d="m 115.95738,89.359281 0.12482,-0.124813"
         id="path1025" />
    </g>
    <g
       aria-label="KRÚŽ"
       id="text974"
       style="font-size:0.211667px;line-height:1.25;font-family:'Minion Pro';-inkscape-font-specification:'Minion Pro';letter-spacing:0px;stroke-width:0.264583">
      <path
         d="m 114.28795,88.319183 v -0.007 c -0.01,-0.0011 -0.0148,-0.003 -0.0256,-0.01439 -0.0108,-0.01143 -0.0337,-0.03768 -0.0495,-0.05757 0.014,-0.01397 0.0288,-0.029 0.0368,-0.0362 0.0131,-0.01185 0.0184,-0.01397 0.0349,-0.01545 v -0.007 h -0.0525 v 0.007 l 0.005,6.35e-4 c 0.009,0.0011 0.009,0.0032 0.003,0.01016 -0.01,0.01185 -0.0227,0.02519 -0.0345,0.03641 -0.006,0.0059 -0.0106,0.0087 -0.0155,0.0097 v -0.03598 c 0,-0.01842 0.002,-0.01969 0.0188,-0.02096 v -0.007 h -0.0561 v 0.007 c 0.0174,0.0013 0.0191,0.0023 0.0191,0.02096 v 0.08191 c 0,0.01799 -0.002,0.01947 -0.0182,0.02074 v 0.007 h 0.0563 v -0.007 c -0.0178,-0.0013 -0.0199,-0.0028 -0.0199,-0.02074 v -0.03958 c 0.004,-8.46e-4 0.007,-2.11e-4 0.0123,0.0057 0.0197,0.02328 0.0362,0.0436 0.0521,0.06159 z"
         style="font-size:0.211667px;stroke-width:0.264583"
         id="path1135" />
      <path
         d="m 114.42511,88.314738 c -0.005,-0.0013 -0.01,-0.0038 -0.0155,-0.0097 -0.005,-0.0055 -0.009,-0.01037 -0.0169,-0.0218 -0.006,-0.0095 -0.015,-0.02371 -0.0188,-0.03048 0.0157,-0.0068 0.0269,-0.01799 0.0269,-0.03619 0,-0.0127 -0.006,-0.02223 -0.0144,-0.02773 -0.008,-0.0053 -0.0184,-0.0072 -0.0339,-0.0072 h -0.0536 v 0.007 c 0.0167,0.0013 0.0184,0.0019 0.0184,0.0199 v 0.0834 c 0,0.01799 -0.002,0.01905 -0.0195,0.02032 v 0.007 h 0.0567 v -0.007 c -0.0171,-0.0013 -0.019,-0.0025 -0.019,-0.02032 v -0.03238 h 0.007 c 0.0112,0 0.0148,0.0025 0.0184,0.0083 0.006,0.01016 0.0138,0.02349 0.0212,0.03365 0.01,0.01397 0.0188,0.01863 0.0341,0.01947 0.003,2.11e-4 0.005,2.11e-4 0.008,2.11e-4 z m -0.0895,-0.06308 v -0.0508 c 0,-0.0055 6.4e-4,-0.008 0.002,-0.0093 0.002,-0.0013 0.005,-0.0021 0.0114,-0.0021 0.0159,0 0.0313,0.008 0.0313,0.03048 0,0.01122 -0.003,0.01926 -0.0117,0.02561 -0.005,0.0044 -0.0123,0.0061 -0.0231,0.0061 z"
         style="font-size:0.211667px;stroke-width:0.264583"
         id="path1137" />
      <path
         d="m 114.56989,88.1816 h -0.0523 v 0.007 c 0.0152,0.0011 0.0201,0.0036 0.0212,0.01143 8.5e-4,0.0066 0.001,0.01524 0.001,0.03493 v 0.01524 c 0,0.03662 -0.011,0.05969 -0.04,0.05969 -0.0246,0 -0.0398,-0.01714 -0.0398,-0.05313 v -0.04741 c 0,-0.01863 0.002,-0.01968 0.0186,-0.02074 v -0.007 h -0.0561 v 0.007 c 0.0171,0.0015 0.0191,0.0023 0.0191,0.02074 v 0.05186 c 0,0.0254 0.006,0.04106 0.0186,0.0508 0.01,0.0072 0.022,0.01016 0.0345,0.01016 0.014,0 0.0286,-0.0044 0.0385,-0.01461 0.0123,-0.01291 0.0163,-0.03111 0.0163,-0.05652 v -0.01587 c 0,-0.0199 4.2e-4,-0.02879 0.001,-0.03471 8.5e-4,-0.0083 0.006,-0.01101 0.0186,-0.01185 z m -0.0413,-0.02307 c -6.3e-4,-0.0032 -0.007,-0.01228 -0.01,-0.01291 -0.0106,0.0068 -0.0229,0.01482 -0.0347,0.02222 l 0.003,0.0063 0.0408,-0.01376 z"
         style="font-size:0.211667px;stroke-width:0.264583"
         id="path1139" />
      <path
         d="m 114.69392,88.281295 c -0.004,0.01058 -0.007,0.01736 -0.0119,0.0218 -0.006,0.0064 -0.0142,0.0076 -0.0394,0.0076 -0.0142,0 -0.0275,-4.24e-4 -0.0347,-0.0013 0.0294,-0.04255 0.0586,-0.0834 0.088,-0.124884 l -0.002,-0.003 h -0.0851 c -0.006,0 -0.009,-4.24e-4 -0.0112,-0.0053 h -0.006 c -4.2e-4,0.0099 -0.002,0.02498 -0.003,0.03958 h 0.007 c 0.002,-0.0095 0.005,-0.01503 0.008,-0.01884 0.004,-0.0051 0.007,-0.007 0.0294,-0.007 h 0.0362 c -0.0298,0.04276 -0.0599,0.08403 -0.0895,0.125731 l 0.002,0.0034 h 0.11091 c 0.002,-0.0083 0.006,-0.02857 0.008,-0.03641 z m -0.0243,-0.137372 c -0.009,0.0038 -0.0176,0.0087 -0.0262,0.01355 -0.009,-0.0053 -0.0178,-0.0097 -0.0265,-0.01355 l -0.004,0.0066 c 0.01,0.0072 0.0191,0.01397 0.0275,0.02307 h 0.005 c 0.008,-0.0091 0.018,-0.01588 0.0275,-0.02307 z"
         style="font-size:0.211667px;stroke-width:0.264583"
         id="path1141" />
    </g>
    <path
       id="rect972"
       style="fill:#000000;fill-opacity:1;stroke:none;stroke-width:0.105833;stroke-linejoin:round"
       d="m 108.47918,87.3125 h 0.79375 v 0.264583 h -0.79375 z" />
    <path
       id="rect974"
       style="fill:#000000;fill-opacity:1;stroke:none;stroke-width:0.105833;stroke-linejoin:round"
       d="m 115.62289,88.370842 h 0.79375 v 0.264583 h -0.79375 z" />
    <path
       id="rect976"
       style="fill:#000000;fill-opacity:1;stroke:none;stroke-width:0.105833;stroke-linejoin:round"
       d="m 114.82915,88.635422 h 0.79375 v 0.264583 h -0.79375 z" />
    <path
       id="rect978"
       style="fill:#000000;fill-opacity:1;stroke:none;stroke-width:0.105833;stroke-linejoin:round"
       d="m 114.82915,88.370842 h 0.79375 v 0.264583 h -0.79375 z" />
    <path
       id="rect980"
       style="fill:#000000;fill-opacity:1;stroke:none;stroke-width:0.105833;stroke-linejoin:round"
       d="m 114.0354,88.370842 h 0.79375 v 0.264583 h -0.79375 z" />
    <path
       id="rect982"
       style="fill:#000000;fill-opacity:1;stroke:none;stroke-width:0.105833;stroke-linejoin:round"
       d="m 114.0354,88.635422 h 0.79375 v 0.264583 h -0.79375 z" />
    <path
       id="rect984"
       style="fill:#000000;fill-opacity:1;stroke:none;stroke-width:0.105833;stroke-linejoin:round"
       d="m 112.44791,87.841682 h 0.79375 v 0.264583 h -0.79375 z" />
    <path
       id="rect986"
       style="fill:#000000;fill-opacity:1;stroke:none;stroke-width:0.105833;stroke-linejoin:round"
       d="m 111.65417,87.84166 h 0.79375 v 0.264583 h -0.79375 z" />
    <path
       id="rect988"
       style="fill:#000000;fill-opacity:1;stroke:none;stroke-width:0.105833;stroke-linejoin:round"
       d="m 110.86042,87.84166 h 0.79375 v 0.264583 h -0.79375 z" />
    <path
       id="rect990"
       style="fill:#000000;fill-opacity:1;stroke:none;stroke-width:0.105833;stroke-linejoin:round"
       d="m 110.06667,87.84166 h 0.79375 v 0.264583 h -0.79375 z" />
    <path
       id="rect992"
       style="fill:#000000;fill-opacity:1;stroke:none;stroke-width:0.105833;stroke-linejoin:round"
       d="m 110.86042,87.57708 h 0.79375 v 0.264583 h -0.79375 z" />
    <path
       id="rect994"
       style="fill:#000000;fill-opacity:1;stroke:none;stroke-width:0.105833;stroke-linejoin:round"
       d="m 113.24165,88.106262 h 0.79375 v 0.264583 h -0.79375 z" />
    <path
       id="rect996"
       style="fill:#000000;fill-opacity:1;stroke:none;stroke-width:0.105833;stroke-linejoin:round"
       d="m 113.24165,88.370842 h 0.79375 v 0.264583 h -0.79375 z" />
    <path
       id="rect998"
       style="fill:#000000;fill-opacity:1;stroke:none;stroke-width:0.105833;stroke-linejoin:round"
       d="m 113.24165,88.635422 h 0.79375 v 0.264583 h -0.79375 z" />
    <path
       id="rect1000"
       style="fill:#000000;fill-opacity:1;stroke:none;stroke-width:0.105833;stroke-linejoin:round"
       d="m 112.44791,88.900002 h 0.79375 v 0.264583 h -0.79375 z" />
    <path
       id="rect1002"
       style="fill:#000000;fill-opacity:1;stroke:none;stroke-width:0.105833;stroke-linejoin:round"
       d="m 111.65417,88.900002 h 0.79375 v 0.264583 h -0.79375 z" />
    <path
       id="rect1004"
       style="fill:#000000;fill-opacity:1;stroke:none;stroke-width:0.105833;stroke-linejoin:round"
       d="m 110.86042,88.900002 h 0.79375 v 0.264583 h -0.79375 z" />
    <path
       id="rect1006"
       style="fill:#000000;fill-opacity:1;stroke:none;stroke-width:0.105833;stroke-linejoin:round"
       d="m 111.65417,89.429169 h 0.79375 v 0.264583 h -0.79375 z" />
    <path
       id="rect1008"
       style="fill:#000000;fill-opacity:1;stroke:none;stroke-width:0.105833;stroke-linejoin:round"
       d="m 110.86042,89.429169 h 0.79375 v 0.264583 h -0.79375 z" />
    <path
       id="rect1010"
       style="fill:#000000;fill-opacity:1;stroke:none;stroke-width:0.105833;stroke-linejoin:round"
       d="m 110.06667,89.429169 h 0.79375 v 0.264583 h -0.79375 z" />
    <path
       id="rect1012"
       style="fill:#000000;fill-opacity:1;stroke:none;stroke-width:0.105833;stroke-linejoin:round"
       d="m 109.27293,89.429161 h 0.79375 v 0.264583 h -0.79375 z" />
    <path
       id="rect1014"
       style="fill:#000000;fill-opacity:1;stroke:none;stroke-width:0.105833;stroke-linejoin:round"
       d="m 110.06667,89.164581 h 0.79375 v 0.264583 h -0.79375 z" />
    <path
       id="rect1016"
       style="fill:#000000;fill-opacity:1;stroke:none;stroke-width:0.105833;stroke-linejoin:round"
       d="m 110.06667,88.900002 h 0.79375 v 0.264583 h -0.79375 z" />
    <path
       id="rect1018"
       style="fill:#000000;fill-opacity:1;stroke:none;stroke-width:0.105833;stroke-linejoin:round"
       d="m 109.27292,88.900002 h 0.79375 v 0.264583 h -0.79375 z" />
    <path
       id="rect1022"
       style="fill:#000000;fill-opacity:1;stroke:none;stroke-width:0.105833;stroke-linejoin:round"
       d="m 108.47917,88.370834 h 0.79375 v 0.264583 h -0.79375 z" />
    <path
       id="rect1024"
       style="fill:#000000;fill-opacity:1;stroke:none;stroke-width:0.105833;stroke-linejoin:round"
       d="m 108.47917,88.635422 h 0.79375 v 0.264583 h -0.79375 z" />
    <path
       id="rect1026"
       style="fill:#000000;fill-opacity:1;stroke:none;stroke-width:0.105833;stroke-linejoin:round"
       d="m 115.62292,87.3125 h 0.79375 v 0.264583 h -0.79375 z" />
    <path
       id="rect1028"
       style="fill:#000000;fill-opacity:1;stroke:none;stroke-width:0.105833;stroke-linejoin:round"
       d="m 113.24168,87.3125 h 0.79375 v 0.264583 h -0.79375 z" />
    <path
       id="rect1030"
       style="fill:#000000;fill-opacity:1;stroke:none;stroke-width:0.105833;stroke-linejoin:round"
       d="m 112.44791,87.3125 h 0.79375 v 0.264583 h -0.79375 z" />
    <path
       id="rect1032"
       style="fill:#000000;fill-opacity:1;stroke:none;stroke-width:0.105833;stroke-linejoin:round"
       d="m 111.65417,87.3125 h 0.79375 v 0.264583 h -0.79375 z" />
    <path
       id="rect1034"
       style="fill:#000000;fill-opacity:1;stroke:none;stroke-width:0.105833;stroke-linejoin:round"
       d="m 110.86042,87.3125 h 0.79375 v 0.264583 h -0.79375 z" />
    <path
       id="rect1036"
       style="fill:#000000;fill-opacity:1;stroke:none;stroke-width:0.105833;stroke-linejoin:round"
       d="m 110.06667,87.3125 h 0.79375 v 0.264583 h -0.79375 z" />
    <path
       id="rect1038"
       style="fill:#000000;fill-opacity:1;stroke:none;stroke-width:0.105833;stroke-linejoin:round"
       d="m 109.27293,87.3125 h 0.79375 v 0.264583 h -0.79375 z" />
    <path
       id="rect972-5"
       style="fill:#000000;fill-opacity:1;stroke:none;stroke-width:0.105833;stroke-linejoin:round"
       d="m 115.62263,88.110901 h 0.79375 v 0.264583 h -0.79375 z" />
    <path
       id="rect972-9"
       style="fill:#000000;fill-opacity:1;stroke:none;stroke-width:0.105833;stroke-linejoin:round"
       d="m 115.62263,87.846321 h 0.79375 v 0.264583 h -0.79375 z" />
    <path
       id="rect972-94"
       style="fill:#000000;fill-opacity:1;stroke:none;stroke-width:0.105833;stroke-linejoin:round"
       d="m 116.41667,87.57708 h 0.79375 v 0.264583 h -0.79375 z" />
    <path
       id="rect972-55"
       style="fill:#000000;fill-opacity:1;stroke:none;stroke-width:0.105833;stroke-linejoin:round"
       d="m 115.62263,87.581741 h 0.79375 v 0.264583 h -0.79375 z" />
    <path
       id="rect972-3"
       style="fill:#000000;fill-opacity:1;stroke:none;stroke-width:0.105833;stroke-linejoin:round"
       d="m 114.82888,87.581741 h 0.79375 v 0.264583 h -0.79375 z" />
    <g
       aria-label="ALPY"
       id="text987"
       style="font-size:0.211667px;line-height:1.25;font-family:'Minion Pro';-inkscape-font-specification:'Minion Pro';letter-spacing:0px;stroke-width:0.264583;fill:#ffffff;fill-opacity:1">
      <path
         d="m 109.54979,89.102676 v -0.007 c -0.014,-0.0015 -0.0169,-0.0034 -0.0235,-0.02138 -0.0133,-0.03577 -0.0277,-0.07662 -0.0409,-0.112395 l -0.007,0.0021 -0.0438,0.109855 c -0.007,0.01884 -0.0104,0.0199 -0.0241,0.0218 v 0.007 h 0.0474 v -0.007 c -0.0161,-0.0017 -0.0178,-0.0036 -0.0133,-0.01672 0.003,-0.0085 0.006,-0.01693 0.009,-0.0254 h 0.0459 c 0.004,0.01164 0.008,0.02244 0.011,0.03069 0.003,0.008 0.001,0.0097 -0.0127,0.01143 v 0.007 z m -0.0544,-0.05906 h -0.0387 c 0.006,-0.01757 0.0129,-0.03577 0.0197,-0.05376 h 4.3e-4 z"
         style="font-size:0.211667px;stroke-width:0.264583;fill:#ffffff;fill-opacity:1"
         id="path2742" />
      <path
         d="m 109.65965,89.06754 c -0.003,0.0097 -0.007,0.01651 -0.011,0.02074 -0.005,0.0053 -0.0121,0.0063 -0.0231,0.0063 -0.009,0 -0.0161,-4.23e-4 -0.0203,-0.0028 -0.004,-0.0021 -0.005,-0.0061 -0.005,-0.01736 v -0.08234 c 0,-0.01799 0.002,-0.01905 0.0193,-0.02011 v -0.007 h -0.0567 v 0.007 c 0.0176,0.0013 0.019,0.0023 0.019,0.02011 v 0.08319 c 0,0.01778 -0.002,0.01905 -0.0197,0.02032 v 0.007 h 0.0971 c 0.002,-0.0063 0.007,-0.02688 0.008,-0.03387 z"
         style="font-size:0.211667px;stroke-width:0.264583;fill:#ffffff;fill-opacity:1"
         id="path2744" />
      <path
         d="m 109.67997,88.965093 v 0.0068 c 0.0161,8.47e-4 0.0178,0.0017 0.0178,0.02032 v 0.0834 c 0,0.01736 -0.002,0.01905 -0.019,0.02032 v 0.0068 h 0.059 v -0.0068 c -0.0197,-0.0013 -0.0216,-0.0023 -0.0216,-0.02011 v -0.03217 l 0.0159,0.004 c 0.002,2.12e-4 0.006,2.12e-4 0.01,-2.12e-4 0.0207,-0.0025 0.0415,-0.01609 0.0415,-0.0436 0,-0.01397 -0.005,-0.02392 -0.0138,-0.03006 -0.009,-0.0063 -0.0207,-0.0087 -0.036,-0.0087 z m 0.0362,0.01947 c 0,-0.0057 6.4e-4,-0.008 0.002,-0.0095 0.001,-0.0015 0.006,-0.0025 0.0118,-0.0025 0.0174,0 0.032,0.0093 0.032,0.03217 0,0.02625 -0.0165,0.03365 -0.0305,0.03365 -0.007,0 -0.0131,-0.0015 -0.0157,-0.0028 z"
         style="font-size:0.211667px;stroke-width:0.264583;fill:#ffffff;fill-opacity:1"
         id="path2746" />
      <path
         d="m 109.92508,88.965093 h -0.0483 v 0.007 c 0.0167,0.0017 0.0171,0.0034 0.0125,0.01376 -0.006,0.0127 -0.0169,0.03238 -0.0248,0.04635 -0.009,-0.01566 -0.0195,-0.03238 -0.0282,-0.04826 -0.004,-0.0074 -0.005,-0.0099 0.0106,-0.01185 v -0.007 h -0.0516 v 0.007 c 0.0129,0.0013 0.0155,0.0038 0.0239,0.01757 0.0112,0.01884 0.0188,0.03217 0.0269,0.04614 0.004,0.0063 0.004,0.0083 0.004,0.01249 v 0.02752 c 0,0.01757 -0.002,0.01884 -0.021,0.02011 v 0.0068 h 0.0612 v -0.0068 c -0.0201,-0.0013 -0.0218,-0.0028 -0.0218,-0.02011 v -0.02815 c 0,-0.0055 6.4e-4,-0.0078 0.003,-0.01291 0.0104,-0.01863 0.0174,-0.03048 0.0265,-0.04509 0.009,-0.01376 0.0114,-0.01609 0.0262,-0.01757 z"
         style="font-size:0.211667px;stroke-width:0.264583;fill:#ffffff;fill-opacity:1"
         id="path2748" />
    </g>
    <g
       aria-label="ChLP"
       id="text1007"
       style="font-size:0.211667px;line-height:1.25;font-family:'Minion Pro';-inkscape-font-specification:'Minion Pro';letter-spacing:0px;stroke-width:0.264583;fill:#ffffff;fill-opacity:1">
      <path
         d="m 109.54958,89.596698 c -0.0112,0.02201 -0.022,0.03281 -0.0434,0.03281 -0.0315,0 -0.0555,-0.02625 -0.0555,-0.06562 0,-0.03175 0.0188,-0.06117 0.0542,-0.06117 0.0231,0 0.0351,0.0093 0.0409,0.03175 l 0.007,-0.0017 c -0.001,-0.01207 -0.003,-0.02074 -0.004,-0.03281 -0.006,-0.0011 -0.0203,-0.0057 -0.0377,-0.0057 -0.0474,0 -0.0823,0.02921 -0.0823,0.07408 0,0.03323 0.0235,0.06985 0.0762,0.06985 0.0157,0 0.0336,-0.0042 0.0398,-0.0057 0.004,-0.0068 0.009,-0.02286 0.0121,-0.03302 z"
         style="font-size:0.211667px;stroke-width:0.264583;fill:#ffffff;fill-opacity:1"
         id="path2713" />
      <path
         d="m 109.67298,89.63501 v -0.0063 c -0.0125,-0.0011 -0.0142,-0.0023 -0.0142,-0.01609 v -0.03683 c 0,-0.02498 -0.0123,-0.0362 -0.0298,-0.0362 -0.0112,0 -0.0226,0.0078 -0.0303,0.01524 v -0.07006 c -0.008,0.0025 -0.0216,0.0059 -0.032,0.0074 v 0.0059 c 0.0142,0.0013 0.0148,0.0021 0.0148,0.01545 v 0.09906 c 0,0.01376 -0.002,0.01482 -0.0148,0.01609 v 0.0063 h 0.0457 v -0.0063 c -0.0127,-0.0013 -0.0138,-0.0025 -0.0138,-0.01609 v -0.04932 c 0.006,-0.0068 0.014,-0.01101 0.0222,-0.01101 0.014,0 0.0207,0.0085 0.0207,0.02582 v 0.0345 c 0,0.01355 -0.002,0.01482 -0.014,0.01609 v 0.0063 z"
         style="font-size:0.211667px;stroke-width:0.264583;fill:#ffffff;fill-opacity:1"
         id="path2715" />
      <path
         d="m 109.78305,89.599873 c -0.003,0.0097 -0.007,0.01651 -0.011,0.02074 -0.005,0.0053 -0.0121,0.0063 -0.0231,0.0063 -0.009,0 -0.0161,-4.23e-4 -0.0203,-0.0028 -0.004,-0.0021 -0.005,-0.0061 -0.005,-0.01736 v -0.08234 c 0,-0.01799 0.002,-0.01905 0.0193,-0.02011 v -0.007 h -0.0567 v 0.007 c 0.0176,0.0013 0.0191,0.0023 0.0191,0.02011 v 0.08319 c 0,0.01778 -0.002,0.01905 -0.0197,0.02032 v 0.007 h 0.0971 c 0.002,-0.0063 0.007,-0.02688 0.008,-0.03387 z"
         style="font-size:0.211667px;stroke-width:0.264583;fill:#ffffff;fill-opacity:1"
         id="path2717" />
      <path
         d="m 109.80337,89.497426 v 0.0068 c 0.0161,8.46e-4 0.0178,0.0017 0.0178,0.02032 v 0.0834 c 0,0.01736 -0.002,0.01905 -0.0191,0.02032 v 0.0068 h 0.059 v -0.0068 c -0.0197,-0.0013 -0.0216,-0.0023 -0.0216,-0.02011 v -0.03217 l 0.0159,0.004 c 0.002,2.12e-4 0.006,2.12e-4 0.01,-2.11e-4 0.0207,-0.0025 0.0415,-0.01609 0.0415,-0.0436 0,-0.01397 -0.005,-0.02392 -0.0138,-0.03006 -0.009,-0.0064 -0.0207,-0.0087 -0.036,-0.0087 z m 0.0362,0.01947 c 0,-0.0057 6.4e-4,-0.008 0.002,-0.0095 0.001,-0.0015 0.006,-0.0025 0.0118,-0.0025 0.0174,0 0.032,0.0093 0.032,0.03217 0,0.02625 -0.0165,0.03365 -0.0305,0.03365 -0.007,0 -0.0131,-0.0015 -0.0157,-0.0028 z"
         style="font-size:0.211667px;stroke-width:0.264583;fill:#ffffff;fill-opacity:1"
         id="path2719" />
    </g>
    <g
       aria-label="ChLÓR"
       id="text2932"
       style="font-size:0.211667px;line-height:1.25;font-family:'Minion Pro';-inkscape-font-specification:'Minion Pro';letter-spacing:0px;stroke-width:0.264583;fill:#ffffff;fill-opacity:1">
      <path
         d="m 110.24986,88.023196 c -0.0112,0.02201 -0.022,0.03281 -0.0434,0.03281 -0.0315,0 -0.0555,-0.02625 -0.0555,-0.06562 0,-0.03175 0.0188,-0.06117 0.0542,-0.06117 0.0231,0 0.0351,0.0093 0.0408,0.03175 l 0.007,-0.0017 c -0.001,-0.01206 -0.003,-0.02074 -0.004,-0.03281 -0.006,-0.0011 -0.0203,-0.0057 -0.0377,-0.0057 -0.0474,0 -0.0823,0.02921 -0.0823,0.07408 0,0.03323 0.0235,0.06985 0.0762,0.06985 0.0157,0 0.0337,-0.0042 0.0398,-0.0057 0.004,-0.0068 0.009,-0.02286 0.0121,-0.03302 z"
         style="font-size:0.211667px;stroke-width:0.264583;fill:#ffffff;fill-opacity:1"
         id="path2934" />
      <path
         d="m 110.37326,88.061508 v -0.0063 c -0.0125,-0.0011 -0.0142,-0.0023 -0.0142,-0.01609 v -0.03683 c 0,-0.02498 -0.0123,-0.03619 -0.0299,-0.03619 -0.0112,0 -0.0226,0.0078 -0.0303,0.01524 v -0.07006 c -0.008,0.0025 -0.0216,0.0059 -0.032,0.0074 v 0.0059 c 0.0142,0.0013 0.0148,0.0021 0.0148,0.01545 v 0.09906 c 0,0.01376 -0.002,0.01482 -0.0148,0.01609 v 0.0063 h 0.0457 v -0.0063 c -0.0127,-0.0013 -0.0138,-0.0025 -0.0138,-0.01609 v -0.04932 c 0.006,-0.0068 0.014,-0.01101 0.0222,-0.01101 0.014,0 0.0207,0.0085 0.0207,0.02582 v 0.0345 c 0,0.01355 -0.002,0.01482 -0.014,0.01609 v 0.0063 z"
         style="font-size:0.211667px;stroke-width:0.264583;fill:#ffffff;fill-opacity:1"
         id="path2936" />
      <path
         d="m 110.48333,88.026371 c -0.003,0.0097 -0.007,0.01651 -0.011,0.02074 -0.005,0.0053 -0.0121,0.0063 -0.0231,0.0063 -0.009,0 -0.0161,-4.24e-4 -0.0203,-0.0028 -0.004,-0.0021 -0.005,-0.0061 -0.005,-0.01736 v -0.08234 c 0,-0.01799 0.002,-0.01905 0.0193,-0.02011 v -0.007 h -0.0567 v 0.007 c 0.0176,0.0013 0.019,0.0023 0.019,0.02011 v 0.08319 c 0,0.01778 -0.002,0.01905 -0.0197,0.02032 v 0.007 h 0.0971 c 0.002,-0.0063 0.007,-0.02688 0.008,-0.03387 z"
         style="font-size:0.211667px;stroke-width:0.264583;fill:#ffffff;fill-opacity:1"
         id="path2938" />
      <path
         d="m 110.57371,87.92075 c -0.0449,0 -0.072,0.03514 -0.072,0.07345 0,0.04106 0.0311,0.07049 0.0694,0.07049 0.0392,0 0.0715,-0.02752 0.0715,-0.07366 0,-0.04255 -0.0328,-0.07027 -0.0688,-0.07027 z m -0.004,0.0085 c 0.0273,0 0.0512,0.02286 0.0512,0.06752 0,0.04043 -0.0214,0.05948 -0.0447,0.05948 -0.0296,0 -0.0519,-0.02879 -0.0519,-0.06795 0,-0.03937 0.0218,-0.05906 0.0451,-0.05906 z m 0.0318,-0.02984 c -6.3e-4,-0.0032 -0.007,-0.01228 -0.01,-0.01291 -0.0106,0.0068 -0.0229,0.01482 -0.0347,0.02223 l 0.003,0.0063 0.0408,-0.01376 z"
         style="font-size:0.211667px;stroke-width:0.264583;fill:#ffffff;fill-opacity:1"
         id="path2940" />
      <path
         d="m 110.78601,88.057063 c -0.005,-0.0013 -0.01,-0.0038 -0.0155,-0.0097 -0.005,-0.0055 -0.009,-0.01037 -0.0169,-0.0218 -0.006,-0.0095 -0.015,-0.02371 -0.0188,-0.03048 0.0157,-0.0068 0.0269,-0.01799 0.0269,-0.0362 0,-0.0127 -0.006,-0.02222 -0.0144,-0.02773 -0.008,-0.0053 -0.0184,-0.0072 -0.0339,-0.0072 h -0.0536 v 0.007 c 0.0167,0.0013 0.0184,0.0019 0.0184,0.0199 v 0.0834 c 0,0.01799 -0.002,0.01905 -0.0195,0.02032 v 0.007 h 0.0567 v -0.007 c -0.0171,-0.0013 -0.019,-0.0025 -0.019,-0.02032 v -0.03239 h 0.007 c 0.0112,0 0.0148,0.0025 0.0184,0.0083 0.006,0.01016 0.0138,0.02349 0.0212,0.03365 0.01,0.01397 0.0188,0.01863 0.0341,0.01947 0.003,2.11e-4 0.005,2.11e-4 0.008,2.11e-4 z m -0.0895,-0.06308 v -0.0508 c 0,-0.0055 6.4e-4,-0.008 0.002,-0.0093 0.002,-0.0013 0.005,-0.0021 0.0114,-0.0021 0.0159,0 0.0313,0.008 0.0313,0.03048 0,0.01122 -0.003,0.01926 -0.0116,0.02561 -0.005,0.0044 -0.0123,0.0061 -0.0231,0.0061 z"
         style="font-size:0.211667px;stroke-width:0.264583;fill:#ffffff;fill-opacity:1"
         id="path2942" />
    </g>
    <g
       aria-label="INOU"
       id="text915"
       style="font-size:0.211667px;line-height:1.25;font-family:'Minion Pro';-inkscape-font-specification:'Minion Pro';letter-spacing:0px;stroke-width:0.264583;fill:#ffffff;fill-opacity:1">
      <path
         d="m 111.04604,87.513588 v -0.007 c -0.0174,-0.0013 -0.0193,-0.0021 -0.0193,-0.02011 v -0.08319 c 0,-0.01799 0.002,-0.01905 0.0193,-0.02032 v -0.007 h -0.0569 v 0.007 c 0.0176,0.0013 0.0193,0.0023 0.0193,0.02032 v 0.08319 c 0,0.01778 -0.002,0.01884 -0.0193,0.02011 v 0.007 z"
         style="font-size:0.211667px;stroke-width:0.264583;fill:#ffffff;fill-opacity:1"
         id="path2874" />
      <path
         d="m 111.20924,87.376004 h -0.0521 v 0.0068 c 0.0148,8.46e-4 0.0201,0.0034 0.0212,0.0127 6.3e-4,0.0059 0.001,0.01566 0.001,0.03556 v 0.05016 h -6.4e-4 l -0.088,-0.105199 h -0.032 v 0.0068 c 0.01,8.46e-4 0.0148,0.0023 0.0191,0.0076 0.004,0.0051 0.004,0.0057 0.004,0.02096 v 0.04593 c 0,0.01905 -6.3e-4,0.02921 -0.001,0.03598 -0.001,0.0099 -0.007,0.0127 -0.0188,0.01333 v 0.007 h 0.0519 v -0.007 c -0.0146,-8.47e-4 -0.0197,-0.0034 -0.0207,-0.01397 -6.4e-4,-0.0061 -0.001,-0.0163 -0.001,-0.03535 v -0.05186 h 4.2e-4 l 0.0897,0.110067 h 0.007 v -0.08446 c 0,-0.0199 4.3e-4,-0.02963 0.001,-0.0362 0.001,-0.0087 0.006,-0.01143 0.0184,-0.01206 z"
         style="font-size:0.211667px;stroke-width:0.264583;fill:#ffffff;fill-opacity:1"
         id="path2876" />
      <path
         d="m 111.29475,87.372829 c -0.0449,0 -0.072,0.03514 -0.072,0.07345 0,0.04106 0.0311,0.07048 0.0694,0.07048 0.0392,0 0.0716,-0.02752 0.0716,-0.07366 0,-0.04254 -0.0328,-0.07027 -0.0688,-0.07027 z m -0.004,0.0085 c 0.0273,0 0.0512,0.02286 0.0512,0.06752 0,0.04043 -0.0214,0.05948 -0.0447,0.05948 -0.0296,0 -0.0519,-0.02879 -0.0519,-0.06794 0,-0.03937 0.0218,-0.05906 0.0451,-0.05906 z"
         style="font-size:0.211667px;stroke-width:0.264583;fill:#ffffff;fill-opacity:1"
         id="path2878" />
      <path
         d="m 111.52547,87.376004 h -0.0523 v 0.007 c 0.0152,0.0011 0.0201,0.0036 0.0212,0.01143 8.5e-4,0.0066 0.001,0.01524 0.001,0.03493 v 0.01524 c 0,0.03662 -0.011,0.05969 -0.04,0.05969 -0.0246,0 -0.0398,-0.01715 -0.0398,-0.05313 v -0.04741 c 0,-0.01863 0.002,-0.01968 0.0186,-0.02074 v -0.007 h -0.0561 v 0.007 c 0.0172,0.0015 0.0191,0.0023 0.0191,0.02074 v 0.05186 c 0,0.0254 0.006,0.04106 0.0186,0.0508 0.01,0.0072 0.022,0.01016 0.0345,0.01016 0.014,0 0.0286,-0.0044 0.0385,-0.01461 0.0123,-0.01291 0.0163,-0.03111 0.0163,-0.05652 v -0.01587 c 0,-0.0199 4.3e-4,-0.02879 0.001,-0.03471 8.5e-4,-0.0083 0.006,-0.01101 0.0186,-0.01185 z"
         style="font-size:0.211667px;stroke-width:0.264583;fill:#ffffff;fill-opacity:1"
         id="path2880" />
    </g>
    <g
       aria-label="IM"
       id="text1011"
       style="font-size:0.211667px;line-height:1.25;font-family:'Minion Pro';-inkscape-font-specification:'Minion Pro';letter-spacing:0px;stroke-width:0.264583;fill:#ffffff;fill-opacity:1">
      <path
         d="m 111.97324,89.630249 v -0.007 c -0.0174,-0.0013 -0.0193,-0.0021 -0.0193,-0.02011 v -0.08319 c 0,-0.01799 0.002,-0.01905 0.0193,-0.02032 v -0.007 h -0.0569 v 0.007 c 0.0176,0.0013 0.0193,0.0023 0.0193,0.02032 v 0.08319 c 0,0.01778 -0.002,0.01884 -0.0193,0.02011 v 0.007 z"
         style="font-size:0.211667px;stroke-width:0.264583;fill:#ffffff;fill-opacity:1"
         id="path2708" />
      <path
         d="m 112.16606,89.630249 v -0.007 c -0.0184,-0.0017 -0.0191,-0.0025 -0.0197,-0.02519 l -0.002,-0.07472 c -6.3e-4,-0.02201 8.5e-4,-0.02201 0.0195,-0.02371 v -0.007 h -0.0373 l -0.0487,0.104352 -0.0478,-0.104352 h -0.0358 v 0.007 c 0.0193,0.0017 0.0203,0.0023 0.0184,0.02879 l -0.003,0.0436 c -0.002,0.02223 -0.003,0.03154 -0.004,0.03852 -0.001,0.0091 -0.006,0.01122 -0.018,0.01249 v 0.0072 h 0.0508 v -0.0072 c -0.0142,-0.0013 -0.0195,-0.0028 -0.0199,-0.01249 -4.2e-4,-0.008 -2.1e-4,-0.01651 6.4e-4,-0.0345 l 0.003,-0.06011 h 6.3e-4 l 0.047,0.112607 h 0.005 l 0.0519,-0.11557 h 8.5e-4 l 6.3e-4,0.08509 c 0,0.02265 -6.3e-4,0.02349 -0.018,0.02519 v 0.007 z"
         style="font-size:0.211667px;stroke-width:0.264583;fill:#ffffff;fill-opacity:1"
         id="path2710" />
    </g>
    <g
       aria-label="IMP"
       id="text875"
       style="font-size:0.211667px;line-height:1.25;font-family:'Minion Pro';-inkscape-font-specification:'Minion Pro';letter-spacing:0px;stroke-width:0.264583;fill:#ffffff;fill-opacity:1">
      <path
         d="m 112.71705,87.513588 v -0.007 c -0.0174,-0.0013 -0.0193,-0.0021 -0.0193,-0.02011 v -0.08319 c 0,-0.01799 0.002,-0.01905 0.0193,-0.02032 v -0.007 h -0.0569 v 0.007 c 0.0176,0.0013 0.0193,0.0023 0.0193,0.02032 v 0.08319 c 0,0.01778 -0.002,0.01884 -0.0193,0.02011 v 0.007 z"
         style="font-size:0.211667px;stroke-width:0.264583;fill:#ffffff;fill-opacity:1"
         id="path2903" />
      <path
         d="m 112.90988,87.513588 v -0.007 c -0.0184,-0.0017 -0.0191,-0.0025 -0.0197,-0.02519 l -0.002,-0.07472 c -6.4e-4,-0.02201 8.4e-4,-0.02201 0.0195,-0.02371 v -0.007 h -0.0373 l -0.0487,0.104352 -0.0478,-0.104352 h -0.0358 v 0.007 c 0.0193,0.0017 0.0203,0.0023 0.0184,0.02879 l -0.003,0.0436 c -0.002,0.02222 -0.003,0.03154 -0.004,0.03852 -0.001,0.0091 -0.006,0.01122 -0.018,0.01249 v 0.0072 h 0.0508 v -0.0072 c -0.0142,-0.0013 -0.0195,-0.0028 -0.0199,-0.01249 -4.2e-4,-0.008 -2.1e-4,-0.01651 6.4e-4,-0.0345 l 0.003,-0.06011 h 6.4e-4 l 0.047,0.112607 h 0.005 l 0.0519,-0.115571 h 8.5e-4 l 6.4e-4,0.08509 c 0,0.02265 -6.4e-4,0.02349 -0.018,0.02519 v 0.007 z"
         style="font-size:0.211667px;stroke-width:0.264583;fill:#ffffff;fill-opacity:1"
         id="path2905" />
      <path
         d="m 112.92618,87.376004 v 0.0068 c 0.0161,8.46e-4 0.0178,0.0017 0.0178,0.02032 v 0.0834 c 0,0.01736 -0.002,0.01905 -0.0191,0.02032 v 0.0068 h 0.059 v -0.0068 c -0.0197,-0.0013 -0.0216,-0.0023 -0.0216,-0.02011 v -0.03217 l 0.0159,0.004 c 0.002,2.11e-4 0.006,2.11e-4 0.01,-2.12e-4 0.0208,-0.0025 0.0415,-0.01609 0.0415,-0.0436 0,-0.01397 -0.005,-0.02392 -0.0138,-0.03006 -0.009,-0.0063 -0.0207,-0.0087 -0.036,-0.0087 z m 0.0362,0.01947 c 0,-0.0057 6.4e-4,-0.008 0.002,-0.0095 0.001,-0.0015 0.006,-0.0025 0.0119,-0.0025 0.0174,0 0.032,0.0093 0.032,0.03217 0,0.02625 -0.0165,0.03365 -0.0305,0.03365 -0.007,0 -0.0131,-0.0015 -0.0157,-0.0028 z"
         style="font-size:0.211667px;stroke-width:0.264583;fill:#ffffff;fill-opacity:1"
         id="path2907" />
    </g>
    <g
       aria-label="ChLPY"
       id="text927"
       style="font-size:0.211667px;line-height:1.25;font-family:'Minion Pro';-inkscape-font-specification:'Minion Pro';letter-spacing:0px;stroke-width:0.264583;fill:#ffffff;fill-opacity:1">
      <path
         d="m 115.03713,87.744617 c -0.0112,0.02201 -0.022,0.03281 -0.0434,0.03281 -0.0315,0 -0.0555,-0.02625 -0.0555,-0.06562 0,-0.03175 0.0188,-0.06117 0.0542,-0.06117 0.0231,0 0.0351,0.0093 0.0409,0.03175 l 0.007,-0.0017 c -0.001,-0.01207 -0.003,-0.02074 -0.004,-0.03281 -0.006,-0.0011 -0.0203,-0.0057 -0.0377,-0.0057 -0.0474,0 -0.0823,0.02921 -0.0823,0.07408 0,0.03323 0.0235,0.06985 0.0762,0.06985 0.0157,0 0.0336,-0.0042 0.0398,-0.0057 0.004,-0.0068 0.009,-0.02286 0.0121,-0.03302 z"
         style="font-size:0.211667px;stroke-width:0.264583;fill:#ffffff;fill-opacity:1"
         id="path2851" />
      <path
         d="m 115.16053,87.782928 v -0.0063 c -0.0125,-0.0011 -0.0142,-0.0023 -0.0142,-0.01609 v -0.03683 c 0,-0.02498 -0.0123,-0.0362 -0.0298,-0.0362 -0.0112,0 -0.0226,0.0078 -0.0303,0.01524 v -0.07006 c -0.008,0.0025 -0.0216,0.0059 -0.032,0.0074 v 0.0059 c 0.0142,0.0013 0.0148,0.0021 0.0148,0.01545 v 0.09906 c 0,0.01376 -0.002,0.01482 -0.0148,0.01609 v 0.0063 h 0.0457 v -0.0063 c -0.0127,-0.0013 -0.0138,-0.0025 -0.0138,-0.01609 v -0.04932 c 0.006,-0.0068 0.014,-0.01101 0.0222,-0.01101 0.014,0 0.0207,0.0085 0.0207,0.02582 v 0.0345 c 0,0.01355 -0.002,0.01482 -0.014,0.01609 v 0.0063 z"
         style="font-size:0.211667px;stroke-width:0.264583;fill:#ffffff;fill-opacity:1"
         id="path2853" />
      <path
         d="m 115.2706,87.747792 c -0.003,0.0097 -0.007,0.01651 -0.011,0.02074 -0.005,0.0053 -0.0121,0.0063 -0.0231,0.0063 -0.009,0 -0.0161,-4.23e-4 -0.0203,-0.0028 -0.004,-0.0021 -0.005,-0.0061 -0.005,-0.01736 v -0.08234 c 0,-0.01799 0.002,-0.01905 0.0193,-0.02011 v -0.007 h -0.0567 v 0.007 c 0.0176,0.0013 0.0191,0.0023 0.0191,0.02011 v 0.08319 c 0,0.01778 -0.002,0.01905 -0.0197,0.02032 v 0.007 h 0.0971 c 0.002,-0.0063 0.007,-0.02688 0.008,-0.03387 z"
         style="font-size:0.211667px;stroke-width:0.264583;fill:#ffffff;fill-opacity:1"
         id="path2855" />
      <path
         d="m 115.29092,87.645345 v 0.0068 c 0.0161,8.47e-4 0.0178,0.0017 0.0178,0.02032 v 0.0834 c 0,0.01736 -0.002,0.01905 -0.0191,0.02032 v 0.0068 h 0.059 v -0.0068 c -0.0197,-0.0013 -0.0216,-0.0023 -0.0216,-0.02011 v -0.03217 l 0.0159,0.004 c 0.002,2.12e-4 0.006,2.12e-4 0.01,-2.12e-4 0.0207,-0.0025 0.0415,-0.01609 0.0415,-0.0436 0,-0.01397 -0.005,-0.02392 -0.0138,-0.03006 -0.009,-0.0063 -0.0207,-0.0087 -0.036,-0.0087 z m 0.0362,0.01947 c 0,-0.0057 6.4e-4,-0.008 0.002,-0.0095 0.001,-0.0015 0.006,-0.0025 0.0118,-0.0025 0.0174,0 0.032,0.0093 0.032,0.03217 0,0.02625 -0.0165,0.03365 -0.0305,0.03365 -0.007,0 -0.0131,-0.0015 -0.0157,-0.0028 z"
         style="font-size:0.211667px;stroke-width:0.264583;fill:#ffffff;fill-opacity:1"
         id="path2857" />
      <path
         d="m 115.53603,87.645345 h -0.0483 v 0.007 c 0.0167,0.0017 0.0171,0.0034 0.0125,0.01376 -0.006,0.0127 -0.0169,0.03239 -0.0248,0.04635 -0.009,-0.01566 -0.0195,-0.03238 -0.0281,-0.04826 -0.004,-0.0074 -0.005,-0.0099 0.0106,-0.01185 v -0.007 h -0.0516 v 0.007 c 0.0129,0.0013 0.0155,0.0038 0.0239,0.01757 0.0112,0.01884 0.0188,0.03217 0.0269,0.04614 0.004,0.0063 0.004,0.0083 0.004,0.01249 v 0.02752 c 0,0.01757 -0.002,0.01884 -0.021,0.02011 v 0.0068 h 0.0612 v -0.0068 c -0.0201,-0.0013 -0.0218,-0.0028 -0.0218,-0.02011 v -0.02815 c 0,-0.0055 6.4e-4,-0.0078 0.003,-0.01291 0.0104,-0.01863 0.0174,-0.03048 0.0265,-0.04509 0.009,-0.01376 0.0114,-0.01609 0.0262,-0.01757 z"
         style="font-size:0.211667px;stroke-width:0.264583;fill:#ffffff;fill-opacity:1"
         id="path2859" />
    </g>
    <g
       aria-label="FÍNOV"
       id="text931"
       style="font-size:0.211667px;line-height:1.25;font-family:'Minion Pro';-inkscape-font-specification:'Minion Pro';letter-spacing:0px;stroke-width:0.264583;fill:#ffffff;fill-opacity:1">
      <path
         d="m 115.79637,87.688737 c -0.001,-0.01058 -0.002,-0.02392 -0.002,-0.03175 h -0.0948 v 0.0068 c 0.0167,0.0013 0.0184,0.0023 0.0184,0.02032 v 0.08319 c 0,0.01799 -0.002,0.01905 -0.0188,0.02032 v 0.007 h 0.0588 v -0.007 c -0.0197,-0.0015 -0.0216,-0.0023 -0.0216,-0.02032 v -0.03725 h 0.0216 c 0.0193,0 0.0201,0.0021 0.0229,0.01693 h 0.007 v -0.0417 h -0.007 c -0.003,0.01397 -0.004,0.01566 -0.0229,0.01566 h -0.0216 v -0.04911 c 0,-0.0063 6.3e-4,-0.0068 0.007,-0.0068 h 0.0169 c 0.015,0 0.0195,0.0017 0.0231,0.0072 0.003,0.0042 0.004,0.0085 0.006,0.01736 z"
         style="font-size:0.211667px;stroke-width:0.264583;fill:#ffffff;fill-opacity:1"
         id="path2840" />
      <path
         d="m 115.86961,87.794571 v -0.007 c -0.0174,-0.0013 -0.0193,-0.0021 -0.0193,-0.02011 v -0.08319 c 0,-0.01799 0.002,-0.01905 0.0193,-0.02032 v -0.007 h -0.0569 v 0.007 c 0.0176,0.0013 0.0193,0.0023 0.0193,0.02032 v 0.08319 c 0,0.01778 -0.002,0.01884 -0.0193,0.02011 v 0.007 z m 0.003,-0.160655 c -6.3e-4,-0.0032 -0.007,-0.01228 -0.01,-0.01291 -0.0106,0.0068 -0.0229,0.01482 -0.0347,0.02223 l 0.003,0.0063 0.0409,-0.01376 z"
         style="font-size:0.211667px;stroke-width:0.264583;fill:#ffffff;fill-opacity:1"
         id="path2842" />
      <path
         d="m 116.03281,87.656987 h -0.0521 v 0.0068 c 0.0148,8.46e-4 0.0201,0.0034 0.0212,0.0127 6.4e-4,0.0059 0.001,0.01566 0.001,0.03556 v 0.05017 h -6.3e-4 l -0.0881,-0.105199 h -0.032 v 0.0068 c 0.01,8.46e-4 0.0148,0.0023 0.0191,0.0076 0.004,0.0051 0.004,0.0057 0.004,0.02096 v 0.04593 c 0,0.01905 -6.4e-4,0.02921 -0.001,0.03598 -0.001,0.0099 -0.007,0.0127 -0.0188,0.01333 v 0.007 h 0.0519 v -0.007 c -0.0146,-8.47e-4 -0.0197,-0.0034 -0.0208,-0.01397 -6.3e-4,-0.0061 -0.001,-0.0163 -0.001,-0.03535 v -0.05186 h 4.3e-4 l 0.0897,0.110067 h 0.007 v -0.08446 c 0,-0.0199 4.2e-4,-0.02963 0.001,-0.03619 0.001,-0.0087 0.006,-0.01143 0.0184,-0.01207 z"
         style="font-size:0.211667px;stroke-width:0.264583;fill:#ffffff;fill-opacity:1"
         id="path2844" />
      <path
         d="m 116.11832,87.653812 c -0.0449,0 -0.072,0.03514 -0.072,0.07345 0,0.04106 0.0311,0.07049 0.0694,0.07049 0.0392,0 0.0715,-0.02752 0.0715,-0.07366 0,-0.04255 -0.0328,-0.07027 -0.0688,-0.07027 z m -0.004,0.0085 c 0.0273,0 0.0512,0.02286 0.0512,0.06752 0,0.04043 -0.0214,0.05948 -0.0447,0.05948 -0.0296,0 -0.0519,-0.02879 -0.0519,-0.06794 0,-0.03937 0.0218,-0.05906 0.0451,-0.05906 z"
         style="font-size:0.211667px;stroke-width:0.264583;fill:#ffffff;fill-opacity:1"
         id="path2846" />
      <path
         d="m 116.34078,87.656987 h -0.0487 v 0.007 c 0.0173,0.0019 0.0184,0.0036 0.0144,0.01566 -0.006,0.0182 -0.0218,0.05906 -0.0332,0.08763 h -4.2e-4 c -0.014,-0.03535 -0.0294,-0.0762 -0.0349,-0.09123 -0.003,-0.0089 -0.003,-0.01058 0.0125,-0.01206 v -0.007 h -0.0529 v 0.007 c 0.0127,0.0013 0.0163,0.003 0.0224,0.01799 0.0116,0.029 0.0298,0.07599 0.044,0.114512 h 0.007 c 0.0161,-0.04339 0.0385,-0.09694 0.044,-0.110067 0.008,-0.01905 0.0108,-0.02096 0.0254,-0.02244 z"
         style="font-size:0.211667px;stroke-width:0.264583;fill:#ffffff;fill-opacity:1"
         id="path2848" />
    </g>
  </g>
</svg>
