<?xml version="1.0" encoding="UTF-8" standalone="no"?>
<!-- Created with Inkscape (http://www.inkscape.org/) -->

<svg
   width="178.57619mm"
   height="48.642509mm"
   viewBox="0 0 178.57618 48.642509"
   version="1.1"
   id="svg12763"
   inkscape:version="1.2 (dc2aedaf03, 2022-05-15)"
   sodipodi:docname="tab2.svg"
   xmlns:inkscape="http://www.inkscape.org/namespaces/inkscape"
   xmlns:sodipodi="http://sodipodi.sourceforge.net/DTD/sodipodi-0.dtd"
   xmlns="http://www.w3.org/2000/svg"
   xmlns:svg="http://www.w3.org/2000/svg">
  <sodipodi:namedview
     id="namedview12765"
     pagecolor="#ffffff"
     bordercolor="#999999"
     borderopacity="1"
     inkscape:showpageshadow="0"
     inkscape:pageopacity="0"
     inkscape:pagecheckerboard="0"
     inkscape:deskcolor="#d1d1d1"
     inkscape:document-units="mm"
     showgrid="false"
     inkscape:zoom="3.0186158"
     inkscape:cx="433.31118"
     inkscape:cy="33.955961"
     inkscape:window-width="1920"
     inkscape:window-height="1038"
     inkscape:window-x="0"
     inkscape:window-y="0"
     inkscape:window-maximized="1"
     inkscape:current-layer="layer1" />
  <defs
     id="defs12760">
    <clipPath
       clipPathUnits="userSpaceOnUse"
       id="clipPath14024">
      <path
         d="M -1.3397076e-7,3.5462851e-6 H 793.99998 V 1123 H -1.3397076e-7 Z"
         clip-rule="evenodd"
         id="path14026"
         style="stroke-width:0.320269" />
    </clipPath>
    <clipPath
       clipPathUnits="userSpaceOnUse"
       id="clipPath14028">
      <path
         d="M -1.3397076e-7,3.5462851e-6 H 793.99998 V 1123 H -1.3397076e-7 Z"
         clip-rule="evenodd"
         id="path14030"
         style="stroke-width:0.320269" />
    </clipPath>
    <clipPath
       clipPathUnits="userSpaceOnUse"
       id="clipPath14032">
      <path
         d="M -1.3397076e-7,3.5462851e-6 H 793.99998 V 1123 H -1.3397076e-7 Z"
         clip-rule="evenodd"
         id="path14034"
         style="stroke-width:0.320269" />
    </clipPath>
    <clipPath
       clipPathUnits="userSpaceOnUse"
       id="clipPath14036">
      <path
         d="M -1.3397076e-7,3.5462851e-6 H 793.99998 V 1123 H -1.3397076e-7 Z"
         clip-rule="evenodd"
         id="path14038"
         style="stroke-width:0.320269" />
    </clipPath>
    <clipPath
       clipPathUnits="userSpaceOnUse"
       id="clipPath14040">
      <path
         d="M -1.3397076e-7,3.5462851e-6 H 793.99998 V 1123 H -1.3397076e-7 Z"
         clip-rule="evenodd"
         id="path14042"
         style="stroke-width:0.320269" />
    </clipPath>
    <clipPath
       clipPathUnits="userSpaceOnUse"
       id="clipPath14044">
      <path
         d="M -1.3397076e-7,3.5462851e-6 H 793.99998 V 1123 H -1.3397076e-7 Z"
         clip-rule="evenodd"
         id="path14046"
         style="stroke-width:0.320269" />
    </clipPath>
    <clipPath
       clipPathUnits="userSpaceOnUse"
       id="clipPath14048">
      <path
         d="M -1.3397076e-7,3.5462851e-6 H 793.99998 V 1123 H -1.3397076e-7 Z"
         clip-rule="evenodd"
         id="path14050"
         style="stroke-width:0.320269" />
    </clipPath>
    <clipPath
       clipPathUnits="userSpaceOnUse"
       id="clipPath14052">
      <path
         d="M -1.3397076e-7,3.5462851e-6 H 793.99998 V 1123 H -1.3397076e-7 Z"
         clip-rule="evenodd"
         id="path14054"
         style="stroke-width:0.320269" />
    </clipPath>
    <clipPath
       clipPathUnits="userSpaceOnUse"
       id="clipPath14056">
      <path
         d="M -1.3397076e-7,3.5462851e-6 H 793.99998 V 1123 H -1.3397076e-7 Z"
         clip-rule="evenodd"
         id="path14058"
         style="stroke-width:0.320269" />
    </clipPath>
    <clipPath
       clipPathUnits="userSpaceOnUse"
       id="clipPath14060">
      <path
         d="M -1.3397076e-7,3.5462851e-6 H 793.99998 V 1123 H -1.3397076e-7 Z"
         clip-rule="evenodd"
         id="path14062"
         style="stroke-width:0.320269" />
    </clipPath>
    <clipPath
       clipPathUnits="userSpaceOnUse"
       id="clipPath14064">
      <path
         d="M -1.3397076e-7,3.5462851e-6 H 793.99998 V 1123 H -1.3397076e-7 Z"
         clip-rule="evenodd"
         id="path14066"
         style="stroke-width:0.320269" />
    </clipPath>
    <clipPath
       clipPathUnits="userSpaceOnUse"
       id="clipPath14068">
      <path
         d="M -1.3397076e-7,3.5462851e-6 H 793.99998 V 1123 H -1.3397076e-7 Z"
         clip-rule="evenodd"
         id="path14070"
         style="stroke-width:0.320269" />
    </clipPath>
    <clipPath
       clipPathUnits="userSpaceOnUse"
       id="clipPath14072">
      <path
         d="M -1.3397076e-7,3.5462851e-6 H 793.99998 V 1123 H -1.3397076e-7 Z"
         clip-rule="evenodd"
         id="path14074"
         style="stroke-width:0.320269" />
    </clipPath>
    <clipPath
       clipPathUnits="userSpaceOnUse"
       id="clipPath14076">
      <path
         d="M -1.3397076e-7,3.5462851e-6 H 793.99998 V 1123 H -1.3397076e-7 Z"
         clip-rule="evenodd"
         id="path14078"
         style="stroke-width:0.320269" />
    </clipPath>
    <clipPath
       clipPathUnits="userSpaceOnUse"
       id="clipPath14080">
      <path
         d="M -1.3397076e-7,3.5462851e-6 H 793.99998 V 1123 H -1.3397076e-7 Z"
         clip-rule="evenodd"
         id="path14082"
         style="stroke-width:0.320269" />
    </clipPath>
    <clipPath
       clipPathUnits="userSpaceOnUse"
       id="clipPath14084">
      <path
         d="M -1.3397076e-7,3.5462851e-6 H 793.99998 V 1123 H -1.3397076e-7 Z"
         clip-rule="evenodd"
         id="path14086"
         style="stroke-width:0.320269" />
    </clipPath>
    <clipPath
       clipPathUnits="userSpaceOnUse"
       id="clipPath14088">
      <path
         d="M -1.3397076e-7,3.5462851e-6 H 793.99998 V 1123 H -1.3397076e-7 Z"
         clip-rule="evenodd"
         id="path14090"
         style="stroke-width:0.320269" />
    </clipPath>
    <clipPath
       clipPathUnits="userSpaceOnUse"
       id="clipPath14092">
      <path
         d="M -1.3397076e-7,3.5462851e-6 H 793.99998 V 1123 H -1.3397076e-7 Z"
         clip-rule="evenodd"
         id="path14094"
         style="stroke-width:0.320269" />
    </clipPath>
    <clipPath
       clipPathUnits="userSpaceOnUse"
       id="clipPath14096">
      <path
         d="M -1.3397076e-7,3.5462851e-6 H 793.99998 V 1123 H -1.3397076e-7 Z"
         clip-rule="evenodd"
         id="path14098"
         style="stroke-width:0.320269" />
    </clipPath>
    <clipPath
       clipPathUnits="userSpaceOnUse"
       id="clipPath14100">
      <path
         d="M -1.3397076e-7,3.5462851e-6 H 793.99998 V 1123 H -1.3397076e-7 Z"
         clip-rule="evenodd"
         id="path14102"
         style="stroke-width:0.320269" />
    </clipPath>
    <clipPath
       clipPathUnits="userSpaceOnUse"
       id="clipPath14104">
      <path
         d="M -1.3397076e-7,3.5462851e-6 H 793.99998 V 1123 H -1.3397076e-7 Z"
         clip-rule="evenodd"
         id="path14106"
         style="stroke-width:0.320269" />
    </clipPath>
    <clipPath
       clipPathUnits="userSpaceOnUse"
       id="clipPath14108">
      <path
         d="M -1.3397076e-7,3.5462851e-6 H 793.99998 V 1123 H -1.3397076e-7 Z"
         clip-rule="evenodd"
         id="path14110"
         style="stroke-width:0.320269" />
    </clipPath>
    <clipPath
       clipPathUnits="userSpaceOnUse"
       id="clipPath14112">
      <path
         d="M -1.3397076e-7,3.5462851e-6 H 793.99998 V 1123 H -1.3397076e-7 Z"
         clip-rule="evenodd"
         id="path14114"
         style="stroke-width:0.320269" />
    </clipPath>
    <clipPath
       clipPathUnits="userSpaceOnUse"
       id="clipPath14116">
      <path
         d="M -1.3397076e-7,3.5462851e-6 H 793.99998 V 1123 H -1.3397076e-7 Z"
         clip-rule="evenodd"
         id="path14118"
         style="stroke-width:0.320269" />
    </clipPath>
    <clipPath
       clipPathUnits="userSpaceOnUse"
       id="clipPath14120">
      <path
         d="M -1.3397076e-7,3.5462851e-6 H 793.99998 V 1123 H -1.3397076e-7 Z"
         clip-rule="evenodd"
         id="path14122"
         style="stroke-width:0.320269" />
    </clipPath>
    <clipPath
       clipPathUnits="userSpaceOnUse"
       id="clipPath14124">
      <path
         d="M -1.3397076e-7,3.5462851e-6 H 793.99998 V 1123 H -1.3397076e-7 Z"
         clip-rule="evenodd"
         id="path14126"
         style="stroke-width:0.320269" />
    </clipPath>
    <clipPath
       clipPathUnits="userSpaceOnUse"
       id="clipPath14128">
      <path
         d="M -1.3397076e-7,3.5462851e-6 H 793.99998 V 1123 H -1.3397076e-7 Z"
         clip-rule="evenodd"
         id="path14130"
         style="stroke-width:0.320269" />
    </clipPath>
    <clipPath
       clipPathUnits="userSpaceOnUse"
       id="clipPath14132">
      <path
         d="M -1.3397076e-7,3.5462851e-6 H 793.99998 V 1123 H -1.3397076e-7 Z"
         clip-rule="evenodd"
         id="path14134"
         style="stroke-width:0.320269" />
    </clipPath>
    <clipPath
       clipPathUnits="userSpaceOnUse"
       id="clipPath14136">
      <path
         d="M -1.3397076e-7,3.5462851e-6 H 793.99998 V 1123 H -1.3397076e-7 Z"
         clip-rule="evenodd"
         id="path14138"
         style="stroke-width:0.320269" />
    </clipPath>
    <clipPath
       clipPathUnits="userSpaceOnUse"
       id="clipPath14140">
      <path
         d="M -1.3397076e-7,3.5462851e-6 H 793.99998 V 1123 H -1.3397076e-7 Z"
         clip-rule="evenodd"
         id="path14142"
         style="stroke-width:0.320269" />
    </clipPath>
    <clipPath
       clipPathUnits="userSpaceOnUse"
       id="clipPath14144">
      <path
         d="M -1.3397076e-7,3.5462851e-6 H 793.99998 V 1123 H -1.3397076e-7 Z"
         clip-rule="evenodd"
         id="path14146"
         style="stroke-width:0.320269" />
    </clipPath>
    <clipPath
       clipPathUnits="userSpaceOnUse"
       id="clipPath14148">
      <path
         d="M -1.3397076e-7,3.5462851e-6 H 793.99998 V 1123 H -1.3397076e-7 Z"
         clip-rule="evenodd"
         id="path14150"
         style="stroke-width:0.320269" />
    </clipPath>
    <clipPath
       clipPathUnits="userSpaceOnUse"
       id="clipPath14152">
      <path
         d="M -1.3397076e-7,3.5462851e-6 H 793.99998 V 1123 H -1.3397076e-7 Z"
         clip-rule="evenodd"
         id="path14154"
         style="stroke-width:0.320269" />
    </clipPath>
    <clipPath
       clipPathUnits="userSpaceOnUse"
       id="clipPath14156">
      <path
         d="M -1.3397076e-7,3.5462851e-6 H 793.99998 V 1123 H -1.3397076e-7 Z"
         clip-rule="evenodd"
         id="path14158"
         style="stroke-width:0.320269" />
    </clipPath>
    <clipPath
       clipPathUnits="userSpaceOnUse"
       id="clipPath14160">
      <path
         d="M -1.3397076e-7,3.5462851e-6 H 793.99998 V 1123 H -1.3397076e-7 Z"
         clip-rule="evenodd"
         id="path14162"
         style="stroke-width:0.320269" />
    </clipPath>
    <clipPath
       clipPathUnits="userSpaceOnUse"
       id="clipPath14164">
      <path
         d="M -1.3397076e-7,3.5462851e-6 H 793.99998 V 1123 H -1.3397076e-7 Z"
         clip-rule="evenodd"
         id="path14166"
         style="stroke-width:0.320269" />
    </clipPath>
    <clipPath
       clipPathUnits="userSpaceOnUse"
       id="clipPath14168">
      <path
         d="M -1.3397076e-7,3.5462851e-6 H 793.99998 V 1123 H -1.3397076e-7 Z"
         clip-rule="evenodd"
         id="path14170"
         style="stroke-width:0.320269" />
    </clipPath>
    <clipPath
       clipPathUnits="userSpaceOnUse"
       id="clipPath14172">
      <path
         d="M -1.3397076e-7,3.5462851e-6 H 793.99998 V 1123 H -1.3397076e-7 Z"
         clip-rule="evenodd"
         id="path14174"
         style="stroke-width:0.320269" />
    </clipPath>
    <clipPath
       clipPathUnits="userSpaceOnUse"
       id="clipPath14176">
      <path
         d="M -1.3397076e-7,3.5462851e-6 H 793.99998 V 1123 H -1.3397076e-7 Z"
         clip-rule="evenodd"
         id="path14178"
         style="stroke-width:0.320269" />
    </clipPath>
    <clipPath
       clipPathUnits="userSpaceOnUse"
       id="clipPath14180">
      <path
         d="M -1.3397076e-7,3.5462851e-6 H 793.99998 V 1123 H -1.3397076e-7 Z"
         clip-rule="evenodd"
         id="path14182"
         style="stroke-width:0.320269" />
    </clipPath>
    <clipPath
       clipPathUnits="userSpaceOnUse"
       id="clipPath14184">
      <path
         d="M -1.3397076e-7,3.5462851e-6 H 793.99998 V 1123 H -1.3397076e-7 Z"
         clip-rule="evenodd"
         id="path14186"
         style="stroke-width:0.320269" />
    </clipPath>
    <clipPath
       clipPathUnits="userSpaceOnUse"
       id="clipPath14214">
      <path
         d="M -1.3397076e-7,3.5462851e-6 H 793.99998 V 1123 H -1.3397076e-7 Z"
         clip-rule="evenodd"
         id="path14216"
         style="stroke-width:0.320269" />
    </clipPath>
    <clipPath
       clipPathUnits="userSpaceOnUse"
       id="clipPath14218">
      <path
         d="M -1.3397076e-7,3.5462851e-6 H 793.99998 V 1123 H -1.3397076e-7 Z"
         clip-rule="evenodd"
         id="path14220"
         style="stroke-width:0.320269" />
    </clipPath>
    <clipPath
       clipPathUnits="userSpaceOnUse"
       id="clipPath14222">
      <path
         d="M -1.3397076e-7,3.5462851e-6 H 793.99998 V 1123 H -1.3397076e-7 Z"
         clip-rule="evenodd"
         id="path14224"
         style="stroke-width:0.320269" />
    </clipPath>
    <clipPath
       clipPathUnits="userSpaceOnUse"
       id="clipPath14226">
      <path
         d="M -1.3397076e-7,3.5462851e-6 H 793.99998 V 1123 H -1.3397076e-7 Z"
         clip-rule="evenodd"
         id="path14228"
         style="stroke-width:0.320269" />
    </clipPath>
    <clipPath
       clipPathUnits="userSpaceOnUse"
       id="clipPath14230">
      <path
         d="M -1.3397076e-7,3.5462851e-6 H 793.99998 V 1123 H -1.3397076e-7 Z"
         clip-rule="evenodd"
         id="path14232"
         style="stroke-width:0.320269" />
    </clipPath>
    <clipPath
       clipPathUnits="userSpaceOnUse"
       id="clipPath14234">
      <path
         d="M -1.3397076e-7,3.5462851e-6 H 793.99998 V 1123 H -1.3397076e-7 Z"
         clip-rule="evenodd"
         id="path14236"
         style="stroke-width:0.320269" />
    </clipPath>
    <clipPath
       clipPathUnits="userSpaceOnUse"
       id="clipPath14238">
      <path
         d="M -1.3397076e-7,3.5462851e-6 H 793.99998 V 1123 H -1.3397076e-7 Z"
         clip-rule="evenodd"
         id="path14240"
         style="stroke-width:0.320269" />
    </clipPath>
    <clipPath
       clipPathUnits="userSpaceOnUse"
       id="clipPath14242">
      <path
         d="M -1.3397076e-7,3.5462851e-6 H 793.99998 V 1123 H -1.3397076e-7 Z"
         clip-rule="evenodd"
         id="path14244"
         style="stroke-width:0.320269" />
    </clipPath>
    <clipPath
       clipPathUnits="userSpaceOnUse"
       id="clipPath14246">
      <path
         d="M -1.3397076e-7,3.5462851e-6 H 793.99998 V 1123 H -1.3397076e-7 Z"
         clip-rule="evenodd"
         id="path14248"
         style="stroke-width:0.320269" />
    </clipPath>
    <clipPath
       clipPathUnits="userSpaceOnUse"
       id="clipPath14250">
      <path
         d="M -1.3397076e-7,3.5462851e-6 H 793.99998 V 1123 H -1.3397076e-7 Z"
         clip-rule="evenodd"
         id="path14252"
         style="stroke-width:0.320269" />
    </clipPath>
    <clipPath
       clipPathUnits="userSpaceOnUse"
       id="clipPath14254">
      <path
         d="M -1.3397076e-7,3.5462851e-6 H 793.99998 V 1123 H -1.3397076e-7 Z"
         clip-rule="evenodd"
         id="path14256"
         style="stroke-width:0.320269" />
    </clipPath>
    <clipPath
       clipPathUnits="userSpaceOnUse"
       id="clipPath14258">
      <path
         d="M -1.3397076e-7,3.5462851e-6 H 793.99998 V 1123 H -1.3397076e-7 Z"
         clip-rule="evenodd"
         id="path14260"
         style="stroke-width:0.320269" />
    </clipPath>
    <clipPath
       clipPathUnits="userSpaceOnUse"
       id="clipPath14262">
      <path
         d="M -1.3397076e-7,3.5462851e-6 H 793.99998 V 1123 H -1.3397076e-7 Z"
         clip-rule="evenodd"
         id="path14264"
         style="stroke-width:0.320269" />
    </clipPath>
    <clipPath
       clipPathUnits="userSpaceOnUse"
       id="clipPath14266">
      <path
         d="M -1.3397076e-7,3.5462851e-6 H 793.99998 V 1123 H -1.3397076e-7 Z"
         clip-rule="evenodd"
         id="path14268"
         style="stroke-width:0.320269" />
    </clipPath>
    <clipPath
       clipPathUnits="userSpaceOnUse"
       id="clipPath14270">
      <path
         d="M -1.3397076e-7,3.5462851e-6 H 793.99998 V 1123 H -1.3397076e-7 Z"
         clip-rule="evenodd"
         id="path14272"
         style="stroke-width:0.320269" />
    </clipPath>
    <clipPath
       clipPathUnits="userSpaceOnUse"
       id="clipPath14274">
      <path
         d="M -1.3397076e-7,3.5462851e-6 H 793.99998 V 1123 H -1.3397076e-7 Z"
         clip-rule="evenodd"
         id="path14276"
         style="stroke-width:0.320269" />
    </clipPath>
    <clipPath
       clipPathUnits="userSpaceOnUse"
       id="clipPath14278">
      <path
         d="M -1.3397076e-7,3.5462851e-6 H 793.99998 V 1123 H -1.3397076e-7 Z"
         clip-rule="evenodd"
         id="path14280"
         style="stroke-width:0.320269" />
    </clipPath>
    <clipPath
       clipPathUnits="userSpaceOnUse"
       id="clipPath11905">
      <path
         d="m 527.68152,792.6795 h 140.50696 v 73.78748 H 527.68152 Z"
         clip-rule="evenodd"
         id="path11903" />
    </clipPath>
    <clipPath
       clipPathUnits="userSpaceOnUse"
       id="clipPath11933">
      <path
         d="m 527.68152,869.58936 h 140.50696 v 73.78748 H 527.68152 Z"
         clip-rule="evenodd"
         id="path11931" />
    </clipPath>
    <clipPath
       clipPathUnits="userSpaceOnUse"
       id="clipPath11961">
      <path
         d="m 527.68152,946.49921 h 140.50696 v 73.78749 H 527.68152 Z"
         clip-rule="evenodd"
         id="path11959" />
    </clipPath>
    <clipPath
       clipPathUnits="userSpaceOnUse"
       id="clipPath11989">
      <path
         d="m 527.68152,1023.4091 h 140.50696 v 73.7874 H 527.68152 Z"
         clip-rule="evenodd"
         id="path11987" />
    </clipPath>
    <clipPath
       clipPathUnits="userSpaceOnUse"
       id="clipPath12017">
      <path
         d="m 527.68152,1100.3189 h 140.50696 v 73.7874 H 527.68152 Z"
         clip-rule="evenodd"
         id="path12015" />
    </clipPath>
  </defs>
  <g
     inkscape:label="Layer 1"
     inkscape:groupmode="layer"
     id="layer1"
     transform="translate(5.7525317,-25.838733)">
    <path
       id="path11201"
       clip-path="url(#clipPath14180)"
       style="vector-effect:non-scaling-stroke;fill:#87de87;fill-opacity:1;fill-rule:nonzero;stroke:none;stroke-width:1.00084;stroke-dasharray:none;-inkscape-stroke:hairline"
       d="m 162.49927,732.3403 v 23.00173 h 64.9999 v 24.99951 h -64.9999 v 73.99964 c 72.30469,1.32881 127.79159,0 199.0011,0 l 0.50042,-24.00062 H 294.00033 227.99959 V 806.3419 h 66.00074 v -25.00147 -23.99867 h 68.00046 71.99991 v 23.99867 h 65.99879 66.99962 65.00185 v 25.00147 h 65.99878 V 781.34043 757.34176 732.3403 h -65.99878 -66.00074 l -0.50042,23.00173 H 500.49991 L 499.99949,732.3403 H 434.0007 362.00079 294.00033 227.99959 Z m 199.50152,98.00026 h 71.99991 v 25.00147 h 65.99879 66.00073 66.00074 V 830.34056 H 566.00022 V 806.3419 H 499.99949 434.0007 362.00079 Z"
       transform="matrix(0.26436115,0,0,0.26436115,-11.832746,-151.63796)"
       sodipodi:nodetypes="cccccccccccccccccccccccccccccccccccccccccccccccc" />
    <path
       id="path15307"
       style="fill:#ff5555;fill-opacity:1;fill-rule:nonzero;stroke:none;stroke-width:0.25522"
       d="m 120.47998,41.790213 c 0,2.084973 0,4.169943 0,6.254916 5.72782,0 11.45564,0 17.18345,0 0,-2.084973 0,-4.169943 0,-6.254916 -5.72781,0 -11.45563,0 -17.18345,0 z m -89.354231,6.518984 c 0,2.114945 0,4.229887 0,6.344833 5.727816,0 11.455631,0 17.183447,0 0,-2.114946 0,-4.229888 0,-6.344833 -5.727816,0 -11.455631,0 -17.183447,0 z m 34.895545,0 c 0,4.406105 0,8.81221 0,13.218315 -5.815838,0 -11.631678,0 -17.447515,0 0,2.026748 0,4.0535 0,6.080249 11.720107,-0.01804 23.440268,0.01604 35.160127,0.08992 0,-2.096169 0,-4.192335 0,-6.288503 17.976274,-0.16232 35.952994,-0.07308 53.929524,-0.05581 0,2.114772 0,4.229542 0,6.344315 5.81601,0 11.63202,0 17.44803,0 0,2.203138 0,4.406277 0,6.609416 5.81584,0 11.63168,0 17.44752,0 0,-4.317911 0,-8.63582 0,-12.953731 -5.81584,0 -11.63168,0 -17.44752,0 0,-2.203139 0,-4.406278 0,-6.609416 -17.44786,0 -34.89571,0 -52.34357,0 0,-2.144916 0,-4.289833 0,-6.434748 -12.248868,0 -24.497731,0 -36.746596,0 z m 17.712612,19.388479 c 0,2.203138 0,4.406277 0,6.609416 6.344661,0 12.68932,0 19.033984,0 0,-2.203139 0,-4.406278 0,-6.609416 -6.344664,0 -12.689323,0 -19.033984,0 z" />
    <path
       id="path11573"
       style="color:#000000;fill:#000000;fill-opacity:1;stroke-miterlimit:10;-inkscape-stroke:none"
       d="m 23.500073,672.00057 v 0.99888 h 72.500335 v 59.00072 H 23.500073 v 0.99889 h 72.500335 v 23.00173 H 23.500073 v 0.99889 H 96.000408 V 781.0003 781.1 H 23.500073 v 0.99888 h 72.500335 v 23.90093 0.0977 H 23.500073 v 0.99889 h 72.500335 v 22.904 H 23.500073 v 0.99888 H 96.000408 V 854.9999 H 23.500073 v 0.99889 h 72.500335 v 0.002 H 97.001249 699.00092 V 854.99994 672.00057 H 97.001249 Z m 73.501176,0.99888 h 64.999891 v 59.00072 H 97.001249 Z m 65.998781,0 h 64.9999 v 59.00072 h -64.9999 z m 66.00074,0 h 64.99989 v 59.00072 h -64.99989 z m 65.99878,0 h 67.00158 v 59.00072 h -67.00158 z m 68.00046,0 h 71.00103 v 59.00072 h -71.00103 z m 71.99992,0 h 64.99989 v 59.00072 h -64.99989 z m 66.00073,0 h 64.9999 v 59.00072 h -64.9999 z m 65.99878,0 h 65.00185 v 59.00072 h -65.00185 z m 66.00074,0 h 64.9999 v 59.00072 h -64.9999 z M 97.001249,732.99906 h 64.999891 v 23.00173 H 97.001249 Z m 65.998781,0 h 64.9999 v 23.00173 h -64.9999 z m 66.00074,0 h 64.99989 v 23.00173 h -64.99989 z m 65.99878,0 h 67.00158 v 23.00173 h -67.00158 z m 68.00046,0 h 71.00103 v 23.00173 h -71.00103 z m 71.99992,0 h 64.99989 v 23.00173 h -64.99989 z m 66.00073,0 h 64.9999 v 23.00173 h -64.9999 z m 65.99878,0 h 65.00185 v 23.00173 h -65.00185 z m 66.00074,0 h 64.9999 v 23.00173 h -64.9999 z M 97.001249,756.99968 H 162.00114 V 781.0003 H 97.001249 Z m 65.998781,0 h 64.9999 v 24.00062 h -64.9999 z m 66.00074,0 h 64.99989 v 24.00062 h -64.99989 z m 65.99878,0 h 67.00158 v 24.00062 h -67.00158 z m 68.00046,0 h 71.00103 v 24.00062 h -71.00103 z m 71.99992,0 h 64.99989 v 24.00062 h -64.99989 z m 66.00073,0 h 64.9999 v 24.00062 h -64.9999 z m 65.99878,0 h 65.00185 v 24.00062 h -65.00185 z m 66.00074,0 h 64.9999 v 24.00062 h -64.9999 z M 97.001249,781.99919 h 64.999891 v 24.00062 H 97.001249 Z m 65.998781,0 h 64.9999 v 24.00062 h -64.9999 z m 66.00074,0 h 64.99989 v 24.00062 h -64.99989 z m 65.99878,0 h 67.00158 v 24.00062 h -67.00158 z m 68.00046,0 h 71.00103 v 24.00062 h -71.00103 z m 71.99992,0 h 64.99989 v 24.00062 h -64.99989 z m 66.00073,0 h 64.9999 v 24.00062 h -64.9999 z m 65.99878,0 h 65.00185 v 24.00062 h -65.00185 z m 66.00074,0 h 64.9999 v 24.00062 h -64.9999 z M 97.001249,807.00065 h 64.999891 v 22.99979 H 97.001249 Z m 65.998781,0 h 64.9999 v 22.99979 h -64.9999 z m 66.00074,0 h 64.99989 v 22.99979 h -64.99989 z m 65.99878,0 h 67.00158 v 22.99979 h -67.00158 z m 68.00046,0 h 71.00103 v 22.99979 h -71.00103 z m 71.99992,0 h 64.99989 v 22.99979 h -64.99989 z m 66.00073,0 h 64.9999 v 22.99979 h -64.9999 z m 65.99878,0 h 65.00185 v 22.99979 h -65.00185 z m 66.00074,0 h 64.9999 v 22.99979 h -64.9999 z M 97.001249,830.99932 h 64.999891 v 24.00062 H 97.001249 Z m 65.998781,0 h 64.9999 v 24.00062 h -64.9999 z m 66.00074,0 h 64.99989 v 24.00062 h -64.99989 z m 65.99878,0 h 67.00158 v 24.00062 h -67.00158 z m 68.00046,0 h 71.00103 v 24.00062 h -71.00103 z m 71.99992,0 h 64.99989 v 24.00062 h -64.99989 z m 66.00073,0 h 64.9999 v 24.00062 h -64.9999 z m 65.99878,0 h 65.00185 v 24.00062 h -65.00185 z m 66.00074,0 h 64.9999 v 24.00062 h -64.9999 z"
       transform="matrix(0.26436115,0,0,0.26436115,-11.965038,-151.81211)" />
    <g
       id="g16537">
      <text
         xml:space="preserve"
         style="font-style:normal;font-variant:normal;font-weight:normal;font-stretch:normal;font-size:4.23333px;font-family:'Minion Pro';-inkscape-font-specification:'Minion Pro';writing-mode:lr-tb;fill:#000000;fill-opacity:1;fill-rule:nonzero;stroke:none;stroke-width:0.264361"
         id="text11339"
         x="37.040005"
         y="34.953621"><tspan
           x="37.040005"
           y="34.953621"
           sodipodi:role="line"
           id="tspan11337"
           style="font-style:normal;font-variant:normal;font-weight:normal;font-stretch:normal;font-size:4.23333px;font-family:'Minion Pro';-inkscape-font-specification:'Minion Pro';stroke-width:0.264361">iný</tspan></text>
      <text
         xml:space="preserve"
         style="font-style:normal;font-variant:normal;font-weight:normal;font-stretch:normal;font-size:4.23333px;font-family:'Minion Pro';-inkscape-font-specification:'Minion Pro';writing-mode:lr-tb;fill:#000000;fill-opacity:1;fill-rule:nonzero;stroke:none;stroke-width:0.264361"
         id="text11343"
         x="34.592697"
         y="39.614796"><tspan
           x="34.592697"
           y="39.614796"
           sodipodi:role="line"
           id="tspan11341"
           style="font-style:normal;font-variant:normal;font-weight:normal;font-stretch:normal;font-size:4.23333px;font-family:'Minion Pro';-inkscape-font-specification:'Minion Pro';stroke-width:0.264361">názov</tspan></text>
      <text
         xml:space="preserve"
         style="font-style:normal;font-variant:normal;font-weight:normal;font-stretch:normal;font-size:4.23333px;font-family:'Minion Pro';-inkscape-font-specification:'Minion Pro';writing-mode:lr-tb;fill:#000000;fill-opacity:1;fill-rule:nonzero;stroke:none;stroke-width:0.264361"
         id="text11357"
         x="49.199238"
         y="34.953621"><tspan
           x="49.199238"
           y="34.953621"
           sodipodi:role="line"
           id="tspan11355"
           style="font-style:normal;font-variant:normal;font-weight:normal;font-stretch:normal;font-size:4.23333px;font-family:'Minion Pro';-inkscape-font-specification:'Minion Pro';stroke-width:0.264361">vznik v 2.</tspan></text>
      <text
         xml:space="preserve"
         style="font-style:normal;font-variant:normal;font-weight:normal;font-stretch:normal;font-size:4.23333px;font-family:'Minion Pro';-inkscape-font-specification:'Minion Pro';writing-mode:lr-tb;fill:#000000;fill-opacity:1;fill-rule:nonzero;stroke:none;stroke-width:0.264361"
         id="text11361"
         x="51.159672"
         y="39.614796"><tspan
           x="51.159672"
           y="39.614796"
           sodipodi:role="line"
           id="tspan11359"
           style="font-style:normal;font-variant:normal;font-weight:normal;font-stretch:normal;font-size:4.23333px;font-family:'Minion Pro';-inkscape-font-specification:'Minion Pro';stroke-width:0.264361">storočí</tspan></text>
      <text
         xml:space="preserve"
         style="font-style:normal;font-variant:normal;font-weight:normal;font-stretch:normal;font-size:4.23333px;font-family:'Minion Pro';-inkscape-font-specification:'Minion Pro';writing-mode:lr-tb;fill:#000000;fill-opacity:1;fill-rule:nonzero;stroke:none;stroke-width:0.264361"
         id="text11375"
         x="68.381554"
         y="39.614796"><tspan
           x="68.381554"
           y="39.614796"
           sodipodi:role="line"
           id="tspan11373"
           style="font-style:normal;font-variant:normal;font-weight:normal;font-stretch:normal;font-size:4.23333px;font-family:'Minion Pro';-inkscape-font-specification:'Minion Pro';stroke-width:0.264361">Unesco</tspan></text>
      <text
         xml:space="preserve"
         style="font-style:normal;font-variant:normal;font-weight:normal;font-stretch:normal;font-size:4.23333px;font-family:'Minion Pro';-inkscape-font-specification:'Minion Pro';writing-mode:lr-tb;fill:#000000;fill-opacity:1;fill-rule:nonzero;stroke:none;stroke-width:0.264361"
         id="text11389"
         x="84.828339"
         y="39.614796"><tspan
           x="84.828339"
           y="39.614796"
           sodipodi:role="line"
           id="tspan11387"
           style="font-style:normal;font-variant:normal;font-weight:normal;font-stretch:normal;font-size:4.23333px;font-family:'Minion Pro';-inkscape-font-specification:'Minion Pro';stroke-width:0.264361">Bratislava</tspan></text>
      <text
         xml:space="preserve"
         style="font-style:normal;font-variant:normal;font-weight:normal;font-stretch:normal;font-size:4.23333px;font-family:'Minion Pro';-inkscape-font-specification:'Minion Pro';writing-mode:lr-tb;fill:#000000;fill-opacity:1;fill-rule:nonzero;stroke:none;stroke-width:0.264361"
         id="text11403"
         x="104.63914"
         y="39.614796"><tspan
           x="104.63914"
           y="39.614796"
           sodipodi:role="line"
           id="tspan11401"
           style="font-style:normal;font-variant:normal;font-weight:normal;font-stretch:normal;font-size:4.23333px;font-family:'Minion Pro';-inkscape-font-specification:'Minion Pro';stroke-width:0.264361">Panónia</tspan></text>
      <text
         xml:space="preserve"
         style="font-style:normal;font-variant:normal;font-weight:normal;font-stretch:normal;font-size:4.23333px;font-family:'Minion Pro';-inkscape-font-specification:'Minion Pro';writing-mode:lr-tb;fill:#000000;fill-opacity:1;fill-rule:nonzero;stroke:none;stroke-width:0.264361"
         id="text11417"
         x="123.35838"
         y="39.614796"><tspan
           x="123.35838"
           y="39.614796"
           sodipodi:role="line"
           id="tspan11415"
           style="font-style:normal;font-variant:normal;font-weight:normal;font-stretch:normal;font-size:4.23333px;font-family:'Minion Pro';-inkscape-font-specification:'Minion Pro';stroke-width:0.264361">kúpele</tspan></text>
      <text
         xml:space="preserve"
         style="font-style:normal;font-variant:normal;font-weight:normal;font-stretch:normal;font-size:4.23333px;font-family:'Minion Pro';-inkscape-font-specification:'Minion Pro';writing-mode:lr-tb;fill:#000000;fill-opacity:1;fill-rule:nonzero;stroke:none;stroke-width:0.264361"
         id="text11431"
         x="138.84663"
         y="30.29245"><tspan
           x="138.84663"
           y="30.29245"
           sodipodi:role="line"
           id="tspan11429"
           style="font-style:normal;font-variant:normal;font-weight:normal;font-stretch:normal;font-size:4.23333px;font-family:'Minion Pro';-inkscape-font-specification:'Minion Pro';stroke-width:0.264361">vojenský</tspan></text>
      <text
         xml:space="preserve"
         style="font-style:normal;font-variant:normal;font-weight:normal;font-stretch:normal;font-size:4.23333px;font-family:'Minion Pro';-inkscape-font-specification:'Minion Pro';writing-mode:lr-tb;fill:#000000;fill-opacity:1;fill-rule:nonzero;stroke:none;stroke-width:0.264361"
         id="text11435"
         x="141.49353"
         y="34.953621"><tspan
           x="141.49353"
           y="34.953621"
           sodipodi:role="line"
           id="tspan11433"
           style="font-style:normal;font-variant:normal;font-weight:normal;font-stretch:normal;font-size:4.23333px;font-family:'Minion Pro';-inkscape-font-specification:'Minion Pro';stroke-width:0.264361">tábor/</tspan></text>
      <text
         xml:space="preserve"
         style="font-style:normal;font-variant:normal;font-weight:normal;font-stretch:normal;font-size:4.23333px;font-family:'Minion Pro';-inkscape-font-specification:'Minion Pro';writing-mode:lr-tb;fill:#000000;fill-opacity:1;fill-rule:nonzero;stroke:none;stroke-width:0.264361"
         id="text11439"
         x="140.31589"
         y="39.614796"><tspan
           x="140.31589"
           y="39.614796"
           sodipodi:role="line"
           id="tspan11437"
           style="font-style:normal;font-variant:normal;font-weight:normal;font-stretch:normal;font-size:4.23333px;font-family:'Minion Pro';-inkscape-font-specification:'Minion Pro';stroke-width:0.264361">stanica</tspan></text>
      <text
         xml:space="preserve"
         style="font-style:normal;font-variant:normal;font-weight:normal;font-stretch:normal;font-size:4.23333px;font-family:'Minion Pro';-inkscape-font-specification:'Minion Pro';writing-mode:lr-tb;fill:#000000;fill-opacity:1;fill-rule:nonzero;stroke:none;stroke-width:0.264361"
         id="text11453"
         x="156.19814"
         y="39.614796"><tspan
           x="156.19814"
           y="39.614796"
           sodipodi:role="line"
           id="tspan11451"
           style="font-style:normal;font-variant:normal;font-weight:normal;font-stretch:normal;font-size:4.23333px;font-family:'Minion Pro';-inkscape-font-specification:'Minion Pro';stroke-width:0.264361">7 písmen</tspan></text>
      <text
         xml:space="preserve"
         style="font-style:normal;font-variant:normal;font-weight:normal;font-stretch:normal;font-size:4.23333px;font-family:'Minion Pro';-inkscape-font-specification:'Minion Pro';writing-mode:lr-tb;fill:#000000;fill-opacity:1;fill-rule:nonzero;stroke:none;stroke-width:0.264361"
         id="text11467"
         x="20.865292"
         y="46.126492"><tspan
           x="20.865292"
           y="46.126492"
           id="tspan11465"
           style="font-style:normal;font-variant:normal;font-weight:normal;font-stretch:normal;font-size:4.23333px;font-family:'Minion Pro';-inkscape-font-specification:'Minion Pro';stroke-width:0.264361">A</tspan></text>
      <text
         xml:space="preserve"
         style="font-style:normal;font-variant:normal;font-weight:normal;font-stretch:normal;font-size:4.23333px;font-family:'Minion Pro';-inkscape-font-specification:'Minion Pro';writing-mode:lr-tb;fill:#000000;fill-opacity:1;fill-rule:nonzero;stroke:none;stroke-width:0.264361"
         id="text11481"
         x="20.865292"
         y="52.638195"><tspan
           x="20.865292"
           y="52.638195"
           id="tspan11479"
           style="font-style:normal;font-variant:normal;font-weight:normal;font-stretch:normal;font-size:4.23333px;font-family:'Minion Pro';-inkscape-font-specification:'Minion Pro';stroke-width:0.264361">B</tspan></text>
      <text
         xml:space="preserve"
         style="font-style:normal;font-variant:normal;font-weight:normal;font-stretch:normal;font-size:4.23333px;font-family:'Minion Pro';-inkscape-font-specification:'Minion Pro';writing-mode:lr-tb;fill:#000000;fill-opacity:1;fill-rule:nonzero;stroke:none;stroke-width:0.264361"
         id="text11495"
         x="20.865292"
         y="59.149895"><tspan
           x="20.865292"
           y="59.149895"
           id="tspan11493"
           style="font-style:normal;font-variant:normal;font-weight:normal;font-stretch:normal;font-size:4.23333px;font-family:'Minion Pro';-inkscape-font-specification:'Minion Pro';stroke-width:0.264361">C</tspan></text>
      <text
         xml:space="preserve"
         style="font-style:normal;font-variant:normal;font-weight:normal;font-stretch:normal;font-size:4.23333px;font-family:'Minion Pro';-inkscape-font-specification:'Minion Pro';writing-mode:lr-tb;fill:#000000;fill-opacity:1;fill-rule:nonzero;stroke:none;stroke-width:0.264361"
         id="text11509"
         x="20.865292"
         y="65.661598"><tspan
           x="20.865292"
           y="65.661598"
           id="tspan11507"
           style="font-style:normal;font-variant:normal;font-weight:normal;font-stretch:normal;font-size:4.23333px;font-family:'Minion Pro';-inkscape-font-specification:'Minion Pro';stroke-width:0.264361">D</tspan></text>
      <text
         xml:space="preserve"
         style="font-style:normal;font-variant:normal;font-weight:normal;font-stretch:normal;font-size:4.23333px;font-family:'Minion Pro';-inkscape-font-specification:'Minion Pro';writing-mode:lr-tb;fill:#000000;fill-opacity:1;fill-rule:nonzero;stroke:none;stroke-width:0.264361"
         id="text11523"
         x="20.962498"
         y="72.173294"><tspan
           x="20.962498"
           y="72.173294"
           id="tspan11521"
           style="font-style:normal;font-variant:normal;font-weight:normal;font-stretch:normal;font-size:4.23333px;font-family:'Minion Pro';-inkscape-font-specification:'Minion Pro';stroke-width:0.264361">E</tspan></text>
      <text
         xml:space="preserve"
         style="font-style:normal;font-variant:normal;font-weight:normal;font-stretch:normal;font-size:4.23333px;font-family:'Minion Pro';-inkscape-font-specification:'Minion Pro';writing-mode:lr-tb;fill:#000000;fill-opacity:1;fill-rule:nonzero;stroke:none;stroke-width:0.264361"
         id="text11897"
         x="-3.0475423"
         y="46.294235"><tspan
           x="-3.0475423"
           y="46.294235"
           sodipodi:role="line"
           id="tspan11895"
           style="font-style:normal;font-variant:normal;font-weight:normal;font-stretch:normal;font-size:4.23333px;font-family:'Minion Pro';-inkscape-font-specification:'Minion Pro';stroke-width:0.264361">Rusovce</tspan></text>
      <text
         xml:space="preserve"
         style="font-style:normal;font-variant:normal;font-weight:normal;font-stretch:normal;font-size:4.23333px;font-family:'Minion Pro';-inkscape-font-specification:'Minion Pro';writing-mode:lr-tb;fill:#000000;fill-opacity:1;fill-rule:nonzero;stroke:none;stroke-width:0.264361"
         id="text11925"
         x="-2.7300429"
         y="52.805935"><tspan
           x="-2.7300429"
           y="52.805935"
           sodipodi:role="line"
           id="tspan11923"
           style="font-style:normal;font-variant:normal;font-weight:normal;font-stretch:normal;font-size:4.23333px;font-family:'Minion Pro';-inkscape-font-specification:'Minion Pro';stroke-width:0.264361">Stupava</tspan></text>
      <text
         xml:space="preserve"
         style="font-style:normal;font-variant:normal;font-weight:normal;font-stretch:normal;font-size:4.23333px;font-family:'Minion Pro';-inkscape-font-specification:'Minion Pro';writing-mode:lr-tb;fill:#000000;fill-opacity:1;fill-rule:nonzero;stroke:none;stroke-width:0.264361"
         id="text11953"
         x="-2.603044"
         y="59.317635"><tspan
           x="-2.603044"
           y="59.317635"
           sodipodi:role="line"
           id="tspan11951"
           style="font-style:normal;font-variant:normal;font-weight:normal;font-stretch:normal;font-size:4.23333px;font-family:'Minion Pro';-inkscape-font-specification:'Minion Pro';stroke-width:0.264361">Trenčín</tspan></text>
      <text
         xml:space="preserve"
         style="font-style:normal;font-variant:normal;font-weight:normal;font-stretch:normal;font-size:4.23333px;font-family:'Minion Pro';-inkscape-font-specification:'Minion Pro';writing-mode:lr-tb;fill:#000000;fill-opacity:1;fill-rule:nonzero;stroke:none;stroke-width:0.264361"
         id="text11981"
         x="-4.4762912"
         y="65.829338"><tspan
           x="-4.4762912"
           y="65.829338"
           sodipodi:role="line"
           id="tspan11979"
           style="font-style:normal;font-variant:normal;font-weight:normal;font-stretch:normal;font-size:4.23333px;font-family:'Minion Pro';-inkscape-font-specification:'Minion Pro';stroke-width:0.264361">Dúbravka</tspan></text>
      <text
         xml:space="preserve"
         style="font-style:normal;font-variant:normal;font-weight:normal;font-stretch:normal;font-size:4.23333px;font-family:'Minion Pro';-inkscape-font-specification:'Minion Pro';writing-mode:lr-tb;fill:#000000;fill-opacity:1;fill-rule:nonzero;stroke:none;stroke-width:0.264361"
         id="text12009"
         x="1.3762885"
         y="72.341034"><tspan
           x="1.3762885"
           y="72.341034"
           sodipodi:role="line"
           id="tspan12007"
           style="font-style:normal;font-variant:normal;font-weight:normal;font-stretch:normal;font-size:4.23333px;font-family:'Minion Pro';-inkscape-font-specification:'Minion Pro';stroke-width:0.264361">Iža</tspan></text>
    </g>
    <path
       d="M -5.6203507,25.838733 V 74.480657"
       style="fill:none;stroke:#000000;stroke-width:0.263645;stroke-linecap:butt;stroke-linejoin:miter;stroke-miterlimit:10;stroke-dasharray:none;stroke-opacity:1"
       id="path12137" />
  </g>
</svg>
