<?xml version="1.0" encoding="UTF-8" standalone="no"?>
<svg
   xmlns:dc="http://purl.org/dc/elements/1.1/"
   xmlns:cc="http://creativecommons.org/ns#"
   xmlns:rdf="http://www.w3.org/1999/02/22-rdf-syntax-ns#"
   xmlns:svg="http://www.w3.org/2000/svg"
   xmlns="http://www.w3.org/2000/svg"
   xmlns:sodipodi="http://sodipodi.sourceforge.net/DTD/sodipodi-0.dtd"
   xmlns:inkscape="http://www.inkscape.org/namespaces/inkscape"
   width="10.51142mm"
   height="22.746651mm"
   viewBox="0 0 10.51142 22.746651"
   version="1.1"
   id="svg8"
   inkscape:version="1.0.2 (e86c870879, 2021-01-15)"
   sodipodi:docname="prevodovka1.svg">
  <defs
     id="defs2">
    <clipPath
       clipPathUnits="userSpaceOnUse"
       id="clipPath859">
      <path
         d="M 0,0 H 473.40472 V 383.57739 H 0 Z"
         id="path857" />
    </clipPath>
  </defs>
  <sodipodi:namedview
     id="base"
     pagecolor="#ffffff"
     bordercolor="#666666"
     borderopacity="1.0"
     inkscape:pageopacity="0.0"
     inkscape:pageshadow="2"
     inkscape:zoom="5.6568543"
     inkscape:cx="1.8478476"
     inkscape:cy="47.710595"
     inkscape:document-units="mm"
     inkscape:current-layer="layer1"
     inkscape:document-rotation="0"
     showgrid="false"
     inkscape:window-width="1920"
     inkscape:window-height="1001"
     inkscape:window-x="-9"
     inkscape:window-y="-9"
     inkscape:window-maximized="1"
     fit-margin-top="1"
     lock-margins="true"
     fit-margin-left="1"
     fit-margin-right="1"
     fit-margin-bottom="1" />
  <metadata
     id="metadata5">
    <rdf:RDF>
      <cc:Work
         rdf:about="">
        <dc:format>image/svg+xml</dc:format>
        <dc:type
           rdf:resource="http://purl.org/dc/dcmitype/StillImage" />
        <dc:title></dc:title>
      </cc:Work>
    </rdf:RDF>
  </metadata>
  <g
     inkscape:label="Layer 1"
     inkscape:groupmode="layer"
     id="layer1"
     transform="translate(231.1733,-123.1624)">
    <g
       id="g1583">
      <path
         d="m -230.04443,124.71822 q 0.19925,-0.0769 0.38802,-0.19575 0.18876,-0.12235 0.34607,-0.30413 h 0.23071 v 2.42248 h -0.3251 v -1.97154 q -0.0419,0.0384 -0.10486,0.0804 -0.0594,0.0419 -0.13284,0.0804 -0.0699,0.0385 -0.15031,0.0734 -0.0769,0.035 -0.15031,0.0594 z"
         style="font-variant:normal;font-weight:normal;font-size:3.49564px;font-family:Ubuntu;-inkscape-font-specification:UbuntuMono-Regular;writing-mode:lr-tb;fill:#000000;fill-opacity:1;fill-rule:nonzero;stroke:none;stroke-width:0.352778"
         id="path1445" />
      <path
         d="m -226.08387,126.40312 q 0.31111,0 0.44394,-0.12235 0.13633,-0.12234 0.13633,-0.32859 0,-0.13283 -0.0559,-0.22372 -0.0559,-0.0909 -0.14681,-0.14332 -0.0909,-0.0559 -0.21324,-0.0769 -0.11885,-0.0245 -0.24469,-0.0245 h -0.0839 v -0.26567 h 0.11536 q 0.0874,0 0.17828,-0.0175 0.0944,-0.0175 0.17128,-0.0629 0.0769,-0.0454 0.12585,-0.12235 0.0489,-0.0804 0.0489,-0.19925 0,-0.0979 -0.035,-0.16779 -0.035,-0.0699 -0.0944,-0.11536 -0.0559,-0.0454 -0.13284,-0.0629 -0.0734,-0.021 -0.1573,-0.021 -0.16779,0 -0.28664,0.0489 -0.11536,0.0489 -0.19576,0.10137 l -0.12584,-0.24819 q 0.0419,-0.028 0.10487,-0.0594 0.0664,-0.0349 0.14681,-0.0629 0.0804,-0.028 0.17129,-0.0454 0.0944,-0.021 0.19576,-0.021 0.19226,0 0.33208,0.0489 0.13983,0.0455 0.23071,0.13284 0.0909,0.0839 0.13633,0.20274 0.0455,0.11536 0.0455,0.25169 0,0.18877 -0.10837,0.3251 -0.10836,0.13283 -0.26217,0.20274 0.0944,0.028 0.18177,0.0804 0.0874,0.0524 0.15031,0.13284 0.0664,0.0804 0.10487,0.18527 0.0419,0.10486 0.0419,0.2342 0,0.15731 -0.0559,0.29364 -0.0524,0.13283 -0.16779,0.23071 -0.11186,0.0979 -0.28315,0.15381 -0.17128,0.0559 -0.40549,0.0559 -0.0909,0 -0.18876,-0.014 -0.0944,-0.014 -0.17828,-0.035 -0.0839,-0.021 -0.14682,-0.0419 -0.0629,-0.021 -0.0909,-0.035 l 0.0629,-0.28314 q 0.0594,0.028 0.19575,0.0734 0.13983,0.0454 0.33908,0.0454 z"
         style="font-variant:normal;font-weight:normal;font-size:3.49564px;font-family:Ubuntu;-inkscape-font-specification:UbuntuMono-Regular;writing-mode:lr-tb;fill:#000000;fill-opacity:1;fill-rule:nonzero;stroke:none;stroke-width:0.352778"
         id="path1447" />
      <path
         d="m -222.6826,125.15168 q 0.52784,0.021 0.77253,0.23071 0.24819,0.20974 0.24819,0.56979 0,0.1608 -0.0559,0.29713 -0.0524,0.13633 -0.16429,0.23421 -0.10837,0.0979 -0.27616,0.15381 -0.16779,0.0559 -0.3985,0.0559 -0.0909,0 -0.18527,-0.014 -0.0944,-0.014 -0.17478,-0.035 -0.0804,-0.021 -0.14332,-0.0419 -0.0629,-0.021 -0.0909,-0.035 l 0.0629,-0.28314 q 0.0594,0.028 0.19226,0.0734 0.13633,0.0454 0.33209,0.0454 0.1573,0 0.26217,-0.035 0.10837,-0.035 0.17478,-0.0944 0.0664,-0.0594 0.0944,-0.13633 0.0315,-0.0804 0.0315,-0.16779 0,-0.13283 -0.0455,-0.23421 -0.0454,-0.10487 -0.1608,-0.17478 -0.11535,-0.0699 -0.30761,-0.10487 -0.19226,-0.0384 -0.4859,-0.0384 0.021,-0.17129 0.0315,-0.3216 0.014,-0.15031 0.0245,-0.29363 0.0105,-0.14332 0.0175,-0.28315 0.007,-0.14332 0.014,-0.30063 h 1.16754 v 0.27616 h -0.8844 q -0.003,0.0524 -0.0105,0.14332 -0.007,0.0874 -0.014,0.18527 -0.007,0.0944 -0.014,0.18527 -0.007,0.0909 -0.014,0.14332 z"
         style="font-variant:normal;font-weight:normal;font-size:3.49564px;font-family:Ubuntu;-inkscape-font-specification:UbuntuMono-Regular;writing-mode:lr-tb;fill:#000000;fill-opacity:1;fill-rule:nonzero;stroke:none;stroke-width:0.352778"
         id="path1449" />
      <path
         d="m -229.28055,132.62632 v -4.07085 h 0.2987 v 4.07085 z"
         style="font-variant:normal;font-weight:normal;font-size:3.49564px;font-family:Ubuntu;-inkscape-font-specification:UbuntuMono-Regular;writing-mode:lr-tb;fill:#000000;fill-opacity:1;fill-rule:nonzero;stroke:none;stroke-width:0.352778"
         id="path1451" />
      <path
         d="m -225.78491,132.62632 v -4.07085 h 0.2987 v 4.07085 z"
         style="font-variant:normal;font-weight:normal;font-size:3.49564px;font-family:Ubuntu;-inkscape-font-specification:UbuntuMono-Regular;writing-mode:lr-tb;fill:#000000;fill-opacity:1;fill-rule:nonzero;stroke:none;stroke-width:0.352778"
         id="path1453" />
      <path
         d="m -222.28926,132.62632 v -4.07085 h 0.2987 v 4.07085 z"
         style="font-variant:normal;font-weight:normal;font-size:3.49564px;font-family:Ubuntu;-inkscape-font-specification:UbuntuMono-Regular;writing-mode:lr-tb;fill:#000000;fill-opacity:1;fill-rule:nonzero;stroke:none;stroke-width:0.352778"
         id="path1455" />
      <path
         d="m -229.28055,136.8349 v -4.24154 h 0.2987 v 1.97142 h 1.12823 v 0.2987 h -1.12823 v 1.97142 z"
         style="font-variant:normal;font-weight:normal;font-size:3.49564px;font-family:Ubuntu;-inkscape-font-specification:UbuntuMono-Regular;writing-mode:lr-tb;fill:#000000;fill-opacity:1;fill-rule:nonzero;stroke:none;stroke-width:0.352778"
         id="path1457" />
      <path
         d="m -226.537,134.86348 h -2.12396 v -0.2987 h 2.12396 z"
         style="font-variant:normal;font-weight:normal;font-size:3.49564px;font-family:Ubuntu;-inkscape-font-specification:UbuntuMono-Regular;writing-mode:lr-tb;fill:#000000;fill-opacity:1;fill-rule:nonzero;stroke:none;stroke-width:0.352778"
         id="path1459"
         sodipodi:nodetypes="ccccc" />
      <path
         d="m -224.91283,135.77494 q -0.0769,-0.12934 -0.17828,-0.29014 -0.0979,-0.1608 -0.21323,-0.33208 -0.11536,-0.17478 -0.2412,-0.35306 -0.12235,-0.17828 -0.2447,-0.34257 -0.12235,-0.16779 -0.2377,-0.31461 -0.11536,-0.14682 -0.21324,-0.25868 v 1.89114 h -0.33208 v -2.42248 h 0.26916 q 0.1643,0.17479 0.34957,0.40899 0.18876,0.23072 0.37054,0.47891 0.18526,0.24469 0.34606,0.48239 0.1643,0.23771 0.27616,0.42298 v -1.79327 h 0.33208 v 2.42248 z"
         style="font-variant:normal;font-weight:normal;font-size:3.49564px;font-family:Ubuntu;-inkscape-font-specification:UbuntuMono-Regular;writing-mode:lr-tb;fill:#000000;fill-opacity:1;fill-rule:nonzero;stroke:none;stroke-width:0.352778"
         id="path1461" />
      <path
         d="m -222.61187,134.86348 h -2.02429 v -0.2987 h 2.02429 z"
         style="font-variant:normal;font-weight:normal;font-size:3.49564px;font-family:Ubuntu;-inkscape-font-specification:UbuntuMono-Regular;writing-mode:lr-tb;fill:#000000;fill-opacity:1;fill-rule:nonzero;stroke:none;stroke-width:0.352778"
         id="path1463"
         sodipodi:nodetypes="ccccc" />
      <path
         d="m -221.99227,134.86348 h -1.42522 v -0.2987 h 1.12652 v -1.97142 h 0.2987 z"
         style="font-variant:normal;font-weight:normal;font-size:3.49564px;font-family:Ubuntu;-inkscape-font-specification:UbuntuMono-Regular;writing-mode:lr-tb;fill:#000000;fill-opacity:1;fill-rule:nonzero;stroke:none;stroke-width:0.352778"
         id="path1465" />
      <path
         d="m -229.28055,140.7021 v -4.07085 h 0.2987 v 4.07085 z"
         style="font-variant:normal;font-weight:normal;font-size:3.49564px;font-family:Ubuntu;-inkscape-font-specification:UbuntuMono-Regular;writing-mode:lr-tb;fill:#000000;fill-opacity:1;fill-rule:nonzero;stroke:none;stroke-width:0.352778"
         id="path1467" />
      <path
         d="m -225.78491,140.7021 v -4.07085 h 0.2987 v 4.07085 z"
         style="font-variant:normal;font-weight:normal;font-size:3.49564px;font-family:Ubuntu;-inkscape-font-specification:UbuntuMono-Regular;writing-mode:lr-tb;fill:#000000;fill-opacity:1;fill-rule:nonzero;stroke:none;stroke-width:0.352778"
         id="path1469" />
      <path
         d="m -228.73706,143.1053 q 0,0.12584 -0.0524,0.24469 -0.0489,0.11536 -0.13284,0.23071 -0.0839,0.11186 -0.18876,0.22372 -0.10487,0.10837 -0.20974,0.21324 -0.0594,0.0594 -0.13983,0.13982 -0.0769,0.0804 -0.14681,0.16779 -0.0699,0.0874 -0.11885,0.1678 -0.0455,0.0804 -0.0455,0.13982 h 1.11511 v 0.27616 h -1.46817 q -0.003,-0.021 -0.003,-0.042 0,-0.021 0,-0.0384 0,-0.1643 0.0524,-0.30412 0.0559,-0.14333 0.14332,-0.26917 0.0874,-0.12584 0.19576,-0.2377 0.10836,-0.11186 0.21323,-0.21673 0.0874,-0.0839 0.1643,-0.1643 0.0804,-0.0839 0.13982,-0.16429 0.0629,-0.0839 0.0979,-0.17129 0.0384,-0.0874 0.0384,-0.18527 0,-0.10487 -0.0349,-0.17827 -0.0315,-0.0734 -0.0874,-0.12235 -0.0559,-0.0489 -0.13284,-0.0699 -0.0734,-0.0245 -0.1573,-0.0245 -0.10138,0 -0.18527,0.028 -0.0839,0.028 -0.15031,0.0664 -0.0664,0.035 -0.11186,0.0769 -0.0454,0.0385 -0.0699,0.0594 l -0.1608,-0.23071 q 0.0315,-0.035 0.0944,-0.0839 0.0629,-0.0524 0.15031,-0.0979 0.0874,-0.0454 0.19575,-0.0769 0.10837,-0.0315 0.23421,-0.0315 0.38103,0 0.56979,0.17828 0.19226,0.17478 0.19226,0.49638 z"
         style="font-variant:normal;font-weight:normal;font-size:3.49564px;font-family:Ubuntu;-inkscape-font-specification:UbuntuMono-Regular;writing-mode:lr-tb;fill:#000000;fill-opacity:1;fill-rule:nonzero;stroke:none;stroke-width:0.352778"
         id="path1471" />
      <path
         d="m -226.73406,144.07009 q 0.0664,-0.15381 0.18177,-0.35655 0.11536,-0.20625 0.25868,-0.42298 0.14682,-0.21672 0.31111,-0.42646 0.16779,-0.20974 0.33558,-0.37753 h 0.31112 v 1.53808 h 0.28664 v 0.26567 h -0.28664 v 0.61873 h -0.31461 v -0.61873 h -1.08365 z m 1.08365,-1.199 q -0.10487,0.11186 -0.21324,0.25168 -0.10487,0.13633 -0.20624,0.28665 -0.10137,0.15031 -0.19226,0.30761 -0.0874,0.15731 -0.1573,0.30762 h 0.76904 z"
         style="font-variant:normal;font-weight:normal;font-size:3.49564px;font-family:Ubuntu;-inkscape-font-specification:UbuntuMono-Regular;writing-mode:lr-tb;fill:#000000;fill-opacity:1;fill-rule:nonzero;stroke:none;stroke-width:0.352778"
         id="path1473" />
    </g>
  </g>
</svg>
