<?xml version="1.0" encoding="UTF-8" standalone="no"?>
<svg
   xmlns:dc="http://purl.org/dc/elements/1.1/"
   xmlns:cc="http://creativecommons.org/ns#"
   xmlns:rdf="http://www.w3.org/1999/02/22-rdf-syntax-ns#"
   xmlns:svg="http://www.w3.org/2000/svg"
   xmlns="http://www.w3.org/2000/svg"
   xmlns:sodipodi="http://sodipodi.sourceforge.net/DTD/sodipodi-0.dtd"
   xmlns:inkscape="http://www.inkscape.org/namespaces/inkscape"
   width="10.38255mm"
   height="18.53969mm"
   viewBox="0 0 10.38255 18.53969"
   version="1.1"
   id="svg1622"
   inkscape:version="1.0.2 (e86c870879, 2021-01-15)"
   sodipodi:docname="prevodovka2.svg">
  <defs
     id="defs1616" />
  <sodipodi:namedview
     id="base"
     pagecolor="#ffffff"
     bordercolor="#666666"
     borderopacity="1.0"
     inkscape:pageopacity="0.0"
     inkscape:pageshadow="2"
     inkscape:zoom="3.959798"
     inkscape:cx="18.853509"
     inkscape:cy="12.52168"
     inkscape:document-units="mm"
     inkscape:current-layer="layer1"
     inkscape:document-rotation="0"
     showgrid="false"
     fit-margin-top="1"
     lock-margins="true"
     fit-margin-left="1"
     fit-margin-right="1"
     fit-margin-bottom="1"
     inkscape:window-width="1431"
     inkscape:window-height="1030"
     inkscape:window-x="192"
     inkscape:window-y="0"
     inkscape:window-maximized="0" />
  <metadata
     id="metadata1619">
    <rdf:RDF>
      <cc:Work
         rdf:about="">
        <dc:format>image/svg+xml</dc:format>
        <dc:type
           rdf:resource="http://purl.org/dc/dcmitype/StillImage" />
        <dc:title></dc:title>
      </cc:Work>
    </rdf:RDF>
  </metadata>
  <g
     inkscape:label="Layer 1"
     inkscape:groupmode="layer"
     id="layer1"
     transform="translate(-97.61825,-144.18849)">
    <g
       id="g1600"
       transform="translate(328.66268,-10.267232)">
      <path
         d="m -230.04443,156.01153 q 0.19925,-0.0769 0.38802,-0.19575 0.18876,-0.12235 0.34607,-0.30412 h 0.23071 v 2.42248 h -0.3251 v -1.97154 q -0.0419,0.0385 -0.10486,0.0804 -0.0594,0.0419 -0.13284,0.0804 -0.0699,0.0385 -0.15031,0.0734 -0.0769,0.035 -0.15031,0.0594 z"
         style="font-variant:normal;font-weight:normal;font-size:3.49564px;font-family:Ubuntu;-inkscape-font-specification:UbuntuMono-Regular;writing-mode:lr-tb;fill:#000000;fill-opacity:1;fill-rule:nonzero;stroke:none;stroke-width:0.352778"
         id="path1418" />
      <path
         d="m -226.08387,157.69643 q 0.31111,0 0.44394,-0.12234 0.13633,-0.12235 0.13633,-0.32859 0,-0.13284 -0.0559,-0.22373 -0.0559,-0.0909 -0.14681,-0.14332 -0.0909,-0.0559 -0.21324,-0.0769 -0.11885,-0.0245 -0.24469,-0.0245 h -0.0839 v -0.26567 h 0.11536 q 0.0874,0 0.17828,-0.0175 0.0944,-0.0175 0.17128,-0.0629 0.0769,-0.0454 0.12585,-0.12235 0.0489,-0.0804 0.0489,-0.19925 0,-0.0979 -0.035,-0.16779 -0.035,-0.0699 -0.0944,-0.11535 -0.0559,-0.0455 -0.13284,-0.0629 -0.0734,-0.021 -0.1573,-0.021 -0.16779,0 -0.28664,0.0489 -0.11536,0.0489 -0.19576,0.10137 l -0.12584,-0.24819 q 0.0419,-0.028 0.10487,-0.0594 0.0664,-0.035 0.14681,-0.0629 0.0804,-0.028 0.17129,-0.0454 0.0944,-0.021 0.19576,-0.021 0.19226,0 0.33208,0.0489 0.13983,0.0454 0.23071,0.13283 0.0909,0.0839 0.13633,0.20275 0.0455,0.11535 0.0455,0.25168 0,0.18877 -0.10837,0.3251 -0.10836,0.13283 -0.26217,0.20275 0.0944,0.028 0.18177,0.0804 0.0874,0.0524 0.15031,0.13283 0.0664,0.0804 0.10487,0.18527 0.0419,0.10487 0.0419,0.23421 0,0.1573 -0.0559,0.29363 -0.0524,0.13283 -0.16779,0.23071 -0.11186,0.0979 -0.28315,0.15381 -0.17128,0.0559 -0.40549,0.0559 -0.0909,0 -0.18876,-0.014 -0.0944,-0.014 -0.17828,-0.035 -0.0839,-0.021 -0.14682,-0.0419 -0.0629,-0.021 -0.0909,-0.035 l 0.0629,-0.28315 q 0.0594,0.028 0.19575,0.0734 0.13983,0.0454 0.33908,0.0454 z"
         style="font-variant:normal;font-weight:normal;font-size:3.49564px;font-family:Ubuntu;-inkscape-font-specification:UbuntuMono-Regular;writing-mode:lr-tb;fill:#000000;fill-opacity:1;fill-rule:nonzero;stroke:none;stroke-width:0.352778"
         id="path1420" />
      <path
         d="m -222.6826,156.44499 q 0.52784,0.021 0.77253,0.23072 0.24819,0.20973 0.24819,0.56979 0,0.16079 -0.0559,0.29712 -0.0524,0.13633 -0.16429,0.23421 -0.10837,0.0979 -0.27616,0.15381 -0.16779,0.0559 -0.3985,0.0559 -0.0909,0 -0.18527,-0.014 -0.0944,-0.014 -0.17478,-0.035 -0.0804,-0.021 -0.14332,-0.0419 -0.0629,-0.021 -0.0909,-0.035 l 0.0629,-0.28315 q 0.0594,0.028 0.19226,0.0734 0.13633,0.0454 0.33209,0.0454 0.1573,0 0.26217,-0.035 0.10837,-0.035 0.17478,-0.0944 0.0664,-0.0594 0.0944,-0.13633 0.0315,-0.0804 0.0315,-0.16779 0,-0.13283 -0.0455,-0.2342 -0.0454,-0.10487 -0.1608,-0.17479 -0.11535,-0.0699 -0.30761,-0.10487 -0.19226,-0.0384 -0.4859,-0.0384 0.021,-0.17128 0.0315,-0.3216 0.014,-0.15031 0.0245,-0.29363 0.0105,-0.14332 0.0175,-0.28315 0.007,-0.14332 0.014,-0.30062 h 1.16754 v 0.27615 h -0.8844 q -0.003,0.0524 -0.0105,0.14332 -0.007,0.0874 -0.014,0.18527 -0.007,0.0944 -0.014,0.18527 -0.007,0.0909 -0.014,0.14332 z"
         style="font-variant:normal;font-weight:normal;font-size:3.49564px;font-family:Ubuntu;-inkscape-font-specification:UbuntuMono-Regular;writing-mode:lr-tb;fill:#000000;fill-opacity:1;fill-rule:nonzero;stroke:none;stroke-width:0.352778"
         id="path1422" />
      <path
         d="m -229.63128,163.91963 v -4.07085 h 0.699 v 4.07085 z"
         style="font-variant:normal;font-weight:normal;font-size:3.49564px;font-family:Ubuntu;-inkscape-font-specification:UbuntuMono-Regular;writing-mode:lr-tb;fill:#000000;fill-opacity:1;fill-rule:nonzero;stroke:none;stroke-width:0.539663"
         id="path1395" />
      <path
         d="m -226.13528,163.91963 v -4.07085 h 0.699 v 4.07085 z"
         style="font-variant:normal;font-weight:normal;font-size:3.49564px;font-family:Ubuntu;-inkscape-font-specification:UbuntuMono-Regular;writing-mode:lr-tb;fill:#000000;fill-opacity:1;fill-rule:nonzero;stroke:none;stroke-width:0.539663"
         id="path1397" />
      <path
         d="m -222.63928,163.91963 v -4.07085 h 0.699 v 4.07085 z"
         style="font-variant:normal;font-weight:normal;font-size:3.49564px;font-family:Ubuntu;-inkscape-font-specification:UbuntuMono-Regular;writing-mode:lr-tb;fill:#000000;fill-opacity:1;fill-rule:nonzero;stroke:none;stroke-width:0.539663"
         id="path1399" />
      <path
         d="m -229.43083,168.12821 v -4.24154 h 0.2987 v 1.97142 h 1.12823 v 0.2987 h -1.12823 v 1.97142 z"
         style="font-variant:normal;font-weight:normal;font-size:3.49564px;font-family:Ubuntu;-inkscape-font-specification:UbuntuMono-Regular;writing-mode:lr-tb;fill:#000000;fill-opacity:1;fill-rule:nonzero;stroke:none;stroke-width:0.352778"
         id="path1401" />
      <path
         d="m -225.74638,166.35753 h -3.8539 v -0.699 h 3.8539 z"
         style="font-variant:normal;font-weight:normal;font-size:3.49564px;font-family:Ubuntu;-inkscape-font-specification:UbuntuMono-Regular;writing-mode:lr-tb;fill:#000000;fill-opacity:1;fill-rule:nonzero;stroke:none;stroke-width:0.579479"
         id="path1403"
         sodipodi:nodetypes="ccccc" />
      <path
         d="m -225.9369,166.15679 h -1.12652 v -0.2987 h 1.12652 v -1.97142 h 0.2987 v 1.97142 h 1.12823 v 0.2987 h -1.12823 v 1.97142 h -0.2987 z"
         style="font-variant:normal;font-weight:normal;font-size:3.49564px;font-family:Ubuntu;-inkscape-font-specification:UbuntuMono-Regular;writing-mode:lr-tb;fill:#000000;fill-opacity:1;fill-rule:nonzero;stroke:none;stroke-width:0.352778"
         id="path1405" />
      <path
         d="m -221.94128,166.35753 h -3.81105 v -0.699 h 3.81105 z"
         style="font-variant:normal;font-weight:normal;font-size:3.49564px;font-family:Ubuntu;-inkscape-font-specification:UbuntuMono-Regular;writing-mode:lr-tb;fill:#000000;fill-opacity:1;fill-rule:nonzero;stroke:none;stroke-width:0.659298"
         id="path1407" />
      <path
         d="m -221.94269,166.15679 h -0.69672 l -8.7e-4,-0.2987 v 0 -1.97142 h 0.699 z"
         style="font-variant:normal;font-weight:normal;font-size:3.49564px;font-family:Ubuntu;-inkscape-font-specification:UbuntuMono-Regular;writing-mode:lr-tb;fill:#000000;fill-opacity:1;fill-rule:nonzero;stroke:none;stroke-width:0.539663"
         id="path1409"
         sodipodi:nodetypes="ccccccc" />
      <path
         d="m -229.43083,171.99541 v -4.07086 h 0.2987 v 4.07086 z"
         style="font-variant:normal;font-weight:normal;font-size:3.49564px;font-family:Ubuntu;-inkscape-font-specification:UbuntuMono-Regular;writing-mode:lr-tb;fill:#000000;fill-opacity:1;fill-rule:nonzero;stroke:none;stroke-width:0.352778"
         id="path1411" />
      <path
         d="m -225.93519,171.99541 v -4.07086 h 0.2987 v 4.07086 z"
         style="font-variant:normal;font-weight:normal;font-size:3.49564px;font-family:Ubuntu;-inkscape-font-specification:UbuntuMono-Regular;writing-mode:lr-tb;fill:#000000;fill-opacity:1;fill-rule:nonzero;stroke:none;stroke-width:0.352778"
         id="path1413" />
      <path
         d="m -226.13728,166.15679 v 0 -0.2987 0 -1.97142 h 0.699 v 1.97142 0 0.2987 0 0 z"
         style="font-variant:normal;font-weight:normal;font-size:3.49564px;font-family:Ubuntu;-inkscape-font-specification:UbuntuMono-Regular;writing-mode:lr-tb;fill:#000000;fill-opacity:1;fill-rule:nonzero;stroke:none;stroke-width:0.539663"
         id="path1501"
         sodipodi:nodetypes="cccccccccccc" />
      <path
         d="m -229.59078,166.15844 -0.0405,-2.27177 h 0.69894 v 1.97142 0 l 6e-5,0.2987 h -6e-5 v 0 z"
         style="font-variant:normal;font-weight:normal;font-size:3.49564px;font-family:Ubuntu;-inkscape-font-specification:UbuntuMono-Regular;writing-mode:lr-tb;fill:#000000;fill-opacity:1;fill-rule:nonzero;stroke:none;stroke-width:0.539644"
         id="path1503"
         sodipodi:nodetypes="ccccccccc" />
    </g>
  </g>
</svg>
