<?xml version="1.0" encoding="UTF-8" standalone="no"?>
<svg
   xmlns:dc="http://purl.org/dc/elements/1.1/"
   xmlns:cc="http://creativecommons.org/ns#"
   xmlns:rdf="http://www.w3.org/1999/02/22-rdf-syntax-ns#"
   xmlns:svg="http://www.w3.org/2000/svg"
   xmlns="http://www.w3.org/2000/svg"
   xmlns:sodipodi="http://sodipodi.sourceforge.net/DTD/sodipodi-0.dtd"
   xmlns:inkscape="http://www.inkscape.org/namespaces/inkscape"
   width="10.33302mm"
   height="22.69071mm"
   viewBox="0 0 10.33302 22.69071"
   version="1.1"
   id="svg1622"
   inkscape:version="1.0.2 (e86c870879, 2021-01-15)"
   sodipodi:docname="prevodovka3.svg">
  <defs
     id="defs1616" />
  <sodipodi:namedview
     id="base"
     pagecolor="#ffffff"
     bordercolor="#666666"
     borderopacity="1.0"
     inkscape:pageopacity="0.0"
     inkscape:pageshadow="2"
     inkscape:zoom="3.959798"
     inkscape:cx="17.924879"
     inkscape:cy="24.592108"
     inkscape:document-units="mm"
     inkscape:current-layer="layer1"
     inkscape:document-rotation="0"
     showgrid="false"
     fit-margin-top="1"
     lock-margins="true"
     fit-margin-left="1"
     fit-margin-right="1"
     fit-margin-bottom="1"
     inkscape:window-width="1431"
     inkscape:window-height="1030"
     inkscape:window-x="192"
     inkscape:window-y="0"
     inkscape:window-maximized="0" />
  <metadata
     id="metadata1619">
    <rdf:RDF>
      <cc:Work
         rdf:about="">
        <dc:format>image/svg+xml</dc:format>
        <dc:type
           rdf:resource="http://purl.org/dc/dcmitype/StillImage" />
        <dc:title></dc:title>
      </cc:Work>
    </rdf:RDF>
  </metadata>
  <g
     inkscape:label="Layer 1"
     inkscape:groupmode="layer"
     id="layer1"
     transform="translate(-97.86395,-140.99486)">
    <g
       id="g1614"
       transform="translate(329.03725,-34.821244)">
      <path
         d="m -229.43072,185.22408 v -4.07085 h 0.699 v 4.07085 z"
         style="font-variant:normal;font-weight:normal;font-size:3.49564px;font-family:Ubuntu;-inkscape-font-specification:UbuntuMono-Regular;writing-mode:lr-tb;fill:#000000;fill-opacity:1;fill-rule:nonzero;stroke:none;stroke-width:0.539663"
         id="path1424" />
      <path
         d="m -225.63463,185.22408 v -4.07085 h 0.2987 v 4.07085 z"
         style="font-variant:normal;font-weight:normal;font-size:3.49564px;font-family:Ubuntu;-inkscape-font-specification:UbuntuMono-Regular;writing-mode:lr-tb;fill:#000000;fill-opacity:1;fill-rule:nonzero;stroke:none;stroke-width:0.352778"
         id="path1426" />
      <path
         d="m -222.13898,185.22408 v -4.07085 h 0.2987 v 4.07085 z"
         style="font-variant:normal;font-weight:normal;font-size:3.49564px;font-family:Ubuntu;-inkscape-font-specification:UbuntuMono-Regular;writing-mode:lr-tb;fill:#000000;fill-opacity:1;fill-rule:nonzero;stroke:none;stroke-width:0.352778"
         id="path1428" />
      <path
         d="m -229.43072,189.43265 v -4.24154 h 0.699 c 0,4.24154 0,0 0,4.24154 z"
         style="font-variant:normal;font-weight:normal;font-size:3.49564px;font-family:Ubuntu;-inkscape-font-specification:UbuntuMono-Regular;writing-mode:lr-tb;fill:#000000;fill-opacity:1;fill-rule:nonzero;stroke:none;stroke-width:0.539663"
         id="path1430"
         sodipodi:nodetypes="ccccc" />
      <path
         d="m -225.95723,187.46123 h -3.08262 v -0.2987 h 3.08262 z"
         style="font-variant:normal;font-weight:normal;font-size:3.49564px;font-family:Ubuntu;-inkscape-font-specification:UbuntuMono-Regular;writing-mode:lr-tb;fill:#000000;fill-opacity:1;fill-rule:nonzero;stroke:none;stroke-width:0.352778"
         id="path1432"
         sodipodi:nodetypes="ccccc" />
      <path
         d="m -225.63634,187.46123 h -1.12652 v -0.2987 h 1.12652 v -1.97142 h 0.2987 v 1.97142 h 1.12823 v 0.2987 h -1.12823 v 1.97142 h -0.2987 z"
         style="font-variant:normal;font-weight:normal;font-size:3.49564px;font-family:Ubuntu;-inkscape-font-specification:UbuntuMono-Regular;writing-mode:lr-tb;fill:#000000;fill-opacity:1;fill-rule:nonzero;stroke:none;stroke-width:0.352778"
         id="path1434" />
      <path
         d="m -222.46159,187.46123 h -2.55346 v -0.2987 h 2.55346 z"
         style="font-variant:normal;font-weight:normal;font-size:3.49564px;font-family:Ubuntu;-inkscape-font-specification:UbuntuMono-Regular;writing-mode:lr-tb;fill:#000000;fill-opacity:1;fill-rule:nonzero;stroke:none;stroke-width:0.352778"
         id="path1436" />
      <path
         d="m -221.84199,187.46123 h -1.42522 v -0.2987 h 1.12652 v -1.97142 h 0.2987 z"
         style="font-variant:normal;font-weight:normal;font-size:3.49564px;font-family:Ubuntu;-inkscape-font-specification:UbuntuMono-Regular;writing-mode:lr-tb;fill:#000000;fill-opacity:1;fill-rule:nonzero;stroke:none;stroke-width:0.352778"
         id="path1438" />
      <path
         d="m -229.43072,193.29986 v -4.07085 h 0.699 v 4.07085 z"
         style="font-variant:normal;font-weight:normal;font-size:3.49564px;font-family:Ubuntu;-inkscape-font-specification:UbuntuMono-Regular;writing-mode:lr-tb;fill:#000000;fill-opacity:1;fill-rule:nonzero;stroke:none;stroke-width:0.539663"
         id="path1440" />
      <path
         d="m -225.63463,193.29986 v -4.07085 h 0.2987 v 4.07085 z"
         style="font-variant:normal;font-weight:normal;font-size:3.49564px;font-family:Ubuntu;-inkscape-font-specification:UbuntuMono-Regular;writing-mode:lr-tb;fill:#000000;fill-opacity:1;fill-rule:nonzero;stroke:none;stroke-width:0.352778"
         id="path1442" />
      <path
         d="m -230.04443,177.31598 q 0.19925,-0.0769 0.38802,-0.19576 0.18876,-0.12234 0.34607,-0.30412 h 0.23071 v 2.42248 h -0.3251 v -1.97154 q -0.0419,0.0384 -0.10486,0.0804 -0.0594,0.0419 -0.13284,0.0804 -0.0699,0.0384 -0.15031,0.0734 -0.0769,0.035 -0.15031,0.0594 z"
         style="font-variant:normal;font-weight:normal;font-size:3.49564px;font-family:Ubuntu;-inkscape-font-specification:UbuntuMono-Regular;writing-mode:lr-tb;fill:#000000;fill-opacity:1;fill-rule:nonzero;stroke:none;stroke-width:0.352778"
         id="path1393" />
      <path
         d="m -228.73706,195.70306 q 0,0.12584 -0.0524,0.24469 -0.0489,0.11536 -0.13284,0.23071 -0.0839,0.11186 -0.18876,0.22372 -0.10487,0.10837 -0.20974,0.21324 -0.0594,0.0594 -0.13983,0.13982 -0.0769,0.0804 -0.14681,0.16779 -0.0699,0.0874 -0.11885,0.16779 -0.0455,0.0804 -0.0455,0.13983 h 1.11511 v 0.27616 h -1.46817 q -0.003,-0.021 -0.003,-0.042 0,-0.021 0,-0.0384 0,-0.1643 0.0524,-0.30412 0.0559,-0.14333 0.14332,-0.26917 0.0874,-0.12584 0.19576,-0.2377 0.10836,-0.11186 0.21323,-0.21673 0.0874,-0.0839 0.1643,-0.1643 0.0804,-0.0839 0.13982,-0.16429 0.0629,-0.0839 0.0979,-0.17129 0.0384,-0.0874 0.0384,-0.18527 0,-0.10487 -0.0349,-0.17828 -0.0315,-0.0734 -0.0874,-0.12234 -0.0559,-0.0489 -0.13284,-0.0699 -0.0734,-0.0245 -0.1573,-0.0245 -0.10138,0 -0.18527,0.028 -0.0839,0.028 -0.15031,0.0664 -0.0664,0.035 -0.11186,0.0769 -0.0454,0.0385 -0.0699,0.0594 l -0.1608,-0.23072 q 0.0315,-0.0349 0.0944,-0.0839 0.0629,-0.0524 0.15031,-0.0979 0.0874,-0.0454 0.19575,-0.0769 0.10837,-0.0315 0.23421,-0.0315 0.38103,0 0.56979,0.17827 0.19226,0.17479 0.19226,0.49639 z"
         style="font-variant:normal;font-weight:normal;font-size:3.49564px;font-family:Ubuntu;-inkscape-font-specification:UbuntuMono-Regular;writing-mode:lr-tb;fill:#000000;fill-opacity:1;fill-rule:nonzero;stroke:none;stroke-width:0.352778"
         id="path1415" />
    </g>
  </g>
</svg>
