<?xml version="1.0" encoding="UTF-8" standalone="no"?>
<svg
   width="32.975922mm"
   height="13.151286mm"
   viewBox="0 0 32.975922 13.151286"
   version="1.1"
   id="svg8"
   xmlns="http://www.w3.org/2000/svg"
   xmlns:svg="http://www.w3.org/2000/svg"
   xmlns:rdf="http://www.w3.org/1999/02/22-rdf-syntax-ns#"
   xmlns:cc="http://creativecommons.org/ns#"
   xmlns:dc="http://purl.org/dc/elements/1.1/">
  <defs
     id="defs2">
    <marker
       style="overflow:visible"
       id="marker40006"
       refX="0"
       refY="0"
       orient="auto">
      <path
         transform="scale(-0.6)"
         d="M 8.7185878,4.0337352 -2.2072895,0.01601326 8.7185884,-4.0017078 c -1.7454984,2.3720609 -1.7354408,5.6174519 -6e-7,8.035443 z"
         style="fill:#ff0000;fill-opacity:1;fill-rule:evenodd;stroke:#ff0000;stroke-width:0.625;stroke-linejoin:round;stroke-opacity:1"
         id="path40004" />
    </marker>
    <marker
       style="overflow:visible"
       id="marker39960"
       refX="0"
       refY="0"
       orient="auto">
      <path
         transform="scale(-0.6)"
         d="M 8.7185878,4.0337352 -2.2072895,0.01601326 8.7185884,-4.0017078 c -1.7454984,2.3720609 -1.7354408,5.6174519 -6e-7,8.035443 z"
         style="fill:#ff0000;fill-opacity:1;fill-rule:evenodd;stroke:#ff0000;stroke-width:0.625;stroke-linejoin:round;stroke-opacity:1"
         id="path39958" />
    </marker>
    <marker
       style="overflow:visible"
       id="marker39920"
       refX="0"
       refY="0"
       orient="auto">
      <path
         transform="scale(-0.6)"
         d="M 8.7185878,4.0337352 -2.2072895,0.01601326 8.7185884,-4.0017078 c -1.7454984,2.3720609 -1.7354408,5.6174519 -6e-7,8.035443 z"
         style="fill:#ff0000;fill-opacity:1;fill-rule:evenodd;stroke:#ff0000;stroke-width:0.625;stroke-linejoin:round;stroke-opacity:1"
         id="path39918" />
    </marker>
    <marker
       style="overflow:visible"
       id="Arrow2Mend"
       refX="0"
       refY="0"
       orient="auto">
      <path
         transform="scale(-0.6)"
         d="M 8.7185878,4.0337352 -2.2072895,0.01601326 8.7185884,-4.0017078 c -1.7454984,2.3720609 -1.7354408,5.6174519 -6e-7,8.035443 z"
         style="fill:#ff0000;fill-opacity:1;fill-rule:evenodd;stroke:#ff0000;stroke-width:0.625;stroke-linejoin:round;stroke-opacity:1"
         id="path39569" />
    </marker>
    <marker
       style="overflow:visible"
       id="TriangleOutL"
       refX="0"
       refY="0"
       orient="auto">
      <path
         transform="scale(0.8)"
         style="fill:#ff0000;fill-opacity:1;fill-rule:evenodd;stroke:#ff0000;stroke-width:1pt;stroke-opacity:1"
         d="M 5.77,0 -2.88,5 V -5 Z"
         id="path39684" />
    </marker>
    <marker
       style="overflow:visible"
       id="Arrow1Lstart"
       refX="0"
       refY="0"
       orient="auto">
      <path
         transform="matrix(0.8,0,0,0.8,10,0)"
         style="fill:#ff0000;fill-opacity:1;fill-rule:evenodd;stroke:#ff0000;stroke-width:1pt;stroke-opacity:1"
         d="M 0,0 5,-5 -12.5,0 5,5 Z"
         id="path39542" />
    </marker>
  </defs>
  <metadata
     id="metadata5">
    <rdf:RDF>
      <cc:Work
         rdf:about="">
        <dc:format>image/svg+xml</dc:format>
        <dc:type
           rdf:resource="http://purl.org/dc/dcmitype/StillImage" />
      </cc:Work>
    </rdf:RDF>
  </metadata>
  <g
     id="g10824"
     transform="matrix(0.35277776,9.5257013e-5,-9.5257013e-5,0.35277776,82.262079,-195.67985)">
    <path
       d="m -199.262,556.078 h 25.942 c 1.199,0 2.164,0.965 2.164,2.164 v 4.321 c 0,1.199 -0.965,2.164 -2.164,2.164 h -25.942 c -1.199,0 -2.164,-0.965 -2.164,-2.164 v -4.321 c 0,-1.199 0.965,-2.164 2.164,-2.164 z"
       style="fill:#ffffff;fill-opacity:1;fill-rule:nonzero;stroke:#000000;stroke-width:0.3;stroke-linecap:butt;stroke-linejoin:miter;stroke-miterlimit:4;stroke-dasharray:none;stroke-opacity:1"
       id="path10826" />
  </g>
  <g
     id="g10828"
     transform="matrix(0.35277776,9.5257013e-5,-9.5257013e-5,0.35277776,82.262079,-195.67985)">
    <path
       d="m -168.996,556.078 h 25.945 c 1.196,0 2.16,0.965 2.16,2.164 v 4.321 c 0,1.199 -0.964,2.164 -2.16,2.164 h -25.945 c -1.195,0 -2.16,-0.965 -2.16,-2.164 v -4.321 c 0,-1.199 0.965,-2.164 2.16,-2.164 z"
       style="fill:#ffffff;fill-opacity:1;fill-rule:nonzero;stroke:#000000;stroke-width:0.3;stroke-linecap:butt;stroke-linejoin:miter;stroke-miterlimit:4;stroke-dasharray:none;stroke-opacity:1"
       id="path10830" />
  </g>
  <g
     id="g10832"
     transform="matrix(0.35277776,9.5257013e-5,-9.5257013e-5,0.35277776,82.262079,-195.67985)">
    <path
       d="m -229.531,564.727 h 25.945 c 1.195,0 2.16,0.964 2.16,2.16 v 4.324 c 0,1.199 -0.965,2.164 -2.16,2.164 h -25.945 c -1.196,0 -2.16,-0.965 -2.16,-2.164 v -4.324 c 0,-1.196 0.964,-2.16 2.16,-2.16 z"
       style="fill:#ffffff;fill-opacity:1;fill-rule:nonzero;stroke:#000000;stroke-width:0.3;stroke-linecap:butt;stroke-linejoin:miter;stroke-miterlimit:4;stroke-dasharray:none;stroke-opacity:1"
       id="path10834" />
  </g>
  <g
     id="g10836"
     transform="matrix(0.35277776,9.5257013e-5,-9.5257013e-5,0.35277776,82.262079,-195.67985)">
    <path
       d="m -199.262,564.727 h 25.942 c 1.199,0 2.164,0.964 2.164,2.16 v 4.324 c 0,1.199 -0.965,2.164 -2.164,2.164 h -25.942 c -1.199,0 -2.164,-0.965 -2.164,-2.164 v -4.324 c 0,-1.196 0.965,-2.16 2.164,-2.16 z"
       style="fill:#ffffff;fill-opacity:1;fill-rule:nonzero;stroke:#000000;stroke-width:0.3;stroke-linecap:butt;stroke-linejoin:miter;stroke-miterlimit:4;stroke-dasharray:none;stroke-opacity:1"
       id="path10838" />
  </g>
  <g
     id="g10840"
     transform="matrix(0.35277776,9.5257013e-5,-9.5257013e-5,0.35277776,82.262079,-195.67985)">
    <path
       d="m -168.996,564.727 h 25.945 c 1.196,0 2.16,0.964 2.16,2.16 v 4.324 c 0,1.199 -0.964,2.164 -2.16,2.164 h -25.945 c -1.195,0 -2.16,-0.965 -2.16,-2.164 v -4.324 c 0,-1.196 0.965,-2.16 2.16,-2.16 z"
       style="fill:#ffffff;fill-opacity:1;fill-rule:nonzero;stroke:#000000;stroke-width:0.3;stroke-linecap:butt;stroke-linejoin:miter;stroke-miterlimit:4;stroke-dasharray:none;stroke-opacity:1"
       id="path10842" />
  </g>
  <g
     id="g10844"
     transform="matrix(0.35277776,9.5257013e-5,-9.5257013e-5,0.35277776,82.262079,-195.67985)">
    <path
       d="m -229.531,573.375 h 25.945 c 1.195,0 2.16,0.965 2.16,2.16 v 4.324 c 0,1.2 -0.965,2.164 -2.16,2.164 h -25.945 c -1.196,0 -2.16,-0.964 -2.16,-2.164 v -4.324 c 0,-1.195 0.964,-2.16 2.16,-2.16 z"
       style="fill:#ffffff;fill-opacity:1;fill-rule:nonzero;stroke:#000000;stroke-width:0.3;stroke-linecap:butt;stroke-linejoin:miter;stroke-miterlimit:4;stroke-dasharray:none;stroke-opacity:1"
       id="path10846" />
  </g>
  <g
     id="g10848"
     transform="matrix(0.35277776,9.5257013e-5,-9.5257013e-5,0.35277776,82.262079,-195.67985)">
    <path
       d="m -199.262,573.375 h 25.942 c 1.199,0 2.164,0.965 2.164,2.16 v 4.324 c 0,1.2 -0.965,2.164 -2.164,2.164 h -25.942 c -1.199,0 -2.164,-0.964 -2.164,-2.164 v -4.324 c 0,-1.195 0.965,-2.16 2.164,-2.16 z"
       style="fill:#ffffff;fill-opacity:1;fill-rule:nonzero;stroke:#000000;stroke-width:0.3;stroke-linecap:butt;stroke-linejoin:miter;stroke-miterlimit:4;stroke-dasharray:none;stroke-opacity:1"
       id="path10850" />
  </g>
  <g
     id="g10852"
     transform="matrix(0.35277776,9.5257013e-5,-9.5257013e-5,0.35277776,82.262079,-195.67985)">
    <path
       d="m -168.996,573.375 h 25.945 c 1.196,0 2.16,0.965 2.16,2.16 v 4.324 c 0,1.2 -0.964,2.164 -2.16,2.164 h -25.945 c -1.195,0 -2.16,-0.964 -2.16,-2.164 v -4.324 c 0,-1.195 0.965,-2.16 2.16,-2.16 z"
       style="fill:#ffffff;fill-opacity:1;fill-rule:nonzero;stroke:#000000;stroke-width:0.3;stroke-linecap:butt;stroke-linejoin:miter;stroke-miterlimit:4;stroke-dasharray:none;stroke-opacity:1"
       id="path10854" />
  </g>
  <g
     id="g10856"
     transform="matrix(0.35277776,9.5257013e-5,-9.5257013e-5,0.35277776,82.262079,-195.67985)">
    <path
       d="m -199.262,582.023 h 25.942 c 1.199,0 2.164,0.961 2.164,2.161 v 4.324 c 0,1.199 -0.965,2.164 -2.164,2.164 h -25.942 c -1.199,0 -2.164,-0.965 -2.164,-2.164 v -4.324 c 0,-1.2 0.965,-2.161 2.164,-2.161 z"
       style="fill:#ffffff;fill-opacity:1;fill-rule:nonzero;stroke:#000000;stroke-width:0.3;stroke-linecap:butt;stroke-linejoin:miter;stroke-miterlimit:4;stroke-dasharray:none;stroke-opacity:1"
       id="path10858" />
  </g>
  <g
     id="g10860"
     transform="matrix(0.35277776,9.5257013e-5,-9.5257013e-5,0.35277776,82.262079,-195.67985)">
    <path
       d="m -229.531,556.078 h 25.945 c 1.195,0 2.16,0.965 2.16,2.164 v 4.321 c 0,1.199 -0.965,2.164 -2.16,2.164 h -25.945 c -1.196,0 -2.16,-0.965 -2.16,-2.164 v -4.321 c 0,-1.199 0.964,-2.164 2.16,-2.164 z"
       style="fill:#ffffff;fill-opacity:1;fill-rule:nonzero;stroke:#000000;stroke-width:0.3;stroke-linecap:butt;stroke-linejoin:miter;stroke-miterlimit:4;stroke-dasharray:none;stroke-opacity:1"
       id="path10862" />
  </g>
  <g
     aria-label="1234567890ABCDEFGHIJKLMNOPQRSTUV"
     transform="rotate(0.015471)"
     id="text10878"
     style="font-size:3.22875px;font-family:'Minion Pro';-inkscape-font-specification:'Minion Pro';stroke-width:0.352778">
    <path
       d="M 2.094556,3.1394625 V 3.0522862 C 1.8007398,3.029685 1.7813673,3.003855 1.7813673,2.771385 V 1.0892062 C 1.603786,1.1602387 1.410061,1.221585 1.2066498,1.2571012 v 0.07749 l 0.15498,0.00646 c 0.142065,0.00646 0.15498,0.022601 0.15498,0.1872675 V 2.771385 c 0,0.23247 -0.019372,0.2583 -0.30996,0.2809012 v 0.087176 z"
       id="path3483" />
    <path
       d="M 12.859186,2.6874375 C 12.762324,2.8908487 12.72035,2.9037637 12.545997,2.9037637 H 11.94545 L 12.400704,2.42268 c 0.297045,-0.3164175 0.426195,-0.5069138 0.426195,-0.787815 0,-0.3390188 -0.2583,-0.5456588 -0.54243,-0.5456588 -0.184039,0 -0.33579,0.083948 -0.435882,0.1904963 l -0.184038,0.2615287 0.07103,0.064575 c 0.08395,-0.1259212 0.222784,-0.3002737 0.442339,-0.3002737 0.235699,0 0.377764,0.1582087 0.377764,0.4294237 0,0.2776725 -0.203412,0.54243 -0.403594,0.7813575 -0.158209,0.1872675 -0.342248,0.3713063 -0.519829,0.5488875 v 0.074261 h 1.204324 c 0.03875,-0.1452938 0.07103,-0.2873588 0.113006,-0.4229663 z"
       id="path3485" />
    <path
       d="m 23.126594,1.918995 c 0.09686,-0.064575 0.171123,-0.1226925 0.219555,-0.1743525 0.06457,-0.061346 0.100091,-0.1356075 0.100091,-0.2292413 0,-0.245385 -0.190496,-0.426195 -0.477855,-0.426195 h -0.0032 c -0.171124,0 -0.319646,0.080719 -0.410051,0.18081 l -0.138836,0.2034113 0.06458,0.064575 c 0.08072,-0.1194638 0.209868,-0.2550713 0.38745,-0.2550713 0.171123,0 0.306731,0.10332 0.306731,0.3035025 0,0.2389275 -0.219555,0.36162 -0.513371,0.4584825 l 0.01937,0.093634 c 0.05166,-0.016144 0.132379,-0.035516 0.20664,-0.035516 0.184039,0 0.410051,0.1194638 0.410051,0.4165088 0,0.3164175 -0.161437,0.49077 -0.390678,0.49077 -0.184039,0 -0.316418,-0.090405 -0.400365,-0.1646663 -0.02583,-0.022601 -0.05166,-0.019372 -0.07749,0 -0.02906,0.022601 -0.07103,0.064575 -0.07426,0.1065488 -0.0065,0.038745 0.0065,0.074261 0.05166,0.116235 0.04197,0.038745 0.174353,0.1097775 0.322875,0.1097775 0.23247,0 0.845933,-0.2389275 0.845933,-0.761985 0,-0.2356988 -0.164666,-0.4358813 -0.448796,-0.49077 z"
       id="path3487" />
    <path
       d="M 2.327026,5.6155262 V 5.463775 H 2.017066 V 4.1496737 H 1.887916 C 1.5553548,4.5887837 1.2260223,5.0698675 0.919291,5.5251212 v 0.090405 h 0.839475 v 0.23247 c 0,0.2130975 -0.012915,0.23247 -0.2938162,0.2550713 v 0.087176 H 2.2915097 V 6.1030675 C 2.029981,6.0804662 2.017066,6.0643225 2.017066,5.8479962 v -0.23247 z M 1.758766,5.463775 H 1.1194735 C 1.3357998,5.1086125 1.5456685,4.7986525 1.7523085,4.5112937 h 0.00646 z"
       id="path3489" />
    <path
       d="m 12.02294,4.4144312 h 0.752299 l 0.08395,-0.2098687 -0.01937,-0.02583 h -0.923423 l -0.122692,0.9847687 c 0.07103,-0.029059 0.193725,-0.064575 0.329332,-0.064575 0.355163,0 0.526286,0.2034113 0.526286,0.4875413 0,0.2421562 -0.135607,0.477855 -0.406822,0.477855 -0.196954,0 -0.329333,-0.10332 -0.400365,-0.1614375 -0.02906,-0.02583 -0.05489,-0.022601 -0.08395,-0.00323 -0.03875,0.032287 -0.0678,0.074261 -0.07103,0.1065488 -0.0032,0.038745 0.0097,0.067804 0.05489,0.1097775 0.0452,0.045202 0.184038,0.1130062 0.332561,0.1130062 0.167895,-0.00323 0.384221,-0.087176 0.558574,-0.2292412 C 12.830127,5.83831 12.920532,5.6575 12.920532,5.463775 c 0,-0.2679863 -0.209868,-0.5488875 -0.623148,-0.5488875 -0.08395,0 -0.235699,0.05166 -0.358392,0.1000912 z"
       id="path3491" />
    <path
       d="m 22.648739,5.0827825 c 0.09686,-0.4487963 0.397136,-0.6522075 0.59409,-0.7458413 0.116235,-0.054889 0.245385,-0.093634 0.348705,-0.1130062 l -0.01937,-0.10332 c -0.132379,0.022601 -0.28413,0.061346 -0.41328,0.1065487 -0.342247,0.1226925 -0.833017,0.4875413 -0.833017,1.1946375 0,0.4972275 0.28413,0.8071875 0.661893,0.8071875 0.38745,0 0.661894,-0.3261037 0.661894,-0.7135537 0,-0.3293325 -0.235699,-0.59409 -0.581175,-0.59409 -0.06458,0 -0.132379,0.022601 -0.203411,0.054889 z m 0.290587,0.019372 c 0.293816,0 0.432653,0.2615287 0.432653,0.529515 0,0.219555 -0.08072,0.4875412 -0.332562,0.4875412 -0.264757,0 -0.426195,-0.3164175 -0.426195,-0.7038675 0,-0.083947 0.0032,-0.1646662 0.01937,-0.2260125 0.07426,-0.041974 0.184039,-0.087176 0.306731,-0.087176 z"
       id="path3493" />
    <path
       d="M 2.2979672,7.2295099 H 1.0645848 c -0.012915,0.1388363 -0.029059,0.3002738 -0.058118,0.477855 h 0.093634 c 0.07749,-0.2130975 0.096863,-0.2421562 0.30996,-0.2421562 h 0.69741 c -0.2583,0.5618025 -0.61992,1.226925 -0.9589387,1.7790412 l 0.022601,0.035516 0.2389275,-0.032287 C 1.720021,8.5823562 2.017066,7.9236912 2.3237972,7.2682549 Z"
       id="path3495" />
    <path
       d="m 12.3329,7.1907649 c -0.348705,0 -0.577946,0.2583 -0.577946,0.529515 0,0.2260125 0.142065,0.3809925 0.351933,0.5004563 -0.116235,0.071033 -0.235698,0.1582087 -0.287358,0.20664 -0.07103,0.067804 -0.145294,0.1614375 -0.145294,0.3067312 0,0.3454763 0.274444,0.5456588 0.61992,0.5456588 0.274444,0 0.639292,-0.20664 0.639292,-0.5844038 0,-0.2809012 -0.203411,-0.4358812 -0.426195,-0.5618025 0.148523,-0.1000912 0.23247,-0.1775812 0.2583,-0.20664 0.05812,-0.071032 0.09041,-0.1646662 0.09041,-0.2583 0,-0.2647575 -0.216326,-0.477855 -0.523057,-0.477855 z m -0.03552,0.10332 c 0.151751,0 0.319646,0.116235 0.319646,0.3906788 0,0.193725 -0.08718,0.3131887 -0.196954,0.400365 -0.229241,-0.1130063 -0.422966,-0.219555 -0.422966,-0.4584825 0,-0.167895 0.109777,-0.3325613 0.300274,-0.3325613 z m 0.03229,1.8823613 c -0.209869,0 -0.397136,-0.1614375 -0.397136,-0.4617113 0,-0.1775812 0.106549,-0.3390187 0.261529,-0.4423387 0.251842,0.1259212 0.481083,0.2679862 0.481083,0.5069137 0,0.2486138 -0.151751,0.3971363 -0.345476,0.3971363 z"
       id="path3497" />
    <path
       d="m 22.994215,7.1907649 c -0.419738,0 -0.665123,0.374535 -0.665123,0.6877238 0,0.3390187 0.235699,0.5876325 0.577947,0.5876325 0.06135,0 0.122692,-0.012915 0.193725,-0.05166 l 0.219555,-0.116235 c -0.109778,0.49077 -0.458483,0.8168737 -0.923423,0.8943637 l 0.01614,0.096863 c 0.08072,0 0.277672,-0.032288 0.452025,-0.10332 0.435881,-0.1775812 0.761985,-0.5973187 0.761985,-1.1914087 0,-0.4358813 -0.23247,-0.8039588 -0.632835,-0.8039588 z m -0.05166,0.1065488 c 0.316417,0 0.400365,0.3971362 0.400365,0.684495 0,0.064575 -0.0032,0.1388362 -0.01291,0.2130975 -0.0678,0.05166 -0.177581,0.090405 -0.290588,0.090405 -0.271215,0 -0.432652,-0.2356988 -0.432652,-0.5230575 0,-0.1904963 0.09041,-0.46494 0.33579,-0.46494 z"
       id="path3499" />
    <path
       d="m 12.310595,10.241546 c -0.49077,0 -0.665123,0.574718 -0.665123,1.042886 0,0.513372 0.174353,1.046115 0.661894,1.046115 0.484312,0 0.655436,-0.574717 0.655436,-1.046115 0,-0.497227 -0.171124,-1.042886 -0.652207,-1.042886 z m -0.0097,0.106549 c 0.293817,0 0.374535,0.477855 0.374535,0.936337 0,0.452025 -0.07749,0.936338 -0.368077,0.936338 -0.28413,0 -0.374535,-0.487541 -0.374535,-0.939566 0,-0.452025 0.07749,-0.933109 0.368077,-0.933109 z"
       id="path3501" />
    <path
       d="M 17.818803,3.1394587 V 3.0490537 C 17.608934,3.0296812 17.563731,3.0006224 17.46364,2.7229499 17.257,2.1611474 17.040674,1.5444562 16.840491,0.99233991 L 16.7404,1.0213987 16.072049,2.7132637 c -0.109778,0.2873587 -0.15498,0.3067312 -0.36162,0.33579 v 0.090405 h 0.703867 v -0.090405 c -0.245385,-0.022601 -0.271215,-0.054889 -0.203411,-0.2583 0.04197,-0.1356075 0.09041,-0.271215 0.142065,-0.4165088 h 0.687724 c 0.07103,0.1969538 0.135607,0.3713063 0.177581,0.4972275 0.04197,0.1259213 0.01291,0.1517513 -0.190496,0.1775813 v 0.090405 z m -0.823332,-0.90405 h -0.59409 c 0.100092,-0.2647575 0.200183,-0.5488875 0.303503,-0.8233313 h 0.0065 z"
       id="path3503" />
    <path
       d="m 18.858453,2.0029387 c 0.177581,-0.05166 0.435881,-0.1775813 0.435881,-0.4843125 0,-0.1485225 -0.0678,-0.2905875 -0.18081,-0.3680775 -0.100091,-0.071033 -0.242156,-0.1097775 -0.484312,-0.1097775 h -0.829789 v 0.090405 c 0.2583,0.019373 0.271215,0.038745 0.271215,0.3067312 v 1.304415 c 0,0.2679863 -0.01937,0.2873588 -0.297045,0.3067313 v 0.090405 h 0.713554 c 0.255071,0 0.468169,-0.038745 0.632835,-0.12915 0.190496,-0.10332 0.306731,-0.271215 0.306731,-0.4875413 0,-0.322875 -0.248614,-0.46494 -0.56826,-0.5133712 z m -0.513371,-0.032288 v -0.632835 c 0,-0.1065488 0.0097,-0.142065 0.04197,-0.1614375 0.02906,-0.019373 0.10332,-0.032288 0.18081,-0.032288 0.306731,0 0.429423,0.193725 0.429423,0.41328 0,0.271215 -0.148522,0.41328 -0.500456,0.41328 z m 0,0.1097775 h 0.145294 c 0.393907,0 0.61992,0.1452937 0.61992,0.4746262 0,0.3390188 -0.235699,0.4713975 -0.497228,0.4746263 -0.209869,0 -0.267986,-0.061346 -0.267986,-0.2938163 z"
       id="path3505" />
    <path
       d="m 21.612574,2.5744274 c -0.161438,0.3196463 -0.33579,0.4972275 -0.665123,0.4972275 -0.49077,0 -0.845932,-0.41328 -0.845932,-1.0170562 0,-0.49077 0.287358,-0.9460238 0.82656,-0.9460238 0.348705,0 0.54243,0.1388363 0.629606,0.4810838 l 0.09363,-0.02583 c -0.01937,-0.1711238 -0.03875,-0.3035025 -0.06458,-0.4843125 -0.09041,-0.016144 -0.30996,-0.0871763 -0.571489,-0.0871763 -0.720011,0 -1.243069,0.44556749 -1.243069,1.12683379 0,0.5133712 0.351934,1.0687162 1.155893,1.0687162 0.23247,0 0.503685,-0.064575 0.59409,-0.083947 0.05812,-0.1097775 0.138836,-0.348705 0.184038,-0.4972275 z"
       id="path3507" />
    <path
       d="m 26.529944,1.0407712 v 0.090405 c 0.248614,0.019373 0.274444,0.032288 0.274444,0.30996 v 1.2979575 c 0,0.2744437 -0.02583,0.2938162 -0.303503,0.3131887 v 0.087176 h 0.761985 c 0.393908,0 0.716783,-0.080719 0.958939,-0.2679863 0.245385,-0.1872675 0.397136,-0.4746262 0.397136,-0.8620762 0,-0.3035025 -0.113006,-0.5392013 -0.274444,-0.6941813 -0.200182,-0.193725 -0.500456,-0.2744437 -0.910507,-0.2744437 z m 0.548887,0.3325612 c 0,-0.12915 0.01291,-0.1646662 0.04197,-0.1840387 0.03229,-0.02583 0.116235,-0.041974 0.251843,-0.041974 0.216326,0 0.403593,0.041974 0.548887,0.1323788 0.2583,0.1517512 0.380993,0.4423387 0.380993,0.7749 0,0.5166 -0.280902,0.968625 -0.881449,0.968625 -0.235699,0 -0.342248,-0.061346 -0.342248,-0.3067313 z"
       id="path3509" />
    <path
       d="m 30.194572,2.6164012 c -0.0452,0.1259212 -0.106548,0.2389275 -0.161437,0.3035025 -0.07103,0.083948 -0.161438,0.1097775 -0.406823,0.1097775 -0.161437,0 -0.274443,0 -0.33579,-0.041974 -0.05812,-0.038745 -0.07749,-0.1097775 -0.07749,-0.2615287 V 2.1159449 h 0.306732 c 0.280901,0 0.303502,0.019372 0.345476,0.2486138 h 0.09363 V 1.7478674 h -0.09363 c -0.03874,0.2163263 -0.05489,0.2421563 -0.348705,0.2421563 h -0.303503 v -0.736155 c 0,-0.093634 0.0065,-0.10332 0.106549,-0.10332 h 0.245385 c 0.23247,0 0.319646,0.022601 0.364849,0.093634 0.04197,0.067804 0.07426,0.1388363 0.10332,0.2744438 l 0.09363,-0.012915 c -0.0097,-0.1646663 -0.02583,-0.3842213 -0.02583,-0.46494 h -1.440023 v 0.090405 c 0.251843,0.019373 0.277673,0.032288 0.277673,0.3196462 v 1.2850425 c 0,0.2647575 -0.02583,0.2905875 -0.319647,0.3131888 v 0.090405 H 30.1752 c 0.02906,-0.1000913 0.09363,-0.4035938 0.113006,-0.5101425 z"
       id="path3511" />
    <path
       d="m 31.973612,1.5153974 c -0.01291,-0.15498 -0.02906,-0.3583912 -0.03229,-0.4746262 h -1.42065 v 0.090405 c 0.248614,0.019373 0.274444,0.035516 0.274444,0.3131887 v 1.2882713 c 0,0.2776725 -0.02583,0.297045 -0.28413,0.3164175 v 0.090405 h 0.87822 V 3.0490537 C 31.095392,3.0296812 31.069562,3.0103087 31.069562,2.7326362 V 2.1482324 h 0.332561 c 0.293816,0 0.30996,0.035516 0.348705,0.2583 h 0.09363 V 1.7833837 h -0.09363 c -0.03874,0.2098687 -0.05489,0.2389275 -0.348705,0.2389275 H 31.069562 V 1.2538687 c 0,-0.093634 0.0097,-0.10332 0.106548,-0.10332 h 0.245385 c 0.245385,0 0.313189,0.029059 0.368078,0.1194637 0.04197,0.064575 0.06135,0.12915 0.09041,0.2583 z"
       id="path3513" />
    <path
       d="M 7.7636477,5.2151574 H 6.9435452 v 0.090405 c 0.3196462,0.022601 0.3390187,0.045202 0.3390187,0.2776725 v 0.2744438 c 0,0.1356075 -0.038745,0.1775812 -0.10332,0.2130975 -0.071033,0.035516 -0.1711237,0.054889 -0.2809012,0.054889 -0.6231488,0 -0.8975925,-0.54243 -0.8975925,-1.0105987 0,-0.59409 0.36162,-0.9589388 0.8556187,-0.9589388 0.30996,0 0.5521163,0.1065488 0.6296063,0.503685 l 0.090405,-0.019373 C 7.5537789,4.4273424 7.5376352,4.2497612 7.5279489,4.1367549 7.4214002,4.1141537 7.1760152,4.0431212 6.9048002,4.0431212 c -0.632835,0 -1.2333825,0.3648487 -1.2333825,1.11069 0,0.6425212 0.4746262,1.08486 1.1849512,1.08486 0.2583,0 0.5230575,-0.071032 0.72324,-0.116235 -0.019373,-0.090405 -0.022601,-0.193725 -0.022601,-0.3067313 V 5.5380324 c 0,-0.1904962 0.012915,-0.20664 0.20664,-0.23247 z"
       id="path3515" />
    <path
       d="M 9.8526396,4.0915524 H 9.0099359 v 0.090405 c 0.2518425,0.022601 0.2776725,0.038745 0.2776725,0.3067313 V 5.0117462 H 8.1866046 V 4.4886887 c 0,-0.2679863 0.02583,-0.2873588 0.271215,-0.3067313 V 4.0915524 H 7.6215734 v 0.090405 c 0.2647575,0.019373 0.2905875,0.035516 0.2905875,0.3067313 v 1.304415 c 0,0.271215 -0.02583,0.2873587 -0.28413,0.3067312 v 0.090405 H 8.4771921 V 6.0998349 C 8.2124346,6.0804624 8.1866046,6.0610899 8.1866046,5.7931037 V 5.1505824 h 1.1010038 v 0.6425213 c 0,0.271215 -0.02583,0.2873587 -0.3035025,0.3067312 v 0.090405 h 0.865305 V 6.0998349 C 9.5878821,6.0804624 9.5620521,6.0643187 9.5620521,5.7931037 v -1.304415 c 0,-0.2679863 0.02583,-0.28413 0.2905875,-0.3067313 z"
       id="path3517" />
    <path
       d="M 10.692113,6.1902399 V 6.0998349 C 10.427355,6.0804624 10.401525,6.0643187 10.401525,5.7866462 v -1.2915 c 0,-0.2744438 0.02583,-0.2938163 0.290588,-0.3131888 V 4.0915524 H 9.8364939 v 0.090405 c 0.2647571,0.019373 0.2905871,0.038745 0.2905871,0.3131888 v 1.2915 c 0,0.2744437 -0.02583,0.2938162 -0.2905871,0.3131887 v 0.090405 z"
       id="path3519" />
    <path
       d="m 17.666202,4.0915524 h -0.836246 v 0.090405 c 0.261529,0.019373 0.287359,0.041974 0.287359,0.3131888 v 1.097775 c 0,0.2744437 -0.0065,0.4617112 -0.03229,0.6166912 -0.03552,0.1840388 -0.12915,0.3325613 -0.30996,0.4197375 l 0.03874,0.093634 c 0.08395,-0.02583 0.190497,-0.087176 0.300274,-0.1872675 0.213098,-0.1969538 0.277673,-0.4197375 0.277673,-0.8362463 V 4.4951462 c 0,-0.271215 0.02583,-0.2938163 0.274443,-0.3131888 z"
       id="path3521" />
    <path
       d="m 19.829474,6.1902399 v -0.090405 c -0.15498,-0.019373 -0.219555,-0.048431 -0.390679,-0.23247 -0.161437,-0.1743525 -0.5166,-0.5714887 -0.758756,-0.87822 0.216326,-0.219555 0.445567,-0.452025 0.571489,-0.5650312 0.203411,-0.1872675 0.280901,-0.219555 0.523057,-0.2421563 v -0.090405 h -0.7749 v 0.090405 l 0.07426,0.00969 c 0.145294,0.016144 0.148523,0.048431 0.05166,0.1646662 -0.145293,0.1775813 -0.36162,0.4035938 -0.539201,0.5747175 -0.09041,0.083948 -0.15498,0.12915 -0.226012,0.1452938 V 4.5112899 c 0,-0.2873587 0.03229,-0.30996 0.280901,-0.3293325 v -0.090405 h -0.833018 v 0.090405 c 0.255072,0.019373 0.280902,0.035516 0.280902,0.3293325 v 1.26567 c 0,0.2809013 -0.02583,0.3035025 -0.271215,0.322875 v 0.090405 h 0.839475 V 6.0998349 C 18.389451,6.0804624 18.360393,6.0578612 18.360393,5.7769599 V 5.1634974 c 0.05489,-0.00969 0.09686,0 0.174352,0.087176 0.287359,0.3422475 0.548888,0.658665 0.80073,0.9395662 z"
       id="path3523" />
    <path
       d="m 21.304997,5.6639537 c -0.04843,0.1485225 -0.106548,0.2518425 -0.164666,0.3164175 -0.07426,0.083947 -0.184039,0.1000912 -0.36162,0.1000912 -0.135607,0 -0.245385,-0.00646 -0.30996,-0.041974 -0.05812,-0.032288 -0.07426,-0.096863 -0.07426,-0.271215 V 4.4919174 c 0,-0.2776725 0.02906,-0.2905875 0.28413,-0.30996 v -0.090405 h -0.842704 v 0.090405 c 0.264758,0.019373 0.28413,0.035516 0.28413,0.30996 v 1.2915 c 0,0.2744438 -0.02583,0.297045 -0.297045,0.3164175 v 0.090405 h 1.462624 c 0.02906,-0.1000912 0.09686,-0.4068225 0.116235,-0.5069137 z"
       id="path3525" />
    <path
       d="M 27.946543,6.1902399 V 6.0998349 C 27.665642,6.0772337 27.655956,6.0578612 27.64627,5.7156137 l -0.02906,-1.1688075 c -0.0097,-0.3325613 0.0097,-0.3390188 0.297045,-0.3648488 v -0.090405 h -0.548888 l -0.74907,1.6176038 -0.736155,-1.6176038 h -0.529515 v 0.090405 c 0.293817,0.029059 0.30996,0.041974 0.280902,0.4617113 l -0.0452,0.67158 c -0.0226,0.3390187 -0.04197,0.477855 -0.06135,0.5908612 -0.0226,0.1356075 -0.08395,0.1743525 -0.274444,0.193725 v 0.090405 h 0.752299 v -0.090405 c -0.216326,-0.022601 -0.290588,-0.045203 -0.297045,-0.2001825 -0.0032,-0.12915 -0.0032,-0.2679862 0.0097,-0.5359725 l 0.04843,-0.9201937 h 0.0065 l 0.72324,1.7241525 h 0.06458 l 0.787815,-1.769355 h 0.01291 l 0.01291,1.31733 c 0,0.3422475 -0.0097,0.36162 -0.274444,0.3842212 v 0.090405 z"
       id="path3527" />
    <path
       d="m 30.11947,4.0915524 h -0.761985 v 0.090405 c 0.226012,0.00969 0.300273,0.05166 0.316417,0.2001825 0.01292,0.090405 0.0226,0.2356988 0.0226,0.5359725 v 0.7942725 h -0.0097 L 28.3372,4.0915524 h -0.474627 v 0.090405 c 0.151752,0.012915 0.219555,0.038745 0.287359,0.1194638 0.05812,0.074261 0.06458,0.090405 0.06458,0.3261037 v 0.710325 c 0,0.2938163 -0.0097,0.452025 -0.01937,0.5521163 -0.01614,0.1582087 -0.100092,0.2001825 -0.28413,0.2098687 v 0.090405 h 0.765213 v -0.090405 c -0.219555,-0.012915 -0.293816,-0.05166 -0.30996,-0.2163262 -0.0097,-0.093634 -0.01937,-0.2486138 -0.01937,-0.5456588 V 4.5274337 h 0.0065 l 1.375448,1.691865 h 0.100091 V 4.9181124 c 0,-0.3002737 0.0065,-0.4455675 0.01937,-0.5456587 0.01291,-0.1388363 0.0904,-0.18081 0.271215,-0.1904963 z"
       id="path3529" />
    <path
       d="m 31.223709,4.0431212 c -0.681266,0 -1.088089,0.5392012 -1.088089,1.1203762 0,0.6231488 0.46494,1.0751738 1.049344,1.0751738 0.590861,0 1.078402,-0.426195 1.078402,-1.123605 0,-0.6489788 -0.493998,-1.071945 -1.039657,-1.071945 z m -0.07103,0.116235 c 0.426195,0 0.781358,0.36162 0.781358,1.0428862 0,0.61992 -0.319646,0.9201938 -0.681266,0.9201938 -0.455254,0 -0.787815,-0.4423388 -0.787815,-1.0493438 0,-0.607005 0.329332,-0.9137362 0.687723,-0.9137362 z"
       id="path3531" />
    <path
       d="m 3.4076575,7.1423337 v 0.090405 C 3.646585,7.2488824 3.672415,7.2617974 3.672415,7.5459274 v 1.2915 c 0,0.2679863 -0.02583,0.2938163 -0.28413,0.3131888 v 0.090405 H 4.2632763 V 9.1506162 C 3.9726888,9.1312437 3.94363,9.1150999 3.94363,8.8406562 V 8.3337424 l 0.2389275,0.061346 c 0.035516,0.00323 0.096863,0.00323 0.1452938,-0.00323 0.3164175,-0.038745 0.6296062,-0.2421562 0.6296062,-0.6618937 0,-0.2098688 -0.080719,-0.3583913 -0.20664,-0.4552538 C 4.6216675,7.1810787 4.4344,7.1423337 4.2051588,7.1423337 Z M 3.94363,7.4361499 c 0,-0.093634 0.00969,-0.1323787 0.035516,-0.1517512 0.022601,-0.022601 0.090405,-0.038745 0.18081,-0.038745 0.2647575,0 0.4875412,0.1485225 0.4875412,0.4972275 0,0.4100512 -0.2583,0.5230575 -0.4681687,0.5230575 -0.1065488,0 -0.193725,-0.022601 -0.2356988,-0.038745 z"
       id="path3533" />
    <path
       d="M 7.4145385,9.6865887 C 7.1142647,9.5509812 6.826906,9.3733999 6.6267235,9.2345637 7.007716,9.1150999 7.3596497,8.7470224 7.3596497,8.1723049 c 0,-0.6489787 -0.4875412,-1.0784025 -1.0299712,-1.0784025 -0.6909525,0 -1.097775,0.5359725 -1.097775,1.1300625 0,0.322875 0.1388363,0.6005475 0.3325613,0.7813575 0.20664,0.2001825 0.4875412,0.271215 0.67158,0.2809013 0.3906787,0.2744437 0.6425212,0.3939075 0.7393837,0.4197375 0.096863,0.02583 0.2583,0.05166 0.41328,0.048431 z M 6.2134435,9.1603024 C 5.8356798,9.0828124 5.561236,8.6856762 5.561236,8.1367887 c 0,-0.6166913 0.3325613,-0.9266513 0.6909525,-0.9266513 0.4423388,0 0.7781287,0.3842213 0.7781287,1.0558013 0,0.5166 -0.2518425,0.8104162 -0.5101424,0.8846775 -0.029059,-0.019372 -0.058118,-0.041974 -0.087176,-0.061346 z"
       id="path3535" />
    <path
       d="M 9.2355477,9.1829037 C 9.1645152,9.1635312 9.0870252,9.1280149 9.0030777,9.0311524 8.9223589,8.9472049 8.8577839,8.8632574 8.7415489,8.6953624 8.6446864,8.5500687 8.5090789,8.3337424 8.4541902,8.2304224 8.6898889,8.1238737 8.8642414,7.9527499 8.8642414,7.6750774 c 0,-0.193725 -0.083947,-0.3390187 -0.2163262,-0.4229662 C 8.5284514,7.1713924 8.3702427,7.1423337 8.1345439,7.1423337 h -0.80073 v 0.090405 c 0.2518425,0.022601 0.2776725,0.032288 0.2776725,0.3067312 v 1.2979575 c 0,0.2744438 -0.02583,0.2938163 -0.2905875,0.3131888 v 0.090405 H 8.1668314 V 9.1506162 C 7.9117602,9.1312437 7.8827014,9.1118712 7.8827014,8.8374274 V 8.3240562 h 0.10332 c 0.1646663,0 0.219555,0.038745 0.2744438,0.12915 0.096863,0.1582087 0.2130975,0.3583912 0.3261037,0.5166 0.1452938,0.2098687 0.2776725,0.2809012 0.5230575,0.2938162 0.035516,0.00323 0.074261,0.00323 0.1130063,0.00323 z M 7.8827014,8.2207362 V 7.4232349 c 0,-0.090405 0.00969,-0.1259212 0.035516,-0.142065 0.02583,-0.019373 0.080719,-0.032287 0.1743525,-0.032287 0.2421562,0 0.4713975,0.12915 0.4713975,0.477855 0,0.1743525 -0.05166,0.3035025 -0.1775813,0.400365 -0.080719,0.067804 -0.1872675,0.093634 -0.348705,0.093634 z"
       id="path3537" />
    <path
       d="m 10.485074,7.6137312 c -0.02583,-0.2034113 -0.04197,-0.3325613 -0.05489,-0.4455675 -0.122692,-0.038745 -0.2583,-0.074261 -0.406822,-0.074261 -0.4165088,0 -0.6651225,0.2647575 -0.6651225,0.5747175 0,0.3648488 0.3261037,0.5230575 0.5327437,0.6360638 0.2421558,0.12915 0.4197378,0.2421562 0.4197378,0.4810837 0,0.2356988 -0.142065,0.38745 -0.3874503,0.38745 -0.33579,0 -0.4810837,-0.3261037 -0.529515,-0.5230575 l -0.096863,0.022601 c 0.022601,0.15498 0.064575,0.4326525 0.087176,0.5004562 0.032288,0.016144 0.080719,0.041974 0.1614375,0.067804 0.07749,0.022601 0.1840387,0.048431 0.3164175,0.048431 0.4294235,0 0.7167825,-0.271215 0.7167825,-0.6102337 0,-0.3648488 -0.303503,-0.5133713 -0.558574,-0.64575 -0.255071,-0.12915 -0.410051,-0.2421563 -0.410051,-0.477855 0,-0.1743525 0.1097775,-0.3519338 0.3583912,-0.3519338 0.2809008,0 0.3680778,0.2227838 0.4229658,0.426195 z"
       id="path3539" />
    <path
       d="m 17.394585,7.6331037 c -0.01937,-0.1872675 -0.03229,-0.4229663 -0.03552,-0.5714888 h -0.0678 c -0.04843,0.061346 -0.07426,0.080719 -0.161438,0.080719 h -1.275356 c -0.09041,0 -0.132379,-0.00646 -0.177581,-0.080719 h -0.06457 c -0.0065,0.1775813 -0.0226,0.38745 -0.03875,0.581175 h 0.09363 c 0.03875,-0.142065 0.06457,-0.2356987 0.10332,-0.2905875 0.04197,-0.071033 0.106548,-0.1000912 0.374535,-0.1000912 h 0.200182 v 1.5917737 c 0,0.2550713 -0.02583,0.2873588 -0.319646,0.3067313 v 0.090405 h 0.923422 V 9.1506162 C 16.645515,9.1312437 16.619685,9.0989562 16.619685,8.8438849 V 7.2521112 h 0.226012 c 0.245385,0 0.297045,0.02583 0.351934,0.10332 0.03552,0.05166 0.0678,0.1323787 0.100091,0.2873587 z"
       id="path3541" />
    <path
       d="m 19.706372,7.1423337 h -0.768443 v 0.090405 c 0.229241,0.016144 0.297045,0.054889 0.313189,0.18081 0.01291,0.1000912 0.0226,0.2356987 0.0226,0.5327437 v 0.2421563 c 0,0.5327437 -0.145294,0.9234225 -0.610234,0.9234225 -0.400365,0 -0.607005,-0.3002738 -0.607005,-0.8201025 V 7.5588424 c 0,-0.2905875 0.02583,-0.30996 0.277673,-0.3261037 v -0.090405 h -0.833018 v 0.090405 c 0.251843,0.022601 0.280902,0.035516 0.280902,0.3261037 v 0.8039588 c 0,0.3809925 0.09041,0.61992 0.28413,0.7684425 0.142065,0.1097775 0.326103,0.15498 0.5166,0.15498 0.213097,0 0.429423,-0.067804 0.581175,-0.2227838 0.184038,-0.1969537 0.242156,-0.4713975 0.242156,-0.85239 V 7.9462924 c 0,-0.297045 0.0097,-0.4358812 0.01937,-0.5230575 0.01291,-0.1356075 0.08718,-0.1775812 0.280902,-0.1904962 z"
       id="path3543" />
    <path
       d="m 21.701742,7.1423337 h -0.726468 v 0.090405 c 0.261528,0.032288 0.280901,0.054889 0.219555,0.2421562 -0.10332,0.322875 -0.348705,0.9524813 -0.510143,1.3593038 h -0.0065 C 20.458674,8.2788537 20.222975,7.6524762 20.142256,7.4232349 20.090596,7.2811699 20.100282,7.2553399 20.329524,7.2327387 V 7.1423337 H 19.53848 v 0.090405 c 0.193725,0.019373 0.245385,0.045203 0.339019,0.28413 0.187267,0.4681687 0.452025,1.1688075 0.668351,1.7596687 h 0.100091 c 0.245385,-0.6683512 0.584404,-1.4884537 0.67158,-1.7015512 0.122693,-0.2873588 0.164666,-0.3164175 0.384221,-0.3422475 z"
       id="path3545" />
  </g>
  <g
     aria-label="WXYZ"
     transform="rotate(0.015471)"
     id="text10882"
     style="font-size:3.01349px;font-family:'Minion Pro';-inkscape-font-specification:'Minion Pro';stroke-width:0.352778">
    <path
       d="m 27.166352,7.2822565 h -0.662968 v 0.084378 c 0.235053,0.027121 0.247106,0.06027 0.204918,0.2410792 -0.0452,0.2139578 -0.213958,0.8046018 -0.340525,1.2084095 h -0.006 C 26.177927,8.2947891 26.003145,7.8066037 25.83439,7.3093779 h -0.08739 C 25.59331,7.8005768 25.421541,8.3008161 25.258813,8.8131094 h -0.006 C 25.120192,8.3851938 25.002666,7.9783727 24.88514,7.5715515 c -0.0452,-0.153688 -0.03918,-0.1777959 0.18081,-0.2049173 v -0.084378 h -0.732278 v 0.084378 c 0.183822,0.021094 0.229025,0.048216 0.304362,0.295322 0.165742,0.5364012 0.334497,1.0667755 0.494212,1.6122172 h 0.09342 C 25.379353,8.785988 25.548108,8.3008161 25.716863,7.7704419 h 0.006 c 0.153688,0.436956 0.361619,1.0185596 0.527361,1.5037315 h 0.09342 c 0.247107,-0.8437772 0.430929,-1.4133268 0.497226,-1.6061902 0.09041,-0.2501197 0.117526,-0.2742276 0.325457,-0.301349 z"
       id="path3474" />
    <path
       d="M 29.034713,9.241025 V 9.1566473 C 28.823768,9.1355528 28.757472,9.0903505 28.618851,8.8794062 28.474204,8.6594214 28.308462,8.3972478 28.145733,8.1380876 28.347637,7.8276982 28.447082,7.6860642 28.510366,7.5986729 28.645973,7.420877 28.703229,7.3907421 28.926227,7.3666342 v -0.084378 h -0.687076 v 0.084378 c 0.198891,0.024108 0.213958,0.054243 0.141634,0.1868364 -0.08136,0.147661 -0.171768,0.2923085 -0.298335,0.4881854 -0.132594,-0.2049174 -0.244093,-0.3766863 -0.343538,-0.5484552 -0.0452,-0.078351 -0.04219,-0.1054722 0.141634,-0.1265666 v -0.084378 h -0.741318 v 0.084378 c 0.216971,0.024108 0.256146,0.057256 0.385726,0.2531332 0.105472,0.1687554 0.244093,0.3917537 0.403808,0.6448868 -0.265187,0.4098347 -0.418875,0.6268059 -0.494212,0.7202241 -0.08739,0.1145126 -0.18081,0.153688 -0.352579,0.171769 v 0.084378 h 0.690089 v -0.084378 c -0.201903,-0.024108 -0.216971,-0.054243 -0.144647,-0.1838229 0.09643,-0.1777959 0.219985,-0.3857268 0.367646,-0.608725 0.186836,0.295322 0.322443,0.5213338 0.39778,0.6448868 0.05726,0.099445 0.03616,0.1265666 -0.150674,0.1476611 v 0.084378 z"
       id="path3476" />
    <path
       d="M 30.649951,7.2822565 H 29.98397 v 0.084378 c 0.235052,0.024108 0.244093,0.048216 0.174783,0.1988904 -0.08438,0.1838228 -0.247107,0.4791449 -0.358606,0.6780352 C 29.670567,8.017548 29.522906,7.7704419 29.393326,7.5293627 29.339083,7.4299175 29.330043,7.3937556 29.547014,7.3666342 V 7.2822565 H 28.82679 v 0.084378 c 0.180809,0.015067 0.213958,0.048216 0.334497,0.2561467 0.162729,0.277241 0.274228,0.4761314 0.3797,0.6599543 0.05123,0.093418 0.06328,0.1205396 0.06328,0.1808094 v 0.4007941 c 0,0.2561467 -0.02411,0.2742276 -0.292308,0.2923086 v 0.084378 h 0.849804 V 9.1566473 C 29.884525,9.1385663 29.860417,9.1174719 29.860417,8.8643387 V 8.4545041 c 0,-0.078351 0.009,-0.1114991 0.05123,-0.1898499 0.141634,-0.2651871 0.244093,-0.4399695 0.3797,-0.6599543 0.114513,-0.1838229 0.150675,-0.2139578 0.358605,-0.2380657 z"
       id="path3478" />
    <path
       d="m 32.189853,8.7106507 c -0.05424,0.147661 -0.102459,0.2440927 -0.165742,0.3103895 -0.08438,0.090405 -0.195877,0.1114991 -0.572563,0.1114991 -0.207931,0 -0.394768,-0.00603 -0.491199,-0.018081 0.412848,-0.6117385 0.825696,-1.1963555 1.244571,-1.790013 l -0.02109,-0.042189 h -1.202383 c -0.0904,0 -0.123553,-0.00603 -0.159715,-0.075337 h -0.07232 c -0.006,0.1356071 -0.02109,0.3616188 -0.03616,0.5514687 l 0.08739,0.00301 c 0.03616,-0.1325936 0.06931,-0.2079308 0.105472,-0.2621736 0.05123,-0.081364 0.09944,-0.1084857 0.424902,-0.1084857 h 0.521334 c -0.418875,0.6117385 -0.843777,1.2084095 -1.265666,1.8050805 l 0.02411,0.045202 h 1.557974 c 0.03315,-0.1235531 0.08739,-0.4038077 0.108486,-0.5122933 z"
       id="path3480" />
  </g>
  <g
     aria-label="ABC"
     transform="rotate(0.015471)"
     id="text10886"
     style="font-size:3.22875px;font-family:'Minion Pro';-inkscape-font-specification:'Minion Pro';stroke-width:0.352778">
    <path
       d="m 17.818803,12.291806 v -0.0904 C 17.608934,12.182029 17.563731,12.15297 17.46364,11.875297 17.257,11.313495 17.040674,10.696804 16.840491,10.144687 l -0.100091,0.02906 -0.668351,1.691865 c -0.109778,0.287359 -0.15498,0.306731 -0.36162,0.33579 v 0.0904 h 0.703867 v -0.0904 c -0.245385,-0.0226 -0.271215,-0.05489 -0.203411,-0.2583 0.04197,-0.135607 0.09041,-0.271215 0.142065,-0.416509 h 0.687724 c 0.07103,0.196954 0.135607,0.371307 0.177581,0.497228 0.04197,0.125921 0.01291,0.151751 -0.190496,0.177581 v 0.0904 z m -0.823332,-0.90405 h -0.59409 c 0.100092,-0.264757 0.200183,-0.548887 0.303503,-0.823331 h 0.0065 z"
       id="path3467" />
    <path
       d="m 18.858453,11.155286 c 0.177581,-0.05166 0.435881,-0.177581 0.435881,-0.484312 0,-0.148523 -0.0678,-0.290588 -0.18081,-0.368078 -0.100091,-0.07103 -0.242156,-0.109777 -0.484312,-0.109777 h -0.829789 v 0.09041 c 0.2583,0.01937 0.271215,0.03875 0.271215,0.306731 v 1.304415 c 0,0.267986 -0.01937,0.287359 -0.297045,0.306731 v 0.0904 h 0.713554 c 0.255071,0 0.468169,-0.03874 0.632835,-0.12915 0.190496,-0.10332 0.306731,-0.271215 0.306731,-0.487541 0,-0.322875 -0.248614,-0.46494 -0.56826,-0.513371 z m -0.513371,-0.03229 v -0.632835 c 0,-0.106549 0.0097,-0.142065 0.04197,-0.161438 0.02906,-0.01937 0.10332,-0.03229 0.18081,-0.03229 0.306731,0 0.429423,0.193725 0.429423,0.41328 0,0.271215 -0.148522,0.41328 -0.500456,0.41328 z m 0,0.109777 h 0.145294 c 0.393907,0 0.61992,0.145294 0.61992,0.474626 0,0.339019 -0.235699,0.471398 -0.497228,0.474627 -0.209869,0 -0.267986,-0.06135 -0.267986,-0.293817 z"
       id="path3469" />
    <path
       d="m 21.612574,11.726775 c -0.161438,0.319646 -0.33579,0.497227 -0.665123,0.497227 -0.49077,0 -0.845932,-0.41328 -0.845932,-1.017056 0,-0.49077 0.287358,-0.946024 0.82656,-0.946024 0.348705,0 0.54243,0.138837 0.629606,0.481084 l 0.09363,-0.02583 c -0.01937,-0.171124 -0.03875,-0.303502 -0.06458,-0.484312 -0.09041,-0.01614 -0.30996,-0.08718 -0.571489,-0.08718 -0.720011,0 -1.243069,0.445568 -1.243069,1.126834 0,0.513371 0.351934,1.068716 1.155893,1.068716 0.23247,0 0.503685,-0.06457 0.59409,-0.08395 0.05812,-0.109778 0.138836,-0.348705 0.184038,-0.497228 z"
       id="path3471" />
  </g>
  <g
     id="g10888"
     transform="matrix(0.35277776,9.5257013e-5,-9.5257013e-5,0.35277776,82.262079,-195.67985)">
    <path
       d="m -229.531,582.023 h 25.945 c 1.195,0 2.16,0.961 2.16,2.161 v 4.324 c 0,1.199 -0.965,2.16 -2.16,2.16 h -25.945 c -1.196,0 -2.16,-0.961 -2.16,-2.16 v -4.324 c 0,-1.2 0.964,-2.161 2.16,-2.161 z"
       style="fill:#ffffff;fill-opacity:1;fill-rule:nonzero;stroke:#000000;stroke-width:0.3;stroke-linecap:butt;stroke-linejoin:miter;stroke-miterlimit:4;stroke-dasharray:none;stroke-opacity:1"
       id="path10890" />
  </g>
  <g
     id="g10892"
     transform="matrix(0.35277776,9.5257013e-5,-9.5257013e-5,0.35277776,82.262079,-195.67985)">
    <path
       d="m -168.996,582.023 h 25.945 c 1.196,0 2.16,0.961 2.16,2.161 v 4.324 c 0,1.199 -0.964,2.16 -2.16,2.16 h -25.945 c -1.195,0 -2.16,-0.961 -2.16,-2.16 v -4.324 c 0,-1.2 0.965,-2.161 2.16,-2.161 z"
       style="fill:#ffffff;fill-opacity:1;fill-rule:nonzero;stroke:#000000;stroke-width:0.3;stroke-linecap:butt;stroke-linejoin:miter;stroke-miterlimit:4;stroke-dasharray:none;stroke-opacity:1"
       id="path10894" />
  </g>
  <g
     aria-label="#*"
     transform="rotate(0.015471)"
     id="text10898"
     style="font-size:3.22875px;font-family:'Minion Pro';-inkscape-font-specification:'Minion Pro';stroke-width:0.352778">
    <path
       d="M 2.301196,10.829182 H 2.0202947 L 2.1268435,10.328726 H 2.0009222 L 1.8943735,10.829182 H 1.5456685 L 1.655446,10.328726 H 1.5327535 L 1.422976,10.829182 H 1.1097873 l -0.029059,0.187268 h 0.3002738 l -0.093634,0.43911 H 0.96772225 L 0.932206,11.642827 h 0.30996 L 1.1194735,12.20463 H 1.242166 l 0.1226925,-0.561803 h 0.348705 L 1.5940998,12.20463 H 1.7167923 L 1.8394848,11.642827 H 2.1300722 L 2.159131,11.45556 H 1.8814585 L 1.978321,11.01645 H 2.2721372 Z M 1.8556285,11.01645 1.758766,11.45556 H 1.4132898 l 0.093634,-0.43911 z"
       id="path3462" />
    <path
       d="m 23.3849,10.700032 v -0.08072 l -0.429424,-0.0065 0.08718,-0.448796 -0.07749,-0.01937 -0.187267,0.426195 -0.390679,-0.2583 -0.04843,0.0678 0.33579,0.329333 -0.329333,0.303502 0.0452,0.07103 0.393907,-0.248614 0.226013,0.419737 0.07426,-0.02906 -0.125921,-0.445568 z"
       id="path3464" />
  </g>
  <path
     style="fill:none;stroke:#ff0000;stroke-width:0.266;stroke-linecap:butt;stroke-linejoin:miter;stroke-miterlimit:4;stroke-dasharray:none;stroke-opacity:1;marker-end:url(#Arrow2Mend)"
     d="M 5.87321,8.25634 5.80349,1.99197"
     id="path39526" />
  <path
     style="fill:none;stroke:#ff0000;stroke-width:0.266409px;stroke-linecap:butt;stroke-linejoin:miter;stroke-opacity:1;marker-end:url(#marker39920)"
     d="M 5.761793,1.72007 H 16.363516"
     id="path39530" />
  <path
     style="fill:none;stroke:#ff0000;stroke-width:0.268513px;stroke-linecap:butt;stroke-linejoin:miter;stroke-opacity:1;marker-end:url(#marker39960)"
     d="m 16.627937,1.6744 -0.0083,3.21255"
     id="path39534" />
  <path
     style="fill:none;stroke:#ff0000;stroke-width:0.267036;stroke-linecap:butt;stroke-linejoin:miter;stroke-miterlimit:4;stroke-dasharray:none;stroke-opacity:1;marker-end:url(#marker40006)"
     d="M 16.697115,5.15416 6.346302,5.17776"
     id="path39538" />
</svg>
