<svg width="298.75" height="272.77" viewBox="0 0 79.04 72.17"><defs><clipPath id="a" clipPathUnits="userSpaceOnUse"><path d="M302.87 488.42h112.4v73.8h-112.4Z" clip-rule="evenodd"/></clipPath><clipPath id="b" clipPathUnits="userSpaceOnUse"><path d="M418.4 488.42h112.4v73.8H418.4Z" clip-rule="evenodd"/></clipPath><clipPath id="c" clipPathUnits="userSpaceOnUse"><path d="M533.93 488.42h112.4v73.8h-112.4Z" clip-rule="evenodd"/></clipPath><clipPath id="d" clipPathUnits="userSpaceOnUse"><path d="M649.45 488.42h115.53v73.8H649.45Z" clip-rule="evenodd"/></clipPath><clipPath id="e" clipPathUnits="userSpaceOnUse"><path d="M768.1 488.42h112.41v73.8h-112.4Z" clip-rule="evenodd"/></clipPath><clipPath id="f" clipPathUnits="userSpaceOnUse"><path d="M883.63 488.42h112.4v73.8h-112.4Z" clip-rule="evenodd"/></clipPath><clipPath id="g" clipPathUnits="userSpaceOnUse"><path d="M999.16 488.42h112.4v73.8h-112.4Z" clip-rule="evenodd"/></clipPath><clipPath id="h" clipPathUnits="userSpaceOnUse"><path d="M1114.69 488.42h115.53v73.8h-115.53z" clip-rule="evenodd"/></clipPath><clipPath id="i" clipPathUnits="userSpaceOnUse"><path d="M302.87 594.59h112.4v73.78h-112.4Z" clip-rule="evenodd"/></clipPath><clipPath id="j" clipPathUnits="userSpaceOnUse"><path d="M418.4 594.59h112.4v73.78H418.4Z" clip-rule="evenodd"/></clipPath><clipPath id="k" clipPathUnits="userSpaceOnUse"><path d="M533.93 594.59h112.4v73.78h-112.4Z" clip-rule="evenodd"/></clipPath><clipPath id="l" clipPathUnits="userSpaceOnUse"><path d="M649.45 594.59h115.53v73.78H649.45Z" clip-rule="evenodd"/></clipPath><clipPath id="m" clipPathUnits="userSpaceOnUse"><path d="M768.1 594.59h112.41v73.78h-112.4Z" clip-rule="evenodd"/></clipPath><clipPath id="n" clipPathUnits="userSpaceOnUse"><path d="M883.63 594.59h112.4v73.78h-112.4Z" clip-rule="evenodd"/></clipPath><clipPath id="o" clipPathUnits="userSpaceOnUse"><path d="M999.16 594.59h112.4v73.78h-112.4Z" clip-rule="evenodd"/></clipPath><clipPath id="p" clipPathUnits="userSpaceOnUse"><path d="M1114.69 594.59h115.53v73.78h-115.53z" clip-rule="evenodd"/></clipPath><clipPath id="q" clipPathUnits="userSpaceOnUse"><path d="M302.87 700.75h112.4v73.78h-112.4Z" clip-rule="evenodd"/></clipPath><clipPath id="r" clipPathUnits="userSpaceOnUse"><path d="M418.4 700.75h112.4v73.78H418.4Z" clip-rule="evenodd"/></clipPath><clipPath id="s" clipPathUnits="userSpaceOnUse"><path d="M533.93 700.75h112.4v73.78h-112.4Z" clip-rule="evenodd"/></clipPath><clipPath id="t" clipPathUnits="userSpaceOnUse"><path d="M649.45 700.75h115.53v73.78H649.45Z" clip-rule="evenodd"/></clipPath><clipPath id="u" clipPathUnits="userSpaceOnUse"><path d="M768.1 700.75h112.41v73.78h-112.4Z" clip-rule="evenodd"/></clipPath><clipPath id="v" clipPathUnits="userSpaceOnUse"><path d="M883.63 700.75h112.4v73.78h-112.4Z" clip-rule="evenodd"/></clipPath><clipPath id="w" clipPathUnits="userSpaceOnUse"><path d="M999.16 700.75h112.4v73.78h-112.4Z" clip-rule="evenodd"/></clipPath><clipPath id="x" clipPathUnits="userSpaceOnUse"><path d="M1114.69 700.75h115.53v73.78h-115.53z" clip-rule="evenodd"/></clipPath><clipPath id="y" clipPathUnits="userSpaceOnUse"><path d="M302.87 806.9h112.4v73.8h-112.4Z" clip-rule="evenodd"/></clipPath><clipPath id="z" clipPathUnits="userSpaceOnUse"><path d="M418.4 806.9h112.4v73.8H418.4Z" clip-rule="evenodd"/></clipPath><clipPath id="A" clipPathUnits="userSpaceOnUse"><path d="M533.93 806.9h112.4v73.8h-112.4Z" clip-rule="evenodd"/></clipPath><clipPath id="B" clipPathUnits="userSpaceOnUse"><path d="M649.45 806.9h115.53v73.8H649.45Z" clip-rule="evenodd"/></clipPath><clipPath id="C" clipPathUnits="userSpaceOnUse"><path d="M768.1 806.9h112.41v73.8h-112.4Z" clip-rule="evenodd"/></clipPath><clipPath id="D" clipPathUnits="userSpaceOnUse"><path d="M883.63 806.9h112.4v73.8h-112.4Z" clip-rule="evenodd"/></clipPath><clipPath id="E" clipPathUnits="userSpaceOnUse"><path d="M999.16 806.9h112.4v73.8h-112.4Z" clip-rule="evenodd"/></clipPath><clipPath id="F" clipPathUnits="userSpaceOnUse"><path d="M1114.69 806.9h115.53v73.8h-115.53z" clip-rule="evenodd"/></clipPath><clipPath id="G" clipPathUnits="userSpaceOnUse"><path d="M302.87 913.07h112.4v73.79h-112.4Z" clip-rule="evenodd"/></clipPath><clipPath id="H" clipPathUnits="userSpaceOnUse"><path d="M418.4 913.07h112.4v73.79H418.4Z" clip-rule="evenodd"/></clipPath><clipPath id="I" clipPathUnits="userSpaceOnUse"><path d="M533.93 913.07h112.4v73.79h-112.4Z" clip-rule="evenodd"/></clipPath><clipPath id="J" clipPathUnits="userSpaceOnUse"><path d="M649.45 913.07h115.53v73.79H649.45Z" clip-rule="evenodd"/></clipPath><clipPath id="K" clipPathUnits="userSpaceOnUse"><path d="M768.1 913.07h112.41v73.79h-112.4Z" clip-rule="evenodd"/></clipPath><clipPath id="L" clipPathUnits="userSpaceOnUse"><path d="M883.63 913.07h112.4v73.79h-112.4Z" clip-rule="evenodd"/></clipPath><clipPath id="M" clipPathUnits="userSpaceOnUse"><path d="M999.16 913.07h112.4v73.79h-112.4Z" clip-rule="evenodd"/></clipPath><clipPath id="N" clipPathUnits="userSpaceOnUse"><path d="M1114.69 913.07h115.53v73.79h-115.53z" clip-rule="evenodd"/></clipPath><clipPath id="O" clipPathUnits="userSpaceOnUse"><path d="M302.87 1019.23h112.4v73.79h-112.4Z" clip-rule="evenodd"/></clipPath><clipPath id="P" clipPathUnits="userSpaceOnUse"><path d="M418.4 1019.23h112.4v73.79H418.4Z" clip-rule="evenodd"/></clipPath><clipPath id="Q" clipPathUnits="userSpaceOnUse"><path d="M533.93 1019.23h112.4v73.79h-112.4Z" clip-rule="evenodd"/></clipPath><clipPath id="R" clipPathUnits="userSpaceOnUse"><path d="M649.45 1019.23h115.53v73.79H649.45Z" clip-rule="evenodd"/></clipPath><clipPath id="S" clipPathUnits="userSpaceOnUse"><path d="M768.1 1019.23h112.41v73.79h-112.4Z" clip-rule="evenodd"/></clipPath><clipPath id="T" clipPathUnits="userSpaceOnUse"><path d="M883.63 1019.23h112.4v73.79h-112.4Z" clip-rule="evenodd"/></clipPath><clipPath id="U" clipPathUnits="userSpaceOnUse"><path d="M999.16 1019.23h112.4v73.79h-112.4Z" clip-rule="evenodd"/></clipPath><clipPath id="V" clipPathUnits="userSpaceOnUse"><path d="M1114.69 1019.23h115.53v73.79h-115.53z" clip-rule="evenodd"/></clipPath><clipPath id="W" clipPathUnits="userSpaceOnUse"><path d="M302.87 1125.39h112.4v73.79h-112.4Z" clip-rule="evenodd"/></clipPath><clipPath id="X" clipPathUnits="userSpaceOnUse"><path d="M418.4 1125.39h112.4v73.79H418.4Z" clip-rule="evenodd"/></clipPath><clipPath id="Y" clipPathUnits="userSpaceOnUse"><path d="M533.93 1125.39h112.4v73.79h-112.4Z" clip-rule="evenodd"/></clipPath><clipPath id="Z" clipPathUnits="userSpaceOnUse"><path d="M649.45 1125.39h115.53v73.79H649.45Z" clip-rule="evenodd"/></clipPath><clipPath id="aa" clipPathUnits="userSpaceOnUse"><path d="M768.1 1125.39h112.41v73.79h-112.4Z" clip-rule="evenodd"/></clipPath><clipPath id="ab" clipPathUnits="userSpaceOnUse"><path d="M883.63 1125.39h112.4v73.79h-112.4Z" clip-rule="evenodd"/></clipPath><clipPath id="ac" clipPathUnits="userSpaceOnUse"><path d="M999.16 1125.39h112.4v73.79h-112.4Z" clip-rule="evenodd"/></clipPath><clipPath id="ad" clipPathUnits="userSpaceOnUse"><path d="M1114.69 1125.39h115.53v73.79h-115.53z" clip-rule="evenodd"/></clipPath><clipPath id="ae" clipPathUnits="userSpaceOnUse"><path d="M302.87 1231.55h112.4v73.79h-112.4Z" clip-rule="evenodd"/></clipPath><clipPath id="af" clipPathUnits="userSpaceOnUse"><path d="M418.4 1231.55h112.4v73.79H418.4Z" clip-rule="evenodd"/></clipPath><clipPath id="ag" clipPathUnits="userSpaceOnUse"><path d="M533.93 1231.55h112.4v73.79h-112.4Z" clip-rule="evenodd"/></clipPath><clipPath id="ah" clipPathUnits="userSpaceOnUse"><path d="M649.45 1231.55h115.53v73.79H649.45Z" clip-rule="evenodd"/></clipPath><clipPath id="ai" clipPathUnits="userSpaceOnUse"><path d="M768.1 1231.55h112.41v73.79h-112.4Z" clip-rule="evenodd"/></clipPath><clipPath id="aj" clipPathUnits="userSpaceOnUse"><path d="M883.63 1231.55h112.4v73.79h-112.4Z" clip-rule="evenodd"/></clipPath><clipPath id="ak" clipPathUnits="userSpaceOnUse"><path d="M999.16 1231.55h112.4v73.79h-112.4Z" clip-rule="evenodd"/></clipPath><clipPath id="al" clipPathUnits="userSpaceOnUse"><path d="M1114.69 1231.55h115.53v73.79h-115.53z" clip-rule="evenodd"/></clipPath></defs><g clip-path="url(#a)" transform="translate(-24.9 -39.37) scale(.08467)"><text font-family="Minion Pro" font-size="13.33" font-weight="400" style="-inkscape-font-specification:'Minion Pro'" transform="translate(343.63 536.84) scale(3.12238)"><tspan x="0" y="0" style="-inkscape-font-specification:'Minion Pro'">Š</tspan></text></g><g clip-path="url(#b)" transform="translate(-25.07 -39.68) scale(.08467)"><text font-family="Minion Pro" font-size="13.33" font-weight="400" style="-inkscape-font-specification:'Minion Pro, Normal';font-variant-ligatures:normal;font-variant-caps:normal;font-variant-numeric:normal;font-variant-east-asian:normal" transform="translate(459.16 536.84) scale(3.12238)"><tspan x="0" y="0" style="-inkscape-font-specification:'Minion Pro, Normal';font-variant-ligatures:normal;font-variant-caps:normal;font-variant-numeric:normal;font-variant-east-asian:normal">E</tspan></text></g><g clip-path="url(#c)" transform="translate(-25.36 -39.68) scale(.08467)"><text font-family="Minion Pro" font-size="13.33" font-weight="400" style="-inkscape-font-specification:'Minion Pro'" transform="translate(582.79 536.84) scale(3.12238)"><tspan x="0" y="0" style="-inkscape-font-specification:'Minion Pro'">I</tspan></text></g><g clip-path="url(#d)" transform="translate(-25.15 -39.7) scale(.08467)"><text font-family="Minion Pro" font-size="13.33" font-weight="400" style="-inkscape-font-specification:'Minion Pro'" transform="translate(690.63 536.84) scale(3.12238)"><tspan x="0" y="0" style="-inkscape-font-specification:'Minion Pro'">R</tspan></text></g><g clip-path="url(#e)" transform="translate(-25.3 -39.46) scale(.08467)"><text font-family="Minion Pro" font-size="16.01" font-weight="700" style="-inkscape-font-specification:'Minion Pro Bold'" transform="translate(811.17 536.84) scale(3.12238)"><tspan x="0" y="0" style="-inkscape-font-specification:'Minion Pro Bold'">1</tspan></text></g><g clip-path="url(#f)" transform="translate(-25.28 -39.49) scale(.08467)"><text font-family="Minion Pro" font-size="16.01" font-weight="700" style="-inkscape-font-specification:'Minion Pro Bold'" transform="translate(926.7 536.84) scale(3.12238)"><tspan x="0" y="0" style="-inkscape-font-specification:'Minion Pro Bold'">3</tspan></text></g><g clip-path="url(#g)" transform="translate(-25.38 -39.4) scale(.08467)"><text font-family="Minion Pro" font-size="13.33" font-weight="400" style="-inkscape-font-specification:'Minion Pro'" transform="translate(1048.02 536.84) scale(3.12238)"><tspan x="0" y="0" style="-inkscape-font-specification:'Minion Pro'">Í</tspan></text></g><g clip-path="url(#h)" transform="translate(-24.97 -39.69) scale(.08467)"><text font-family="Minion Pro" font-size="13.33" font-weight="400" style="-inkscape-font-specification:'Minion Pro'" transform="translate(1157.01 536.84) scale(3.12238)"><tspan x="0" y="0" style="-inkscape-font-specification:'Minion Pro'">S</tspan></text></g><g clip-path="url(#i)" transform="translate(-25.02 -39.75) scale(.08467)"><text font-family="Minion Pro" font-size="13.33" font-weight="400" style="-inkscape-font-specification:'Minion Pro'" transform="translate(343.63 643) scale(3.12238)"><tspan x="0" y="0" style="-inkscape-font-specification:'Minion Pro'">E</tspan></text></g><g clip-path="url(#j)" transform="translate(-25.32 -39.46) scale(.08467)"><text font-family="Minion Pro" font-size="16.01" font-weight="700" style="-inkscape-font-specification:'Minion Pro Bold'" transform="translate(461.47 643) scale(3.12238)"><tspan x="0" y="0" style="-inkscape-font-specification:'Minion Pro Bold'">4</tspan></text></g><g clip-path="url(#k)" transform="translate(-25.34 -39.75) scale(.08467)"><text font-family="Minion Pro" font-size="13.33" font-weight="400" style="-inkscape-font-specification:'Minion Pro'" transform="translate(571.23 643) scale(3.12238)"><tspan x="0" y="0" style="-inkscape-font-specification:'Minion Pro'">M</tspan></text></g><g clip-path="url(#l)" transform="translate(-25.05 -39.75) scale(.08467)"><text font-family="Minion Pro" font-size="13.33" font-weight="400" style="-inkscape-font-specification:'Minion Pro'" transform="translate(691.78 643) scale(3.12238)"><tspan x="0" y="0" style="-inkscape-font-specification:'Minion Pro'">E</tspan></text></g><g clip-path="url(#m)" transform="translate(-25.3 -39.77) scale(.08467)"><text font-family="Minion Pro" font-size="13.33" font-weight="400" style="-inkscape-font-specification:'Minion Pro'" transform="translate(807.72 643) scale(3.12238)"><tspan x="0" y="0" style="-inkscape-font-specification:'Minion Pro'">N</tspan></text></g><g clip-path="url(#n)" transform="translate(-25.27 -39.75) scale(.08467)"><text font-family="Minion Pro" font-size="13.33" font-weight="400" style="-inkscape-font-specification:'Minion Pro'" transform="translate(926.7 643) scale(3.12238)"><tspan x="0" y="0" style="-inkscape-font-specification:'Minion Pro'">L</tspan></text></g><g clip-path="url(#o)" transform="translate(-25.3 -39.47) scale(.08467)"><text font-family="Minion Pro" font-size="13.33" font-weight="400" style="-inkscape-font-specification:'Minion Pro'" transform="translate(1039.92 643) scale(3.12238)"><tspan x="0" y="0" style="-inkscape-font-specification:'Minion Pro'">Á</tspan></text></g><g clip-path="url(#p)" transform="translate(-25.14 -39.75) scale(.08467)"><text font-family="Minion Pro" font-size="13.33" font-weight="400" style="-inkscape-font-specification:'Minion Pro'" transform="translate(1157.01 643) scale(3.12238)"><tspan x="0" y="0" style="-inkscape-font-specification:'Minion Pro'">E</tspan></text></g><g clip-path="url(#q)" transform="translate(-25.07 -39.68) scale(.08467)"><text font-family="Minion Pro" font-size="13.33" font-weight="400" style="-inkscape-font-specification:'Minion Pro'" transform="translate(345.94 749.16) scale(3.12238)"><tspan x="0" y="0" style="-inkscape-font-specification:'Minion Pro'">1</tspan></text></g><g clip-path="url(#r)" transform="translate(-25.27 -39.61) scale(.08467)"><text font-family="Minion Pro" font-size="13.33" font-weight="400" style="-inkscape-font-specification:'Minion Pro'" transform="translate(460.33 749.16) scale(3.12238)"><tspan x="0" y="0" style="-inkscape-font-specification:'Minion Pro'">T</tspan></text></g><g clip-path="url(#s)" transform="translate(-25.26 -39.61) scale(.08467)"><text font-family="Minion Pro" font-size="13.33" font-weight="400" style="-inkscape-font-specification:'Minion Pro'" transform="translate(575.86 749.16) scale(3.12238)"><tspan x="0" y="0" style="-inkscape-font-specification:'Minion Pro'">Z</tspan></text></g><g clip-path="url(#t)" transform="translate(-25.26 -39.68) scale(.08467)"><text font-family="Minion Pro" font-size="13.33" font-weight="400" style="-inkscape-font-specification:'Minion Pro'" transform="translate(690.63 749.16) scale(3.12238)"><tspan x="0" y="0" style="-inkscape-font-specification:'Minion Pro'">U</tspan></text></g><g clip-path="url(#u)" transform="translate(-25.28 -39.61) scale(.08467)"><text font-family="Arial" font-size="13.33" font-weight="400" style="-inkscape-font-specification:ArialMT" transform="translate(810.04 749.16) scale(3.12238)"><tspan x="0" y="0" font-family="Minion Pro" style="-inkscape-font-specification:'Minion Pro'">Z</tspan></text></g><g clip-path="url(#v)" transform="translate(-25.38 -39.65) scale(.08467)"><text font-family="Minion Pro" font-size="13.33" font-weight="400" style="-inkscape-font-specification:'Minion Pro'" transform="translate(924.4 749.16) scale(3.12238)"><tspan x="0" y="0" style="-inkscape-font-specification:'Minion Pro'">B</tspan></text></g><g clip-path="url(#w)" transform="translate(-25.27 -39.61) scale(.08467)"><text font-family="Minion Pro" font-size="13.33" font-weight="400" style="-inkscape-font-specification:'Minion Pro'" transform="translate(1041.1 749.16) scale(3.12238)"><tspan x="0" y="0" style="-inkscape-font-specification:'Minion Pro'">T</tspan></text></g><g clip-path="url(#x)" transform="translate(-25.14 -39.7) scale(.08467)"><text font-family="Minion Pro" font-size="13.33" font-weight="400" style="-inkscape-font-specification:'Minion Pro'" transform="translate(1159.32 749.16) scale(3.12238)"><tspan x="0" y="0" style="-inkscape-font-specification:'Minion Pro'">3</tspan></text></g><g clip-path="url(#y)" transform="translate(-24.85 -39.72) scale(.08467)"><text font-family="Minion Pro" font-size="13.33" font-weight="400" style="-inkscape-font-specification:'Minion Pro'" transform="translate(343.63 855.32) scale(3.12238)"><tspan x="0" y="0" style="-inkscape-font-specification:'Minion Pro'">S</tspan></text></g><g clip-path="url(#z)" transform="translate(-25.3 -39.46) scale(.08467)"><text font-family="Minion Pro" font-size="13.33" font-weight="400" style="-inkscape-font-specification:'Minion Pro'" transform="translate(458.01 855.32) scale(3.12238)"><tspan x="0" y="0" style="-inkscape-font-specification:'Minion Pro'">Ú</tspan></text></g><g clip-path="url(#A)" transform="translate(-25.2 -39.72) scale(.08467)"><text font-family="Minion Pro" font-size="13.33" font-weight="400" style="-inkscape-font-specification:'Minion Pro'" transform="translate(572.38 855.32) scale(3.12238)"><tspan x="0" y="0" style="-inkscape-font-specification:'Minion Pro'">O</tspan></text></g><g clip-path="url(#B)" transform="translate(-24.91 -40) scale(.08467)"><text font-family="Minion Pro" font-size="13.33" font-weight="400" style="-inkscape-font-specification:'Minion Pro'" transform="translate(695.25 855.32) scale(3.12238)"><tspan x="0" y="0" style="-inkscape-font-specification:'Minion Pro'">J</tspan></text></g><g clip-path="url(#C)" transform="translate(-25.28 -39.67) scale(.08467)"><text font-family="Minion Pro" font-size="13.33" font-weight="400" style="-inkscape-font-specification:'Minion Pro'" transform="translate(810.04 855.32) scale(3.12238)"><tspan x="0" y="0" style="-inkscape-font-specification:'Minion Pro'">T</tspan></text></g><g clip-path="url(#D)" transform="translate(-25.2 -39.72) scale(.08467)"><text font-family="Minion Pro" font-size="13.33" font-weight="400" style="-inkscape-font-specification:'Minion Pro'" transform="translate(924.4 855.32) scale(3.12238)"><tspan x="0" y="0" style="-inkscape-font-specification:'Minion Pro'">Y</tspan></text></g><g clip-path="url(#E)" transform="translate(-25.36 -39.72) scale(.08467)"><text font-family="Minion Pro" font-size="13.33" font-weight="400" style="-inkscape-font-specification:'Minion Pro'" transform="translate(1048.02 855.32) scale(3.12238)"><tspan x="0" y="0" style="-inkscape-font-specification:'Minion Pro'">I</tspan></text></g><g clip-path="url(#F)" transform="translate(-25.14 -39.72) scale(.08467)"><text font-family="Arial" font-size="13.33" font-weight="400" style="-inkscape-font-specification:ArialMT" transform="translate(1157.01 855.32) scale(3.12238)"><tspan x="0" y="0" font-family="Minion Pro" style="-inkscape-font-specification:'Minion Pro'">E</tspan></text></g><g clip-path="url(#G)" transform="translate(-25.31 -39.8) scale(.08467)"><text font-family="Minion Pro" font-size="13.33" font-weight="400" style="-inkscape-font-specification:'Minion Pro'" transform="translate(343.63 961.48) scale(3.12238)"><tspan x="0" y="0" style="-inkscape-font-specification:'Minion Pro'">A</tspan></text></g><g clip-path="url(#H)" transform="translate(-25.07 -39.62) scale(.08467)"><text font-family="Arial" font-size="13.33" font-weight="400" style="-inkscape-font-specification:ArialMT" transform="translate(459.16 961.48) scale(3.12238)"><tspan x="0" y="0" font-family="Minion Pro" style="-inkscape-font-specification:'Minion Pro'">P</tspan></text></g><g clip-path="url(#I)" transform="translate(-25.08 -39.62) scale(.08467)"><text font-family="Arial" font-size="13.33" font-weight="400" style="-inkscape-font-specification:ArialMT" transform="translate(574.69 961.48) scale(3.12238)"><tspan x="0" y="0" font-family="Minion Pro" style="-inkscape-font-specification:'Minion Pro'">E</tspan></text></g><g clip-path="url(#J)" transform="translate(-25.28 -39.5) scale(.08467)"><text font-family="Minion Pro" font-size="16.01" font-weight="700" style="-inkscape-font-specification:'Minion Pro Bold'" transform="translate(694.08 961.48) scale(3.12238)"><tspan x="0" y="0" style="-inkscape-font-specification:'Minion Pro Bold'">6</tspan></text></g><g clip-path="url(#K)" transform="translate(-25.1 -39.62) scale(.08467)"><text font-family="Minion Pro" font-size="13.33" font-weight="400" style="-inkscape-font-specification:'Minion Pro'" transform="translate(808.87 961.48) scale(3.12238)"><tspan x="0" y="0" style="-inkscape-font-specification:'Minion Pro'">E</tspan></text></g><g clip-path="url(#L)" transform="translate(-25.2 -39.62) scale(.08467)"><text font-family="Minion Pro" font-size="13.33" font-weight="400" style="-inkscape-font-specification:'Minion Pro'" transform="translate(922.09 961.48) scale(3.12238)"><tspan x="0" y="0" style="-inkscape-font-specification:'Minion Pro'">O</tspan></text></g><g clip-path="url(#M)" transform="translate(-25.31 -39.5) scale(.08467)"><text font-family="Minion Pro" font-size="16.01" font-weight="700" style="-inkscape-font-specification:'Minion Pro Bold'" transform="translate(1042.23 961.48) scale(3.12238)"><tspan x="0" y="0" style="-inkscape-font-specification:'Minion Pro Bold'">2</tspan></text></g><g clip-path="url(#N)" transform="translate(-25.33 -39.64) scale(.08467)"><text font-family="Minion Pro" font-size="13.33" font-weight="400" style="-inkscape-font-specification:'Minion Pro'" transform="translate(1155.86 961.48) scale(3.12238)"><tspan x="0" y="0" style="-inkscape-font-specification:'Minion Pro'">N</tspan></text></g><g clip-path="url(#O)" transform="translate(-25.3 -39.53) scale(.08467)"><text font-family="Minion Pro" font-size="16.01" font-weight="700" style="-inkscape-font-specification:'Minion Pro Bold'" transform="translate(345.94 1067.65) scale(3.12238)"><tspan x="0" y="0" style="-inkscape-font-specification:'Minion Pro Bold'">5</tspan></text></g><g clip-path="url(#P)" transform="translate(-25.27 -39.64) scale(.08467)"><text font-family="Minion Pro" font-size="13.33" font-weight="400" style="-inkscape-font-specification:'Minion Pro'" transform="translate(460.33 1067.65) scale(3.12238)"><tspan x="0" y="0" style="-inkscape-font-specification:'Minion Pro'">T</tspan></text></g><g clip-path="url(#Q)" transform="translate(-25.2 -39.68) scale(.08467)"><text font-family="Minion Pro" font-size="13.33" font-weight="400" style="-inkscape-font-specification:'Minion Pro'" transform="translate(572.38 1067.65) scale(3.12238)"><tspan x="0" y="0" style="-inkscape-font-specification:'Minion Pro'">O</tspan></text></g><g clip-path="url(#R)" transform="translate(-25.23 -39.64) scale(.08467)"><text font-family="Minion Pro" font-size="13.33" font-weight="400" style="-inkscape-font-specification:'Minion Pro'" transform="translate(692.95 1067.65) scale(3.12238)"><tspan x="0" y="0" style="-inkscape-font-specification:'Minion Pro'">T</tspan></text></g><g clip-path="url(#S)" transform="translate(-25.1 -39.68) scale(.08467)"><text font-family="Minion Pro" font-size="13.33" font-weight="400" style="-inkscape-font-specification:'Minion Pro'" transform="translate(808.87 1067.65) scale(3.12238)"><tspan x="0" y="0" style="-inkscape-font-specification:'Minion Pro'">E</tspan></text></g><g clip-path="url(#T)" transform="translate(-25.12 -39.75) scale(.08467)"><text font-family="Minion Pro" font-size="13.33" font-weight="400" style="-inkscape-font-specification:'Minion Pro'" transform="translate(926.7 1067.65) scale(3.12238)"><tspan x="0" y="0" style="-inkscape-font-specification:'Minion Pro'">5</tspan></text></g><g clip-path="url(#U)" transform="translate(-25.27 -39.64) scale(.08467)"><text font-family="Minion Pro" font-size="13.33" font-weight="400" style="-inkscape-font-specification:'Minion Pro'" transform="translate(1041.1 1067.65) scale(3.12238)"><tspan x="0" y="0" style="-inkscape-font-specification:'Minion Pro'">T</tspan></text></g><g clip-path="url(#V)" transform="translate(-25.14 -39.68) scale(.08467)"><text font-family="Minion Pro" font-size="13.33" font-weight="400" style="-inkscape-font-specification:'Minion Pro'" transform="translate(1157.01 1067.65) scale(3.12238)"><tspan x="0" y="0" style="-inkscape-font-specification:'Minion Pro'">E</tspan></text></g><g clip-path="url(#W)" transform="translate(-25.05 -39.78) scale(.08467)"><text font-family="Minion Pro" font-size="13.33" font-weight="400" style="-inkscape-font-specification:'Minion Pro'" transform="translate(345.94 1173.8) scale(3.12238)"><tspan x="0" y="0" style="-inkscape-font-specification:'Minion Pro'">6</tspan></text></g><g clip-path="url(#X)" transform="translate(-25.1 -39.77) scale(.08467)"><text font-family="Minion Pro" font-size="13.33" font-weight="400" style="-inkscape-font-specification:'Minion Pro'" transform="translate(461.47 1173.8) scale(3.12238)"><tspan x="0" y="0" style="-inkscape-font-specification:'Minion Pro'">2</tspan></text></g><g clip-path="url(#Y)" transform="translate(-25.18 -39.44) scale(.08467)"><text font-family="Minion Pro" font-size="13.33" font-weight="400" style="-inkscape-font-specification:'Minion Pro'" transform="translate(573.54 1173.8) scale(3.12238)"><tspan x="0" y="0" style="-inkscape-font-specification:'Minion Pro'">Č</tspan></text></g><g clip-path="url(#Z)" transform="translate(-25.07 -39.78) scale(.08467)"><text font-family="Minion Pro" font-size="13.33" font-weight="400" style="-inkscape-font-specification:'Minion Pro'" transform="translate(694.08 1173.8) scale(3.12238)"><tspan x="0" y="0" style="-inkscape-font-specification:'Minion Pro'">4</tspan></text></g><g clip-path="url(#aa)" transform="translate(-25.37 -39.75) scale(.08467)"><text font-family="Minion Pro" font-size="13.33" font-weight="400" style="-inkscape-font-specification:'Minion Pro'" transform="translate(816.96 1173.8) scale(3.12238)"><tspan x="0" y="0" style="-inkscape-font-specification:'Minion Pro'">I</tspan></text></g><g clip-path="url(#ab)" transform="translate(-25.37 -39.75) scale(.08467)"><text font-family="Minion Pro" font-size="13.33" font-weight="400" style="-inkscape-font-specification:'Minion Pro'" transform="translate(932.5 1173.8) scale(3.12238)"><tspan x="0" y="0" style="-inkscape-font-specification:'Minion Pro'">I</tspan></text></g><g clip-path="url(#ac)" transform="translate(-25.28 -39.76) scale(.08467)"><text font-family="Arial" font-size="13.33" font-weight="400" style="-inkscape-font-specification:ArialMT" transform="translate(1038.78 1173.8) scale(3.12238)"><tspan x="0" y="0" font-family="Minion Pro" style="-inkscape-font-specification:'Minion Pro'">N</tspan></text></g><g clip-path="url(#ad)" transform="translate(-25.31 -39.7) scale(.08467)"><text font-family="Minion Pro" font-size="13.33" font-weight="400" style="-inkscape-font-specification:'Minion Pro'" transform="translate(1158.18 1173.8) scale(3.12238)"><tspan x="0" y="0" style="-inkscape-font-specification:'Minion Pro'">T</tspan></text></g><g clip-path="url(#ae)" transform="translate(-25.08 -39.67) scale(.08467)"><text font-family="Minion Pro" font-size="13.33" font-weight="400" style="-inkscape-font-specification:'Minion Pro'" transform="translate(342.49 1279.97) scale(3.12238)"><tspan x="0" y="0" style="-inkscape-font-specification:'Minion Pro'">R</tspan></text></g><g clip-path="url(#af)" transform="translate(-25.09 -39.37) scale(.08467)"><text font-family="Minion Pro" font-size="13.33" font-weight="400" style="-inkscape-font-specification:'Minion Pro'" transform="translate(459.16 1279.97) scale(3.12238)"><tspan x="0" y="0" style="-inkscape-font-specification:'Minion Pro'">É</tspan></text></g><g clip-path="url(#ag)" transform="translate(-25.28 -39.67) scale(.08467)"><text font-family="Minion Pro" font-size="13.33" font-weight="400" style="-inkscape-font-specification:'Minion Pro'" transform="translate(573.54 1279.97) scale(3.12238)"><tspan x="0" y="0" style="-inkscape-font-specification:'Minion Pro'">N</tspan></text></g><g clip-path="url(#ah)" transform="translate(-25.34 -39.37) scale(.08467)"><text font-family="Minion Pro" font-size="13.33" font-weight="400" style="-inkscape-font-specification:'Minion Pro'" transform="translate(699.88 1279.97) scale(3.12238)"><tspan x="0" y="0" style="-inkscape-font-specification:'Minion Pro'">Í</tspan></text></g><g clip-path="url(#ai)" transform="translate(-25.12 -39.65) scale(.08467)"><text font-family="Minion Pro" font-size="13.33" font-weight="400" style="-inkscape-font-specification:'Minion Pro'" transform="translate(808.87 1279.97) scale(3.12238)"><tspan x="0" y="0" style="-inkscape-font-specification:'Minion Pro'">B</tspan></text></g><g clip-path="url(#aj)" transform="translate(-25.1 -39.65) scale(.08467)"><text font-family="Minion Pro" font-size="13.33" font-weight="400" style="-inkscape-font-specification:'Minion Pro'" transform="translate(924.4 1279.97) scale(3.12238)"><tspan x="0" y="0" style="-inkscape-font-specification:'Minion Pro'">E</tspan></text></g><g clip-path="url(#ak)" transform="translate(-25.15 -39.67) scale(.08467)"><text font-family="Arial" font-size="13.33" font-weight="400" style="-inkscape-font-specification:ArialMT" transform="translate(1038.78 1279.97) scale(3.12238)"><tspan x="0" y="0" font-family="Minion Pro" style="-inkscape-font-specification:'Minion Pro'">R</tspan></text></g><g clip-path="url(#al)" transform="translate(-25.36 -39.67) scale(.08467)"><text font-family="Minion Pro" font-size="13.33" font-weight="400" style="-inkscape-font-specification:'Minion Pro'" transform="translate(1157.01 1279.97) scale(3.12238)"><tspan x="0" y="0" style="-inkscape-font-specification:'Minion Pro'">V</tspan></text></g><path fill="none" stroke="#ccc" stroke-miterlimit="10" stroke-width=".26" d="M.13 0v72.17M9.91 0v72.17M19.7 0v72.17M29.48 0v72.17M39.52 0v72.17M49.3 0v72.17M59.08 0v72.17M68.87 0v72.17M78.91 0v72.17M0 .13h79.04M0 9.12h79.04M0 18.1h79.04M0 27.1h79.04M0 36.09h79.04M0 45.07h79.04M0 54.06h79.04M0 63.05h79.04M0 72.04h79.04"/></svg>