<?xml version="1.0" encoding="UTF-8" standalone="no"?>
<!-- Created with Inkscape (http://www.inkscape.org/) -->

<svg
   version="1.1"
   id="svg2"
   width="429.33334"
   height="84"
   viewBox="0 0 429.33334 84"
   xmlns="http://www.w3.org/2000/svg"
   xmlns:svg="http://www.w3.org/2000/svg">
  <defs
     id="defs6" />
  <g
     id="g8">
    <path
       style="fill:#cccccc;stroke-width:1"
       d="M 12.666667,75 11.100915,73.333333 12.666667,71.666667 14.232419,70 h 16.434248 16.434248 l 1.565752,1.666667 1.565752,1.666666 L 48.666667,75 47.100915,76.666667 H 30.666667 14.232419 Z M 65.333334,75 63.767582,73.333333 65.333334,71.666667 66.899088,70 h 16.434247 16.434247 l 1.565748,1.666667 1.56576,1.666666 L 101.33333,75 99.767582,76.666667 H 83.333335 66.899088 Z M 118,75 116.43425,73.333333 118,71.666667 119.56576,70 H 136 152.43425 L 154,71.666667 155.56576,73.333333 154,75 152.43425,76.666667 H 136 119.56576 Z m 157.33334,0 -1.56576,-1.666667 1.56576,-1.666666 L 276.89909,70 h 16.43425 16.43424 l 1.56576,1.666667 1.56575,1.666666 L 311.33334,75 l -1.56576,1.666667 h -16.43424 -16.43425 z m 52.66667,0 -1.56576,-1.666667 1.56576,-1.666666 L 329.56576,70 h 16.43425 16.43424 l 1.56576,1.666667 1.56575,1.666666 L 364.00001,75 362.43425,76.666667 H 346.00001 329.56576 Z M 101.44954,71.1237 100,69.580733 V 57.906575 46.232419 l 1.66667,-1.565752 1.66666,-1.565752 1.66667,1.565752 1.66667,1.565752 V 58 69.76758 l -1.54297,1.449547 c -1.90701,1.79154 -1.90323,1.791633 -3.67416,-0.09343 z m 222.66667,0 -1.44954,-1.542967 V 57.906575 46.232419 l 1.66667,-1.565752 1.66667,-1.565752 1.66666,1.565752 1.66667,1.565752 V 58 69.76758 l -1.54297,1.449547 c -1.90701,1.79154 -1.90323,1.791633 -3.67416,-0.09343 z m 92.66667,0 -1.44954,-1.542967 V 57.906575 46.232419 l 1.66667,-1.565752 1.66666,-1.565752 1.66667,1.565752 1.66667,1.565752 V 58 69.76758 l -1.54297,1.449547 c -1.90701,1.79154 -1.90323,1.791633 -3.67416,-0.09343 z M 170.66667,44.333333 169.10092,42.666667 170.66667,41 l 1.56575,-1.666667 h 16.43425 16.43425 L 206.66667,41 l 1.56575,1.666667 -1.56575,1.666666 L 205.10092,46 h -16.43425 -16.43425 z m 52.66667,0 -1.56576,-1.666666 L 223.33334,41 l 1.56575,-1.666667 h 16.43425 16.43424 L 259.33334,41 l 1.56575,1.666667 -1.56575,1.666666 L 257.76758,46 h -16.43424 -16.43425 z m 104.66667,0 -1.56576,-1.666666 L 328.00001,41 l 1.56575,-1.666667 h 16.43425 16.43424 L 364.00001,41 l 1.56575,1.666667 -1.56575,1.666666 L 362.43425,46 H 346.00001 329.56576 Z M 61.449544,40.457033 60.000001,38.914065 V 27.239909 15.565752 L 61.666668,14 63.333334,12.434248 65.000001,14 66.666668,15.565752 V 27.333333 39.100915 L 65.1237,40.550457 c -1.90701,1.791543 -1.903231,1.791639 -3.674156,-0.09342 z m 39.999996,0 L 100,38.914065 V 27.239909 15.565752 L 101.66667,14 103.33333,12.434248 105,14 l 1.66667,1.565752 v 11.767581 11.767582 l -1.54297,1.449542 c -1.90701,1.791543 -1.90323,1.791639 -3.67416,-0.09342 z m 105.33334,0 -1.44954,-1.542968 V 27.239909 15.565752 L 207,14 208.66667,12.434248 210.33334,14 212,15.565752 v 11.767581 11.767582 l -1.54296,1.449542 c -1.90702,1.791543 -1.90324,1.791639 -3.67416,-0.09342 z m 64.66666,0 L 270,38.914065 V 27.239909 15.565752 L 271.66667,14 273.33334,12.434248 275,14 l 1.66667,1.565752 v 11.767581 11.767582 l -1.54297,1.449542 c -1.90701,1.791543 -1.90323,1.791639 -3.67416,-0.09342 z m 40,0 L 310,38.914065 V 27.239909 15.565752 L 311.66667,14 313.33334,12.434248 315,14 l 1.66667,1.565752 v 11.767581 11.767582 l -1.54297,1.449542 c -1.90701,1.791543 -1.90323,1.791639 -3.67416,-0.09342 z m 12.66667,0 -1.44954,-1.542968 V 27.239909 15.565752 L 324.33334,14 326.00001,12.434248 327.66667,14 l 1.66667,1.565752 v 11.767581 11.767582 l -1.54297,1.449542 c -1.90701,1.791543 -1.90323,1.791639 -3.67416,-0.09342 z m 92.66667,0 -1.44954,-1.542968 V 27.239909 15.565752 L 417.00001,14 418.66667,12.434248 420.33334,14 l 1.66667,1.565752 v 11.767581 11.767582 l -1.54297,1.449542 c -1.90701,1.791543 -1.90323,1.791639 -3.67416,-0.09342 z M 65.333334,13.666667 63.767582,12 65.333334,10.333333 66.899088,8.6666667 H 83.333335 99.767582 L 101.33333,10.333333 102.89909,12 l -1.56576,1.666667 -1.565748,1.666666 H 83.333335 66.899088 Z m 210.000006,0 L 273.76758,12 l 1.56576,-1.666667 1.56575,-1.6666663 h 16.43425 16.43424 l 1.56576,1.6666663 1.56575,1.666667 -1.56575,1.666667 -1.56576,1.666666 h -16.43424 -16.43425 z m 52.66667,0 L 326.43425,12 l 1.56576,-1.666667 1.56575,-1.6666663 h 16.43425 16.43424 l 1.56576,1.6666663 1.56575,1.666667 -1.56575,1.666667 -1.56576,1.666666 h -16.43424 -16.43425 z m 52.66666,0 L 379.10092,12 l 1.56575,-1.666667 1.56576,-1.6666663 h 16.43424 16.43425 l 1.56575,1.6666663 1.56576,1.666667 -1.56576,1.666667 -1.56575,1.666666 h -16.43425 -16.43424 z"
       id="path348" />
    <path
       style="fill:#ff0000;stroke-width:1"
       d="m 170.66667,75 -1.56575,-1.666667 1.56575,-1.666666 L 172.23242,70 h 16.43425 16.43425 l 1.56575,1.666667 1.56575,1.666666 L 206.66667,75 l -1.56575,1.666667 h -16.43425 -16.43425 z m 52.66667,0 -1.56576,-1.666667 1.56576,-1.666666 L 224.89909,70 h 16.43425 16.43424 l 1.56576,1.666667 1.56575,1.666666 L 259.33334,75 l -1.56576,1.666667 h -16.43424 -16.43425 z m 157.33333,0 -1.56575,-1.666667 1.56575,-1.666666 L 382.23243,70 h 16.43424 16.43425 l 1.56575,1.666667 1.56576,1.666666 L 416.66667,75 415.10092,76.666667 H 398.66667 382.23243 Z M 8.7828761,71.1237 C 7.4085241,69.660767 7.3333334,68.975167 7.3333334,57.906575 c 0,-11.590455 0.011949,-11.685382 1.6666667,-13.239908 l 1.6666669,-1.565752 1.666667,1.565752 C 13.989028,46.222111 14,46.309891 14,58 c 0,11.438533 -0.04315,11.808113 -1.542967,13.217127 -1.90701,1.79154 -1.903232,1.791633 -3.6741569,-0.09343 z m 40.0000009,0 c -1.374352,-1.462933 -1.449543,-2.148533 -1.449543,-13.217125 0,-11.590455 0.01195,-11.685382 1.666667,-13.239908 l 1.666666,-1.565752 1.666667,1.565752 c 1.655694,1.555444 1.666667,1.643224 1.666667,13.333333 0,11.438533 -0.04315,11.808113 -1.542968,13.217127 -1.90701,1.79154 -1.903231,1.791633 -3.674156,-0.09343 z m 12.666667,0 c -1.374352,-1.462933 -1.449543,-2.148533 -1.449543,-13.217125 0,-11.590455 0.01195,-11.685382 1.666667,-13.239908 l 1.666666,-1.565752 1.666667,1.565752 c 1.655694,1.555444 1.666667,1.643224 1.666667,13.333333 0,11.438533 -0.04315,11.808113 -1.542968,13.217127 -1.90701,1.79154 -1.903231,1.791633 -3.674156,-0.09343 z m 52.666666,0 c -1.37435,-1.462933 -1.44954,-2.148533 -1.44954,-13.217125 0,-11.590455 0.0119,-11.685382 1.66667,-13.239908 L 116,43.100915 l 1.66667,1.565752 c 1.65569,1.555444 1.66667,1.643224 1.66667,13.333333 0,11.438533 -0.0431,11.808113 -1.54297,13.217127 -1.90701,1.79154 -1.90323,1.791633 -3.67416,-0.09343 z m 40,0 c -1.37435,-1.462933 -1.44954,-2.148533 -1.44954,-13.217125 0,-11.590455 0.0119,-11.685382 1.66667,-13.239908 L 156,43.100915 l 1.66667,1.565752 c 1.65569,1.555444 1.66667,1.643224 1.66667,13.333333 0,11.438533 -0.0431,11.808113 -1.54297,13.217127 -1.90701,1.79154 -1.90323,1.791633 -3.67416,-0.09343 z m 12.66667,0 c -1.37435,-1.462933 -1.44954,-2.148533 -1.44954,-13.217125 0,-11.590455 0.0119,-11.685382 1.66666,-13.239908 l 1.66667,-1.565752 1.66667,1.565752 C 171.98903,46.222111 172,46.309891 172,58 c 0,11.438533 -0.0431,11.808113 -1.54296,13.217127 -1.90702,1.79154 -1.90324,1.791633 -3.67416,-0.09343 z m 40,0 c -1.37435,-1.462933 -1.44954,-2.148533 -1.44954,-13.217125 0,-11.590455 0.0119,-11.685382 1.66666,-13.239908 l 1.66667,-1.565752 1.66667,1.565752 C 211.98903,46.222111 212,46.309891 212,58 c 0,11.438533 -0.0431,11.808113 -1.54296,13.217127 -1.90702,1.79154 -1.90324,1.791633 -3.67416,-0.09343 z m 12.66666,0 C 218.0752,69.660767 218,68.975167 218,57.906575 218,46.31612 218.012,46.221193 219.66667,44.666667 L 221.33334,43.100915 223,44.666667 c 1.6557,1.555444 1.66667,1.643224 1.66667,13.333333 0,11.438533 -0.0431,11.808113 -1.54297,13.217127 -1.90701,1.79154 -1.90323,1.791633 -3.67416,-0.09343 z m 40,0 C 258.0752,69.660767 258,68.975167 258,57.906575 258,46.31612 258.012,46.221193 259.66667,44.666667 L 261.33334,43.100915 263,44.666667 c 1.6557,1.555444 1.66667,1.643224 1.66667,13.333333 0,11.438533 -0.0431,11.808113 -1.54297,13.217127 -1.90701,1.79154 -1.90323,1.791633 -3.67416,-0.09343 z m 12,0 C 270.0752,69.660767 270,68.975167 270,57.906575 270,46.31612 270.012,46.221193 271.66667,44.666667 L 273.33334,43.100915 275,44.666667 c 1.6557,1.555444 1.66667,1.643224 1.66667,13.333333 0,11.438533 -0.0431,11.808113 -1.54297,13.217127 -1.90701,1.79154 -1.90323,1.791633 -3.67416,-0.09343 z m 40,0 C 310.0752,69.660767 310,68.975167 310,57.906575 310,46.31612 310.012,46.221193 311.66667,44.666667 L 313.33334,43.100915 315,44.666667 c 1.6557,1.555444 1.66667,1.643224 1.66667,13.333333 0,11.438533 -0.0431,11.808113 -1.54297,13.217127 -1.90701,1.79154 -1.90323,1.791633 -3.67416,-0.09343 z m 52.66667,0 c -1.37434,-1.462933 -1.44954,-2.148533 -1.44954,-13.217125 0,-11.590455 0.012,-11.685382 1.66667,-13.239908 l 1.66667,-1.565752 1.66666,1.565752 c 1.6557,1.555444 1.66667,1.643224 1.66667,13.333333 0,11.438533 -0.0431,11.808113 -1.54297,13.217127 -1.90701,1.79154 -1.90323,1.791633 -3.67416,-0.09343 z m 12.66667,0 c -1.37435,-1.462933 -1.44954,-2.148533 -1.44954,-13.217125 0,-11.590455 0.0119,-11.685382 1.66667,-13.239908 l 1.66666,-1.565752 1.66667,1.565752 c 1.65569,1.555444 1.66667,1.643224 1.66667,13.333333 0,11.438533 -0.0431,11.808113 -1.54297,13.217127 -1.90701,1.79154 -1.90323,1.791633 -3.67416,-0.09343 z M 12.666667,44.333333 11.100915,42.666667 12.666667,41 14.232419,39.333333 H 30.666667 47.100915 L 48.666667,41 50.232419,42.666667 48.666667,44.333333 47.100915,46 H 30.666667 14.232419 Z m 52.666667,0 L 63.767582,42.666667 65.333334,41 66.899088,39.333333 H 83.333335 99.767582 L 101.33333,41 l 1.56576,1.666667 -1.56576,1.666666 L 99.767582,46 H 83.333335 66.899088 Z m 52.666666,0 -1.56575,-1.666666 L 118,41 119.56576,39.333333 H 136 152.43425 L 154,41 155.56576,42.666667 154,44.333333 152.43425,46 H 136 119.56576 Z m 157.33334,0 -1.56576,-1.666666 L 275.33334,41 l 1.56575,-1.666667 h 16.43425 16.43424 L 311.33334,41 l 1.56575,1.666667 -1.56575,1.666666 L 309.76758,46 h -16.43424 -16.43425 z m 105.33333,0 -1.56575,-1.666666 L 380.66667,41 l 1.56576,-1.666667 h 16.43424 16.43425 L 416.66667,41 l 1.56576,1.666667 -1.56576,1.666666 L 415.10092,46 H 398.66667 382.23243 Z M 8.7828761,40.457033 C 7.4085241,38.994102 7.3333334,38.308502 7.3333334,27.239909 7.3333334,15.649453 7.3452828,15.554526 9.0000001,14 L 10.666667,12.434248 12.333334,14 C 13.989028,15.555444 14,15.643225 14,27.333333 14,38.771867 13.95685,39.141447 12.457033,40.550457 10.550023,42.342 10.553801,42.342096 8.7828761,40.457037 Z m 40.0000009,0 C 47.408525,38.994102 47.333334,38.308502 47.333334,27.239909 47.333334,15.649453 47.345283,15.554526 49.000001,14 L 50.666667,12.434248 52.333334,14 c 1.655694,1.555444 1.666667,1.643225 1.666667,13.333333 0,11.438534 -0.04315,11.808114 -1.542968,13.217124 -1.90701,1.791543 -1.903231,1.791639 -3.674156,-0.09342 z m 65.333333,0 c -1.37435,-1.462931 -1.44954,-2.148531 -1.44954,-13.217124 0,-11.590456 0.0119,-11.685383 1.66667,-13.239909 L 116,12.434248 117.66667,14 c 1.65569,1.555444 1.66667,1.643225 1.66667,13.333333 0,11.438534 -0.0431,11.808114 -1.54297,13.217124 -1.90701,1.791543 -1.90323,1.791639 -3.67416,-0.09342 z m 40,0 c -1.37435,-1.462931 -1.44954,-2.148531 -1.44954,-13.217124 0,-11.590456 0.0119,-11.685383 1.66667,-13.239909 L 156,12.434248 157.66667,14 c 1.65569,1.555444 1.66667,1.643225 1.66667,13.333333 0,11.438534 -0.0431,11.808114 -1.54297,13.217124 -1.90701,1.791543 -1.90323,1.791639 -3.67416,-0.09342 z m 12.66667,0 C 165.40853,38.994102 165.33334,38.308502 165.33334,27.239909 165.33334,15.649453 165.34528,15.554526 167,14 L 168.66667,12.434248 170.33334,14 C 171.98903,15.555444 172,15.643225 172,27.333333 c 0,11.438534 -0.0431,11.808114 -1.54296,13.217124 -1.90702,1.791543 -1.90324,1.791639 -3.67416,-0.09342 z m 52.66666,0 C 218.0752,38.994102 218,38.308502 218,27.239909 218,15.649453 218.01195,15.554526 219.66667,14 L 221.33334,12.434248 223,14 c 1.6557,1.555444 1.66667,1.643225 1.66667,13.333333 0,11.438534 -0.0431,11.808114 -1.54297,13.217124 -1.90701,1.791543 -1.90323,1.791639 -3.67416,-0.09342 z m 40,0 C 258.0752,38.994102 258,38.308502 258,27.239909 258,15.649453 258.01195,15.554526 259.66667,14 L 261.33334,12.434248 263,14 c 1.6557,1.555444 1.66667,1.643225 1.66667,13.333333 0,11.438534 -0.0431,11.808114 -1.54297,13.217124 -1.90701,1.791543 -1.90323,1.791639 -3.67416,-0.09342 z m 104.66667,0 c -1.37434,-1.462931 -1.44954,-2.148531 -1.44954,-13.217124 0,-11.590456 0.012,-11.685383 1.66667,-13.239909 L 366.00001,12.434248 367.66667,14 c 1.6557,1.555444 1.66667,1.643225 1.66667,13.333333 0,11.438534 -0.0431,11.808114 -1.54297,13.217124 -1.90701,1.791543 -1.90323,1.791639 -3.67416,-0.09342 z m 12.66667,0 c -1.37435,-1.462931 -1.44954,-2.148531 -1.44954,-13.217124 0,-11.590456 0.0119,-11.685383 1.66667,-13.239909 L 378.66667,12.434248 380.33334,14 c 1.65569,1.555444 1.66667,1.643225 1.66667,13.333333 0,11.438534 -0.0431,11.808114 -1.54297,13.217124 -1.90701,1.791543 -1.90323,1.791639 -3.67416,-0.09342 z M 12.666667,13.666667 11.100915,12 12.666667,10.333333 14.232419,8.6666667 H 30.666667 47.100915 L 48.666667,10.333333 50.232419,12 48.666667,13.666667 47.100915,15.333333 H 30.666667 14.232419 Z M 118,13.666667 116.43425,12 118,10.333333 119.56576,8.6666667 H 136 152.43425 L 154,10.333333 155.56576,12 154,13.666667 152.43425,15.333333 H 136 119.56576 Z m 52.66667,0 L 169.10092,12 l 1.56575,-1.666667 1.56575,-1.6666663 h 16.43425 16.43425 l 1.56575,1.6666663 1.56575,1.666667 -1.56575,1.666667 -1.56575,1.666666 h -16.43425 -16.43425 z m 52.66667,0 L 221.76758,12 l 1.56576,-1.666667 1.56575,-1.6666663 h 16.43425 16.43424 l 1.56576,1.6666663 1.56575,1.666667 -1.56575,1.666667 -1.56576,1.666666 h -16.43424 -16.43425 z"
       id="path299" />
  </g>
</svg>
