<?xml version="1.0" encoding="UTF-8" standalone="no"?>
<!-- Created with Inkscape (http://www.inkscape.org/) -->

<svg
   xmlns:dc="http://purl.org/dc/elements/1.1/"
   xmlns:cc="http://creativecommons.org/ns#"
   xmlns:rdf="http://www.w3.org/1999/02/22-rdf-syntax-ns#"
   xmlns:svg="http://www.w3.org/2000/svg"
   xmlns="http://www.w3.org/2000/svg"
   xmlns:sodipodi="http://sodipodi.sourceforge.net/DTD/sodipodi-0.dtd"
   xmlns:inkscape="http://www.inkscape.org/namespaces/inkscape"
   width="213.39151mm"
   height="33.973423mm"
   viewBox="0 0 213.39151 33.973423"
   version="1.1"
   id="svg5"
   xml:space="preserve"
   inkscape:version="0.92.4 (5da689c313, 2019-01-14)"
   sodipodi:docname="hint_2.svg"
   inkscape:export-filename="Rozcvička final\stickmani vlajkovy.svg"
   inkscape:export-xdpi="96"
   inkscape:export-ydpi="96"><metadata
     id="metadata232"><rdf:RDF><cc:Work
         rdf:about=""><dc:format>image/svg+xml</dc:format><dc:type
           rdf:resource="http://purl.org/dc/dcmitype/StillImage" /></cc:Work></rdf:RDF></metadata><sodipodi:namedview
     id="namedview7"
     pagecolor="#ffffff"
     bordercolor="#000000"
     borderopacity="0.25"
     inkscape:showpageshadow="2"
     inkscape:pageopacity="0.0"
     inkscape:pagecheckerboard="0"
     inkscape:deskcolor="#d1d1d1"
     inkscape:document-units="mm"
     showgrid="false"
     inkscape:zoom="0.76969695"
     inkscape:cx="464.64662"
     inkscape:cy="-153.02492"
     inkscape:window-width="1920"
     inkscape:window-height="1017"
     inkscape:window-x="-8"
     inkscape:window-y="-8"
     inkscape:window-maximized="1"
     inkscape:current-layer="g395" /><defs
     id="defs2" /><g
     inkscape:label="Layer 1"
     inkscape:groupmode="layer"
     id="layer1"
     transform="translate(-2.4126975,-7.0691444)"><g
       id="g162"
       transform="matrix(0.0225441,0,0,0.0225441,0.95104748,1.9217918)">
	<g
   id="g146">
		<path
   class="st0"
   d="m 494.5,1335.3 c -0.5,0 -1,0 -1.5,0 v 0 c -5.5,0.2 -12.8,1.4 -21.9,3.7 -1,0.3 -2,0.6 -3,1 -41.4,16.4 -69.9,29.4 -85.5,39.1 v 0 c -27,16.5 -61.6,47.9 -103.7,94.2 -0.1,0.1 -0.2,0.3 -0.3,0.4 -39.9,45.7 -64.4,79 -73.7,99.7 v 0 c -13.5,25.1 -24.6,50.1 -33.1,74.9 v 0 c -2.2,-2.4 -4.5,-4.7 -6.8,-6.8 v 0 l -57.8,-56.1 c -4.9,-4.7 -11.1,-7.1 -17.4,-7.1 -6.5,0 -13,2.5 -17.9,7.6 -9.6,9.9 -9.4,25.7 0.5,35.4 l 58.1,56.4 c 0.2,0.2 0.4,0.4 0.7,0.6 9.2,8.3 18.2,22.3 27.1,42.2 4.1,9.1 13.1,14.8 22.8,14.8 1,0 1.9,-0.1 2.9,-0.2 10.9,-1.3 19.6,-9.4 21.7,-20.2 7.3,-38.8 21.9,-78.4 43.8,-118.7 0.3,-0.6 0.7,-1.3 1,-2 6.9,-15.9 28.8,-45 65.8,-87.5 v 0 c 38.9,-42.8 69.9,-71.2 92.8,-85.2 0.1,0 0.1,-0.1 0.2,-0.1 12.9,-8 38.2,-19.5 76,-34.4 v 0 c 4.4,-1.1 7.4,-1.7 9.2,-1.8 v 0 c 0.9,0.1 1.7,0.1 2.5,0.1 12.1,0 22.7,-8.7 24.6,-21 2.2,-13.6 -7.1,-26.5 -20.7,-28.7 -2.1,-0.1 -4.2,-0.3 -6.4,-0.3 z"
   id="path144"
   inkscape:connector-curvature="0" />
	</g>
	<g
   id="g150">
		<path
   class="st0"
   d="m 400.2,901.4 c -5.9,0 -11.9,2.1 -16.6,6.4 -10.3,9.2 -11.2,25 -2,35.3 23.3,26.1 44.1,54.3 62.4,84.6 v 0 c 5.8,10.3 9.9,21.6 12.2,33.8 0.1,0.6 0.3,1.2 0.4,1.8 1.1,4.3 4.1,19.7 8.8,46.3 v 0 l 8.6,85.7 v 0 c 0.1,6.7 0.5,14.3 1.2,22.7 v 0 103 c 0,0.7 0,1.4 0.1,2.1 l 2,23.3 c 1.1,13 12,22.9 24.9,22.9 0.7,0 1.4,0 2.2,-0.1 13.8,-1.2 24,-13.3 22.8,-27 l -1.9,-22.3 v -103.1 c 0,-0.8 0,-1.5 -0.1,-2.3 -0.7,-8 -1.1,-14.9 -1.1,-20.8 0,-0.8 0,-1.6 -0.1,-2.4 l -8.8,-87.8 c -0.1,-0.6 -0.2,-1.3 -0.3,-1.9 -4.8,-26.9 -8,-43.6 -9.6,-50.2 v 0 c -3.4,-17.6 -9.4,-33.9 -18,-49 -0.1,-0.2 -0.2,-0.4 -0.3,-0.6 -19.9,-33.1 -42.6,-63.8 -68.1,-92.3 -5,-5.3 -11.8,-8.1 -18.7,-8.1 z"
   id="path148"
   inkscape:connector-curvature="0" />
	</g>
	<path
   class="st0"
   d="m 494.1,810 c -4,-2.4 -8.5,-3.6 -12.9,-3.6 -8.5,0 -16.8,4.3 -21.4,12.1 l -9.1,15.1 v 0 c -8.8,13.7 -14.6,22.3 -17.3,26.1 v 0 c -0.4,0.4 -0.8,0.8 -1.2,1.2 -7.5,8.3 -15.2,16 -23,23.1 v 0 c -4.7,3.9 -9.3,7.4 -13.7,10.6 v 0 c -2.3,1.3 -4.6,3 -6.9,5.2 -1.2,1.1 -3.2,3.1 -6.1,6.1 -9.7,9.8 -9.6,25.7 0.2,35.4 4.9,4.8 11.2,7.2 17.6,7.2 6.5,0 12.9,-2.5 17.8,-7.4 1.6,-1.6 2.8,-2.8 3.6,-3.6 v 0 c 6.5,-4.5 13.1,-9.6 19.9,-15.2 0.3,-0.2 0.5,-0.5 0.8,-0.7 8.6,-7.7 16.9,-16 25.1,-25 v 0 c 1.4,-1.2 2.8,-2.7 4.1,-4.3 v 0 c 3,-3.8 10.2,-14.5 21.5,-32 0.1,-0.2 0.3,-0.5 0.4,-0.7 l 9.2,-15.3 c 7,-11.8 3.2,-27.2 -8.6,-34.3 z"
   id="path152"
   inkscape:connector-curvature="0" />
	<g
   id="g156">
		<path
   class="st0"
   d="m 702.7,524 c -5.7,0 -11.4,1.9 -16.1,5.9 -10.5,8.9 -11.9,24.7 -2.9,35.2 22.7,26.8 40.7,102.8 54,227.8 v 0 c 1.6,16.5 2.3,27.9 2.1,34.1 0,0.4 0,0.8 0,1.1 0.7,43.4 0,102.8 -2.1,178.1 v 0 c -3.8,41.2 -7.4,66.4 -10.9,75.6 -0.2,0.6 -0.4,1.1 -0.6,1.7 -25,82.6 -61.7,149.5 -110.2,200.5 -0.3,0.3 -0.6,0.7 -0.9,1 -17.7,20.8 -57.5,37.6 -119.3,50.3 -13.5,2.8 -22.2,16 -19.5,29.5 2.4,11.8 12.8,20 24.5,20 1.7,0 3.4,-0.2 5.1,-0.5 72.5,-14.9 121.4,-37 146.8,-66.3 v 0 c 53.6,-56.6 94,-129.7 121.2,-219.2 v 0 c 5.1,-13.9 9.7,-43.6 13.8,-89 0,-0.5 0.1,-1 0.1,-1.6 2.1,-76 2.8,-136 2.2,-180.2 v 0 c 0.2,-8.4 -0.6,-21.8 -2.4,-40.3 0,-0.1 0,-0.2 0,-0.2 C 773.2,652.3 751.4,567.3 722.1,532.7 716.8,527 709.8,524 702.7,524 Z"
   id="path154"
   inkscape:connector-curvature="0" />
	</g>
	<g
   id="g160">
		<path
   class="st0"
   d="m 657.7,302.4 2.6,0.2 v 0 c 1,0.4 1.9,0.7 3,1 32.9,8.8 57.8,21 74.8,36.7 0.1,0.1 0.3,0.2 0.4,0.4 22.5,20 34.2,38.1 35,54.4 0,0.2 0,0.4 0,0.6 1.6,21.9 -6.8,45.2 -25.2,69.9 v 0 c -8.9,10.7 -21.1,21.8 -36.5,33.1 v 0 c -4.8,3.1 -11.2,5.4 -19.5,6.9 v 0 c -2.8,0.5 -5.8,0.7 -8.9,0.7 -6.8,0 -14.1,-1.2 -21.9,-3.6 v 0 C 608.8,482 575.5,466.2 561.4,455.4 v 0 c -29.8,-27 -45.9,-51.8 -48.3,-74.4 v 0 c -0.1,-29.9 12.1,-51.9 36.4,-66.1 v 0 c 10.7,-6 25,-10 42.8,-12.2 v 0 z m 0.7,-50 c 0,0 -0.1,0 -0.1,0 l -67.6,0.4 c -0.9,0 -1.8,0.1 -2.7,0.2 -25.1,2.8 -46,9 -62.9,18.3 v 0 c -0.1,0.1 -0.2,0.1 -0.3,0.2 -41.7,24.1 -62.2,61.1 -61.7,111.1 v 0 c 0,0.7 0,1.3 0.1,2 3.2,36 25,72.2 65.3,108.6 0.4,0.4 0.8,0.7 1.2,1 17.6,14 55.8,32.5 114.4,55.5 0.6,0.2 1.1,0.4 1.7,0.6 13,4.1 25.6,6.1 37.6,6.1 6,0 11.9,-0.5 17.6,-1.5 0.1,0 0.2,0 0.3,0 15.3,-2.8 28.3,-7.8 38.8,-15 0.3,-0.2 0.5,-0.4 0.8,-0.5 19.3,-14.1 34.8,-28.3 46.5,-42.6 0.2,-0.3 0.5,-0.6 0.7,-0.9 25.8,-34.6 37.6,-69 35.3,-103.2 v 0 c -1.5,-30.2 -18.6,-59.8 -51.3,-89 v 0 C 752,285 725,270.4 691.3,259.7 v 0 c -4,-3.5 -9.2,-5.8 -15,-6.2 l -16.3,-1 c -0.6,-0.1 -1.1,-0.1 -1.6,-0.1 z"
   id="path158"
   inkscape:connector-curvature="0" />
	</g>
</g><g
       id="g327"
       transform="matrix(0.02360951,0,0,0.02360951,17.699521,1.7175733)">
	<g
   id="g313">
		<path
   class="st0"
   d="m 88.4,1153.6 h -1.3 c -3.7,0.8 -7,1.8 -9.8,3.2 -6.3,3.8 -9.6,6.5 -9.8,7.9 -3.1,4.4 -4.4,9.9 -4,16.5 0.6,3.3 1.4,6.1 2.3,8.4 12.8,16.2 24,35 33.5,56.3 3.2,12.3 4.7,19.6 4.7,21.7 l 0.8,52.6 c 2,8 6.9,13.8 14.8,17.6 5,2.1 10.5,2.4 16.6,0.9 l 46.4,-20.8 28.4,-9.8 c 1.5,-1.1 19.3,-5 53.3,-11.7 31.4,-5.1 70.2,-6.6 116.2,-4.6 2.5,0.2 4.8,0.5 7,1 l 45,10.3 16.8,5.9 c 51.8,32.3 78.4,49.9 79.8,52.8 1.2,0.8 4.7,1.1 10.6,0.9 l 7.7,-1.5 5.3,-4.7 10.9,-23.6 1.9,-4.4 -8,-7.7 c -20.9,-16.1 -49.9,-35.1 -86.8,-57.2 l -25.7,-9 -47.1,-10.8 c -3.2,-1.8 -22.3,-2.8 -57.2,-2.9 -36,0.7 -59.7,2.1 -71,4.1 -41.8,5.3 -80.3,15.6 -115.6,30.8 1.5,-18.5 -4.7,-42 -18.8,-70.3 -8.1,-15 -18,-30 -29.7,-45 -3.8,-4.1 -9.6,-6.4 -17.2,-6.9 z"
   id="path311"
   inkscape:connector-curvature="0" />
	</g>
	<path
   class="st0"
   d="m 548.4,1315.6 -7.3,-18 c -5.1,-18.3 -10.2,-34.7 -15.5,-49.3 l -7,-13.5 c -5.9,-11.5 -12,-21.9 -18.2,-31.1 -57.7,-76.9 -94.7,-124 -111.1,-141.5 -19.7,-18 -46.7,-39.9 -80.9,-65.9 -20.4,-14.3 -37,-24.4 -49.8,-30.2 -11.5,-6.3 -29.7,-13 -54.8,-20.1 -1.6,1.4 1,1.5 -33,-1.8 l -16.1,8.2 c -3.3,12.3 -12.1,15.4 -10.7,22.5 -0.2,3.4 2.8,8.2 9,14.4 1.4,1.4 4.8,3 10.2,4.8 l 25.6,-0.6 c 7.5,0.7 12,1.3 13.4,1.9 7.4,2.2 23,9.3 46.9,21.2 28.5,17.4 63.7,44.3 105.4,80.8 10.4,10.5 46.8,57.6 109,141.4 7.3,11.9 12.4,21.4 15.3,28.5 11.3,36.7 18.9,58.5 22.6,65.5 0.3,-0.9 6.9,3.9 19.7,14.3 8.9,-0.1 14.7,-1.6 17.2,-4.4 8.3,-7.4 11.6,-16.4 10.1,-27.1 z"
   id="path315"
   inkscape:connector-curvature="0" />
	<g
   id="g319">
		<path
   class="st0"
   d="m 598.6,554 v 0 c -0.4,0 -0.8,0.1 -1.1,0.1 -11.1,2.6 -17.4,5.7 -19,9.2 -3.3,4 -5.1,9.1 -5.4,15.3 -0.1,6 0,10.4 0.3,13.5 0,0.4 0.1,0.7 0.2,1 5.7,19 10.2,44.7 13.5,77.1 0,0.2 0,0.3 0,0.5 0.2,14.8 0.2,34.7 0,59.5 -0.2,8.5 -0.4,13.4 -0.7,14.5 -0.1,0.5 -0.2,1.1 -0.2,1.6 v 98.9 c 0,0.1 0,0.2 0,0.4 l 4,57 c 0,0.1 0,0.2 0,0.4 v 72.8 c 0,0.2 0,0.3 0,0.5 -0.6,6.5 -0.9,11.8 -1,15.9 v 96.4 c 0,0.3 0,0.6 -0.1,0.9 -0.6,3.3 -1.1,14.3 -1.6,33.1 0,0.1 0,0.3 0,0.4 l -1.6,15.3 c -3.3,22 -11.4,49.3 -24.3,81.9 -6.4,16.3 -14.1,33.9 -22.9,52.7 -8.7,18.7 -18.6,38.7 -29.7,60 -0.2,0.4 -0.4,0.9 -0.5,1.3 -0.3,1.6 -0.5,2.6 -0.4,3 -0.1,2 0.1,4.3 0.5,6.7 0.3,1.5 1.2,2.7 2.4,3.5 l 17.1,10.6 c 0.7,0.4 1.5,0.7 2.4,0.8 l 13.5,1.2 c 0.7,0.1 1.4,0 2.1,-0.2 3.1,-1.1 5.4,-2.6 6.8,-4.7 1.7,-2.9 6.4,-11.8 14,-26.6 27.8,-57.5 42.8,-90.9 45.1,-100.4 0.1,-0.2 0.1,-0.4 0.2,-0.6 15.3,-40.6 23.8,-76.1 25.5,-106.6 0.2,-15.4 0.6,-25.1 1.4,-29 0.1,-0.3 0.1,-0.6 0.1,-1 v -98.8 c 0,-0.1 0,-0.3 0,-0.4 l 1,-14 c 0,-0.1 0,-0.3 0,-0.4 v -75.2 c 0,-0.1 0,-0.2 0,-0.4 l -4,-57.3 c 0,-0.1 0,-0.2 0,-0.4 v -95.8 c 0,-0.3 0,-0.6 0.1,-1 0.9,-5 1.2,-31.5 0.8,-79.5 0,-0.2 0,-0.3 0,-0.5 -1.6,-16.3 -3.1,-28.9 -4.5,-37.8 -2.8,-17.4 -5.9,-31.8 -9.1,-43.2 -0.2,-0.6 -0.2,-1.1 -0.2,-1.7 0.2,-5.5 -0.1,-9.8 -1,-12.8 -3.3,-10 -10.8,-15.9 -22.5,-17.8 -0.6,0.1 -0.9,0.1 -1.2,0.1 z"
   id="path317"
   inkscape:connector-curvature="0" />
	</g>
	<g
   id="g323">
		<path
   class="st0"
   d="m 613.6,294.2 c 10.4,4.1 26.3,13.5 47.9,28.2 v 0 c 25.9,19.6 41.1,34.6 45.6,45 0.1,0.3 0.3,0.6 0.4,1 16.9,34.8 14.8,66.8 -6.4,96.1 v 0 c -32.9,42.8 -64.7,65.3 -95.5,67.4 v 0 c -34.4,-1.1 -65,-8.5 -91.6,-22.1 -0.5,-0.2 -0.9,-0.4 -1.4,-0.7 -11.2,-4.9 -24.1,-18.6 -38.6,-41 v 0 c -11.9,-21.5 -17.7,-37.1 -17.1,-46.8 0,-0.8 0,-1.6 0,-2.4 -1,-23.8 4.3,-43.8 15.8,-60 0.3,-0.4 0.6,-0.9 0.9,-1.3 6.6,-10.7 15.6,-19.6 27.1,-26.8 v 0 c 42.9,-17.2 73.1,-25.8 90.7,-25.8 0.4,0 0.7,0 1.1,0 0.2,0 0.4,0 0.5,0 8.5,0 16.1,-4.3 20.6,-10.8 z m -9.1,-52.3 c -1.9,0 -3.8,0.1 -5.6,0.3 v 0 c -8.5,1.1 -15.5,6.4 -19.1,13.5 v 0 c -24.1,2.6 -57.3,12.5 -99.7,29.6 -1.2,0.5 -2.4,1.1 -3.6,1.8 -18.8,11.4 -33.8,25.9 -44.9,43.6 v 0 c -17.7,25.1 -25.9,55 -24.6,89.4 v 0 c -0.6,19.2 7.3,43.6 23.8,73.1 0.2,0.4 0.5,0.9 0.8,1.3 19.9,31 40,51.1 60.4,60.3 v 0 c 33.4,16.9 71.2,26 113.3,27.2 0.2,0 0.5,0 0.7,0 0.5,0 0.9,0 1.4,0 46.6,-2.5 91.2,-31.7 133.8,-87.5 0.1,-0.2 0.3,-0.4 0.4,-0.5 32.8,-45.3 36.5,-94.2 11.2,-146.8 v 0 c -8.2,-18.5 -28.7,-40.1 -61.8,-65.1 -0.3,-0.2 -0.6,-0.5 -0.9,-0.7 -37.6,-25.8 -65.6,-39 -84,-39.6 v 0 c -0.6,0.1 -1.1,0.1 -1.6,0.1 z"
   id="path321"
   inkscape:connector-curvature="0" />
	</g>
	<path
   class="st0"
   d="m 275.1,850 c -5,-3.5 -10.9,-4.8 -16.5,-4.2 -6.6,0.8 -12.9,4.3 -17,10.2 -4.8,6.9 -7.8,11.1 -9,12.7 v 0 c -0.6,0.7 -1.1,1.3 -1.6,2.1 -2.9,4.1 -4.9,7.1 -6.1,9 v 0 l -0.1,0.1 c -2.9,3.3 -6.7,7.7 -11.3,13 v 0 l -15,14.6 -4.4,3.5 c -0.5,0.4 -0.9,0.8 -1.4,1.2 l -22.3,21 -17.4,14.2 v 0 c -10.2,5.3 -15.4,17.3 -11.8,28.6 3.5,11.2 14.5,17.9 25.7,16.6 1.5,-0.2 3,-0.5 4.5,-1 3.7,-1.2 7.2,-3.1 10.6,-5.8 l 0.1,-0.1 19.4,-15.8 c 0.5,-0.4 0.9,-0.8 1.3,-1.2 l 22.3,-20.9 4.6,-3.7 c 0.6,-0.5 1.2,-1 1.7,-1.5 l 16.5,-16.2 c 0.5,-0.5 1,-1 1.4,-1.5 1.6,-1.9 3.1,-3.6 4.5,-5.2 1.6,-1.2 3.1,-2.7 4.4,-4.4 l 4,-5.2 c 2,-2.2 3.3,-3.7 3.9,-4.3 2.5,-2.6 4.3,-5.6 5.4,-8.9 1.9,-2.6 5.1,-7.1 9.5,-13.5 7.7,-10.8 5,-25.8 -5.9,-33.4 z m -40.9,17.1 v 0 c -0.4,0.4 -0.8,0.8 -1.2,1.2 0.4,-0.4 0.8,-0.8 1.2,-1.2 z"
   id="path325"
   inkscape:connector-curvature="0" />
</g><g
       id="g395"
       transform="matrix(0.02577445,0,0,0.02577445,32.053384,-3.8118912)">
	<g
   id="g377">
		<path
   class="st0"
   d="m 509.8,1298.8 c -9.5,0 -18.6,1.9 -27.4,5.8 -1.9,0.8 -3.8,1.9 -5.4,3.2 v 0 c -5.6,3.3 -25.3,12.7 -59.2,28.1 v 0 c -0.9,0.4 -1.8,0.9 -2.7,1.4 -31.9,19.6 -52,35 -60,46.2 v 0 c -0.3,0.4 -0.6,0.9 -0.9,1.3 v 0 c -45.4,48.7 -79,90.5 -100.8,125.4 v 0 c -12,18 -28.1,45.3 -48.4,82.1 v 0 c -0.5,-1.4 -1,-2.9 -1.5,-4.4 -1,-2.9 -2.4,-5.6 -4.4,-8 l -52.8,-64.6 c -4.9,-6 -12.1,-9.2 -19.4,-9.2 -5.6,0 -11.2,1.8 -15.8,5.6 -10.7,8.7 -12.3,24.5 -3.5,35.2 l 49.9,61 v 0 c 5.2,15.4 9.9,27.7 14.2,36.9 v 0 l 1.5,15.5 c 1.1,11 9.2,20 20,22.1 1.6,0.3 3.2,0.5 4.8,0.5 9.1,0 17.7,-5 22.1,-13.3 33.7,-63.6 58.7,-107.6 75,-132 0.2,-0.2 0.3,-0.5 0.5,-0.7 20.3,-32.6 52.5,-72.5 96.7,-119.7 1.3,-1.4 2.4,-2.9 3.4,-4.5 v 0 c 4.2,-5.7 19,-16.3 44.3,-31.9 v 0 c 36.2,-16.5 57.7,-26.8 64.4,-31.1 v 0 c 1.8,-0.6 3.7,-0.9 5.7,-0.9 0.7,0 1.5,0 2.3,0.1 0.9,0.1 1.9,0.2 2.8,0.2 12.6,0 23.4,-9.5 24.8,-22.3 1.5,-13.7 -8.4,-26.1 -22.1,-27.6 -2.8,-0.2 -5.5,-0.4 -8.1,-0.4 z"
   id="path375"
   inkscape:connector-curvature="0" />
	</g>
	<g
   id="g381">
		<path
   class="st0"
   d="m 871.9,996.8 c -12.6,0 -23.4,9.5 -24.8,22.3 l -6.7,61.7 -22,61 c -0.2,0.5 -0.3,0.9 -0.5,1.4 v 0 c -2.6,8.7 -18.3,27.5 -47,56.2 v 0 c -1,1 -1.9,2 -2.7,3.2 v 0 c -7.5,6.4 -31.9,23.4 -73.2,51 v 0 c -19.7,12.1 -31.9,19.3 -36.8,21.8 v 0 c -0.6,0.2 -1.3,0.4 -1.9,0.7 -22.3,8.8 -36.1,13.6 -41.4,14.3 v 0 c -1.2,0.1 -2.4,0.2 -3.5,0.5 -20.3,4.3 -38.6,6.4 -55,6.4 -4.1,0 -8,-0.1 -11.8,-0.4 -0.6,0 -1.2,-0.1 -1.8,-0.1 -13,0 -24,10.1 -24.9,23.3 -1,13.8 9.4,25.7 23.2,26.7 4.9,0.3 10,0.5 15.2,0.5 19.4,0 40.7,-2.4 63.8,-7.1 v 0 c 0.3,0 0.7,-0.1 1.1,-0.1 v 0 c 9.1,-1.2 26.4,-6.8 51.7,-16.8 v 0 c 1.6,-0.5 3.2,-1 4.8,-1.8 v 0 c 5.7,-2.6 20.4,-11.1 43.9,-25.6 0.3,-0.2 0.5,-0.3 0.8,-0.5 47,-31.4 74.3,-50.8 81.9,-58.1 v 0 c 1.7,-1.6 3.2,-3.3 4.4,-5 v 0 c 32.5,-32.8 51.4,-57.4 56.7,-73.8 v 0 l 22.9,-63.5 c 0.7,-1.9 1.1,-3.8 1.3,-5.8 l 7,-64.7 c 1.5,-13.7 -8.4,-26.1 -22.1,-27.6 -0.8,0 -1.7,-0.1 -2.6,-0.1 z"
   id="path379"
   inkscape:connector-curvature="0" />
	</g>
	<g
   id="g385">
		<path
   class="st0"
   d="m 891.5,1005.9 v 0 c 1.4,1.6 2.5,3.5 3.5,5.8 v 0 c -0.9,-2.2 -2.1,-4.1 -3.5,-5.8 z m -19.3,-9.1 c -3.4,0 -6.8,0.7 -10.1,2.2 -12.6,5.6 -18.3,20.4 -12.7,33 1.6,3.6 4.1,6.9 7.6,9.9 v 0 c 4.6,4 18.7,14.1 42.2,30.2 v 0 c 1.9,1.4 9,7.1 21.2,17 v 0 l 12.7,11.2 v 0 c 1.3,1.4 3.4,4.2 6.4,8.4 0.8,1.1 1.7,2.2 2.7,3.2 l 7.3,7.4 c 4.9,5 11.4,7.5 17.8,7.5 6.3,0 12.7,-2.4 17.5,-7.2 9.8,-9.7 10,-25.5 0.3,-35.4 l -5.9,-6 v 0 c -4.3,-6 -7.9,-10.5 -10.7,-13.4 v 0 c -0.2,-0.2 -0.4,-0.4 -0.6,-0.6 v 0 c -0.3,-0.3 -0.7,-0.6 -1,-0.9 L 953,1051.1 c -0.2,-0.2 -0.5,-0.4 -0.8,-0.6 -13.2,-10.7 -21.1,-17.1 -23.8,-19 v 0 c -0.3,-0.2 -0.7,-0.5 -1,-0.7 v 0 c -20.5,-14 -32.8,-22.7 -36.9,-26.1 v 0 c -4.7,-5 -11.4,-7.9 -18.3,-7.9 z"
   id="path383"
   inkscape:connector-curvature="0" />
	</g>
	<g
   id="g389">
		<path
   class="st0"
   d="m 471.6,728.5 c -10.1,0 -19.6,6.1 -23.4,16.1 -5.6,14.8 -10.4,31.5 -14.3,50.1 v 0.1 c -8.5,41.4 -12.4,67.7 -11.8,79.1 v 0 c 0,0.2 0,0.4 0,0.6 v 0 L 422,954 c 0,0.7 0,1.3 0.1,2 0.9,11.4 1.2,22.6 1,33.4 0,0.5 0,1 0,1.5 l 1.1,26.2 c 0,0.3 0,0.7 0.1,1 l 5,59.2 c 0,0.2 0,0.4 0.1,0.6 6.6,61.1 13,104.2 19.3,129.3 0.2,0.6 0.3,1.2 0.5,1.8 16.8,50.7 34.9,88.5 54.1,113.4 4.9,6.4 12.3,9.7 19.8,9.7 5.3,0 10.7,-1.7 15.3,-5.2 10.9,-8.5 12.9,-24.2 4.5,-35.1 -15.6,-20.2 -30.9,-52.7 -45.9,-97.5 v 0 c -5.6,-23 -11.6,-63.4 -17.8,-121.2 v 0 l -4.9,-58.6 v 0 l -1.1,-24.8 v 0 c 0.2,-11.8 -0.2,-24 -1.1,-36.3 v 0 l 0.2,-79.7 c 0,-0.8 0,-1.6 -0.1,-2.4 v 0 c -0.4,-7 3.2,-29.1 10.8,-66.2 v 0 c 3.4,-16.1 7.4,-30.2 12.1,-42.6 4.9,-12.9 -1.6,-27.3 -14.5,-32.3 -3,-1.2 -6,-1.7 -9,-1.7 z"
   id="path387"
   inkscape:connector-curvature="0" />
	</g>
	<g
   id="g393">
		<path
   class="st0"
   d="m 489.1,504.7 v 0 c 1.3,0.2 2.6,0.3 3.9,0.3 0.3,0 0.6,0 0.8,0 2.9,-0.1 5.8,-0.1 8.6,-0.1 58.5,0 96.3,20.9 113.5,62.7 v 0 c 9.5,44.6 -10.4,79.4 -59.7,104.5 v 0 c -31.9,12.8 -58.4,19.2 -79.5,19.2 -26.9,0 -44.9,-10.4 -54.2,-31.1 v 0 c -26,-62 -7.1,-110.4 56.5,-145.1 4.4,-2.6 7.9,-6.2 10.1,-10.4 z M 503,454.8 c -3.6,0 -7.2,0.1 -10.8,0.2 -9.3,0.3 -17.2,5.6 -21.3,13.3 v 0 c -1.3,-0.2 -2.6,-0.3 -3.9,-0.3 -4,0 -8.1,1 -12,3.1 -90,49.1 -116.2,118.6 -78.6,208.3 0.1,0.1 0.1,0.3 0.2,0.4 18.2,41.4 50.4,62.1 96.7,62.1 28.7,0 62.9,-8 102.5,-23.9 0.6,-0.3 1.2,-0.5 1.9,-0.8 74.1,-37.1 102.9,-91.4 86.5,-162.7 -0.3,-1.2 -0.6,-2.4 -1.1,-3.5 C 638,486.9 584.6,454.8 503,454.8 Z"
   id="path391"
   inkscape:connector-curvature="0" />
	</g>
</g><g
       id="g457"
       transform="matrix(0.02449687,0,0,0.02449687,49.59353,-4.4412865)">
	<g
   id="g443">
		<path
   class="st0"
   d="m 483.2,538.6 c 3.1,3.2 7.1,5.7 11.8,6.9 18.5,4.8 32.9,11.2 43.3,19 0.3,0.2 0.5,0.4 0.8,0.6 7.2,5 13.7,11.5 19.4,19.4 v 0 c 11.7,20.4 13.5,39.6 5.5,57.7 v 0 c -8.8,18.4 -30.6,36.9 -65.4,55.4 v 0 c -43.5,22.6 -72.6,33.8 -87.2,33.8 -2.2,0 -4.1,-0.3 -5.7,-0.8 v 0 c -0.4,-0.2 -0.9,-0.3 -1.3,-0.5 -15.7,-5.3 -27.6,-18.9 -35.6,-40.8 -0.2,-0.6 -0.5,-1.3 -0.8,-1.9 -9.3,-20.1 -10.1,-45.3 -2.3,-75.5 v 0 c 4.3,-15.6 15.2,-29.9 32.8,-42.8 0.2,-0.2 0.5,-0.4 0.7,-0.6 6.2,-4.9 17.9,-10.3 35.2,-16.1 v 0 z m -6,-49.3 c -2.2,0 -4.5,0.3 -6.8,0.9 L 420,504.4 c -0.4,0.1 -0.8,0.2 -1.2,0.4 -22.9,7.7 -39.8,15.8 -50.7,24.3 v 0 c -26.7,19.7 -43.7,42.9 -51,69.6 0,0.1 -0.1,0.2 -0.1,0.3 -10.7,41.5 -9.1,77.7 4.9,108.5 v 0 c 13.5,36.1 35.3,59.3 65.6,69.8 v 0 c 0.6,0.2 1.2,0.4 1.8,0.6 v 0 c 5.3,1.8 11.4,2.7 18.3,2.7 26.2,0 64.3,-12.9 114.1,-38.8 0.1,0 0.2,-0.1 0.2,-0.1 44.9,-23.9 74,-50.2 87.4,-78.7 0.1,-0.1 0.1,-0.3 0.2,-0.4 15.2,-34.1 12.3,-68.9 -8.6,-104.5 -0.4,-0.6 -0.8,-1.3 -1.2,-1.8 -9.1,-12.7 -19.6,-23.3 -31.6,-31.7 v 0 c -15.7,-11.8 -35.9,-20.9 -60.7,-27.4 -2.1,-0.5 -4.2,-0.8 -6.3,-0.8 -2,0 -4,0.2 -5.9,0.7 v 0 c -4.6,-5 -11.1,-7.8 -18,-7.8 z"
   id="path441"
   inkscape:connector-curvature="0" />
	</g>
	<g
   id="g447">
		<path
   class="st0"
   d="m 807.5,1047.1 c -0.1,0.1 -0.2,0.2 -0.4,0.2 v 0 c -0.1,0 -0.1,0.1 -0.2,0.1 v 0 c 0.2,0 0.4,-0.2 0.6,-0.3 z m -14.4,-46.5 c -4.8,0.4 -9.5,2.1 -14,5.3 v 0 c -10,6.6 -14.1,16.2 -12.3,29 0.2,1.5 0.6,3 1.1,4.5 4.1,12 6,23 5.7,33 v 0 l -9,67.5 v 0 c -3.1,17.3 -15.2,38.1 -36.4,62.3 -0.6,0.7 -1.2,1.4 -1.7,2.2 -5.4,7.7 -17.3,19 -35.9,33.8 v 0 L 566,1317.6 v 0 c -20.2,10.6 -36.2,17.6 -48.2,20.9 -13.3,3.7 -21.1,17.5 -17.4,30.8 3.3,11.7 14.3,19.1 26,18.2 1.6,-0.1 3.2,-0.4 4.8,-0.8 15.6,-4.3 35.2,-12.8 59,-25.3 0.6,-0.3 1.2,-0.7 1.8,-1 l 126.5,-80.7 c 0.7,-0.5 1.4,-1 2.1,-1.5 22.2,-17.6 37.5,-32.2 46,-43.9 v 0 c 27.1,-31.2 42.9,-60.1 47.3,-86.6 0,-0.3 0.1,-0.6 0.1,-0.8 l 9.2,-69.1 c 0.1,-0.7 0.2,-1.5 0.2,-2.3 0,0 0,-0.1 0,-0.1 v 0 c 30.7,31 50.2,49.3 58.5,54.9 v 0 c 6.7,4.5 13,6.5 18.9,6.1 5.6,-0.4 10.8,-3.1 15.6,-7.9 v 0 c 2.1,-2 3.7,-4.4 5,-7 6,-12.4 0.8,-27.4 -11.6,-33.4 -0.7,-0.4 -1.5,-0.7 -2.2,-0.9 v 0 c -7.2,-5.8 -23.8,-21.8 -49.7,-48 v 0 c -0.5,-0.5 -0.9,-0.9 -1.4,-1.3 -10.6,-9.2 -24.2,-19.1 -40.7,-29.7 v 0 c -0.6,-0.4 -1.1,-0.8 -1.7,-1.1 v 0 c -7.3,-4.9 -14.3,-7 -21,-6.5 z"
   id="path445"
   inkscape:connector-curvature="0" />
	</g>
	<g
   id="g451">
		<path
   class="st0"
   d="m 514,1355.2 c -10.4,0 -20.1,6.5 -23.7,16.9 -7.5,21.9 -14.8,41.2 -22.1,58.1 v 0 c -0.4,0.9 -0.7,1.9 -1,2.8 l -8.5,28.7 c -0.1,0.4 -0.2,0.8 -0.3,1.1 -6.3,25.8 -8.8,50.2 -7.3,73.4 0,0.5 0.1,1 0.1,1.5 4.3,35.3 11.4,77.6 21.4,127 v 0 c 4.3,31.5 6.9,55 7.9,70.4 0.1,1.3 0.3,2.5 0.5,3.7 l 4.6,20.8 c 0,0 0,0 0,0 v 0 c -3.5,0 -7,0.2 -10.6,0.7 v 0 c -14.1,0.7 -50.2,11.1 -69.8,23.7 -11.6,7.5 -14.9,23 -7.5,34.6 4.8,7.4 12.8,11.4 21,11.4 4.6,0 9.3,-1.3 13.5,-4 12.3,-7.9 40.2,-15.7 45.1,-15.7 1,0 2,-0.1 3.1,-0.2 1.6,-0.2 3.2,-0.3 4.7,-0.3 8.5,0 16.4,3.3 23.7,9.8 4.7,4.2 10.7,6.4 16.7,6.4 4.1,0 8.3,-1 12.1,-3.1 9.3,-5.2 14.3,-15.7 12.5,-26.2 l -2.6,-15.1 c -0.3,-1.8 -0.8,-3.5 -1.5,-5.2 l -12.1,-29.5 v 0 l -3.7,-16.8 v 0 c -1.2,-16.7 -3.9,-40.9 -8.2,-72.8 -0.1,-0.5 -0.2,-1.1 -0.3,-1.6 -9.7,-48 -16.7,-89 -20.8,-123 v 0 c -1,-17.7 0.9,-36.7 5.9,-57.1 v 0 l 7.9,-26.7 v 0 c 7.6,-17.7 15.3,-37.9 22.9,-60.4 4.5,-13.1 -2.5,-27.3 -15.6,-31.7 -2.6,-1.1 -5.3,-1.6 -8,-1.6 z"
   id="path449"
   inkscape:connector-curvature="0" />
	</g>
	<g
   id="g455">
		<path
   class="st0"
   d="m 462.1,1199 v 0 c 2.2,1.7 4,3.5 5.3,5.5 v 0 c -1.5,-2.1 -3.3,-3.9 -5.3,-5.5 z M 425,747.2 c -8.9,0 -17.5,4.7 -22,13.1 -1,1.9 -1.9,4.1 -2.7,6.6 v 0 c -1.3,4.1 -2.6,10.5 -3.9,19.3 v 0 c 0,0.2 -0.1,0.4 -0.1,0.5 -1.2,9.3 -1.7,21.9 -1.5,37.8 v 0 l -1.6,14.5 c -0.1,0.8 -0.1,1.6 -0.2,2.4 l -0.2,15.6 v 0 c -5.7,48.7 -8.6,79.4 -8.7,92.1 0,0.1 0,0.1 0,0.2 l -0.1,76.1 c 0,0.6 0,1.2 0.1,1.7 1.5,21.2 2.6,34.8 3.6,40.7 0,0.1 0,0.2 0.1,0.3 l 12.2,72.2 c 0.1,0.5 0.2,1 0.3,1.6 11.2,47.5 18.6,75.7 22.4,84.6 v 0 c 0.5,1.2 1,2.3 1.6,3.4 v 0 c 19.8,56 43.2,103.5 70.2,142.6 4.9,7 12.7,10.8 20.6,10.8 4.9,0 9.8,-1.4 14.2,-4.4 11.4,-7.8 14.2,-23.4 6.4,-34.8 -24.8,-36 -46.5,-80.5 -65.1,-133.5 -0.6,-1.7 -1.4,-3.3 -2.3,-4.8 v 0 c -2.9,-7.8 -9.3,-32.6 -19.1,-74.4 v 0 l -12,-71.5 v 0 c -0.7,-4.7 -1.7,-16.5 -3,-35.2 v 0 l 0.1,-75.3 v 0 c 0.1,-11.1 2.9,-40.4 8.5,-87.8 0.1,-0.8 0.2,-1.7 0.2,-2.5 l 0.2,-15.6 1.7,-14.9 c 0.1,-1.1 0.2,-2.1 0.2,-3.2 -0.2,-13.9 0.1,-24.5 1,-31.8 v 0 c 0.9,-5.6 1.5,-9.4 2.1,-11.4 v 0 c 5.1,-11.8 0.5,-25.7 -11,-31.9 -4.1,-2.1 -8.2,-3.1 -12.2,-3.1 z"
   id="path453"
   inkscape:connector-curvature="0" />
	</g>
</g><g
       id="g501"
       transform="matrix(0.02425677,0,0,0.02425677,64.688985,-4.3069441)">
	<path
   class="st0"
   d="m 465,561.5 c -3.6,3.3 -8.3,5.2 -14.1,5.5 v 0 c 5.1,-0.3 10.1,-2.2 14.1,-5.5 z m 133.9,-31.8 c 1.3,5.6 4.6,10.8 9.7,14.5 26.2,19 40.9,39.3 43.9,60.9 v 0 c 1.7,12 1.8,20.9 0.5,26.6 -0.1,0.4 -0.2,0.8 -0.3,1.3 -1.3,7.7 -5.8,15.1 -13.3,22.2 v 0 c -10,8.7 -24.5,14.5 -43.7,17.3 v 0 c -20.9,2.7 -44.6,7 -71,12.9 v 0 c -11.4,1 -23.6,1 -36.6,0.2 v 0 c -10.6,-3.5 -20.7,-12.2 -30.3,-26.1 -0.1,-0.2 -0.3,-0.4 -0.4,-0.6 -8,-11 -13.7,-23.5 -16.9,-37.6 v 0 c -0.4,-14 2.1,-25.4 7.6,-34.1 v 0 c 9.1,-14 15,-22.8 17.8,-26.5 v 0 c 0.4,-0.4 0.8,-0.8 1.3,-1.2 14,-14.4 23.5,-22.8 28.4,-25.1 v 0 c 0.7,-0.2 1.3,-0.5 2,-0.8 17.7,-7.8 35.4,-11.2 53.1,-10.4 v 0 c 17.4,1.5 33.5,3.6 48.2,6.5 z m 43.8,-40.5 c -0.1,0 -0.1,0 -0.2,0 -25.3,-7.9 -54.8,-13.1 -88.3,-15.7 -0.2,0 -0.4,0 -0.7,0 -25.4,-1.3 -50.5,3.4 -75.3,14.1 v 0 c -1.1,0.4 -2.2,0.8 -3.3,1.3 -10.3,4.7 -24.4,16.1 -42.3,34.4 v 0 c -1.4,1.2 -2.8,2.5 -4,4.1 v 0 c -3.7,4.3 -11.2,15.2 -22.5,32.7 0,0.1 -0.1,0.1 -0.1,0.2 -11.5,18.1 -16.6,40 -15.4,65.6 0.1,1.3 0.2,2.7 0.5,4 4.6,21.7 13.2,41.2 25.7,58.4 v 0 c 16.1,23.3 34.8,38.3 56.3,45.1 1.4,0.4 2.8,0.8 4.2,1.2 1.5,0.4 3,0.6 4.5,0.8 17.3,1.3 33.7,1.2 49,-0.2 1.1,-0.1 2.1,-0.3 3.2,-0.5 25.8,-5.8 48.6,-10 68.4,-12.5 0.2,0 0.3,0 0.5,-0.1 29.2,-4.3 52.6,-14.2 70,-29.7 0.2,-0.1 0.3,-0.3 0.5,-0.4 15.6,-14.6 25.1,-31.1 28.5,-49.5 v 0 c 2.5,-11.5 2.6,-26.2 0.1,-44.1 v -0.1 c -4,-28.4 -18.4,-54.1 -43.2,-77.2 v 0 c 0,-0.1 0.1,-0.3 0.1,-0.4 4.1,-13.4 -3.2,-27.3 -16.2,-31.5 z"
   id="path493"
   inkscape:connector-curvature="0" />
	<path
   class="st0"
   d="m 551.8,1284 c -3,-0.1 -6,0.3 -9,1.3 -52.5,17.5 -92.1,34.6 -118.8,51.1 v 0 c -40.6,21.7 -83.6,54.4 -129.1,98.1 -0.1,0.1 -0.3,0.3 -0.4,0.4 -33.5,33.6 -58.2,71.1 -74.1,112.3 v 0 c -1.2,-1.7 -2.5,-3.4 -3.8,-5.1 -0.4,-0.5 -0.8,-1.1 -1.3,-1.6 l -47.1,-52.8 v 0 c -0.9,-2.1 -2.3,-5.7 -4.1,-10.9 -3.5,-9.9 -12.6,-16.3 -22.5,-16.7 -3.1,-0.1 -6.3,0.3 -9.3,1.4 -13,4.6 -19.9,18.8 -15.3,31.9 3.1,8.9 5.8,15.4 8,19.4 v 0 c 0.7,1.3 1.4,2.4 2.1,3.4 v 0 c 0.6,0.9 1.3,1.8 2,2.6 l 48.3,54.2 v 0 c 12.2,16.2 20.3,30 24.2,41.3 0.5,1.3 1,2.6 1.7,3.8 5.8,10.4 13,15.8 21.9,16.2 4.2,0.2 8.8,-0.8 13.8,-2.9 7.7,-3.3 13.2,-10.2 14.7,-18.4 10,-54 35.3,-101.5 76.1,-142.6 v 0 c 42.4,-40.7 81.9,-70.8 118.5,-90.3 0.5,-0.3 1,-0.6 1.5,-0.9 23.3,-14.6 59.6,-30.1 108.8,-46.6 13.1,-4.4 20.2,-18.5 15.8,-31.6 -3.3,-10 -12.5,-16.5 -22.6,-17 z"
   id="path495"
   inkscape:connector-curvature="0" />
	<path
   class="st0"
   d="m 622,1287.6 c -11.2,-0.8 -24.1,-1.3 -38.6,-1.5 -13.8,-0.2 -25.2,10.8 -25.4,24.6 -0.2,13.4 10.1,24.5 23.3,25.4 0.4,0 0.9,0 1.3,0.1 16.2,0.3 29.7,0.8 40.4,1.5 14.3,1 23.6,2.4 27.9,4.2 v 0 c 0,0 0.1,0 0.1,0.1 28.5,13.8 47.3,25.6 56.5,35.4 0.8,0.8 1.6,1.6 2.4,2.3 16.2,13.2 33.4,31.3 51.7,54.3 v 0 l 58.1,80.3 50.4,76.6 c 4.4,6.6 11.5,10.7 19.2,11.2 2.4,0.2 4.8,0 7.2,-0.5 4.6,-1 9.2,-3.2 13.7,-6.5 v 0 c 11.5,-8.4 28.8,-31 51.9,-67.8 v 0 c 2.6,-2 6.9,-5.2 12.9,-9.6 11.2,-8.1 13.6,-23.8 5.5,-34.9 -4.5,-6.2 -11.4,-9.7 -18.5,-10.2 -5.7,-0.4 -11.5,1.1 -16.4,4.8 -9.6,7 -15.7,11.7 -18.3,13.9 v 0 c -3.6,3.1 -6.2,6.4 -7.8,10 v 0 c -9.7,15.5 -17.8,27.7 -24.3,36.7 v 0 l -33.9,-51.5 c -0.2,-0.3 -0.4,-0.6 -0.6,-0.9 l -58.8,-81.3 c -0.2,-0.3 -0.4,-0.6 -0.7,-0.9 -20.1,-25.4 -39.6,-45.8 -58.3,-61.2 v 0 c -13.5,-13.9 -36.8,-28.8 -69.7,-44.8 v 0 c -0.9,-0.5 -1.8,-0.9 -2.8,-1.3 v 0 c -9.2,-4.2 -25.3,-6.9 -48.4,-8.5 z"
   id="path497"
   inkscape:connector-curvature="0" />
	<path
   class="st0"
   d="m 551.5,719.7 c -9.5,-1 -19.1,3.6 -24.2,12.3 -5.7,9.8 -8.7,22.6 -9.1,38.4 0,0.2 0,0.5 0,0.7 l 0.2,35.8 c 0,0.6 0,1.2 0.1,1.7 l 8.5,112.2 c 0,0.2 0,0.4 0.1,0.6 l 10.1,99 2.6,70 c 0,0.8 0.1,1.5 0.2,2.3 1.8,13.9 3.5,36.7 5.1,68.5 v 0 l 2.4,53 v 0 c -0.9,18.1 -1.4,32.8 -1.3,44.1 v 0 c -0.7,6.7 -1.1,11.2 -1.2,13.6 v 0 c 0,1.3 0,2.4 0,3.5 v 0 c 0,0.3 0,0.6 0.1,1 1.2,11.4 1.6,21.5 1.2,30.2 -0.6,13.3 9.3,24.7 22.4,26 0.5,0 1,0.1 1.4,0.1 13.8,0.6 25.5,-10 26.1,-23.8 0.5,-10.8 0.1,-22.8 -1.2,-36 v 0 c 0.1,-1.9 0.5,-5.5 1,-10.8 0.1,-1 0.1,-1.9 0.1,-2.9 -0.1,-10.7 0.3,-25.2 1.3,-43.6 0,-0.8 0,-1.6 0,-2.4 l -2.4,-54.3 c 0,0 0,-0.1 0,-0.1 -1.6,-32.2 -3.4,-55.9 -5.3,-71.2 v 0 l -2.6,-69.7 c 0,-0.5 -0.1,-1.1 -0.1,-1.6 l -10.2,-99.5 -8.4,-111 -0.2,-34.4 v 0 c 0.2,-7.1 1,-11.9 2.4,-14.3 6.9,-11.9 2.8,-27.2 -9.1,-34.2 -3.2,-1.8 -6.6,-2.9 -10,-3.2 z"
   id="path499"
   inkscape:connector-curvature="0" />
</g><g
       id="g1675"
       transform="matrix(0.02583715,0,0,0.02583715,84.760022,-4.7250662)"><g
         id="g1590">
	<rect
   x="930.20001"
   y="1004.5"
   class="st0"
   width="140.60001"
   height="14.7"
   id="rect1582"
   style="fill:#c4941e" />
	<g
   id="g1588">
		<rect
   x="1026.8"
   y="1004.5"
   class="st1"
   width="143.89999"
   height="143.89999"
   id="rect1584"
   style="fill:#fff800" />
		<polygon
   class="st2"
   points="1170.7,1004.5 1026.8,1004.5 1170.7,1148.5 "
   id="polygon1586"
   style="fill:#ff0000" />
	</g>
</g><g
         id="g1600">
	
		<rect
   x="388.89999"
   y="966.09998"
   transform="rotate(180,459.1552,973.39385)"
   class="st0"
   width="140.60001"
   height="14.7"
   id="rect1592"
   style="fill:#c4941e" />
	<g
   id="g1598">
		
			<rect
   x="288.89999"
   y="966.09998"
   transform="rotate(180,360.8856,1038.0186)"
   class="st1"
   width="143.89999"
   height="143.89999"
   id="rect1594"
   style="fill:#fff800" />
		<polygon
   class="st2"
   points="288.9,966.1 432.8,966.1 288.9,1110 "
   id="polygon1596"
   style="fill:#ff0000" />
	</g>
</g><g
         id="g1638">
	<g
   id="g1604">
		<path
   class="st3"
   d="m 544.5,1677.8 z m 4.4,-373 c -4.5,0 -9.1,1.2 -13.2,3.8 -3.7,2.3 -7,5.3 -10.1,9.2 v 0 c -6,7.6 -11.8,20 -17.3,37.4 -0.4,1.2 -0.7,2.3 -0.9,3.6 -2,12.1 -7.2,34.5 -15.6,67.1 -0.2,0.7 -0.3,1.4 -0.5,2.2 -1.1,6.6 -2.7,15.2 -4.8,25.9 0,0 0,0.1 0,0.1 -4,20.8 -5.5,36.9 -4.3,48.3 v 0 l 4.2,45.8 c 0,0.2 0,0.4 0.1,0.7 0.7,6.2 2.3,12.8 4.6,19.9 v 0 c 4,15.1 16.4,41.6 37.1,79.5 v 0 l -52.1,4.6 c -13.8,1.2 -23.9,13.4 -22.7,27.1 1.2,13 12.1,22.8 24.9,22.8 0.7,0 1.5,0 2.3,-0.1 l 63,-5.6 v 0 l 21.1,3.9 c 1.5,0.3 3.1,0.4 4.6,0.4 5.4,0 10.7,-1.8 15.1,-5.1 5.6,-4.3 9.2,-10.7 9.8,-17.7 0.4,-4.2 -0.1,-8.7 -1.3,-13.4 v 0 c -0.9,-3.4 -2.3,-7.1 -4.1,-11 -0.3,-0.6 -0.6,-1.2 -0.9,-1.8 -28.9,-50.7 -45,-83 -48.5,-96.9 -0.2,-0.7 -0.4,-1.4 -0.6,-2.1 -1.3,-3.9 -2.2,-7.2 -2.5,-10 v 0 l -4.2,-45.9 c 0,-0.1 0,-0.2 0,-0.3 -0.7,-6.5 0.5,-17.7 3.6,-33.5 v 0 c 2.1,-10.7 3.8,-19.5 4.9,-26.4 v 0 c 8.2,-31.9 13.5,-54.8 15.9,-68.5 v 0 c 3.2,-9.8 5.9,-16.3 7.9,-19.4 v 0 c 9.9,-7.8 12.5,-21.9 5.7,-32.8 -4.7,-7.7 -12.8,-11.8 -21.2,-11.8 z"
   id="path1602"
   style="fill:#0e0e0e"
   inkscape:connector-curvature="0" />
	</g>
	<g
   id="g1608">
		<path
   class="st3"
   d="m 264.4,1583.9 c -1.6,4.5 -4.9,8.2 -9.9,11.3 v 0 c 4.4,-2.7 7.9,-6.7 9.9,-11.3 z m 290,-302.7 c -18.6,0 -42.7,4.1 -72.3,12.3 v 0 c -1.8,0.2 -3.6,0.5 -5.5,1 v 0 c -6.8,1.8 -24.7,8.9 -53.6,21.1 v 0 c -22.8,6.8 -56.9,30.3 -102.2,70.5 -0.6,0.5 -1.2,1.1 -1.7,1.7 -42.2,45.4 -66,76.8 -71.5,94.1 v 0 c -0.5,1.7 -1,3.4 -1.3,5.1 v 0 l -26,72 v 0 c -5.7,-7.2 -12.3,-15.2 -19.9,-24 -0.5,-0.6 -1.1,-1.2 -1.7,-1.7 -10.6,-10.1 -20.1,-18 -28.5,-23.8 -4.3,-2.9 -9.2,-4.3 -14,-4.3 -8,0 -15.9,3.8 -20.7,11 -7.8,11.4 -4.8,27 6.6,34.7 5.9,4 13,9.9 21.2,17.7 v 0 c 19.2,22.3 30.4,37.2 33.7,44.6 0.9,2.1 2.1,4 3.6,5.8 7,8.5 12.8,14.6 17.4,18.2 v 0 c 6.3,4.9 12.7,7.4 19.3,7.4 1.4,0 2.7,-0.1 4.1,-0.3 v 0 c 11.8,-1.8 20.7,-11.8 21.2,-23.7 0.8,-19.9 1.5,-32.6 2.3,-37.9 v 0 c 0,-0.1 0.1,-0.2 0.1,-0.3 l 29.1,-80.6 c 0.6,-1.7 1,-3.4 1.3,-5.2 v 0 c 3.6,-10.4 23.4,-35 59.4,-73.7 v 0 c 40.3,-35.6 67.9,-55.4 82.9,-59.3 1.2,-0.3 2.3,-0.7 3.4,-1.2 24.4,-10.3 39.8,-16.6 46.4,-18.8 v 0 c 1.6,-0.1 3.2,-0.4 4.7,-0.9 26.8,-7.6 47.4,-11.5 61.8,-11.5 1.1,0 2.2,0 3.2,0.1 0.4,0 0.7,0 1.1,0 13.3,0 24.4,-10.5 25,-23.9 0.6,-13.8 -10.1,-25.5 -23.9,-26.1 -1.6,-0.1 -3.2,-0.1 -5,-0.1 z"
   id="path1606"
   style="fill:#0e0e0e"
   inkscape:connector-curvature="0" />
	</g>
	<g
   id="g1612">
		<path
   class="st3"
   d="m 621.1,730.2 h -0.5 c -9,0.7 -16.1,4.2 -21.3,10.6 -5.1,8.9 -5.6,17.5 -1.6,25.8 l 6.1,7.8 c 25,14.4 49.1,31.6 72.3,51.8 13.7,19.1 22.8,34.9 27.3,47.3 l 8.1,39.2 c 0.7,4.2 1.2,8.5 1.4,12.8 0.1,6.2 0.1,12.1 -0.3,17.9 l -0.1,1.6 c -0.6,5.2 -1.2,9.2 -1.9,12 l -2,39.6 c -1.5,15.6 -3.7,31.1 -6.7,46.6 -0.6,7.8 -6.6,30.8 -18.1,68.8 -10.2,30.3 -23.4,60.2 -39.4,89.8 -8.3,12.6 -17.8,23.3 -28.4,32 -10,9.7 -31.9,24.8 -65.7,45.1 -2.4,1.3 -5,4.7 -7.8,10.2 -2.6,9.4 -2.2,16.7 1.3,22 6.3,8.2 13.2,12.4 20.6,12.6 5.6,-0.3 9.8,-1.2 12.7,-2.9 33.5,-20.6 51.3,-32.1 53.3,-34.5 20.9,-17.6 33.1,-28.3 36.6,-32.1 8,-9 15,-18.4 21.2,-28.4 20.6,-40.8 32.1,-65.5 34.3,-73.9 6.4,-16.6 12,-33.2 16.8,-49.9 9.6,-33.5 16,-67.3 19.1,-101.6 l 3.5,-76.1 -7.1,-28.9 -5.5,-32.1 c -0.1,-5.3 0,-8.2 0.3,-8.9 L 738,829.3 c -15.1,-23.3 -31.3,-42.2 -48.6,-56.7 -8.9,-8.1 -27.9,-21.1 -57,-39.1 -3.4,-1.9 -7.2,-3 -11.3,-3.3 z"
   id="path1610"
   style="fill:#0e0e0e"
   inkscape:connector-curvature="0" />
	</g>
	<g
   id="g1616">
		<path
   class="st3"
   d="m 600.2,523.9 v 0 c 21.9,2.1 44.1,10.5 66.5,25.1 v 0 c 21.2,18.9 31.2,43.1 30.1,72.4 v 0 c -5.8,45.2 -25.4,78.2 -58.9,98.9 v 0 c -19.9,10 -39.3,15 -58.1,15 -18.6,0 -36.7,-4.9 -54.2,-14.7 v 0 c -21.7,-19.6 -29.1,-42.1 -22.2,-67.4 0.1,-0.3 0.1,-0.6 0.2,-0.8 7.5,-31.9 36.9,-69.9 88.3,-113.9 4.5,-4 7.3,-9.2 8.3,-14.6 z m -11,-50.6 c -4.9,0 -9.7,0.2 -14.6,0.6 v 0 c -13.8,1.2 -23.9,13.3 -22.7,27.1 0.2,1.7 0.5,3.4 1,5 v 0 c -55.6,48.8 -88.3,93.7 -97.9,134.6 v 0 c -12.3,46 1,85.7 39.6,119.3 1.2,1 2.5,1.9 3.8,2.7 26.4,15.4 53.5,23 81.2,23 26.7,0 54,-7.1 81.9,-21.3 0.6,-0.3 1.1,-0.6 1.6,-0.9 48,-29.2 75.8,-74.9 83.4,-137.1 0.1,-0.6 0.1,-1.3 0.2,-1.9 2.1,-46.4 -14,-84.5 -48.4,-114.4 -0.8,-0.7 -1.7,-1.4 -2.6,-2 -35.1,-23.1 -70.6,-34.7 -106.5,-34.7 z"
   id="path1614"
   style="fill:#0e0e0e"
   inkscape:connector-curvature="0" />
	</g>
	<g
   id="g1620">
		<path
   class="st3"
   d="m 695.3,855.7 h -0.3 -0.9 c 2.3,4.9 4.3,10.1 5.9,15.6 0.7,2.4 1.3,4.8 1.8,7.2 0.2,0.5 0.4,1.1 0.5,1.6 0.2,0.7 0.3,1.5 0.4,2.4 0.1,0.4 0.5,2.3 1.2,5.7 l 3.5,8.3 c 0.5,1.1 1.4,4.3 2.9,9.7 1.6,6.4 2.5,12.9 2.8,19.5 0.3,-0.6 1.2,-3.2 2.6,-7.8 l 1.5,-5.6 1.2,-5.8 0.9,-6.1 0.7,-6.3 0.4,-6.5 0.1,-6.8 -0.2,-3.4 -0.4,-2.2 c -1.4,-5.8 -4.4,-10.5 -9.1,-14.2 -2.8,-2.1 -5.6,-3.5 -8.6,-4.3 -2.8,-0.8 -5,-1.1 -6.9,-1 z"
   id="path1618"
   style="fill:#0e0e0e"
   inkscape:connector-curvature="0" />
	</g>
	<g
   id="g1624">
		<path
   class="st3"
   d="m 732.1,828.8 c -3.7,0 -7.3,1.4 -10.1,4.2 -5.5,5.6 -5.5,14.6 0.1,20.1 2.6,2.6 5.8,8.3 9.6,17.2 v 0 l 35.3,94.2 c 0.2,0.6 0.4,1.1 0.7,1.6 9.5,18.1 22,32.2 37.6,42.2 v 0 c 10.6,7.8 28,12.5 52.1,14.1 0.3,0 0.6,0 0.9,0 0.2,0 0.5,0 0.7,0 12.9,-0.7 26.8,-1 41.9,-1 27.5,0 58.8,1.1 93.8,3.4 0.3,0 0.6,0 0.9,0 7.4,0 13.7,-5.8 14.2,-13.3 0.5,-7.8 -5.4,-14.6 -13.3,-15.1 -35.6,-2.3 -67.5,-3.4 -95.7,-3.4 -15.3,0 -29.4,0.3 -42.5,1 v 0 c -18.4,-1.3 -30.5,-4.2 -36.5,-8.7 -0.3,-0.2 -0.6,-0.5 -1,-0.7 -11.3,-7.2 -20.5,-17.5 -27.7,-30.9 v 0 L 758,859.9 c -0.1,-0.2 -0.2,-0.4 -0.2,-0.6 C 752.5,847 747.3,838.2 742,833 c -2.7,-2.8 -6.3,-4.2 -9.9,-4.2 z"
   id="path1622"
   style="fill:#0e0e0e"
   inkscape:connector-curvature="0" />
	</g>
	<g
   id="g1628">
		<path
   class="st3"
   d="m 708.9,847.5 c -7,0 -13.1,5.2 -14.1,12.4 -6.3,48.5 -18.4,76.5 -36.4,84.2 -0.4,0.2 -0.7,0.3 -1.1,0.5 v 0 c -3.3,1.6 -14.5,4.6 -33.4,8.9 v 0 l -50.8,6.4 H 573 c -16.7,2.2 -43.4,3.4 -80.1,3.4 -10.9,0 -22.7,-0.1 -35.4,-0.3 -0.1,0 -0.2,0 -0.2,0 -7.7,0 -14.1,6.2 -14.2,14 -0.1,7.8 6.1,14.3 14,14.4 12.6,0.2 24.5,0.3 35.4,0.3 38.2,0 66.3,-1.2 84.3,-3.6 v 0 l 51.5,-6.5 c 0.5,-0.1 0.9,-0.1 1.4,-0.2 21.6,-4.9 35.1,-8.7 40.3,-11.3 v 0 c 0,0 0,0 0,0 v 0 c 27.8,-12.1 45.5,-47.5 53.1,-106.5 1,-7.8 -4.5,-14.9 -12.3,-15.9 -0.6,-0.1 -1.3,-0.2 -1.9,-0.2 z"
   id="path1626"
   style="fill:#0e0e0e"
   inkscape:connector-curvature="0" />
	</g>
	<g
   id="g1634">
		<g
   id="g1632">
			<path
   class="st3"
   d="m 918.4,1037.3 c 6.6,1.1 13,1.8 19.6,1.6 7.8,-0.2 15.4,-6.7 15,-15 -0.4,-7.9 -6.6,-15.3 -15,-15 -2.5,0.1 -4.9,0.1 -7.4,0 -1,-0.1 -1.9,-0.2 -2.9,-0.2 -1.6,-0.2 -1.3,-0.1 0.9,0.1 -0.8,-0.1 -1.5,-0.2 -2.3,-0.4 -4.1,-0.7 -7.8,-0.7 -11.6,1.5 -3.1,1.8 -6.1,5.4 -6.9,9 -1.5,7.2 2.3,17.1 10.6,18.4 z"
   id="path1630"
   style="fill:#0e0e0e"
   inkscape:connector-curvature="0" />
		</g>
	</g>
	<path
   class="st3"
   d="m 518.8,1006.5 c 6.6,0.5 13.1,0.7 19.7,-0.1 7.8,-0.9 14.8,-8 13.7,-16.2 -1,-7.9 -7.8,-14.7 -16.2,-13.7 -2.4,0.3 -4.9,0.5 -7.3,0.6 -1,0 -1.9,0 -2.9,0 -1.6,-0.1 -1.3,0 0.9,0.1 -0.8,0 -1.5,-0.1 -2.3,-0.2 -4.1,-0.3 -7.9,0 -11.4,2.5 -3,2.1 -5.6,5.9 -6.1,9.5 -1.1,7.3 3.5,16.9 11.9,17.5 z"
   id="path1636"
   style="fill:#0e0e0e"
   inkscape:connector-curvature="0" />
</g></g><g
       id="g1999"
       transform="matrix(0.02855528,0,0,0.02855528,107.32648,-4.8634224)"><g
         id="g1915">
	<path
   class="st0"
   d="m 718.7,1356.2 c 0.3,-6.2 -0.8,-28.8 -3,-67.7 v 0.1 c -0.3,-6.2 -1.1,-12.3 -2.3,-18.2 0,-0.1 0,-0.1 0,-0.2 -14.5,-68 -25.8,-108.8 -33.9,-122.2 v 0 c -0.1,-0.2 -0.2,-0.3 -0.3,-0.4 -0.5,-0.9 -1,-1.8 -1.5,-2.7 v 0 c -3.5,-5.5 -9.4,-12.1 -17.8,-19.8 16,-7 37.6,-13.6 65,-19.9 12.7,-2.9 20.6,-15.5 17.8,-28.2 -2.9,-12.7 -15.5,-20.6 -28.2,-17.8 -63.3,14.4 -103.9,33.6 -121.7,57.7 -3.2,4.3 -4.8,9.5 -4.6,14.8 0.5,15.2 8.1,23.7 22.7,25.3 2.1,0.2 4.2,0.2 6.3,-0.1 3.4,-0.5 6.3,-0.2 8.7,1 6.4,5.6 10.4,9.6 11.8,11.9 0.5,0.9 1,1.8 1.5,2.7 0,-0.1 -0.1,-0.1 -0.1,-0.2 5.4,9 14.8,44.8 28.1,107.6 0.8,3.7 1.2,7.4 1.4,11.3 v 0.1 c 1.9,33.6 2.9,53.9 3,61.1 -0.1,0.6 -0.2,1.1 -0.2,1.7 -6,59.6 -10.8,94.8 -14.4,105.4 -4.2,12.3 2.5,25.7 14.8,29.9 12.3,4.2 25.7,-2.5 29.9,-14.8 4.7,-14 10.3,-52.6 16.6,-115.7 m -81,-189.7 c 0.1,0.2 0.2,0.4 0.3,0.5 -0.1,-0.1 -0.2,-0.3 -0.3,-0.5 z"
   id="path1909"
   style="fill:#0e0e0e"
   inkscape:connector-curvature="0" />
	<polygon
   class="st0"
   points=""
   id="polygon1911"
   style="fill:#0e0e0e" />
	<polygon
   class="st0"
   points=""
   id="polygon1913"
   style="fill:#0e0e0e" />
</g><g
         id="g1925">
	
		<rect
   x="604.59998"
   y="1019.2"
   transform="rotate(90,674.9327,1026.5324)"
   class="st1"
   width="140.60001"
   height="14.7"
   id="rect1917"
   style="fill:#c4941e" />
	<g
   id="g1923">
		
			<rect
   x="538.40002"
   y="1052.8"
   transform="rotate(90,610.308,1124.802)"
   class="st2"
   width="143.89999"
   height="143.89999"
   id="rect1919"
   style="fill:#fff800" />
		<polygon
   class="st3"
   points="682.3,1196.8 682.3,1052.8 538.4,1196.8 "
   id="polygon1921"
   style="fill:#ff0000" />
	</g>
</g><g
         id="g1935">
	
		<rect
   x="322.29999"
   y="913.40002"
   transform="matrix(-0.6002,0.7999,-0.7999,-0.6002,1364.77,1159.3235)"
   class="st1"
   width="140.60001"
   height="14.7"
   id="rect1927"
   style="fill:#c4941e" />
	<g
   id="g1933">
		
			<rect
   x="313.39999"
   y="966.20001"
   transform="matrix(-0.6002,0.7999,-0.7999,-0.6002,1447.0048,1352.9951)"
   class="st2"
   width="143.89999"
   height="143.89999"
   id="rect1929"
   style="fill:#fff800" />
		<polygon
   class="st3"
   points="284.6,1052.5 371,937.4 399.7,1138.9 "
   id="polygon1931"
   style="fill:#ff0000" />
	</g>
</g><g
         id="g1963">
	<path
   class="st0"
   d="m 669.5,1456.9 c -19.9,-8 -43,-14.3 -69.1,-18.9 -0.6,-0.1 -1.3,-0.2 -1.9,-0.3 l -63.8,-6.2 c -0.5,0 -0.9,-0.1 -1.4,-0.1 -27.3,-1.1 -44.2,-1.3 -50.7,-0.7 v 0 l -3.9,0.7 c -30.5,5.4 -50.8,10.8 -60.7,16.4 v 0 c -0.5,0.3 -0.9,0.5 -1.3,0.8 -17.2,8.7 -34.2,19.3 -50.9,31.7 -3.6,-16.9 -7.8,-42.2 -12.8,-75.9 -2,-13.3 -14.4,-22.5 -27.7,-20.5 -13.3,2 -22.5,14.4 -20.5,27.7 9.3,62.6 17.3,100.5 23.9,113.9 4.4,8.8 10.6,14.3 18.7,16.4 1,0.3 1.9,0.4 2.9,0.6 9.2,1.3 17.1,-0.9 23.6,-6.3 0,0 0.1,-0.1 0.1,-0.1 21.7,-18.5 43.5,-33.3 65.7,-44.4 0.8,-0.4 1.6,-0.9 2.4,-1.4 -0.1,0.1 -0.2,0.1 -0.2,0.1 v 0 c 5.2,-2.9 20.3,-6.6 45.4,-11 0.5,-0.1 1,-0.2 1.5,-0.3 5.5,-0.3 19.5,0 42,0.9 l 62.1,6 c 22.5,4 42,9.4 58.7,16 12.5,5 26.7,-1.1 31.7,-13.6 4.7,-12.3 -1.3,-26.5 -13.8,-31.5 z m -327,42 c 0,0 0,0 0,0 0,0 -0.1,0.1 -0.1,0.1 z m 144.8,-19.6 v 0 c 0,0 0,0 0,0 0,0 0,0 0,0 z"
   id="path1937"
   style="fill:#0e0e0e"
   inkscape:connector-curvature="0" />
	<path
   class="st0"
   d="m 665.4,1456.7 v 0 c 2.4,0.4 5.6,1.1 9.7,2 l -1.9,-0.4 2.5,0.4 -2.9,-0.3 c 5.9,0.2 13.4,0.7 22.4,1.5 13.2,1.2 23,12.9 21.8,26.1 -1.2,13.2 -12.9,23 -26.1,21.8 v 0 c -8.2,-0.7 -14.7,-1.2 -19.7,-1.3 -1,0 -1.9,-0.1 -2.9,-0.3 v 0 l -2.5,-0.4 c -0.6,-0.1 -1.3,-0.2 -1.9,-0.4 v 0 c -3,-0.7 -5.1,-1.2 -6.3,-1.4 -13.1,-2.1 -22,-14.5 -19.9,-27.6 2.3,-13 14.6,-21.9 27.7,-19.7 z"
   id="path1939"
   style="fill:#0e0e0e"
   inkscape:connector-curvature="0" />
	<path
   class="st0"
   d="m 671.2,1470.7 v 0 c 38.7,-62.8 77.8,-146.7 117,-251.6 l -0.3,1 c 5.5,-16.8 12,-47.8 19.4,-93 l -0.2,1.8 c 5.7,-63.8 5.5,-117.1 -0.8,-159.8 l 0.1,0.4 -16.4,-100.1 1.1,4.4 c -9.5,-26.4 -16.1,-42.1 -19.7,-47 v 0 c 0.5,0.7 1.2,1.4 2.3,2.2 -1.7,-1.4 -3.2,-2.9 -4.5,-4.7 v 0 C 712.7,747.7 660.6,702.7 613.2,689.4 600,685.7 592.3,672 596,658.8 c 3.7,-13.2 17.4,-20.9 30.6,-17.2 v 0 C 685,658 745.9,709.1 809.2,794.9 l -4.5,-4.7 c 2.4,1.9 4.6,4.2 6.7,7.1 v 0 c 6.5,8.8 15.4,28.7 26.5,59.8 0.5,1.4 0.9,2.9 1.1,4.4 v 0 l 16.3,100.1 c 0,0.1 0,0.3 0.1,0.4 v 0 c 6.8,46.5 7.2,103.7 1.1,171.4 -0.1,0.6 -0.1,1.2 -0.2,1.8 v 0 c -7.8,47.7 -14.9,81.2 -21.2,100.4 -0.1,0.3 -0.2,0.7 -0.3,1 v 0 c -40.4,107.9 -80.8,194.7 -121.3,260.2 -7.2,11.7 -22.5,15.3 -34.2,8.1 -11.6,-7.2 -15.3,-22.5 -8.1,-34.2 z"
   id="path1941"
   style="fill:#0e0e0e"
   inkscape:connector-curvature="0" />
	<path
   class="st0"
   d="m 458.6,486.1 v 0 c -4.4,3 -12.3,12.2 -23.6,27.7 -0.8,1.1 -1.6,2.1 -2.6,3 v 0 c 1.4,-1.3 2.3,-2.6 2.9,-3.7 v 0 c -1.2,2.3 -2.9,7.8 -5.1,16.5 l 0.3,-1.5 c -4.5,23.5 -3.5,40.7 3,51.6 l -0.4,-0.6 24.3,38 -0.6,-0.9 c 1.1,1.6 2.2,2.9 3,3.8 l -1.5,-1.4 c 16.9,14.9 27.8,23.5 32.7,25.7 v 0 c -0.1,0 -0.2,-0.1 -0.4,-0.1 1.4,0.5 2.8,1.2 4.1,1.9 v 0 c 20.8,12.2 42.1,14.2 63.8,6 l -3.4,1.6 c 12.7,-7.2 20.4,-12 23.1,-14.4 v 0 c -0.6,0.5 -1.2,1.2 -1.8,2.2 0.9,-1.3 1.9,-2.4 3,-3.5 v 0 c 6.3,-6.2 12.6,-17.2 19,-32.9 0.2,-0.4 0.3,-0.7 0.5,-1.1 v 0 c 4.9,-10.6 7.8,-27.8 8.5,-51.5 0.1,-3.7 1.1,-7.3 2.7,-10.6 v 0 c -1.6,3.2 -2.4,6 -2.3,8.6 v 0 c -0.1,-3.8 -2.2,-13.2 -6.3,-28.1 l 0.6,2 C 588,484.8 551.9,466 494,467.6 480.3,468 468.9,457.2 468.5,443.5 468.1,429.8 478.9,418.4 492.6,418 v 0 c 81.8,-2.3 133.9,27.4 156.3,89.2 0.2,0.7 0.4,1.3 0.6,2 v 0 c 5,18.6 7.7,31.7 7.9,39.3 v 0 c 0.2,6.1 -0.8,11.4 -3.2,16 l 2.7,-10.6 c -1,30.5 -5.4,54.1 -13.1,70.8 l 0.5,-1.1 c -8.9,22.1 -19,38.6 -30.1,49.6 l 3,-3.5 c -1.5,2.1 -3.4,4.2 -5.6,6.3 v 0 c -5.5,4.9 -16.2,11.9 -32.1,20.9 -1.1,0.6 -2.2,1.2 -3.4,1.6 v 0 c -36.5,13.7 -71.9,10.6 -106.3,-9.6 l 4.1,1.9 c -1.1,-0.4 -2.1,-0.8 -3.2,-1.3 v 0 c -9.4,-4.2 -24.4,-15.5 -45,-33.7 -0.5,-0.5 -1,-0.9 -1.5,-1.4 v 0 c -2.6,-2.7 -5.3,-6 -7.9,-9.7 -0.2,-0.3 -0.4,-0.6 -0.6,-0.9 v 0 l -24.3,-38 c -0.1,-0.2 -0.3,-0.4 -0.4,-0.6 v 0 c -13,-21.7 -16.1,-50.5 -9.2,-86.5 0.1,-0.5 0.2,-1 0.3,-1.5 v 0 c 3.1,-12.2 6.1,-21 8.8,-26.4 v 0 c 1.9,-3.7 4.1,-6.9 6.6,-9.3 l -2.6,3 c 14.7,-20 26.6,-33.1 35.7,-39.3 11.3,-7.7 26.8,-4.8 34.5,6.6 7.8,11.1 4.8,26.6 -6.5,34.3 z"
   id="path1943"
   style="fill:#0e0e0e"
   inkscape:connector-curvature="0" />
	<path
   class="st0"
   d="m 434.2,443.1 v 0 c 0.2,-0.1 0.5,-0.2 0.7,-0.4 v 0 c 0.7,-0.3 1.3,-0.7 2,-1 0.2,-0.1 0.3,-0.1 0.5,-0.2 v 0 c 1.6,-0.7 3,-1.3 4.1,-1.9 0.6,-0.3 1.1,-0.5 1.7,-0.7 v 0 c -0.6,0.2 -1.2,0.5 -1.7,0.7 v 0 c 0.4,-0.2 1.6,-0.8 3.5,-1.8 0.1,-0.1 0.3,-0.1 0.4,-0.2 v 0 c 1.3,-0.7 2.3,-1.1 3,-1.5 l -0.1,0.1 c 2.4,-1.2 4.3,-2 5.7,-2.6 v 0 c 0.3,-0.1 0.5,-0.2 0.8,-0.3 l -0.2,0.1 v 0 l -0.5,0.2 c 2.8,-1.2 5.5,-2.2 8.1,-3 h -0.1 c 3.8,-1.2 7.1,-2.2 10,-3 13.2,-3.6 26.9,4.3 30.4,17.5 3.6,13.2 -4.3,26.9 -17.5,30.4 v 0 c -2,0.5 -4.5,1.3 -7.4,2.2 h -0.1 c -1.3,0.4 -2.8,1 -4.3,1.6 l -0.5,0.2 v 0 c 0.3,-0.1 0.1,0 -0.2,0.1 v 0 c 0,0 0.1,0 0.1,0 v 0 c -0.5,0.2 -1.5,0.7 -3.1,1.4 0,0 -0.1,0 -0.1,0.1 v 0 c -0.3,0.1 -0.9,0.4 -1.8,0.9 l 0.4,-0.2 c -2.2,1.2 -3.8,2 -4.5,2.3 v 0 c -0.8,0.4 -1.6,0.8 -2.3,1 l 1.7,-0.7 c -1.7,0.8 -3.6,1.7 -5.8,2.6 l 0.5,-0.2 c -0.1,0 -0.1,0.1 -0.1,0.1 v 0 c 0,0 0,0 0,0 -12.1,6.5 -27.1,1.9 -33.6,-10.1 -6.3,-12.1 -1.8,-27.2 10.3,-33.7 z"
   id="path1945"
   style="fill:#0e0e0e"
   inkscape:connector-curvature="0" />
	<path
   class="st0"
   d="m 692.7,1021.5 -1,-10.1 c 0,-1.4 0.1,-2.5 0.1,-3.3 0.1,-1.1 0.2,-2.2 0.1,-3.3 0,-0.4 0,-0.8 -0.1,-1.1 0.2,-1.3 0.4,-2.4 0.4,-3.2 v 0 c 0.2,-1.7 0.2,-3.3 0,-4.8 l 0.1,0.3 -0.1,-0.7 c 1,-2.2 1.6,-4.6 1.6,-7.1 0.1,-6.1 2.2,-19.6 6.3,-40.4 0.1,-0.5 0.2,-1 0.2,-1.6 l 12.8,-120.8 c 0.1,-0.7 0.1,-1.3 0.1,-2 l -0.3,-43.8 c 0,-0.7 0,-1.3 -0.1,-2 L 707.2,732 c -1.2,-9.6 -9.9,-16.4 -19.4,-15.2 -9.6,1.2 -16.4,9.9 -15.2,19.4 l 5.4,44.6 0.3,41.8 -12.6,119.1 c -3.1,15.8 -5.2,28 -6.1,36.7 -2.2,3.2 -3.3,7.2 -2.9,11.4 l 0.7,7.9 c -0.1,0.4 -0.2,1 -0.3,1.6 -0.1,0.3 -0.1,0.6 -0.1,0.9 -0.1,0.9 -0.1,1.8 -0.1,2.9 v 0 c 0,0.6 0,1.3 0.1,2.2 -0.2,2 -0.3,4.3 -0.2,6.8 0,0.5 0,1.1 0.1,1.6 l 1.1,10.9 c 0.9,9.6 9.5,16.6 19.1,15.7 9.5,-0.7 16.5,-9.2 15.6,-18.8 z m -35.1,-22.3 v 0.1 c 0.1,1.1 0.3,2.2 0.6,3.2 -0.3,-1.1 -0.5,-2.2 -0.6,-3.3 z"
   id="path1947"
   style="fill:#0e0e0e"
   inkscape:connector-curvature="0" />
	<g
   id="g1953">
		<path
   class="st0"
   d="m 648.5,945.7 c 0,0 0,-0.1 0,0 0.1,-0.1 0.1,-0.1 0.1,-0.1 z"
   id="path1949"
   style="fill:#0e0e0e"
   inkscape:connector-curvature="0" />
		<path
   class="st0"
   d="m 691,963.7 v -0.1 c 0.2,-1.7 0.3,-3.3 0.4,-4.9 v 0 c 0,-4.1 -0.7,-7.8 -2.1,-11.2 -1.6,-4 -3.7,-7.2 -6.2,-9.6 -2.1,-3 -5.2,-5.4 -8.9,-6.6 -5.2,-1.6 -10.5,-0.8 -14.7,2 -5.4,2.1 -9.4,6.6 -10.7,12.2 0,0 0,0 0,0 -2.7,4.9 -3.8,10.1 -3.3,15.7 0,0.2 0,0.5 0.1,0.7 0.8,7 4.5,12.6 11.1,17 0.3,0.2 0.5,0.3 0.8,0.5 6,3.5 12.3,4.3 19,2.5 1.5,-0.4 3,-1 4.3,-1.9 5.7,-3.5 9.2,-9 10.2,-16.3 z m -33.7,-2.1 c -0.1,-0.2 -0.2,-0.4 -0.3,-0.6 0,0 0,-0.1 0,-0.1 0,0 0,0 0,-0.1 0.1,0.3 0.2,0.6 0.3,0.8 0,0 0,0 0,0 z m 8.3,5.5 c 0.4,0 0.8,0 1.3,0 -0.5,0 -0.9,0 -1.3,0 z"
   id="path1951"
   style="fill:#0e0e0e"
   inkscape:connector-curvature="0" />
	</g>
	<g
   id="g1961">
		<path
   class="st0"
   d="m 690.7,717.9 c -2.4,-7.8 -10.6,-12.1 -18.3,-9.8 -38,11.5 -68.6,22.9 -92.1,34 -0.2,0.1 -0.3,0.2 -0.5,0.2 L 541.9,762 c -0.4,0.2 -0.8,0.4 -1.2,0.7 L 487.9,797 c -0.3,0.2 -0.5,0.3 -0.8,0.5 -47,34.8 -80.4,72.1 -100.3,111.8 -3.6,7.2 -0.7,16.1 6.6,19.7 7.2,3.6 16.1,0.7 19.7,-6.6 5,-10 11.1,-19.9 18.1,-29.7 3.7,3.2 8.9,4.6 13.9,3.1 1.6,-0.5 2.6,-0.8 3.2,-1 0.2,0.1 0.3,0.2 0.5,0.3 8,4.6 15.2,3.8 21.7,-2.4 2.8,-2.6 4.8,-6 6.2,-10.1 v 0 c 0.4,-1.1 0.7,-2.3 0.9,-3.5 0.1,-0.4 0.1,-0.8 0.2,-1.2 0.8,-6.8 -0.3,-13.1 -3.3,-18.9 v 0 c -1.6,-3.1 -3.5,-5.8 -5.8,-8.1 10.7,-10 22.6,-19.9 35.7,-29.6 l 51.8,-33.5 37,-19.3 c 22.1,-10.5 51.4,-21.3 87.8,-32.3 7.7,-2.3 12.1,-10.5 9.7,-18.3 z"
   id="path1955"
   style="fill:#0e0e0e"
   inkscape:connector-curvature="0" />
		<path
   class="st0"
   d="m 470.6,892.6 c -0.1,0.1 -0.1,0.1 -0.2,0.2 -0.1,0.1 -0.1,0.1 -0.2,0.2 z"
   id="path1957"
   style="fill:#0e0e0e"
   inkscape:connector-curvature="0" />
		<polygon
   class="st0"
   points=""
   id="polygon1959"
   style="fill:#0e0e0e" />
	</g>
</g></g><g
       id="g2303"
       transform="matrix(0.02701559,0,0,0.02701559,129.19964,-6.5591062)"><g
         id="g2230">
	<rect
   x="887.09998"
   y="892.79999"
   class="st0"
   width="140.60001"
   height="14.7"
   id="rect2222"
   style="fill:#c4941e" />
	<g
   id="g2228">
		<rect
   x="983.70001"
   y="892.79999"
   class="st1"
   width="143.89999"
   height="143.89999"
   id="rect2224"
   style="fill:#fff800" />
		<polygon
   class="st2"
   points="983.7,892.8 1127.6,1036.7 1127.6,892.8 "
   id="polygon2226"
   style="fill:#ff0000" />
	</g>
</g><g
         id="g2240">
	
		<rect
   x="338.70001"
   y="1091.1"
   transform="matrix(-0.7619,0.6477,-0.6477,-0.7619,1432.0505,1670.5294)"
   class="st0"
   width="140.60001"
   height="14.7"
   id="rect2232"
   style="fill:#c4941e" />
	<g
   id="g2238">
		
			<rect
   x="304"
   y="1139.4"
   transform="matrix(-0.7619,0.6477,-0.6477,-0.7619,1446.9913,1890.8083)"
   class="st1"
   width="143.89999"
   height="143.89999"
   id="rect2234"
   style="fill:#fff800" />
		<polygon
   class="st2"
   points="384.2,1109.9 367.7,1312.8 274.5,1203.1 "
   id="polygon2236"
   style="fill:#ff0000" />
	</g>
</g><g
         id="g2270">
	<g
   id="g2244">
		<path
   class="st3"
   d="m 545.1,1280.8 c -0.6,0 -1.3,0 -1.9,0.1 -40,3.1 -89.6,14.9 -148.7,35.2 v 0 c -1.8,0.3 -3.7,0.8 -5.6,1.4 v 0 c -14.5,4.8 -45.6,25.9 -93.2,63.2 -0.8,0.6 -1.5,1.3 -2.2,2 -43.5,43.7 -73.4,90.2 -89.6,139.7 v 0 c -14.7,-16.8 -33.3,-33.7 -55.7,-50.7 -4.3,-3.3 -9.4,-4.9 -14.5,-4.9 -7.3,0 -14.5,3.3 -19.2,9.5 -8,10.6 -5.9,25.7 4.6,33.7 38.9,29.5 63.4,57.1 73.5,82.8 3.7,9.3 12.6,15.3 22.4,15.3 1.1,0 2.1,-0.1 3.2,-0.2 11,-1.5 19.5,-10.2 20.7,-21.3 6.5,-60.2 35.7,-116.5 87.5,-168.9 v 0 c 41.5,-32.4 67.1,-50.5 76.8,-54.2 v 0 c 1.6,-0.2 3.1,-0.6 4.6,-1.1 56.3,-19.5 102.6,-30.6 139.1,-33.5 13.2,-1 23.1,-12.6 22.1,-25.9 -1,-12.6 -11.5,-22.2 -23.9,-22.2 z"
   id="path2242"
   style="fill:#0e0e0e"
   inkscape:connector-curvature="0" />
	</g>
	<path
   class="st3"
   d="m 600.5,1674.3 c -0.7,-9.7 -7.1,-17.8 -15.9,-20.9 v 0 c -7.8,-8.3 -22.5,-32.7 -44,-73.3 v 0 l -10.4,-27.9 -6.9,-34.1 v 0 c -1,-7.2 -1.6,-13.2 -1.9,-18.1 v 0 c -0.5,-16.7 0,-30.8 1.4,-42.3 v 0 l 8.5,-43.7 v 0 c 9.2,-24.3 18.7,-45 28.5,-62.3 v 0 c 10.3,-17.6 16.9,-28.1 19.6,-31.7 v 0 c 8.7,-8.7 9.4,-22.7 1.4,-32.3 -4.8,-5.7 -11.6,-8.7 -18.5,-8.7 -5.4,0 -10.9,1.8 -15.4,5.6 -1.5,1.3 -3,2.8 -4.5,4.6 v 0 c -4.1,5 -12.1,17.7 -24.2,38.2 -0.1,0.1 -0.1,0.2 -0.2,0.3 -11.4,19.9 -22.3,43.7 -32.6,71.4 v 0 c -0.5,1.3 -0.8,2.6 -1.1,3.9 l -9,46.4 c -0.1,0.5 -0.2,0.9 -0.2,1.4 -1.9,14.3 -2.5,31.3 -1.9,51 0,0.2 0,0.4 0,0.6 0.4,6.4 1.1,14.1 2.4,23.1 v 0 c 0.1,0.5 0.2,1 0.3,1.5 l 7.5,36.8 c 0.2,1.2 0.6,2.4 1,3.6 l 11.6,31.1 c 0.4,1 0.8,1.9 1.3,2.9 10.6,20 20,36.9 28.3,50.6 v 0 c -10.7,2.3 -22.2,4 -34.5,5.1 -13.2,1.1 -23,12.8 -21.9,26 1.1,12.5 11.6,22 23.9,22 0.7,0 1.4,0 2.1,-0.1 14.2,-1.2 27.5,-3.2 40.1,-5.9 v 0 l 37.4,1.1 v 0 c 1,0.1 2,0.2 3.1,0.2 1.6,0 3.3,-0.1 4.9,-0.4 12.1,-2.4 20.7,-13.4 19.8,-25.7 z"
   id="path2246"
   style="fill:#0e0e0e"
   inkscape:connector-curvature="0" />
	<g
   id="g2250">
		<path
   class="st3"
   d="m 643.6,755.6 c -0.7,0 -1.5,0 -2.2,0.1 -13.2,1.2 -23,12.9 -21.8,26.1 l 4.8,52.7 v 0 c -0.2,6.8 0.5,20.3 2.2,40.6 v 0 92.9 0 c -0.8,8.2 -1.2,19 -1.3,32.4 v 0 l -7.1,71.4 -5.6,29.5 v 0 c -6.4,33.7 -19.9,71.8 -40.2,114.3 v 0 l -16,27.4 v 0 c -18.8,22.1 -34.4,44.6 -46.8,67.7 -6.3,11.7 -1.9,26.3 9.8,32.6 3.6,1.9 7.5,2.9 11.4,2.9 8.6,0 16.9,-4.6 21.2,-12.7 11,-20.6 25.2,-40.8 42.3,-60.8 1,-1.1 1.8,-2.3 2.6,-3.6 l 17.6,-30.1 c 0.3,-0.5 0.6,-1.1 0.9,-1.7 22.4,-46.6 37.3,-88.9 44.5,-126.9 v 0 l 5.8,-30.6 c 0.1,-0.7 0.2,-1.4 0.3,-2.1 l 7.3,-73.7 c 0.1,-0.8 0.1,-1.5 0.1,-2.3 0,-13.1 0.4,-23.1 1.2,-30.1 0.1,-0.8 0.1,-1.7 0.1,-2.5 V 874 c 0,-0.7 0,-1.4 -0.1,-2 -1.7,-20 -2.4,-31.9 -2.2,-35.7 v 0 0 c 0.1,-1.4 0.1,-2.9 0,-4.3 l -4.9,-54.5 C 666.4,765 655.9,755.6 643.6,755.6 Z"
   id="path2248"
   style="fill:#0e0e0e"
   inkscape:connector-curvature="0" />
	</g>
	<g
   id="g2254">
		<path
   class="st3"
   d="m 615.7,570.5 v 0 c 3.4,3.7 8,6.4 13.3,7.3 27.7,5.1 50.4,16.8 68,35.3 v 0 c 15.4,22.1 21,43.8 16.8,65.2 -0.1,0.7 -0.2,1.4 -0.3,2.1 -1.5,14.5 -17.2,30 -47.1,46.6 v 0 c -20.1,11.1 -41.3,16.7 -63.4,16.7 -6.9,0 -13.8,-0.5 -20.9,-1.6 v 0 C 564.6,737.6 546.8,726 528.7,707.2 v 0 c -14.6,-23.3 -20.3,-41 -16.9,-53.1 0.3,-0.9 0.5,-1.9 0.6,-2.8 3.2,-20.9 11.6,-36.9 25.1,-47.8 0.2,-0.1 0.3,-0.3 0.5,-0.4 24,-20.3 47.1,-30.7 69.2,-31 3.1,0 5.9,-0.6 8.5,-1.6 z M 607,524 c -0.1,0 -0.2,0 -0.4,0 -33.6,0.5 -66.8,14.6 -99.5,42.3 v 0 c -22.7,18.4 -36.7,43.9 -41.9,76.3 v 0 c -6.6,25.9 1.5,56.7 24.3,92.4 v 0 c 0.8,1.3 1.8,2.5 2.8,3.6 25.5,27 52,43.8 79.5,50.4 0.6,0.2 1.2,0.3 1.9,0.4 10.1,1.6 20,2.4 29.8,2.4 30.1,0 58.9,-7.6 86.3,-22.8 v 0 c 43.9,-24.4 67.7,-51.8 71.4,-82.4 v 0 c 6.5,-35 -2.1,-69.2 -26,-102.7 -0.6,-0.8 -1.3,-1.6 -2,-2.4 -25,-26.9 -56.8,-43.9 -95.6,-51 -1.5,-0.3 -2.9,-0.4 -4.4,-0.4 -3,0 -6,0.6 -8.7,1.6 v 0 C 620.3,527 614,524 607,524 Z"
   id="path2252"
   style="fill:#0e0e0e"
   inkscape:connector-curvature="0" />
	</g>
	<g
   id="g2258">
		<path
   class="st3"
   d="m 578.7,1233.3 c -11.8,0 -22,8.7 -23.8,20.6 v 0 c -0.6,2.6 -2.7,8.2 -6.1,16.9 v 0 c -0.7,1.4 -1.3,2.5 -1.7,3.4 v 0 c -4,5.5 -8.4,12.4 -13.2,20.7 -6.7,11.5 -2.8,26.2 8.7,32.9 3.8,2.2 8,3.3 12.1,3.3 8.3,0 16.3,-4.3 20.8,-12 4.3,-7.4 8,-13.2 11.2,-17.5 0.6,-0.8 1.1,-1.6 1.6,-2.4 1.2,-2 2.6,-4.8 4.3,-8.3 0.3,-0.5 0.5,-1.1 0.7,-1.6 4.7,-11.9 7.6,-20.3 8.7,-25.3 v 0 c 0.3,-1.4 0.5,-2.7 0.7,-3.9 1.5,-13.2 -7.9,-25.1 -21.1,-26.7 -1,-0.1 -1.9,-0.1 -2.9,-0.1 z"
   id="path2256"
   style="fill:#0e0e0e"
   inkscape:connector-curvature="0" />
	</g>
	<g
   id="g2262">
		<path
   class="st3"
   d="m 663.2,869.6 c -7.6,0 -14.1,5.6 -15.1,13.3 -1.1,8.3 4.7,15.9 12.9,17.1 v 0 c 3.5,0.8 14.4,4.8 32.7,12.2 0.3,0.1 0.7,0.2 1,0.4 l 18.7,6.1 c 0.5,0.2 1.1,0.3 1.6,0.4 l 18.8,3.9 c 0.6,0.1 1.2,0.2 1.9,0.3 l 26.8,2.1 c 0.2,0 0.3,0 0.5,0 2.4,0.1 4.8,0.2 7.3,0.2 4.5,0 9.1,-0.2 13.9,-0.6 0.2,0 0.5,0 0.7,-0.1 v 0 0 c 26,-3.2 43.4,-5.5 52.2,-7 v 0 c 2.7,-0.4 9,-0.7 18.7,-1 0.3,0 0.5,0 0.8,0 l 7.8,-0.7 c 0.1,0 0.1,0 0.2,0 v 0 c 0.5,0 1.3,-0.1 2.5,-0.1 1.9,0 4.8,0 8.6,0.1 0.1,0 0.3,0 0.4,0 0.2,0 0.4,0 0.6,0 5.2,-0.2 11.1,-0.4 17.8,-0.5 0.1,0 0.2,0 0.3,0 l 37,-1.7 v 0 c 1.9,0 3.7,-0.1 5.4,-0.1 4.1,0 7.9,0.1 11.3,0.4 0.4,0 0.8,0 1.2,0 7.9,0 14.6,-6.1 15.2,-14.1 0.7,-8.4 -5.6,-15.8 -14,-16.5 -4.2,-0.3 -8.8,-0.5 -13.8,-0.5 -2,0 -4.2,0 -6.3,0.1 -0.1,0 -0.2,0 -0.3,0 l -37,1.7 v 0 c -6.5,0.1 -12.4,0.3 -17.6,0.5 v 0 c -3.5,-0.1 -6.4,-0.1 -8.7,-0.1 -2.2,0 -3.8,0 -4.9,0.1 v 0 c -0.3,0 -0.5,0 -0.8,0.1 v 0 l -7.2,0.6 v 0 c -10.7,0.4 -17.9,0.8 -21.5,1.3 -0.2,0 -0.3,0 -0.5,0.1 -8.2,1.4 -25.2,3.6 -50.9,6.8 v 0 c -3.9,0.3 -7.6,0.4 -11.2,0.4 -1.9,0 -3.8,0 -5.6,-0.1 v 0 l -25.6,-2 -17.1,-3.5 v 0 l -17.4,-5.6 v 0 C 684.6,875.6 672,871.1 667,870 v 0 c -0.7,-0.1 -1.3,-0.2 -1.9,-0.3 v 0 c -0.6,-0.1 -1.3,-0.1 -1.9,-0.1 z"
   id="path2260"
   style="fill:#0e0e0e"
   inkscape:connector-curvature="0" />
	</g>
	<g
   id="g2266">
		<path
   class="st3"
   d="m 889,897.8 c -2.5,0 -4.9,0.6 -7.2,1.8 v 0 c -1.4,0.5 -3.3,1.3 -5.7,2.5 v 0 c -2.6,-2.1 -5.9,-3.3 -9.5,-3.3 -0.3,0 -0.6,0 -0.9,0 -8.4,0.5 -14.9,7.7 -14.4,16.2 0.4,6.5 3.4,11.7 9.1,15.5 v 0 c 1.9,1.3 4.1,2.2 6.6,2.9 v 0 c 1.8,0.4 3.7,0.7 5.7,0.7 0.4,0 0.9,0 1.3,0 0,0 0.1,0 0.1,0 2.6,-0.1 5,-0.6 7.4,-1.2 v 0 c 0.7,-0.2 1.4,-0.4 2.1,-0.7 v 0 c 1.2,-0.4 2.5,-0.9 4.1,-1.6 0.2,-0.1 0.4,-0.2 0.6,-0.3 2,-0.9 3.3,-1.6 4,-1.8 v 0 c 0.6,-0.2 1.2,-0.4 1.8,-0.7 0.4,-0.2 0.8,-0.4 1.2,-0.6 v 0 c 0.5,-0.3 1,-0.5 1.5,-0.8 v 0 c 7.2,-4.3 9.6,-13.7 5.3,-21 -2.8,-4.9 -7.9,-7.6 -13.1,-7.6 z"
   id="path2264"
   style="fill:#0e0e0e"
   inkscape:connector-curvature="0" />
	</g>
	<path
   class="st3"
   d="m 639.5,835.8 -1.7,0.2 c -6,1.8 -9.7,4.7 -11.2,8.8 -9.3,45 -20.5,75 -33.5,90.2 -9.2,10.7 -16.7,18.1 -22.5,22.2 l -85.6,57.8 -7.9,8.1 -12,9.6 c 0,0 0,0 0,0 l -5.1,3.4 v 0 0 c -0.1,0 -0.2,0.1 -0.2,0.3 l -4.8,5.8 -0.2,0.3 c -1.1,1.2 -2.3,2.3 -3.7,3.4 -0.2,0.2 -0.5,0.4 -0.7,0.6 -2.4,1.8 -4.5,3.2 -6.4,4.2 l -13,9.2 -1.6,1.3 c -1,0.9 -1.9,2 -2.6,3.1 -0.2,0.3 -0.4,0.7 -0.6,1 l -1.5,1.4 c -0.3,0.3 -0.6,0.6 -0.9,0.9 -5.6,5.8 -10,10.2 -13.3,13.3 -6.2,5.8 -6.5,15.4 -0.7,21.6 3.3,3.5 7.8,5.1 12.2,4.8 3.4,-0.2 6.7,-1.6 9.4,-4.1 3.6,-3.3 8.2,-8 14,-14 v 0 l 4.5,-3.9 c 1.1,-1 2.1,-2.1 2.9,-3.4 l 10,-7 7.3,-6.5 c 3,3.6 7.3,5.6 11,5.3 0.5,0 1.1,-0.1 1.6,-0.3 v 0 l 2.5,-0.4 c 0.6,-0.2 1.3,-0.4 2.1,-0.6 v 0 c 1.1,-0.4 3.1,-1.2 5.9,-2.4 0.4,-0.2 0.8,-0.3 1,-0.5 v 0 l 0.2,-0.1 c 2,-1 3.9,-2.1 5.7,-3.4 0.1,-0.1 0.2,-0.1 0.3,-0.2 2.1,-1.4 3.6,-2.5 4.5,-3.1 0.4,-0.3 0.7,-0.6 1,-0.8 0.2,-0.1 0.3,-0.3 0.5,-0.5 2.1,-1.9 4.3,-3.8 6.7,-5.7 v 0 c 0.2,-0.1 0.4,-0.2 0.6,-0.3 7.6,-3.7 10.8,-12.8 7.2,-20.4 -0.9,-1.9 -2.1,-3.5 -3.6,-4.7 l 65.5,-43.9 c 10.7,-7.1 21.9,-17.6 33.6,-31.4 17,-20.5 30.1,-54.2 39.4,-101.1 0.5,-11.2 -4.9,-17.3 -16.3,-18.1 z"
   id="path2268"
   style="fill:#0e0e0e"
   inkscape:connector-curvature="0" />
</g></g><g
       id="g2577"
       transform="matrix(0.02440179,0,0,0.02440179,151.17437,-0.83191446)"><g
         id="g2513">
	
		<rect
   x="723.70001"
   y="489.60001"
   transform="matrix(0.6462,-0.7631,0.7631,0.6462,-98.3459,781.7718)"
   class="st0"
   width="140.60001"
   height="14.7"
   id="rect2505"
   style="fill:#c4941e" />
	<g
   id="g2511">
		
			<rect
   x="834.90002"
   y="391.79999"
   transform="matrix(0.6462,-0.7631,0.7631,0.6462,-33.0715,856.1153)"
   class="st1"
   width="143.89999"
   height="143.89999"
   id="rect2507"
   style="fill:#fff800" />
		<polygon
   class="st2"
   points="1008.3,455.3 898.4,362.3 805.4,472.1 "
   id="polygon2509"
   style="fill:#ff0000" />
	</g>
</g><g
         id="g2517">
	<path
   class="st3"
   d="m 497.7,553.5 c -2.4,0 -4.9,0.4 -7.3,1.1 -13.1,4 -20.5,17.9 -16.5,31.1 4.7,15.4 12.8,35.4 24.2,60.1 v 0 l 35.8,99.6 v 0 c 3.7,10.4 6,17.7 6.8,22.1 0,0.2 0.1,0.4 0.1,0.6 2.9,14.2 6.4,37.1 10.5,68.7 v 0 l 4.6,44.4 v 0 c 3.1,47.6 4.4,77.5 3.9,89.7 0,0.3 0,0.6 0,0.9 0,40.4 -1,76.5 -3.1,108.1 v 0 c -2.6,23.7 -7.9,53.4 -15.7,89.1 -0.1,0.5 -0.2,1 -0.3,1.5 v 0 c -0.9,3.5 -4.1,13.3 -9.6,29.4 v 0 l -36.4,62.4 c -0.7,1.1 -1.2,2.3 -1.7,3.5 l -10.9,28 c -5,12.8 1.3,27.2 14.1,32.2 3,1.2 6,1.7 9,1.7 10,0 19.4,-6 23.2,-15.9 l 10.2,-26.2 36.7,-62.9 c 0.8,-1.4 1.5,-2.9 2,-4.4 6.9,-19.8 10.9,-32.3 12,-37.4 v 0 c 0.2,-0.7 0.3,-1.4 0.4,-2.1 v 0 c 8.3,-37.5 13.8,-68.9 16.5,-94.3 0,-0.3 0.1,-0.7 0.1,-1 2.2,-32.7 3.3,-69.8 3.3,-111.3 v 0 c 0.5,-14 -0.9,-45.7 -4.1,-95 0,-0.3 0,-0.7 -0.1,-1 l -4.7,-45.3 c 0,-0.2 0,-0.4 -0.1,-0.6 -4.2,-32.5 -7.8,-56.5 -11,-71.9 v 0 c -1.3,-7.1 -4.3,-17.1 -8.9,-30.1 v 0 L 544.5,627.6 c -0.3,-0.7 -0.5,-1.4 -0.8,-2.1 -10.7,-23 -18.1,-41.3 -22.2,-54.7 -3.3,-10.4 -13.1,-17.3 -23.8,-17.3 z"
   id="path2515"
   style="fill:#0e0e0e"
   inkscape:connector-curvature="0" />
</g><g
         id="g2527">
	
		<rect
   x="437.39999"
   y="1029.4"
   transform="rotate(90,507.69436,1036.7451)"
   class="st0"
   width="140.60001"
   height="14.7"
   id="rect2519"
   style="fill:#c4941e" />
	<g
   id="g2525">
		
			<rect
   x="500.39999"
   y="1063.1"
   transform="rotate(90,572.31915,1135.0147)"
   class="st1"
   width="143.89999"
   height="143.89999"
   id="rect2521"
   style="fill:#fff800" />
		<polygon
   class="st2"
   points="644.3,1207 500.4,1207 500.4,1063.1 "
   id="polygon2523"
   style="fill:#ff0000" />
	</g>
</g><g
         id="g2547">
	<g
   id="g2531">
		<path
   class="st3"
   d="m 494.8,1293.8 c -0.9,0.2 -1.8,0.4 -2.8,0.6 -6.3,0.8 -10.6,1.2 -13,1.2 -0.1,0 -0.2,0 -0.3,0 -0.1,0 -0.2,0 -0.3,0 v 0 c -3.9,0.9 -7.7,2.2 -11.5,3.9 -1.9,0.8 -3.8,1.9 -5.4,3.2 v 0 c -5.6,3.3 -25.3,12.7 -59.2,28.1 v 0 c -0.9,0.4 -1.8,0.9 -2.7,1.4 -31.9,19.6 -52,35 -60,46.2 -0.3,0.4 -0.6,0.9 -0.9,1.3 v 0 c -45.4,48.7 -79,90.5 -100.8,125.4 v 0 c -12,18 -28.1,45.3 -48.4,82.1 -0.5,-1.4 -1,-2.9 -1.5,-4.4 -1,-2.9 -2.4,-5.6 -4.4,-8 l -52.8,-64.6 c -4.9,-6 -12.1,-9.2 -19.4,-9.2 -5.6,0 -11.2,1.8 -15.8,5.6 -10.7,8.7 -12.3,24.5 -3.5,35.2 l 49.9,61 v 0 c 5.2,15.4 9.9,27.7 14.2,36.9 v 0 l 1.5,15.5 c 1.1,11 9.2,20 20,22.1 1.6,0.3 3.2,0.5 4.8,0.5 9.1,0 17.7,-5 22.1,-13.3 33.7,-63.6 58.7,-107.6 75,-132 0.2,-0.2 0.3,-0.5 0.5,-0.7 20.3,-32.6 52.5,-72.5 96.7,-119.7 1.3,-1.4 2.4,-2.9 3.4,-4.5 v 0 c 4.2,-5.7 19,-16.3 44.3,-31.9 v 0 c 36.2,-16.5 57.7,-26.8 64.4,-31.1 v 0 c 1.8,-0.6 3.7,-0.9 5.7,-0.9 0.7,0 1.5,0 2.3,0.1 0.9,0.1 1.9,0.2 2.8,0.2 12.6,0 23.4,-9.5 24.8,-22.3 1.5,-13.7 -8.4,-26.1 -22.1,-27.6 -2.7,-0.1 -5.2,-0.2 -7.6,-0.3 z"
   id="path2529"
   style="fill:#0e0e0e"
   inkscape:connector-curvature="0" />
	</g>
	<g
   id="g2535">
		<path
   class="st3"
   d="m 487.7,548.2 c -1.2,0.1 -2.4,0.3 -3.5,0.6 -0.3,0.1 -0.5,0.1 -0.8,0.2 -2.6,0.7 -5.1,1.4 -7.6,2 -52.2,12.5 -90.5,1.9 -114.8,-31.7 v 0 c -18,-37.8 -7.7,-73.2 31,-106.1 v 0 c 25.8,-18.2 48.1,-29.6 66.9,-34.1 24,-5.7 42.3,-0.3 55,16.2 v 0 c 36.5,49.8 30,97.1 -19.4,141.7 -3.4,3.1 -5.7,7 -6.8,11.2 z m -1.8,47.6 c 3.2,-0.8 6.4,-1.6 9.6,-2.5 8.2,-2.3 14.2,-8.7 16.2,-16.4 v 0 c 1.2,-0.1 2.4,-0.3 3.6,-0.6 3.6,-0.9 7.1,-2.6 10,-5.3 69.9,-63.1 78.5,-130.8 25.7,-202.9 -0.1,-0.1 -0.2,-0.2 -0.2,-0.3 -24.3,-32 -56.1,-43.9 -95.6,-35.7 v 0 c -8.3,3.8 -16.9,6.8 -25.8,8.9 -0.9,0.2 -1.7,0.4 -2.6,0.6 -1.3,0.4 -2.6,0.7 -4,1.1 -0.2,0 -0.3,0.1 -0.5,0.1 v 0 c -17.9,7.8 -37.1,18.9 -57.6,33.5 -0.5,0.4 -1,0.7 -1.5,1.1 -58.2,49 -72.4,103.6 -42.5,163.8 0.5,1 1.1,2 1.7,2.9 36.1,51.9 90.6,69.1 163.5,51.7 z"
   id="path2533"
   style="fill:#0e0e0e"
   inkscape:connector-curvature="0" />
	</g>
	<path
   class="st3"
   d="m 881.3,997.1 c -3.7,-2.3 -7.1,-4.4 -10.2,-6.3 -1.1,-1 -3.9,-3 -4.2,-3.1 0,0 -11.7,-7.9 -14.2,-9.3 0,0 -5.4,-3.5 -5.5,-3.6 v 0 c -1.4,-1.2 -2.9,-2.2 -4.4,-2.9 v 0 c -0.4,-0.2 -0.9,-0.4 -1.3,-0.6 v 0 c -2,-1.1 -4.3,-1.8 -6.6,-1.9 -1.7,-0.3 -8.3,-0.1 -8.3,-0.1 l -2,0.4 -2,0.5 -1.9,0.7 -2,0.9 c -5.7,1.3 -13.1,16.3 -13.1,16.3 l -2.4,17 c -0.1,1.7 -0.4,22.4 -0.3,22.9 l -1.5,26.6 -20.5,66.9 c -9.1,16.6 -26.6,38.1 -52.6,64.6 -51.1,40.2 -84,64.2 -98.9,72 -23.7,10.8 -39.6,17.1 -47.5,18.7 -26.4,6.1 -50.7,9.3 -72.9,9.6 -4.5,1.1 -8.8,4.3 -12.9,9.5 -5.5,9.8 -6,18.6 -1.3,26.5 5.5,7.8 11.8,12.1 18.7,12.7 21.2,0.9 47.8,-2.3 79.8,-9.7 9.1,-1.7 28,-9 56.9,-21.9 3.7,-1.5 18.4,-11 44,-28.6 l 72.6,-55.7 c 18.4,-19.6 34.9,-39.6 49.5,-60.1 3.1,-4.5 7.2,-12 12.2,-22.5 l 22,-71.9 1.7,-27 c 2.6,1.6 5.3,3.3 8.2,5.1 v 0 c 2,1.3 9.4,6.6 22,15.9 v 0 l 13.2,10.5 v 0 c 1.3,1.3 3.6,4 6.8,8.1 0.9,1.1 1.8,2.1 2.8,3 l 7.7,7.1 c 5.1,4.7 11.7,6.9 18.2,6.5 6.3,-0.3 12.5,-3 17.2,-8.1 9.3,-10.2 8.7,-26 -1.5,-35.3 l -6.2,-5.7 v 0 c -9.4,-10.5 -15.9,-15.8 -15.9,-15.8 0,0 -12.1,-10.4 -12.4,-10.6 -11.2,-8.2 -18.8,-13.7 -22.7,-16.4"
   id="path2537"
   style="fill:#0e0e0e"
   inkscape:connector-curvature="0" />
	<g
   id="g2541">
		<path
   class="st3"
   d="m 542.1,726.4 h -0.5 c -2,0.1 -3.5,0.4 -4.8,0.9 -2.3,1 -5.6,2.4 -9.8,4.4 2.4,4.1 4.7,9 6.9,14.8 1.3,3.5 2,5.4 2,5.6 0.6,1.9 1.5,4.9 2.6,9.2 1.7,-0.9 5,-2.4 9.9,-4.5 1.3,-0.6 2.5,-1.3 3.6,-2.2 3.3,-2.8 5.2,-6.3 5.7,-10.5 0.2,-1.4 0.1,-2.7 -0.1,-4.1 l -0.4,-2.1 c -0.8,-2.6 -1.9,-4.6 -3.2,-6 -1.4,-1.6 -2.9,-2.8 -4.7,-3.7 -2.3,-1 -3.7,-1.5 -4.2,-1.5 -1,-0.2 -2,-0.3 -3,-0.3 z"
   id="path2539"
   style="fill:#0e0e0e"
   inkscape:connector-curvature="0" />
	</g>
	<path
   class="st3"
   d="m 494,976.8 v 0 c -0.2,4.1 -0.4,7.6 -0.6,10.5 v 0 c -0.4,3.1 -0.7,7 -1,11.7 v 0 l -0.7,6.6 v 0 c 0,0.4 -0.1,0.9 -0.1,1.4 v 0 c 0,1 0,2.6 0,4.9 0,0.1 0,0.2 0,0.3 0,0.5 0,1 0.1,1.5 v 0 c 0.1,0.7 0.1,1.3 0.2,1.9 v 0 l 1.8,13.3 c 0,0.2 0.1,0.5 0.1,0.7 0.3,1.5 0.6,2.8 1,4 0.5,1.5 1,2.9 1.7,4.2 3,5.5 9,8.4 14.8,7.6 1.7,-0.2 3.3,-0.8 4.9,-1.6 6.8,-3.6 9.6,-11.9 6.4,-18.8 v 0 c 0,-0.1 -0.1,-0.2 -0.1,-0.4 v 0 l -1.8,-13.2 v 0 c 0,-1.5 0,-2.5 0,-3.1 v 0 l 0.7,-6.8 c 0,-0.2 0,-0.5 0.1,-0.7 0.2,-4.3 0.5,-7.7 0.9,-10.2 0,-0.3 0.1,-0.6 0.1,-1 0.2,-2.5 0.4,-5.4 0.5,-8.7 1.3,0.2 2.6,0.2 3.9,0 0.8,-0.1 1.6,-0.3 2.4,-0.5 2.4,-0.7 4.6,-2 6.6,-3.7 v 0 c 1.6,-1.2 3,-2.8 4.1,-4.7 v 0 c 0.4,-0.6 0.9,-1.5 1.5,-2.6 v -0.1 c 0.2,-0.5 0.5,-0.9 0.7,-1.4 v 0 c 1.2,-2.2 1.8,-5 1.9,-8.4 0,-0.3 0,-0.6 0,-0.9 v 0 c 0,-0.5 0,-1.1 0,-1.8 v 0 c 0,-1.4 -0.2,-2.9 -0.6,-4.5 v 0 c -0.4,-1.6 -0.7,-2.7 -1,-3.4 -0.7,-2.4 -1.7,-4.4 -2.8,-6 v 0 c -0.1,-0.2 -0.3,-0.4 -0.4,-0.7 -0.1,-0.2 -0.2,-0.3 -0.3,-0.4 v 0 l -0.8,-1.5 c -0.1,-0.2 -0.2,-0.3 -0.2,-0.5 -0.9,-1.6 -2.1,-3.1 -3.6,-4.5 -2.8,-2.7 -6.5,-4 -10.1,-4 v -10.8 l 3.5,-34.2 18.4,-110.8 v 0 c 2.2,-11.4 4.5,-20.6 6.9,-27.8 2.5,-7.7 -1.7,-15.9 -9.3,-18.4 -2.2,-0.7 -4.4,-0.9 -6.5,-0.6 -5.4,0.7 -10.1,4.4 -11.9,9.9 -2.7,8.3 -5.3,18.7 -7.8,31.3 0,0.1 -0.1,0.3 -0.1,0.4 L 499,882.2 c 0,0.3 -0.1,0.6 -0.1,0.9 l -3.7,35.4 c -0.1,0.5 -0.1,1 -0.1,1.5 v 41.9"
   id="path2543"
   style="fill:#0e0e0e"
   inkscape:connector-curvature="0" />
	<path
   class="st3"
   d="m 793.1,494.9 c -2.8,-1.9 -5.9,-2.9 -9.1,-2.9 -5,0 -9.9,2.4 -13,6.7 -42.9,61.3 -78.9,105.4 -108,132.3 -0.1,0.1 -0.2,0.2 -0.4,0.3 -15.7,15.5 -25.2,24.6 -28.6,27.5 v 0 c -0.5,0.3 -0.9,0.6 -1.3,0.9 -51.9,37.5 -86.2,63.1 -103.1,76.7 v 0 c 2,4 3.8,8.5 5.6,13.5 0.6,1.3 1.7,5 3.3,11.1 0.6,2.4 1,4.8 1.4,7.2 l 0.1,0.9 c 0.7,-0.5 1.5,-1.1 2.1,-1.7 8.6,-8.4 44.6,-35.4 107.8,-81.1 v 0 c 0.9,-0.5 1.8,-1.1 2.6,-1.7 v 0 c 3.7,-2.8 14.4,-12.9 32,-30.3 v 0 c 14.4,-13.4 30.4,-30.6 47.8,-51.6 2.8,2.4 6.3,3.6 9.8,3.6 3.9,0 7.8,-1.5 10.8,-4.5 l 5.7,-5.7 c 0.5,-0.5 0.9,-1 1.4,-1.6 l 8.2,-11.1 c 0.2,-0.3 0.4,-0.6 0.6,-0.8 2.5,-3.9 4.8,-9 6.8,-15.2 1.8,-5.6 0.2,-11.5 -3.7,-15.4 8.1,-11 16.5,-22.6 25.1,-34.9 5,-7.3 3.3,-17.2 -3.9,-22.2 z"
   id="path2545"
   style="fill:#0e0e0e"
   inkscape:connector-curvature="0" />
</g></g><g
       id="g2861"
       transform="matrix(0.02437234,0,0,0.02437234,170.48676,-2.7866792)"><path
         class="st0"
         d="m 572.8,1367.3 c -32.3,-67.9 -83,-130 -152.1,-186.5 v 0 c -10.2,-9.7 -31.7,-22.8 -64.5,-39.2 -0.3,-0.2 -0.7,-0.3 -1,-0.5 -30.3,-13.4 -52.2,-22.5 -65.6,-27.3 v 0 l 6.5,-7.8 c 0.7,-0.8 1.4,-1.7 1.9,-2.7 5.2,-8.3 11.9,-18.4 20.1,-30.4 v 0 c 6.4,-1.7 12,-5.9 15.3,-12.2 6.1,-11.8 1.5,-26.4 -10.3,-32.6 -6.3,-3.3 -12.2,-4.7 -17.6,-4.4 -8.7,0.5 -16.2,5.6 -22.6,15.3 v 0 c -10.2,14.7 -18.5,27.1 -24.8,37.2 v 0 l -23.3,27.8 v 0 c -5.3,5.9 -7.7,12.1 -7.1,18.8 v 0 c -0.6,8 3.5,15.1 12.3,21.3 v 0 c 3,2.1 9.1,5.7 18.1,10.7 v 0 0 c 3.6,2 7.5,3 11.5,3 v 0 c 8.6,2.6 30.4,11.7 65.6,27.2 v 0 c 28.9,14.5 46.4,24.8 52.4,30.8 0.6,0.6 1.2,1.2 1.9,1.7 63.9,52.1 110.5,108.9 139.8,170.5 4.4,9.2 13.8,14.3 23.3,13.7 3,-0.2 6,-0.9 8.9,-2.3 11.9,-5.7 17,-20.1 11.3,-32.1 z"
         id="path2774"
         style="fill:#0e0e0e"
         inkscape:connector-curvature="0" /><g
         id="g2784">
	
		<rect
   x="773.20001"
   y="1036.6"
   transform="matrix(0.4104,0.9119,-0.9119,0.4104,1449.2983,-153.7244)"
   class="st1"
   width="140.60001"
   height="14.7"
   id="rect2776"
   style="fill:#c4941e" />
	<g
   id="g2782">
		
			<rect
   x="753"
   y="1088.1"
   transform="matrix(0.4104,0.9119,-0.9119,0.4104,1544.2362,-68.2951)"
   class="st2"
   width="143.89999"
   height="143.89999"
   id="rect2778"
   style="fill:#fff800" />
		<polygon
   class="st3"
   points="788.9,1255.2 920.1,1196.2 861,1064.9 "
   id="polygon2780"
   style="fill:#ff0000" />
	</g>
</g><g
         id="g2794">
	
		<rect
   x="284.5"
   y="996.90002"
   transform="matrix(-0.5381,0.8429,-0.8429,-0.5381,1392.0667,1245.4983)"
   class="st1"
   width="140.60001"
   height="14.7"
   id="rect2786"
   style="fill:#c4941e" />
	<g
   id="g2792">
		
			<rect
   x="284.39999"
   y="1049.8"
   transform="matrix(-0.5381,0.8429,-0.8429,-0.5381,1493.6498,1425.0365)"
   class="st2"
   width="143.89999"
   height="143.89999"
   id="rect2788"
   style="fill:#fff800" />
		<polygon
   class="st3"
   points="378.3,1221.2 257,1143.7 334.4,1022.4 "
   id="polygon2790"
   style="fill:#ff0000" />
	</g>
</g><g
         id="g2826">
	<path
   class="st0"
   d="m 565.4,1375.6 c -4.4,-2.9 -9.5,-4 -14.4,-3.6 -6.9,0.6 -13.4,4.2 -17.4,10.5 -24.2,37.6 -43.7,71.5 -58.5,101.7 -0.1,0.1 -0.1,0.3 -0.2,0.5 -8,17.2 -13.8,37.4 -17.4,60.7 0,0.2 -0.1,0.5 -0.1,0.7 -2.9,23.1 -4.3,37.7 -4.2,43.7 0,1.3 0.1,2.5 0.3,3.7 v 0 c 0,0 0,0.1 0,0.1 0.2,3.4 1.1,12.2 2.8,26.3 v 0 c 0,7.1 0.2,11.9 0.4,14.4 v 0 c 0.1,1 0.2,2 0.4,2.9 v 0 l 5.1,41.6 c 0.1,1.1 0.3,2.1 0.6,3.2 l 5,18.7 c 0.2,0.9 0.5,1.8 0.9,2.7 3.2,7.8 5.6,15.1 7.4,21.9 v 0 l 4.9,22.7 v 0 c 1.8,8.8 7,15.3 15.6,19.5 3.9,1.9 8,2.6 12.1,2.3 7.8,-0.7 15,-5.3 18.7,-12.8 4,-8.2 2.7,-17.7 -2.6,-24.4 v 0 l -3.8,-17.5 c -0.1,-0.3 -0.1,-0.7 -0.2,-1 -2.2,-8.4 -5.2,-17.3 -8.9,-26.5 v 0 l -4.3,-15.9 -5,-40.8 c 0,-0.2 -0.1,-0.5 -0.1,-0.7 v 0 c -0.1,-1.8 -0.2,-5.7 -0.2,-11.7 0,-0.9 -0.1,-1.8 -0.2,-2.7 -1.5,-12.4 -2.4,-20.2 -2.7,-23.3 v 0 c 0.1,-1.5 0,-3 -0.3,-4.4 v 0 c 0.2,-4.8 1.4,-16.6 3.8,-35.6 v 0 c 3,-18.8 7.5,-34.8 13.5,-47.9 v 0 c 14,-28.5 32.7,-60.9 55.9,-97 6.9,-10.9 3.8,-25.1 -6.9,-32 z M 501.7,1627 v 0 c 0.2,0.8 0.4,1.6 0.6,2.3 -0.2,-0.8 -0.4,-1.6 -0.6,-2.3 z m -2.4,-34 v 0"
   id="path2796"
   style="fill:#0e0e0e"
   inkscape:connector-curvature="0" />
	<path
   class="st0"
   d="m 489.5,1722.6 c -0.3,0 -0.6,0 -0.9,0 -1.4,0 -3.9,-0.2 -7.6,-0.4 -0.2,0 -0.4,0 -0.6,0 v 0 c 0,0 0,0 0,0 -1.4,-0.1 -5.6,-0.4 -12.8,-1 v 0 c -0.1,0 -0.1,0 -0.2,0 -0.9,-0.1 -1.9,-0.1 -2.8,-0.2 -1.4,-0.1 -2.8,-0.2 -4.2,-0.3 -0.1,0 -0.2,0 -0.3,0 -2.7,-0.2 -5.4,-0.2 -8.1,-0.2 h -0.1 c -2.9,0.1 -5.8,0.3 -8.6,0.6 -0.4,0 -0.7,0.1 -1.1,0.2 -3.6,0.6 -6.1,1 -7.5,1.1 -0.1,0 -0.1,0 -0.2,0 -0.4,0 -0.9,0.1 -1.3,0.1 v 0 c -5.5,0 -9.5,0.1 -11.9,0.3 v 0 c -0.1,0 -0.2,0 -0.3,0 v 0 c -7.5,0.6 -12,1 -13.3,1.1 v 0 c -12.5,0.4 -22.5,10.7 -22.3,23.3 0.2,12.1 9.6,21.9 21.5,22.6 0.6,0 1.2,0.1 1.8,0 0.3,0 0.7,0 1.1,0 v 0 c 1.8,-0.1 6.8,-0.5 15.1,-1.2 v 0 c 1.2,-0.1 4,-0.1 8.6,-0.1 0.3,0 0.6,0 0.8,0 1.2,0 2.4,-0.1 3.6,-0.2 v 0 c 2.9,-0.2 6.8,-0.7 11.6,-1.6 v 0 c 1,-0.1 2,-0.2 3.1,-0.2 1.4,0 2.8,0 4.3,0.1 0.1,0 0.2,0 0.2,0 0,0 0.1,0 0.1,0 0.1,0 0.1,0 0.2,0 1.3,0.1 2.6,0.2 3.9,0.2 0.8,0.1 1.6,0.1 2.5,0.2 v 0 c 7.3,0.6 11.8,0.9 13.6,1 0.2,0 0.3,0 0.5,0 v 0 c 0.3,0 0.5,0 0.8,0 v 0 c 3.9,0.2 6.8,0.4 8.6,0.4 12.7,0.3 23.2,-9.7 23.6,-22.4 0.3,-12.3 -9.2,-22.6 -21.4,-23.4 z"
   id="path2798"
   style="fill:#0e0e0e"
   inkscape:connector-curvature="0" />
	<path
   class="st0"
   d="m 652.8,1033.7 c 1,-36.1 1.4,-56.6 1.2,-61.4 v 0 c -0.1,-2.6 -0.4,-5 -0.9,-7.2 v 0 L 645.9,903 c 0,-0.3 -0.1,-0.6 -0.1,-0.9 -3.6,-23.2 -6.4,-38.3 -8.4,-45.2 v 0 c -18.3,-69.5 -31.2,-115.7 -38.7,-138.7 -3.3,-10.2 -12.8,-16.6 -23,-16.6 -2.5,0 -5,0.4 -7.5,1.2 -12.7,4.2 -19.6,17.8 -15.4,30.5 7.2,22.1 19.9,67.4 37.9,136.1 0.1,0.3 0.2,0.6 0.3,0.9 1.3,4.3 3.7,17.3 7,38.9 v 0 l 7.8,66.5 c 0,0.3 0.1,0.5 0.1,0.8 v 0 c 0,7 -0.4,25.8 -1.3,56.4 0,0.4 0,0.8 0,1.2 l 0.6,27.5 -2,72.4 -12.2,85.2 v 0 c -5.1,18 -8.6,33.3 -10.5,46.1 v 0 c -2.9,10.9 -4.7,17.4 -5.4,19.7 v 0 c -0.1,0.3 -0.2,0.7 -0.4,1 -14,42 -24.4,68.1 -31.2,78.5 -7.3,11.2 -4.2,26.1 7,33.5 4.1,2.7 8.7,4 13.2,4 7.9,0 15.6,-3.8 20.2,-10.9 9,-13.8 21.2,-43.4 36.4,-88.9 v 0 c 0.2,-0.5 0.4,-1.1 0.6,-1.7 v 0 c 0.9,-2.8 3.1,-10.8 6.7,-24.1 0.2,-0.9 0.4,-1.9 0.6,-2.8 1.6,-11.1 4.8,-25.3 9.8,-42.5 0.3,-1.1 0.5,-2.2 0.7,-3.2 l 12.7,-88.2 c 0.1,-0.9 0.2,-1.8 0.2,-2.8 l 2.1,-74.4 c 0,-0.4 0,-0.8 0,-1.2 z m -77.7,250.6 c 0.4,-1.1 0.9,-2.1 1.6,-3.2 v 0 c -0.6,1 -1.1,2.1 -1.6,3.2 z"
   id="path2800"
   style="fill:#0e0e0e"
   inkscape:connector-curvature="0" />
	<g
   id="g2804">
		<path
   class="st0"
   d="m 591,471.8 c 21.8,9.6 40.3,25.7 55.5,48.1 0.1,0.1 0.1,0.2 0.2,0.3 17,24.3 23.4,51.8 19.2,82.5 v 0 c -4.4,29.5 -18.9,51.8 -43.5,66.8 -0.4,0.3 -0.8,0.5 -1.2,0.8 -10,7 -23.7,11.4 -41.2,13.3 -0.1,0 -0.2,0 -0.3,0 -1.6,0.2 -3.4,0.3 -5.1,0.3 -7.4,0 -16,-1.7 -25.8,-5.2 -0.3,-0.1 -0.6,-0.2 -0.9,-0.3 -17.1,-5.3 -33.2,-22.7 -48.2,-52.1 v 0 c -12.2,-31.1 -16.1,-56.9 -11.6,-77.4 0.1,-0.3 0.1,-0.5 0.2,-0.8 7.6,-42.3 41.9,-67.7 102.7,-76.3 z M 582.8,419 c -7,0 -13.7,3.1 -18.3,8.3 v 0 c -71.5,14.8 -112.8,52 -123.9,111.8 v 0 c -6.5,30.3 -1.6,65.6 14.5,106.1 0.3,0.7 0.6,1.3 0.9,2 21.2,42 46.9,67.7 77,77.3 v 0 c 14.8,5.2 28.7,7.8 41.6,7.8 3.6,0 7.2,-0.2 10.7,-0.6 v 0 c 25.3,-2.7 46.3,-9.8 62.9,-21.2 v 0 c 37.2,-22.9 59.1,-56.5 65.7,-100.9 0,-0.1 0,-0.2 0,-0.3 5.9,-43.1 -3.2,-81.9 -27.3,-116.4 v 0 c -25.1,-37 -57.4,-61.3 -97,-72.8 -2.3,-0.8 -4.5,-1.1 -6.8,-1.1 z"
   id="path2802"
   style="fill:#0e0e0e"
   inkscape:connector-curvature="0" />
	</g>
	<g
   id="g2808">
		<path
   class="st0"
   d="m 576,783.3 c -2.4,0 -4.9,0.5 -7.2,1.7 -70.8,35 -125.8,72.6 -165,113 v 0 c -11.1,9.2 -22.9,25.2 -35.4,48.1 -0.2,0.4 -0.4,0.9 -0.6,1.3 L 348,992.6 c -3.6,8.3 0.2,17.9 8.4,21.5 2.1,0.9 4.4,1.4 6.5,1.4 6.3,0 12.3,-3.7 15,-9.8 l 19.5,-44.5 v 0 c 10.6,-19.3 19.8,-32.1 27.7,-38.3 0.6,-0.4 1.1,-0.9 1.6,-1.4 36.6,-37.9 88.8,-73.6 156.7,-107.1 8.1,-4 11.4,-13.8 7.4,-21.9 -3,-5.8 -8.8,-9.2 -14.8,-9.2 z"
   id="path2806"
   style="fill:#0e0e0e"
   inkscape:connector-curvature="0" />
	</g>
	<g
   id="g2812">
		<path
   class="st0"
   d="m 616.3,776.6 c -4.6,0 -9.2,1.9 -12.4,5.7 -5.9,6.8 -5.1,17.2 1.7,23.1 23.5,20.2 37.8,31.9 42.8,35 v 0 c 0.6,0.4 1.2,0.7 1.8,1 v 0 c 46.1,27.3 74.1,45 84.1,53.2 0.3,0.3 0.6,0.5 1,0.8 12.7,8.9 24.5,19.2 35.3,30.8 v 0 c 17.7,21.3 27.9,35.5 30.5,42.6 v 0 l 21.1,72.9 c 2.1,7.2 8.6,11.8 15.7,11.8 1.5,0 3,-0.2 4.6,-0.7 8.7,-2.5 13.7,-11.6 11.2,-20.3 L 832.2,959 c -0.1,-0.3 -0.2,-0.6 -0.3,-0.8 -3.8,-10.8 -16,-28.7 -36.7,-53.5 -0.2,-0.2 -0.4,-0.4 -0.6,-0.6 -12.3,-13.3 -25.7,-25 -40.2,-35.3 v 0 c -11.6,-9.4 -41,-28.1 -88.3,-56 -0.3,-0.2 -0.6,-0.3 -0.9,-0.5 v 0 c -3.8,-2.5 -16.7,-13.1 -38.5,-31.9 v 0 c -2.9,-2.5 -6.7,-3.8 -10.4,-3.8 z"
   id="path2810"
   style="fill:#0e0e0e"
   inkscape:connector-curvature="0" />
	</g>
	<g
   id="g2816">
		<path
   class="st0"
   d="m 416.1,916.9 c -5.6,0 -11.1,2.9 -14.1,8.1 l -3.5,6.1 v 0 c -1.1,1.7 -3.1,4.6 -5.7,8.9 -4.8,7.7 -2.5,17.8 5.2,22.5 2.7,1.7 5.7,2.5 8.7,2.5 5.4,0 10.8,-2.7 13.9,-7.7 2.8,-4.4 4.5,-7.1 5.1,-7.9 v 0 0 c 0,0 0,0 0,0 0.3,-0.4 0.6,-0.9 0.9,-1.3 l 3.9,-6.6 c 4.6,-7.8 1.9,-17.8 -5.9,-22.4 -2.8,-1.5 -5.7,-2.2 -8.5,-2.2 z"
   id="path2814"
   style="fill:#0e0e0e"
   inkscape:connector-curvature="0" />
	</g>
	<g
   id="g2824">
		<path
   class="st0"
   d="m 824.8,992.4 c -0.1,-1.3 -0.3,-2.6 -0.6,-4.1 0,-0.1 0,-0.1 0,-0.2 -0.6,-2.8 -1.4,-6.6 -2.3,-11.2 v 0 c -0.1,-0.4 -0.2,-1.3 -0.3,-2.7 v 0 c 0,-0.3 -0.1,-0.7 -0.1,-1 l -0.6,-3.2 v 0 c -0.1,-0.5 -0.2,-1.7 -0.4,-3.4 -0.9,-8.4 -8,-14.7 -16.3,-14.7 -0.6,0 -1.1,0 -1.7,0.1 -9,0.9 -15.5,9 -14.6,18 0.2,2.2 0.4,3.7 0.5,4.3 v 0 c 0.1,1 0.3,1.9 0.5,2.8 v 0 l 0.3,1.6 v 0 c 0.2,1.5 0.3,2.6 0.4,3.2 v 0 c 0.1,0.5 0.2,1 0.3,1.5 v 0 c 0.9,4.7 1.7,8.5 2.3,11.4 v 0 c 0.1,0.4 0.1,0.7 0.1,0.9 0.9,8.4 8,14.6 16.2,14.6 0.6,0 1.2,0 1.7,-0.1 9.1,-0.7 15.6,-8.8 14.6,-17.8 z"
   id="path2818"
   style="fill:#0e0e0e"
   inkscape:connector-curvature="0" />
		<path
   class="st0"
   d="m 803,956.3 h 0.1 c 0.1,0 0.1,0 0.2,0 -0.1,0 -0.2,0 -0.3,0 z"
   id="path2820"
   style="fill:#0e0e0e"
   inkscape:connector-curvature="0" />
		<path
   class="st0"
   d="m 803.3,956.2 c 0,0 0,0 0,0 0,0 0,0 0,0 z"
   id="path2822"
   style="fill:#0e0e0e"
   inkscape:connector-curvature="0" />
	</g>
</g></g><g
       id="g3185"
       transform="matrix(0.02691171,0,0,0.02691171,192.57947,-7.3538413)"><path
         class="st0"
         d="m 623.8,772.5 c -0.6,-3.6 -3.2,-6.9 -7.6,-9.9 L 615,762 c -2.3,-1.1 -4.8,-1.5 -7.6,-1.4 -3.2,-3.7 -8,-5.8 -13.2,-5.4 v 0 c -0.8,0.1 -1.7,0.2 -2.7,0.4 v 0 c -3.7,0.7 -11.5,3.2 -23.4,7.3 -0.2,0.1 -0.5,0.2 -0.7,0.3 -5.8,2.3 -11.1,4.7 -16.2,7.1 -0.2,0.1 -0.4,0.2 -0.5,0.3 -3.2,1.7 -6.4,3.5 -9.5,5.3 -4.6,0.9 -9,3.2 -12.6,6.8 -1.2,1.2 -2.5,2.5 -3.7,3.7 -0.2,0.2 -0.4,0.3 -0.7,0.4 -1.8,1.3 -3.2,2.9 -4.3,4.7 -33.1,34.4 -54.9,65.2 -65.2,92.4 -8,16.3 -12.8,26.7 -14.4,31.1 v 0 c -0.7,1.9 -1.2,3.8 -1.5,5.6 l -25,88.7 v 0 c -1.5,5.4 -2.9,11.7 -4.1,18.9 -0.1,0.3 -0.1,0.7 -0.1,1 -9.3,76.2 -14.1,118.2 -14.5,126.1 v 0 c 0,0.7 0,1.4 0,2.1 v -0.2 l 0.3,61 c 0,0.4 0,0.8 0,1.2 3.1,58.7 8,108.9 14.7,150.4 0.1,0.3 0.1,0.6 0.2,1 3.9,19.3 10.6,36.6 20,51.8 7.3,11.7 22.6,15.3 34.3,8 11.7,-7.3 15.3,-22.6 8,-34.3 -6.2,-10 -10.7,-21.7 -13.4,-35 -6.4,-39.6 -11,-87.5 -14,-143.9 l -0.3,-60.1 c 0.3,-6.9 5,-47.3 14.1,-121.3 0.9,-5.1 1.8,-9.4 2.8,-13 v 0 l 25.6,-90.8 c 0.1,-0.4 0.2,-0.9 0.3,-1.3 1.6,-3.9 5.7,-12.5 12.2,-25.9 0.4,-0.8 0.7,-1.5 1,-2.3 6.7,-18.2 21.2,-39.6 43.5,-64.2 h 0.1 c 1.7,-1.8 3.2,-3.1 4.3,-3.8 l 1.9,-2.4 7.3,-7.4 c 4.1,-2.9 7.9,-4.7 11.2,-5.6 6.4,-0.5 10.8,-0.1 13.3,1.3 0.8,0.4 1.3,0.8 1.8,1.2 0.6,0.5 1.2,1.2 1.9,2.1 0.4,0.1 1,0.5 1.7,1.2 0.9,1 1.5,2.5 1.9,4.5 l 8.4,-2.9 c 2.9,-1.5 5.2,-3.1 6.9,-4.6 2.5,-2.7 4.4,-5.5 5.7,-8.4 1.3,-3.7 1.9,-6 1.8,-6.8 0.2,-1.6 0.2,-3.2 0,-4.8 -0.5,-3.5 -1.4,-6.7 -2.8,-9.6 3.4,-0.5 6,-1.4 7.8,-2.8 2.6,-2.1 4.3,-4.1 5.1,-6.1 1.6,-5.1 2,-8.7 1.1,-11.1 z M 438.6,928.1 c 0,0 0,0 0,0 0,0 0,0 0,0 z m 6.4,228.5 v 0 c 0,0 0,0 0,0 0,0 0,0 0,0 z"
         id="path3089"
         style="fill:#0e0e0e"
         inkscape:connector-curvature="0" /><g
         id="g3099">
	
		<rect
   x="115.5"
   y="1109.8"
   transform="matrix(-0.823,0.5681,-0.5681,-0.823,973.3023,1930.8794)"
   class="st1"
   width="140.60001"
   height="14.7"
   id="rect3091"
   style="fill:#c4941e" />
	<g
   id="g3097">
		
			<rect
   x="69.699997"
   y="1154.2"
   transform="matrix(-0.823,0.5681,-0.5681,-0.823,954.7352,2154.6875)"
   class="st2"
   width="143.89999"
   height="143.89999"
   id="rect3093"
   style="fill:#fff800" />
		<polygon
   class="st3"
   points="41.5,1207.8 160,1126 123.3,1326.2 "
   id="polygon3095"
   style="fill:#ff0000" />
	</g>
</g><g
         id="g3109">
	
		<rect
   x="421.29999"
   y="1193.4"
   transform="matrix(-0.1523,0.9883,-0.9883,-0.1523,1753.2234,897.7496)"
   class="st1"
   width="140.60001"
   height="14.7"
   id="rect3101"
   style="fill:#c4941e" />
	<g
   id="g3107">
		
			<rect
   x="340.79999"
   y="1216"
   transform="matrix(-0.1523,0.9883,-0.9883,-0.1523,1748.6293,1076.2443)"
   class="st2"
   width="143.89999"
   height="143.89999"
   id="rect3103"
   style="fill:#fff800" />
		<polygon
   class="st3"
   points="472.9,1370.1 494.9,1227.8 330.7,1348.1 "
   id="polygon3105"
   style="fill:#ff0000" />
	</g>
</g><g
         id="g3147">
	<g
   id="g3119">
		<polygon
   class="st0"
   points=""
   id="polygon3111"
   style="fill:#0e0e0e" />
		<path
   class="st0"
   d="m 448.7,1772 c 0,0 -0.1,0 -0.1,0 0,0 0,0 0,0 z"
   id="path3113"
   style="fill:#0e0e0e"
   inkscape:connector-curvature="0" />
		<path
   class="st0"
   d="m 476.5,1728 c 0.2,0 0.3,0 0.4,0 v 0 c -1.2,0 -5.5,-0.3 -13,-0.7 v 0 c -0.1,0 -0.1,0 -0.2,0 v 0 c -2.3,-0.1 -6.1,-0.1 -11.4,0.1 -0.5,0 -0.9,0 -1.4,0 -0.1,0 -0.1,0 -0.2,0 -1.4,-0.1 -3.8,-0.4 -7.3,-0.9 -0.4,-0.1 -0.7,-0.1 -1.1,-0.1 h -0.1 0.1 c -2.7,-0.3 -5.5,-0.4 -8.4,-0.4 h -0.1 c -2.2,0 -4.5,0.2 -6.8,0.3 1.5,-2.1 3.1,-4.1 4.7,-6.3 0.6,-0.7 1.1,-1.5 1.6,-2.3 l 10,-16.6 c 0.6,-0.9 1,-1.9 1.5,-2.9 l 16.5,-38.9 c 0.3,-0.7 0.7,-1.5 1,-2.3 v 0 c 0.9,-2.4 2.3,-7 4.3,-13.8 5.5,-13.1 8.8,-21.3 9.9,-24.5 0,-0.1 0.1,-0.2 0.1,-0.3 0.4,-1.1 0.9,-2.2 1.2,-3.3 v 0 c 1.7,-5.7 4.4,-20.1 7.9,-43.2 0,-0.2 0.1,-0.5 0.1,-0.7 2.9,-23.4 2.8,-44.5 -0.2,-63.2 0,-0.2 -0.1,-0.3 -0.1,-0.5 -6,-33 -15.5,-71 -28.5,-113.8 -3.7,-12.2 -16.5,-19 -28.7,-15.3 -12.2,3.7 -19,16.5 -15.3,28.7 12.4,41 21.5,77.1 27.2,108.4 2.3,14.3 2.2,31 -0.1,50 -2.9,18.9 -4.9,30.7 -6.1,35.3 -0.6,1.3 -1.1,2.7 -1.4,4 -1,2.8 -4,10.1 -9,21.8 -0.4,0.8 -0.7,1.7 -0.9,2.6 v 0 c -1.7,5.9 -2.8,9.6 -3.4,11.3 -0.1,0.2 -0.2,0.4 -0.3,0.6 l -16,37.8 -8.5,14.1 c -6.1,7.9 -11.4,15.6 -15.8,23.1 -0.2,0.3 -0.3,0.6 -0.5,0.9 l -8.4,15.8 c -7,5 -10.8,13.7 -9.2,22.8 2.3,12.5 14.2,20.8 26.7,18.6 1.9,-0.3 3.7,-0.8 5.4,-1.4 2.5,0.8 5.2,1.2 8,1 1.8,-0.1 4.7,-0.3 8.8,-0.7 v 0 c 0.1,0 0.2,0 0.3,0 1.3,-0.1 5.8,-0.6 13.6,-1.4 2.1,-0.2 4.1,-0.4 6.2,-0.6 0.1,0 0.2,0 0.3,0 1.5,-0.1 3,-0.2 4.4,-0.2 1.1,0 2.2,0 3.2,0.1 4.6,0.7 8.3,1.1 11.1,1.2 1.2,0.1 2.4,0.1 3.6,0.1 0.3,0 0.5,0 0.8,0 4.4,-0.1 7.2,-0.2 8.3,-0.1 0,0 0,0 0,0 v 0 c 0,0 0,0 0,0 v 0 0 c 8,0.5 13,0.7 14.7,0.8 v 0 c 0.4,0 0.8,0 1.1,0 12.4,-0.2 22.2,-10.3 22,-22.7 -0.1,-12.7 -10.2,-22.5 -22.6,-22.3 z"
   id="path3115"
   style="fill:#0e0e0e"
   inkscape:connector-curvature="0" />
		<polygon
   class="st0"
   points="442.1,1726.2 442,1726.2 "
   id="polygon3117"
   style="fill:#0e0e0e" />
	</g>
	<path
   class="st0"
   d="m 782.3,1182.1 0.9,1 -23.6,-28.2 c -6.4,-10.1 -14.7,-22.6 -24.9,-37.5 l 0.3,0.5 c -10.5,-16 -23.9,-19.7 -40.4,-11.2 -11.9,6.1 -16.5,20.7 -10.4,32.6 3.3,6.3 8.9,10.6 15.2,12.3 8.2,12 14.9,22.2 20.1,30.5 0.6,0.9 1.2,1.8 1.9,2.7 l 6.5,7.8 c -13.4,4.8 -35.3,13.9 -65.6,27.2 -0.4,0.2 -0.7,0.3 -1,0.5 -32.8,16.4 -54.4,29.4 -64.6,39.1 -69.2,56.3 -120,118.4 -152.4,186.2 -5.8,12 -0.7,26.5 11.4,32.2 12,5.8 26.5,0.7 32.2,-11.4 29.4,-61.5 76.1,-118.3 140.1,-170.2 0.6,-0.5 1.3,-1.1 1.9,-1.7 6,-6 23.5,-16.3 52.5,-30.7 35.2,-15.5 57.1,-24.5 65.6,-27.1 4,0 8,-1 11.5,-3 9,-5 15,-8.5 18.1,-10.7 v 0 c 8.9,-6.2 13,-13.3 12.4,-21.4 0.5,-7 -2,-13.4 -7.7,-19.5 z m -32.2,53.9 c 0,0 0,0 0,0 v 0 c 0,0 0,0 0,0 z"
   id="path3121"
   style="fill:#0e0e0e"
   inkscape:connector-curvature="0" />
	<g
   id="g3125">
		<path
   class="st0"
   d="m 744.4,657.1 v 0 c -23.6,1.4 -46.4,9.8 -68.3,25.4 -0.1,0.1 -0.2,0.1 -0.3,0.2 -24.2,16.7 -39.7,40 -46.5,70 v 0 c -6.1,28.9 -0.4,54.7 17.3,77.1 0.3,0.4 0.6,0.8 0.9,1.2 6.9,9.9 18.1,18.8 33.7,26.6 0.1,0 0.2,0.1 0.3,0.2 0.6,0.3 1.2,0.6 1.8,0.9 0.9,0.4 1.9,0.8 2.9,1.2 6.9,2.6 15.5,3.9 25.8,4.1 0.3,0 0.6,0 0.9,0 17.7,1 38.7,-9.6 62.8,-31.7 v 0 c 22.2,-24.6 34.7,-47.3 37.7,-67.9 0,-0.3 0.1,-0.5 0.1,-0.8 7.4,-41.9 -15.6,-77.4 -69.1,-106.5 z m 27.5,-45.6 c 5.8,2.6 10.3,7.5 12.5,13.4 v 0 c 61.3,38.5 86.8,87.5 76.3,146.8 v 0 0 c -4.5,30.4 -21.2,61.6 -50.2,93.5 -0.5,0.5 -1,1 -1.5,1.5 -34.2,31.6 -67,46.7 -98.3,45.1 v 0 c -15.6,-0.3 -29.4,-2.7 -41.3,-7.2 -2.1,-0.8 -4.1,-1.6 -6,-2.5 -1.2,-0.6 -2.5,-1.2 -3.7,-1.8 v 0 C 637.1,889 620.1,875.1 608.6,858.8 v 0 c -26.6,-34.2 -35.3,-73 -26,-116.5 0,-0.1 0,-0.2 0.1,-0.3 9.5,-42 31.4,-74.9 65.8,-98.7 v 0 c 36.1,-25.7 74.6,-37.1 115.3,-34 2.3,0.2 4.6,0.7 6.6,1.4 0.4,0.4 0.9,0.6 1.5,0.8 z"
   id="path3123"
   style="fill:#0e0e0e"
   inkscape:connector-curvature="0" />
	</g>
	<g
   id="g3129">
		<path
   class="st0"
   d="m 424.4,1114.3 v 0 c 0,0 0,0.1 0.1,0.1 v 0 c 0,0 0,0 -0.1,0.1 v 0 z"
   id="path3127"
   style="fill:#0e0e0e"
   inkscape:connector-curvature="0" />
	</g>
	<g
   id="g3133">
		<path
   class="st0"
   d="m 512.6,866.3 c 3.4,1.6 6.3,4.3 8,8 14.5,31.8 23.4,57.6 26.9,77.3 v 0 c 3.8,16.8 6,41.9 6.5,75.3 0,0.7 0,1.4 -0.1,2 l -5.5,49.2 c -0.1,0.7 -0.2,1.5 -0.4,2.2 l -9.6,37.8 c -0.1,0.5 -0.3,0.9 -0.4,1.4 -10.1,28.6 -17.5,48.2 -22.2,58.7 -0.1,0.3 -0.2,0.5 -0.4,0.8 l -12.9,25 c -3.5,6.8 -11.2,10.1 -18.4,8.3 -0.9,-0.2 -1.8,-0.6 -2.7,-1 -0.2,-0.1 -0.5,-0.2 -0.7,-0.3 -8,-4.1 -11.1,-13.9 -7,-21.8 l 12.7,-24.6 v 0 c 4.3,-9.7 11.3,-28 20.8,-55.1 v 0 l 9.1,-36.1 5.3,-47.1 v 0 c -0.5,-31 -2.4,-53.6 -5.8,-68 -0.1,-0.3 -0.1,-0.6 -0.2,-0.9 -2.2,-12.6 -7.3,-28.7 -15.2,-48.2 v 0 c -2.2,-7.4 -4.5,-14.5 -6.9,-21 l -3.8,-6.7 v 0 c -0.2,-6.4 3.3,-12.6 9.5,-15.4 3.5,-1.6 7.3,-1.8 10.7,-0.9 0.9,0.4 1.8,0.7 2.7,1.1 z"
   id="path3131"
   style="fill:#0e0e0e"
   inkscape:connector-curvature="0" />
	</g>
	<g
   id="g3139">
		<path
   class="st0"
   d="m 482.7,1127.8 c 0,0 0,0 0,0 0,-0.2 0,-0.4 0.1,-0.5 z"
   id="path3135"
   style="fill:#0e0e0e"
   inkscape:connector-curvature="0" />
		<path
   class="st0"
   d="m 507.2,1097.8 c -8.4,-2.3 -17.1,2.6 -19.4,11 -0.2,0.6 -0.4,1.3 -0.6,2 l -2,5.5 c 0,0.1 0,0.1 -0.1,0.2 -0.2,0.7 -0.5,1.4 -0.7,2.1 0,0.1 -0.1,0.3 -0.1,0.4 -0.8,3.3 -1.4,6.2 -1.7,8.8 -0.4,3.3 -0.6,6.1 -0.5,8.6 v 0 c 0.6,11.2 5.8,17.5 15.6,18.8 v 0 c 0.4,0.1 0.9,0.1 1.3,0.1 8.7,0.6 16.2,-6 16.7,-14.7 0.2,-3.1 -0.5,-6.1 -2,-8.7 0,-0.1 0,-0.2 0,-0.4 0,-0.2 0,-0.4 0.1,-0.5 0.1,-1 0.4,-2.3 0.8,-4 0,-0.1 0.1,-0.2 0.1,-0.4 l 2,-5.5 c 0,-0.1 0,-0.1 0.1,-0.2 0.4,-1.3 0.8,-2.6 1.2,-3.8 2.5,-8.4 -2.4,-17 -10.8,-19.3 z"
   id="path3137"
   style="fill:#0e0e0e"
   inkscape:connector-curvature="0" />
	</g>
	<g
   id="g3145">
		<path
   class="st0"
   d="m 499.1,866.1 c -6.3,-6 -16.3,-5.7 -22.3,0.6 l -75.7,80.2 c -5.4,5.6 -12.6,12.2 -21.6,19.7 -16.6,13.4 -34.5,26.6 -53.6,39.5 h -0.1 c -27.1,18.5 -50.1,33.6 -68.7,45.3 -0.1,-0.1 -0.1,-0.2 -0.2,-0.3 -5,-7.1 -14.8,-8.9 -21.9,-4 v 0 c -1.3,0.9 -2.3,1.7 -3.2,2.4 v 0 c -1.4,1.1 -2.5,2.3 -3.4,3.5 l 0.3,-0.3 -2.7,3.3 -2.2,2.3 v 0 c -0.4,0.4 -0.8,0.9 -1.2,1.5 v 0 c -0.2,0.2 -0.3,0.5 -0.6,0.8 -0.2,0.3 -0.5,0.7 -0.7,1 -0.3,0.5 -0.5,0.8 -0.7,1 0,0 0,0 0.1,-0.1 -3,3.7 -4,8.3 -3.3,12.6 -1.1,1 -2,2.2 -2.7,3.4 -1.6,0.9 -2.8,1.6 -3.5,2 v 0 c -0.1,0 -0.1,0.1 -0.1,0.1 l -28,16.7 H 183 c -0.4,0.2 -0.8,0.5 -1.1,0.7 v 0 c -2.4,1.6 -4.4,3.4 -5.9,5.3 -5.4,6.8 -4.2,16.7 2.6,22.1 6.4,5 15.5,4.3 21,-1.4 l 27.8,-16.6 c 0.3,-0.2 0.5,-0.3 0.8,-0.5 v 0 c -0.1,0 -0.1,0.1 -0.2,0.1 v 0 c 1.7,-1.1 8.9,-5 21.6,-11.8 2.9,-1.5 5.1,-3.8 6.5,-6.5 21.8,-13 51,-31.8 87.4,-56.7 h -0.1 c 19.9,-13.4 38.5,-27.2 55.9,-41.2 0.1,-0.1 0.1,-0.1 0.2,-0.2 10,-8.3 18.1,-15.7 24.3,-22.2 l 0.1,-0.1 75.8,-80.3 c 6,-6 5.7,-16 -0.6,-21.9 z m -299,257.7 c 0.2,-0.3 0.5,-0.5 0.7,-0.8 v 0 c -0.3,0.3 -0.5,0.6 -0.7,0.8 z"
   id="path3141"
   style="fill:#0e0e0e"
   inkscape:connector-curvature="0" />
		<polygon
   class="st0"
   points=""
   id="polygon3143"
   style="fill:#0e0e0e" />
	</g>
</g></g></g><style
     type="text/css"
     id="style142">
	.st0{fill:#0E0E0E;}
</style><style
     type="text/css"
     id="style309">
	.st0{fill:#0E0E0E;}
</style><style
     type="text/css"
     id="style373">
	.st0{fill:#0E0E0E;}
</style><style
     type="text/css"
     id="style439">
	.st0{fill:#0E0E0E;}
</style><style
     type="text/css"
     id="style491">
	.st0{fill:#0E0E0E;}
</style><style
     type="text/css"
     id="style662">
	.st0{fill:#0E0E0E;}
</style><style
     type="text/css"
     id="style768">
	.st0{fill:#0E0E0E;}
</style><style
     type="text/css"
     id="style866">
	.st0{fill:#0E0E0E;}
</style><style
     type="text/css"
     id="style950">
	.st0{fill:#0E0E0E;}
</style><style
     type="text/css"
     id="style1035">
	.st0{fill:#0E0E0E;}
</style><style
     type="text/css"
     id="style1141">
	.st0{fill:#0E0E0E;}
</style><style
     type="text/css"
     id="style606">
	.st0{fill:#C4941E;}
	.st1{fill:#FFF800;}
	.st2{fill:#FF0000;}
	.st3{fill:#0E0E0E;}
</style><style
     type="text/css"
     id="style766">
	.st0{fill:#0E0E0E;}
	.st1{fill:#C4941E;}
	.st2{fill:#FFF800;}
	.st3{fill:#FF0000;}
</style><style
     type="text/css"
     id="style932">
	.st0{fill:#C4941E;}
	.st1{fill:#FFF800;}
	.st2{fill:#FF0000;}
	.st3{fill:#0E0E0E;}
</style><style
     type="text/css"
     id="style1092">
	.st0{fill:#0E0E0E;}
	.st1{fill:#C4941E;}
	.st2{fill:#FFF800;}
	.st3{fill:#FF0000;}
</style></svg>