<?xml version="1.0" encoding="UTF-8" standalone="no"?>
<svg
   width="466.4299mm"
   height="121.30831mm"
   viewBox="0 0 466.4299 121.30831"
   version="1.1"
   id="svg8"
   inkscape:version="1.1 (c4e8f9ed74, 2021-05-24)"
   sodipodi:docname="mosty.svg"
   xmlns:inkscape="http://www.inkscape.org/namespaces/inkscape"
   xmlns:sodipodi="http://sodipodi.sourceforge.net/DTD/sodipodi-0.dtd"
   xmlns="http://www.w3.org/2000/svg"
   xmlns:svg="http://www.w3.org/2000/svg"
   xmlns:rdf="http://www.w3.org/1999/02/22-rdf-syntax-ns#"
   xmlns:cc="http://creativecommons.org/ns#"
   xmlns:dc="http://purl.org/dc/elements/1.1/">
  <defs
     id="defs2">
    <rect
       x="26.786303"
       y="20.529648"
       width="140.97025"
       height="66.085915"
       id="rect1567" />
  </defs>
  <sodipodi:namedview
     id="base"
     pagecolor="#ffffff"
     bordercolor="#666666"
     borderopacity="1.0"
     inkscape:pageopacity="0.0"
     inkscape:pageshadow="2"
     inkscape:zoom="0.43772865"
     inkscape:cx="924.08847"
     inkscape:cy="633.95439"
     inkscape:document-units="mm"
     inkscape:current-layer="layer1"
     inkscape:document-rotation="0"
     showgrid="false"
     inkscape:window-width="1366"
     inkscape:window-height="726"
     inkscape:window-x="0"
     inkscape:window-y="0"
     inkscape:window-maximized="1"
     inkscape:pagecheckerboard="0" />
  <metadata
     id="metadata5">
    <rdf:RDF>
      <cc:Work
         rdf:about="">
        <dc:format>image/svg+xml</dc:format>
        <dc:type
           rdf:resource="http://purl.org/dc/dcmitype/StillImage" />
        <dc:title />
      </cc:Work>
    </rdf:RDF>
  </metadata>
  <g
     inkscape:label="Layer 1"
     inkscape:groupmode="layer"
     id="layer1"
     transform="translate(2310.0578,-1313.1301)">
    <path
       d="m -2295.9947,1327.8612 v -0.6351 h -1.2319 v -5.1435 h -0.5715 c -1.3081,1.7272 -2.5908,3.5814 -3.7973,5.3848 v 0.3938 h 3.3401 v 0.8635 c 0,0.8383 -0.051,0.9017 -1.1938,0.9906 v 0.3937 h 3.3147 v -0.3937 c -1.0414,-0.089 -1.0922,-0.1523 -1.0922,-0.9779 v -0.8762 z m -2.2606,-0.6351 h -2.4892 c 0.8509,-1.3843 1.651,-2.578 2.4638,-3.7083 h 0.025 z"
       style="font-size:14.1111px;line-height:1.25;font-family:'Minion Pro';-inkscape-font-specification:'Minion Pro';letter-spacing:0px;fill:#000000;fill-opacity:1;stroke-width:0.238125"
       id="path2619" />
    <path
       d="m -2236.7552,1323.1642 h 2.9464 l 0.3429,-0.8509 -0.089,-0.1016 h -3.6576 l -0.4953,3.8735 c 0.2794,-0.1016 0.762,-0.2413 1.2954,-0.2413 1.4097,0 2.0955,0.7875 2.0955,1.8923 0,0.9144 -0.5334,1.8543 -1.5875,1.8543 -0.7747,0 -1.3081,-0.4065 -1.5875,-0.6478 -0.127,-0.1016 -0.2286,-0.077 -0.3556,0.013 -0.1524,0.127 -0.2667,0.3049 -0.2794,0.4192 -0.025,0.165 0.025,0.2666 0.2032,0.4445 0.2032,0.1904 0.7493,0.4572 1.3462,0.4572 0.6731,-0.013 1.524,-0.3429 2.2098,-0.9017 0.7874,-0.6224 1.1557,-1.3589 1.1557,-2.121 0,-1.0541 -0.8382,-2.1717 -2.4765,-2.1717 -0.3556,0 -0.9144,0.1906 -1.3843,0.3556 z"
       style="font-size:14.1111px;line-height:1.25;font-family:'Minion Pro';-inkscape-font-specification:'Minion Pro';letter-spacing:0px;fill:#000000;fill-opacity:1;stroke-width:0.238125"
       id="path2621" />
    <path
       d="m -2137.2445,1327.8612 v -0.6351 h -1.232 v -5.1435 h -0.5715 c -1.3081,1.7272 -2.5908,3.5814 -3.7973,5.3848 v 0.3938 h 3.3401 v 0.8635 c 0,0.8383 -0.051,0.9017 -1.1938,0.9906 v 0.3937 h 3.3147 v -0.3937 c -1.0414,-0.089 -1.0922,-0.1523 -1.0922,-0.9779 v -0.8762 z m -2.2607,-0.6351 h -2.4892 c 0.851,-1.3843 1.6511,-2.578 2.4638,-3.7083 h 0.025 z"
       style="font-size:14.1111px;line-height:1.25;font-family:'Minion Pro';-inkscape-font-specification:'Minion Pro';letter-spacing:0px;fill:#000000;fill-opacity:1;stroke-width:0.238125"
       id="path2623" />
    <path
       d="m -2109.7551,1323.1642 h 2.9464 l 0.3429,-0.8509 -0.089,-0.1016 h -3.6576 l -0.4953,3.8735 c 0.2794,-0.1016 0.762,-0.2413 1.2954,-0.2413 1.4097,0 2.0955,0.7875 2.0955,1.8923 0,0.9144 -0.5334,1.8543 -1.5875,1.8543 -0.7747,0 -1.3081,-0.4065 -1.5875,-0.6478 -0.127,-0.1016 -0.2286,-0.077 -0.3556,0.013 -0.1524,0.127 -0.2667,0.3049 -0.2794,0.4192 -0.025,0.165 0.025,0.2666 0.2032,0.4445 0.2032,0.1904 0.7493,0.4572 1.3462,0.4572 0.6731,-0.013 1.524,-0.3429 2.2098,-0.9017 0.7874,-0.6224 1.1557,-1.3589 1.1557,-2.121 0,-1.0541 -0.8382,-2.1717 -2.4765,-2.1717 -0.3556,0 -0.9144,0.1906 -1.3843,0.3556 z"
       style="font-size:14.1111px;line-height:1.25;font-family:'Minion Pro';-inkscape-font-specification:'Minion Pro';letter-spacing:0px;fill:#000000;fill-opacity:1;stroke-width:0.238125"
       id="path2625" />
    <path
       d="m -2044.5303,1325.3147 c 0.3937,-0.2539 0.6603,-0.4698 0.8635,-0.6603 0.254,-0.2541 0.3938,-0.5588 0.3938,-0.9144 0,-0.9652 -0.762,-1.6891 -1.9177,-1.6891 h -0.013 c -0.6731,0 -1.27,0.3175 -1.6256,0.7239 l -0.5715,0.8001 0.3047,0.2794 c 0.3049,-0.4572 0.8383,-1.016 1.5241,-1.016 0.6858,0 1.2064,0.3937 1.2064,1.1557 0,0.9271 -0.889,1.4224 -2.0574,1.7906 l 0.1017,0.4192 c 0.2032,-0.063 0.5207,-0.1397 0.8381,-0.1397 0.724,0 1.6002,0.4572 1.6002,1.6002 0.013,1.2064 -0.6222,1.905 -1.5113,1.905 -0.7492,0 -1.2699,-0.3684 -1.6002,-0.6477 -0.1016,-0.089 -0.2159,-0.076 -0.3302,0 -0.1143,0.089 -0.292,0.2667 -0.3047,0.4318 -0.025,0.1524 0.025,0.2921 0.2031,0.4572 0.1779,0.1778 0.7113,0.4572 1.3082,0.4572 0.9271,0 3.3654,-0.9399 3.3654,-2.9845 0,-0.9399 -0.6476,-1.7273 -1.7779,-1.9304 z"
       style="font-size:14.1111px;line-height:1.25;font-family:'Minion Pro';-inkscape-font-specification:'Minion Pro';letter-spacing:0px;fill:#000000;fill-opacity:1;stroke-width:0.238125"
       id="path2627" />
    <path
       d="m -1982.7551,1323.1642 h 2.9464 l 0.3429,-0.8509 -0.089,-0.1016 h -3.6576 l -0.4953,3.8735 c 0.2794,-0.1016 0.762,-0.2413 1.2954,-0.2413 1.4097,0 2.0955,0.7875 2.0955,1.8923 0,0.9144 -0.5334,1.8543 -1.5875,1.8543 -0.7747,0 -1.3081,-0.4065 -1.5874,-0.6478 -0.1271,-0.1016 -0.2286,-0.077 -0.3557,0.013 -0.1524,0.127 -0.2667,0.3049 -0.2794,0.4192 -0.025,0.165 0.025,0.2666 0.2032,0.4445 0.2033,0.1904 0.7493,0.4572 1.3463,0.4572 0.673,-0.013 1.5239,-0.3429 2.2097,-0.9017 0.7874,-0.6224 1.1557,-1.3589 1.1557,-2.121 0,-1.0541 -0.8382,-2.1717 -2.4765,-2.1717 -0.3556,0 -0.9144,0.1906 -1.3843,0.3556 z"
       style="font-size:14.1111px;line-height:1.25;font-family:'Minion Pro';-inkscape-font-specification:'Minion Pro';letter-spacing:0px;fill:#000000;fill-opacity:1;stroke-width:0.238125"
       id="path2629" />
    <path
       d="m -1854.0295,1325.3147 c 0.3937,-0.2539 0.6604,-0.4698 0.8635,-0.6603 0.2541,-0.2541 0.3938,-0.5588 0.3938,-0.9144 0,-0.9652 -0.762,-1.6891 -1.9177,-1.6891 h -0.013 c -0.6731,0 -1.27,0.3175 -1.6256,0.7239 l -0.5715,0.8001 0.3047,0.2794 c 0.3049,-0.4572 0.8383,-1.016 1.5241,-1.016 0.6858,0 1.2064,0.3937 1.2064,1.1557 0,0.9271 -0.8889,1.4224 -2.0574,1.7906 l 0.1017,0.4192 c 0.2032,-0.063 0.5207,-0.1397 0.8382,-0.1397 0.7239,0 1.6002,0.4572 1.6002,1.6002 0.013,1.2064 -0.6223,1.905 -1.5114,1.905 -0.7492,0 -1.2699,-0.3684 -1.6002,-0.6477 -0.1016,-0.089 -0.2159,-0.076 -0.3302,0 -0.1143,0.089 -0.292,0.2667 -0.3047,0.4318 -0.025,0.1524 0.025,0.2921 0.2032,0.4572 0.1778,0.1778 0.7112,0.4572 1.3081,0.4572 0.9271,0 3.3654,-0.9399 3.3654,-2.9845 0,-0.9399 -0.6476,-1.7273 -1.7779,-1.9304 z"
       style="font-size:14.1111px;line-height:1.25;font-family:'Minion Pro';-inkscape-font-specification:'Minion Pro';letter-spacing:0px;fill:#000000;fill-opacity:1;stroke-width:0.238125"
       id="path2631" />
    <path
       d="m -1931.831,1344.3225 c -0.381,0.8255 -0.5461,0.8763 -1.2319,0.8763 h -2.3114 l 1.7907,-1.8542 c 1.1557,-1.2065 1.6764,-1.9685 1.6764,-3.0989 0,-1.3334 -1.0287,-2.1589 -2.1717,-2.1589 -0.7366,0 -1.3462,0.3301 -1.7399,0.762 l -0.7366,1.0287 0.3175,0.2921 c 0.3429,-0.4954 0.9017,-1.1938 1.7526,-1.1938 0.9144,0 1.4732,0.6096 1.4732,1.651 0,1.1048 -0.8001,2.0955 -1.6002,3.0479 -0.6223,0.7367 -1.3589,1.4479 -2.0574,2.1464 v 0.3302 h 4.8006 c 0.1524,-0.5588 0.2794,-1.1176 0.4445,-1.7145 z"
       style="font-size:14.1111px;line-height:1.25;font-family:'Minion Pro';-inkscape-font-specification:'Minion Pro';letter-spacing:0px;fill:#000000;fill-opacity:1;stroke-width:0.238125"
       id="path2633" />
    <path
       d="m -2169.579,1344.3224 c -0.381,0.8256 -0.5462,0.8763 -1.232,0.8763 h -2.3113 l 1.7908,-1.8541 c 1.1556,-1.2065 1.6762,-1.9686 1.6762,-3.0989 0,-1.3334 -1.0287,-2.1589 -2.1717,-2.1589 -0.7365,0 -1.3461,0.3301 -1.7398,0.762 l -0.7366,1.0287 0.3175,0.2921 c 0.3429,-0.4954 0.9016,-1.1938 1.7526,-1.1938 0.9144,0 1.4732,0.6096 1.4732,1.651 0,1.1048 -0.8001,2.0955 -1.6002,3.0479 -0.6224,0.7367 -1.3589,1.4479 -2.0574,2.1464 v 0.3302 h 4.8006 c 0.1524,-0.5588 0.2794,-1.1176 0.4445,-1.7145 z"
       style="font-size:14.1111px;line-height:1.25;font-family:'Minion Pro';-inkscape-font-specification:'Minion Pro';letter-spacing:0px;fill:#000000;fill-opacity:1;stroke-width:0.238125"
       id="path2635" />
    <path
       d="m -1917.5087,1341.2744 c 0.3937,-0.2539 0.6604,-0.4698 0.8635,-0.6604 0.2541,-0.254 0.3938,-0.5588 0.3938,-0.9144 0,-0.9651 -0.762,-1.689 -1.9177,-1.689 h -0.013 c -0.6731,0 -1.27,0.3174 -1.6256,0.7239 l -0.5715,0.8001 0.3047,0.2793 c 0.3049,-0.4572 0.8383,-1.016 1.5241,-1.016 0.6858,0 1.2064,0.3938 1.2064,1.1558 0,0.9271 -0.889,1.4224 -2.0574,1.7906 l 0.1017,0.4192 c 0.2032,-0.064 0.5207,-0.1397 0.8381,-0.1397 0.724,0 1.6002,0.4572 1.6002,1.6002 0.013,1.2064 -0.6222,1.9049 -1.5113,1.9049 -0.7492,0 -1.2699,-0.3683 -1.6002,-0.6476 -0.1016,-0.089 -0.2159,-0.077 -0.3302,0 -0.1143,0.089 -0.292,0.2667 -0.3047,0.4317 -0.025,0.1525 0.025,0.2922 0.2031,0.4572 0.1779,0.1779 0.7113,0.4572 1.3082,0.4572 0.9271,0 3.3654,-0.9398 3.3654,-2.9845 0,-0.9398 -0.6476,-1.7272 -1.7779,-1.9304 z"
       style="font-size:14.1111px;line-height:1.25;font-family:'Minion Pro';-inkscape-font-specification:'Minion Pro';letter-spacing:0px;fill:#000000;fill-opacity:1;stroke-width:0.238125"
       id="path2637" />
    <path
       d="m -2300.122,1357.5813 c 0.381,-1.6891 1.5621,-2.4638 2.3622,-2.8321 0.47,-0.2159 0.9652,-0.3683 1.3844,-0.4445 l -0.089,-0.4572 c -0.5081,0.089 -1.143,0.2413 -1.6385,0.4064 -1.3843,0.4953 -3.3401,1.9177 -3.3401,4.699 0,1.9431 1.1303,3.1877 2.6416,3.1877 1.5495,0 2.6545,-1.2827 2.6545,-2.8194 0,-1.3208 -0.9399,-2.3749 -2.3115,-2.3749 -0.254,0 -0.5333,0.089 -0.8128,0.2159 z m 1.1556,0.1143 c 1.1557,0 1.7018,1.0287 1.7018,2.0828 0,0.8382 -0.3302,1.8669 -1.3081,1.8669 -1.0542,0 -1.7017,-1.2192 -1.7017,-2.7559 0,-0.3048 0.013,-0.6096 0.076,-0.8382 0.2921,-0.1651 0.7365,-0.3556 1.2192,-0.3556 z"
       style="font-size:14.1111px;line-height:1.25;font-family:'Minion Pro';-inkscape-font-specification:'Minion Pro';letter-spacing:0px;fill:#000000;fill-opacity:1;stroke-width:0.238125"
       id="path2639" />
    <path
       d="m -2264.8287,1360.1975 c -0.381,0.8255 -0.5462,0.8762 -1.232,0.8762 h -2.3113 l 1.7907,-1.8542 c 1.1557,-1.2064 1.6764,-1.9684 1.6764,-3.0988 0,-1.3334 -1.0287,-2.159 -2.1717,-2.159 -0.7366,0 -1.3462,0.3302 -1.7399,0.7621 l -0.7366,1.0287 0.3175,0.2921 c 0.3429,-0.4954 0.9017,-1.1938 1.7526,-1.1938 0.9144,0 1.4732,0.6095 1.4732,1.651 0,1.1048 -0.8001,2.0955 -1.6002,3.0479 -0.6224,0.7367 -1.3589,1.4479 -2.0574,2.1464 v 0.3302 h 4.8006 c 0.1524,-0.5588 0.2794,-1.1176 0.4445,-1.7145 z"
       style="font-size:14.1111px;line-height:1.25;font-family:'Minion Pro';-inkscape-font-specification:'Minion Pro';letter-spacing:0px;fill:#000000;fill-opacity:1;stroke-width:0.238125"
       id="path2641" />
    <path
       d="m -2203.5327,1353.9279 c -1.9303,0 -2.6289,2.2479 -2.6289,4.1021 0,2.0701 0.6858,4.1148 2.6289,4.1148 1.9177,0 2.6035,-2.2606 2.6035,-4.1148 0,-1.9939 -0.6858,-4.1021 -2.5908,-4.1021 z m 0,0.4699 c 1.1176,0 1.4478,1.8288 1.4478,3.6195 0,1.7781 -0.3048,3.6449 -1.4351,3.6449 -1.1049,0 -1.4858,-1.8795 -1.4858,-3.6449 0,-1.7652 0.3047,-3.6195 1.4604,-3.6195 z"
       style="font-size:14.1111px;line-height:1.25;font-family:'Minion Pro';-inkscape-font-specification:'Minion Pro';letter-spacing:0px;fill:#000000;fill-opacity:1;stroke-width:0.238125"
       id="path2643" />
    <path
       d="m -2138.2669,1361.984 v -0.4065 c -1.1684,-0.077 -1.2446,-0.1777 -1.2446,-1.0921 v -6.566 c -0.7239,0.2795 -1.4732,0.5081 -2.3114,0.6605 v 0.3429 l 0.6604,0.025 c 0.5334,0.025 0.5842,0.089 0.5842,0.7239 v 4.8133 c 0,0.9144 -0.076,1.016 -1.2319,1.0922 v 0.4064 z"
       style="font-size:14.1111px;line-height:1.25;font-family:'Minion Pro';-inkscape-font-specification:'Minion Pro';letter-spacing:0px;fill:#000000;fill-opacity:1;stroke-width:0.238125"
       id="path2645" />
    <path
       d="m -2076.9312,1353.9279 c -1.9303,0 -2.6289,2.2479 -2.6289,4.1021 0,2.0701 0.6858,4.1148 2.6289,4.1148 1.9177,0 2.6035,-2.2606 2.6035,-4.1148 0,-1.9939 -0.6858,-4.1021 -2.5907,-4.1021 z m 0,0.4699 c 1.1176,0 1.4478,1.8288 1.4478,3.6195 0,1.7781 -0.3048,3.6449 -1.435,3.6449 -1.105,0 -1.4859,-1.8795 -1.4859,-3.6449 0,-1.7652 0.3047,-3.6195 1.4604,-3.6195 z"
       style="font-size:14.1111px;line-height:1.25;font-family:'Minion Pro';-inkscape-font-specification:'Minion Pro';letter-spacing:0px;fill:#000000;fill-opacity:1;stroke-width:0.238125"
       id="path2647" />
    <path
       d="m -2013.4307,1353.9279 c -1.9304,0 -2.6289,2.2479 -2.6289,4.1021 0,2.0701 0.6858,4.1148 2.6289,4.1148 1.9176,0 2.6034,-2.2606 2.6034,-4.1148 0,-1.9939 -0.6858,-4.1021 -2.5907,-4.1021 z m 0,0.4699 c 1.1175,0 1.4477,1.8288 1.4477,3.6195 0,1.7781 -0.3048,3.6449 -1.435,3.6449 -1.105,0 -1.4859,-1.8795 -1.4859,-3.6449 0,-1.7652 0.3047,-3.6195 1.4604,-3.6195 z"
       style="font-size:14.1111px;line-height:1.25;font-family:'Minion Pro';-inkscape-font-specification:'Minion Pro';letter-spacing:0px;fill:#000000;fill-opacity:1;stroke-width:0.238125"
       id="path2649" />
    <path
       d="m -1947.7061,1360.1552 c -0.381,0.8255 -0.5461,0.8762 -1.2319,0.8762 h -2.3113 l 1.7906,-1.8542 c 1.1557,-1.2064 1.6764,-1.9684 1.6764,-3.0988 0,-1.3334 -1.0287,-2.159 -2.1717,-2.159 -0.7366,0 -1.3462,0.3302 -1.7399,0.7621 l -0.7366,1.0287 0.3175,0.2921 c 0.3429,-0.4954 0.9017,-1.1938 1.7526,-1.1938 0.9144,0 1.4732,0.6095 1.4732,1.651 0,1.1048 -0.8001,2.0955 -1.6002,3.0479 -0.6223,0.7367 -1.3589,1.4479 -2.0574,2.1464 v 0.3302 h 4.8006 c 0.1524,-0.5588 0.2794,-1.1176 0.4445,-1.7145 z"
       style="font-size:14.1111px;line-height:1.25;font-family:'Minion Pro';-inkscape-font-specification:'Minion Pro';letter-spacing:0px;fill:#000000;fill-opacity:1;stroke-width:0.238125"
       id="path2651" />
    <path
       d="m -1886.4091,1353.9279 c -1.9304,0 -2.6289,2.2479 -2.6289,4.1021 0,2.0701 0.6858,4.1148 2.6289,4.1148 1.9176,0 2.6034,-2.2606 2.6034,-4.1148 0,-1.9939 -0.6858,-4.1021 -2.5907,-4.1021 z m 0,0.4699 c 1.1175,0 1.4477,1.8288 1.4477,3.6195 0,1.7781 -0.3047,3.6449 -1.435,3.6449 -1.105,0 -1.4859,-1.8795 -1.4859,-3.6449 0,-1.7652 0.3047,-3.6195 1.4604,-3.6195 z"
       style="font-size:14.1111px;line-height:1.25;font-family:'Minion Pro';-inkscape-font-specification:'Minion Pro';letter-spacing:0px;fill:#000000;fill-opacity:1;stroke-width:0.238125"
       id="path2653" />
    <path
       d="m -2059.2908,1377.859 v -0.4065 c -1.1683,-0.077 -1.2446,-0.1778 -1.2446,-1.0922 v -6.5659 c -0.7238,0.2795 -1.4732,0.5081 -2.3113,0.6605 v 0.3429 l 0.6604,0.025 c 0.5333,0.025 0.5842,0.089 0.5842,0.7238 v 4.8133 c 0,0.9144 -0.077,1.016 -1.232,1.0923 v 0.4064 z"
       style="font-size:14.1111px;line-height:1.25;font-family:'Minion Pro';-inkscape-font-specification:'Minion Pro';letter-spacing:0px;fill:#000000;fill-opacity:1;stroke-width:0.238125"
       id="path2655" />
    <path
       d="m -2044.5303,1373.0668 c 0.3937,-0.254 0.6603,-0.4699 0.8635,-0.6604 0.254,-0.254 0.3938,-0.5588 0.3938,-0.9144 0,-0.9652 -0.762,-1.6891 -1.9177,-1.6891 h -0.013 c -0.6731,0 -1.27,0.3175 -1.6256,0.7239 l -0.5715,0.8001 0.3047,0.2794 c 0.3049,-0.4572 0.8383,-1.016 1.5241,-1.016 0.6858,0 1.2064,0.3937 1.2064,1.1557 0,0.9271 -0.889,1.4224 -2.0574,1.7907 l 0.1017,0.4191 c 0.2032,-0.064 0.5207,-0.1397 0.8381,-0.1397 0.724,0 1.6002,0.4572 1.6002,1.6002 0.013,1.2065 -0.6222,1.905 -1.5113,1.905 -0.7492,0 -1.2699,-0.3683 -1.6002,-0.6477 -0.1016,-0.089 -0.2159,-0.077 -0.3302,0 -0.1143,0.089 -0.292,0.2667 -0.3047,0.4318 -0.025,0.1524 0.025,0.2921 0.2031,0.4572 0.1779,0.1778 0.7113,0.4572 1.3082,0.4572 0.9271,0 3.3654,-0.9398 3.3654,-2.9845 0,-0.9398 -0.6476,-1.7272 -1.7779,-1.9304 z"
       style="font-size:14.1111px;line-height:1.25;font-family:'Minion Pro';-inkscape-font-specification:'Minion Pro';letter-spacing:0px;fill:#000000;fill-opacity:1;stroke-width:0.238125"
       id="path2657" />
    <path
       d="m -2265.2669,1393.6493 v -0.4064 c -1.1683,-0.076 -1.2445,-0.1778 -1.2445,-1.0922 v -6.5659 c -0.7239,0.2794 -1.4732,0.508 -2.3114,0.6604 v 0.3429 l 0.6604,0.025 c 0.5334,0.025 0.5842,0.089 0.5842,0.7239 v 4.8133 c 0,0.9144 -0.077,1.016 -1.232,1.0922 v 0.4064 z"
       style="font-size:14.1111px;line-height:1.25;font-family:'Minion Pro';-inkscape-font-specification:'Minion Pro';letter-spacing:0px;fill:#000000;fill-opacity:1;stroke-width:0.238125"
       id="path2659" />
    <path
       d="m -2236.7552,1386.7066 h 2.9464 l 0.3429,-0.8509 -0.089,-0.1016 h -3.6576 l -0.4953,3.8735 c 0.2794,-0.1016 0.762,-0.2413 1.2954,-0.2413 1.4097,0 2.0955,0.7875 2.0955,1.8923 0,0.9144 -0.5334,1.8543 -1.5875,1.8543 -0.7747,0 -1.3081,-0.4065 -1.5875,-0.6478 -0.127,-0.1016 -0.2286,-0.077 -0.3556,0.013 -0.1524,0.127 -0.2667,0.3049 -0.2794,0.4192 -0.025,0.165 0.025,0.2666 0.2032,0.4445 0.2032,0.1904 0.7493,0.4572 1.3462,0.4572 0.6731,-0.013 1.524,-0.3429 2.2098,-0.9017 0.7874,-0.6224 1.1557,-1.3589 1.1557,-2.121 0,-1.0541 -0.8382,-2.1717 -2.4765,-2.1717 -0.3556,0 -0.9144,0.1906 -1.3843,0.3556 z"
       style="font-size:14.1111px;line-height:1.25;font-family:'Minion Pro';-inkscape-font-specification:'Minion Pro';letter-spacing:0px;fill:#000000;fill-opacity:1;stroke-width:0.238125"
       id="path2661" />
    <path
       d="m -2201.7674,1393.6493 v -0.4064 c -1.1684,-0.076 -1.2446,-0.1778 -1.2446,-1.0922 v -6.5659 c -0.7239,0.2794 -1.4732,0.508 -2.3114,0.6604 v 0.3429 l 0.6604,0.025 c 0.5334,0.025 0.5842,0.089 0.5842,0.7239 v 4.8133 c 0,0.9144 -0.077,1.016 -1.2319,1.0922 v 0.4064 z"
       style="font-size:14.1111px;line-height:1.25;font-family:'Minion Pro';-inkscape-font-specification:'Minion Pro';letter-spacing:0px;fill:#000000;fill-opacity:1;stroke-width:0.238125"
       id="path2663" />
    <path
       d="m -2138.2669,1393.6493 v -0.4064 c -1.1684,-0.076 -1.2446,-0.1778 -1.2446,-1.0922 v -6.5659 c -0.7239,0.2794 -1.4732,0.508 -2.3114,0.6604 v 0.3429 l 0.6604,0.025 c 0.5334,0.025 0.5842,0.089 0.5842,0.7239 v 4.8133 c 0,0.9144 -0.076,1.016 -1.2319,1.0922 v 0.4064 z"
       style="font-size:14.1111px;line-height:1.25;font-family:'Minion Pro';-inkscape-font-specification:'Minion Pro';letter-spacing:0px;fill:#000000;fill-opacity:1;stroke-width:0.238125"
       id="path2665" />
    <path
       d="m -2075.1659,1393.6493 v -0.4064 c -1.1684,-0.076 -1.2446,-0.1778 -1.2446,-1.0922 v -6.5659 c -0.7239,0.2794 -1.4732,0.508 -2.3114,0.6604 v 0.3429 l 0.6604,0.025 c 0.5334,0.025 0.5842,0.089 0.5842,0.7239 v 4.8133 c 0,0.9144 -0.077,1.016 -1.2319,1.0922 v 0.4064 z"
       style="font-size:14.1111px;line-height:1.25;font-family:'Minion Pro';-inkscape-font-specification:'Minion Pro';letter-spacing:0px;fill:#000000;fill-opacity:1;stroke-width:0.238125"
       id="path2667" />
    <path
       d="m -2011.2273,1391.8205 c -0.381,0.8255 -0.5461,0.8763 -1.2319,0.8763 h -2.3114 l 1.7907,-1.8542 c 1.1557,-1.2065 1.6764,-1.9685 1.6764,-3.0988 0,-1.3335 -1.0287,-2.159 -2.1717,-2.159 -0.7366,0 -1.3462,0.3302 -1.7399,0.7621 l -0.7366,1.0286 0.3175,0.2921 c 0.3429,-0.4953 0.9017,-1.1938 1.7526,-1.1938 0.9144,0 1.4732,0.6096 1.4732,1.651 0,1.1049 -0.8001,2.0955 -1.6002,3.048 -0.6223,0.7366 -1.3589,1.4478 -2.0574,2.1463 v 0.3302 h 4.8006 c 0.1524,-0.5588 0.2794,-1.1176 0.4445,-1.7145 z"
       style="font-size:14.1111px;line-height:1.25;font-family:'Minion Pro';-inkscape-font-specification:'Minion Pro';letter-spacing:0px;fill:#000000;fill-opacity:1;stroke-width:0.238125"
       id="path2669" />
    <path
       d="m -1947.7061,1391.8205 c -0.381,0.8255 -0.5461,0.8763 -1.2319,0.8763 h -2.3113 l 1.7906,-1.8542 c 1.1557,-1.2065 1.6764,-1.9685 1.6764,-3.0988 0,-1.3335 -1.0287,-2.159 -2.1717,-2.159 -0.7366,0 -1.3462,0.3302 -1.7399,0.7621 l -0.7366,1.0286 0.3175,0.2921 c 0.3429,-0.4953 0.9017,-1.1938 1.7526,-1.1938 0.9144,0 1.4732,0.6096 1.4732,1.651 0,1.1049 -0.8001,2.0955 -1.6002,3.048 -0.6223,0.7366 -1.3589,1.4478 -2.0574,2.1463 v 0.3302 h 4.8006 c 0.1524,-0.5588 0.2794,-1.1176 0.4445,-1.7145 z"
       style="font-size:14.1111px;line-height:1.25;font-family:'Minion Pro';-inkscape-font-specification:'Minion Pro';letter-spacing:0px;fill:#000000;fill-opacity:1;stroke-width:0.238125"
       id="path2671" />
    <path
       d="m -1884.6439,1393.6493 v -0.4064 c -1.1684,-0.076 -1.2446,-0.1778 -1.2446,-1.0922 v -6.5659 c -0.7239,0.2794 -1.4732,0.508 -2.3113,0.6604 v 0.3429 l 0.6603,0.025 c 0.5334,0.025 0.5842,0.089 0.5842,0.7239 v 4.8133 c 0,0.9144 -0.076,1.016 -1.2319,1.0922 v 0.4064 z"
       style="font-size:14.1111px;line-height:1.25;font-family:'Minion Pro';-inkscape-font-specification:'Minion Pro';letter-spacing:0px;fill:#000000;fill-opacity:1;stroke-width:0.238125"
       id="path2673" />
    <path
       d="m -2106.4563,1407.6955 c -0.381,0.8255 -0.546,0.8763 -1.2319,0.8763 h -2.3114 l 1.7908,-1.8542 c 1.1556,-1.2065 1.6764,-1.9685 1.6764,-3.0989 0,-1.3334 -1.0287,-2.1589 -2.1717,-2.1589 -0.7366,0 -1.3462,0.3301 -1.74,0.762 l -0.7366,1.0287 0.3176,0.2921 c 0.3428,-0.4954 0.9017,-1.1938 1.7525,-1.1938 0.9144,0 1.4732,0.6096 1.4732,1.651 0,1.1048 -0.8001,2.0955 -1.6002,3.0479 -0.6223,0.7367 -1.3589,1.4479 -2.0574,2.1464 v 0.3302 h 4.8006 c 0.1524,-0.5588 0.2794,-1.1176 0.4445,-1.7145 z"
       style="font-size:14.1111px;line-height:1.25;font-family:'Minion Pro';-inkscape-font-specification:'Minion Pro';letter-spacing:0px;fill:#000000;fill-opacity:1;stroke-width:0.238125"
       id="path2675" />
    <path
       d="m -2043.4157,1409.5243 v -0.4064 c -1.1683,-0.076 -1.2446,-0.1778 -1.2446,-1.0922 v -6.5659 c -0.7239,0.2794 -1.4732,0.508 -2.3113,0.6604 v 0.3429 l 0.6603,0.025 c 0.5335,0.025 0.5843,0.089 0.5843,0.7238 v 4.8133 c 0,0.9144 -0.076,1.016 -1.2319,1.0923 v 0.4063 z"
       style="font-size:14.1111px;line-height:1.25;font-family:'Minion Pro';-inkscape-font-specification:'Minion Pro';letter-spacing:0px;fill:#000000;fill-opacity:1;stroke-width:0.238125"
       id="path2677" />
    <path
       d="m -1979.4564,1407.6955 c -0.3809,0.8255 -0.546,0.8763 -1.2319,0.8763 h -2.3113 l 1.7907,-1.8542 c 1.1557,-1.2065 1.6764,-1.9685 1.6764,-3.0989 0,-1.3334 -1.0287,-2.1589 -2.1717,-2.1589 -0.7366,0 -1.3462,0.3301 -1.7399,0.762 l -0.7366,1.0287 0.3175,0.2921 c 0.3429,-0.4954 0.9017,-1.1938 1.7526,-1.1938 0.9144,0 1.4732,0.6096 1.4732,1.651 0,1.1048 -0.8001,2.0955 -1.6002,3.0479 -0.6223,0.7367 -1.3589,1.4479 -2.0574,2.1464 v 0.3302 h 4.8006 c 0.1524,-0.5588 0.2794,-1.1176 0.4445,-1.7145 z"
       style="font-size:14.1111px;line-height:1.25;font-family:'Minion Pro';-inkscape-font-specification:'Minion Pro';letter-spacing:0px;fill:#000000;fill-opacity:1;stroke-width:0.238125"
       id="path2679" />
    <path
       d="m -1931.831,1407.6955 c -0.381,0.8255 -0.5462,0.8763 -1.232,0.8763 h -2.3113 l 1.7907,-1.8542 c 1.1557,-1.2065 1.6763,-1.9685 1.6763,-3.0989 0,-1.3334 -1.0287,-2.1589 -2.1717,-2.1589 -0.7365,0 -1.3461,0.3301 -1.7398,0.762 l -0.7366,1.0287 0.3175,0.2921 c 0.3429,-0.4954 0.9016,-1.1938 1.7526,-1.1938 0.9144,0 1.4732,0.6096 1.4732,1.651 0,1.1048 -0.8001,2.0955 -1.6002,3.0479 -0.6224,0.7367 -1.3589,1.4479 -2.0574,2.1464 v 0.3302 h 4.8006 c 0.1524,-0.5588 0.2794,-1.1176 0.4445,-1.7145 z"
       style="font-size:14.1111px;line-height:1.25;font-family:'Minion Pro';-inkscape-font-specification:'Minion Pro';letter-spacing:0px;fill:#000000;fill-opacity:1;stroke-width:0.238125"
       id="path2681" />
    <path
       d="m -2295.9947,1423.1112 v -0.635 h -1.2319 v -5.1435 h -0.5716 c -1.3081,1.7272 -2.5908,3.5814 -3.7973,5.3848 v 0.3937 h 3.3402 v 0.8636 c 0,0.8382 -0.051,0.9017 -1.1939,0.9905 v 0.3938 h 3.3147 v -0.3938 c -1.0413,-0.089 -1.0921,-0.1523 -1.0921,-0.9778 v -0.8763 z m -2.2606,-0.635 h -2.4893 c 0.851,-1.3843 1.6511,-2.5781 2.4639,-3.7084 h 0.025 z"
       style="font-size:14.1111px;line-height:1.25;font-family:'Minion Pro';-inkscape-font-specification:'Minion Pro';letter-spacing:0px;fill:#000000;fill-opacity:1;stroke-width:0.238125"
       id="path2683" />
    <path
       d="m -2236.9996,1420.9543 c 0.381,-1.6891 1.5623,-2.4638 2.3623,-2.8321 0.4699,-0.2159 0.9651,-0.3683 1.3843,-0.4445 l -0.089,-0.4572 c -0.5081,0.089 -1.143,0.2413 -1.6383,0.4064 -1.3844,0.4953 -3.3402,1.9177 -3.3402,4.699 0,1.9431 1.1304,3.1877 2.6417,3.1877 1.5494,0 2.6544,-1.2827 2.6544,-2.8194 0,-1.3208 -0.9399,-2.3749 -2.3115,-2.3749 -0.254,0 -0.5333,0.089 -0.8128,0.2159 z m 1.1557,0.1143 c 1.1557,0 1.7018,1.0287 1.7018,2.0828 0,0.8382 -0.3302,1.8669 -1.3081,1.8669 -1.0541,0 -1.7017,-1.2192 -1.7017,-2.7559 0,-0.3048 0.013,-0.6096 0.076,-0.8382 0.2921,-0.1651 0.7366,-0.3556 1.2192,-0.3556 z"
       style="font-size:14.1111px;line-height:1.25;font-family:'Minion Pro';-inkscape-font-specification:'Minion Pro';letter-spacing:0px;fill:#000000;fill-opacity:1;stroke-width:0.238125"
       id="path2685" />
    <path
       d="m -2204.628,1418.4143 h 2.9464 l 0.3429,-0.8509 -0.089,-0.1016 h -3.6576 l -0.4953,3.8735 c 0.2794,-0.1016 0.762,-0.2413 1.2954,-0.2413 1.4097,0 2.0955,0.7874 2.0955,1.8923 0,0.9144 -0.5334,1.8542 -1.5875,1.8542 -0.7747,0 -1.3081,-0.4064 -1.5875,-0.6477 -0.1269,-0.1016 -0.2285,-0.077 -0.3556,0.013 -0.1524,0.127 -0.2667,0.3048 -0.2794,0.4191 -0.025,0.1651 0.025,0.2667 0.2033,0.4445 0.2032,0.1905 0.7493,0.4572 1.3462,0.4572 0.673,-0.013 1.524,-0.3429 2.2097,-0.9017 0.7874,-0.6223 1.1557,-1.3589 1.1557,-2.1209 0,-1.0541 -0.8382,-2.1717 -2.4765,-2.1717 -0.3556,0 -0.9144,0.1905 -1.3843,0.3556 z"
       style="font-size:14.1111px;line-height:1.25;font-family:'Minion Pro';-inkscape-font-specification:'Minion Pro';letter-spacing:0px;fill:#000000;fill-opacity:1;stroke-width:0.238125"
       id="path2687" />
    <path
       d="m -2173.1223,1420.9543 c 0.3809,-1.6891 1.5622,-2.4638 2.3622,-2.8321 0.4699,-0.2159 0.9651,-0.3683 1.3844,-0.4445 l -0.089,-0.4572 c -0.5081,0.089 -1.143,0.2413 -1.6382,0.4064 -1.3844,0.4953 -3.3402,1.9177 -3.3402,4.699 0,1.9431 1.1303,3.1877 2.6416,3.1877 1.5494,0 2.6544,-1.2827 2.6544,-2.8194 0,-1.3208 -0.9399,-2.3749 -2.3115,-2.3749 -0.254,0 -0.5333,0.089 -0.8128,0.2159 z m 1.1556,0.1143 c 1.1557,0 1.7019,1.0287 1.7019,2.0828 0,0.8382 -0.3303,1.8669 -1.3082,1.8669 -1.0541,0 -1.7017,-1.2192 -1.7017,-2.7559 0,-0.3048 0.013,-0.6096 0.077,-0.8382 0.2921,-0.1651 0.7366,-0.3556 1.2192,-0.3556 z"
       style="font-size:14.1111px;line-height:1.25;font-family:'Minion Pro';-inkscape-font-specification:'Minion Pro';letter-spacing:0px;fill:#000000;fill-opacity:1;stroke-width:0.238125"
       id="path2689" />
    <path
       d="m -2137.2445,1423.1112 v -0.635 h -1.232 v -5.1435 h -0.5715 c -1.3081,1.7272 -2.5908,3.5814 -3.7973,5.3848 v 0.3937 h 3.3401 v 0.8636 c 0,0.8382 -0.051,0.9017 -1.1938,0.9905 v 0.3938 h 3.3147 v -0.3938 c -1.0414,-0.089 -1.0922,-0.1523 -1.0922,-0.9778 v -0.8763 z m -2.2607,-0.635 h -2.4892 c 0.851,-1.3843 1.6511,-2.5781 2.4638,-3.7084 h 0.025 z"
       style="font-size:14.1111px;line-height:1.25;font-family:'Minion Pro';-inkscape-font-specification:'Minion Pro';letter-spacing:0px;fill:#000000;fill-opacity:1;stroke-width:0.238125"
       id="path2691" />
    <path
       d="m -2074.1435,1423.1112 v -0.635 h -1.232 v -5.1435 h -0.5715 c -1.3081,1.7272 -2.5908,3.5814 -3.7973,5.3848 v 0.3937 h 3.3401 v 0.8636 c 0,0.8382 -0.051,0.9017 -1.1938,0.9905 v 0.3938 h 3.3147 v -0.3938 c -1.0414,-0.089 -1.0922,-0.1523 -1.0922,-0.9778 v -0.8763 z m -2.2607,-0.635 h -2.4892 c 0.851,-1.3843 1.6511,-2.5781 2.4638,-3.7084 h 0.025 z"
       style="font-size:14.1111px;line-height:1.25;font-family:'Minion Pro';-inkscape-font-specification:'Minion Pro';letter-spacing:0px;fill:#000000;fill-opacity:1;stroke-width:0.238125"
       id="path2693" />
    <path
       d="m -2014.5262,1418.4143 h 2.9464 l 0.3429,-0.8509 -0.089,-0.1016 h -3.6576 l -0.4952,3.8735 c 0.2793,-0.1016 0.7619,-0.2413 1.2953,-0.2413 1.4097,0 2.0956,0.7874 2.0956,1.8923 0,0.9144 -0.5334,1.8542 -1.5875,1.8542 -0.7747,0 -1.3081,-0.4064 -1.5875,-0.6477 -0.1271,-0.1016 -0.2285,-0.077 -0.3557,0.013 -0.1524,0.127 -0.2666,0.3048 -0.2793,0.4191 -0.025,0.1651 0.025,0.2667 0.2032,0.4445 0.2033,0.1905 0.7493,0.4572 1.3463,0.4572 0.673,-0.013 1.5239,-0.3429 2.2097,-0.9017 0.7874,-0.6223 1.1557,-1.3589 1.1557,-2.1209 0,-1.0541 -0.8382,-2.1717 -2.4765,-2.1717 -0.3556,0 -0.9144,0.1905 -1.3843,0.3556 z"
       style="font-size:14.1111px;line-height:1.25;font-family:'Minion Pro';-inkscape-font-specification:'Minion Pro';letter-spacing:0px;fill:#000000;fill-opacity:1;stroke-width:0.238125"
       id="path2695" />
    <path
       d="m -1933.3838,1420.5648 c 0.3937,-0.2539 0.6604,-0.4699 0.8637,-0.6604 0.254,-0.254 0.3936,-0.5588 0.3936,-0.9144 0,-0.9651 -0.7619,-1.6891 -1.9177,-1.6891 h -0.013 c -0.673,0 -1.2699,0.3175 -1.6256,0.724 l -0.5715,0.8001 0.3048,0.2793 c 0.3048,-0.4572 0.8382,-1.016 1.524,-1.016 0.6858,0 1.2065,0.3938 1.2065,1.1557 0,0.9271 -0.889,1.4224 -2.0574,1.7907 l 0.1016,0.4192 c 0.2032,-0.064 0.5207,-0.1398 0.8382,-0.1398 0.7239,0 1.6002,0.4572 1.6002,1.6002 0.013,1.2065 -0.6223,1.905 -1.5113,1.905 -0.7493,0 -1.27,-0.3683 -1.6002,-0.6477 -0.1016,-0.089 -0.2159,-0.076 -0.3302,0 -0.1143,0.089 -0.2921,0.2667 -0.3048,0.4318 -0.025,0.1525 0.025,0.2921 0.2032,0.4572 0.1779,0.1778 0.7112,0.4572 1.3081,0.4572 0.9271,0 3.3655,-0.9398 3.3655,-2.9845 0,-0.9398 -0.6477,-1.7272 -1.778,-1.9304 z"
       style="font-size:14.1111px;line-height:1.25;font-family:'Minion Pro';-inkscape-font-specification:'Minion Pro';letter-spacing:0px;fill:#000000;fill-opacity:1;stroke-width:0.238125"
       id="path2697" />
    <path
       d="m -1917.5087,1420.5648 c 0.3936,-0.2539 0.6603,-0.4699 0.8635,-0.6604 0.254,-0.254 0.3937,-0.5588 0.3937,-0.9144 0,-0.9651 -0.762,-1.6891 -1.9176,-1.6891 h -0.013 c -0.673,0 -1.2699,0.3175 -1.6256,0.724 l -0.5715,0.8001 0.3047,0.2793 c 0.3049,-0.4572 0.8383,-1.016 1.5241,-1.016 0.6859,0 1.2064,0.3938 1.2064,1.1557 0,0.9271 -0.889,1.4224 -2.0574,1.7907 l 0.1017,0.4192 c 0.2032,-0.064 0.5207,-0.1398 0.8381,-0.1398 0.724,0 1.6002,0.4572 1.6002,1.6002 0.013,1.2065 -0.6222,1.905 -1.5113,1.905 -0.7492,0 -1.2699,-0.3683 -1.6002,-0.6477 -0.1016,-0.089 -0.2159,-0.076 -0.3302,0 -0.1143,0.089 -0.292,0.2667 -0.3047,0.4318 -0.025,0.1525 0.025,0.2921 0.2031,0.4572 0.1779,0.1778 0.7113,0.4572 1.3082,0.4572 0.9271,0 3.3654,-0.9398 3.3654,-2.9845 0,-0.9398 -0.6476,-1.7272 -1.7779,-1.9304 z"
       style="font-size:14.1111px;line-height:1.25;font-family:'Minion Pro';-inkscape-font-specification:'Minion Pro';letter-spacing:0px;fill:#000000;fill-opacity:1;stroke-width:0.238125"
       id="path2699" />
    <path
       d="m -1883.6215,1423.1112 v -0.635 h -1.232 v -5.1435 h -0.5715 c -1.308,1.7272 -2.5908,3.5814 -3.7972,5.3848 v 0.3937 h 3.34 v 0.8636 c 0,0.8382 -0.05,0.9017 -1.1936,0.9905 v 0.3938 h 3.3147 v -0.3938 c -1.0416,-0.089 -1.0924,-0.1523 -1.0924,-0.9778 v -0.8763 z m -2.2607,-0.635 h -2.4892 c 0.851,-1.3843 1.6511,-2.5781 2.4639,-3.7084 h 0.025 z"
       style="font-size:14.1111px;line-height:1.25;font-family:'Minion Pro';-inkscape-font-specification:'Minion Pro';letter-spacing:0px;fill:#000000;fill-opacity:1;stroke-width:0.238125"
       id="path2701" />
    <path
       d="m -1852.4767,1423.5282 c -0.381,0.8255 -0.5461,0.8763 -1.232,0.8763 h -2.3113 l 1.7906,-1.8543 c 1.1557,-1.2064 1.6764,-1.9684 1.6764,-3.0988 0,-1.3334 -1.0287,-2.159 -2.1717,-2.159 -0.7366,0 -1.3462,0.3302 -1.7398,0.7621 l -0.7366,1.0287 0.3175,0.2921 c 0.3428,-0.4954 0.9017,-1.1938 1.7525,-1.1938 0.9145,0 1.4732,0.6095 1.4732,1.651 0,1.1048 -0.8001,2.0955 -1.6001,3.0479 -0.6224,0.7367 -1.3589,1.4479 -2.0574,2.1464 v 0.3302 h 4.8005 c 0.1526,-0.5588 0.2794,-1.1176 0.4445,-1.7145 z"
       style="font-size:14.1111px;line-height:1.25;font-family:'Minion Pro';-inkscape-font-specification:'Minion Pro';letter-spacing:0px;fill:#000000;fill-opacity:1;stroke-width:0.238125"
       id="path2703" />
    <path
       id="rect2875"
       style="fill:none;fill-opacity:0.988235;stroke:#000000;stroke-width:0.755115;stroke-linecap:round;stroke-linejoin:round;stroke-miterlimit:4;stroke-dasharray:none;stroke-dashoffset:0.616819"
       d="m -2309.6802,1313.5077 h 465.6748 v 120.5532 h -465.6748 z" />
    <path
       id="path2922"
       style="fill:none;fill-opacity:0.988235;stroke:#000000;stroke-width:0.578644;stroke-linecap:round;stroke-linejoin:round;stroke-miterlimit:4;stroke-dasharray:none;stroke-dashoffset:0.616819"
       d="m -2293.0938,1326.0958 a 5.7013764,5.7013764 0 0 1 -5.7014,5.7014 5.7013764,5.7013764 0 0 1 -5.7013,-5.7014 5.7013764,5.7013764 0 0 1 5.7013,-5.7014 5.7013764,5.7013764 0 0 1 5.7014,5.7014 z" />
    <path
       id="path2922-8"
       style="fill:none;fill-opacity:0.988235;stroke:#000000;stroke-width:0.578644;stroke-linecap:round;stroke-linejoin:round;stroke-miterlimit:4;stroke-dasharray:none;stroke-dashoffset:0.616819"
       d="m -2261.3435,1358.0364 a 5.7013764,5.7013764 0 0 1 -5.7014,5.7014 5.7013764,5.7013764 0 0 1 -5.7014,-5.7014 5.7013764,5.7013764 0 0 1 5.7014,-5.7014 5.7013764,5.7013764 0 0 1 5.7014,5.7014 z" />
    <path
       id="path2922-6"
       style="fill:none;fill-opacity:0.988235;stroke:#000000;stroke-width:0.578644;stroke-linecap:round;stroke-linejoin:round;stroke-miterlimit:4;stroke-dasharray:none;stroke-dashoffset:0.616819"
       d="m -2007.7421,1389.6171 a 5.7013764,5.7013764 0 0 1 -5.7014,5.7013 5.7013764,5.7013764 0 0 1 -5.7014,-5.7013 5.7013764,5.7013764 0 0 1 5.7014,-5.7014 5.7013764,5.7013764 0 0 1 5.7014,5.7014 z" />
    <path
       id="path2922-2"
       style="fill:none;fill-opacity:0.988235;stroke:#000000;stroke-width:0.578644;stroke-linecap:round;stroke-linejoin:round;stroke-miterlimit:4;stroke-dasharray:none;stroke-dashoffset:0.616819"
       d="m -1944.2209,1389.6171 a 5.7013764,5.7013764 0 0 1 -5.7013,5.7013 5.7013764,5.7013764 0 0 1 -5.7014,-5.7013 5.7013764,5.7013764 0 0 1 5.7014,-5.7014 5.7013764,5.7013764 0 0 1 5.7013,5.7014 z" />
    <path
       id="path2922-3"
       style="fill:none;fill-opacity:0.988235;stroke:#000000;stroke-width:0.578644;stroke-linecap:round;stroke-linejoin:round;stroke-miterlimit:4;stroke-dasharray:none;stroke-dashoffset:0.616819"
       d="m -1880.7205,1389.6171 a 5.7013764,5.7013764 0 0 1 -5.7014,5.7013 5.7013764,5.7013764 0 0 1 -5.7014,-5.7013 5.7013764,5.7013764 0 0 1 5.7014,-5.7014 5.7013764,5.7013764 0 0 1 5.7014,5.7014 z" />
    <path
       id="path2922-9"
       style="fill:none;fill-opacity:0.988235;stroke:#000000;stroke-width:0.578644;stroke-linecap:round;stroke-linejoin:round;stroke-miterlimit:4;stroke-dasharray:none;stroke-dashoffset:0.616819"
       d="m -2166.0938,1342.119 a 5.7013764,5.7013764 0 0 1 -5.7014,5.7014 5.7013764,5.7013764 0 0 1 -5.7013,-5.7014 5.7013764,5.7013764 0 0 1 5.7013,-5.7014 5.7013764,5.7013764 0 0 1 5.7014,5.7014 z" />
    <path
       id="path2922-69"
       style="fill:none;fill-opacity:0.988235;stroke:#000000;stroke-width:0.578644;stroke-linecap:round;stroke-linejoin:round;stroke-miterlimit:4;stroke-dasharray:none;stroke-dashoffset:0.616819"
       d="m -1928.3457,1342.119 a 5.7013764,5.7013764 0 0 1 -5.7014,5.7014 5.7013764,5.7013764 0 0 1 -5.7014,-5.7014 5.7013764,5.7013764 0 0 1 5.7014,-5.7014 5.7013764,5.7013764 0 0 1 5.7014,5.7014 z" />
    <path
       id="path2922-66"
       style="fill:none;fill-opacity:0.988235;stroke:#000000;stroke-width:0.578644;stroke-linecap:round;stroke-linejoin:round;stroke-miterlimit:4;stroke-dasharray:none;stroke-dashoffset:0.616819"
       d="m -1912.4707,1342.119 a 5.7013764,5.7013764 0 0 1 -5.7014,5.7014 5.7013764,5.7013764 0 0 1 -5.7014,-5.7014 5.7013764,5.7013764 0 0 1 5.7014,-5.7014 5.7013764,5.7013764 0 0 1 5.7014,5.7014 z" />
    <path
       id="path2922-0"
       style="fill:none;fill-opacity:0.988235;stroke:#000000;stroke-width:0.578644;stroke-linecap:round;stroke-linejoin:round;stroke-miterlimit:4;stroke-dasharray:none;stroke-dashoffset:0.616819"
       d="m -1880.7205,1358.0364 a 5.7013764,5.7013764 0 0 1 -5.7014,5.7014 5.7013764,5.7013764 0 0 1 -5.7014,-5.7014 5.7013764,5.7013764 0 0 1 5.7014,-5.7014 5.7013764,5.7013764 0 0 1 5.7014,5.7014 z" />
    <path
       id="path2922-20"
       style="fill:none;fill-opacity:0.988235;stroke:#000000;stroke-width:0.578644;stroke-linecap:round;stroke-linejoin:round;stroke-miterlimit:4;stroke-dasharray:none;stroke-dashoffset:0.616819"
       d="m -1944.2209,1358.0364 a 5.7013764,5.7013764 0 0 1 -5.7013,5.7014 5.7013764,5.7013764 0 0 1 -5.7014,-5.7014 5.7013764,5.7013764 0 0 1 5.7014,-5.7014 5.7013764,5.7013764 0 0 1 5.7013,5.7014 z" />
    <path
       id="path2922-7"
       style="fill:none;fill-opacity:0.988235;stroke:#000000;stroke-width:0.578644;stroke-linecap:round;stroke-linejoin:round;stroke-miterlimit:4;stroke-dasharray:none;stroke-dashoffset:0.616819"
       d="m -2007.7421,1358.0364 a 5.7013764,5.7013764 0 0 1 -5.7014,5.7014 5.7013764,5.7013764 0 0 1 -5.7014,-5.7014 5.7013764,5.7013764 0 0 1 5.7014,-5.7014 5.7013764,5.7013764 0 0 1 5.7014,5.7014 z" />
    <path
       id="path2922-31"
       style="fill:none;fill-opacity:0.988235;stroke:#000000;stroke-width:0.578644;stroke-linecap:round;stroke-linejoin:round;stroke-miterlimit:4;stroke-dasharray:none;stroke-dashoffset:0.616819"
       d="m -2071.2425,1358.0364 a 5.7013764,5.7013764 0 0 1 -5.7013,5.7014 5.7013764,5.7013764 0 0 1 -5.7014,-5.7014 5.7013764,5.7013764 0 0 1 5.7014,-5.7014 5.7013764,5.7013764 0 0 1 5.7013,5.7014 z" />
    <path
       id="path2922-92"
       style="fill:none;fill-opacity:0.988235;stroke:#000000;stroke-width:0.578644;stroke-linecap:round;stroke-linejoin:round;stroke-miterlimit:4;stroke-dasharray:none;stroke-dashoffset:0.616819"
       d="m -2134.3435,1358.0364 a 5.7013764,5.7013764 0 0 1 -5.7014,5.7014 5.7013764,5.7013764 0 0 1 -5.7014,-5.7014 5.7013764,5.7013764 0 0 1 5.7014,-5.7014 5.7013764,5.7013764 0 0 1 5.7014,5.7014 z" />
    <path
       id="path2922-82"
       style="fill:none;fill-opacity:0.988235;stroke:#000000;stroke-width:0.578644;stroke-linecap:round;stroke-linejoin:round;stroke-miterlimit:4;stroke-dasharray:none;stroke-dashoffset:0.616819"
       d="m -2197.844,1358.0364 a 5.7013764,5.7013764 0 0 1 -5.7014,5.7014 5.7013764,5.7013764 0 0 1 -5.7014,-5.7014 5.7013764,5.7013764 0 0 1 5.7014,-5.7014 5.7013764,5.7013764 0 0 1 5.7014,5.7014 z" />
    <path
       id="path2922-5"
       style="fill:none;fill-opacity:0.988235;stroke:#000000;stroke-width:0.578644;stroke-linecap:round;stroke-linejoin:round;stroke-miterlimit:4;stroke-dasharray:none;stroke-dashoffset:0.616819"
       d="m -2293.0938,1358.0364 a 5.7013764,5.7013764 0 0 1 -5.7014,5.7014 5.7013764,5.7013764 0 0 1 -5.7013,-5.7014 5.7013764,5.7013764 0 0 1 5.7013,-5.7014 5.7013764,5.7013764 0 0 1 5.7014,5.7014 z" />
    <path
       id="path2922-74"
       style="fill:none;fill-opacity:0.988235;stroke:#000000;stroke-width:0.578644;stroke-linecap:round;stroke-linejoin:round;stroke-miterlimit:4;stroke-dasharray:none;stroke-dashoffset:0.616819"
       d="m -2229.9712,1326.2439 a 5.7013764,5.7013764 0 0 1 -5.7014,5.7014 5.7013764,5.7013764 0 0 1 -5.7014,-5.7014 5.7013764,5.7013764 0 0 1 5.7014,-5.7014 5.7013764,5.7013764 0 0 1 5.7014,5.7014 z" />
    <path
       id="path2922-58"
       style="fill:none;fill-opacity:0.988235;stroke:#000000;stroke-width:0.578644;stroke-linecap:round;stroke-linejoin:round;stroke-miterlimit:4;stroke-dasharray:none;stroke-dashoffset:0.616819"
       d="m -2134.3435,1326.2439 a 5.7013764,5.7013764 0 0 1 -5.7014,5.7014 5.7013764,5.7013764 0 0 1 -5.7014,-5.7014 5.7013764,5.7013764 0 0 1 5.7014,-5.7014 5.7013764,5.7013764 0 0 1 5.7014,5.7014 z" />
    <path
       id="path2922-04"
       style="fill:none;fill-opacity:0.988235;stroke:#000000;stroke-width:0.578644;stroke-linecap:round;stroke-linejoin:round;stroke-miterlimit:4;stroke-dasharray:none;stroke-dashoffset:0.616819"
       d="m -2102.971,1326.2439 a 5.7013764,5.7013764 0 0 1 -5.7014,5.7014 5.7013764,5.7013764 0 0 1 -5.7013,-5.7014 5.7013764,5.7013764 0 0 1 5.7013,-5.7014 5.7013764,5.7013764 0 0 1 5.7014,5.7014 z" />
    <path
       id="path2922-27"
       style="fill:none;fill-opacity:0.988235;stroke:#000000;stroke-width:0.578644;stroke-linecap:round;stroke-linejoin:round;stroke-miterlimit:4;stroke-dasharray:none;stroke-dashoffset:0.616819"
       d="m -2039.4923,1326.2439 a 5.7013764,5.7013764 0 0 1 -5.7014,5.7014 5.7013764,5.7013764 0 0 1 -5.7014,-5.7014 5.7013764,5.7013764 0 0 1 5.7014,-5.7014 5.7013764,5.7013764 0 0 1 5.7014,5.7014 z" />
    <path
       id="path2922-24"
       style="fill:none;fill-opacity:0.988235;stroke:#000000;stroke-width:0.578644;stroke-linecap:round;stroke-linejoin:round;stroke-miterlimit:4;stroke-dasharray:none;stroke-dashoffset:0.616819"
       d="m -1975.9711,1326.2439 a 5.7013764,5.7013764 0 0 1 -5.7014,5.7014 5.7013764,5.7013764 0 0 1 -5.7014,-5.7014 5.7013764,5.7013764 0 0 1 5.7014,-5.7014 5.7013764,5.7013764 0 0 1 5.7014,5.7014 z" />
    <path
       id="path2922-39"
       style="fill:none;fill-opacity:0.988235;stroke:#000000;stroke-width:0.578644;stroke-linecap:round;stroke-linejoin:round;stroke-miterlimit:4;stroke-dasharray:none;stroke-dashoffset:0.616819"
       d="m -1848.9915,1326.2439 a 5.7013764,5.7013764 0 0 1 -5.7014,5.7014 5.7013764,5.7013764 0 0 1 -5.7013,-5.7014 5.7013764,5.7013764 0 0 1 5.7013,-5.7014 5.7013764,5.7013764 0 0 1 5.7014,5.7014 z" />
    <path
       id="path2922-241"
       style="fill:none;fill-opacity:0.988235;stroke:#000000;stroke-width:0.578644;stroke-linecap:round;stroke-linejoin:round;stroke-miterlimit:4;stroke-dasharray:none;stroke-dashoffset:0.616819"
       d="m -2261.3435,1389.6171 a 5.7013764,5.7013764 0 0 1 -5.7014,5.7013 5.7013764,5.7013764 0 0 1 -5.7014,-5.7013 5.7013764,5.7013764 0 0 1 5.7014,-5.7014 5.7013764,5.7013764 0 0 1 5.7014,5.7014 z" />
    <path
       id="path2922-86"
       style="fill:none;fill-opacity:0.988235;stroke:#000000;stroke-width:0.578644;stroke-linecap:round;stroke-linejoin:round;stroke-miterlimit:4;stroke-dasharray:none;stroke-dashoffset:0.616819"
       d="m -2229.9712,1389.6171 a 5.7013764,5.7013764 0 0 1 -5.7014,5.7013 5.7013764,5.7013764 0 0 1 -5.7014,-5.7013 5.7013764,5.7013764 0 0 1 5.7014,-5.7014 5.7013764,5.7013764 0 0 1 5.7014,5.7014 z" />
    <path
       id="path2922-36"
       style="fill:none;fill-opacity:0.988235;stroke:#000000;stroke-width:0.578644;stroke-linecap:round;stroke-linejoin:round;stroke-miterlimit:4;stroke-dasharray:none;stroke-dashoffset:0.616819"
       d="m -2197.844,1389.6171 a 5.7013764,5.7013764 0 0 1 -5.7014,5.7013 5.7013764,5.7013764 0 0 1 -5.7014,-5.7013 5.7013764,5.7013764 0 0 1 5.7014,-5.7014 5.7013764,5.7013764 0 0 1 5.7014,5.7014 z" />
    <path
       id="path2922-68"
       style="fill:none;fill-opacity:0.988235;stroke:#000000;stroke-width:0.578644;stroke-linecap:round;stroke-linejoin:round;stroke-miterlimit:4;stroke-dasharray:none;stroke-dashoffset:0.616819"
       d="m -2134.3435,1389.6171 a 5.7013764,5.7013764 0 0 1 -5.7014,5.7013 5.7013764,5.7013764 0 0 1 -5.7014,-5.7013 5.7013764,5.7013764 0 0 1 5.7014,-5.7014 5.7013764,5.7013764 0 0 1 5.7014,5.7014 z" />
    <path
       id="path2922-047"
       style="fill:none;fill-opacity:0.988235;stroke:#000000;stroke-width:0.578644;stroke-linecap:round;stroke-linejoin:round;stroke-miterlimit:4;stroke-dasharray:none;stroke-dashoffset:0.616819"
       d="m -2071.2425,1389.6171 a 5.7013764,5.7013764 0 0 1 -5.7013,5.7013 5.7013764,5.7013764 0 0 1 -5.7014,-5.7013 5.7013764,5.7013764 0 0 1 5.7014,-5.7014 5.7013764,5.7013764 0 0 1 5.7013,5.7014 z" />
    <path
       id="path2922-7-1"
       style="fill:none;fill-opacity:0.988235;stroke:#000000;stroke-width:0.578644;stroke-linecap:round;stroke-linejoin:round;stroke-miterlimit:4;stroke-dasharray:none;stroke-dashoffset:0.616819"
       d="m -2039.4923,1373.9114 a 5.7013764,5.7013764 0 0 1 -5.7014,5.7014 5.7013764,5.7013764 0 0 1 -5.7014,-5.7014 5.7013764,5.7013764 0 0 1 5.7014,-5.7014 5.7013764,5.7013764 0 0 1 5.7014,5.7014 z" />
    <path
       id="circle3263"
       style="fill:none;fill-opacity:0.988235;stroke:#000000;stroke-width:0.578644;stroke-linecap:round;stroke-linejoin:round;stroke-miterlimit:4;stroke-dasharray:none;stroke-dashoffset:0.616819"
       d="m -2055.3675,1373.8267 a 5.7013764,5.7013764 0 0 1 -5.7013,5.7013 5.7013764,5.7013764 0 0 1 -5.7014,-5.7013 5.7013764,5.7013764 0 0 1 5.7014,-5.7014 5.7013764,5.7013764 0 0 1 5.7013,5.7014 z" />
    <path
       id="path2922-7-4"
       style="fill:none;fill-opacity:0.988235;stroke:#000000;stroke-width:0.578644;stroke-linecap:round;stroke-linejoin:round;stroke-miterlimit:4;stroke-dasharray:none;stroke-dashoffset:0.616819"
       d="m -2071.2425,1421.3459 a 5.7013764,5.7013764 0 0 1 -5.7013,5.7014 5.7013764,5.7013764 0 0 1 -5.7014,-5.7014 5.7013764,5.7013764 0 0 1 5.7014,-5.7013 5.7013764,5.7013764 0 0 1 5.7013,5.7013 z" />
    <path
       id="path2922-7-7"
       style="fill:none;fill-opacity:0.988235;stroke:#000000;stroke-width:0.578644;stroke-linecap:round;stroke-linejoin:round;stroke-miterlimit:4;stroke-dasharray:none;stroke-dashoffset:0.616819"
       d="m -1912.4707,1421.3459 a 5.7013764,5.7013764 0 0 1 -5.7014,5.7014 5.7013764,5.7013764 0 0 1 -5.7014,-5.7014 5.7013764,5.7013764 0 0 1 5.7014,-5.7013 5.7013764,5.7013764 0 0 1 5.7014,5.7013 z" />
    <path
       id="path2922-7-9"
       style="fill:none;fill-opacity:0.988235;stroke:#000000;stroke-width:0.578644;stroke-linecap:round;stroke-linejoin:round;stroke-miterlimit:4;stroke-dasharray:none;stroke-dashoffset:0.616819"
       d="m -1880.7205,1421.3459 a 5.7013764,5.7013764 0 0 1 -5.7014,5.7014 5.7013764,5.7013764 0 0 1 -5.7014,-5.7014 5.7013764,5.7013764 0 0 1 5.7014,-5.7013 5.7013764,5.7013764 0 0 1 5.7014,5.7013 z" />
    <path
       id="path2922-7-18"
       style="fill:none;fill-opacity:0.988235;stroke:#000000;stroke-width:0.578644;stroke-linecap:round;stroke-linejoin:round;stroke-miterlimit:4;stroke-dasharray:none;stroke-dashoffset:0.616819"
       d="m -1848.9915,1421.3459 a 5.7013764,5.7013764 0 0 1 -5.7014,5.7014 5.7013764,5.7013764 0 0 1 -5.7013,-5.7014 5.7013764,5.7013764 0 0 1 5.7013,-5.7013 5.7013764,5.7013764 0 0 1 5.7014,5.7013 z" />
    <path
       id="path2922-7-74"
       style="fill:none;fill-opacity:0.988235;stroke:#000000;stroke-width:0.578644;stroke-linecap:round;stroke-linejoin:round;stroke-miterlimit:4;stroke-dasharray:none;stroke-dashoffset:0.616819"
       d="m -1928.3457,1421.3459 a 5.7013764,5.7013764 0 0 1 -5.7014,5.7014 5.7013764,5.7013764 0 0 1 -5.7014,-5.7014 5.7013764,5.7013764 0 0 1 5.7014,-5.7013 5.7013764,5.7013764 0 0 1 5.7014,5.7013 z" />
    <path
       id="path2922-7-97"
       style="fill:none;fill-opacity:0.988235;stroke:#000000;stroke-width:0.578644;stroke-linecap:round;stroke-linejoin:round;stroke-miterlimit:4;stroke-dasharray:none;stroke-dashoffset:0.616819"
       d="m -2007.7421,1421.3459 a 5.7013764,5.7013764 0 0 1 -5.7014,5.7014 5.7013764,5.7013764 0 0 1 -5.7014,-5.7014 5.7013764,5.7013764 0 0 1 5.7014,-5.7013 5.7013764,5.7013764 0 0 1 5.7014,5.7013 z" />
    <path
       id="path2922-7-17"
       style="fill:none;fill-opacity:0.988235;stroke:#000000;stroke-width:0.578644;stroke-linecap:round;stroke-linejoin:round;stroke-miterlimit:4;stroke-dasharray:none;stroke-dashoffset:0.616819"
       d="m -2134.3435,1421.3459 a 5.7013764,5.7013764 0 0 1 -5.7014,5.7014 5.7013764,5.7013764 0 0 1 -5.7014,-5.7014 5.7013764,5.7013764 0 0 1 5.7014,-5.7013 5.7013764,5.7013764 0 0 1 5.7014,5.7013 z" />
    <path
       id="path2922-7-75"
       style="fill:none;fill-opacity:0.988235;stroke:#000000;stroke-width:0.578644;stroke-linecap:round;stroke-linejoin:round;stroke-miterlimit:4;stroke-dasharray:none;stroke-dashoffset:0.616819"
       d="m -2166.0938,1421.3459 a 5.7013764,5.7013764 0 0 1 -5.7014,5.7014 5.7013764,5.7013764 0 0 1 -5.7013,-5.7014 5.7013764,5.7013764 0 0 1 5.7013,-5.7013 5.7013764,5.7013764 0 0 1 5.7014,5.7013 z" />
    <path
       id="path2922-7-45"
       style="fill:none;fill-opacity:0.988235;stroke:#000000;stroke-width:0.578644;stroke-linecap:round;stroke-linejoin:round;stroke-miterlimit:4;stroke-dasharray:none;stroke-dashoffset:0.616819"
       d="m -2197.844,1421.3459 a 5.7013764,5.7013764 0 0 1 -5.7014,5.7014 5.7013764,5.7013764 0 0 1 -5.7014,-5.7014 5.7013764,5.7013764 0 0 1 5.7014,-5.7013 5.7013764,5.7013764 0 0 1 5.7014,5.7013 z" />
    <path
       id="path2922-7-6"
       style="fill:none;fill-opacity:0.988235;stroke:#000000;stroke-width:0.578644;stroke-linecap:round;stroke-linejoin:round;stroke-miterlimit:4;stroke-dasharray:none;stroke-dashoffset:0.616819"
       d="m -2229.9712,1421.3459 a 5.7013764,5.7013764 0 0 1 -5.7014,5.7014 5.7013764,5.7013764 0 0 1 -5.7014,-5.7014 5.7013764,5.7013764 0 0 1 5.7014,-5.7013 5.7013764,5.7013764 0 0 1 5.7014,5.7013 z" />
    <path
       id="path2922-7-70"
       style="fill:none;fill-opacity:0.988235;stroke:#000000;stroke-width:0.578644;stroke-linecap:round;stroke-linejoin:round;stroke-miterlimit:4;stroke-dasharray:none;stroke-dashoffset:0.616819"
       d="m -2293.0938,1421.3459 a 5.7013764,5.7013764 0 0 1 -5.7014,5.7014 5.7013764,5.7013764 0 0 1 -5.7013,-5.7014 5.7013764,5.7013764 0 0 1 5.7013,-5.7013 5.7013764,5.7013764 0 0 1 5.7014,5.7013 z" />
    <path
       id="path2922-7-92"
       style="fill:none;fill-opacity:0.988235;stroke:#000000;stroke-width:0.578644;stroke-linecap:round;stroke-linejoin:round;stroke-miterlimit:4;stroke-dasharray:none;stroke-dashoffset:0.616819"
       d="m -1928.3457,1405.4921 a 5.7013764,5.7013764 0 0 1 -5.7014,5.7013 5.7013764,5.7013764 0 0 1 -5.7014,-5.7013 5.7013764,5.7013764 0 0 1 5.7014,-5.7014 5.7013764,5.7013764 0 0 1 5.7014,5.7014 z" />
    <path
       id="path2922-7-98"
       style="fill:none;fill-opacity:0.988235;stroke:#000000;stroke-width:0.578644;stroke-linecap:round;stroke-linejoin:round;stroke-miterlimit:4;stroke-dasharray:none;stroke-dashoffset:0.616819"
       d="m -1975.9711,1405.4921 a 5.7013764,5.7013764 0 0 1 -5.7014,5.7013 5.7013764,5.7013764 0 0 1 -5.7014,-5.7013 5.7013764,5.7013764 0 0 1 5.7014,-5.7014 5.7013764,5.7013764 0 0 1 5.7014,5.7014 z" />
    <path
       id="path2922-7-976"
       style="fill:none;fill-opacity:0.988235;stroke:#000000;stroke-width:0.578644;stroke-linecap:round;stroke-linejoin:round;stroke-miterlimit:4;stroke-dasharray:none;stroke-dashoffset:0.616819"
       d="m -2039.4922,1405.4921 a 5.7013764,5.7013764 0 0 1 -5.7014,5.7013 5.7013764,5.7013764 0 0 1 -5.7014,-5.7013 5.7013764,5.7013764 0 0 1 5.7014,-5.7014 5.7013764,5.7013764 0 0 1 5.7014,5.7014 z" />
    <path
       id="path2922-7-93"
       style="fill:none;fill-opacity:0.988235;stroke:#000000;stroke-width:0.578644;stroke-linecap:round;stroke-linejoin:round;stroke-miterlimit:4;stroke-dasharray:none;stroke-dashoffset:0.616819"
       d="m -2102.971,1405.4921 a 5.7013764,5.7013764 0 0 1 -5.7014,5.7013 5.7013764,5.7013764 0 0 1 -5.7013,-5.7013 5.7013764,5.7013764 0 0 1 5.7013,-5.7014 5.7013764,5.7013764 0 0 1 5.7014,5.7014 z" />
  </g>
</svg>
