<?xml version="1.0" encoding="UTF-8" standalone="no"?>
<svg
   version="1.1"
   width="801"
   height="601"
   style="clip-rule:evenodd;fill-rule:evenodd;image-rendering:optimizeQuality;shape-rendering:geometricPrecision;text-rendering:geometricPrecision"
   id="svg133"
   sodipodi:docname="final_result.svg"
   inkscape:version="1.3.2 (091e20ef0f, 2023-11-25, custom)"
   xmlns:inkscape="http://www.inkscape.org/namespaces/inkscape"
   xmlns:sodipodi="http://sodipodi.sourceforge.net/DTD/sodipodi-0.dtd"
   xmlns="http://www.w3.org/2000/svg"
   xmlns:svg="http://www.w3.org/2000/svg">
  <sodipodi:namedview
     id="namedview1"
     pagecolor="#ffffff"
     bordercolor="#999999"
     borderopacity="1"
     inkscape:showpageshadow="0"
     inkscape:pageopacity="0"
     inkscape:pagecheckerboard="0"
     inkscape:deskcolor="#d1d1d1"
     inkscape:zoom="45.817214"
     inkscape:cx="602.80837"
     inkscape:cy="554.43135"
     inkscape:window-width="1916"
     inkscape:window-height="1020"
     inkscape:window-x="0"
     inkscape:window-y="0"
     inkscape:window-maximized="0"
     inkscape:current-layer="svg133" />
  <defs
     id="defs133" />
  <path
     id="path2"
     d="M 0,0 V 601 H 801 V 0 Z M 1,1 H 200 V 200 H 1 Z M 201,1 H 400 V 200 H 201 Z M 401,1 H 600 V 200 H 401 Z M 601,1 H 800 V 200 H 601 Z M 1,201 H 200 V 400 H 1 Z m 200,0 H 400 V 400 H 201 Z m 200,0 H 600 V 400 H 401 Z m 200,0 H 800 V 400 H 601 Z M 1,401 H 200 V 600 H 1 Z m 200,0 H 400 V 600 H 201 Z m 200,0 H 600 V 600 H 401 Z m 200,0 H 800 V 600 H 601 Z" />
  <g
     id="g166"
     transform="translate(400.00002,200)">
    <path
       id="path4"
       style="fill:#cd3c37;fill-opacity:1"
       d="m 69,1 c 0.616699,32.962267 23.949521,50.945039 45,50 0.625,-16.659483 0.958,-33.326117 1,-50 h -11 c 0.135,11.360789 -0.365,22.694211 -1.5,34 C 90.386412,26.719708 82.886397,15.386386 80,1 Z M 193.22266,84.451172 C 178.60953,84.393258 172.30039,92.900365 172,110 c -0.3817,21.72991 10.38152,21.78956 28,21 v -11 c -17.85828,4.32503 -23.00688,-22.826121 0,-24 V 85 c -2.43325,-0.3578 -4.68975,-0.540555 -6.77734,-0.548828 z M 1,120 v 11 c 16.042904,-0.0404 39.476269,6.78901 38,69 H 50 C 50.555439,169.3847 47.622683,121.34659 1,120 Z" />
    <text
       xml:space="preserve"
       style="font-size:53.3333px;font-family:'Minion Pro';-inkscape-font-specification:'Minion Pro, Normal';letter-spacing:0px;fill:#000000;fill-opacity:1;stroke:none;stroke-width:7.55906"
       x="62.686691"
       y="117.83334"
       id="text133"><tspan
         id="tspan133"
         x="62.686691"
         y="117.83334"
         style="font-style:normal;font-variant:normal;font-weight:bold;font-stretch:normal;font-size:53.3333px;font-family:'Minion Pro';-inkscape-font-specification:'Minion Pro Bold'">AO</tspan></text>
  </g>
  <g
     id="g159"
     transform="translate(200.00005)">
    <path
       id="path49"
       style="fill:#cd3c37;fill-opacity:1"
       d="m 60,201 c -0.2253,9.69899 1,29 1,29 0,0 -39.99192,-1.047 -60,-1 v 11 c 23.664576,0.453 47.331324,0.786 71,1 -0.067,-13.34199 -0.400401,-26.67501 -1,-40 z M 192.62109,318.97461 C 175.40594,318.96496 158.19898,319.307 141,320 v 11 c 19.66198,-0.543 39.32902,-0.876 59,-1 v -11 c -2.45962,-0.0158 -4.9196,-0.024 -7.37891,-0.0254 z m -88.91601,2.68164 C 98.561354,321.86502 94.227022,326.51706 97.5,333 c 13.52709,12.6634 26.81282,25.58432 39.84961,38.75195 C 146.0031,378.54097 148.6373,389.64526 150,400 h 11 c 0.9707,-38.41267 -25.46496,-48.91525 -49.52344,-74.63867 -2.16136,-2.70515 -5.07715,-3.81444 -7.77148,-3.70508 z M 1,344 v 11 c 31.245789,1.4417 49.157175,13.42837 54,45 H 66 C 65.430601,376.99932 57.790533,344.16284 1,344 Z" />
    <text
       xml:space="preserve"
       style="font-style:normal;font-variant:normal;font-weight:bold;font-stretch:normal;font-size:53.3333px;font-family:'Minion Pro';-inkscape-font-specification:'Minion Pro Bold';letter-spacing:0px;fill:#000000;fill-opacity:1;stroke:none;stroke-width:7.55906"
       x="64.179977"
       y="317.83331"
       id="text134"><tspan
         id="tspan134"
         x="64.179977"
         y="317.83331">OP</tspan></text>
  </g>
  <text
     xml:space="preserve"
     style="font-style:normal;font-variant:normal;font-weight:bold;font-stretch:normal;font-size:53.3333px;font-family:'Minion Pro';-inkscape-font-specification:'Minion Pro Bold';letter-spacing:0px;fill:#000000;fill-opacity:1;stroke:none;stroke-width:7.55906"
     x="272.15344"
     y="105.05013"
     id="text135"><tspan
       id="tspan135"
       x="272.15344"
       y="105.05013" /></text>
  <g
     id="g165"
     transform="translate(400.00008,400.00004)">
    <path
       id="path7"
       style="fill:#cd3c37;fill-opacity:1"
       d="m 269,1 c 0.0528,5.1380149 -1.43111,10.256017 -4.2207,14.570312 C 253.32251,30.615287 239.02958,43.47795 223,53.5 c -7.28379,1.034579 -14.64321,1.5367 -22,1.5 v 11 c 10.68429,0.23808 21.38491,-0.263231 32,-1.5 16.25618,-9.71545 30.58704,-22.621906 41.95312,-37.769531 C 279.59772,19.124966 281.0933,9.7918712 280,1 Z m 67.81836,20.984375 c -8.35099,-0.0276 -16.70719,0.129554 -25.04883,0.308594 -4.65519,-0.38356 -10.08575,0.324479 -12.15625,5.208984 -2.5528,5.943464 -1.42803,12.801913 -1.33203,19.123047 0.1788,4.988215 11.52671,6.818597 11.75781,1.695312 C 309.71046,42.698708 309.46071,35.720128 316,33.5 328.56839,32.701921 341.19969,32.913311 353.73438,34.130859 369.05126,36.319117 384.56202,36.0918 400,36 V 25 c -12.75159,0.41165 -25.54022,-0.330419 -38.1582,-2.216797 -8.32554,-0.558994 -16.67245,-0.771229 -25.02344,-0.798828 z m -39.05664,36.712891 c -5.55359,0.300537 -9.87014,5.448473 -12.48438,10.054687 -6.17239,7.396553 -11.68837,15.335825 -16.51367,23.660156 C 256.09288,108.90997 243.04018,125.11954 229.80859,141.16797 223.1074,149.57377 211.18019,152.32119 201,150 v 11 c 9.61849,1.29396 19.43151,1.11929 29,-0.5 7.59809,-4.21999 13.2484,-11.02523 18.0293,-18.125 14.33228,-18.17271 29.08508,-36.04753 42.13476,-55.185547 3.2927,-4.754515 7.65569,-8.731853 10.67578,-13.642578 2.1276,-3.787086 4.78335,-13.231497 -0.62304,-14.666016 -0.84253,-0.170627 -1.66171,-0.226527 -2.45508,-0.183593 z m 25.18359,0.109375 c -0.59321,-0.01678 -1.20621,0.04028 -1.83789,0.18164 C 315.71493,59.88264 313.7622,66.682994 316.5,71 c 7.27219,10.24696 13.64731,21.128792 21.4375,31.00781 10.23029,10.11689 18.09336,22.24972 27.03125,33.45508 5.64879,4.54174 8.61358,11.44624 10.14258,18.375 2.4093,4.66975 -0.52939,11.41385 4.7539,14.38086 3.7578,2.43879 10.75427,0.92158 10.53907,-4.41016 -1.9277,-9.98368 -3.34808,-20.19211 -6.92188,-29.77148 -9.94809,-13.15131 -21.19092,-25.24918 -31.35351,-38.228516 -7.6864,-9.156801 -13.70517,-19.502856 -19.97657,-29.634766 -1.86908,-3.528854 -5.05457,-7.249734 -9.20703,-7.367187 z M 378.00586,179.06641 C 365.73394,179.01582 357.66309,182.06227 359,200 h 11 c -0.031,-4.097 1.969,-6.597 6,-7.5 7.98299,-0.832 15.98301,-1.332 24,-1.5 v -11 c -7.98486,-0.0304 -15.56599,-0.90709 -21.99414,-0.93359 z" />
    <text
       xml:space="preserve"
       style="font-style:normal;font-variant:normal;font-weight:bold;font-stretch:normal;font-size:53.3333px;font-family:'Minion Pro';-inkscape-font-specification:'Minion Pro Bold';letter-spacing:0px;fill:#000000;fill-opacity:1;stroke:none;stroke-width:7.55906"
       x="271.72668"
       y="122.57998"
       id="text136"><tspan
         id="tspan136"
         x="271.72668"
         y="122.57998">EŠ</tspan></text>
  </g>
  <g
     id="g164"
     transform="translate(-400,200)">
    <path
       id="path10"
       style="fill:#cd3c37;fill-opacity:1"
       d="m 480,1 c 0.051,19.013071 0.218,38.013139 0.5,57 C 461.69842,35.799242 428.05297,38.186471 401,39 v 11 c 33.37517,-0.534869 45.28487,-0.959696 53.88477,5.648438 C 474.26975,72.99542 542.3368,133.98845 543,134.5 c 7.17599,4.755 14.17601,9.75502 21,15 2.472,1.46 5.139,2.46 8,3 9.35899,0.636 18.69201,1.469 28,2.5 v -11 c -39.73216,-4.69629 -57.79493,-31.30302 -84,-59 l -22.99219,-21.548828 -0.24804,-0.06055 C 492.67277,63.260515 492.5867,63.13011 492.5,63 491.586,42.342251 491.086,21.675459 491,1 Z m 97.32227,5.4902344 c -5.29689,0.048677 -11.00783,2.8039442 -15.20704,6.0488276 -7.27659,5.622915 -10.67527,14.316055 -8.73437,23.291016 2.1665,10.01797 13.23289,12.879361 22.19141,13.449219 C 585.01396,49.879888 592.02844,38.68917 600,40 V 29 c -3.5119,-0.21769 -10.56297,0.141333 -13.72656,1.832031 -5.7042,3.048447 -9.32304,8.22504 -15.82032,4.132813 -7.44771,-4.690849 1.31468,-15.394721 8.29297,-12.246094 8.7193,3.934146 11.9005,-9.358687 6.28321,-13.7578125 -2.27174,-1.7791073 -4.93247,-2.4962008 -7.70703,-2.4707031 z M 498.86328,162.29883 C 477.79547,162.50127 452.62594,172.19286 450.5,185 c -0.9782,5.89297 -0.666,9.98903 -0.5,15 h 11 c -1.57536,-21.70637 29.15713,-30.58642 46,-23.5 11.51983,4.06531 18.86808,11.08341 18,23.5 h 11 c 0.905,-16.33898 -5.26162,-30.19315 -21,-35.5 -4.65985,-1.57127 -10.23773,-2.25786 -16.13672,-2.20117 z" />
    <text
       xml:space="preserve"
       style="font-style:normal;font-variant:normal;font-weight:bold;font-stretch:normal;font-size:53.3333px;font-family:'Minion Pro';-inkscape-font-specification:'Minion Pro Bold';letter-spacing:0px;fill:#000000;fill-opacity:1;stroke:none;stroke-width:7.55906"
       x="466.15344"
       y="117.83334"
       id="text137"><tspan
         id="tspan137"
         x="466.15344"
         y="117.83334">KL</tspan></text>
  </g>
  <g
     id="g163"
     transform="translate(-200.00001,400.00003)">
    <path
       id="path13"
       style="fill:#cd3c37;fill-opacity:1"
       d="m 639,1 c 1.73062,12.937384 -29.28895,6.6183072 -38,8 v 11 c 13.35499,0.0991 26.68801,-0.400901 40,-1.5 8.99599,-1.499844 9.45259,-5.650474 9,-17.5 z M 792.01758,53.683594 C 784.11254,53.848256 776.43999,55.454328 769,58.5 749.62622,73.031015 737.22921,80.782198 742.5,109 c 2.542,13.29399 4.81591,27.25469 13,38 5.54449,7.2797 15.44101,9.385 24.5,11.5 6.59199,1.329 13.25901,1.829 20,1.5 v -11 c -12.17299,-1.334 -26.55711,-2.02616 -33.5,-12 -16.41058,-23.5747 -19.40857,-46.876398 7.5,-64.5 7.96799,-4.821495 16.63501,-7.3215 26,-7.5 V 54 c -2.68675,-0.265225 -5.34741,-0.371294 -7.98242,-0.316406 z M 636.05859,163.10547 C 624.392,163.1031 612.62973,163.97238 601,164 v 11 c 17.00868,0.0929 34.28142,-1.62962 51,1.5 8.39749,1.57197 15.49166,7.21379 23.37695,10.50195 3.1171,1.66006 6.68461,2.56631 9.59571,4.57617 3.13139,2.16199 4.71784,4.62991 4.02734,8.42188 h 11 c -0.4255,-5.13719 -1.00026,-10.2615 -1.35156,-15.4043 -0.2039,-2.98513 -3.14214,-4.97857 -5.64844,-6.0957 -9.97019,-4.444 -19.31761,-10.75064 -30,-13 -8.85127,-1.86379 -17.86739,-2.39269 -26.94141,-2.39453 z" />
    <text
       xml:space="preserve"
       style="font-style:normal;font-variant:normal;font-weight:bold;font-stretch:normal;font-size:53.3333px;font-family:'Minion Pro';-inkscape-font-specification:'Minion Pro Bold';letter-spacing:0px;fill:#000000;fill-opacity:1;stroke:none;stroke-width:7.55906"
       x="667.32666"
       y="117.83334"
       id="text138"><tspan
         id="tspan138"
         x="667.32666"
         y="117.83334">MI</tspan></text>
  </g>
  <g
     id="g160"
     transform="translate(400.00008,-200)">
    <path
       id="path52"
       style="fill:#cd3c37;fill-opacity:1"
       d="m 260,201 c -0.7422,12.41842 -1.03053,24.86325 -0.86523,37.30273 C 257.91807,266.77722 252.12375,268.71532 201,270 v 11 c 12.71449,-0.008 25.6524,0.21282 38.33789,-0.64453 32.84467,-4.14202 31.52479,-16.6662 31.33789,-48.35352 C 270.84278,221.66841 270.951,211.33478 271,201 Z M 386.58398,338.53125 C 356.88507,338.57106 338.78034,362.40873 340,400 h 11 c 4.4207,-27.56607 11.12304,-53.86529 49,-49 v -11 c -4.69337,-0.99496 -9.17331,-1.47444 -13.41602,-1.46875 z" />
    <text
       xml:space="preserve"
       style="font-style:normal;font-variant:normal;font-weight:bold;font-stretch:normal;font-size:53.3333px;font-family:'Minion Pro';-inkscape-font-specification:'Minion Pro Bold';letter-spacing:0px;fill:#000000;fill-opacity:1;stroke:none;stroke-width:7.55906"
       x="266.76672"
       y="317.59332"
       id="text139"><tspan
         id="tspan139"
         x="266.76672"
         y="317.59332">RE</tspan></text>
  </g>
  <g
     id="g161"
     transform="translate(-400,-200)">
    <path
       id="path55"
       style="fill:#cd3c37;fill-opacity:1"
       d="m 500,201 c -0.9352,6.82752 0.2341,13.91626 3.5,20 12.74639,12.7464 25.49189,25.49189 38.23828,38.23828 3.7961,3.55882 7.12072,7.67324 11.32031,10.75977 C 566.43148,279.72832 583.83312,283.25658 600,280 v -11 c -13.63609,1.44459 -27.65189,-2.66375 -38.45508,-11.08203 C 545.54494,242.80989 530.30833,226.87828 515.55664,210.54492 512.99284,207.90784 510.0527,205.06759 511,201 Z m -46,102 v 11 l 146,1 v -11 z m -10.37695,0.95703 c -4.37633,0.0161 -8.75086,0.19268 -13.125,0.37109 -4.8655,0.19846 -8.04256,4.94252 -11.03125,8.28126 -8.22049,9.18323 -11.5981,23.22449 -6.9668,34.39062 15.22288,36.70185 68.9463,6.55963 67.5,53 h 11 c -0.0495,-8.98015 1.88411,-26.54197 -5.64648,-32.14648 -4.4683,-3.16291 -9.5538,-5.79443 -14.8711,-7.15821 C 461.16043,358.30443 450.94739,359.1263 442,355.5 c -8.02449,-3.25229 -17.6944,-6.6198 -18.5,-18.5 -0.6029,-8.89157 5.12208,-14.70323 10.89258,-18.80664 C 438.40537,315.33982 443.447,314.9623 448,315 v -11 c -1.45882,-0.0363 -2.91818,-0.0483 -4.37695,-0.043 z" />
    <text
       xml:space="preserve"
       style="font-style:normal;font-variant:normal;font-weight:bold;font-stretch:normal;font-size:53.3333px;font-family:'Minion Pro';-inkscape-font-specification:'Minion Pro Bold';letter-spacing:0px;fill:#000000;fill-opacity:1;stroke:none;stroke-width:7.55906"
       x="463.08667"
       y="317.83331"
       id="text140"><tspan
         id="tspan140"
         x="463.08667"
         y="317.83331">RO</tspan></text>
  </g>
  <g
     id="g162">
    <path
       id="path58"
       style="fill:#cd3c37;fill-opacity:1"
       d="M 740 201 C 730.17001 217.06379 713.77958 226.9783 697 235.5 C 685.73521 241.22094 676.28587 250.24202 664.45508 254.67383 C 653.79799 258.66599 643.7884 264.23947 634.84961 271.1582 C 629.27331 275.47432 622.57674 277.30485 616.84375 281.20312 C 612.10355 284.42628 606.37929 284.17273 601 285 L 601 295.99414 C 628.51167 298.30683 641.89423 281.91991 667 268.5 C 679.64469 261.74098 693.33141 256.94677 704.75 248.26562 C 710.39219 243.97603 717.74441 242.52291 723.875 239 C 731.83779 234.42418 738.29971 227.47852 744.50391 220.72461 C 750.0502 215.84989 751.7964 208.11296 751 201 L 740 201 z M 604.67969 319.94727 C 603.41401 319.92638 602.16975 319.9585 601 320 L 601 331 C 602.808 330.991 604.475 331.491 606 332.5 C 615.91199 339.41099 622.98131 348.70024 630.5 358 C 643.12609 372.7533 652.81032 372.95538 668.5 393 C 669.477 395.24 669.977 397.573 670 400 L 681 400 C 682.151 395.334 682.151 390.667 681 386 C 671.88901 371.22139 659.89609 364.9183 647 353.5 C 629.17152 337.71454 643.09524 344.5652 615.23047 322.71289 C 612.46747 320.54611 608.47673 320.00992 604.67969 319.94727 z " />
    <text
       xml:space="preserve"
       style="font-style:normal;font-variant:normal;font-weight:bold;font-stretch:normal;font-size:53.3333px;font-family:'Minion Pro';-inkscape-font-specification:'Minion Pro Bold';letter-spacing:0px;fill:#000000;fill-opacity:1;stroke:none;stroke-width:7.55906"
       x="666.63342"
       y="322.71332"
       id="text141"><tspan
         id="tspan141"
         x="666.63342"
         y="322.71332">TÁ</tspan></text>
  </g>
  <g
     id="g158"
     transform="translate(400.0001,-400)">
    <path
       id="path90"
       style="fill:#cd3c37;fill-opacity:1"
       d="m 39,401 c -1.173439,12.45063 2.245771,25.09363 9.021484,35.55273 2.411518,4.24398 5.51203,9.44665 11.240235,8.73438 C 64.864933,445.50903 68.888497,438.59632 65.5,434 57.258758,424.82988 51.787228,413.20057 50,401 Z m 95,0 c 0.0914,1.63319 0.0771,3.27271 -0.0391,4.9043 -0.3788,3.46456 -0.67392,7.1309 -2.47852,10.19531 -3.44989,5.31046 -9.72963,7.46119 -14.73633,10.92578 -2.91279,2.39943 -6.50551,3.70033 -9.66211,5.72266 -3.06259,1.79808 -5.90773,4.9198 -5.52343,8.7207 -0.0659,2.51878 1.97729,4.76038 4.49218,4.91211 4.86,0.41288 9.48476,-1.66773 13.84766,-3.54688 5.605,-4.1974 12.22714,-6.80574 17.83203,-11.01171 2.1958,-1.52684 4.01645,-3.55188 5.02735,-6.05274 C 146.23256,417.96309 144.6074,409.25195 145,401 Z M 11.320312,449.96484 C 7.874547,449.90982 4.4251241,449.95187 1,450 v 11 c 15.036185,0.89657 29.071245,7.47606 44,9.5 51.315649,6.95701 103.33335,7 155,10.5 v -11 c -26.91567,-1.71342 -53.8256,-3.5089 -80.73047,-5.38477 -25.938673,-2.64616 -52.601863,-1.24032 -77.755858,-9.10546 -9.548601,-4.34425 -19.856063,-5.37986 -30.19336,-5.54493 z M 181.54492,495.0293 c -2.53864,-0.15502 -5.52983,1.15169 -6.07226,3.39062 C 164.34507,544.34744 118.73271,534.17269 72.501953,529.875 48.718737,527.66407 24.835376,526.667 1,525 v 11 c 32.690367,2.446 65.357133,5.113 98,8 -9.398491,20.06771 -30.697299,32.92341 -30,56 h 11 c 1.060399,-12.67961 17.087406,-21.66925 23.5,-32 0.5,10.66099 0.667,21.32801 0.5,32 h 11 c 0.402,-18.33198 0.736,-36.66502 1,-55 26.28847,3.33804 49.28307,2.32265 63.75195,-23.55078 4.457,-7.42654 8.83475,-16.54796 5.24805,-24.44922 -0.57131,-1.25854 -1.93189,-1.87769 -3.45508,-1.9707 z" />
    <text
       xml:space="preserve"
       style="font-style:normal;font-variant:normal;font-weight:bold;font-stretch:normal;font-size:53.3333px;font-family:'Minion Pro';-inkscape-font-specification:'Minion Pro Bold';letter-spacing:0px;fill:#000000;fill-opacity:1;stroke:none;stroke-width:7.55906"
       x="69.193283"
       y="522.71332"
       id="text142"><tspan
         id="tspan142"
         x="69.193283"
         y="522.71332">ÉP</tspan></text>
  </g>
  <g
     id="g157"
     transform="translate(-199.99994,4.1007996e-5)">
    <path
       id="path93"
       style="fill:#cd3c37;fill-opacity:1"
       d="m 249,401 c -0.378,9.66499 -0.711,19.33101 -1,29 -15.64498,-0.902 -31.31202,-1.235 -47,-1 v 11 c 40.66696,0.645 81.33404,1.312 122,2 0.027,6.20499 3.439,10.24173 7.5,15 2.4077,2.82115 3.6878,6.83321 3.5,10.5 -1.9568,27.17557 -12.52868,57.85796 6.5,81.5 16.05888,16.70626 33.25773,19.76534 59.5,21 V 559 C 371.16123,557.66172 344.90576,549.52632 341.44727,515.80078 339.48317,496.64799 344.351,476.29298 344.5,457 c -0.714,-6.76199 -3.548,-12.429 -8.5,-17 -0.999,-12.98299 -1.332,-25.98301 -1,-39 h -11 v 30 c -21.65898,-0.704 -43.32602,-1.037 -65,-1 0.86,-9.63899 1.193,-19.30601 1,-29 z m -38.92969,142.7832 c -3.0272,-0.0259 -6.06176,0.0804 -9.07031,0.2168 v 11 c 5.75619,-0.23088 12.1644,-0.63136 17,2.5 8.35899,5.41299 15.3907,13.42911 19.5,22.5 2.7669,6.10755 1.8778,13.30615 1.5,20 h 11 c 0.637,-21.32499 0.99938,-29.20051 -13.25391,-45.4082 C 233.3658,550.748 229.8821,546.76782 225,545.5 c -4.85843,-1.26169 -9.88436,-1.67358 -14.92969,-1.7168 z" />
    <text
       xml:space="preserve"
       style="font-style:normal;font-variant:normal;font-weight:bold;font-stretch:normal;font-size:53.3333px;font-family:'Minion Pro';-inkscape-font-specification:'Minion Pro Bold';letter-spacing:0px;fill:#000000;fill-opacity:1;stroke:none;stroke-width:7.55906"
       x="263.06006"
       y="522.6333"
       id="text143"><tspan
         id="tspan143"
         x="263.06006"
         y="522.6333">ČA</tspan></text>
  </g>
  <g
     id="g156"
     transform="translate(-199.99995,2.1648407e-5)">
    <path
       id="path97"
       style="fill:#cd3c37;fill-opacity:1"
       d="m 455,401 c -11.36579,61.9492 66.19743,72.70656 93.5,37 8.57409,-11.21327 13.475,-22.94501 12.5,-37 h -11 c 0.8569,10.72183 -15.00771,30.41427 -21,36.5 -2.9823,3.02876 -6.753,5.37405 -11,6 -9.98129,1.47109 -20.71321,2.88103 -30,-1 -16.96538,-7.08996 -23.216,-23.09802 -22,-41.5 z m 136.29688,7.83984 c -1.73888,-0.0161 -3.47132,0.0826 -5.18555,0.48438 -24.29358,4.0519 -41.0128,38.53822 -27.44531,57.03711 5.51599,8.51027 19.11425,12.52232 26.87304,4.7207 10.63019,-12.08463 5.72859,-37.76232 -6.8457,-30.36719 -6.02999,4.98943 2.80425,9.22896 -0.0312,16 -2.7873,7.79312 -12.135,-1.26488 -12.125,-7.3125 C 566.56311,429.45229 584.03912,418.34425 600,420 v -11 c -2.888,0.21157 -5.80501,-0.13331 -8.70312,-0.16016 z M 401,559 v 11 c 26.33497,0.611 52.66803,1.278 79,2 v 28 h 11 v -28 c 36.30796,1.536 72.64104,2.536 109,3 v -11 c -66.32793,-1.87 -132.66107,-3.537 -199,-5 z" />
    <text
       xml:space="preserve"
       style="font-style:normal;font-variant:normal;font-weight:bold;font-stretch:normal;font-size:53.3333px;font-family:'Minion Pro';-inkscape-font-specification:'Minion Pro Bold';letter-spacing:0px;fill:#000000;fill-opacity:1;stroke:none;stroke-width:7.55906"
       x="467.85986"
       y="515"
       id="text144"><tspan
         id="tspan144"
         x="467.85986"
         y="515">ŤS</tspan></text>
  </g>
  <g
     id="g155"
     transform="translate(-399.99995,-400)">
    <path
       id="path100"
       style="fill:#cd3c37;fill-opacity:1"
       d="m 719,401 c 0.4388,11.27076 -0.37467,23.72664 6.42383,33.41797 8.52429,11.95362 28.24176,14.9908 17.35937,21.53711 -19.07118,19.63935 -24.73759,34.72965 -20.125,60.48437 6.8293,18.82233 14.1116,21.21406 77.33594,18.56055 L 800,524.17969 c -24.12648,-0.82856 -60.00879,10.66156 -63.11719,-23.67969 -1.7278,-19.08902 9.67605,-36.4812 27.11524,-41 11.99018,0.39449 23.98788,0.55429 35.98437,0.5 v -11 c -13.00529,-0.0399 -26.00971,-0.37399 -39,-1 2.5355,-13.33136 -33.0001,-13.40252 -31,-47 z m -118,68 v 11 c 17.69298,3.528 30.19301,13.52802 37.5,30 4.302,13.15999 2.58402,13.56544 -7.51367,4.08789 -4.6952,-4.40687 -9.50231,-5.98628 -15.50391,-8.20312 C 611.09083,504.26259 605.679,503.83791 601,504.00391 V 515 c 7.17999,2.587 15.43435,4.75835 21.83984,9.17578 C 650.99972,543.5956 653.47601,559.1185 659,600 h 11 c 0.7178,-32.49902 -13.724,-63.13253 -18.5,-95 -8.43699,-23.95698 -25.27103,-35.957 -50.5,-36 z" />
    <text
       xml:space="preserve"
       style="font-style:normal;font-variant:normal;font-weight:bold;font-stretch:normal;font-size:53.3333px;font-family:'Minion Pro';-inkscape-font-specification:'Minion Pro Bold';letter-spacing:0px;fill:#000000;fill-opacity:1;stroke:none;stroke-width:7.55906"
       x="663.94006"
       y="522.36664"
       id="text145"><tspan
         id="tspan145"
         x="663.94006"
         y="522.36664">ŽN</tspan></text>
  </g>
</svg>
