<svg xmlns:xlink="http://www.w3.org/1999/xlink" width="130mm" height="120mm" viewBox="0 0 130 120"><defs><path id="c" fill="none" stroke="#000" stroke-width=".26" d="m46.3 42.33-2.64 3.97L41 48.95l3.97 5.29 6.61-3.97v-7.94H46.3"/><path id="d" fill="none" stroke="#000" stroke-width=".26" d="m46.3 42.33 2.65-3.97 2.64-2.64H39.7v9.26l6.61-1.32v-1.33"/><path id="e" fill="none" stroke="#000" stroke-width=".26" d="m25.14 18.52-2.65 2.65-7.94 7.93-2.64-9.26 6.61-3.96 6.62 2.64"/><path id="f" stroke="#000" stroke-width=".26" d="M14.55 25.14s0-6.62 5.3-6.62c5.29 0 5.29 3.97 5.29 3.97" clip-path="url(#a)"/><path id="h" stroke="#000" stroke-width=".27" d="M51.6 39.16s0-3.26-5.3-3.26c-5.29 0-5.03 3.26-5.03 3.26s-.2 2.52 5.03 3.26c4.72.66 5.02 3.1 5.03 3.09 0 0 .26 3.44-5.03 3.44s-5.29-3.27-5.29-3.27" clip-path="url(#b)"/><clipPath id="i" clipPathUnits="userSpaceOnUse"><use xlink:href="#c" stroke-width=".26"/></clipPath><clipPath id="j" clipPathUnits="userSpaceOnUse"><use xlink:href="#c" stroke-width=".26"/></clipPath></defs><defs><clipPath id="b" clipPathUnits="userSpaceOnUse"><use xlink:href="#c" stroke-width=".26"/></clipPath><clipPath id="k" clipPathUnits="userSpaceOnUse"><use xlink:href="#d" stroke-width=".26"/></clipPath><clipPath id="l" clipPathUnits="userSpaceOnUse"><use xlink:href="#d" stroke-width=".26"/></clipPath><clipPath id="m" clipPathUnits="userSpaceOnUse"><use xlink:href="#c" stroke-width=".26"/></clipPath><clipPath id="a" clipPathUnits="userSpaceOnUse"><use xlink:href="#e" stroke-width=".26"/></clipPath><clipPath id="n" clipPathUnits="userSpaceOnUse"><use xlink:href="#e" stroke-width=".26"/></clipPath><clipPath id="g" clipPathUnits="userSpaceOnUse"><use xlink:href="#e" stroke-width=".26"/></clipPath><clipPath id="o" clipPathUnits="userSpaceOnUse"><use xlink:href="#e" stroke-width=".26"/></clipPath><clipPath id="p" clipPathUnits="userSpaceOnUse"><use xlink:href="#e" stroke-width=".26"/></clipPath><clipPath id="q" clipPathUnits="userSpaceOnUse"><use xlink:href="#e" stroke-width=".26"/></clipPath></defs><path fill="none" stroke="#000" stroke-linejoin="bevel" stroke-width=".27" d="M7.67 7.94V1.32l5.3 6.62"/><path fill="none" stroke="#000" stroke-width=".26" d="M18.26 7.94V1.32M7.67 7.94v6.61m10.59-6.61v6.61"/><g fill="none" stroke="red"><path stroke-width=".26" d="M26.46-26.46h10.58"/><path stroke-width=".27" d="M26.46-33.07v13.23h10.58v-13.23z"/></g><path fill="none" stroke="#000" stroke-width=".26" d="M20.9 1.32v6.62m10.59-6.62v6.62m-5.29 0 5.29 6.61V7.94m-10.59 0v6.61m13.23-6.61V1.32l5.3 6.62 5.28-6.62v6.62m-10.58 0zm0 0s0 6.61 5.3 6.61c5.28 0 5.28-6.61 5.28-6.61M20.9 42.33s0 6.62 5.3 6.62c5.29 0 5.29-6.62 5.29-6.62M7.67 25.14v-6.62s10.59 0 10.59 6.62M7.67 75.4v-6.6s10.59 0 10.59 6.6m55.56 17.2V86s10.58 0 10.58 6.61"/><g fill="none" stroke="#000" stroke-width=".26"><path d="M7.67 25.14s0 6.61 5.3 6.61"/><path d="M18.26 25.14s0 6.61-5.3 6.61"/></g><g fill="none" stroke="#000" stroke-width=".26"><path d="M7.67 92.6s0 6.62 5.3 6.62"/><path d="M18.26 92.6s0 6.62-5.3 6.62"/></g><use xlink:href="#f" width="100%" height="100%" fill="none" stroke-width=".26" clip-path="url(#a)" transform="translate(6.35)"/><path fill="none" stroke="#000" stroke-width=".26" d="M20.9 25.14v6.61s10.59 0 10.59-6.61M20.9 75.4v6.62s10.59 0 10.59-6.61m29.1 17.19v6.62s10.58 0 10.58-6.62M34.13 25.14s0-6.62 5.3-6.62c5.28 0 5.28 6.62 5.28 6.62m2.65 67.46s0-6.61 5.3-6.61c5.28 0 5.28 6.61 5.28 6.61M7.67 109.8s0-6.61 5.3-6.61c5.29 0 5.29 6.61 5.29 6.61"/><use xlink:href="#f" width="100%" height="100%" fill="none" stroke-width=".26" clip-path="url(#g)" transform="translate(71.17 34.4)"/><path fill="none" stroke="#000" stroke-width=".26" d="M47.36 18.52v6.62-1.33h10.58v-5.29 6.62"/><path fill="none" stroke="#000" stroke-width=".26" d="M47.36 25.14v6.61s6.62 0 6.62-3.44-6.62-3.44-6.62-3.44m11.91 34.66v6.62s6.61 0 6.61-3.44-6.61-3.44-6.61-3.44m41.01 33.6v6.61s6.61 0 6.61-3.44-6.61-3.44-6.61-3.44M60.59 18.52v6.62s6.36.01 6.36-3.43-6.36-3.19-6.36-3.19m11.91 34.4v6.61s6.36.02 6.36-3.42-6.36-3.2-6.36-3.2M60.59 85.99v6.61s6.36.02 6.36-3.42S60.6 86 60.6 86m-.01-60.86v6.61m10.58-6.61v6.61m2.65-13.23 5.29 6.62 5.3-6.62M73.82 31.75v-6.61m10.58 0v6.61m-11.9 34.4v-6.62m10.58 0v6.62M7.67 82.02v-6.61m10.59-.01v6.62m68.79-50.27 5.29-6.61 5.3 6.61m-10.59-6.61v-6.62l5.29 6.62 5.3-6.62v6.62M7.67 42.33v-6.61l5.3 6.61 5.29-6.61v6.61m-10.59 0v6.62h10.59m29.1 43.65v6.62h10.58M20.9 35.72v6.61m0 43.66v6.61m0 0v6.62m13.23-63.5v6.61m0 0v6.62m10.58-13.23v13.23M34.13 85.99v6.61m0 0v6.62m10.58-13.23v13.23m7.94-56.89v-6.61h-5.29 10.58"/><use xlink:href="#h" width="100%" height="100%" fill="none" stroke-width=".27" clip-path="url(#b)" transform="translate(6.35 -.26)"/><use xlink:href="#h" width="100%" height="100%" fill="none" stroke-width=".27" clip-path="url(#i)" transform="rotate(179.83 56.22 42.55)"/><use xlink:href="#h" width="100%" height="100%" fill="none" stroke-width=".27" clip-path="url(#j)" transform="rotate(179.83 42.85 50.92)"/><use xlink:href="#h" width="100%" height="100%" fill="none" stroke-width=".27" clip-path="url(#k)" transform="translate(19.58)"/><path fill="none" stroke="#000" stroke-width=".26" d="M65.88 42.33v6.62"/><use xlink:href="#h" width="100%" height="100%" fill="none" stroke-width=".27" clip-path="url(#l)" transform="translate(-6.88 17.2)"/><path fill="none" stroke="#000" stroke-width=".26" d="M39.42 59.53v6.62M7.67 59.53v-6.61l5.3 6.61m5.29 0v-6.61M7.67 59.53v6.62h10.59m-10.59-5.3h7.94M7.67 109.8v6.62h10.59m-10.59-5.29h7.94m15.88-58.21H20.9v6.61m5.3 0 5.29 6.62m0-6.62v6.62M20.9 59.53v6.62-6.62 6.62m30.43-6.35v-6.62h-5.3 10.6"/><use xlink:href="#h" width="100%" height="100%" fill="none" stroke-width=".27" clip-path="url(#m)" transform="translate(5.03 17.2)"/><g fill="none" stroke="#000" stroke-width=".26"><path d="M98.95 59.53s0 6.62 5.3 6.62"/><path d="M109.54 59.53s0 6.62-5.3 6.62"/></g><g fill="none" stroke="#000" stroke-width=".26"><path d="M87.05 92.6s0 6.62 5.29 6.62"/><path d="M97.63 92.6s0 6.62-5.29 6.62"/></g><path fill="none" stroke="#000" stroke-width=".26" d="M85.73 66.15v-6.62m23.81-6.61H98.95v5.29h7.94-7.94v1.32m-39.68 0v-6.61l5.29 6.61 5.29-6.61v6.61M34.13 75.4v-6.6l5.3 6.6 5.28-6.6v6.6M7.67 92.6V86l5.3 6.61L18.25 86v6.61m76.74 3.96 2.64 2.65"/><g fill="none" stroke="#000" stroke-width=".26"><path d="M20.9 109.8s0 6.62 5.3 6.62"/><path d="M31.49 109.8s0 6.62-5.3 6.62"/></g><path fill="none" stroke="#000" stroke-width=".26" d="m28.84 113.77 2.65 2.65m80.69-63.5v6.61m10.59 0v-6.61M87.05 92.6V86m0-.01s5.29 0 5.29 2.65c0 2.64-5.3 2.64-5.3 2.64m13.24 1.32 6.61-6.61m-6.61 0v6.61m-26.46 0v6.62m0-6.62 6.61 6.62m19.85-6.09v-.53M20.9 109.8v-6.61h10.6m2.63 6.61s0-6.61 5.3-6.61c5.28 0 5.28 3.97 5.28 3.97m2.65-3.97v6.61-1.32h10.58v-5.3 6.62m2.65-6.61v6.61m10.58 0v-6.61m-37.04 6.61v6.62l5.3-6.62 5.28 6.62v-6.62m2.65 0s0 6.62 5.3 6.62c5.28 0 5.28-5.3 5.28-5.3h-7.93m10.58-1.32v6.62m10.58-6.62v6.62"/><use xlink:href="#f" width="100%" height="100%" fill="none" stroke-width=".26" clip-path="url(#n)" transform="matrix(1 0 0 -1 19.58 50.27)"/><use xlink:href="#f" width="100%" height="100%" fill="none" stroke-width=".26" clip-path="url(#o)" transform="matrix(1 0 0 -1 97.63 84.67)"/><use xlink:href="#f" width="100%" height="100%" fill="none" stroke-width=".26" clip-path="url(#p)" transform="translate(6.35 50.27)"/><use xlink:href="#f" width="100%" height="100%" fill="none" stroke-width=".26" clip-path="url(#q)" transform="matrix(1 0 0 -1 19.58 100.54)"/></svg>