<svg width="700" height="800" xmlns="http://www.w3.org/2000/svg" xmlns:xlink="http://www.w3.org/1999/xlink">
<g id="graph0" class="graph" transform="translate(20,760)">
<polygon fill="white" stroke="none" points="-4,4 -4,-755.51 625.05,-755.51 625.05,4 -4,4"></polygon>
<!-- a -->
<g id="node1" class="node">

<ellipse fill="none" stroke="black" cx="189.26" cy="-513.96" rx="27" ry="18"></ellipse>
<text text-anchor="middle" x="189.26" y="-509.76" font-family="Times,serif" font-size="14.00"></text>
</g>
<!-- b -->
<g id="node2" class="node">

<ellipse fill="none" stroke="black" cx="217.44" cy="-436.48" rx="27" ry="18"></ellipse>
<text text-anchor="middle" x="217.44" y="-432.28" font-family="Times,serif" font-size="14.00"></text>
</g>
<!-- a&#45;&gt;b -->
<g id="edge1" class="edge">

<path fill="none" stroke="black" d="M195.66,-496.38C200.24,-483.79 206.38,-466.9 210.97,-454.26"></path>
</g>
<!-- c -->
<g id="node3" class="node">

<ellipse fill="none" stroke="black" cx="234.21" cy="-589.96" rx="27" ry="18"></ellipse>
<text text-anchor="middle" x="234.21" y="-585.76" font-family="Times,serif" font-size="14.00"></text>
</g>
<!-- c&#45;&gt;b -->
<g id="edge2" class="edge">

<path fill="none" stroke="black" d="M199.24,-530.83C206.63,-543.34 216.68,-560.32 224.1,-572.88"></path>
</g>
<!-- d -->
<g id="node4" class="node">

<ellipse fill="none" stroke="black" cx="256.28" cy="-491.37" rx="27" ry="18"></ellipse>
<text text-anchor="middle" x="256.28" y="-487.17" font-family="Times,serif" font-size="14.00"></text>
</g>
<!-- d&#45;&gt;b -->
<g id="edge3" class="edge">

<path fill="none" stroke="black" d="M213.84,-505.68C219.66,-503.71 225.88,-501.62 231.71,-499.65"></path>
</g>
<!-- 19 -->
<g id="node5" class="node">

<ellipse fill="none" stroke="black" cx="102.72" cy="-516.59" rx="27" ry="18"></ellipse>
<text text-anchor="middle" x="102.72" y="-512.39" font-family="Times,serif" font-size="14.00">1</text>
</g>
<!-- 0&#45;&#45;19 -->
<g id="edge4" class="edge">

<path fill="none" stroke="black" d="M161.88,-514.79C151.68,-515.1 140.11,-515.45 129.93,-515.76"></path>
</g>
<!-- 25 -->
<g id="node6" class="node">

<ellipse fill="none" stroke="black" cx="171.98" cy="-582.72" rx="27" ry="18"></ellipse>
<text text-anchor="middle" x="171.98" y="-578.52" font-family="Times,serif" font-size="14.00"></text>
</g>
<!-- 0&#45;&#45;25 -->
<g id="edge5" class="edge">

<path fill="none" stroke="black" d="M184.72,-532.03C182.2,-542.05 179.08,-554.49 176.55,-564.54"></path>
</g>
<!-- 3&#45;&#45;11 -->
<g id="edge14" class="edge">

<path fill="none" stroke="black" d="M229.09,-452.95C234.01,-459.89 239.72,-467.96 244.63,-474.91"></path>
</g>
<!-- 4 -->
<g id="node15" class="node">

<ellipse fill="none" stroke="black" cx="247.15" cy="-363.6" rx="27" ry="18"></ellipse>
<text text-anchor="middle" x="247.15" y="-359.4" font-family="Times,serif" font-size="14.00">6</text>
</g>
<!-- 3&#45;&#45;4 -->
<g id="edge13" class="edge">

<path fill="none" stroke="black" d="M224.63,-418.84C229.27,-407.46 235.28,-392.72 239.92,-381.33"></path>
</g>
<!-- 8&#45;&#45;25 -->
<g id="edge24" class="edge">

<path fill="none" stroke="black" d="M207.46,-586.85C204.56,-586.51 201.61,-586.17 198.71,-585.83"></path>
</g>
<!-- 14 -->
<g id="node21" class="node">

<ellipse fill="none" stroke="black" cx="264.1" cy="-662.34" rx="27" ry="18"></ellipse>
<text text-anchor="middle" x="264.1" y="-658.14" font-family="Times,serif" font-size="14.00">3</text>
</g>
<!-- 8&#45;&#45;14 -->
<g id="edge23" class="edge">

<path fill="none" stroke="black" d="M241.44,-607.49C246.11,-618.78 252.16,-633.42 256.83,-644.73"></path>
</g>
<!-- 23 -->
<g id="node25" class="node">

<ellipse fill="none" stroke="black" cx="27" cy="-538.21" rx="27" ry="18"></ellipse>
<text text-anchor="middle" x="27" y="-534.01" font-family="Times,serif" font-size="14.00"></text>
</g>
<!-- 19&#45;&#45;23 -->
<g id="edge31" class="edge">

<path fill="none" stroke="black" d="M77.51,-523.79C69.33,-526.12 60.27,-528.71 52.11,-531.04"></path>
</g>
<!-- 1 -->
<g id="node7" class="node">

<ellipse fill="none" stroke="black" cx="404.58" cy="-192.78" rx="27" ry="18"></ellipse>
<text text-anchor="middle" x="404.58" y="-188.58" font-family="Times,serif" font-size="14.00"></text>
</g>
<!-- 2 -->
<g id="node8" class="node">

<ellipse fill="none" stroke="black" cx="368.33" cy="-112.29" rx="27" ry="18"></ellipse>
<text text-anchor="middle" x="368.33" y="-108.09" font-family="Times,serif" font-size="14.00"></text>
</g>
<!-- 1&#45;&#45;2 -->
<g id="edge6" class="edge">

<path fill="none" stroke="black" d="M396.72,-175.31C390.63,-161.81 382.26,-143.21 376.18,-129.72"></path>
</g>
<!-- 7 -->
<g id="node9" class="node">

<ellipse fill="none" stroke="black" cx="458.39" cy="-144.45" rx="27" ry="18"></ellipse>
<text text-anchor="middle" x="458.39" y="-140.25" font-family="Times,serif" font-size="14.00"></text>
</g>
<!-- 1&#45;&#45;7 -->
<g id="edge7" class="edge">

<path fill="none" stroke="black" d="M421.02,-178.01C427.7,-172.02 435.39,-165.11 442.06,-159.12"></path>
</g>
<!-- 24 -->
<g id="node10" class="node">

<ellipse fill="none" stroke="black" cx="364.06" cy="-267.59" rx="27" ry="18"></ellipse>
<text text-anchor="middle" x="364.06" y="-263.39" font-family="Times,serif" font-size="14.00"></text>
</g>
<!-- 1&#45;&#45;24 -->
<g id="edge8" class="edge">

<path fill="none" stroke="black" d="M395.18,-210.13C388.64,-222.21 379.94,-238.27 373.41,-250.33"></path>
</g>
<!-- 10 -->
<g id="node11" class="node">

<ellipse fill="none" stroke="black" cx="304.16" cy="-83.08" rx="27" ry="18"></ellipse>
<text text-anchor="middle" x="304.16" y="-78.88" font-family="Times,serif" font-size="14.00"></text>
</g>
<!-- 2&#45;&#45;10 -->
<g id="edge9" class="edge">

<path fill="none" stroke="black" d="M345.88,-102.07C339.67,-99.24 332.92,-96.17 326.7,-93.34"></path>
</g>
<!-- 16 -->
<g id="node12" class="node">

<ellipse fill="none" stroke="black" cx="311.52" cy="-165.91" rx="27" ry="18"></ellipse>
<text text-anchor="middle" x="311.52" y="-161.71" font-family="Times,serif" font-size="14.00"></text>
</g>
<!-- 2&#45;&#45;16 -->
<g id="edge10" class="edge">

<path fill="none" stroke="black" d="M352.5,-127.22C344.62,-134.66 335.13,-143.62 327.26,-151.05"></path>
</g>
<!-- 21 -->
<g id="node13" class="node">

<ellipse fill="none" stroke="black" cx="344.36" cy="-18" rx="27" ry="18"></ellipse>
<text text-anchor="middle" x="344.36" y="-13.8" font-family="Times,serif" font-size="14.00"></text>
</g>
<!-- 2&#45;&#45;21 -->
<g id="edge11" class="edge">

<path fill="none" stroke="black" d="M363.7,-94.11C359.46,-77.41 353.21,-52.8 348.97,-36.12"></path>
</g>
<!-- 22 -->
<g id="node14" class="node">

<ellipse fill="none" stroke="black" cx="451.56" cy="-71.21" rx="27" ry="18"></ellipse>
<text text-anchor="middle" x="451.56" y="-67.01" font-family="Times,serif" font-size="14.00"></text>
</g>
<!-- 2&#45;&#45;22 -->
<g id="edge12" class="edge">

<path fill="none" stroke="black" d="M390.19,-101.5C402.33,-95.5 417.39,-88.07 429.55,-82.07"></path>
</g>
<!-- 12 -->
<g id="node19" class="node">

<ellipse fill="none" stroke="black" cx="520.09" cy="-106.77" rx="27" ry="18"></ellipse>
<text text-anchor="middle" x="520.09" y="-102.57" font-family="Times,serif" font-size="14.00"></text>
</g>
<!-- 7&#45;&#45;12 -->
<g id="edge21" class="edge">

<path fill="none" stroke="black" d="M478.6,-132.11C485.48,-127.9 493.18,-123.2 500.06,-119"></path>
</g>
<!-- 15 -->
<g id="node20" class="node">

<ellipse fill="none" stroke="black" cx="395.5" cy="-63.3" rx="27" ry="18"></ellipse>
<text text-anchor="middle" x="395.5" y="-59.1" font-family="Times,serif" font-size="14.00"></text>
</g>
<!-- 7&#45;&#45;15 -->
<g id="edge22" class="edge">

<path fill="none" stroke="black" d="M445.97,-128.42C435.01,-114.28 419.13,-93.78 408.11,-79.58"></path>
</g>
<!-- 10&#45;&#45;15 -->
<g id="edge25" class="edge">

<path fill="none" stroke="black" d="M330.09,-77.46C342.43,-74.79 357.15,-71.6 369.5,-68.93"></path>
</g>
<!-- 18 -->
<g id="node22" class="node">

<ellipse fill="none" stroke="black" cx="228.11" cy="-131.48" rx="27" ry="18"></ellipse>
<text text-anchor="middle" x="228.11" y="-127.28" font-family="Times,serif" font-size="14.00">5</text>
</g>
<!-- 10&#45;&#45;18 -->
<g id="edge26" class="edge">

<path fill="none" stroke="black" d="M284.57,-95.54C273.31,-102.72 259.19,-111.7 247.89,-118.89"></path>
</g>
<!-- 5 -->
<g id="node16" class="node">

<ellipse fill="none" stroke="black" cx="275.35" cy="-289.5" rx="27" ry="18"></ellipse>
<text text-anchor="middle" x="275.35" y="-285.3" font-family="Times,serif" font-size="14.00">4, 7</text>
</g>
<!-- 4&#45;&#45;5 -->
<g id="edge15" class="edge">

<path fill="none" stroke="black" d="M253.83,-346.04C258.3,-334.31 264.14,-318.94 268.62,-307.19"></path>
</g>
<!-- 5&#45;&#45;24 -->
<g id="edge18" class="edge">

<path fill="none" stroke="black" d="M301.01,-283.16C312.78,-280.26 326.7,-276.82 338.46,-273.91"></path>
</g>
<!-- 6 -->
<g id="node17" class="node">

<ellipse fill="none" stroke="black" cx="265.28" cy="-227.97" rx="27" ry="18"></ellipse>
<text text-anchor="middle" x="265.28" y="-223.77" font-family="Times,serif" font-size="14.00">2</text>
</g>
<!-- 5&#45;&#45;6 -->
<g id="edge16" class="edge">

<path fill="none" stroke="black" d="M272.38,-271.37C271.08,-263.43 269.56,-254.13 268.26,-246.18"></path>
</g>
<!-- 17 -->
<g id="node18" class="node">

<ellipse fill="none" stroke="black" cx="209.52" cy="-219.58" rx="27" ry="18"></ellipse>
<text text-anchor="middle" x="209.52" y="-215.38" font-family="Times,serif" font-size="14.00"></text>
</g>
<!-- 5&#45;&#45;17 -->
<g id="edge17" class="edge">

<path fill="none" stroke="black" d="M260.74,-273.98C249.83,-262.39 234.99,-246.63 224.09,-235.05"></path>
</g>
<!-- 6&#45;&#45;16 -->
<g id="edge19" class="edge">

<path fill="none" stroke="black" d="M277.43,-211.66C284.17,-202.61 292.54,-191.39 299.29,-182.32"></path>
</g>
<!-- 17&#45;&#45;18 -->
<g id="edge30" class="edge">

<path fill="none" stroke="black" d="M213.38,-201.32C216.57,-186.2 221.08,-164.83 224.27,-149.71"></path>
</g>
<!-- 12&#45;&#45;22 -->
<g id="edge28" class="edge">

<path fill="none" stroke="black" d="M498.41,-95.52C490.25,-91.29 480.99,-86.48 472.87,-82.27"></path>
</g>
<!-- 13 -->
<g id="node23" class="node">

<ellipse fill="none" stroke="black" cx="594.05" cy="-93.87" rx="27" ry="18"></ellipse>
<text text-anchor="middle" x="594.05" y="-89.67" font-family="Times,serif" font-size="14.00"></text>
</g>
<!-- 12&#45;&#45;13 -->
<g id="edge27" class="edge">

<path fill="none" stroke="black" d="M546.38,-102.19C553.35,-100.97 560.88,-99.66 567.85,-98.44"></path>
</g>
<!-- 20 -->
<g id="node24" class="node">

<ellipse fill="none" stroke="black" cx="286.28" cy="-733.51" rx="27" ry="18"></ellipse>
<text text-anchor="middle" x="286.28" y="-729.31" font-family="Times,serif" font-size="14.00"></text>
</g>
<!-- 14&#45;&#45;20 -->
<g id="edge29" class="edge">

<path fill="none" stroke="black" d="M269.7,-680.3C273.09,-691.17 277.39,-704.98 280.76,-715.8"></path>
</g>
</g>
<g id="node53" class="node">
<ellipse fill="none" stroke="black" cx="467" cy="-234" rx="27" ry="18"></ellipse>

<ellipse fill="none" stroke="black" cx="100" cy="400" rx="27" ry="18"></ellipse>
<text text-anchor="middle" x="100" y="400" font-family="Times,serif" font-size="14.00"></text>


</g>


<g id="texts" transform="translate(300, 200)">
<text x="10" y="20" font-family="Times,serif" font-size="14.00">Osmica bitov (4)</text>
<text x="10" y="40" font-family="Times,serif" font-size="14.00">Kapela, po anglicky (4)</text>
<text x="10" y="60" font-family="Times,serif" font-size="14.00">Podmieňovací spôsob slovesa byť v prvej osobe po česky (4)</text>
<text x="10" y="80" font-family="Times,serif" font-size="14.00">Niečo nesprávne, omyl (5)</text>
<text x="10" y="100" font-family="Times,serif" font-size="14.00">Tabuľkový procesor od Microsoftu (5)</text>
<text x="10" y="120" font-family="Times,serif" font-size="14.00">Značka sily (1)</text>
<text x="10" y="140" font-family="Times,serif" font-size="14.00">Magisterský titul z prírodných vied v anglosaských krajinách (3)</text>
<text x="10" y="160" font-family="Times,serif" font-size="14.00">Kovový plát (5)</text>
<text x="10" y="180" font-family="Times,serif" font-size="14.00">Hlavné mesto Ekvádoru (5)</text>
<text x="10" y="200" font-family="Times,serif" font-size="14.00">Patriaci pruhovanej mačkovitej šelme (6)</text>
<text x="10" y="220" font-family="Times,serif" font-size="14.00">Jeden z najbežnejších hadov u nás (6)</text>
<text x="10" y="240" font-family="Times,serif" font-size="14.00">Textový procesor od Microsoftu (4)</text>
</g>
</svg>