<?xml version="1.0" encoding="UTF-8" standalone="no"?>
<!-- Created with Inkscape (http://www.inkscape.org/) -->

<svg
   width="146.4939mm"
   height="55.845821mm"
   viewBox="0 0 146.4939 55.845821"
   version="1.1"
   id="svg1"
   xml:space="preserve"
   xmlns="http://www.w3.org/2000/svg"
   xmlns:svg="http://www.w3.org/2000/svg"><defs
     id="defs1"><clipPath
       clipPathUnits="userSpaceOnUse"
       id="clipPath51"><path
         d="M 36.48,201.36 H 192.36 V 305.4 H 36.48 Z"
         transform="matrix(0.00641519,0,0,-0.00961169,-0.23402617,2.9354095)"
         clip-rule="evenodd"
         id="path51" /></clipPath><clipPath
       clipPathUnits="userSpaceOnUse"
       id="clipPath54"><path
         d="M 192.24,197.64 H 348.12 V 305.4 H 192.24 Z"
         transform="matrix(0.00641519,0,0,-0.00962093,-1.2332564,2.9382335)"
         clip-rule="evenodd"
         id="path54" /></clipPath><clipPath
       clipPathUnits="userSpaceOnUse"
       id="clipPath49"><path
         d="M 348.12,201.36 H 504 V 305.28 H 348.12 Z"
         transform="matrix(0.00641519,0,0,-0.00962279,-2.2332564,2.9376443)"
         clip-rule="evenodd"
         id="path49" /></clipPath><clipPath
       clipPathUnits="userSpaceOnUse"
       id="clipPath48"><path
         d="M 347.76,305.28 H 504 V 409.32 H 347.76 Z"
         transform="matrix(0.00640041,0,0,-0.00961169,-2.2258065,3.9342561)"
         clip-rule="evenodd"
         id="path48" /></clipPath><clipPath
       clipPathUnits="userSpaceOnUse"
       id="clipPath53"><path
         d="M 192.24,305.28 H 348.12 V 409.2 H 192.24 Z"
         transform="matrix(0.00641519,0,0,-0.00962279,-1.2332564,3.9376443)"
         clip-rule="evenodd"
         id="path53" /></clipPath><clipPath
       clipPathUnits="userSpaceOnUse"
       id="clipPath50"><path
         d="m 36.24,305.16 h 156 V 409.2 h -156 z"
         transform="matrix(0.00641026,0,0,-0.00961169,-0.23230769,3.9331027)"
         clip-rule="evenodd"
         id="path50" /></clipPath><clipPath
       clipPathUnits="userSpaceOnUse"
       id="clipPath47"><path
         d="m 36.24,409.2 h 156 v 103.92 h -156 z"
         transform="matrix(0.00641026,0,0,-0.00962279,-0.23230769,4.9376443)"
         clip-rule="evenodd"
         id="path47" /></clipPath><clipPath
       clipPathUnits="userSpaceOnUse"
       id="clipPath46"><path
         d="M 191.76,409.08 H 353.64 V 513.12 H 191.76 Z"
         transform="matrix(0.00617742,0,0,-0.00961169,-1.1845812,4.9319493)"
         clip-rule="evenodd"
         id="path46" /></clipPath><clipPath
       clipPathUnits="userSpaceOnUse"
       id="clipPath52"><path
         d="M 348.12,396.36 H 504 V 513.24 H 348.12 Z"
         transform="matrix(0.00641519,0,0,-0.00961908,-2.2332564,4.9368989)"
         clip-rule="evenodd"
         id="path52" /></clipPath></defs><g
     id="g1"
     transform="matrix(0.26458333,0,0,0.26458333,13.740013,-1.8782349)"><g
       stroke-width="2"
       fill="none"
       stroke-linecap="butt"
       id="g17"><path
         stroke="#8092bd"
         vector-effect="non-scaling-stroke"
         d="m 54,11.39 q -1.59,1.57 -3.09,3.16 c -2.42,2.57 -5.23,4.44 -7.94,6.51 q -1.44,1.09 0.36,0.96 Q 48.5,21.64 54,19.13"
         id="path1" /><path
         stroke="#e78a95"
         vector-effect="non-scaling-stroke"
         d="m 54,21.32 c -4.36,2.08 -11.27,4 -14.51,3.51 Q 35.11,24.16 30.53,23.92 30.01,23.89 30.02,23.38 L 30.28,9.11"
         id="path2" /><path
         stroke="#8092bd"
         vector-effect="non-scaling-stroke"
         d="m 31.31,9.52 0.2,10.18 a 0.38,0.38 0 0 0 0.55,0.34 Q 40.57,16.03 47.63,9.4"
         id="path3" /><path
         stroke="#e78a95"
         vector-effect="non-scaling-stroke"
         d="m 49.12,9.16 c -5,5.52 -10.44,8.38 -16.36,12.06 q -0.51,0.32 0.05,0.55 C 37.16,23.6 49.83,11.84 52.76,8.68 q 0.21,-0.23 0.25,-0.47 0.04,-0.3 -0.04,-0.55"
         id="path4" /><path
         stroke="#8092bd"
         vector-effect="non-scaling-stroke"
         d="M 22.49,8.01 22.4,18.13 Q 22.39,18.58 21.97,18.44 20.33,17.9 19.96,17.53 13.3,10.84 5.16,8.68"
         id="path5" /><path
         stroke="#e78a95"
         vector-effect="non-scaling-stroke"
         d="m 23.74,8.28 0.23,14.08 Q 23.98,22.9 23.45,22.8 15.9,21.34 9.18,22.17 C 7.43,22.38 1.9,23.55 0,24.85"
         id="path6" /><path
         stroke="#8092bd"
         vector-effect="non-scaling-stroke"
         d="m 0,22.65 q 5.26,-2.65 11.23,-3 0.69,-0.04 0.25,-0.57 C 10.64,18.06 8.93,17.93 8.07,17.49 Q 4.17,15.48 0,14.64"
         id="path7" /><path
         stroke="#e78a95"
         vector-effect="non-scaling-stroke"
         d="m 0,13.45 c 5.26,0.8 9.43,3.47 13.99,5.61 0.54,0.26 0.86,0.26 1.45,0.29 q 3.13,0.19 0.41,-1.38 C 10.9,15.12 7.04,12.54 0.77,10.35"
         id="path8" /><path
         stroke="#e78a95"
         vector-effect="non-scaling-stroke"
         d="m 54,29.21 q -11.34,4.55 -23.47,1.96 -0.52,-0.11 -0.51,0.42 l 0.21,14.14"
         id="path9" /><path
         stroke="#681c53"
         vector-effect="non-scaling-stroke"
         d="M 22.76,44.34 Q 22.68,44.33 22.59,44.31"
         id="path10" /><path
         stroke="#e78a95"
         vector-effect="non-scaling-stroke"
         d="m 22.59,44.31 q 1.37,0.25 1.39,-1.07 0.11,-6.38 0.04,-12.81 A 0.42,0.41 0 0 0 23.6,30.02 C 20.14,30.06 16.49,29.1 13.44,29.23 Q 6.34,29.53 0,32.59"
         id="path11" /><path
         stroke="#8092bd"
         vector-effect="non-scaling-stroke"
         d="m 54,31.22 q -5.29,3.09 -11.33,3.04 a 0.32,0.32 0 0 0 -0.13,0.61 L 54,39.46"
         id="path12" /><path
         stroke="#e78a95"
         vector-effect="non-scaling-stroke"
         d="M 54,40.54 C 47.47,39.5 43.3,35.37 37.9,34.55 q -3.01,-0.45 -0.37,1.07 c 5.15,2.97 8.94,5.73 15.76,8.02"
         id="path13" /><path
         stroke="#8092bd"
         vector-effect="non-scaling-stroke"
         d="M 48.88,45.32 Q 40.73,43.14 34.23,36.64 C 33.66,36.07 32.8,35.85 32.07,35.63 q -0.51,-0.14 -0.52,0.39 l -0.08,9.87"
         id="path14" /><path
         stroke="#8092bd"
         vector-effect="non-scaling-stroke"
         d="M 22.59,44.31 22.37,34.33 Q 22.36,33.74 21.83,33.99 13.39,38.02 6.63,44.35"
         id="path15" /><path
         stroke="#e78a95"
         vector-effect="non-scaling-stroke"
         d="M 4.95,44.84 C 10.12,39.13 15.66,36.36 21.67,32.49 A 0.18,0.18 0 0 0 21.62,32.17 C 16.32,30.76 4.48,41.77 1.02,45.52 Q 0.64,45.94 0.98,46.34"
         id="path16" /><path
         stroke="#8092bd"
         vector-effect="non-scaling-stroke"
         d="M 0,42.84 C 3.79,38.25 7.33,35.96 11.25,32.69 Q 11.88,32.16 11.06,32.05 9.64,31.85 7.78,32.36 2.37,33.85 0,34.83"
         id="path17" /></g><path
       fill="#ffffff"
       d="m 54,7.28 v 4.11 q -1.59,1.57 -3.09,3.16 c -2.42,2.57 -5.23,4.44 -7.94,6.51 q -1.44,1.09 0.36,0.96 Q 48.5,21.64 54,19.13 v 2.19 c -4.36,2.08 -11.27,4 -14.51,3.51 Q 35.11,24.16 30.53,23.92 30.01,23.89 30.02,23.38 L 30.28,9.11 q 0.65,0.41 1.03,0.41 l 0.2,10.18 a 0.38,0.38 0 0 0 0.55,0.34 Q 40.57,16.03 47.63,9.4 48.24,8.85 49.12,9.16 c -5,5.52 -10.44,8.38 -16.36,12.06 q -0.51,0.32 0.05,0.55 C 37.16,23.6 49.83,11.84 52.76,8.68 Q 52.97,8.45 53.01,8.21 53.05,7.91 52.97,7.66 53.51,6.78 54,7.28 Z"
       id="path18" /><path
       fill="#01247b"
       d="M 22.49,8.01 22.4,18.13 Q 22.39,18.58 21.97,18.44 20.33,17.9 19.96,17.53 13.3,10.84 5.16,8.68 9.23,7.67 13.83,7.49 c 2.56,-0.1 5.68,0.67 8.66,0.52 z"
       id="path19" /><path
       fill="#cf142b"
       d="m 52.97,7.66 q 0.08,0.25 0.04,0.55 -0.04,0.24 -0.25,0.47 C 49.83,11.84 37.16,23.6 32.81,21.77 Q 32.25,21.54 32.76,21.22 C 38.68,17.54 44.12,14.68 49.12,9.16 Z"
       id="path20" /><path
       fill="#ffffff"
       d="m 22.49,8.01 q 0.59,-0.03 1.25,0.27 l 0.23,14.08 Q 23.98,22.9 23.45,22.8 15.9,21.34 9.18,22.17 C 7.43,22.38 1.9,23.55 0,24.85 v -2.2 q 5.26,-2.65 11.23,-3 0.69,-0.04 0.25,-0.57 C 10.64,18.06 8.93,17.93 8.07,17.49 Q 4.17,15.48 0,14.64 v -1.19 c 5.26,0.8 9.43,3.47 13.99,5.61 0.54,0.26 0.86,0.26 1.45,0.29 q 3.13,0.19 0.41,-1.38 C 10.9,15.12 7.04,12.54 0.77,10.35 L 5.16,8.68 q 8.14,2.16 14.8,8.85 0.37,0.37 2.01,0.91 0.42,0.14 0.43,-0.31 z"
       id="path21" /><path
       fill="#cf142b"
       d="m 23.74,8.28 6.54,0.83 -0.26,14.27 q -0.01,0.51 0.51,0.54 4.58,0.24 8.96,0.91 C 42.73,25.32 49.64,23.4 54,21.32 v 7.89 q -11.34,4.55 -23.47,1.96 -0.52,-0.11 -0.51,0.42 l 0.21,14.14 -7.47,-1.39 q -0.08,-0.01 -0.17,-0.03 1.37,0.25 1.39,-1.07 0.11,-6.38 0.04,-12.81 A 0.42,0.41 0 0 0 23.6,30.02 C 20.14,30.06 16.49,29.1 13.44,29.23 Q 6.34,29.53 0,32.59 v -7.74 c 1.9,-1.3 7.43,-2.47 9.18,-2.68 q 6.72,-0.83 14.27,0.63 0.53,0.1 0.52,-0.44 z"
       id="path22" /><path
       fill="#01247b"
       d="M 47.63,9.4 Q 40.57,16.03 32.06,20.04 A 0.38,0.38 0 0 1 31.51,19.7 L 31.31,9.52 c 4.37,0.93 9.33,0.49 13.78,0.47 0.93,0 1.6,-0.45 2.54,-0.59 z"
       id="path23" /><path
       fill="#cf142b"
       d="m 0.77,10.35 c 6.27,2.19 10.13,4.77 15.08,7.62 q 2.72,1.57 -0.41,1.38 C 14.85,19.32 14.53,19.32 13.99,19.06 9.43,16.92 5.26,14.25 0,13.45 v -2.69 q 0.5,-0.5 0.77,-0.41 z"
       id="path24" /><path
       fill="#01247b"
       d="m 54,11.39 v 7.74 q -5.5,2.51 -10.67,2.89 -1.8,0.13 -0.36,-0.96 c 2.71,-2.07 5.52,-3.94 7.94,-6.51 q 1.5,-1.59 3.09,-3.16 z"
       id="path25" /><path
       fill="#01247b"
       d="m 0,22.65 v -8.01 q 4.17,0.84 8.07,2.85 c 0.86,0.44 2.57,0.57 3.41,1.59 q 0.44,0.53 -0.25,0.57 Q 5.26,20 0,22.65 Z"
       id="path26" /><path
       fill="#ffffff"
       d="m 54,29.21 v 2.01 q -5.29,3.09 -11.33,3.04 a 0.32,0.32 0 0 0 -0.13,0.61 L 54,39.46 v 1.08 C 47.47,39.5 43.3,35.37 37.9,34.55 q -3.01,-0.45 -0.37,1.07 c 5.15,2.97 8.94,5.73 15.76,8.02 l -4.41,1.68 Q 40.73,43.14 34.23,36.64 C 33.66,36.07 32.8,35.85 32.07,35.63 q -0.51,-0.14 -0.52,0.39 l -0.08,9.87 q -0.54,0.15 -1.24,-0.16 L 30.02,31.59 Q 30.01,31.06 30.53,31.17 42.66,33.76 54,29.21 Z"
       id="path27" /><path
       fill="#ffffff"
       d="m 22.59,44.31 -0.22,-9.98 q -0.01,-0.59 -0.54,-0.34 -8.44,4.03 -15.2,10.36 -0.32,0.7 -1.68,0.49 C 10.12,39.13 15.66,36.36 21.67,32.49 A 0.18,0.18 0 0 0 21.62,32.17 C 16.32,30.76 4.48,41.77 1.02,45.52 Q 0.64,45.94 0.98,46.34 0.67,47.13 0,46.87 V 42.84 C 3.79,38.25 7.33,35.96 11.25,32.69 Q 11.88,32.16 11.06,32.05 9.64,31.85 7.78,32.36 2.37,33.85 0,34.83 v -2.24 q 6.34,-3.06 13.44,-3.36 c 3.05,-0.13 6.7,0.83 10.16,0.79 a 0.42,0.41 0 0 1 0.42,0.41 q 0.07,6.43 -0.04,12.81 -0.02,1.32 -1.39,1.07 z"
       id="path28" /><path
       fill="#01247b"
       d="m 54,31.22 v 8.24 L 42.54,34.87 a 0.32,0.32 0 0 1 0.13,-0.61 Q 48.71,34.31 54,31.22 Z"
       id="path29" /><path
       fill="#01247b"
       d="m 0,42.84 v -8.01 q 2.37,-0.98 7.78,-2.47 1.86,-0.51 3.28,-0.31 0.82,0.11 0.19,0.64 C 7.33,35.96 3.79,38.25 0,42.84 Z"
       id="path30" /><path
       fill="#cf142b"
       d="m 4.95,44.84 -3.97,1.5 q -0.34,-0.4 0.04,-0.82 c 3.46,-3.75 15.3,-14.76 20.6,-13.35 a 0.18,0.18 0 0 1 0.05,0.32 C 15.66,36.36 10.12,39.13 4.95,44.84 Z"
       id="path31" /><path
       fill="#01247b"
       d="m 22.59,44.31 q 0.09,0.02 0.17,0.03 L 8.29,44.07 q -0.4,-0.01 -0.75,0.18 -0.44,0.24 -0.91,0.1 6.76,-6.33 15.2,-10.36 0.53,-0.25 0.54,0.34 z"
       id="path32" /><path
       fill="#cf142b"
       d="m 54,40.54 v 2.75 q -0.46,0.34 -0.71,0.35 C 46.47,41.35 42.68,38.59 37.53,35.62 Q 34.89,34.1 37.9,34.55 c 5.4,0.82 9.57,4.95 16.1,5.99 z"
       id="path33" /><path
       fill="#01247b"
       d="m 48.88,45.32 q -2.65,0.59 -5.41,0.98 c -3.88,0.53 -8.01,-0.15 -12,-0.41 l 0.08,-9.87 q 0.01,-0.53 0.52,-0.39 c 0.73,0.22 1.59,0.44 2.16,1.01 q 6.5,6.5 14.65,8.68 z"
       id="path34" /></g><g
     id="g2"
     transform="matrix(0.26458333,0,0,0.26458333,116.743,-0.99809386)"><g
       stroke-width="2"
       fill="none"
       stroke-linecap="butt"
       id="g11"><path
         stroke="#85a7d1"
         vector-effect="non-scaling-stroke"
         d="m 54,18.6 c -6.55,4.67 -17.78,3.8 -25.34,2.33 a 1.29,1.28 -83.3 0 0 -1.53,1.21 c -0.17,4.26 -0.1,6.93 -2.78,10.58"
         id="path1-6" /><path
         stroke="#f78e92"
         vector-effect="non-scaling-stroke"
         d="m 24.35,32.72 -4.74,3.05 a 1.03,1.02 48.9 0 1 -1.24,-0.09 l -3.98,-3.52"
         id="path2-2" /><path
         stroke="#85a7d1"
         vector-effect="non-scaling-stroke"
         d="M 14.39,32.16 C 11.17,28.64 11.36,24.78 11.31,20.19 q 0,-0.51 -0.51,-0.48 C 6.27,19.95 3.74,21.31 0,22.19"
         id="path3-9" /><path
         stroke="#85a7d1"
         vector-effect="non-scaling-stroke"
         d="m 13.46,29.86 c 1.35,1.9 2.96,3.05 4.61,4.67 q 0.68,0.67 1.6,0.36 3.12,-1.03 5.64,-4.67"
         id="path4-1" /><path
         stroke="#f78e92"
         vector-effect="non-scaling-stroke"
         d="M 25.31,30.22 Q 26.65,25.1 25.84,18.85 25.77,18.27 25.21,18.11 19.1,16.37 12.76,17.16 a 0.85,0.84 -1.3 0 0 -0.73,0.76 c -0.33,4.04 -0.7,8.22 1.43,11.94"
         id="path5-2" /><path
         stroke="#7d3564"
         vector-effect="non-scaling-stroke"
         d="M 25.31,30.22 Q 21.72,29.75 19.39,28.07"
         id="path6-7" /><path
         stroke="#f78e92"
         vector-effect="non-scaling-stroke"
         d="m 19.39,28.07 q 0.3,-0.94 0.09,-2.12 a 0.73,0.73 0 0 1 0.6,-0.85 q 1.34,-0.2 2.54,0.36 a 0.44,0.44 0 0 0 0.6,-0.54 L 23.11,24.6 Q 22.93,24.06 22.36,24 L 20.09,23.76 Q 19.5,23.69 19.5,23.1 l 0.01,-0.9 a 0.45,0.44 -83.8 0 1 0.54,-0.44 q 0.78,0.17 1.94,-0.01 0.77,-0.12 0.83,-0.76 0.05,-0.58 -0.52,-0.71 l -2.09,-0.45 q -0.65,-0.15 -0.57,-0.81 0.07,-0.59 -0.43,-0.95 a 0.63,0.63 0 0 0 -0.99,0.43 q -0.18,1.44 -1.59,1.53 A 0.69,0.68 -89.5 0 0 16,20.66 l -0.04,0.53 q -0.04,0.52 0.45,0.34 0.55,-0.21 1.15,-0.18 a 0.63,0.63 0 0 1 0.6,0.7 l -0.08,0.73 a 0.47,0.47 0 0 1 -0.61,0.4 q -0.86,-0.25 -1.75,-0.2 -0.61,0.03 -0.73,0.62 -0.05,0.24 -0.02,0.48 0.07,0.51 0.56,0.69 0.82,0.29 1.71,0.21 a 0.54,0.54 0 0 1 0.59,0.47 l 0.35,2.48"
         id="path7-0" /><path
         stroke="#7d3564"
         vector-effect="non-scaling-stroke"
         d="M 18.18,27.93 C 17,29.9 15.26,27.91 13.46,29.86"
         id="path8-9" /><path
         stroke="#85a7d1"
         vector-effect="non-scaling-stroke"
         d="M 19.39,28.07 18.18,27.93"
         id="path9-3" /><path
         stroke="#7d3564"
         vector-effect="non-scaling-stroke"
         d="M 54,31.74 C 43.26,35.28 35.48,34.81 24.35,32.72"
         id="path10-6" /><path
         stroke="#7d3564"
         vector-effect="non-scaling-stroke"
         d="M 14.39,32.16 Q 7.2,31.29 0,35.12"
         id="path11-0" /></g><path
       fill="#ffffff"
       d="M 54,7.48 V 18.6 c -6.55,4.67 -17.78,3.8 -25.34,2.33 a 1.29,1.28 -83.3 0 0 -1.53,1.21 c -0.17,4.26 -0.1,6.93 -2.78,10.58 l -4.74,3.05 A 1.03,1.02 48.9 0 1 18.37,35.68 L 14.39,32.16 C 11.17,28.64 11.36,24.78 11.31,20.19 q 0,-0.51 -0.51,-0.48 C 6.27,19.95 3.74,21.31 0,22.19 V 10.54 C 2.96,9.47 5.59,8.31 8.81,8 14.87,7.41 20.29,7.66 26.25,8.89 Q 40.91,11.9 54,7.48 Z M 13.46,29.86 c 1.35,1.9 2.96,3.05 4.61,4.67 q 0.68,0.67 1.6,0.36 3.12,-1.03 5.64,-4.67 1.34,-5.12 0.53,-11.37 -0.07,-0.58 -0.63,-0.74 -6.11,-1.74 -12.45,-0.95 a 0.85,0.84 -1.3 0 0 -0.73,0.76 c -0.33,4.04 -0.7,8.22 1.43,11.94 z"
       id="path12-6" /><path
       fill="#ee1c25"
       d="m 25.31,30.22 q -3.59,-0.47 -5.92,-2.15 0.3,-0.94 0.09,-2.12 a 0.73,0.73 0 0 1 0.6,-0.85 q 1.34,-0.2 2.54,0.36 a 0.44,0.44 0 0 0 0.6,-0.54 L 23.11,24.6 Q 22.93,24.06 22.36,24 L 20.09,23.76 Q 19.5,23.69 19.5,23.1 l 0.01,-0.9 a 0.45,0.44 -83.8 0 1 0.54,-0.44 q 0.78,0.17 1.94,-0.01 0.77,-0.12 0.83,-0.76 0.05,-0.58 -0.52,-0.71 l -2.09,-0.45 q -0.65,-0.15 -0.57,-0.81 0.07,-0.59 -0.43,-0.95 a 0.63,0.63 0 0 0 -0.99,0.43 q -0.18,1.44 -1.59,1.53 A 0.69,0.68 -89.5 0 0 16,20.66 l -0.04,0.53 q -0.04,0.52 0.45,0.34 0.55,-0.21 1.15,-0.18 a 0.63,0.63 0 0 1 0.6,0.7 l -0.08,0.73 a 0.47,0.47 0 0 1 -0.61,0.4 q -0.86,-0.25 -1.75,-0.2 -0.61,0.03 -0.73,0.62 -0.05,0.24 -0.02,0.48 0.07,0.51 0.56,0.69 0.82,0.29 1.71,0.21 a 0.54,0.54 0 0 1 0.59,0.47 l 0.35,2.48 C 17,29.9 15.26,27.91 13.46,29.86 11.33,26.14 11.7,21.96 12.03,17.92 a 0.85,0.84 -1.3 0 1 0.73,-0.76 q 6.34,-0.79 12.45,0.95 0.56,0.16 0.63,0.74 0.81,6.25 -0.53,11.37 z"
       id="path13-2" /><path
       fill="#ffffff"
       d="m 19.39,28.07 -1.21,-0.14 -0.35,-2.48 a 0.54,0.54 0 0 0 -0.59,-0.47 q -0.89,0.08 -1.71,-0.21 -0.49,-0.18 -0.56,-0.69 -0.03,-0.24 0.02,-0.48 0.12,-0.59 0.73,-0.62 0.89,-0.05 1.75,0.2 a 0.47,0.47 0 0 0 0.61,-0.4 l 0.08,-0.73 a 0.63,0.63 0 0 0 -0.6,-0.7 q -0.6,-0.03 -1.15,0.18 -0.49,0.18 -0.45,-0.34 L 16,20.66 a 0.69,0.68 -89.5 0 1 0.63,-0.63 q 1.41,-0.09 1.59,-1.53 a 0.63,0.63 0 0 1 0.99,-0.43 q 0.5,0.36 0.43,0.95 -0.08,0.66 0.57,0.81 l 2.09,0.45 q 0.57,0.13 0.52,0.71 -0.06,0.64 -0.83,0.76 -1.16,0.18 -1.94,0.01 a 0.45,0.44 -83.8 0 0 -0.54,0.44 l -0.01,0.9 q 0,0.59 0.59,0.66 L 22.36,24 q 0.57,0.06 0.75,0.6 l 0.11,0.32 a 0.44,0.44 0 0 1 -0.6,0.54 Q 21.42,24.9 20.08,25.1 a 0.73,0.73 0 0 0 -0.6,0.85 q 0.21,1.18 -0.09,2.12 z"
       id="path14-6" /><path
       fill="#0b4ea2"
       d="m 54,18.6 v 13.14 c -10.74,3.54 -18.52,3.07 -29.65,0.98 2.68,-3.65 2.61,-6.32 2.78,-10.58 a 1.29,1.28 -83.3 0 1 1.53,-1.21 C 36.22,22.4 47.45,23.27 54,18.6 Z"
       id="path15-1" /><path
       fill="#0b4ea2"
       d="M 14.39,32.16 Q 7.2,31.29 0,35.12 V 22.19 c 3.74,-0.88 6.27,-2.24 10.8,-2.48 q 0.51,-0.03 0.51,0.48 c 0.05,4.59 -0.14,8.45 3.08,11.97 z"
       id="path16-8" /><path
       fill="#0b4ea2"
       d="m 18.18,27.93 1.21,0.14 q 2.33,1.68 5.92,2.15 -2.52,3.64 -5.64,4.67 -0.92,0.31 -1.6,-0.36 c -1.65,-1.62 -3.26,-2.77 -4.61,-4.67 1.8,-1.95 3.54,0.04 4.72,-1.93 z"
       id="path17-7" /><path
       fill="#ee1c25"
       d="m 54,31.74 v 11.57 c -8.77,4.49 -17.69,3 -27.25,1.83 Q 24.44,44.86 22.28,44.49 10.8,42.52 0,46.58 V 35.12 q 7.2,-3.83 14.39,-2.96 l 3.98,3.52 a 1.03,1.02 48.9 0 0 1.24,0.09 l 4.74,-3.05 C 35.48,34.81 43.26,35.28 54,31.74 Z"
       id="path18-9" /></g><text
     xml:space="preserve"
     style="font-style:normal;font-variant:normal;font-weight:normal;font-stretch:normal;font-size:3.87784px;font-family:'Minion Pro';-inkscape-font-specification:'Minion Pro';letter-spacing:0px;fill:#000000;stroke-width:0.0454433"
     x="0.00775568"
     y="17.358578"
     id="text61"
     transform="scale(1.0128076,0.98735436)"><tspan
       id="tspan61"
       x="0.00775568"
       y="17.358578"
       style="stroke-width:0.0454433">awaited passively landings</tspan><tspan
       x="0.00775568"
       y="22.205891"
       id="tspan62"
       style="stroke-width:0.0454433">bitters bunny milky</tspan><tspan
       x="0.00775568"
       y="27.053192"
       id="tspan63"
       style="stroke-width:0.0454433">planet inches most</tspan><tspan
       x="0.00775568"
       y="31.900509"
       id="tspan64"
       style="stroke-width:0.0454433">pretty needed chill</tspan><tspan
       x="0.00775568"
       y="36.74781"
       id="tspan65"
       style="stroke-width:0.0454433">seasons sharper scan</tspan><tspan
       x="0.00775568"
       y="41.595112"
       id="tspan66"
       style="stroke-width:0.0454433">straddled sprayer sponsors</tspan><tspan
       x="0.00775568"
       y="46.442406"
       id="tspan67"
       style="stroke-width:0.0454433">tiny loses tree</tspan><tspan
       x="0.00775568"
       y="51.289665"
       id="tspan68"
       style="stroke-width:0.0454433">urge yummy remainder</tspan><tspan
       x="0.00775568"
       y="56.136971"
       id="tspan69"
       style="stroke-width:0.0454433">vanished frantic foal</tspan></text><g
     id="g3"
     transform="matrix(0.72249334,0,0,0.70433609,30.81654,-135.09768)"><path
       style="fill:#000000;stroke:#000000;stroke-width:0.421905;stroke-linecap:round;stroke-dasharray:none"
       d="m 97.77919,216.69436 62.05807,-0.0144"
       id="path69" /><path
       style="fill:#000000;stroke:#000000;stroke-width:0.421905;stroke-linecap:round;stroke-dasharray:none"
       d="m 97.786731,223.46834 62.058069,-0.0144"
       id="path70" /><path
       style="fill:#000000;stroke:#000000;stroke-width:0.421905;stroke-linecap:round;stroke-dasharray:none"
       d="m 97.794274,230.24232 62.058066,-0.0144"
       id="path71" /><path
       style="fill:#000000;stroke:#000000;stroke-width:0.421905;stroke-linecap:round;stroke-dasharray:none"
       d="m 97.801815,237.01629 62.058065,-0.0144"
       id="path72" /><path
       style="fill:#000000;stroke:#000000;stroke-width:0.421905;stroke-linecap:round;stroke-dasharray:none"
       d="m 97.809358,243.79028 62.058062,-0.0144"
       id="path73" /><path
       style="fill:#000000;stroke:#000000;stroke-width:0.421905;stroke-linecap:round;stroke-dasharray:none"
       d="m 97.816898,250.56425 62.058072,-0.0144"
       id="path74" /><path
       style="fill:#000000;stroke:#000000;stroke-width:0.421905;stroke-linecap:round;stroke-dasharray:none"
       d="m 97.824439,257.33823 62.058071,-0.0144"
       id="path75" /><path
       style="fill:#000000;stroke:#000000;stroke-width:0.421905;stroke-linecap:round;stroke-dasharray:none"
       d="m 97.831982,264.11221 62.058068,-0.0144"
       id="path76" /><path
       style="fill:#000000;stroke:#000000;stroke-width:0.421905;stroke-linecap:round;stroke-dasharray:none"
       d="m 97.839523,270.88619 62.058067,-0.0144"
       id="path77" /></g></svg>
