<?xml version="1.0" encoding="UTF-8" standalone="no"?>
<svg
   xmlns:dc="http://purl.org/dc/elements/1.1/"
   xmlns:cc="http://creativecommons.org/ns#"
   xmlns:rdf="http://www.w3.org/1999/02/22-rdf-syntax-ns#"
   xmlns:svg="http://www.w3.org/2000/svg"
   xmlns="http://www.w3.org/2000/svg"
   xmlns:sodipodi="http://sodipodi.sourceforge.net/DTD/sodipodi-0.dtd"
   xmlns:inkscape="http://www.inkscape.org/namespaces/inkscape"
   width="229.33972mm"
   height="199.06036mm"
   viewBox="0 0 229.33972 199.06036"
   version="1.1"
   id="svg8"
   inkscape:version="1.0.2 (e86c870879, 2021-01-15)"
   sodipodi:docname="1.4_slimak.svg">
  <defs
     id="defs2" />
  <sodipodi:namedview
     id="base"
     pagecolor="#ffffff"
     bordercolor="#666666"
     borderopacity="1.0"
     inkscape:pageopacity="0.0"
     inkscape:pageshadow="2"
     inkscape:zoom="0.74151979"
     inkscape:cx="496.12748"
     inkscape:cy="393.50977"
     inkscape:document-units="mm"
     inkscape:current-layer="layer1"
     inkscape:document-rotation="0"
     showgrid="false"
     inkscape:window-width="1920"
     inkscape:window-height="1001"
     inkscape:window-x="-9"
     inkscape:window-y="-9"
     inkscape:window-maximized="1"
     fit-margin-top="5"
     fit-margin-left="5"
     fit-margin-right="5"
     fit-margin-bottom="5"
     lock-margins="true" />
  <metadata
     id="metadata5">
    <rdf:RDF>
      <cc:Work
         rdf:about="">
        <dc:format>image/svg+xml</dc:format>
        <dc:type
           rdf:resource="http://purl.org/dc/dcmitype/StillImage" />
        <dc:title />
      </cc:Work>
    </rdf:RDF>
  </metadata>
  <g
     inkscape:label="Layer 1"
     inkscape:groupmode="layer"
     id="layer1"
     transform="translate(58.90575,-100.97675)">
    <path
       id="path3579"
       sodipodi:nodetypes="csssssssssscsssssssssscc"
       style="fill:#000000;stroke-width:0.349897"
       inkscape:connector-curvature="0"
       d="m 92.185895,273.65758 c -5.558446,-13.59773 -9.866096,-36.4067 5.53024,-53.28384 13.232365,-14.50505 39.546715,-14.90265 54.388245,-1.21506 11.96688,11.03595 11.75834,39.20493 0.37261,51.4894 -9.13862,9.86008 -32.16383,8.22282 -42.29084,-1.21221 -8.08975,-7.53695 -7.20584,-28.59713 0.58135,-36.91072 6.18989,-6.60787 24.72449,-6.78614 31.51885,-0.38537 5.37264,5.06134 4.00905,21.02545 -1.2287,26.55277 -4.11958,4.34716 -16.21713,4.9201 -20.69171,0.65334 -3.49929,-3.33686 -3.21711,-14.02283 0.24222,-17.62719 2.68936,-2.80214 8.76717,-3.23667 11.65542,-0.44598 2.23119,2.156 1.16364,7.2382 -1.1761,9.39228 1.7546,-2.05257 2.889,-6.49189 1.04125,-8.27732 -2.39187,-2.31125 -8.39407,-1.29119 -10.6214,1.02946 -2.86497,2.98509 -2.52579,12.00108 0.3724,14.76479 3.70609,3.53388 14.56612,3.09432 17.97777,-0.50594 4.33807,-4.57772 5.86752,-19.01773 1.41811,-23.20953 -5.62716,-5.30098 -22.99274,-5.35756 -28.11918,0.11522 -6.44944,6.88497 -6.88765,25.69503 -0.18786,31.93705 8.3874,7.81403 28.64286,9.7624 36.2113,1.59611 9.42992,-10.17438 10.01812,-34.99186 0.10707,-44.13193 -12.29227,-11.336 -40.49405,-11.51071 -49.724597,1.87685 -11.923335,17.29308 -5.607158,37.68046 -0.376847,48.01967 z" />
    <path
       style="fill:#000000;fill-opacity:1;stroke-width:0.211729"
       d="m 62.070311,207.61504 c 0.953355,-0.0209 1.74287,0.7235 1.763463,1.66261 0.0044,0.23248 -0.03961,0.46343 -0.129335,0.67855 2.867344,2.07901 10.192786,6.89657 13.421124,15.63226 3.999467,11.60026 9.178975,16.99541 13.741408,26.2795 15.021389,20.8422 19.908379,22.64263 54.924769,27.08208 10.96376,0.004 6.90323,6.64284 19.48011,4.46455 3.6572,9.58536 -55.44388,16.07156 -87.762635,7.90598 -9.605585,-4.70255 -15.104533,-14.87373 -16.18113,-25.10009 -2.002131,-13.39575 2.071181,-17.53044 0.03464,-30.89389 -0.05667,-4.36921 -7.22612,-15.87886 -9.961483,-17.24869 -0.245079,0.13445 -0.519684,0.2081 -0.800059,0.21458 -0.953356,0.0208 -1.742878,-0.72351 -1.763472,-1.66262 -0.02054,-0.9391 0.735628,-1.71733 1.688983,-1.73823 0.789389,-0.0165 1.489085,0.49696 1.699331,1.24651 2.702003,0.29117 10.484408,9.96148 13.42245,9.75551 7.016406,0.314 -1.537623,-11.99615 -3.166575,-14.91841 -0.110742,0.0244 -0.223658,0.038 -0.337095,0.0407 -0.953512,0.0211 -1.743285,-0.72333 -1.763883,-1.66259 -0.02055,-0.93927 0.735873,-1.71757 1.689394,-1.73824 z"
       id="path3796"
       inkscape:connector-curvature="0"
       sodipodi:nodetypes="ccccccccccccccccccccc" />
    <path
       id="rect7531"
       stroke-linejoin="round"
       d="m 40.973423,107.02146 c -34.7207189,0.0627 -68.509914,2.19346 -79.264868,6.76837 -22.356758,9.58852 -16.259459,68.74903 0,75.70539 3.133334,1.31608 10.585587,2.44415 20.663066,3.3215 -0.508108,5.89099 0.254071,14.35144 6.605407,20.74377 14.6504478,14.60211 43.18919,12.53402 43.18919,12.53402 0,0 -26.252256,-7.5204 -33.1963992,-18.73832 -2.6252233,-4.32426 -2.4558563,-9.14983 -1.1855863,-13.53674 45.8144185,2.44412 118.8126075,1.25339 131.8540475,-4.32423 18.80001,-8.02178 20.15495,-67.1196 0,-75.70539 -10.16216,-4.32422 -49.963956,-6.83103 -88.664857,-6.76837 z"
       stroke="#000000"
       stroke-width="3.15717"
       fill="#ffffff"
       style="stroke-width:2.08713;stroke-miterlimit:4;stroke-dasharray:none" />
    <g
       aria-label="ABCDEFGOPSVXZ ABCDEMNOP ABCGKLMRTVXY ABCDEIJKLMSWZ BCDFGHJKLNOP AEFGHIMNOPRVZ ABCDEFGHIKMNOPSWZ ABCDEMNOP ABCGKLMRTVXY ABCDEIJKLMTVZ ABCDEFGNSVYZ GOUYZ ABCDEFGHIKMNOPSWZ DFGHLNOPSWZ ABCDEFGHIKMNOPSWZ ABCDEIJKLMTXZ GOUYZ ABCDEFGHIKMNOPSWZ IJKLNOR ABCDEFGHIKMNOPSWZ EFGHIOUYZ ABCDEFGNSVYZ BCDEIJKLNOP ABCDEIJKLMSWZ ABCDEMNOP ABCGKLMRTVXY  "
       id="text847"
       style="font-size:6.35px;line-height:1.25;font-family:'Minion Pro';-inkscape-font-specification:'Minion Pro';letter-spacing:0px;stroke-width:0.264583"
       transform="translate(-6.065808,6.4226203)">
      <text
         xml:space="preserve"
         style="font-size:7.76111px;line-height:1.25;font-family:'Minion Pro';-inkscape-font-specification:'Minion Pro';letter-spacing:0px;stroke-width:0.0700042"
         x="-37.903267"
         y="123.62779"
         id="text1146"><tspan
           sodipodi:role="line"
           id="tspan1144"
           x="-37.903267"
           y="123.62779"
           style="font-size:7.76111px;stroke-width:0.0700042">ABCDEFGNSVYZ GOUYZ ABCDEFGHIKMNOPSWZ</tspan><tspan
           sodipodi:role="line"
           x="-37.903267"
           y="133.32918"
           style="font-size:7.76111px;stroke-width:0.0700042"
           id="tspan1148">DFGHLNOPSWZ ABCDEFGHIKMNOPSWZ</tspan><tspan
           sodipodi:role="line"
           x="-37.903267"
           y="143.03056"
           style="font-size:7.76111px;stroke-width:0.0700042"
           id="tspan1152">ABCDEIJKLMTXZ GOUYZ ABCDEFGHIKMNOPSWZ</tspan><tspan
           sodipodi:role="line"
           x="-37.903267"
           y="152.73195"
           style="font-size:7.76111px;stroke-width:0.0700042"
           id="tspan1154">IJKLNOR ABCDEFGHIKMNOPSWZ EFGHIOUYZ</tspan><tspan
           sodipodi:role="line"
           x="-37.903267"
           y="162.43333"
           style="font-size:7.76111px;stroke-width:0.0700042"
           id="tspan1156">ABCDEFGNSVYZ BCDEIJKLNOP ABCDEIJKLMSWZ</tspan><tspan
           sodipodi:role="line"
           x="-37.903267"
           y="172.13474"
           style="font-size:7.76111px;stroke-width:0.0700042"
           id="tspan1158">ABCDEMNOP ABCGKLMRTVXY</tspan></text>
    </g>
  </g>
</svg>
