<?xml version="1.0" encoding="UTF-8" standalone="no"?>
<svg
   width="132.37085mm"
   height="96.742142mm"
   viewBox="0 0 132.37085 96.74214"
   version="1.1"
   id="svg8"
   xmlns="http://www.w3.org/2000/svg"
   xmlns:svg="http://www.w3.org/2000/svg"
   xmlns:rdf="http://www.w3.org/1999/02/22-rdf-syntax-ns#"
   xmlns:cc="http://creativecommons.org/ns#"
   xmlns:dc="http://purl.org/dc/elements/1.1/">
  <defs
     id="defs2">
    <rect
       x="494.09158"
       y="59.638645"
       width="261.1239"
       height="279.72348"
       id="rect69584" />
  </defs>
  <metadata
     id="metadata5">
    <rdf:RDF>
      <cc:Work
         rdf:about="">
        <dc:format>image/svg+xml</dc:format>
        <dc:type
           rdf:resource="http://purl.org/dc/dcmitype/StillImage" />
      </cc:Work>
    </rdf:RDF>
  </metadata>
  <g
     id="layer1"
     transform="translate(-35.03116,-204.18532)">
    <path
       id="path3579"
       style="fill:#000000;stroke-width:0.349897"
       d="m 92.185895,273.65758 c -5.558446,-13.59773 -9.866096,-36.4067 5.53024,-53.28384 13.232365,-14.50505 39.546715,-14.90265 54.388245,-1.21506 11.96688,11.03595 11.75834,39.20493 0.37261,51.4894 -9.13862,9.86008 -32.16383,8.22282 -42.29084,-1.21221 -8.08975,-7.53695 -7.20584,-28.59713 0.58135,-36.91072 6.18989,-6.60787 24.72449,-6.78614 31.51885,-0.38537 5.37264,5.06134 4.00905,21.02545 -1.2287,26.55277 -4.11958,4.34716 -16.21713,4.9201 -20.69171,0.65334 -3.49929,-3.33686 -3.21711,-14.02283 0.24222,-17.62719 2.68936,-2.80214 8.76717,-3.23667 11.65542,-0.44598 2.23119,2.156 1.16364,7.2382 -1.1761,9.39228 1.7546,-2.05257 2.889,-6.49189 1.04125,-8.27732 -2.39187,-2.31125 -8.39407,-1.29119 -10.6214,1.02946 -2.86497,2.98509 -2.52579,12.00108 0.3724,14.76479 3.70609,3.53388 14.56612,3.09432 17.97777,-0.50594 4.33807,-4.57772 5.86752,-19.01773 1.41811,-23.20953 -5.62716,-5.30098 -22.99274,-5.35756 -28.11918,0.11522 -6.44944,6.88497 -6.88765,25.69503 -0.18786,31.93705 8.3874,7.81403 28.64286,9.7624 36.2113,1.59611 9.42992,-10.17438 10.01812,-34.99186 0.10707,-44.13193 -12.29227,-11.336 -40.49405,-11.51071 -49.724597,1.87685 -11.923335,17.29308 -5.607158,37.68046 -0.376847,48.01967 z" />
    <path
       style="fill:#000000;fill-opacity:1;stroke-width:0.211729"
       d="m 52.384626,212.76745 c 0.947339,-0.10896 1.802302,0.55924 1.909639,1.49244 0.02588,0.23106 0.0034,0.4651 -0.06602,0.68759 3.047293,1.80498 10.786803,5.92456 14.809048,14.32433 5.054937,11.18076 10.711114,16.07387 16.112442,24.89633 16.884185,19.36398 21.916715,20.70483 57.193575,21.88751 10.91717,-1.00976 7.48788,5.97608 19.80947,2.64422 4.52783,9.20614 -53.72031,21.12926 -86.655639,15.98699 -9.999246,-3.79424 -16.415102,-13.41339 -18.432655,-23.4964 -3.232175,-13.15325 0.441377,-17.64686 -2.822075,-30.76475 -0.46042,-4.34525 -8.663383,-15.14268 -11.513688,-16.25372 -0.231599,0.15654 -0.498217,0.25527 -0.776792,0.28765 -0.947346,0.10885 -1.80231,-0.55927 -1.909649,-1.49244 -0.107285,-0.93319 0.573687,-1.778 1.521025,-1.88696 0.784481,-0.0894 1.528647,0.35719 1.807308,1.08404 2.71735,0.0401 11.360569,8.94937 14.266982,8.47262 7.01538,-0.3361 -2.640247,-11.80257 -4.532425,-14.56169 -0.108002,0.0345 -0.219183,0.0585 -0.331882,0.0716 -0.947476,0.10918 -1.802699,-0.55904 -1.910057,-1.49237 -0.107311,-0.93334 0.573908,-1.77825 1.521433,-1.887 z"
       id="path3796" />
    <g
       id="text7209"
       style="font-size:9.87777px;line-height:1.25;font-family:'Minion Pro';-inkscape-font-specification:'Minion Pro';letter-spacing:0px;word-spacing:0px;stroke-width:0.264583" />
    <g
       aria-label="E"
       id="text54125"
       style="font-size:8.06323px;line-height:1.25;font-family:'Minion Pro';-inkscape-font-specification:'Minion Pro';text-align:center;letter-spacing:0px;word-spacing:0px;text-anchor:middle;stroke-width:0.215979">
      <path
         d="m 105.87453,227.31148 c -0.11288,0.31446 -0.26608,0.59668 -0.40316,0.75794 -0.17739,0.20965 -0.40316,0.27415 -1.01597,0.27415 -0.40316,0 -0.68537,0 -0.83857,-0.10482 -0.14514,-0.0968 -0.19352,-0.27415 -0.19352,-0.65312 v -1.52395 h 0.76601 c 0.7015,0 0.75794,0.0484 0.86276,0.62087 h 0.23384 v -1.54008 h -0.23384 c -0.0968,0.54024 -0.13707,0.60474 -0.87083,0.60474 h -0.75794 v -1.83841 c 0,-0.23384 0.0161,-0.25803 0.26609,-0.25803 h 0.6128 c 0.58056,0 0.79826,0.0564 0.91115,0.23384 0.10482,0.16932 0.18545,0.34671 0.25802,0.68537 l 0.23384,-0.0322 c -0.0242,-0.41123 -0.0645,-0.95953 -0.0645,-1.16111 h -3.5962 v 0.22577 c 0.62893,0.0484 0.69344,0.0806 0.69344,0.79826 v 3.20917 c 0,0.66118 -0.0645,0.72569 -0.79826,0.78213 v 0.22577 h 3.88647 c 0.0726,-0.24996 0.23384,-1.0079 0.28222,-1.27399 z"
         id="path72215" />
    </g>
    <g
       aria-label="F"
       id="text67370"
       style="font-size:8.06323px;line-height:1.25;font-family:'Minion Pro';-inkscape-font-specification:'Minion Pro';text-align:center;letter-spacing:0px;word-spacing:0px;text-anchor:middle;stroke-width:0.215979">
      <path
         d="m 116.42732,222.97444 c -0.0322,-0.38704 -0.0726,-0.89502 -0.0806,-1.1853 h -3.54782 v 0.22577 c 0.62087,0.0484 0.68537,0.0887 0.68537,0.78214 v 3.21723 c 0,0.69343 -0.0645,0.74181 -0.70956,0.79019 v 0.22577 h 2.1932 v -0.22577 c -0.73376,-0.0484 -0.79826,-0.0968 -0.79826,-0.79019 v -1.45945 h 0.83051 c 0.73375,0 0.77407,0.0887 0.87083,0.64506 h 0.23383 v -1.5562 h -0.23383 c -0.0968,0.52411 -0.13708,0.59668 -0.87083,0.59668 h -0.83051 v -1.91905 c 0,-0.23384 0.0242,-0.25803 0.26608,-0.25803 h 0.61281 c 0.6128,0 0.78213,0.0726 0.91921,0.29834 0.10482,0.16127 0.1532,0.32253 0.22577,0.64506 z"
         id="path72212" />
    </g>
    <g
       aria-label="G"
       id="text67374"
       style="font-size:8.06323px;line-height:1.25;font-family:'Minion Pro';-inkscape-font-specification:'Minion Pro';text-align:center;letter-spacing:0px;word-spacing:0px;text-anchor:middle;stroke-width:0.215979">
      <path
         d="m 128.83227,224.06599 h -2.04806 v 0.22577 c 0.79826,0.0564 0.84664,0.11288 0.84664,0.69344 v 0.68537 c 0,0.33866 -0.0968,0.44348 -0.25802,0.53217 -0.17739,0.0887 -0.42735,0.13708 -0.7015,0.13708 -1.5562,0 -2.24158,-1.35462 -2.24158,-2.52379 0,-1.48364 0.90308,-2.39478 2.13676,-2.39478 0.77407,0 1.37881,0.26609 1.57233,1.25786 l 0.22577,-0.0484 c -0.0565,-0.53217 -0.0968,-0.97565 -0.12095,-1.25786 -0.26609,-0.0564 -0.87889,-0.23383 -1.55621,-0.23383 -1.58039,0 -3.08015,0.91114 -3.08015,2.77375 0,1.60458 1.1853,2.70924 2.95921,2.70924 0.64505,0 1.30624,-0.17739 1.80616,-0.29027 -0.0484,-0.22577 -0.0564,-0.4838 -0.0564,-0.76601 v -0.69344 c 0,-0.47573 0.0323,-0.51605 0.51604,-0.58055 z"
         id="path72209" />
    </g>
    <g
       aria-label="H"
       id="text67378"
       style="font-size:8.06323px;line-height:1.25;font-family:'Minion Pro';-inkscape-font-specification:'Minion Pro';text-align:center;letter-spacing:0px;word-spacing:0px;text-anchor:middle;stroke-width:0.215979">
      <path
         d="m 140.32385,222.3183 h -2.1045 v 0.22577 c 0.62893,0.0564 0.69343,0.0968 0.69343,0.76601 v 1.30624 h -2.74956 v -1.30624 c 0,-0.66925 0.0645,-0.71763 0.67731,-0.76601 v -0.22577 h -2.08837 v 0.22577 c 0.66118,0.0484 0.72569,0.0887 0.72569,0.76601 v 3.25755 c 0,0.67731 -0.0645,0.71762 -0.70957,0.766 v 0.22577 h 2.12063 v -0.22577 c -0.66118,-0.0484 -0.72569,-0.0968 -0.72569,-0.766 v -1.60459 h 2.74956 v 1.60459 c 0,0.67731 -0.0645,0.71762 -0.75794,0.766 v 0.22577 h 2.16094 v -0.22577 c -0.65312,-0.0484 -0.71762,-0.0887 -0.71762,-0.766 v -3.25755 c 0,-0.66925 0.0645,-0.70956 0.72569,-0.76601 z"
         id="path72206" />
    </g>
    <g
       aria-label="I"
       id="text67382"
       style="font-size:8.06323px;line-height:1.25;font-family:'Minion Pro';-inkscape-font-specification:'Minion Pro';text-align:center;letter-spacing:0px;word-spacing:0px;text-anchor:middle;stroke-width:0.215979">
      <path
         d="m 148.51084,228.61772 v -0.22577 c -0.66119,-0.0484 -0.72569,-0.0887 -0.72569,-0.78213 v -3.22529 c 0,-0.68538 0.0645,-0.73376 0.72569,-0.78214 v -0.22577 h -2.13676 v 0.22577 c 0.66119,0.0484 0.72569,0.0968 0.72569,0.78214 v 3.22529 c 0,0.68537 -0.0645,0.73375 -0.72569,0.78213 v 0.22577 z"
         id="path72203" />
    </g>
    <g
       aria-label="D"
       id="text67386"
       style="font-size:8.06323px;line-height:1.25;font-family:'Minion Pro';-inkscape-font-specification:'Minion Pro';text-align:center;letter-spacing:0px;word-spacing:0px;text-anchor:middle;stroke-width:0.215979">
      <path
         d="m 99.791797,233.98482 v 0.22577 c 0.620873,0.0484 0.685373,0.0806 0.685373,0.77407 v 3.24142 c 0,0.68538 -0.0645,0.73376 -0.757942,0.78213 v 0.21771 h 1.902922 c 0.98371,0 1.79004,-0.20158 2.39478,-0.66925 0.6128,-0.46766 0.99178,-1.18529 0.99178,-2.15288 0,-0.75794 -0.28222,-1.34656 -0.68538,-1.73359 -0.49992,-0.4838 -1.2498,-0.68538 -2.27383,-0.68538 z m 1.370753,0.83052 c 0,-0.32253 0.0323,-0.41123 0.10482,-0.45961 0.0806,-0.0645 0.29027,-0.10482 0.62893,-0.10482 0.54024,0 1.0079,0.10482 1.37075,0.33059 0.64506,0.37897 0.95146,1.10466 0.95146,1.93518 0,1.29011 -0.7015,2.41897 -2.20126,2.41897 -0.58862,0 -0.8547,-0.15321 -0.8547,-0.76601 z"
         id="path72200" />
    </g>
    <g
       aria-label="T"
       id="text67390"
       style="font-size:8.06323px;line-height:1.25;font-family:'Minion Pro';-inkscape-font-specification:'Minion Pro';text-align:center;letter-spacing:0px;word-spacing:0px;text-anchor:middle;stroke-width:0.215979">
      <path
         d="m 118.98747,235.73959 c -0.0484,-0.46766 -0.0806,-1.05628 -0.0887,-1.42719 h -0.16932 c -0.12095,0.1532 -0.18546,0.20158 -0.40317,0.20158 h -3.18497 c -0.22577,0 -0.33059,-0.0161 -0.44348,-0.20158 h -0.16126 c -0.0161,0.44348 -0.0564,0.96759 -0.0968,1.45138 h 0.23383 c 0.0968,-0.35478 0.16127,-0.58861 0.25802,-0.72569 0.10483,-0.17739 0.26609,-0.24996 0.93534,-0.24996 h 0.49992 v 3.97517 c 0,0.637 -0.0645,0.71763 -0.79826,0.76601 v 0.22577 h 2.30608 v -0.22577 c -0.75794,-0.0484 -0.82245,-0.12901 -0.82245,-0.76601 v -3.97517 h 0.56443 c 0.61281,0 0.74182,0.0645 0.87889,0.25803 0.0887,0.12901 0.16933,0.33059 0.24996,0.71762 z"
         id="path72197" />
    </g>
    <g
       aria-label="U"
       id="text67394"
       style="font-size:8.06323px;line-height:1.25;font-family:'Minion Pro';-inkscape-font-specification:'Minion Pro';text-align:center;letter-spacing:0px;word-spacing:0px;text-anchor:middle;stroke-width:0.215979">
      <path
         d="m 128.94113,233.45566 h -1.91905 v 0.22577 c 0.57249,0.0403 0.74182,0.13708 0.78213,0.45154 0.0323,0.24996 0.0564,0.58862 0.0564,1.33044 v 0.60474 c 0,1.33043 -0.36285,2.30608 -1.52396,2.30608 -0.99984,0 -1.51588,-0.74988 -1.51588,-2.04806 v -1.83035 c 0,-0.72569 0.0645,-0.77407 0.69344,-0.81439 v -0.22577 h -2.08032 v 0.22577 c 0.62893,0.0564 0.7015,0.0887 0.7015,0.81439 v 2.00774 c 0,0.95146 0.22577,1.54814 0.70957,1.91905 0.35478,0.27415 0.81438,0.38704 1.29011,0.38704 0.53218,0 1.07241,-0.16933 1.45139,-0.55637 0.4596,-0.49185 0.60474,-1.17723 0.60474,-2.12869 v -0.66118 c 0,-0.74182 0.0242,-1.08854 0.0484,-1.30625 0.0323,-0.33865 0.2177,-0.44347 0.7015,-0.47573 z"
         id="path72194" />
    </g>
    <g
       aria-label="V"
       id="text67398"
       style="font-size:8.06323px;line-height:1.25;font-family:'Minion Pro';-inkscape-font-specification:'Minion Pro';text-align:center;letter-spacing:0px;word-spacing:0px;text-anchor:middle;stroke-width:0.215979">
      <path
         d="m 139.71002,234.51398 h -1.81422 v 0.22577 c 0.65312,0.0806 0.7015,0.13708 0.5483,0.60474 -0.25803,0.80633 -0.87083,2.37866 -1.27399,3.39462 h -0.0161 c -0.5483,-1.38687 -1.13692,-2.95114 -1.3385,-3.52363 -0.12901,-0.35478 -0.10482,-0.41929 0.46767,-0.47573 v -0.22577 h -1.97549 v 0.22577 c 0.48379,0.0484 0.61281,0.11289 0.84664,0.70957 0.46767,1.16916 1.12885,2.91889 1.66909,4.39446 h 0.24996 c 0.6128,-1.66909 1.45944,-3.71715 1.67715,-4.24933 0.3064,-0.71762 0.41122,-0.79019 0.95952,-0.8547 z"
         id="path72191" />
    </g>
    <g
       aria-label="J"
       id="text67402"
       style="font-size:8.06323px;line-height:1.25;font-family:'Minion Pro';-inkscape-font-specification:'Minion Pro';text-align:center;letter-spacing:0px;word-spacing:0px;text-anchor:middle;stroke-width:0.215979">
      <path
         d="m 149.61754,233.98482 h -2.08838 v 0.22577 c 0.65313,0.0484 0.71763,0.10482 0.71763,0.78214 v 2.74149 c 0,0.68538 -0.0161,1.15305 -0.0806,1.54008 -0.0887,0.45961 -0.32253,0.83051 -0.77407,1.04822 l 0.0968,0.23383 c 0.20964,-0.0645 0.47573,-0.2177 0.74988,-0.46766 0.53217,-0.49186 0.69344,-1.04822 0.69344,-2.08838 v -3.00758 c 0,-0.67732 0.0645,-0.73376 0.68537,-0.78214 z"
         id="path72188" />
    </g>
    <g
       aria-label="C"
       id="text67406"
       style="font-size:8.06323px;line-height:1.25;font-family:'Minion Pro';-inkscape-font-specification:'Minion Pro';text-align:center;letter-spacing:0px;word-spacing:0px;text-anchor:middle;stroke-width:0.215979">
      <path
         d="m 103.0906,247.8939 c -0.40316,0.79826 -0.83857,1.24173 -1.66102,1.24173 -1.22561,0 -2.112568,-1.03209 -2.112568,-2.53991 0,-1.22561 0.717628,-2.36253 2.064188,-2.36253 0.87083,0 1.35462,0.34672 1.57233,1.20142 l 0.23383,-0.0645 c -0.0484,-0.42736 -0.0968,-0.75795 -0.16126,-1.20949 -0.22577,-0.0403 -0.77407,-0.21771 -1.42719,-0.21771 -1.798104,0 -3.104347,1.11273 -3.104347,2.81407 0,1.28206 0.878892,2.66893 2.886637,2.66893 0.58055,0 1.25786,-0.16126 1.48363,-0.20964 0.14514,-0.27415 0.34672,-0.87083 0.45961,-1.24174 z"
         id="path72185" />
    </g>
    <g
       aria-label="S"
       id="text67410"
       style="font-size:8.06323px;line-height:1.25;font-family:'Minion Pro';-inkscape-font-specification:'Minion Pro';text-align:center;letter-spacing:0px;word-spacing:0px;text-anchor:middle;stroke-width:0.215979">
      <path
         d="m 116.50092,245.24109 c -0.0645,-0.50798 -0.10483,-0.83051 -0.13708,-1.11272 -0.3064,-0.0968 -0.64506,-0.18546 -1.01597,-0.18546 -1.04015,0 -1.66102,0.66119 -1.66102,1.43526 0,0.91114 0.81439,1.30624 1.33043,1.58846 0.60474,0.32252 1.04822,0.60474 1.04822,1.20142 0,0.58861 -0.35478,0.96758 -0.96759,0.96758 -0.83857,0 -1.20142,-0.81438 -1.32237,-1.30624 l -0.24189,0.0564 c 0.0564,0.38704 0.16126,1.08048 0.2177,1.2498 0.0806,0.0403 0.20159,0.10483 0.40317,0.16933 0.19351,0.0564 0.4596,0.12095 0.79019,0.12095 1.07241,0 1.79004,-0.67731 1.79004,-1.52395 0,-0.91114 -0.75794,-1.28205 -1.39494,-1.61265 -0.63699,-0.32252 -1.02403,-0.60474 -1.02403,-1.19335 0,-0.43542 0.27415,-0.8789 0.89502,-0.8789 0.7015,0 0.91921,0.55637 1.05628,1.06435 z"
         id="path72182" />
    </g>
    <g
       aria-label="Z"
       id="text67414"
       style="font-size:8.06323px;line-height:1.25;font-family:'Minion Pro';-inkscape-font-specification:'Minion Pro';text-align:center;letter-spacing:0px;word-spacing:0px;text-anchor:middle;stroke-width:0.215979">
      <path
         d="m 128.7567,247.88583 c -0.14514,0.3951 -0.27415,0.65313 -0.44348,0.83052 -0.22577,0.24189 -0.52411,0.29834 -1.53201,0.29834 -0.55637,0 -1.05629,-0.0161 -1.31431,-0.0484 1.10466,-1.63684 2.20932,-3.20111 3.33011,-4.78956 l -0.0564,-0.11289 h -3.21723 c -0.2419,0 -0.33059,-0.0161 -0.42735,-0.20158 h -0.19352 c -0.0161,0.36285 -0.0564,0.96759 -0.0968,1.47557 l 0.23384,0.008 c 0.0968,-0.35479 0.18545,-0.55637 0.28221,-0.7015 0.13708,-0.21771 0.26609,-0.29028 1.13692,-0.29028 h 1.39494 c -1.12079,1.63683 -2.25771,3.23335 -3.38656,4.82987 l 0.0645,0.12095 h 4.16869 c 0.0887,-0.33059 0.23384,-1.08047 0.29028,-1.37075 z"
         id="path72179" />
    </g>
    <g
       aria-label="W"
       id="text67418"
       style="font-size:8.06323px;line-height:1.25;font-family:'Minion Pro';-inkscape-font-specification:'Minion Pro';text-align:center;letter-spacing:0px;word-spacing:0px;text-anchor:middle;stroke-width:0.215979">
      <path
         d="m 141.32772,244.06386 h -1.77391 v 0.22577 c 0.62893,0.0726 0.66118,0.16127 0.5483,0.64506 -0.12095,0.57249 -0.57249,2.15288 -0.91115,3.23336 h -0.0161 c -0.49186,-1.39494 -0.95953,-2.70119 -1.41107,-4.03162 h -0.23383 c -0.41123,1.31431 -0.87083,2.6528 -1.30624,4.02355 h -0.0161 c -0.35478,-1.14498 -0.66925,-2.23351 -0.98371,-3.32205 -0.12095,-0.41122 -0.10483,-0.47573 0.48379,-0.5483 v -0.22577 h -1.95937 v 0.22577 c 0.49186,0.0565 0.61281,0.12902 0.81439,0.7902 0.44348,1.43525 0.89502,2.85438 1.32237,4.31383 h 0.24996 c 0.41123,-1.30625 0.86277,-2.60443 1.31431,-4.02355 h 0.0161 c 0.41123,1.16916 0.96759,2.72537 1.41107,4.02355 h 0.24996 c 0.66118,-2.25771 1.15304,-3.78166 1.33043,-4.2977 0.2419,-0.66925 0.31447,-0.73376 0.87083,-0.80633 z"
         id="path72176" />
    </g>
    <g
       aria-label="K"
       id="text67422"
       style="font-size:8.06323px;line-height:1.25;font-family:'Minion Pro';-inkscape-font-specification:'Minion Pro';text-align:center;letter-spacing:0px;word-spacing:0px;text-anchor:middle;stroke-width:0.215979">
      <path
         d="m 151.16568,249.30496 v -0.22577 c -0.38703,-0.0484 -0.5483,-0.12095 -0.97565,-0.58055 -0.40316,-0.43542 -1.29012,-1.42719 -1.89486,-2.1932 0.54024,-0.5483 1.11273,-1.12885 1.42719,-1.41106 0.50799,-0.46767 0.7015,-0.5483 1.30625,-0.60475 v -0.22577 h -1.93518 v 0.22577 l 0.18546,0.0242 c 0.36284,0.0403 0.3709,0.12095 0.12901,0.41123 -0.36285,0.44348 -0.90308,1.0079 -1.34656,1.43525 -0.22577,0.20965 -0.38704,0.32253 -0.56443,0.36285 v -1.41107 c 0,-0.71762 0.0806,-0.77407 0.7015,-0.82245 v -0.22577 h -2.08031 v 0.22577 c 0.637,0.0484 0.7015,0.0887 0.7015,0.82245 v 3.16079 c 0,0.7015 -0.0645,0.75794 -0.67731,0.80632 v 0.22577 h 2.09644 v -0.22577 c -0.66925,-0.0484 -0.74182,-0.10482 -0.74182,-0.80632 v -1.53201 c 0.13708,-0.0242 0.2419,0 0.43542,0.2177 0.71762,0.8547 1.37075,1.6449 1.99968,2.3464 z"
         id="path72173" />
    </g>
    <g
       aria-label="B"
       id="text67426"
       style="font-size:8.06323px;line-height:1.25;font-family:'Minion Pro';-inkscape-font-specification:'Minion Pro';text-align:center;letter-spacing:0px;word-spacing:0px;text-anchor:middle;stroke-width:0.215979">
      <path
         d="m 101.44974,256.5459 c 0.44347,-0.12901 1.08853,-0.44348 1.08853,-1.20949 0,-0.3709 -0.16933,-0.72569 -0.45154,-0.9192 -0.24996,-0.1774 -0.60474,-0.27415 -1.20948,-0.27415 h -2.072254 v 0.22577 c 0.645058,0.0484 0.677311,0.0968 0.677311,0.766 v 3.25755 c 0,0.66925 -0.04838,0.71763 -0.741817,0.766 v 0.22578 h 1.78197 c 0.637,0 1.16917,-0.0968 1.5804,-0.32253 0.47573,-0.25803 0.766,-0.67732 0.766,-1.21755 0,-0.80632 -0.62086,-1.16111 -1.41912,-1.28206 z m -1.28206,-0.0806 v -1.5804 c 0,-0.26608 0.0242,-0.35478 0.10482,-0.40316 0.0726,-0.0484 0.25803,-0.0806 0.45154,-0.0806 0.76601,0 1.07241,0.48379 1.07241,1.03209 0,0.67731 -0.3709,1.0321 -1.2498,1.0321 z m 0,0.27415 h 0.36285 c 0.98371,0 1.54814,0.36284 1.54814,1.18529 0,0.84664 -0.58862,1.17723 -1.24174,1.1853 -0.52411,0 -0.66925,-0.15321 -0.66925,-0.73376 z"
         id="path72170" />
    </g>
    <g
       aria-label="R"
       id="text67430"
       style="font-size:8.06323px;line-height:1.25;font-family:'Minion Pro';-inkscape-font-specification:'Minion Pro';text-align:center;letter-spacing:0px;word-spacing:0px;text-anchor:middle;stroke-width:0.215979">
      <path
         d="m 117.69831,259.23902 c -0.17739,-0.0484 -0.37091,-0.13708 -0.58055,-0.37897 -0.20159,-0.20965 -0.36285,-0.41929 -0.65313,-0.83858 -0.24189,-0.36285 -0.58055,-0.90308 -0.71762,-1.16111 0.58861,-0.26608 1.02403,-0.69343 1.02403,-1.38687 0,-0.48379 -0.20965,-0.84664 -0.54024,-1.05628 -0.29834,-0.20158 -0.69344,-0.27415 -1.28205,-0.27415 h -1.99968 v 0.22577 c 0.62893,0.0564 0.69343,0.0806 0.69343,0.766 v 3.24142 c 0,0.68538 -0.0645,0.73376 -0.72569,0.78213 v 0.22578 h 2.11257 v -0.22578 c -0.637,-0.0484 -0.70957,-0.0968 -0.70957,-0.78213 v -1.28205 h 0.25803 c 0.41122,0 0.5483,0.0968 0.68537,0.32253 0.2419,0.3951 0.53218,0.89502 0.81439,1.29011 0.36284,0.52411 0.69344,0.7015 1.30624,0.73376 0.0887,0.008 0.18546,0.008 0.28222,0.008 z m -3.3785,-2.40285 v -1.99161 c 0,-0.22577 0.0242,-0.31447 0.0887,-0.35479 0.0645,-0.0484 0.20158,-0.0806 0.43541,-0.0806 0.60475,0 1.17724,0.32253 1.17724,1.19336 0,0.43542 -0.12902,0.75794 -0.44348,0.99984 -0.20158,0.16933 -0.46767,0.23383 -0.87083,0.23383 z"
         id="path72167" />
    </g>
    <g
       aria-label="Y"
       id="text67434"
       style="font-size:8.06323px;line-height:1.25;font-family:'Minion Pro';-inkscape-font-specification:'Minion Pro';text-align:center;letter-spacing:0px;word-spacing:0px;text-anchor:middle;stroke-width:0.215979">
      <path
         d="m 129.10745,253.61388 h -1.78198 v 0.22577 c 0.62894,0.0645 0.65312,0.12901 0.46767,0.53217 -0.22577,0.49186 -0.66118,1.28206 -0.95952,1.81423 -0.34672,-0.60474 -0.74182,-1.26593 -1.08854,-1.91098 -0.14514,-0.26609 -0.16933,-0.36285 0.41122,-0.43542 v -0.22577 h -1.92711 v 0.22577 c 0.4838,0.0403 0.57249,0.12901 0.89502,0.68538 0.43542,0.74181 0.73376,1.27399 1.01597,1.76584 0.13707,0.24996 0.16933,0.32253 0.16933,0.4838 v 1.07241 c 0,0.68537 -0.0645,0.73375 -0.78214,0.78213 v 0.22577 h 2.27383 v -0.22577 c -0.74181,-0.0484 -0.80632,-0.10482 -0.80632,-0.78213 v -1.0966 c 0,-0.20965 0.0242,-0.29834 0.13708,-0.50799 0.37897,-0.70956 0.65312,-1.17723 1.01596,-1.76584 0.30641,-0.49186 0.40316,-0.57249 0.95953,-0.637 z"
         id="path72164" />
    </g>
    <g
       aria-label="X"
       id="text67438"
       style="font-size:8.06323px;line-height:1.25;font-family:'Minion Pro';-inkscape-font-specification:'Minion Pro';text-align:center;letter-spacing:0px;word-spacing:0px;text-anchor:middle;stroke-width:0.215979">
      <path
         d="m 139.64955,258.32581 v -0.22577 c -0.56443,-0.0564 -0.74182,-0.1774 -1.11273,-0.74182 -0.38703,-0.58862 -0.83051,-1.29012 -1.26592,-1.98356 0.54023,-0.83051 0.80632,-1.20948 0.97565,-1.44331 0.36284,-0.47573 0.51604,-0.55637 1.11272,-0.62087 v -0.22577 h -1.83841 v 0.22577 c 0.53217,0.0645 0.57249,0.14514 0.37897,0.49992 -0.21771,0.3951 -0.45961,0.78213 -0.79826,1.30624 -0.35478,-0.5483 -0.65312,-1.0079 -0.91921,-1.46751 -0.12095,-0.20964 -0.11289,-0.28221 0.37897,-0.33865 v -0.22577 h -1.98355 v 0.22577 c 0.58055,0.0645 0.68537,0.1532 1.03209,0.67731 0.28221,0.45154 0.65312,1.04822 1.08047,1.72553 -0.70956,1.0966 -1.12079,1.67715 -1.32237,1.92711 -0.23383,0.3064 -0.48379,0.41123 -0.94339,0.45961 v 0.22577 h 1.84648 v -0.22577 c -0.54024,-0.0645 -0.58056,-0.14514 -0.38704,-0.49186 0.25802,-0.47573 0.58862,-1.0321 0.98371,-1.62877 0.49992,0.79019 0.86277,1.39493 1.06435,1.72553 0.1532,0.26608 0.0968,0.33865 -0.40316,0.3951 v 0.22577 z"
         id="path72161" />
    </g>
    <g
       aria-label="L"
       id="text67442"
       style="font-size:8.06323px;line-height:1.25;font-family:'Minion Pro';-inkscape-font-specification:'Minion Pro';text-align:center;letter-spacing:0px;word-spacing:0px;text-anchor:middle;stroke-width:0.215979">
      <path
         d="m 148.7356,258.06985 c -0.12095,0.37091 -0.26609,0.62893 -0.41123,0.7902 -0.18545,0.20964 -0.4596,0.24996 -0.90308,0.24996 -0.33866,0 -0.61281,-0.0161 -0.77407,-0.10483 -0.14514,-0.0806 -0.18545,-0.24189 -0.18545,-0.67731 v -3.18497 c 0,-0.69344 0.0726,-0.72569 0.70956,-0.77407 v -0.22577 h -2.1045 v 0.22577 c 0.66118,0.0484 0.70956,0.0887 0.70956,0.77407 v 3.22529 c 0,0.68537 -0.0645,0.74182 -0.74182,0.79019 v 0.22578 h 3.65265 c 0.0726,-0.24996 0.24189,-1.01597 0.29027,-1.26593 z"
         id="path72158" />
    </g>
    <g
       aria-label="A"
       id="text67446"
       style="font-size:8.06323px;line-height:1.25;font-family:'Minion Pro';-inkscape-font-specification:'Minion Pro';text-align:center;letter-spacing:0px;word-spacing:0px;text-anchor:middle;stroke-width:0.215979">
      <path
         d="m 105.57818,267.87595 v -0.22577 c -0.52411,-0.0484 -0.63699,-0.12095 -0.88695,-0.81439 -0.51605,-1.403 -1.05628,-2.94308 -1.5562,-4.32189 l -0.24996,0.0726 -1.66909,4.22513 c -0.27415,0.71763 -0.38704,0.76601 -0.90308,0.83858 v 0.22577 h 1.75778 v -0.22577 c -0.61281,-0.0564 -0.67731,-0.13708 -0.50798,-0.64506 0.10482,-0.33866 0.22577,-0.67731 0.35478,-1.04016 h 1.71747 c 0.17739,0.49186 0.33865,0.92727 0.44347,1.24174 0.10483,0.31446 0.0323,0.37897 -0.47573,0.44348 v 0.22577 z m -2.05612,-2.25771 h -1.48363 c 0.24996,-0.66118 0.49992,-1.37075 0.75794,-2.05612 h 0.0161 z"
         id="path72155" />
    </g>
    <g
       aria-label="P"
       id="text67450"
       style="font-size:8.06323px;line-height:1.25;font-family:'Minion Pro';-inkscape-font-specification:'Minion Pro';text-align:center;letter-spacing:0px;word-spacing:0px;text-anchor:middle;stroke-width:0.215979">
      <path
         d="m 114.80265,262.10567 v 0.22577 c 0.59668,0.0403 0.66118,0.0726 0.66118,0.78214 v 3.22529 c 0,0.66925 -0.0645,0.73375 -0.70956,0.78213 v 0.22577 h 2.18513 V 267.121 c -0.72569,-0.0484 -0.79826,-0.0887 -0.79826,-0.77407 V 265.081 l 0.59668,0.15321 c 0.0887,0.008 0.2419,0.008 0.36285,-0.008 0.7902,-0.0968 1.57233,-0.60474 1.57233,-1.65296 0,-0.52411 -0.20158,-0.89502 -0.51605,-1.13692 -0.32253,-0.23383 -0.79019,-0.33059 -1.36268,-0.33059 z m 1.33849,0.73376 c 0,-0.23384 0.0242,-0.3306 0.0887,-0.37898 0.0564,-0.0564 0.22577,-0.0967 0.45154,-0.0967 0.66119,0 1.21755,0.3709 1.21755,1.24173 0,1.02403 -0.64506,1.30625 -1.16917,1.30625 -0.26609,0 -0.48379,-0.0564 -0.58862,-0.0968 z"
         id="path72152" />
    </g>
    <g
       aria-label="O"
       id="text67454"
       style="font-size:8.06323px;line-height:1.25;font-family:'Minion Pro';-inkscape-font-specification:'Minion Pro';text-align:center;letter-spacing:0px;word-spacing:0px;text-anchor:middle;stroke-width:0.215979">
      <path
         d="m 126.72476,262.5139 c -1.70134,0 -2.71731,1.34656 -2.71731,2.79794 0,1.5562 1.16111,2.68505 2.62055,2.68505 1.47557,0 2.69312,-1.06434 2.69312,-2.806 0,-1.62071 -1.23368,-2.67699 -2.59636,-2.67699 z m -0.17739,0.29027 c 1.06434,0 1.9513,0.90309 1.9513,2.60443 0,1.54814 -0.79826,2.29802 -1.70134,2.29802 -1.13692,0 -1.96743,-1.10466 -1.96743,-2.62055 0,-1.51589 0.82245,-2.2819 1.71747,-2.2819 z"
         id="path72149" />
    </g>
    <g
       aria-label="N"
       id="text67458"
       style="font-size:8.06323px;line-height:1.25;font-family:'Minion Pro';-inkscape-font-specification:'Minion Pro';text-align:center;letter-spacing:0px;word-spacing:0px;text-anchor:middle;stroke-width:0.215979">
      <path
         d="m 138.74847,262.63485 h -1.90292 v 0.22577 c 0.56442,0.0242 0.74988,0.12901 0.79019,0.49992 0.0323,0.22577 0.0564,0.58861 0.0564,1.33849 v 1.98356 h -0.0242 l -3.37043,-4.04774 h -1.18529 v 0.22577 c 0.37897,0.0323 0.5483,0.0968 0.71763,0.29834 0.14514,0.18545 0.16126,0.22577 0.16126,0.81438 v 1.77391 c 0,0.73376 -0.0242,1.12886 -0.0484,1.37882 -0.0403,0.39509 -0.24996,0.49992 -0.70956,0.52411 v 0.22577 h 1.91098 v -0.22577 c -0.5483,-0.0323 -0.73375,-0.12902 -0.77407,-0.54024 -0.0242,-0.23383 -0.0484,-0.62087 -0.0484,-1.36269 v -2.02387 h 0.0161 l 3.43494,4.22514 h 0.24996 v -3.24949 c 0,-0.74988 0.0161,-1.11272 0.0484,-1.36268 0.0323,-0.34672 0.22577,-0.45154 0.67731,-0.47573 z"
         id="path72146" />
    </g>
    <g
       aria-label="M"
       id="text67462"
       style="font-size:8.06323px;line-height:1.25;font-family:'Minion Pro';-inkscape-font-specification:'Minion Pro';text-align:center;letter-spacing:0px;word-spacing:0px;text-anchor:middle;stroke-width:0.215979">
      <path
         d="m 148.6761,267.87595 v -0.22577 c -0.7015,-0.0564 -0.72569,-0.10483 -0.74988,-0.95953 l -0.0726,-2.91889 c -0.0242,-0.83051 0.0242,-0.84664 0.74182,-0.91114 v -0.22577 h -1.37075 l -1.87067,4.03967 -1.83842,-4.03967 h -1.32237 v 0.22577 c 0.73375,0.0726 0.77407,0.10482 0.7015,1.15304 l -0.11288,1.67715 c -0.0565,0.84664 -0.10483,1.19336 -0.1532,1.47557 -0.0565,0.33866 -0.20965,0.43542 -0.68538,0.4838 v 0.22577 h 1.87873 v -0.22577 c -0.54023,-0.0564 -0.72569,-0.11289 -0.74181,-0.49992 -0.008,-0.32253 -0.008,-0.66925 0.0242,-1.3385 l 0.12094,-2.29802 h 0.0161 l 1.80616,4.30576 h 0.16127 l 1.96743,-4.41865 h 0.0322 l 0.0323,3.2898 c 0,0.8547 -0.0242,0.90308 -0.68537,0.95953 v 0.22577 z"
         id="path72143" />
    </g>
    <g
       transform="matrix(0.26458333,0,0,0.26458333,-58.90575,100.97675)"
       id="text69582"
       style="font-size:37.3333px;line-height:1.25;font-family:'Minion Pro';-inkscape-font-specification:'Minion Pro';letter-spacing:0px;word-spacing:0px;white-space:pre;shape-inside:url(#rect69584)" />
  </g>
</svg>
