<?xml version="1.0" encoding="UTF-8" standalone="no"?>
<!-- Created with Inkscape (http://www.inkscape.org/) -->

<svg
   width="212.45433mm"
   height="31.841797mm"
   viewBox="0 0 212.45433 31.841797"
   version="1.1"
   id="svg5"
   inkscape:version="1.2.1 (9c6d41e410, 2022-07-14)"
   sodipodi:docname="neviditelne-pismenka-hint.svg"
   inkscape:export-filename="neviditelne-pismenka.png"
   inkscape:export-xdpi="96"
   inkscape:export-ydpi="96"
   xmlns:inkscape="http://www.inkscape.org/namespaces/inkscape"
   xmlns:sodipodi="http://sodipodi.sourceforge.net/DTD/sodipodi-0.dtd"
   xmlns="http://www.w3.org/2000/svg"
   xmlns:svg="http://www.w3.org/2000/svg">
  <sodipodi:namedview
     id="namedview7"
     pagecolor="#ffffff"
     bordercolor="#000000"
     borderopacity="0.25"
     inkscape:showpageshadow="2"
     inkscape:pageopacity="0.0"
     inkscape:pagecheckerboard="0"
     inkscape:deskcolor="#d1d1d1"
     inkscape:document-units="mm"
     showgrid="false"
     inkscape:zoom="1.4912879"
     inkscape:cx="419.7714"
     inkscape:cy="130.0889"
     inkscape:window-width="1920"
     inkscape:window-height="1017"
     inkscape:window-x="-8"
     inkscape:window-y="-8"
     inkscape:window-maximized="1"
     inkscape:current-layer="layer1"
     showguides="true">
    <sodipodi:guide
       position="212.45434,30.978898"
       orientation="1,0"
       id="guide3064"
       inkscape:locked="false" />
  </sodipodi:namedview>
  <defs
     id="defs2" />
  <g
     inkscape:label="Vrstva 1"
     inkscape:groupmode="layer"
     id="layer1"
     transform="translate(0,0.84179688)">
    <text
       xml:space="preserve"
       style="font-size:14.1111px;white-space:pre;inline-size:14.8037;display:inline;fill:#000000;fill-opacity:0;stroke:#ffffff;stroke-width:0.264583"
       x="30.870968"
       y="46.838707"
       id="text113"><tspan
         x="30.870968"
         y="46.838707"
         id="tspan3493"><tspan
           dx="0 8.2131014"
           id="tspan3491">ko</tspan></tspan></text>
    <g
       aria-label="KODZNIE"
       id="text506"
       style="font-size:50.8px;fill-opacity:0;stroke:#ffffff;stroke-width:0.264583">
      <g
         id="path2293">
        <path
           style="color:#000000;-inkscape-font-specification:'Courier New Bold';fill:#000000;fill-opacity:1;stroke:none;-inkscape-stroke:none"
           d="m 9.4092445,19.407943 v 5.630664 h 1.8355465 q 1.835547,0 2.604492,0.719336 0.79375,0.694531 0.79375,1.835546 0,1.116211 -0.79375,1.835547 -0.768945,0.694532 -2.604492,0.694532 H 3.5305336 q -1.8355468,0 -2.6292968,-0.694532 -0.7689453,-0.719336 -0.7689453,-1.860351 0,-1.116211 0.79374999,-1.810742 0.79375001,-0.719336 2.60449211,-0.719336 h 0.79375 V 5.1452476 h -0.79375 q -1.8355468,0 -2.6292968,-0.6945312 -0.7689453,-0.7193359 -0.7689453,-1.8603515 0,-1.1410156 0.7689453,-1.83554688 0.79375,-0.71933592 2.6292968,-0.71933592 l 7.7142574,0.02480468 q 1.835547,0 2.604492,0.69453124 0.79375,0.69453128 0.79375,1.83554688 0,1.1410156 -0.79375,1.8603515 -0.768945,0.6945312 -2.604492,0.6945312 H 9.4092445 V 12.685873 L 18.438151,4.9220055 Q 17.644401,4.3514977 17.346744,3.8554039 17.049088,3.3593102 17.049088,2.6399742 q 0,-1.1658203 0.768945,-1.88515618 0.79375,-0.71933592 2.629297,-0.71933592 l 5.18418,0.02480468 q 1.835547,0 2.604492,0.69453124 0.79375,0.69453128 0.79375,1.83554688 0,1.1162109 -0.79375,1.8355468 -0.768945,0.7193359 -2.430859,0.7193359 l -9.128125,7.9871094 q 2.554883,1.463476 4.787304,4.464844 2.257227,3.001367 3.993555,7.441406 h 1.364258 q 1.810742,0 2.579687,0.719336 0.79375,0.694531 0.79375,1.835546 0,1.116211 -0.768945,1.835547 -0.768945,0.694532 -2.604492,0.694532 h -4.613672 q -1.5875,-3.795118 -3.472656,-7.242969 -1.537891,-2.80293 -2.926953,-4.067969 -1.364258,-1.289843 -3.274219,-2.058789 z"
           id="path2310" />
        <path
           style="color:#000000;-inkscape-font-specification:'Courier New Bold';fill:#ffffff;fill-opacity:1;stroke:none;-inkscape-stroke:none"
           d="m 3.53125,-0.09765625 c -1.2409779,0 -2.1519853,0.24027572 -2.71875,0.75390625 C 0.27312804,1.1434247 0,1.7994498 0,2.5898438 0,3.3802377 0.27243367,4.0434788 0.81054688,4.546875 l 0.001953,0.00195 0.001953,0.00195 C 1.3816515,5.0470798 2.290868,5.2773437 3.53125,5.2773437 H 4.1914062 V 24.90625 H 3.53125 c -1.2233766,0 -2.1250377,0.239907 -2.69140625,0.751953 C 0.28424591,26.144351 0,26.792862 0,27.568359 c 0,0.790394 0.27243369,1.453635 0.81054688,1.957032 l 0.001953,0.002 0.001953,0.002 C 1.3816515,30.025596 2.2908679,30.255859 3.53125,30.255859 h 7.712891 c 1.240382,0 2.141873,-0.230398 2.693359,-0.728515 0.554395,-0.502421 0.837891,-1.158096 0.837891,-1.933594 0,-0.790389 -0.283048,-1.44711 -0.837891,-1.933594 C 13.386357,25.145868 12.483787,24.90625 11.244141,24.90625 H 9.5410156 v -5.4375 l 3.0078124,-2.550781 c 1.227279,0.503663 2.291211,1.159454 3.169922,1.990234 v 0.002 h 0.002 c 0.908048,0.826973 1.87722,2.171953 2.898438,4.033203 1.254466,2.294354 2.410154,4.704434 3.466796,7.230469 l 0.03516,0.08203 h 4.701172 c 1.240382,0 2.141873,-0.230398 2.693359,-0.728515 l 0.002,-0.002 c 0.537559,-0.502878 0.810547,-1.157123 0.810547,-1.931641 0,-0.790389 -0.283048,-1.44711 -0.837891,-1.933594 -0.55061,-0.513801 -1.444611,-0.753906 -2.667968,-0.753906 H 25.542969 C 24.390391,21.977792 23.0686,19.509806 21.570312,17.517578 20.116956,15.56362 18.553267,14.112167 16.886719,13.125 l 8.976562,-7.8554688 c 1.092968,-0.00945 1.924414,-0.2449605 2.460938,-0.7460937 0.554395,-0.5024208 0.83789,-1.1580959 0.83789,-1.9335937 0,-0.790389 -0.283047,-1.4471098 -0.83789,-1.9335938 -0.551155,-0.49781765 -1.452177,-0.72823872 -2.691407,-0.72851562 h -0.002 l -5.183593,-0.02539063 c -1.240978,0 -2.151986,0.24027572 -2.71875,0.75390625 v 0.001953 c -0.538667,0.5039145 -0.8125,1.1761238 -0.8125,1.9824219 0,0.4978039 0.103455,0.9282851 0.316406,1.2832031 0.191398,0.3189963 0.560122,0.6481575 1.011719,0.9902344 L 9.5410156,12.398438 V 5.2773437 h 1.7031254 c 1.240382,0 2.141873,-0.2303986 2.693359,-0.7285156 0.554956,-0.5029289 0.837891,-1.1676318 0.837891,-1.9589843 0,-0.790389 -0.283048,-1.4471098 -0.837891,-1.9335938 -0.551155,-0.49781765 -1.452177,-0.72823872 -2.691406,-0.72851562 h -0.002 z m -0.00195,0.265625 7.714844,0.0253906 c 1.207011,0 2.041852,0.2322325 2.515625,0.66015626 h 0.002 c 0.502147,0.43937869 0.748047,1.00632809 0.748047,1.73632819 0,0.73 -0.246624,1.3074871 -0.75,1.7636718 -0.473773,0.4279238 -1.308614,0.6601563 -2.515625,0.6601563 H 9.2773438 V 12.974609 L 18.652344,4.9121094 18.515625,4.8144531 C 17.994852,4.4401473 17.644195,4.092537 17.460937,3.7871094 17.277014,3.4805698 17.181641,3.1019348 17.181641,2.640625 c 0,-0.7474263 0.240887,-1.3320934 0.726562,-1.78710937 0.491718,-0.44486904 1.333512,-0.68554688 2.539063,-0.68554688 l 5.183593,0.0253906 c 1.207012,0 2.041853,0.2322325 2.515625,0.66015626 h 0.002 c 0.502148,0.43937869 0.748047,1.00632809 0.748047,1.73632819 0,0.7127819 -0.246063,1.2815884 -0.75,1.7382812 v 0.00195 c -0.477906,0.4470743 -1.252942,0.6835938 -2.341797,0.6835938 h -0.04883 l -9.304687,8.1406252 0.160156,0.09375 c 1.683828,0.964522 3.266093,2.437954 4.746094,4.427734 h 0.002 c 1.495775,1.988888 2.820458,4.458826 3.974609,7.410156 l 0.0332,0.08594 h 1.455079 c 1.189642,0 2.013484,0.239428 2.488281,0.683594 h 0.002 l 0.002,0.002 C 29.8166,26.2968 30.0625,26.86375 30.0625,27.59375 c 0,0.712794 -0.238244,1.280406 -0.724609,1.736328 -3.44e-4,3.11e-4 -0.0016,-3.1e-4 -0.002,0 -0.473952,0.42733 -1.307536,0.662109 -2.513671,0.662109 H 22.29097 C 21.240551,27.488662 20.096694,25.093686 18.851562,22.816406 17.822816,20.941432 16.843953,19.576624 15.900391,18.716797 14.978028,17.844745 13.87094,17.148985 12.583984,16.630859 l -0.07422,-0.0293 -3.2324222,2.746094 v 0.06055 5.763672 h 1.9667972 c 1.206415,0 2.041346,0.239913 2.515625,0.683594 l 0.002,0.002 c 0.502147,0.439378 0.748047,1.006328 0.748047,1.736328 0,0.712782 -0.246063,1.279635 -0.75,1.736328 -0.473773,0.427924 -1.308614,0.662109 -2.515625,0.662109 H 3.53125 c -1.2050488,0 -2.0475814,-0.231754 -2.5390625,-0.660156 -4.6084e-4,-4.31e-4 4.604e-4,-0.0015 0,-0.002 -0.48621797,-0.455516 -0.72851562,-1.031452 -0.72851562,-1.761719 0,-0.712782 0.24726558,-1.271045 0.75000002,-1.710937 l 0.00195,-0.002 C 1.5077006,25.409525 2.3416078,25.171875 3.53125,25.171875 H 4.4570312 V 5.0136719 H 3.53125 c -1.2050488,0 -2.0475815,-0.2317547 -2.5390625,-0.6601563 -4.6084e-4,-4.311e-4 4.604e-4,-0.00152 0,-0.00195 C 0.50596955,3.8960468 0.26367187,3.3201109 0.26367188,2.5898438 c 0,-0.7309587 0.24067508,-1.2974621 0.7265625,-1.73632817 C 1.4814497,0.40835174 2.3242671,0.16831181 3.5292969,0.16796875 Z"
           id="path2312" />
      </g>
      <g
         id="path2295">
        <path
           style="color:#000000;-inkscape-font-specification:'Courier New Bold';fill:#000000;fill-opacity:1;stroke:none;-inkscape-stroke:none"
           d="m 59.465103,15.091927 q 0,6.77168 -4.316015,11.286133 -4.291211,4.489648 -9.94668,4.489648 -5.084961,0 -9.177734,-3.745508 -5.060156,-4.638476 -5.060156,-12.030273 0,-7.3917966 5.060156,-12.0550778 4.092773,-3.74550772 9.177734,-3.74550772 5.655469,0 9.94668,4.51445302 4.316015,4.4896484 4.316015,11.2861325 z m -5.084961,0 q 0,-4.638476 -2.802929,-7.6646481 -2.80293,-3.0509766 -6.374805,-3.0509766 -3.54707,0 -6.35,3.0509766 -2.802929,3.0509761 -2.802929,7.6646481 0,4.613672 2.802929,7.664649 2.80293,3.026171 6.35,3.026171 3.571875,0 6.374805,-3.026171 2.802929,-3.026172 2.802929,-7.664649 z"
           id="path2316" />
        <path
           style="color:#000000;-inkscape-font-specification:'Courier New Bold';fill:#ffffff;fill-opacity:1;stroke:none;-inkscape-stroke:none"
           d="m 45.203125,-0.84179688 c -3.422452,10e-9 -6.518936,1.26582588 -9.267578,3.78124998 -3.399049,3.1324568 -5.103516,7.1942969 -5.103516,12.1523439 0,4.958047 1.704279,9.010986 5.103516,12.126953 v 0.002 C 38.684189,29.736127 41.780673,31 45.203125,31 c 3.805316,0 7.160154,-1.51717 10.041016,-4.53125 2.900172,-3.033514 4.353515,-6.834398 4.353515,-11.376953 0,-4.558988 -1.453061,-8.3598139 -4.353515,-11.3769532 -2.880799,-3.03066674 -6.235507,-4.55664068 -10.041016,-4.55664068 z m 0,0.26562501 c 3.735109,-10e-9 7.008799,1.48405826 9.849609,4.47265627 l 0.002,0.00195 c 2.854227,2.9690526 4.277344,6.6903776 4.277344,11.1933596 0,4.486343 -1.424788,8.209561 -4.279297,11.195312 -2.840747,2.972111 -6.114307,4.449219 -9.849609,4.449219 -3.357489,0 -6.381461,-1.232356 -9.089844,-3.710937 -3.347631,-3.068662 -5.015625,-7.035922 -5.015625,-11.933594 0,-4.897672 1.669759,-8.8717862 5.017578,-11.9570315 2.708051,-2.47778593 5.730939,-3.71093747 9.087891,-3.71093747 z m 0,4.82031247 c -2.402641,0 -4.559838,1.0392939 -6.447266,3.09375 -1.891093,2.0584472 -2.83789,4.6513374 -2.83789,7.7539064 0,3.102568 0.946797,5.695458 2.83789,7.753906 1.887523,2.037856 4.044934,3.068359 6.447266,3.068359 2.418608,0 4.583048,-1.03036 6.470703,-3.068359 1.891515,-2.042167 2.837891,-4.634944 2.837891,-7.753906 0,-3.118961 -0.946376,-5.7117387 -2.837891,-7.7539064 -1.887559,-2.0545992 -4.051789,-3.09375 -6.470703,-3.09375 z m 0,0.2636719 c 2.343581,0 4.427666,0.9964002 6.277344,3.0097656 1.845719,1.9927245 2.767578,4.5085519 2.767578,7.5742189 0,3.065668 -0.921859,5.581494 -2.767578,7.574219 -1.849581,1.996892 -3.933456,2.984375 -6.277344,2.984375 -2.32709,0 -4.404193,-0.987341 -6.253906,-2.984375 -1.845369,-2.00931 -2.767578,-4.525869 -2.767578,-7.574219 0,-3.048988 0.921436,-5.564702 2.767578,-7.5742189 1.849809,-2.0135086 3.927125,-3.0097656 6.253906,-3.0097656 z"
           id="path2318" />
      </g>
      <g
         id="path2297">
        <path
           style="color:#000000;-inkscape-font-specification:'Courier New Bold';fill:#000000;fill-opacity:1;stroke:none;-inkscape-stroke:none"
           d="M 64.302017,25.038607 V 5.1452476 Q 62.689713,5.120443 61.920767,4.4259117 61.151822,3.7065758 61.151822,2.5903649 q 0,-1.1410156 0.768945,-1.83554688 0.79375,-0.71933592 2.629297,-0.71933592 l 10.641211,0.02480468 q 2.480469,0 4.836914,0.91777343 2.38125,0.91777339 3.819922,2.33164059 1.091406,1.0666015 2.257226,2.9269531 1.190625,1.8603515 1.785938,3.6958984 0.595312,1.8355467 0.595312,4.4896487 v 2.430859 q 0,3.224609 -1.091406,5.729883 -1.091406,2.480468 -2.877344,4.067968 -1.761133,1.562696 -3.323828,2.306836 -2.480469,1.165821 -6.424414,1.165821 H 64.550064 q -1.835547,0 -2.629297,-0.694532 -0.768945,-0.719336 -0.768945,-1.860351 0,-1.116211 0.768945,-1.835547 0.79375,-0.719336 2.38125,-0.694531 z m 5.084961,0 H 74.7944 q 3.026172,0 4.564062,-0.868164 2.00918,-1.141016 3.026172,-2.902149 1.016992,-1.761133 1.016992,-4.564062 v -2.406055 q 0,-2.406054 -0.917773,-4.216797 Q 81.045181,7.253646 79.234439,6.2118492 77.448501,5.1452476 74.744791,5.1452476 h -5.357813 z"
           id="path2322" />
        <path
           style="color:#000000;-inkscape-font-specification:'Courier New Bold';fill:#ffffff;fill-opacity:1;stroke:none;-inkscape-stroke:none"
           d="m 64.550781,-0.09765625 c -1.240978,0 -2.151985,0.24027572 -2.71875,0.75390625 -0.539372,0.4871747 -0.8125,1.1431998 -0.8125,1.9335938 0,0.7745178 0.272988,1.4307157 0.810547,1.9335937 h 0.002 c 0.517285,0.4672243 1.328846,0.6761532 2.337891,0.7148437 V 24.945312 c -0.994411,0.01016 -1.80625,0.207654 -2.337891,0.689454 v 0.002 h -0.002 c -0.537559,0.502878 -0.810547,1.157122 -0.810547,1.93164 0,0.790394 0.272434,1.453635 0.810547,1.957032 l 0.002,0.002 0.002,0.002 c 0.567199,0.496299 1.476415,0.726562 2.716797,0.726562 h 10.21875 c 2.642329,0 4.802397,-0.38904 6.480469,-1.177734 1.056833,-0.503254 2.174649,-1.280355 3.355469,-2.328125 1.206194,-1.072172 2.17603,-2.444813 2.910156,-4.113281 0.735904,-1.689234 1.103516,-3.618541 1.103516,-5.783203 v -2.431641 c 0,-1.77929 -0.198916,-3.287802 -0.601563,-4.5292969 C 87.616765,8.6567384 87.015798,7.4144556 86.216797,6.1660156 85.435761,4.9196819 84.679667,3.9363255 83.941406,3.2148438 82.966474,2.2567209 81.676599,1.4723001 80.076172,0.85546875 78.490583,0.23792349 76.861367,-0.07226562 75.191406,-0.07226562 Z m -0.002,0.265625 10.642578,0.0253906 c 1.637329,0 3.232728,0.3020517 4.789063,0.90820315 1.574569,0.6068652 2.832095,1.3757029 3.77539,2.3027344 0.716947,0.7006521 1.464892,1.6682111 2.238282,2.9023437 v 0.00195 c 0.788496,1.2320263 1.378547,2.4525089 1.771484,3.6640626 0.391102,1.2058978 0.587891,2.6897098 0.587891,4.4492188 v 2.431641 c 0,2.134812 -0.360775,4.024653 -1.080079,5.675781 -0.72108,1.638819 -1.668695,2.978945 -2.84375,4.023437 -1.167355,1.035823 -2.26621,1.796224 -3.292968,2.285157 -1.629013,0.765249 -3.751758,1.154297 -6.367188,1.154296 h -10.21875 c -1.205049,10e-7 -2.047581,-0.231754 -2.539062,-0.660156 -4.61e-4,-4.31e-4 4.6e-4,-0.0015 0,-0.002 -0.486218,-0.455516 -0.728516,-1.031452 -0.728516,-1.761719 0,-0.713079 0.241756,-1.280313 0.728516,-1.736328 0.496106,-0.448875 1.251865,-0.678316 2.289062,-0.662109 l 0.132813,0.0039 V 25.039062 5.015625 L 64.30464,5.013675 C 63.24931,4.997435 62.490862,4.7601976 62.011719,4.328125 h -0.002 C 61.523398,3.8722025 61.283203,3.3026386 61.283203,2.5898438 c 0,-0.7309587 0.240675,-1.2974621 0.726563,-1.73632817 0.491215,-0.44516389 1.334032,-0.68520382 2.539062,-0.68554688 z M 69.253906,5.0136719 V 25.171875 h 0.132813 5.408203 c 2.030097,0 3.571299,-0.289682 4.628906,-0.886719 1.356532,-0.770376 2.385499,-1.755127 3.076172,-2.951172 0.693193,-1.200407 1.033203,-2.744289 1.033203,-4.628906 v -2.40625 c 0,-1.620855 -0.30911,-3.049107 -0.931641,-4.277344 -0.966,-1.8986892 -2.060435,-3.2108938 -3.298828,-3.9238278 h -0.002 C 78.085175,5.372121 76.56326,5.0136719 74.744141,5.0136719 Z m 0.265625,0.2636718 h 5.22461 c 1.785075,0 3.256481,0.3528294 4.421875,1.0488282 h 0.002 c 1.175442,0.6762817 2.245346,1.9434393 3.197265,3.8144531 0.601166,1.186085 0.904297,2.570989 0.904297,4.158203 v 2.40625 c 0,1.852618 -0.337205,3.348326 -1,4.496094 -0.665314,1.15213 -1.65419,2.102539 -2.976562,2.853515 -0.992911,0.560515 -2.493252,0.851563 -4.498047,0.851563 h -5.275391 z"
           id="path2324" />
      </g>
      <g
         id="path2299">
        <path
           style="color:#000000;-inkscape-font-specification:'Courier New Bold';fill:#000000;fill-opacity:1;stroke:none;-inkscape-stroke:none"
           d="m 101.16178,25.038607 h 11.53418 v -3.770313 q 0,-1.835547 0.69453,-2.604492 0.71934,-0.79375 1.86035,-0.79375 1.14102,0 1.83555,0.79375 0.71934,0.768945 0.71934,2.604492 l -0.0248,8.855274 H 94.662952 V 25.038607 L 110.16588,5.1452476 h -9.37617 v 3.6462891 q 0,1.8355463 -0.69453,2.6292963 -0.694532,0.768946 -1.835548,0.768946 -1.141016,0 -1.860351,-0.768946 -0.694532,-0.79375 -0.694532,-2.6292963 V 0.0354821 L 116.73912,0.06028678 V 5.0212242 Z"
           id="path2328" />
        <path
           style="color:#000000;-inkscape-font-specification:'Courier New Bold';fill:#ffffff;fill-opacity:1;stroke:none;-inkscape-stroke:none"
           d="M 95.572266,-0.09765625 V 8.7910156 c 0,1.2403814 0.230263,2.1495984 0.726562,2.7167974 l 0.002,0.002 0.002,0.002 c 0.503396,0.538113 1.166637,0.810547 1.957032,0.810547 0.790394,0 1.446418,-0.273128 1.93359,-0.8125 v -0.002 h 0.002 c 0.4963,-0.567199 0.72657,-1.476416 0.72657,-2.7167974 V 5.2773437 h 8.9746 L 94.53125,24.992187 v 5.263672 h 23.38086 l 0.0254,-8.988281 c 0,-1.239646 -0.23766,-2.140263 -0.75195,-2.691406 -0.48666,-0.556185 -1.14419,-0.837891 -1.93555,-0.837891 -0.79135,0 -1.4541,0.280982 -1.95703,0.835938 -0.49812,0.551486 -0.72852,1.452977 -0.72852,2.693359 V 24.90625 H 101.43164 L 116.87109,5.0664062 v -5.13867182 z m 0.265625,0.265625 20.769529,0.0253906 V 4.9765625 L 100.89063,25.171875 h 0.27148 11.66602 v -3.904297 c 0,-1.207011 0.23223,-2.041852 0.66015,-2.515625 0.45619,-0.503376 1.03172,-0.75 1.76172,-0.75 0.73,0 1.29695,0.2459 1.73633,0.748047 l 0.002,0.002 0.002,0.002 c 0.44369,0.474279 0.6836,1.307257 0.6836,2.513672 l -0.0254,8.724609 H 94.794922 V 25.083984 L 110.4375,5.0136719 h -9.7793 v 3.7773437 c 0,1.2061428 -0.23296,2.0497274 -0.662106,2.5410154 -0.438867,0.485888 -1.005369,0.72461 -1.736328,0.72461 -0.730267,0 -1.306204,-0.240345 -1.761719,-0.726563 -8e-5,-9.2e-5 -0.0019,9.2e-5 -0.002,0 -0.428402,-0.491481 -0.658203,-1.334014 -0.658203,-2.5390624 z"
           id="path2330" />
      </g>
      <g
         id="path2301">
        <path
           style="color:#000000;-inkscape-font-specification:'Courier New Bold';fill:#000000;fill-opacity:1;stroke:none;-inkscape-stroke:none"
           d="M 130.28249,9.6597007 V 25.038607 h 1.83554 q 1.83555,0 2.60449,0.719336 0.79375,0.694531 0.79375,1.835546 0,1.116211 -0.79375,1.835547 -0.76894,0.694532 -2.60449,0.694532 h -6.67246 q -1.83555,0 -2.6293,-0.694532 -0.76894,-0.719336 -0.76894,-1.860351 0,-1.091406 0.76894,-1.810742 0.76895,-0.719336 2.38125,-0.719336 V 5.1452476 h -0.79375 q -1.83554,0 -2.62929,-0.6945312 -0.76895,-0.7193359 -0.76895,-1.8603515 0,-1.1410156 0.76895,-1.83554688 0.79375,-0.71933592 2.62929,-0.71933592 L 130.28249,0.06028678 143.28014,20.44974 V 5.1452476 h -1.83555 q -1.83554,0 -2.62929,-0.6945312 -0.76895,-0.7193359 -0.76895,-1.8603515 0,-1.1410156 0.76895,-1.83554688 0.79375,-0.71933592 2.62929,-0.71933592 l 6.67247,0.02480468 q 1.83554,0 2.60449,0.69453124 0.79375,0.69453128 0.79375,1.83554688 0,1.1162109 -0.76895,1.8355468 -0.76894,0.7193359 -2.35644,0.7193359 V 30.123568 h -5.03535 z"
           id="path2334" />
        <path
           style="color:#000000;-inkscape-font-specification:'Courier New Bold';fill:#ffffff;fill-opacity:1;stroke:none;-inkscape-stroke:none"
           d="m 124.4043,-0.09765625 c -1.24098,0 -2.15199,0.24027585 -2.71875,0.75390625 -0.53938,0.4871746 -0.8125,1.1431996 -0.8125,1.9335938 0,0.7903941 0.27243,1.4536351 0.81054,1.9570312 l 0.002,0.00195 0.002,0.00195 c 0.5672,0.4962985 1.47642,0.7265625 2.7168,0.7265625 h 0.66015 V 24.947266 c -1.00874,0.0249 -1.82096,0.231269 -2.33789,0.714843 -0.537,0.50236 -0.8125,1.147579 -0.8125,1.90625 0,0.790394 0.27439,1.453635 0.8125,1.957032 v 0.002 l 0.002,0.002 c 0.56719,0.496299 1.47641,0.726562 2.71679,0.726562 h 6.67188 c 1.24038,0 2.14187,-0.230397 2.69336,-0.728515 0.55439,-0.502421 0.83789,-1.158096 0.83789,-1.933594 0,-0.789716 -0.28203,-1.445282 -0.83594,-1.931641 -0.55098,-0.515433 -1.45433,-0.755859 -2.69531,-0.755859 h -1.70313 V 10.109375 l 12.86719,20.146484 h 5.24023 V 5.2363281 c 0.99454,-0.024854 1.79791,-0.2296685 2.31446,-0.7128906 0.53756,-0.5028779 0.8125,-1.1590757 0.8125,-1.9335937 0,-0.790389 -0.28305,-1.4471098 -0.83789,-1.9335938 -0.55149,-0.49811646 -1.45298,-0.72851562 -2.69336,-0.72851562 l -6.67188,-0.02539063 c -1.24097,0 -2.15198,0.24027585 -2.71875,0.75390625 -0.53937,0.4871746 -0.8125,1.1431996 -0.8125,1.9335938 0,0.7903941 0.27243,1.4536351 0.81055,1.9570312 l 0.002,0.00195 0.002,0.00195 c 0.56719,0.4962985 1.47641,0.7265626 2.71679,0.7265625 h 1.70313 V 19.996094 L 130.35547,-0.07226562 Z m -0.002,0.265625 5.80664,0.0234375 13.20313,20.71289075 V 5.0136719 h -1.9668 c -1.20504,0 -2.04758,-0.2317546 -2.53906,-0.6601563 -4.6e-4,-4.311e-4 4.6e-4,-0.00152 0,-0.00195 -0.48622,-0.4555158 -0.72852,-1.0314517 -0.72852,-1.7617187 0,-0.7309585 0.24068,-1.297462 0.72657,-1.73632817 0.49121,-0.44516402 1.33403,-0.68520382 2.53906,-0.68554688 l 6.67383,0.0253906 c 1.207,0 2.04185,0.23223199 2.51562,0.66015626 h 0.002 c 0.50214,0.43937869 0.74804,1.00632809 0.74804,1.73632819 0,0.7137616 -0.23886,1.2839986 -0.72656,1.7402343 -0.47946,0.4485285 -1.22727,0.6835938 -2.26563,0.6835938 h -0.13281 v 24.978512 h -4.83008 L 130.15039,9.2070313 v 0.453125 15.5117187 h 1.9668 c 1.20641,0 2.04135,0.239914 2.51562,0.683594 l 0.002,0.002 c 0.50214,0.439378 0.75,1.006328 0.75,1.736328 0,0.712782 -0.24802,1.279635 -0.75196,1.736328 -0.47395,0.42733 -1.30948,0.66211 -2.51562,0.662109 h -6.67188 c -1.20614,0 -2.04777,-0.23296 -2.53906,-0.662109 h -0.002 c -0.48583,-0.455432 -0.72461,-1.031737 -0.72461,-1.761719 0,-0.696535 0.23831,-1.256136 0.72656,-1.71289 0.47895,-0.448045 1.23582,-0.683594 2.29102,-0.683594 h 0.13281 V 5.0136719 h -0.92578 c -1.20505,0 -2.04758,-0.2317546 -2.53907,-0.6601563 -4.6e-4,-4.314e-4 4.7e-4,-0.00152 0,-0.00195 -0.48622,-0.4555156 -0.72656,-1.0314523 -0.72656,-1.7617187 0,-0.7309585 0.23872,-1.297462 0.72461,-1.73632817 0.49122,-0.44516402 1.33404,-0.68520382 2.53906,-0.68554688 z"
           id="path2336" />
      </g>
      <g
         id="path2303">
        <path
           style="color:#000000;-inkscape-font-specification:'Courier New Bold';fill:#000000;fill-opacity:1;stroke:none;-inkscape-stroke:none"
           d="M 169.67233,5.1452476 V 25.038607 h 5.13457 q 1.83555,0 2.60449,0.719336 0.79375,0.694531 0.79375,1.835546 0,1.116211 -0.79375,1.835547 -0.76894,0.694532 -2.60449,0.694532 h -15.3541 q -1.83555,0 -2.6293,-0.694532 -0.76894,-0.719336 -0.76894,-1.860351 0,-1.116211 0.76894,-1.810742 0.79375,-0.719336 2.6293,-0.719336 h 5.13457 V 5.1452476 h -5.13457 q -1.83555,0 -2.6293,-0.6945312 -0.76894,-0.7193359 -0.76894,-1.8603515 0,-1.1410156 0.76894,-1.83554688 0.79375,-0.71933592 2.6293,-0.71933592 l 15.3541,0.02480468 q 1.83555,0 2.60449,0.69453124 0.79375,0.69453128 0.79375,1.83554688 0,1.1410156 -0.79375,1.8603515 -0.76894,0.6945312 -2.60449,0.6945312 z"
           id="path2340" />
        <path
           style="color:#000000;-inkscape-font-specification:'Courier New Bold';fill:#ffffff;fill-opacity:1;stroke:none;-inkscape-stroke:none"
           d="m 159.45312,-0.09765625 c -1.24098,0 -2.15198,0.24027566 -2.71875,0.75390625 -0.53936,0.4871748 -0.8125,1.1432 -0.8125,1.9335938 0,0.7903937 0.27244,1.4536349 0.81055,1.9570312 l 0.002,0.00195 0.002,0.00195 c 0.5672,0.4962987 1.47641,0.7265625 2.71679,0.7265625 h 5.00196 V 24.90625 h -5.00196 c -1.24098,0 -2.15198,0.240276 -2.71875,0.753906 -0.53878,0.48665 -0.8125,1.133686 -0.8125,1.908203 0,0.790394 0.27244,1.453635 0.81055,1.957032 l 0.002,0.002 0.002,0.002 c 0.5672,0.496299 1.47641,0.726562 2.71679,0.726562 h 15.35352 c 1.24038,0 2.14188,-0.230397 2.69336,-0.728515 0.5544,-0.502421 0.83789,-1.158096 0.83789,-1.933594 0,-0.790389 -0.28305,-1.44711 -0.83789,-1.933594 -0.55114,-0.514291 -1.45371,-0.753906 -2.69336,-0.753906 h -5.00195 V 5.2773437 h 5.00195 c 1.24038,0 2.14188,-0.2303982 2.69336,-0.7285156 0.55496,-0.5029289 0.83789,-1.1676318 0.83789,-1.9589843 0,-0.790389 -0.28305,-1.4471098 -0.83789,-1.9335938 -0.55148,-0.49811741 -1.45298,-0.72851563 -2.69336,-0.72851562 z m 0,0.265625 15.35352,0.0253906 c 1.20701,0 2.04186,0.23223294 2.51563,0.66015626 h 0.002 c 0.50215,0.43937869 0.74805,1.00632809 0.74805,1.73632819 0,0.73 -0.24663,1.3074871 -0.75,1.7636718 -0.47377,0.4279233 -1.30862,0.6601563 -2.51563,0.6601563 h -5.26758 V 5.1445312 25.171875 h 5.26758 c 1.20642,0 2.0394,0.239914 2.51367,0.683594 h 0.002 l 0.002,0.002 c 0.50215,0.439378 0.74805,1.006328 0.74805,1.736328 0,0.712782 -0.24607,1.279635 -0.75,1.736328 -0.47377,0.427924 -1.30862,0.662109 -2.51563,0.662109 h -15.35352 c -1.20505,0 -2.04758,-0.231754 -2.53906,-0.660156 -4.6e-4,-4.31e-4 4.6e-4,-0.0015 0,-0.002 -0.48621,-0.455515 -0.72656,-1.031452 -0.72656,-1.761719 0,-0.713762 0.23814,-1.273499 0.72461,-1.71289 0.49157,-0.445483 1.3346,-0.683594 2.54101,-0.683594 h 5.26563 V 5.0136719 h -5.26563 c -1.20505,0 -2.04758,-0.2317548 -2.53906,-0.6601563 -4.6e-4,-4.314e-4 4.6e-4,-0.00152 0,-0.00195 -0.48621,-0.4555154 -0.72656,-1.0314519 -0.72656,-1.7617187 0,-0.7309589 0.23873,-1.2974622 0.72461,-1.73632817 0.49157,-0.44548302 1.3346,-0.68554688 2.54101,-0.68554688 z"
           id="path2342" />
      </g>
      <g
         id="path2305">
        <path
           style="color:#000000;-inkscape-font-specification:'Courier New Bold';fill:#000000;fill-opacity:1;stroke:none;-inkscape-stroke:none"
           d="m 192.39342,17.572396 v 7.466211 h 12.97285 v -2.753321 q 0,-1.835546 0.69453,-2.604492 0.71934,-0.79375 1.86035,-0.79375 1.11621,0 1.81074,0.79375 0.71934,0.768946 0.71934,2.604492 v 7.838282 h -23.93652 q -1.83555,0 -2.6293,-0.694532 -0.76894,-0.719336 -0.76894,-1.860351 0,-1.116211 0.79375,-1.810742 0.79375,-0.719336 2.60449,-0.719336 h 0.79375 V 5.1452476 h -0.79375 q -1.83555,0 -2.6293,-0.6945312 -0.76894,-0.7193359 -0.76894,-1.8603515 0,-1.1410156 0.76894,-1.83554688 0.79375,-0.71933592 2.6293,-0.71933592 l 22.82031,0.02480468 V 7.7993492 q 0,1.8107421 -0.69453,2.6044918 -0.69453,0.768946 -1.83555,0.768946 -1.14101,0 -1.86035,-0.768946 -0.69453,-0.768945 -0.69453,-2.6044918 V 5.1452476 h -11.85664 v 7.3421874 h 4.46484 q 0,-1.984375 0.37207,-2.5548827 0.76895,-1.2154297 2.18281,-1.2154297 1.11622,0 1.81075,0.79375 0.71933,0.7689454 0.71933,2.6044924 v 5.853906 q 0,1.661914 -0.39687,2.232422 -0.79375,1.16582 -2.13321,1.16582 -1.41386,0 -2.18281,-1.21543 -0.37207,-0.570507 -0.37207,-2.579687 z"
           id="path2346" />
        <path
           style="color:#000000;-inkscape-font-specification:'Courier New Bold';fill:#ffffff;fill-opacity:1;stroke:none;-inkscape-stroke:none"
           d="m 186.51562,-0.09765625 c -1.24098,0 -2.15198,0.24027566 -2.71875,0.75390625 -0.53936,0.4871748 -0.8125,1.1432 -0.8125,1.9335938 10e-6,0.7903937 0.27244,1.4536349 0.81055,1.9570312 l 0.002,0.00195 0.002,0.00195 c 0.5672,0.4962987 1.47641,0.7265625 2.71679,0.7265625 h 0.66016 V 24.90625 h -0.66016 c -1.22467,0 -2.1271,0.240736 -2.69335,0.753906 -0.55466,0.48601 -0.8379,1.13337 -0.8379,1.908203 10e-6,0.790394 0.27244,1.453635 0.81055,1.957032 l 0.002,0.002 0.002,0.002 c 0.5672,0.496299 1.47641,0.726562 2.71679,0.726562 h 24.06836 V 22.28525 c 0,-1.239648 -0.23961,-2.142216 -0.7539,-2.693359 -0.48595,-0.554242 -1.13366,-0.837891 -1.90821,-0.837891 -0.79134,0 -1.45605,0.282935 -1.95898,0.837891 -0.49812,0.551487 -0.72852,1.452978 -0.72852,2.693359 v 2.621094 h -12.70898 v -7.201172 h 4.2207 c 0.0103,1.233394 0.101,2.09948 0.37305,2.517578 0.53222,0.841244 1.31444,1.277344 2.29492,1.277344 0.9304,0 1.69171,-0.418458 2.24024,-1.222656 0.29897,-0.429773 0.42187,-1.190122 0.42187,-2.308594 v -5.853516 c 0,-1.239648 -0.23962,-2.1422158 -0.7539,-2.693359 -0.48595,-0.5542418 -1.13366,-0.8378906 -1.90821,-0.8378906 -0.98048,0 -1.7627,0.4360998 -2.29492,1.2773437 -0.27146,0.4172019 -0.3626,1.2764739 -0.37305,2.4941409 h -4.2207 V 5.2773437 h 11.5918 v 2.5214844 c 0,1.240382 0.2304,2.1418729 0.72851,2.6933599 l 0.002,0.002 c 0.5034,0.538113 1.16664,0.810547 1.95703,0.810547 0.79039,0 1.44642,-0.273128 1.93359,-0.8125 h 0.002 v -0.002 c 0.49585,-0.5666839 0.72657,-1.4673317 0.72657,-2.6914059 v -7.87109372 z m -0.002,0.265625 22.68945,0.0253906 V 7.7988281 c 0,1.1893826 -0.23251,2.0238356 -0.6621,2.5156249 -3.2e-4,3.57e-4 3.1e-4,0.0016 0,0.002 -0.43862,0.484561 -1.00636,0.72461 -1.73633,0.72461 -0.72998,0 -1.30629,-0.240727 -1.76172,-0.726563 v -0.002 C 204.61564,9.8385472 204.38281,9.0049627 204.38281,7.7988281 V 5.0136719 h -12.12109 v 7.6054691 h 4.72851 v -0.13086 c 0,-1.314647 0.14186,-2.162821 0.35157,-2.484375 0.49304,-0.7793272 1.1676,-1.1542966 2.07226,-1.1542966 0.71279,0 1.27105,0.2453127 1.71094,0.7480469 v 0.00195 l 0.002,0.00195 c 0.44368,0.4742797 0.6836,1.3072567 0.6836,2.5136717 v 5.853516 c 0,1.097411 -0.14286,1.827299 -0.37305,2.158203 -0.50968,0.748598 -1.16885,1.107422 -2.02344,1.107422 -0.90466,0 -1.57922,-0.373016 -2.07226,-1.152344 v -0.002 c -0.20923,-0.320818 -0.35157,-1.176527 -0.35157,-2.507812 V 17.4394 h -4.72851 v 0.132813 7.599609 h 13.23633 v -2.886719 c 0,-1.20701 0.23223,-2.041852 0.66015,-2.515625 0.45619,-0.503376 1.03368,-0.75 1.76367,-0.75 0.71279,0 1.27105,0.245313 1.71094,0.748047 v 0.002 l 0.002,0.002 c 0.44368,0.47428 0.68359,1.307258 0.68359,2.513672 v 7.707031 h -23.80274 c -1.20505,10e-7 -2.04758,-0.231754 -2.53906,-0.660156 -4.6e-4,-4.31e-4 4.6e-4,-0.0015 0,-0.002 -0.48621,-0.455516 -0.72851,-1.031452 -0.72851,-1.761719 0,-0.712782 0.24726,-1.271045 0.75,-1.710937 l 0.002,-0.002 c 0.49208,-0.445944 1.32598,-0.683594 2.51562,-0.683594 h 0.92579 V 5.0136719 h -0.92579 c -1.20505,0 -2.04758,-0.2317548 -2.53906,-0.6601563 -4.6e-4,-4.311e-4 4.6e-4,-0.00152 0,-0.00195 -0.48621,-0.4555156 -0.72851,-1.0314514 -0.72851,-1.7617187 0,-0.7309589 0.24068,-1.2974622 0.72656,-1.73632817 0.49121,-0.44516383 1.33403,-0.68520382 2.53906,-0.68554688 z"
           id="path2348" />
      </g>
    </g>
    <rect
       style="fill:#ffffff;fill-opacity:1;stroke:none;stroke-width:0.123264"
       id="rect1463-06"
       width="15.551835"
       height="10.40268"
       x="6.9388939e-18"
       y="-0.52916664" />
    <rect
       style="fill:#ffffff;fill-opacity:1;stroke:none;stroke-width:0.123264"
       id="rect1463-9-9"
       width="15.551835"
       height="10.40268"
       x="15.448165"
       y="10.298655" />
    <rect
       style="fill:#ffffff;fill-opacity:1;stroke:none;stroke-width:0.123264"
       id="rect1463-2-5-7"
       width="15.551835"
       height="10.40268"
       x="15.448165"
       y="20.068151" />
    <rect
       style="fill:#ffffff;fill-opacity:1;stroke:none;stroke-width:0.124926"
       id="rect1463-9-06"
       width="15.55184"
       height="10.685165"
       x="45.562675"
       y="10.265682" />
    <rect
       style="fill:#ffffff;fill-opacity:1;stroke:none;stroke-width:0.124926"
       id="rect1463-2-5-8"
       width="15.55184"
       height="10.685165"
       x="45.562675"
       y="20.844" />
    <rect
       style="fill:#ffffff;fill-opacity:1;stroke:none;stroke-width:0.123264"
       id="rect1463-0-3-2"
       width="15.55184"
       height="10.402685"
       x="74.985535"
       y="-4.2915344e-06" />
    <rect
       style="fill:#ffffff;fill-opacity:1;stroke:none;stroke-width:0.123264"
       id="rect1463-2-5-8-4"
       width="15.55184"
       height="10.402685"
       x="74.985535"
       y="20.597311" />
    <rect
       style="fill:#ffffff;fill-opacity:1;stroke:none;stroke-width:0.123264"
       id="rect1463-26-6-5"
       width="15.55184"
       height="10.402685"
       x="59.537373"
       y="10.298652" />
    <rect
       style="fill:#ffffff;fill-opacity:1;stroke:none;stroke-width:0.123264"
       id="rect1463-30"
       width="15.55184"
       height="10.402685"
       x="89.904533"
       y="0.021102699" />
    <rect
       style="fill:#ffffff;fill-opacity:1;stroke:none;stroke-width:0.123264"
       id="rect1463-9-06-8"
       width="15.55184"
       height="10.402685"
       x="105.35268"
       y="10.319758" />
    <rect
       style="fill:#ffffff;fill-opacity:1;stroke:none;stroke-width:0.123264"
       id="rect1463-0-3-2-3"
       width="15.55184"
       height="10.402685"
       x="136.78204"
       y="-0.2" />
    <rect
       style="fill:#ffffff;fill-opacity:1;stroke:none;stroke-width:0.123264"
       id="rect1463-2-5-8-3"
       width="15.55184"
       height="10.402685"
       x="136.78204"
       y="20.397318" />
    <rect
       style="fill:#ffffff;fill-opacity:1;stroke:none;stroke-width:0.123264"
       id="rect1463-26-6-5-4"
       width="15.55184"
       height="10.402685"
       x="120.80476"
       y="10.098657" />
    <rect
       style="fill:#ffffff;fill-opacity:1;stroke:none;stroke-width:0.123264"
       id="rect1463-0-3-2-9"
       width="15.55184"
       height="10.402685"
       x="167.06448"
       y="0.018010763" />
    <rect
       style="fill:#ffffff;fill-opacity:1;stroke:none;stroke-width:0.123264"
       id="rect1463-2-5-8-6"
       width="15.55184"
       height="10.402685"
       x="167.06448"
       y="20.615324" />
    <rect
       style="fill:#ffffff;fill-opacity:1;stroke:none;stroke-width:0.123264"
       id="rect1463-26-6-5-7"
       width="15.55184"
       height="10.402685"
       x="151.61632"
       y="10.316667" />
    <rect
       style="fill:#ffffff;fill-opacity:1;stroke:none;stroke-width:0.123264"
       id="rect1463-0-3-2-35"
       width="15.55184"
       height="10.402685"
       x="196.9025"
       y="0.021102695" />
    <rect
       style="fill:#ffffff;fill-opacity:1;stroke:none;stroke-width:0.123264"
       id="rect1463-2-5-8-43"
       width="15.55184"
       height="10.402685"
       x="196.9025"
       y="20.618416" />
    <path
       style="fill:#000000;fill-opacity:1;stroke:#000000;stroke-width:0.457182;stroke-dasharray:none;stroke-opacity:1"
       d="M 1.7674216e-4,10.106868 212.49978,10.292105"
       id="path2668"
       sodipodi:nodetypes="cc" />
    <path
       style="fill:#000000;fill-opacity:1;stroke:#000000;stroke-width:0.457182;stroke-dasharray:none;stroke-opacity:1"
       d="M 1.7670263e-4,20.608718 212.49982,20.793955"
       id="path2668-0"
       sodipodi:nodetypes="cc" />
    <path
       style="fill:#000000;fill-opacity:1;stroke:#000000;stroke-width:0.47836;stroke-dasharray:none;stroke-opacity:1"
       d="M 15.345837,-0.84179688 V 31.000046"
       id="path2875" />
    <path
       style="fill:#000000;fill-opacity:1;stroke:#000000;stroke-width:0.47836;stroke-dasharray:none;stroke-opacity:1"
       d="M 30.634817,-0.59591738 V 31.245923"
       id="path2875-5" />
    <path
       style="fill:#000000;fill-opacity:1;stroke:#000000;stroke-width:0.47836;stroke-dasharray:none;stroke-opacity:1"
       d="M 45.609138,-0.44013767 V 31.401705"
       id="path2875-2" />
    <path
       style="fill:#000000;fill-opacity:1;stroke:#000000;stroke-width:0.47836;stroke-dasharray:none;stroke-opacity:1"
       d="M 60.126615,-0.98785263 V 30.853992"
       id="path2875-26" />
    <path
       style="fill:#000000;fill-opacity:1;stroke:#000000;stroke-width:0.47836;stroke-dasharray:none;stroke-opacity:1"
       d="M 75.13918,-0.84179688 V 31.000048"
       id="path2875-52" />
    <path
       style="fill:#000000;fill-opacity:1;stroke:#000000;stroke-width:0.47836;stroke-dasharray:none;stroke-opacity:1"
       d="M 90.776554,-0.84184473 V 30.999996"
       id="path2875-6" />
    <path
       style="fill:#000000;fill-opacity:1;stroke:#000000;stroke-width:0.47836;stroke-dasharray:none;stroke-opacity:1"
       d="M 105.57069,-0.61446563 V 31.227377"
       id="path2875-1" />
    <path
       style="fill:#000000;fill-opacity:1;stroke:#000000;stroke-width:0.47836;stroke-dasharray:none;stroke-opacity:1"
       d="M 120.62972,-0.61755702 V 31.224286"
       id="path2875-11" />
    <path
       style="fill:#000000;fill-opacity:1;stroke:#000000;stroke-width:0.47836;stroke-dasharray:none;stroke-opacity:1"
       d="M 136.61908,-0.98785263 V 30.853992"
       id="path2875-65" />
    <path
       style="fill:#000000;fill-opacity:1;stroke:#000000;stroke-width:0.47836;stroke-dasharray:none;stroke-opacity:1"
       d="M 152.2289,-0.84179688 V 31.00004"
       id="path2875-55" />
    <path
       style="fill:#000000;fill-opacity:1;stroke:#000000;stroke-width:0.47836;stroke-dasharray:none;stroke-opacity:1"
       d="M 166.98918,-0.84179688 V 31.000042"
       id="path2875-57" />
    <path
       style="fill:#000000;fill-opacity:1;stroke:#000000;stroke-width:0.47836;stroke-dasharray:none;stroke-opacity:1"
       d="M 182.03226,-0.84179688 V 31.000046"
       id="path2875-60" />
    <path
       style="fill:#000000;fill-opacity:1;stroke:#000000;stroke-width:0.47836;stroke-dasharray:none;stroke-opacity:1"
       d="M 196.75595,-0.84179688 V 31.000046"
       id="path2875-4" />
  </g>
</svg>
