<?xml version="1.0" encoding="UTF-8" standalone="no"?>
<!-- Created with Inkscape (http://www.inkscape.org/) -->

<svg
   width="209.88849mm"
   height="30.221411mm"
   viewBox="0 0 209.88849 30.221411"
   version="1.1"
   id="svg5"
   xmlns="http://www.w3.org/2000/svg"
   xmlns:svg="http://www.w3.org/2000/svg">
  <defs
     id="defs2" />
  <g
     id="layer1"
     transform="translate(-6.3637776,-37.835351)">
    <text
       xml:space="preserve"
       style="font-size:14.1111px;white-space:pre;inline-size:14.8037;fill:#000000;fill-opacity:0;stroke:#ffffff;stroke-width:0.264583"
       x="30.870968"
       y="46.838707"
       id="text113"><tspan
         x="30.870968"
         y="46.838707"
         id="tspan608"><tspan
           dx="0 7.5353332"
           id="tspan606">ko</tspan></tspan></text>
    <g
       id="path2295"
       style="font-size:50.8px;fill-opacity:0;stroke:#ffffff;stroke-width:0.263917"
       transform="matrix(1.054314,0,0,0.95327535,-1.6746097,-0.03933267)" />
    <path
       id="path2346"
       style="color:#000000;font-size:50.8px;-inkscape-font-specification:'Courier New Bold';fill:#000000;fill-opacity:1;stroke:none;stroke-width:0.264583;-inkscape-stroke:none"
       d="m 52.214209,37.835351 c -3.574094,0 -6.799186,1.189994 -9.675895,3.570325 -3.306801,2.755396 -5.074348,6.261298 -5.306653,10.515637 v 1.952335 c 0.232305,4.253309 1.999852,7.751126 5.306653,10.491866 2.762602,2.285914 5.850006,3.462599 9.255766,3.553272 v -4.850867 c -2.32312,-0.10326 -4.416609,-1.050221 -6.274553,-2.863908 -1.970109,-1.938945 -2.955375,-4.374467 -2.955375,-7.306531 0,-2.932063 0.985266,-5.367585 2.955375,-7.30653 1.97011,-1.938945 4.201534,-2.90835 6.694682,-2.90835 2.510583,0 4.750927,0.969405 6.721037,2.90835 0.650603,0.635106 1.183272,1.331576 1.619022,2.078426 h 5.833236 c -0.74586,-2.076946 -1.974191,-3.92031 -3.68608,-5.530412 -3.016186,-2.869008 -6.512126,-4.303613 -10.487215,-4.303613 z m -25.535392,0.133325 c -1.223697,0 -2.100131,0.239779 -2.629297,0.719336 -0.51263,0.479557 -0.768945,1.107944 -0.768945,1.885156 0,0.479557 0.09922,0.884701 0.297656,1.21543 0.198438,0.330729 0.56224,0.686263 1.091406,1.066602 l -2.886129,2.481502 v 2.894913 h 4.363558 l 5.889563,-5.153173 c 1.107942,0 1.91823,-0.239779 2.43086,-0.719336 0.529166,-0.479557 0.79375,-1.091407 0.79375,-1.835547 0,-0.760676 -0.264584,-1.372527 -0.79375,-1.835547 -0.51263,-0.46302 -1.380796,-0.694531 -2.604493,-0.694531 z m 44.102734,0 c -1.223697,0 -2.100131,0.239779 -2.629297,0.719336 -0.512629,0.46302 -0.768945,1.074871 -0.768945,1.835547 0,0.74414 0.256316,1.35599 0.768945,1.835547 0.51263,0.46302 1.306382,0.702799 2.38125,0.719336 v 5.153173 h 5.084961 v -5.153173 h 5.357813 c 0.08203,0 0.160051,0.0047 0.240812,0.0062 v -5.091679 z m 31.154689,0 v 8.756055 c 0,0.488415 0.0472,0.90587 0.12092,1.283642 h 4.84312 c 0.0738,-0.377772 0.12092,-0.795227 0.12092,-1.283642 v -3.646289 h 9.37618 l -4.70928,6.043042 v 8.331274 l 11.28252,-14.49834 v -4.960937 z m 28.69903,0 c -1.2237,0 -2.10013,0.239779 -2.6293,0.719336 -0.51263,0.46302 -0.76895,1.074871 -0.76895,1.835547 0,0.760676 0.25632,1.380795 0.76895,1.860351 0.52917,0.463021 1.4056,0.694532 2.6293,0.694532 h 0.79375 v 4.953186 h 5.08496 v -0.438733 l 0.28008,0.438733 h 6.11901 l -6.39909,-10.038147 z m 35.04902,0 c -1.2237,0 -2.10013,0.239779 -2.6293,0.719336 -0.51262,0.46302 -0.76894,1.074871 -0.76894,1.835547 0,0.760676 0.25632,1.380795 0.76894,1.860351 0.52917,0.463021 1.4056,0.694532 2.6293,0.694532 h 5.13457 v 4.642094 h 2.47737 v -9.739458 z m 27.06191,0 c -1.2237,0 -2.10013,0.239779 -2.62929,0.719336 -0.51263,0.46302 -0.76895,1.074871 -0.76895,1.835547 0,0.760676 0.25632,1.380795 0.76895,1.860351 0.52916,0.463021 1.40559,0.694532 2.62929,0.694532 h 0.79375 v 19.893359 h -0.79375 c -1.20716,0 -2.07532,0.239779 -2.60449,0.719336 -0.52916,0.46302 -0.79375,1.066602 -0.79375,1.810742 0,0.760676 0.25632,1.380795 0.76895,1.860352 0.52916,0.46302 1.40559,0.694531 2.62929,0.694531 h 10.388 v -5.084961 h -4.50929 V 55.50559 h 4.46485 c 0,1.275712 0.11399,2.110934 0.339,2.516642 h 4.40438 c 0.2241,-0.403385 0.34158,-1.10009 0.34158,-2.119767 v -5.853906 c 0,-0.960491 -0.15001,-1.698638 -0.44545,-2.221053 h -4.24057 c -0.009,0.01332 -0.0183,0.0247 -0.0269,0.03824 -0.24805,0.380338 -0.37207,1.231968 -0.37207,2.554883 h -4.46485 v -7.342187 h 4.50929 v -5.098397 z m -19.34662,9.855729 v 10.194727 h 2.50424 V 47.824405 Z m 37.44733,0.0031 c 0.0926,0.196069 0.20117,0.367807 0.32918,0.509529 0.47956,0.51263 1.09968,0.768946 1.86035,0.768946 0.76068,0 1.37253,-0.256316 1.83554,-0.768946 0.12599,-0.143981 0.23335,-0.315354 0.32505,-0.509529 z m -61.33528,0.307991 V 58.382933 L 143.11719,48.35202 v 9.578227 l 6.46886,10.126514 h 5.03535 V 48.135497 Z M 10.55577,48.335485 V 62.971801 H 9.7620198 c -1.2071602,0 -2.0753261,0.239779 -2.6044922,0.719336 -0.5291662,0.46302 -0.79375,1.066602 -0.79375,1.810742 0,0.760676 0.2563156,1.380795 0.7689453,1.860352 0.5291661,0.46302 1.4056002,0.694531 2.6292969,0.694531 h 7.7142582 c 1.223696,0 2.091862,-0.231511 2.604492,-0.694531 0.529166,-0.479557 0.79375,-1.091407 0.79375,-1.835547 0,-0.760676 -0.264584,-1.372527 -0.79375,-1.835547 -0.51263,-0.479557 -1.380796,-0.719336 -2.604492,-0.719336 h -1.835547 v -5.630664 l 3.12539,-2.654102 c 1.112969,0.448079 2.078498,1.036888 2.913518,1.750281 v -8.101831 h -3.383256 l -2.655652,2.283582 v -2.283582 z m 78.308915,0 c 0.510207,1.133811 0.768429,2.431131 0.768429,3.895886 v 2.406055 c 0,1.532615 -0.23224,2.827385 -0.68833,3.892786 h 5.347994 c 0.28331,-1.154708 0.425297,-2.402523 0.425297,-3.743958 v -2.430859 c 0,-1.554969 -0.162713,-2.886393 -0.469222,-4.01991 z m 32.617655,7.467761 c -0.76068,0 -1.3808,0.264584 -1.86036,0.79375 -0.34026,0.376726 -0.55316,0.949228 -0.64337,1.709973 h 5.00538 c -0.0934,-0.760723 -0.31369,-1.333255 -0.66611,-1.709973 -0.46302,-0.529166 -1.07486,-0.79375 -1.83554,-0.79375 z m 92.67031,1.016992 c -0.76067,0 -1.38079,0.264584 -1.86035,0.79375 -0.10553,0.116836 -0.19758,0.254472 -0.27906,0.408244 h 4.23902 c -0.0844,-0.15375 -0.17958,-0.291421 -0.28887,-0.408244 -0.46302,-0.529166 -1.0666,-0.79375 -1.81074,-0.79375 z m -43.33379,1.302763 v 4.8488 h -5.13457 c -1.2237,0 -2.10013,0.239779 -2.6293,0.719336 -0.51262,0.46302 -0.76894,1.066602 -0.76894,1.810742 0,0.760676 0.25632,1.380795 0.76894,1.860352 0.52917,0.46302 1.4056,0.694531 2.6293,0.694531 h 7.61194 v -9.933761 z m -66.37011,0.287838 -3.55431,4.560962 v 5.084961 h 10.68979 v -5.084961 h -4.19096 l 3.54914,-4.560962 z m 26.98027,0.02325 v 4.537708 c -1.07487,0 -1.86862,0.239779 -2.38125,0.719336 -0.51263,0.479557 -0.76895,1.083139 -0.76895,1.810742 0,0.760676 0.25632,1.380795 0.76895,1.860352 0.52916,0.46302 1.40559,0.694531 2.62929,0.694531 h 6.67246 c 1.2237,0 2.09187,-0.231511 2.6045,-0.694531 0.52916,-0.479557 0.79375,-1.091407 0.79375,-1.835547 0,-0.760676 -0.26459,-1.372527 -0.79375,-1.835547 -0.51263,-0.479557 -1.3808,-0.719336 -2.6045,-0.719336 h -1.83554 v -4.537708 z m -60.895516,0.200505 v 4.337203 c -1.058332,-0.01654 -1.852084,0.214974 -2.38125,0.694531 -0.512629,0.479557 -0.768945,1.091407 -0.768945,1.835547 0,0.760676 0.256316,1.380795 0.768945,1.860352 0.529166,0.46302 1.4056,0.694531 2.629297,0.694531 h 10.219531 c 0.0737,0 0.143073,-0.0035 0.216008,-0.0041 v -5.084444 c -0.0647,6.14e-4 -0.125448,0.0036 -0.191203,0.0036 h -5.407422 v -4.337203 z" />
  </g>
</svg>
