<?xml version="1.0" encoding="UTF-8" standalone="no"?>
<!-- Created with Inkscape (http://www.inkscape.org/) -->

<svg
   width="212.45433mm"
   height="31.841797mm"
   viewBox="0 0 212.45433 31.841797"
   version="1.1"
   id="svg5"
   inkscape:version="1.2.1 (9c6d41e410, 2022-07-14)"
   sodipodi:docname="neviditelne-pismenka-hint.svg"
   xmlns:inkscape="http://www.inkscape.org/namespaces/inkscape"
   xmlns:sodipodi="http://sodipodi.sourceforge.net/DTD/sodipodi-0.dtd"
   xmlns="http://www.w3.org/2000/svg"
   xmlns:svg="http://www.w3.org/2000/svg">
  <sodipodi:namedview
     id="namedview7"
     pagecolor="#ffffff"
     bordercolor="#000000"
     borderopacity="0.25"
     inkscape:showpageshadow="2"
     inkscape:pageopacity="0.0"
     inkscape:pagecheckerboard="0"
     inkscape:deskcolor="#d1d1d1"
     inkscape:document-units="mm"
     showgrid="false"
     inkscape:zoom="2.1089995"
     inkscape:cx="431.01006"
     inkscape:cy="92.223825"
     inkscape:window-width="2560"
     inkscape:window-height="1494"
     inkscape:window-x="-11"
     inkscape:window-y="-11"
     inkscape:window-maximized="1"
     inkscape:current-layer="layer1"
     showguides="false" />
  <defs
     id="defs2" />
  <g
     inkscape:label="Vrstva 1"
     inkscape:groupmode="layer"
     id="layer1"
     transform="translate(0,0.84179688)">
    <text
       xml:space="preserve"
       style="font-size:14.1111px;white-space:pre;inline-size:14.8037;display:inline;fill:#000000;fill-opacity:0;stroke:#ffffff;stroke-width:0.264583"
       x="30.870968"
       y="46.838707"
       id="text113"><tspan
         x="30.870968"
         y="46.838707"
         id="tspan2518"><tspan
           dx="0 8.2131014"
           id="tspan2516">ko</tspan></tspan></text>
    <g
       id="path2293"
       style="font-size:50.8px;fill-opacity:0;stroke:#ffffff;stroke-width:0.264583">
      <path
         style="color:#000000;-inkscape-font-specification:'Courier New Bold';fill:#ffffff;fill-opacity:1;stroke:none;-inkscape-stroke:none"
         d="m 3.53125,-0.09765625 c -1.2409779,0 -2.1519853,0.24027572 -2.71875,0.75390625 C 0.27312804,1.1434247 0,1.7994498 0,2.5898438 0,3.3802377 0.27243367,4.0434788 0.81054688,4.546875 l 0.001953,0.00195 0.001953,0.00195 C 1.3816515,5.0470798 2.290868,5.2773437 3.53125,5.2773437 H 4.1914062 V 24.90625 H 3.53125 c -1.2233766,0 -2.1250377,0.239907 -2.69140625,0.751953 C 0.28424591,26.144351 0,26.792862 0,27.568359 c 0,0.790394 0.27243369,1.453635 0.81054688,1.957032 l 0.001953,0.002 0.001953,0.002 C 1.3816515,30.025596 2.2908679,30.255859 3.53125,30.255859 h 7.712891 c 1.240382,0 2.141873,-0.230398 2.693359,-0.728515 0.554395,-0.502421 0.837891,-1.158096 0.837891,-1.933594 0,-0.790389 -0.283048,-1.44711 -0.837891,-1.933594 C 13.386357,25.145868 12.483787,24.90625 11.244141,24.90625 H 9.5410156 v -5.4375 l 3.0078124,-2.550781 c 1.227279,0.503663 2.291211,1.159454 3.169922,1.990234 v 0.002 h 0.002 c 0.908048,0.826973 1.87722,2.171953 2.898438,4.033203 1.254466,2.294354 2.410154,4.704434 3.466796,7.230469 l 0.03516,0.08203 h 4.701172 c 1.240382,0 2.141873,-0.230398 2.693359,-0.728515 l 0.002,-0.002 c 0.537559,-0.502878 0.810547,-1.157123 0.810547,-1.931641 0,-0.790389 -0.283048,-1.44711 -0.837891,-1.933594 -0.55061,-0.513801 -1.444611,-0.753906 -2.667968,-0.753906 H 25.542969 C 24.390391,21.977792 23.0686,19.509806 21.570312,17.517578 20.116956,15.56362 18.553267,14.112167 16.886719,13.125 l 8.976562,-7.8554688 c 1.092968,-0.00945 1.924414,-0.2449605 2.460938,-0.7460937 0.554395,-0.5024208 0.83789,-1.1580959 0.83789,-1.9335937 0,-0.790389 -0.283047,-1.4471098 -0.83789,-1.9335938 -0.551155,-0.49781765 -1.452177,-0.72823872 -2.691407,-0.72851562 h -0.002 l -5.183593,-0.02539063 c -1.240978,0 -2.151986,0.24027572 -2.71875,0.75390625 v 0.001953 c -0.538667,0.5039145 -0.8125,1.1761238 -0.8125,1.9824219 0,0.4978039 0.103455,0.9282851 0.316406,1.2832031 0.191398,0.3189963 0.560122,0.6481575 1.011719,0.9902344 L 9.5410156,12.398438 V 5.2773437 h 1.7031254 c 1.240382,0 2.141873,-0.2303986 2.693359,-0.7285156 0.554956,-0.5029289 0.837891,-1.1676318 0.837891,-1.9589843 0,-0.790389 -0.283048,-1.4471098 -0.837891,-1.9335938 -0.551155,-0.49781765 -1.452177,-0.72823872 -2.691406,-0.72851562 h -0.002 z m -0.00195,0.265625 7.714844,0.0253906 c 1.207011,0 2.041852,0.2322325 2.515625,0.66015626 h 0.002 c 0.502147,0.43937869 0.748047,1.00632809 0.748047,1.73632819 0,0.73 -0.246624,1.3074871 -0.75,1.7636718 -0.473773,0.4279238 -1.308614,0.6601563 -2.515625,0.6601563 H 9.2773438 V 12.974609 L 18.652344,4.9121094 18.515625,4.8144531 C 17.994852,4.4401473 17.644195,4.092537 17.460937,3.7871094 17.277014,3.4805698 17.181641,3.1019348 17.181641,2.640625 c 0,-0.7474263 0.240887,-1.3320934 0.726562,-1.78710937 0.491718,-0.44486904 1.333512,-0.68554688 2.539063,-0.68554688 l 5.183593,0.0253906 c 1.207012,0 2.041853,0.2322325 2.515625,0.66015626 h 0.002 c 0.502148,0.43937869 0.748047,1.00632809 0.748047,1.73632819 0,0.7127819 -0.246063,1.2815884 -0.75,1.7382812 v 0.00195 c -0.477906,0.4470743 -1.252942,0.6835938 -2.341797,0.6835938 h -0.04883 l -9.304687,8.1406252 0.160156,0.09375 c 1.683828,0.964522 3.266093,2.437954 4.746094,4.427734 h 0.002 c 1.495775,1.988888 2.820458,4.458826 3.974609,7.410156 l 0.0332,0.08594 h 1.455079 c 1.189642,0 2.013484,0.239428 2.488281,0.683594 h 0.002 l 0.002,0.002 C 29.8166,26.2968 30.0625,26.86375 30.0625,27.59375 c 0,0.712794 -0.238244,1.280406 -0.724609,1.736328 -3.44e-4,3.11e-4 -0.0016,-3.1e-4 -0.002,0 -0.473952,0.42733 -1.307536,0.662109 -2.513671,0.662109 H 22.29097 C 21.240551,27.488662 20.096694,25.093686 18.851562,22.816406 17.822816,20.941432 16.843953,19.576624 15.900391,18.716797 14.978028,17.844745 13.87094,17.148985 12.583984,16.630859 l -0.07422,-0.0293 -3.2324222,2.746094 v 0.06055 5.763672 h 1.9667972 c 1.206415,0 2.041346,0.239913 2.515625,0.683594 l 0.002,0.002 c 0.502147,0.439378 0.748047,1.006328 0.748047,1.736328 0,0.712782 -0.246063,1.279635 -0.75,1.736328 -0.473773,0.427924 -1.308614,0.662109 -2.515625,0.662109 H 3.53125 c -1.2050488,0 -2.0475814,-0.231754 -2.5390625,-0.660156 -4.6084e-4,-4.31e-4 4.604e-4,-0.0015 0,-0.002 -0.48621797,-0.455516 -0.72851562,-1.031452 -0.72851562,-1.761719 0,-0.712782 0.24726558,-1.271045 0.75000002,-1.710937 l 0.00195,-0.002 C 1.5077006,25.409525 2.3416078,25.171875 3.53125,25.171875 H 4.4570312 V 5.0136719 H 3.53125 c -1.2050488,0 -2.0475815,-0.2317547 -2.5390625,-0.6601563 -4.6084e-4,-4.311e-4 4.604e-4,-0.00152 0,-0.00195 C 0.50596955,3.8960468 0.26367187,3.3201109 0.26367188,2.5898438 c 0,-0.7309587 0.24067508,-1.2974621 0.7265625,-1.73632817 C 1.4814497,0.40835174 2.3242671,0.16831181 3.5292969,0.16796875 Z"
         id="path2312" />
    </g>
    <g
       id="path2295"
       style="font-size:50.8px;fill-opacity:0;stroke:#ffffff;stroke-width:0.263917"
       transform="matrix(1.054314,0,0,0.95327535,-1.6746097,-0.03933267)" />
    <g
       id="path2297"
       style="font-size:50.8px;fill-opacity:0;stroke:#ffffff;stroke-width:0.264583">
      <path
         style="color:#000000;-inkscape-font-specification:'Courier New Bold';fill:#ffffff;fill-opacity:1;stroke:none;-inkscape-stroke:none"
         d="m 64.550781,-0.09765625 c -1.240978,0 -2.151985,0.24027572 -2.71875,0.75390625 -0.539372,0.4871747 -0.8125,1.1431998 -0.8125,1.9335938 0,0.7745178 0.272988,1.4307157 0.810547,1.9335937 h 0.002 c 0.517285,0.4672243 1.328846,0.6761532 2.337891,0.7148437 V 24.945312 c -0.994411,0.01016 -1.80625,0.207654 -2.337891,0.689454 v 0.002 h -0.002 c -0.537559,0.502878 -0.810547,1.157122 -0.810547,1.93164 0,0.790394 0.272434,1.453635 0.810547,1.957032 l 0.002,0.002 0.002,0.002 c 0.567199,0.496299 1.476415,0.726562 2.716797,0.726562 h 10.21875 c 2.642329,0 4.802397,-0.38904 6.480469,-1.177734 1.056833,-0.503254 2.174649,-1.280355 3.355469,-2.328125 1.206194,-1.072172 2.17603,-2.444813 2.910156,-4.113281 0.735904,-1.689234 1.103516,-3.618541 1.103516,-5.783203 v -2.431641 c 0,-1.77929 -0.198916,-3.287802 -0.601563,-4.5292969 C 87.616765,8.6567384 87.015798,7.4144556 86.216797,6.1660156 85.435761,4.9196819 84.679667,3.9363255 83.941406,3.2148438 82.966474,2.2567209 81.676599,1.4723001 80.076172,0.85546875 78.490583,0.23792349 76.861367,-0.07226562 75.191406,-0.07226562 Z m -0.002,0.265625 10.642578,0.0253906 c 1.637329,0 3.232728,0.3020517 4.789063,0.90820315 1.574569,0.6068652 2.832095,1.3757029 3.77539,2.3027344 0.716947,0.7006521 1.464892,1.6682111 2.238282,2.9023437 v 0.00195 c 0.788496,1.2320263 1.378547,2.4525089 1.771484,3.6640626 0.391102,1.2058978 0.587891,2.6897098 0.587891,4.4492188 v 2.431641 c 0,2.134812 -0.360775,4.024653 -1.080079,5.675781 -0.72108,1.638819 -1.668695,2.978945 -2.84375,4.023437 -1.167355,1.035823 -2.26621,1.796224 -3.292968,2.285157 -1.629013,0.765249 -3.751758,1.154297 -6.367188,1.154296 h -10.21875 c -1.205049,10e-7 -2.047581,-0.231754 -2.539062,-0.660156 -4.61e-4,-4.31e-4 4.6e-4,-0.0015 0,-0.002 -0.486218,-0.455516 -0.728516,-1.031452 -0.728516,-1.761719 0,-0.713079 0.241756,-1.280313 0.728516,-1.736328 0.496106,-0.448875 1.251865,-0.678316 2.289062,-0.662109 l 0.132813,0.0039 V 25.039062 5.015625 L 64.30464,5.013675 C 63.24931,4.997435 62.490862,4.7601976 62.011719,4.328125 h -0.002 C 61.523398,3.8722025 61.283203,3.3026386 61.283203,2.5898438 c 0,-0.7309587 0.240675,-1.2974621 0.726563,-1.73632817 0.491215,-0.44516389 1.334032,-0.68520382 2.539062,-0.68554688 z M 69.253906,5.0136719 V 25.171875 h 0.132813 5.408203 c 2.030097,0 3.571299,-0.289682 4.628906,-0.886719 1.356532,-0.770376 2.385499,-1.755127 3.076172,-2.951172 0.693193,-1.200407 1.033203,-2.744289 1.033203,-4.628906 v -2.40625 c 0,-1.620855 -0.30911,-3.049107 -0.931641,-4.277344 -0.966,-1.8986892 -2.060435,-3.2108938 -3.298828,-3.9238278 h -0.002 C 78.085175,5.372121 76.56326,5.0136719 74.744141,5.0136719 Z m 0.265625,0.2636718 h 5.22461 c 1.785075,0 3.256481,0.3528294 4.421875,1.0488282 h 0.002 c 1.175442,0.6762817 2.245346,1.9434393 3.197265,3.8144531 0.601166,1.186085 0.904297,2.570989 0.904297,4.158203 v 2.40625 c 0,1.852618 -0.337205,3.348326 -1,4.496094 -0.665314,1.15213 -1.65419,2.102539 -2.976562,2.853515 -0.992911,0.560515 -2.493252,0.851563 -4.498047,0.851563 h -5.275391 z"
         id="path2324" />
    </g>
    <g
       id="path2299"
       style="font-size:50.8px;fill-opacity:0;stroke:#ffffff;stroke-width:0.264583">
      <path
         style="color:#000000;-inkscape-font-specification:'Courier New Bold';fill:#ffffff;fill-opacity:1;stroke:none;-inkscape-stroke:none"
         d="M 95.572266,-0.09765625 V 8.7910156 c 0,1.2403814 0.230263,2.1495984 0.726562,2.7167974 l 0.002,0.002 0.002,0.002 c 0.503396,0.538113 1.166637,0.810547 1.957032,0.810547 0.790394,0 1.446418,-0.273128 1.93359,-0.8125 v -0.002 h 0.002 c 0.4963,-0.567199 0.72657,-1.476416 0.72657,-2.7167974 V 5.2773437 h 8.9746 L 94.53125,24.992187 v 5.263672 h 23.38086 l 0.0254,-8.988281 c 0,-1.239646 -0.23766,-2.140263 -0.75195,-2.691406 -0.48666,-0.556185 -1.14419,-0.837891 -1.93555,-0.837891 -0.79135,0 -1.4541,0.280982 -1.95703,0.835938 -0.49812,0.551486 -0.72852,1.452977 -0.72852,2.693359 V 24.90625 H 101.43164 L 116.87109,5.0664062 v -5.13867182 z m 0.265625,0.265625 20.769529,0.0253906 V 4.9765625 L 100.89063,25.171875 h 0.27148 11.66602 v -3.904297 c 0,-1.207011 0.23223,-2.041852 0.66015,-2.515625 0.45619,-0.503376 1.03172,-0.75 1.76172,-0.75 0.73,0 1.29695,0.2459 1.73633,0.748047 l 0.002,0.002 0.002,0.002 c 0.44369,0.474279 0.6836,1.307257 0.6836,2.513672 l -0.0254,8.724609 H 94.794922 V 25.083984 L 110.4375,5.0136719 h -9.7793 v 3.7773437 c 0,1.2061428 -0.23296,2.0497274 -0.662106,2.5410154 -0.438867,0.485888 -1.005369,0.72461 -1.736328,0.72461 -0.730267,0 -1.306204,-0.240345 -1.761719,-0.726563 -8e-5,-9.2e-5 -0.0019,9.2e-5 -0.002,0 -0.428402,-0.491481 -0.658203,-1.334014 -0.658203,-2.5390624 z"
         id="path2330" />
    </g>
    <g
       id="path2301"
       style="font-size:50.8px;fill-opacity:0;stroke:#ffffff;stroke-width:0.264583">
      <path
         style="color:#000000;-inkscape-font-specification:'Courier New Bold';fill:#ffffff;fill-opacity:1;stroke:none;-inkscape-stroke:none"
         d="m 124.4043,-0.09765625 c -1.24098,0 -2.15199,0.24027585 -2.71875,0.75390625 -0.53938,0.4871746 -0.8125,1.1431996 -0.8125,1.9335938 0,0.7903941 0.27243,1.4536351 0.81054,1.9570312 l 0.002,0.00195 0.002,0.00195 c 0.5672,0.4962985 1.47642,0.7265625 2.7168,0.7265625 h 0.66015 V 24.947266 c -1.00874,0.0249 -1.82096,0.231269 -2.33789,0.714843 -0.537,0.50236 -0.8125,1.147579 -0.8125,1.90625 0,0.790394 0.27439,1.453635 0.8125,1.957032 v 0.002 l 0.002,0.002 c 0.56719,0.496299 1.47641,0.726562 2.71679,0.726562 h 6.67188 c 1.24038,0 2.14187,-0.230397 2.69336,-0.728515 0.55439,-0.502421 0.83789,-1.158096 0.83789,-1.933594 0,-0.789716 -0.28203,-1.445282 -0.83594,-1.931641 -0.55098,-0.515433 -1.45433,-0.755859 -2.69531,-0.755859 h -1.70313 V 10.109375 l 12.86719,20.146484 h 5.24023 V 5.2363281 c 0.99454,-0.024854 1.79791,-0.2296685 2.31446,-0.7128906 0.53756,-0.5028779 0.8125,-1.1590757 0.8125,-1.9335937 0,-0.790389 -0.28305,-1.4471098 -0.83789,-1.9335938 -0.55149,-0.49811646 -1.45298,-0.72851562 -2.69336,-0.72851562 l -6.67188,-0.02539063 c -1.24097,0 -2.15198,0.24027585 -2.71875,0.75390625 -0.53937,0.4871746 -0.8125,1.1431996 -0.8125,1.9335938 0,0.7903941 0.27243,1.4536351 0.81055,1.9570312 l 0.002,0.00195 0.002,0.00195 c 0.56719,0.4962985 1.47641,0.7265626 2.71679,0.7265625 h 1.70313 V 19.996094 L 130.35547,-0.07226562 Z m -0.002,0.265625 5.80664,0.0234375 13.20313,20.71289075 V 5.0136719 h -1.9668 c -1.20504,0 -2.04758,-0.2317546 -2.53906,-0.6601563 -4.6e-4,-4.311e-4 4.6e-4,-0.00152 0,-0.00195 -0.48622,-0.4555158 -0.72852,-1.0314517 -0.72852,-1.7617187 0,-0.7309585 0.24068,-1.297462 0.72657,-1.73632817 0.49121,-0.44516402 1.33403,-0.68520382 2.53906,-0.68554688 l 6.67383,0.0253906 c 1.207,0 2.04185,0.23223199 2.51562,0.66015626 h 0.002 c 0.50214,0.43937869 0.74804,1.00632809 0.74804,1.73632819 0,0.7137616 -0.23886,1.2839986 -0.72656,1.7402343 -0.47946,0.4485285 -1.22727,0.6835938 -2.26563,0.6835938 h -0.13281 v 24.978512 h -4.83008 L 130.15039,9.2070313 v 0.453125 15.5117187 h 1.9668 c 1.20641,0 2.04135,0.239914 2.51562,0.683594 l 0.002,0.002 c 0.50214,0.439378 0.75,1.006328 0.75,1.736328 0,0.712782 -0.24802,1.279635 -0.75196,1.736328 -0.47395,0.42733 -1.30948,0.66211 -2.51562,0.662109 h -6.67188 c -1.20614,0 -2.04777,-0.23296 -2.53906,-0.662109 h -0.002 c -0.48583,-0.455432 -0.72461,-1.031737 -0.72461,-1.761719 0,-0.696535 0.23831,-1.256136 0.72656,-1.71289 0.47895,-0.448045 1.23582,-0.683594 2.29102,-0.683594 h 0.13281 V 5.0136719 h -0.92578 c -1.20505,0 -2.04758,-0.2317546 -2.53907,-0.6601563 -4.6e-4,-4.314e-4 4.7e-4,-0.00152 0,-0.00195 -0.48622,-0.4555156 -0.72656,-1.0314523 -0.72656,-1.7617187 0,-0.7309585 0.23872,-1.297462 0.72461,-1.73632817 0.49122,-0.44516402 1.33404,-0.68520382 2.53906,-0.68554688 z"
         id="path2336" />
    </g>
    <g
       id="path2303"
       style="font-size:50.8px;fill-opacity:0;stroke:#ffffff;stroke-width:0.264583">
      <path
         style="color:#000000;-inkscape-font-specification:'Courier New Bold';fill:#ffffff;fill-opacity:1;stroke:none;-inkscape-stroke:none"
         d="m 159.45312,-0.09765625 c -1.24098,0 -2.15198,0.24027566 -2.71875,0.75390625 -0.53936,0.4871748 -0.8125,1.1432 -0.8125,1.9335938 0,0.7903937 0.27244,1.4536349 0.81055,1.9570312 l 0.002,0.00195 0.002,0.00195 c 0.5672,0.4962987 1.47641,0.7265625 2.71679,0.7265625 h 5.00196 V 24.90625 h -5.00196 c -1.24098,0 -2.15198,0.240276 -2.71875,0.753906 -0.53878,0.48665 -0.8125,1.133686 -0.8125,1.908203 0,0.790394 0.27244,1.453635 0.81055,1.957032 l 0.002,0.002 0.002,0.002 c 0.5672,0.496299 1.47641,0.726562 2.71679,0.726562 h 15.35352 c 1.24038,0 2.14188,-0.230397 2.69336,-0.728515 0.5544,-0.502421 0.83789,-1.158096 0.83789,-1.933594 0,-0.790389 -0.28305,-1.44711 -0.83789,-1.933594 -0.55114,-0.514291 -1.45371,-0.753906 -2.69336,-0.753906 h -5.00195 V 5.2773437 h 5.00195 c 1.24038,0 2.14188,-0.2303982 2.69336,-0.7285156 0.55496,-0.5029289 0.83789,-1.1676318 0.83789,-1.9589843 0,-0.790389 -0.28305,-1.4471098 -0.83789,-1.9335938 -0.55148,-0.49811741 -1.45298,-0.72851563 -2.69336,-0.72851562 z m 0,0.265625 15.35352,0.0253906 c 1.20701,0 2.04186,0.23223294 2.51563,0.66015626 h 0.002 c 0.50215,0.43937869 0.74805,1.00632809 0.74805,1.73632819 0,0.73 -0.24663,1.3074871 -0.75,1.7636718 -0.47377,0.4279233 -1.30862,0.6601563 -2.51563,0.6601563 h -5.26758 V 5.1445312 25.171875 h 5.26758 c 1.20642,0 2.0394,0.239914 2.51367,0.683594 h 0.002 l 0.002,0.002 c 0.50215,0.439378 0.74805,1.006328 0.74805,1.736328 0,0.712782 -0.24607,1.279635 -0.75,1.736328 -0.47377,0.427924 -1.30862,0.662109 -2.51563,0.662109 h -15.35352 c -1.20505,0 -2.04758,-0.231754 -2.53906,-0.660156 -4.6e-4,-4.31e-4 4.6e-4,-0.0015 0,-0.002 -0.48621,-0.455515 -0.72656,-1.031452 -0.72656,-1.761719 0,-0.713762 0.23814,-1.273499 0.72461,-1.71289 0.49157,-0.445483 1.3346,-0.683594 2.54101,-0.683594 h 5.26563 V 5.0136719 h -5.26563 c -1.20505,0 -2.04758,-0.2317548 -2.53906,-0.6601563 -4.6e-4,-4.314e-4 4.6e-4,-0.00152 0,-0.00195 -0.48621,-0.4555154 -0.72656,-1.0314519 -0.72656,-1.7617187 0,-0.7309589 0.23873,-1.2974622 0.72461,-1.73632817 0.49157,-0.44548302 1.3346,-0.68554688 2.54101,-0.68554688 z"
         id="path2342" />
    </g>
    <path
       id="path2346"
       style="color:#000000;font-size:50.8px;-inkscape-font-specification:'Courier New Bold';fill:#000000;fill-opacity:1;stroke:none;stroke-width:0.264583;-inkscape-stroke:none"
       d="M 45.982723 -0.097656255 C 42.408629 -0.097656255 39.183537 1.0923374 36.306828 3.4726685 C 33.000027 6.228065 31.23248 9.7339672 31.000175 13.988306 L 31.000175 15.940641 C 31.23248 20.19395 33.000027 23.691767 36.306828 26.432507 C 39.06943 28.718421 42.156834 29.895106 45.562594 29.985779 L 45.562594 25.134912 C 43.239474 25.031652 41.145985 24.084691 39.288041 22.271004 C 37.317932 20.332059 36.332666 17.896537 36.332666 14.964473 C 36.332666 12.03241 37.317932 9.5968876 39.288041 7.6579427 C 41.258151 5.7189974 43.489575 4.7495931 45.982723 4.7495931 C 48.493306 4.7495931 50.73365 5.7189974 52.70376 7.6579427 C 53.354363 8.2930488 53.887032 8.9895184 54.322782 9.7363688 L 60.156018 9.7363688 C 59.410158 7.6594228 58.181827 5.8160588 56.469938 4.205957 C 53.453752 1.3369487 49.957812 -0.097656255 45.982723 -0.097656255 z M 20.447331 0.03566894 C 19.223634 0.03566894 18.3472 0.27544808 17.818034 0.75500488 C 17.305404 1.2345617 17.049089 1.8629484 17.049089 2.6401611 C 17.049089 3.119718 17.148308 3.524862 17.346745 3.8555908 C 17.545183 4.1863197 17.908985 4.5418542 18.438151 4.9221924 L 15.552022 7.4036947 L 15.552022 10.298608 L 19.91558 10.298608 L 25.805143 5.1454346 C 26.913085 5.1454346 27.723373 4.9056554 28.236003 4.4260986 C 28.765169 3.9465418 29.029753 3.3346916 29.029753 2.5905518 C 29.029753 1.8298754 28.765169 1.2180253 28.236003 0.75500488 C 27.723373 0.29198451 26.855207 0.060473628 25.63151 0.060473628 L 20.447331 0.03566894 z M 64.550065 0.03566894 C 63.326368 0.03566894 62.449934 0.27544808 61.920768 0.75500488 C 61.408139 1.2180253 61.151823 1.8298754 61.151823 2.5905518 C 61.151823 3.3346916 61.408139 3.9465418 61.920768 4.4260986 C 62.433398 4.889119 63.22715 5.1288982 64.302018 5.1454346 L 64.302018 10.298608 L 69.386979 10.298608 L 69.386979 5.1454346 L 74.744792 5.1454346 C 74.82682 5.1454346 74.904843 5.1501631 74.985604 5.1516357 L 74.985604 0.059956863 L 64.550065 0.03566894 z M 95.704753 0.03566894 L 95.704753 8.7917236 C 95.704753 9.280139 95.751914 9.6975935 95.825675 10.075366 L 100.66879 10.075366 C 100.74255 9.6975935 100.78971 9.280139 100.78971 8.7917236 L 100.78971 5.1454346 L 110.16589 5.1454346 L 105.45661 11.188477 L 105.45661 19.519751 L 116.73913 5.0214111 L 116.73913 0.060473628 L 95.704753 0.03566894 z M 124.40378 0.03566894 C 123.18008 0.03566894 122.30365 0.27544808 121.77448 0.75500488 C 121.26185 1.2180253 121.00553 1.8298754 121.00553 2.5905518 C 121.00553 3.3512281 121.26185 3.9713465 121.77448 4.4509033 C 122.30365 4.9139237 123.18008 5.1454346 124.40378 5.1454346 L 125.19753 5.1454346 L 125.19753 10.098621 L 130.28249 10.098621 L 130.28249 9.6598877 L 130.56257 10.098621 L 136.68158 10.098621 L 130.28249 0.060473628 L 124.40378 0.03566894 z M 159.4528 0.03566894 C 158.2291 0.03566894 157.35267 0.27544808 156.8235 0.75500488 C 156.31088 1.2180253 156.05456 1.8298754 156.05456 2.5905518 C 156.05456 3.3512281 156.31088 3.9713465 156.8235 4.4509033 C 157.35267 4.9139237 158.2291 5.1454346 159.4528 5.1454346 L 164.58737 5.1454346 L 164.58737 9.7875285 L 167.06474 9.7875285 L 167.06474 0.048071284 L 159.4528 0.03566894 z M 186.51471 0.03566894 C 185.29101 0.03566894 184.41458 0.27544808 183.88542 0.75500488 C 183.37279 1.2180253 183.11647 1.8298754 183.11647 2.5905518 C 183.11647 3.3512281 183.37279 3.9713465 183.88542 4.4509033 C 184.41458 4.9139237 185.29101 5.1454346 186.51471 5.1454346 L 187.30846 5.1454346 L 187.30846 25.038794 L 186.51471 25.038794 C 185.30755 25.038794 184.43939 25.278573 183.91022 25.75813 C 183.38106 26.22115 183.11647 26.824732 183.11647 27.568872 C 183.11647 28.329548 183.37279 28.949667 183.88542 29.429224 C 184.41458 29.892244 185.29101 30.123755 186.51471 30.123755 L 196.90271 30.123755 L 196.90271 25.038794 L 192.39342 25.038794 L 192.39342 17.572583 L 196.85827 17.572583 C 196.85827 18.848295 196.97226 19.683517 197.19727 20.089225 L 201.60165 20.089225 C 201.82575 19.68584 201.94323 18.989135 201.94323 17.969458 L 201.94323 12.115552 C 201.94323 11.155061 201.79322 10.416914 201.49778 9.8944987 L 197.25721 9.8944987 C 197.24852 9.9078145 197.23891 9.9191972 197.23034 9.9327393 C 196.98229 10.313077 196.85827 11.164707 196.85827 12.487622 L 192.39342 12.487622 L 192.39342 5.1454346 L 196.90271 5.1454346 L 196.90271 0.047037755 L 186.51471 0.03566894 z M 167.16809 9.8913981 L 167.16809 20.086125 L 169.67233 20.086125 L 169.67233 9.8913981 L 167.16809 9.8913981 z M 204.61542 9.8944987 C 204.70804 10.090568 204.81659 10.262306 204.9446 10.404028 C 205.42416 10.916658 206.04428 11.172974 206.80495 11.172974 C 207.56563 11.172974 208.17748 10.916658 208.64049 10.404028 C 208.76648 10.260047 208.87384 10.088674 208.96554 9.8944987 L 204.61542 9.8944987 z M 143.28014 10.20249 L 143.28014 20.449927 L 136.8857 10.419014 L 136.8857 19.997241 L 143.35456 30.123755 L 148.38991 30.123755 L 148.38991 10.20249 L 143.28014 10.20249 z M 4.3242839 10.402478 L 4.3242839 25.038794 L 3.5305339 25.038794 C 2.3233737 25.038794 1.4552078 25.278573 0.92604167 25.75813 C 0.39687554 26.22115 0.13229167 26.824732 0.13229167 27.568872 C 0.13229167 28.329548 0.38860729 28.949667 0.90123698 29.429224 C 1.4304031 29.892244 2.3068372 30.123755 3.5305339 30.123755 L 11.244792 30.123755 C 12.468488 30.123755 13.336654 29.892244 13.849284 29.429224 C 14.37845 28.949667 14.643034 28.337817 14.643034 27.593677 C 14.643034 26.833001 14.37845 26.22115 13.849284 25.75813 C 13.336654 25.278573 12.468488 25.038794 11.244792 25.038794 L 9.4092448 25.038794 L 9.4092448 19.40813 L 12.534635 16.754028 C 13.647604 17.202107 14.613133 17.790916 15.448153 18.504309 L 15.448153 10.402478 L 12.064897 10.402478 L 9.4092448 12.68606 L 9.4092448 10.402478 L 4.3242839 10.402478 z M 82.633199 10.402478 C 83.143406 11.536289 83.401628 12.833609 83.401628 14.298364 L 83.401628 16.704419 C 83.401628 18.237034 83.169388 19.531804 82.713298 20.597205 L 88.061292 20.597205 C 88.344602 19.442497 88.486589 18.194682 88.486589 16.853247 L 88.486589 14.422388 C 88.486589 12.867419 88.323876 11.535995 88.017367 10.402478 L 82.633199 10.402478 z M 115.25085 17.870239 C 114.49017 17.870239 113.87005 18.134823 113.39049 18.663989 C 113.05023 19.040715 112.83733 19.613217 112.74712 20.373962 L 117.7525 20.373962 C 117.65907 19.613239 117.43881 19.040707 117.08639 18.663989 C 116.62337 18.134823 116.01153 17.870239 115.25085 17.870239 z M 207.92116 18.887231 C 207.16049 18.887231 206.54037 19.151815 206.06081 19.680981 C 205.95528 19.797817 205.86323 19.935453 205.78175 20.089225 L 210.02077 20.089225 C 209.93639 19.935475 209.84119 19.797804 209.7319 19.680981 C 209.26888 19.151815 208.6653 18.887231 207.92116 18.887231 z M 164.58737 20.189994 L 164.58737 25.038794 L 159.4528 25.038794 C 158.2291 25.038794 157.35267 25.278573 156.8235 25.75813 C 156.31088 26.22115 156.05456 26.824732 156.05456 27.568872 C 156.05456 28.329548 156.31088 28.949667 156.8235 29.429224 C 157.35267 29.892244 158.2291 30.123755 159.4528 30.123755 L 167.06474 30.123755 L 167.06474 20.189994 L 164.58737 20.189994 z M 98.217261 20.477832 L 94.662956 25.038794 L 94.662956 30.123755 L 105.35274 30.123755 L 105.35274 25.038794 L 101.16178 25.038794 L 104.71092 20.477832 L 98.217261 20.477832 z M 125.19753 20.501086 L 125.19753 25.038794 C 124.12266 25.038794 123.32891 25.278573 122.81628 25.75813 C 122.30365 26.237687 122.04733 26.841269 122.04733 27.568872 C 122.04733 28.329548 122.30365 28.949667 122.81628 29.429224 C 123.34544 29.892244 124.22187 30.123755 125.44557 30.123755 L 132.11803 30.123755 C 133.34173 30.123755 134.2099 29.892244 134.72253 29.429224 C 135.25169 28.949667 135.51628 28.337817 135.51628 27.593677 C 135.51628 26.833001 135.25169 26.22115 134.72253 25.75813 C 134.2099 25.278573 133.34173 25.038794 132.11803 25.038794 L 130.28249 25.038794 L 130.28249 20.501086 L 125.19753 20.501086 z M 64.302018 20.701591 L 64.302018 25.038794 C 63.243686 25.022257 62.449934 25.253768 61.920768 25.733325 C 61.408139 26.212882 61.151823 26.824732 61.151823 27.568872 C 61.151823 28.329548 61.408139 28.949667 61.920768 29.429224 C 62.449934 29.892244 63.326368 30.123755 64.550065 30.123755 L 74.769596 30.123755 C 74.843298 30.123755 74.912669 30.120231 74.985604 30.119621 L 74.985604 25.035177 C 74.920903 25.035791 74.860156 25.038794 74.794401 25.038794 L 69.386979 25.038794 L 69.386979 20.701591 L 64.302018 20.701591 z " />
    <path
       style="color:#000000;font-size:50.8px;-inkscape-font-specification:'Courier New Bold';fill:#ffffff;fill-opacity:1;stroke:none;stroke-width:0.264583;-inkscape-stroke:none"
       d="m 186.51562,-0.09765625 c -1.24098,0 -2.15198,0.24027566 -2.71875,0.75390625 -0.53936,0.4871748 -0.8125,1.1432 -0.8125,1.9335938 10e-6,0.7903937 0.27244,1.4536349 0.81055,1.9570312 l 0.002,0.00195 0.002,0.00195 c 0.5672,0.4962987 1.47641,0.7265625 2.71679,0.7265625 h 0.66016 V 24.90625 h -0.66016 c -1.22467,0 -2.1271,0.240736 -2.69335,0.753906 -0.55466,0.48601 -0.8379,1.13337 -0.8379,1.908203 10e-6,0.790394 0.27244,1.453635 0.81055,1.957032 l 0.002,0.002 0.002,0.002 c 0.5672,0.496299 1.47641,0.726562 2.71679,0.726562 h 24.06836 V 22.28525 c 0,-1.239648 -0.23961,-2.142216 -0.7539,-2.693359 -0.48595,-0.554242 -1.13366,-0.837891 -1.90821,-0.837891 -0.79134,0 -1.45605,0.282935 -1.95898,0.837891 -0.49812,0.551487 -0.72852,1.452978 -0.72852,2.693359 v 2.621094 h -12.70898 v -7.201172 h 4.2207 c 0.0103,1.233394 0.101,2.09948 0.37305,2.517578 0.53222,0.841244 1.31444,1.277344 2.29492,1.277344 0.9304,0 1.69171,-0.418458 2.24024,-1.222656 0.29897,-0.429773 0.42187,-1.190122 0.42187,-2.308594 v -5.853516 c 0,-1.239648 -0.23962,-2.1422158 -0.7539,-2.693359 -0.48595,-0.5542418 -1.13366,-0.8378906 -1.90821,-0.8378906 -0.98048,0 -1.7627,0.4360998 -2.29492,1.2773437 -0.27146,0.4172019 -0.3626,1.2764739 -0.37305,2.4941409 h -4.2207 V 5.2773437 h 11.5918 v 2.5214844 c 0,1.240382 0.2304,2.1418729 0.72851,2.6933599 l 0.002,0.002 c 0.5034,0.538113 1.16664,0.810547 1.95703,0.810547 0.79039,0 1.44642,-0.273128 1.93359,-0.8125 h 0.002 v -0.002 c 0.49585,-0.5666839 0.72657,-1.4673317 0.72657,-2.6914059 v -7.87109372 z m -0.002,0.265625 22.68945,0.0253906 V 7.7988281 c 0,1.1893826 -0.23251,2.0238356 -0.6621,2.5156249 -3.2e-4,3.57e-4 3.1e-4,0.0016 0,0.002 -0.43862,0.484561 -1.00636,0.72461 -1.73633,0.72461 -0.72998,0 -1.30629,-0.240727 -1.76172,-0.726563 v -0.002 C 204.61564,9.8385472 204.38281,9.0049627 204.38281,7.7988281 V 5.0136719 h -12.12109 v 7.6054691 h 4.72851 v -0.13086 c 0,-1.314647 0.14186,-2.162821 0.35157,-2.484375 0.49304,-0.7793272 1.1676,-1.1542966 2.07226,-1.1542966 0.71279,0 1.27105,0.2453127 1.71094,0.7480469 v 0.00195 l 0.002,0.00195 c 0.44368,0.4742797 0.6836,1.3072567 0.6836,2.5136717 v 5.853516 c 0,1.097411 -0.14286,1.827299 -0.37305,2.158203 -0.50968,0.748598 -1.16885,1.107422 -2.02344,1.107422 -0.90466,0 -1.57922,-0.373016 -2.07226,-1.152344 v -0.002 c -0.20923,-0.320818 -0.35157,-1.176527 -0.35157,-2.507812 V 17.4394 h -4.72851 v 0.132813 7.599609 h 13.23633 v -2.886719 c 0,-1.20701 0.23223,-2.041852 0.66015,-2.515625 0.45619,-0.503376 1.03368,-0.75 1.76367,-0.75 0.71279,0 1.27105,0.245313 1.71094,0.748047 v 0.002 l 0.002,0.002 c 0.44368,0.47428 0.68359,1.307258 0.68359,2.513672 v 7.707031 h -23.80274 c -1.20505,10e-7 -2.04758,-0.231754 -2.53906,-0.660156 -4.6e-4,-4.31e-4 4.6e-4,-0.0015 0,-0.002 -0.48621,-0.455516 -0.72851,-1.031452 -0.72851,-1.761719 0,-0.712782 0.24726,-1.271045 0.75,-1.710937 l 0.002,-0.002 c 0.49208,-0.445944 1.32598,-0.683594 2.51562,-0.683594 h 0.92579 V 5.0136719 h -0.92579 c -1.20505,0 -2.04758,-0.2317548 -2.53906,-0.6601563 -4.6e-4,-4.311e-4 4.6e-4,-0.00152 0,-0.00195 -0.48621,-0.4555156 -0.72851,-1.0314514 -0.72851,-1.7617187 0,-0.7309589 0.24068,-1.2974622 0.72656,-1.73632817 0.49121,-0.44516383 1.33403,-0.68520382 2.53906,-0.68554688 z"
       id="path2348" />
    <path
       style="fill:none;stroke:#000000;stroke-width:0.665;stroke-linecap:butt;stroke-linejoin:miter;stroke-dasharray:none;stroke-opacity:1"
       d="M 2.2411905e-6,10.070303 C 212.5,10.066703 212.5,10.066703 212.5,10.066703"
       id="path502" />
    <path
       style="fill:none;stroke:#000000;stroke-width:0.665;stroke-linecap:butt;stroke-linejoin:miter;stroke-dasharray:none;stroke-opacity:1"
       d="M 5.6329416e-6,20.406969 C 212.5,20.403369 212.5,20.403369 212.5,20.403369"
       id="path502-2" />
    <path
       style="fill:none;stroke:#000000;stroke-width:0.565;stroke-linecap:butt;stroke-linejoin:miter;stroke-opacity:1;stroke-dasharray:none"
       d="M 15.345837,-0.84179688 V 31"
       id="path1929" />
    <path
       style="fill:none;stroke:#000000;stroke-width:0.565;stroke-linecap:butt;stroke-linejoin:miter;stroke-dasharray:none;stroke-opacity:1"
       d="M 30.24757,-0.84179688 V 31.000006"
       id="path1929-6" />
    <path
       style="fill:none;stroke:#000000;stroke-width:0.565;stroke-linecap:butt;stroke-linejoin:miter;stroke-dasharray:none;stroke-opacity:1"
       d="M 45.309045,-0.84179688 V 31"
       id="path1929-7" />
    <path
       style="fill:none;stroke:#000000;stroke-width:0.565;stroke-linecap:butt;stroke-linejoin:miter;stroke-dasharray:none;stroke-opacity:1"
       d="M 60.6865,-0.84179688 V 30.999999"
       id="path1929-9" />
    <path
       style="fill:none;stroke:#000000;stroke-width:0.565;stroke-linecap:butt;stroke-linejoin:miter;stroke-dasharray:none;stroke-opacity:1"
       d="M 75.24531,-0.84179688 V 31"
       id="path1929-61" />
    <path
       style="fill:none;stroke:#000000;stroke-width:0.565;stroke-linecap:butt;stroke-linejoin:miter;stroke-dasharray:none;stroke-opacity:1"
       d="M 91.248778,-0.84179688 V 31"
       id="path1929-4" />
    <path
       style="fill:none;stroke:#000000;stroke-width:0.565;stroke-linecap:butt;stroke-linejoin:miter;stroke-dasharray:none;stroke-opacity:1"
       d="M 105.59982,-0.84179688 V 31"
       id="path1929-44" />
    <path
       style="fill:none;stroke:#000000;stroke-width:0.565;stroke-linecap:butt;stroke-linejoin:miter;stroke-dasharray:none;stroke-opacity:1"
       d="M 120.61642,-0.84179688 V 31"
       id="path1929-98" />
    <path
       style="fill:none;stroke:#000000;stroke-width:0.565;stroke-linecap:butt;stroke-linejoin:miter;stroke-dasharray:none;stroke-opacity:1"
       d="M 136.67275,-0.84179688 V 30.999999"
       id="path1929-8" />
    <path
       style="fill:none;stroke:#000000;stroke-width:0.565;stroke-linecap:butt;stroke-linejoin:miter;stroke-dasharray:none;stroke-opacity:1"
       d="M 152.14888,-0.84179688 V 31"
       id="path1929-3" />
    <path
       style="fill:none;stroke:#000000;stroke-width:0.565;stroke-linecap:butt;stroke-linejoin:miter;stroke-dasharray:none;stroke-opacity:1"
       d="M 166.95507,-0.84179688 V 31"
       id="path1929-614" />
    <path
       style="fill:none;stroke:#000000;stroke-width:0.565;stroke-linecap:butt;stroke-linejoin:miter;stroke-dasharray:none;stroke-opacity:1"
       d="M 182.55408,-0.84179688 V 31"
       id="path1929-1" />
    <path
       style="fill:none;stroke:#000000;stroke-width:0.565;stroke-linecap:butt;stroke-linejoin:miter;stroke-dasharray:none;stroke-opacity:1"
       d="M 196.96346,-0.84179688 V 31"
       id="path1929-62" />
  </g>
</svg>
