<?xml version="1.0" encoding="UTF-8" standalone="no"?>
<!-- Created with Inkscape (http://www.inkscape.org/) -->

<svg
   version="1.1"
   id="svg1"
   width="501.59738"
   height="306.12137"
   viewBox="0 0 501.59738 306.12138"
   xmlns="http://www.w3.org/2000/svg"
   xmlns:svg="http://www.w3.org/2000/svg">
  <defs
     id="defs1" />
  <g
     id="g1"
     transform="translate(-75.053315,-103.36238)">
    <g
       id="g4">
      <path
         id="path5"
         d="m 231.506,763.993 h 25.766"
         style="fill:none;stroke:#000000;stroke-width:0.75003;stroke-linecap:butt;stroke-linejoin:round;stroke-miterlimit:10;stroke-dasharray:none;stroke-opacity:1"
         transform="matrix(1.3333333,0,0,-1.3333333,0,1122.5197)" />
      <path
         id="path6"
         d="M 231.874,764.361 V 687.344"
         style="fill:none;stroke:#000000;stroke-width:0.75003;stroke-linecap:butt;stroke-linejoin:round;stroke-miterlimit:10;stroke-dasharray:none;stroke-opacity:1"
         transform="matrix(1.3333333,0,0,-1.3333333,0,1122.5197)" />
      <path
         id="path7"
         d="M 256.904,764.361 V 687.344"
         style="fill:none;stroke:#000000;stroke-width:0.75003;stroke-linecap:butt;stroke-linejoin:round;stroke-miterlimit:10;stroke-dasharray:none;stroke-opacity:1"
         transform="matrix(1.3333333,0,0,-1.3333333,0,1122.5197)" />
      <path
         id="path8"
         d="m 206.476,738.566 h 75.826"
         style="fill:none;stroke:#000000;stroke-width:0.75003;stroke-linecap:butt;stroke-linejoin:round;stroke-miterlimit:10;stroke-dasharray:none;stroke-opacity:1"
         transform="matrix(1.3333333,0,0,-1.3333333,0,1122.5197)" />
      <path
         id="path9"
         d="M 206.844,738.935 V 687.344"
         style="fill:none;stroke:#000000;stroke-width:0.75003;stroke-linecap:butt;stroke-linejoin:round;stroke-miterlimit:10;stroke-dasharray:none;stroke-opacity:1"
         transform="matrix(1.3333333,0,0,-1.3333333,0,1122.5197)" />
      <path
         id="path10"
         d="M 281.934,738.935 V 687.344"
         style="fill:none;stroke:#000000;stroke-width:0.75003;stroke-linecap:butt;stroke-linejoin:round;stroke-miterlimit:10;stroke-dasharray:none;stroke-opacity:1"
         transform="matrix(1.3333333,0,0,-1.3333333,0,1122.5197)" />
      <path
         id="path11"
         d="M 181.446,713.139 H 307.332"
         style="fill:none;stroke:#000000;stroke-width:0.75003;stroke-linecap:butt;stroke-linejoin:round;stroke-miterlimit:10;stroke-dasharray:none;stroke-opacity:1"
         transform="matrix(1.3333333,0,0,-1.3333333,0,1122.5197)" />
      <path
         id="path12"
         d="M 181.814,713.508 V 687.344"
         style="fill:none;stroke:#000000;stroke-width:0.75003;stroke-linecap:butt;stroke-linejoin:round;stroke-miterlimit:10;stroke-dasharray:none;stroke-opacity:1"
         transform="matrix(1.3333333,0,0,-1.3333333,0,1122.5197)" />
      <path
         id="path13"
         d="M 306.964,713.508 V 687.344"
         style="fill:none;stroke:#000000;stroke-width:0.75003;stroke-linecap:butt;stroke-linejoin:round;stroke-miterlimit:10;stroke-dasharray:none;stroke-opacity:1"
         transform="matrix(1.3333333,0,0,-1.3333333,0,1122.5197)" />
      <path
         id="path14"
         d="m 106.356,687.713 h 25.767"
         style="fill:none;stroke:#000000;stroke-width:0.75003;stroke-linecap:butt;stroke-linejoin:round;stroke-miterlimit:10;stroke-dasharray:none;stroke-opacity:1"
         transform="matrix(1.3333333,0,0,-1.3333333,0,1122.5197)" />
      <path
         id="path15"
         d="M 106.724,688.081 V 611.064"
         style="fill:none;stroke:#000000;stroke-width:0.75003;stroke-linecap:butt;stroke-linejoin:round;stroke-miterlimit:10;stroke-dasharray:none;stroke-opacity:1"
         transform="matrix(1.3333333,0,0,-1.3333333,0,1122.5197)" />
      <path
         id="path16"
         d="M 131.754,688.081 V 611.064"
         style="fill:none;stroke:#000000;stroke-width:0.75003;stroke-linecap:butt;stroke-linejoin:round;stroke-miterlimit:10;stroke-dasharray:none;stroke-opacity:1"
         transform="matrix(1.3333333,0,0,-1.3333333,0,1122.5197)" />
      <path
         id="path17"
         d="M 181.446,687.713 H 307.332"
         style="fill:none;stroke:#000000;stroke-width:0.75003;stroke-linecap:butt;stroke-linejoin:round;stroke-miterlimit:10;stroke-dasharray:none;stroke-opacity:1"
         transform="matrix(1.3333333,0,0,-1.3333333,0,1122.5197)" />
      <path
         id="path18"
         d="m 356.655,687.713 h 25.767"
         style="fill:none;stroke:#000000;stroke-width:0.75003;stroke-linecap:butt;stroke-linejoin:round;stroke-miterlimit:10;stroke-dasharray:none;stroke-opacity:1"
         transform="matrix(1.3333333,0,0,-1.3333333,0,1122.5197)" />
      <path
         id="path19"
         d="M 357.024,688.081 V 611.064"
         style="fill:none;stroke:#000000;stroke-width:0.75003;stroke-linecap:butt;stroke-linejoin:round;stroke-miterlimit:10;stroke-dasharray:none;stroke-opacity:1"
         transform="matrix(1.3333333,0,0,-1.3333333,0,1122.5197)" />
      <path
         id="path20"
         d="M 382.054,688.081 V 611.064"
         style="fill:none;stroke:#000000;stroke-width:0.75003;stroke-linecap:butt;stroke-linejoin:round;stroke-miterlimit:10;stroke-dasharray:none;stroke-opacity:1"
         transform="matrix(1.3333333,0,0,-1.3333333,0,1122.5197)" />
      <path
         id="path21"
         d="m 81.326,662.286 h 75.827"
         style="fill:none;stroke:#000000;stroke-width:0.75003;stroke-linecap:butt;stroke-linejoin:round;stroke-miterlimit:10;stroke-dasharray:none;stroke-opacity:1"
         transform="matrix(1.3333333,0,0,-1.3333333,0,1122.5197)" />
      <path
         id="path22"
         d="m 81.694,662.654 v -51.59"
         style="fill:none;stroke:#000000;stroke-width:0.75003;stroke-linecap:butt;stroke-linejoin:round;stroke-miterlimit:10;stroke-dasharray:none;stroke-opacity:1"
         transform="matrix(1.3333333,0,0,-1.3333333,0,1122.5197)" />
      <path
         id="path23"
         d="m 156.784,662.654 v -51.59"
         style="fill:none;stroke:#000000;stroke-width:0.75003;stroke-linecap:butt;stroke-linejoin:round;stroke-miterlimit:10;stroke-dasharray:none;stroke-opacity:1"
         transform="matrix(1.3333333,0,0,-1.3333333,0,1122.5197)" />
      <path
         id="path24"
         d="m 331.625,662.286 h 75.827"
         style="fill:none;stroke:#000000;stroke-width:0.75003;stroke-linecap:butt;stroke-linejoin:round;stroke-miterlimit:10;stroke-dasharray:none;stroke-opacity:1"
         transform="matrix(1.3333333,0,0,-1.3333333,0,1122.5197)" />
      <path
         id="path25"
         d="m 331.994,662.654 v -51.59"
         style="fill:none;stroke:#000000;stroke-width:0.75003;stroke-linecap:butt;stroke-linejoin:round;stroke-miterlimit:10;stroke-dasharray:none;stroke-opacity:1"
         transform="matrix(1.3333333,0,0,-1.3333333,0,1122.5197)" />
      <path
         id="path26"
         d="m 407.083,662.654 v -51.59"
         style="fill:none;stroke:#000000;stroke-width:0.75003;stroke-linecap:butt;stroke-linejoin:round;stroke-miterlimit:10;stroke-dasharray:none;stroke-opacity:1"
         transform="matrix(1.3333333,0,0,-1.3333333,0,1122.5197)" />
      <path
         id="path27"
         d="M 56.296,636.859 H 182.183"
         style="fill:none;stroke:#000000;stroke-width:0.75003;stroke-linecap:butt;stroke-linejoin:round;stroke-miterlimit:10;stroke-dasharray:none;stroke-opacity:1"
         transform="matrix(1.3333333,0,0,-1.3333333,0,1122.5197)" />
      <path
         id="path28"
         d="M 56.665,637.228 V 611.064"
         style="fill:none;stroke:#000000;stroke-width:0.75003;stroke-linecap:butt;stroke-linejoin:round;stroke-miterlimit:10;stroke-dasharray:none;stroke-opacity:1"
         transform="matrix(1.3333333,0,0,-1.3333333,0,1122.5197)" />
      <path
         id="path29"
         d="M 181.814,637.228 V 611.064"
         style="fill:none;stroke:#000000;stroke-width:0.75003;stroke-linecap:butt;stroke-linejoin:round;stroke-miterlimit:10;stroke-dasharray:none;stroke-opacity:1"
         transform="matrix(1.3333333,0,0,-1.3333333,0,1122.5197)" />
      <path
         id="path30"
         d="M 306.595,636.859 H 432.482"
         style="fill:none;stroke:#000000;stroke-width:0.75003;stroke-linecap:butt;stroke-linejoin:round;stroke-miterlimit:10;stroke-dasharray:none;stroke-opacity:1"
         transform="matrix(1.3333333,0,0,-1.3333333,0,1122.5197)" />
      <path
         id="path31"
         d="M 306.964,637.228 V 611.064"
         style="fill:none;stroke:#000000;stroke-width:0.75003;stroke-linecap:butt;stroke-linejoin:round;stroke-miterlimit:10;stroke-dasharray:none;stroke-opacity:1"
         transform="matrix(1.3333333,0,0,-1.3333333,0,1122.5197)" />
      <path
         id="path32"
         d="M 432.113,637.228 V 611.064"
         style="fill:none;stroke:#000000;stroke-width:0.75003;stroke-linecap:butt;stroke-linejoin:round;stroke-miterlimit:10;stroke-dasharray:none;stroke-opacity:1"
         transform="matrix(1.3333333,0,0,-1.3333333,0,1122.5197)" />
      <path
         id="path33"
         d="M 432.113,637.228 V 611.064"
         style="fill:none;stroke:#000000;stroke-width:0.75003;stroke-linecap:butt;stroke-linejoin:round;stroke-miterlimit:10;stroke-dasharray:none;stroke-opacity:1"
         transform="matrix(1.3333333,0,0,-1.3333333,0,1122.5197)" />
      <path
         id="path34"
         d="M 56.296,611.432 H 182.183"
         style="fill:none;stroke:#000000;stroke-width:0.75003;stroke-linecap:butt;stroke-linejoin:round;stroke-miterlimit:10;stroke-dasharray:none;stroke-opacity:1"
         transform="matrix(1.3333333,0,0,-1.3333333,0,1122.5197)" />
      <path
         id="path35"
         d="m 231.506,611.432 h 25.766"
         style="fill:none;stroke:#000000;stroke-width:0.75003;stroke-linecap:butt;stroke-linejoin:round;stroke-miterlimit:10;stroke-dasharray:none;stroke-opacity:1"
         transform="matrix(1.3333333,0,0,-1.3333333,0,1122.5197)" />
      <path
         id="path36"
         d="M 231.874,611.801 V 534.783"
         style="fill:none;stroke:#000000;stroke-width:0.75003;stroke-linecap:butt;stroke-linejoin:round;stroke-miterlimit:10;stroke-dasharray:none;stroke-opacity:1"
         transform="matrix(1.3333333,0,0,-1.3333333,0,1122.5197)" />
      <path
         id="path37"
         d="M 256.904,611.801 V 534.783"
         style="fill:none;stroke:#000000;stroke-width:0.75003;stroke-linecap:butt;stroke-linejoin:round;stroke-miterlimit:10;stroke-dasharray:none;stroke-opacity:1"
         transform="matrix(1.3333333,0,0,-1.3333333,0,1122.5197)" />
      <path
         id="path38"
         d="M 306.595,611.432 H 432.482"
         style="fill:none;stroke:#000000;stroke-width:0.75003;stroke-linecap:butt;stroke-linejoin:round;stroke-miterlimit:10;stroke-dasharray:none;stroke-opacity:1"
         transform="matrix(1.3333333,0,0,-1.3333333,0,1122.5197)" />
      <path
         id="path39"
         d="m 206.476,586.006 h 75.826"
         style="fill:none;stroke:#000000;stroke-width:0.75003;stroke-linecap:butt;stroke-linejoin:round;stroke-miterlimit:10;stroke-dasharray:none;stroke-opacity:1"
         transform="matrix(1.3333333,0,0,-1.3333333,0,1122.5197)" />
      <path
         id="path40"
         d="M 206.844,586.374 V 534.783"
         style="fill:none;stroke:#000000;stroke-width:0.75003;stroke-linecap:butt;stroke-linejoin:round;stroke-miterlimit:10;stroke-dasharray:none;stroke-opacity:1"
         transform="matrix(1.3333333,0,0,-1.3333333,0,1122.5197)" />
      <path
         id="path41"
         d="M 281.934,586.374 V 534.783"
         style="fill:none;stroke:#000000;stroke-width:0.75003;stroke-linecap:butt;stroke-linejoin:round;stroke-miterlimit:10;stroke-dasharray:none;stroke-opacity:1"
         transform="matrix(1.3333333,0,0,-1.3333333,0,1122.5197)" />
      <path
         id="path42"
         d="M 181.446,560.579 H 307.332"
         style="fill:none;stroke:#000000;stroke-width:0.75003;stroke-linecap:butt;stroke-linejoin:round;stroke-miterlimit:10;stroke-dasharray:none;stroke-opacity:1"
         transform="matrix(1.3333333,0,0,-1.3333333,0,1122.5197)" />
      <path
         id="path43"
         d="M 181.446,535.152 H 307.332"
         style="fill:none;stroke:#000000;stroke-width:0.75003;stroke-linecap:butt;stroke-linejoin:round;stroke-miterlimit:10;stroke-dasharray:none;stroke-opacity:1"
         transform="matrix(1.3333333,0,0,-1.3333333,0,1122.5197)" />
      <path
         id="path44"
         d="M 181.814,560.947 V 534.783"
         style="fill:none;stroke:#000000;stroke-width:0.75003;stroke-linecap:butt;stroke-linejoin:round;stroke-miterlimit:10;stroke-dasharray:none;stroke-opacity:1"
         transform="matrix(1.3333333,0,0,-1.3333333,0,1122.5197)" />
      <path
         id="path45"
         d="M 306.964,560.947 V 534.783"
         style="fill:none;stroke:#000000;stroke-width:0.75003;stroke-linecap:butt;stroke-linejoin:round;stroke-miterlimit:10;stroke-dasharray:none;stroke-opacity:1"
         transform="matrix(1.3333333,0,0,-1.3333333,0,1122.5197)" />
      <path
         id="path46"
         d="M 181.446,535.152 H 307.332"
         style="fill:none;stroke:#000000;stroke-width:0.75003;stroke-linecap:butt;stroke-linejoin:round;stroke-miterlimit:10;stroke-dasharray:none;stroke-opacity:1"
         transform="matrix(1.3333333,0,0,-1.3333333,0,1122.5197)" />
    </g>
    <g
       id="g46">
      <text
         id="text46"
         xml:space="preserve"
         transform="matrix(1.3333333,0,0,1.3333333,288.492,160.13969)"><tspan
           id="tspan46"
           style="font-variant:normal;font-weight:normal;font-size:11px;font-family:'Minion Pro';writing-mode:lr-tb;fill:#000000;fill-opacity:1;fill-rule:nonzero;stroke:none"
           x="0"
           y="0">8</tspan></text>
    </g>
    <g
       id="g47">
      <text
         id="text47"
         xml:space="preserve"
         transform="matrix(1.3333333,0,0,1.3333333,321.864,160.13969)"><tspan
           id="tspan47"
           style="font-variant:normal;font-weight:normal;font-size:11px;font-family:'Minion Pro';writing-mode:lr-tb;fill:#000000;fill-opacity:1;fill-rule:nonzero;stroke:none"
           x="0"
           y="0">1</tspan></text>
    </g>
    <g
       id="g48">
      <text
         id="text48"
         xml:space="preserve"
         transform="matrix(1.3333333,0,0,1.3333333,249.108,194.04235)"><tspan
           id="tspan48"
           style="font-variant:normal;font-weight:normal;font-size:11px;font-family:'Minion Pro';writing-mode:lr-tb;fill:#000000;fill-opacity:1;fill-rule:nonzero;stroke:none"
           x="0"
           y="0">2,9</tspan></text>
    </g>
    <g
       id="g49">
      <text
         id="text49"
         xml:space="preserve"
         transform="matrix(1.3333333,0,0,1.3333333,384.60533,194.04235)"><tspan
           id="tspan49"
           style="font-variant:normal;font-weight:normal;font-size:11px;font-family:'Minion Pro';writing-mode:lr-tb;fill:#000000;fill-opacity:1;fill-rule:nonzero;stroke:none"
           x="0"
           y="0">13</tspan></text>
    </g>
    <g
       id="g50">
      <text
         id="text50"
         xml:space="preserve"
         transform="matrix(1.3333333,0,0,1.3333333,154.99867,261.84635)"><tspan
           id="tspan50"
           style="font-variant:normal;font-weight:normal;font-size:11px;font-family:'Minion Pro';writing-mode:lr-tb;fill:#000000;fill-opacity:1;fill-rule:nonzero;stroke:none"
           x="0"
           y="0">4</tspan></text>
    </g>
    <g
       id="g51">
      <text
         id="text51"
         xml:space="preserve"
         transform="matrix(1.3333333,0,0,1.3333333,188.372,261.84635)"><tspan
           id="tspan51"
           style="font-variant:normal;font-weight:normal;font-size:11px;font-family:'Minion Pro';writing-mode:lr-tb;fill:#000000;fill-opacity:1;fill-rule:nonzero;stroke:none"
           x="0"
           y="0">7</tspan></text>
    </g>
    <g
       id="g52">
      <text
         id="text52"
         xml:space="preserve"
         transform="matrix(1.3333333,0,0,1.3333333,522.104,261.84635)"><tspan
           id="tspan52"
           style="font-variant:normal;font-weight:normal;font-size:11px;font-family:'Minion Pro';writing-mode:lr-tb;fill:#000000;fill-opacity:1;fill-rule:nonzero;stroke:none"
           x="0"
           y="0">8</tspan></text>
    </g>
    <g
       id="g53">
      <text
         id="text53"
         xml:space="preserve"
         transform="matrix(1.3333333,0,0,1.3333333,84.245333,295.74902)"><tspan
           id="tspan53"
           style="font-variant:normal;font-weight:normal;font-size:11px;font-family:'Minion Pro';writing-mode:lr-tb;fill:#000000;fill-opacity:1;fill-rule:nonzero;stroke:none"
           x="0"
           y="0">13</tspan></text>
    </g>
    <g
       id="g54">
      <text
         id="text54"
         xml:space="preserve"
         transform="matrix(1.3333333,0,0,1.3333333,150.992,295.74902)"><tspan
           id="tspan54"
           style="font-variant:normal;font-weight:normal;font-size:11px;font-family:'Minion Pro';writing-mode:lr-tb;fill:#000000;fill-opacity:1;fill-rule:nonzero;stroke:none"
           x="0"
           y="0">10</tspan></text>
    </g>
    <g
       id="g55">
      <text
         id="text55"
         xml:space="preserve"
         transform="matrix(1.3333333,0,0,1.3333333,178.356,295.74902)"><tspan
           id="tspan55"
           style="font-variant:normal;font-weight:normal;font-size:11px;font-family:'Minion Pro';writing-mode:lr-tb;fill:#000000;fill-opacity:1;fill-rule:nonzero;stroke:none"
           x="0"
           y="0">6,12</tspan></text>
    </g>
    <g
       id="g56">
      <text
         id="text56"
         xml:space="preserve"
         transform="matrix(1.3333333,0,0,1.3333333,478.71467,295.74902)"><tspan
           id="tspan56"
           style="font-variant:normal;font-weight:normal;font-size:11px;font-family:'Minion Pro';writing-mode:lr-tb;fill:#000000;fill-opacity:1;fill-rule:nonzero;stroke:none"
           x="0"
           y="0">5,11</tspan></text>
    </g>
    <g
       id="g57">
      <text
         id="text57"
         xml:space="preserve"
         transform="matrix(1.3333333,0,0,1.3333333,549.468,295.74902)"><tspan
           id="tspan57"
           style="font-variant:normal;font-weight:normal;font-size:11px;font-family:'Minion Pro';writing-mode:lr-tb;fill:#000000;fill-opacity:1;fill-rule:nonzero;stroke:none"
           x="0"
           y="0">2,9</tspan></text>
    </g>
    <g
       id="g58">
      <text
         id="text58"
         xml:space="preserve"
         transform="matrix(1.3333333,0,0,1.3333333,288.492,363.55435)"><tspan
           id="tspan58"
           style="font-variant:normal;font-weight:normal;font-size:11px;font-family:'Minion Pro';writing-mode:lr-tb;fill:#000000;fill-opacity:1;fill-rule:nonzero;stroke:none"
           x="0"
           y="0">7</tspan></text>
    </g>
    <g
       id="g59">
      <text
         id="text59"
         xml:space="preserve"
         transform="matrix(1.3333333,0,0,1.3333333,321.864,363.55435)"><tspan
           id="tspan59"
           style="font-variant:normal;font-weight:normal;font-size:11px;font-family:'Minion Pro';writing-mode:lr-tb;fill:#000000;fill-opacity:1;fill-rule:nonzero;stroke:none"
           x="0"
           y="0">3</tspan></text>
    </g>
  </g>
</svg>
