<svg xmlns="http://www.w3.org/2000/svg" xmlns:xlink="http://www.w3.org/1999/xlink" xmlns:inkscape="http://www.inkscape.org/namespaces/inkscape" version="1.1" width="480.40003" height="352.40003" viewBox="0 0 480.40003 352.40003">
<defs>
<clipPath id="clip_0">
<path transform="matrix(1,0,0,-1,-31.8,832.2)" d="M31.8 479.8H512.2V832.2H31.8Z" clip-rule="evenodd"/>
</clipPath>
<clipPath id="clip_1">
<path transform="matrix(1,0,0,-1,296.30403,85.747989)" d="M-1-1H16.791V12.097H-1Z"/>
</clipPath>
<clipPath id="clip_2">
<path transform="matrix(1,0,0,-1,236.253,53.747987)" d="M-1-1H8.895V12.097H-1Z"/>
</clipPath>
<clipPath id="clip_3">
<path transform="matrix(1,0,0,-1,204.25299,53.747987)" d="M-1-1H8.895V12.097H-1Z"/>
</clipPath>
<clipPath id="clip_4">
<path transform="matrix(1,0,0,-1,166.15599,87.423038)" d="M-1-1H21.088V15.446H-1Z"/>
</clipPath>
<clipPath id="clip_5">
<path transform="matrix(1,0,0,-1,8.304501,213.74799)" d="M-1-1H16.791V12.097H-1Z"/>
</clipPath>
<clipPath id="clip_6">
<path transform="matrix(1,0,0,-1,72.30501,213.74799)" d="M-1-1H16.791V12.097H-1Z"/>
</clipPath>
<clipPath id="clip_7">
<path transform="matrix(1,0,0,-1,76.252,181.74799)" d="M-1-1H8.895V12.097H-1Z"/>
</clipPath>
<clipPath id="clip_8">
<path transform="matrix(1,0,0,-1,98.20799,215.42304)" d="M-1-1H28.984V15.446H-1Z"/>
</clipPath>
<clipPath id="clip_9">
<path transform="matrix(1,0,0,-1,108.25299,181.74799)" d="M-1-1H8.895V12.097H-1Z"/>
</clipPath>
<clipPath id="clip_10">
<path transform="matrix(1,0,0,-1,204.25299,309.748)" d="M-1-1H8.895V12.097H-1Z"/>
</clipPath>
<clipPath id="clip_11">
<path transform="matrix(1,0,0,-1,236.253,309.748)" d="M-1-1H8.895V12.097H-1Z"/>
</clipPath>
<clipPath id="clip_12">
<path transform="matrix(1,0,0,-1,386.208,215.42304)" d="M-1-1H28.984V15.446H-1Z"/>
</clipPath>
<clipPath id="clip_13">
<path transform="matrix(1,0,0,-1,428.25303,181.74799)" d="M-1-1H8.895V12.097H-1Z"/>
</clipPath>
<clipPath id="clip_14">
<path transform="matrix(1,0,0,-1,454.156,215.42304)" d="M-1-1H21.088V15.446H-1Z"/>
</clipPath>
<clipPath id="clip_15">
<path transform="matrix(1,0,0,-1,232.88301,22.080018)" d="M-1-1H15.634V12.761H-1Z"/>
</clipPath>
<clipPath id="clip_16">
<path transform="matrix(1,0,0,-1,170.232,342.08003)" d="M-1-1H12.936V12.761H-1Z"/>
</clipPath>
<clipPath id="clip_17">
<path transform="matrix(1,0,0,-1,299.35304,342.08003)" d="M-1-1H10.694V12.761H-1Z"/>
</clipPath>
<clipPath id="clip_18">
<path transform="matrix(1,0,0,-1,331.35304,214.08002)" d="M-1-1H10.694V12.761H-1Z"/>
</clipPath>
<clipPath id="clip_19">
<path transform="matrix(1,0,0,-1,138.232,214.08002)" d="M-1-1H12.936V12.761H-1Z"/>
</clipPath>
<clipPath id="clip_20">
<path transform="matrix(1,0,0,-1,72.882999,150.08002)" d="M-1-1H15.634V12.761H-1Z"/>
</clipPath>
<clipPath id="clip_21">
<path transform="matrix(1,0,0,-1,392.88304,150.08002)" d="M-1-1H15.634V12.761H-1Z"/>
</clipPath>
<clipPath id="clip_22">
<path transform="matrix(1,0,0,-1,232.88301,278.08003)" d="M-1-1H15.634V12.761H-1Z"/>
</clipPath>
<clipPath id="clip_23">
<path transform="matrix(1,0,0,-1,265.948,54.080018)" d="M-1-1H13.503V12.761H-1Z"/>
</clipPath>
<clipPath id="clip_24">
<path transform="matrix(1,0,0,-1,41.948499,182.08002)" d="M-1-1H13.503V12.761H-1Z"/>
</clipPath>
</defs>
<g clip-path="url(#clip_0)">
<path transform="matrix(1,0,0,-1,-31.8,832.2)" stroke-width=".4" stroke-linecap="butt" stroke-linejoin="round" fill="none" stroke="#000000" d="M96 608V704H128V608H32V640H192V608H128"/>
<path transform="matrix(1,0,0,-1,-31.8,832.2)" stroke-width=".4" stroke-linecap="butt" stroke-linejoin="round" fill="none" stroke="#000000" d="M64 608V672H160V608"/>
<path transform="matrix(1,0,0,-1,-31.8,832.2)" stroke-width=".4" stroke-linecap="butt" stroke-linejoin="round" fill="none" stroke="#000000" d="M416 608V704H448V608H352V640H512V608H448"/>
<path transform="matrix(1,0,0,-1,-31.8,832.2)" stroke-width=".4" stroke-linecap="butt" stroke-linejoin="round" fill="none" stroke="#000000" d="M384 608V672H480V608"/>
<path transform="matrix(1,0,0,-1,-31.8,832.2)" stroke-width=".4" stroke-linecap="butt" stroke-linejoin="round" fill="none" stroke="#000000" d="M256 736V832H288V736H192V768H352V736H288"/>
<path transform="matrix(1,0,0,-1,-31.8,832.2)" stroke-width=".4" stroke-linecap="butt" stroke-linejoin="round" fill="none" stroke="#000000" d="M224 736V800H320V736"/>
<path transform="matrix(1,0,0,-1,-31.8,832.2)" stroke-width=".4" stroke-linecap="butt" stroke-linejoin="round" fill="none" stroke="#000000" d="M256 480V576H288V480H192V512H352V480H288"/>
<path transform="matrix(1,0,0,-1,-31.8,832.2)" stroke-width=".4" stroke-linecap="butt" stroke-linejoin="round" fill="none" stroke="#000000" d="M224 480V544H320V480"/>
<g clip-path="url(#clip_1)">
<text xml:space="preserve" transform="matrix(1 0 -0 1 296.30403 866.651)" font-size="17.2154" font-family="CMR17"><tspan y="-780.903" x="0 7.9018695">13</tspan></text>
</g>
<g clip-path="url(#clip_2)">
<text xml:space="preserve" transform="matrix(1 0 -0 1 236.253 834.651)" font-size="17.2154" font-family="CMR17"><tspan y="-780.903" x="0">1</tspan></text>
</g>
<g clip-path="url(#clip_3)">
<text xml:space="preserve" transform="matrix(1 0 -0 1 204.25299 834.651)" font-size="17.2154" font-family="CMR17"><tspan y="-780.903" x="0">8</tspan></text>
</g>
<g clip-path="url(#clip_4)">
<text xml:space="preserve" transform="matrix(1 0 -0 1 166.15599 864.97708)" font-size="17.2154" font-family="CMR17"><tspan y="-780.903" x="0 7.9018695 12.205719">2,9</tspan></text>
</g>
<g clip-path="url(#clip_5)">
<text xml:space="preserve" transform="matrix(1 0 -0 1 8.304501 994.651)" font-size="17.2154" font-family="CMR17"><tspan y="-780.903" x="0 7.9018695">13</tspan></text>
</g>
<g clip-path="url(#clip_6)">
<text xml:space="preserve" transform="matrix(1 0 -0 1 72.30501 994.651)" font-size="17.2154" font-family="CMR17"><tspan y="-780.903" x="0 7.9018695">10</tspan></text>
</g>
<g clip-path="url(#clip_7)">
<text xml:space="preserve" transform="matrix(1 0 -0 1 76.252 962.651)" font-size="17.2154" font-family="CMR17"><tspan y="-780.903" x="0">4</tspan></text>
</g>
<g clip-path="url(#clip_8)">
<text xml:space="preserve" transform="matrix(1 0 -0 1 98.20799 992.97708)" font-size="17.2154" font-family="CMR17"><tspan y="-780.903" x="0 7.9018695 12.205719 20.107588">6,12</tspan></text>
</g>
<g clip-path="url(#clip_9)">
<text xml:space="preserve" transform="matrix(1 0 -0 1 108.25299 962.651)" font-size="17.2154" font-family="CMR17"><tspan y="-780.903" x="0">7</tspan></text>
</g>
<g clip-path="url(#clip_10)">
<text xml:space="preserve" transform="matrix(1 0 -0 1 204.25299 1090.651)" font-size="17.2154" font-family="CMR17"><tspan y="-780.903" x="0">7</tspan></text>
</g>
<g clip-path="url(#clip_11)">
<text xml:space="preserve" transform="matrix(1 0 -0 1 236.253 1090.651)" font-size="17.2154" font-family="CMR17"><tspan y="-780.903" x="0">3</tspan></text>
</g>
<g clip-path="url(#clip_12)">
<text xml:space="preserve" transform="matrix(1 0 -0 1 386.208 992.97708)" font-size="17.2154" font-family="CMR17"><tspan y="-780.903" x="0 7.9018695 12.205719 20.107588">5,11</tspan></text>
</g>
<g clip-path="url(#clip_13)">
<text xml:space="preserve" transform="matrix(1 0 -0 1 428.25303 962.651)" font-size="17.2154" font-family="CMR17"><tspan y="-780.903" x="0">8</tspan></text>
</g>
<g clip-path="url(#clip_14)">
<text xml:space="preserve" transform="matrix(1 0 -0 1 454.156 992.97708)" font-size="17.2154" font-family="CMR17"><tspan y="-780.903" x="0 7.9018695 12.205719">2,9</tspan></text>
</g>
<g clip-path="url(#clip_15)">
<text xml:space="preserve" transform="matrix(1 0 -0 1 232.88301 802.31906)" font-size="17.2154" font-family="CMR17"><tspan y="-780.239" x="0">M</tspan></text>
</g>
<g clip-path="url(#clip_16)">
<text xml:space="preserve" transform="matrix(1 0 -0 1 170.232 1122.3191)" font-size="17.2154" font-family="CMR17"><tspan y="-780.239" x="0">V</tspan></text>
</g>
<g clip-path="url(#clip_17)">
<text xml:space="preserve" transform="matrix(1 0 -0 1 299.35304 1122.3191)" font-size="17.2154" font-family="CMR17"><tspan y="-780.239" x="0">Z</tspan></text>
</g>
<g clip-path="url(#clip_18)">
<text xml:space="preserve" transform="matrix(1 0 -0 1 331.35304 994.31906)" font-size="17.2154" font-family="CMR17"><tspan y="-780.239" x="0">Z</tspan></text>
</g>
<g clip-path="url(#clip_19)">
<text xml:space="preserve" transform="matrix(1 0 -0 1 138.232 994.31906)" font-size="17.2154" font-family="CMR17"><tspan y="-780.239" x="0">V</tspan></text>
</g>
<g clip-path="url(#clip_20)">
<text xml:space="preserve" transform="matrix(1 0 -0 1 72.882999 930.31906)" font-size="17.2154" font-family="CMR17"><tspan y="-780.239" x="0">M</tspan></text>
</g>
<g clip-path="url(#clip_21)">
<text xml:space="preserve" transform="matrix(1 0 -0 1 392.88304 930.31906)" font-size="17.2154" font-family="CMR17"><tspan y="-780.239" x="0">M</tspan></text>
</g>
<g clip-path="url(#clip_22)">
<text xml:space="preserve" transform="matrix(1 0 -0 1 232.88301 1058.3191)" font-size="17.2154" font-family="CMR17"><tspan y="-780.239" x="0">M</tspan></text>
</g>
<g clip-path="url(#clip_23)">
<text xml:space="preserve" transform="matrix(1 0 -0 1 265.948 834.31906)" font-size="17.2154" font-family="CMR17"><tspan y="-780.239" x="0">G</tspan></text>
</g>
<g clip-path="url(#clip_24)">
<text xml:space="preserve" transform="matrix(1 0 -0 1 41.948499 962.31906)" font-size="17.2154" font-family="CMR17"><tspan y="-780.239" x="0">G</tspan></text>
</g>
</g>
</svg>
