<?xml version="1.0" encoding="UTF-8" standalone="no"?>
<!-- Created with Inkscape (http://www.inkscape.org/) -->

<svg
   version="1.1"
   id="svg2"
   width="3000"
   height="2600"
   viewBox="0 0 3000 2600"
   sodipodi:docname="fazova-eaw.svg"
   inkscape:version="1.1.1 (3bf5ae0d25, 2021-09-20, custom)"
   xmlns:inkscape="http://www.inkscape.org/namespaces/inkscape"
   xmlns:sodipodi="http://sodipodi.sourceforge.net/DTD/sodipodi-0.dtd"
   xmlns="http://www.w3.org/2000/svg"
   xmlns:svg="http://www.w3.org/2000/svg">
  <defs
     id="defs6" />
  <sodipodi:namedview
     id="namedview4"
     pagecolor="#ffffff"
     bordercolor="#999999"
     borderopacity="1"
     inkscape:pageshadow="0"
     inkscape:pageopacity="0"
     inkscape:pagecheckerboard="0"
     showgrid="false"
     inkscape:zoom="0.1978053"
     inkscape:cx="1215.842"
     inkscape:cy="1402.8946"
     inkscape:window-width="1366"
     inkscape:window-height="726"
     inkscape:window-x="0"
     inkscape:window-y="0"
     inkscape:window-maximized="1"
     inkscape:current-layer="g8" />
  <g
     inkscape:groupmode="layer"
     inkscape:label="Image"
     id="g8">
    <path
       id="path1477"
       style="fill:none;stroke:#808080;stroke-width:2.62929;stroke-linecap:square;stroke-linejoin:bevel;paint-order:markers fill stroke"
       d="m 1746.0427,1592.1924 a 248.06691,248.06691 0 0 1 -248.0669,248.0669 248.06691,248.06691 0 0 1 -248.0669,-248.0669 248.06691,248.06691 0 0 1 248.0669,-248.0669 248.06691,248.06691 0 0 1 248.0669,248.0669 z" />
    <path
       id="path1477-6"
       style="fill:none;stroke:#808080;stroke-width:2.62929;stroke-linecap:square;stroke-linejoin:bevel;paint-order:markers fill stroke"
       d="M 556.88023,1622.1852 A 248.06691,248.06691 0 0 1 308.81332,1870.2521 248.06691,248.06691 0 0 1 60.746414,1622.1852 248.06691,248.06691 0 0 1 308.81332,1374.1183 248.06691,248.06691 0 0 1 556.88023,1622.1852 Z" />
    <g
       aria-label="&lt; 1/2"
       id="text3397"
       style="font-size:64px;line-height:1.25;font-family:'Minion Pro';-inkscape-font-specification:'Minion Pro';letter-spacing:0px;word-spacing:0px">
      <path
         d="m 265.39005,637.02173 v -3.584 l -23.872,-12.544 v -0.128 l 23.872,-12.608 v -3.584 l -27.648,14.72 v 3.008 z"
         id="path28890" />
      <path
         d="m 308.33389,637.02173 v -1.728 c -5.824,-0.448 -6.208,-0.96 -6.208,-5.568 v -33.344 c -3.52,1.408 -7.36,2.624 -11.392,3.328 v 1.536 l 3.072,0.128 c 2.816,0.128 3.072,0.448 3.072,3.712 v 24.64 c 0,4.608 -0.384,5.12 -6.144,5.568 v 1.728 z"
         id="path28892" />
      <path
         d="m 333.54986,594.46173 h -3.648 l -13.824,45.376 h 3.584 z"
         id="path28894" />
      <path
         d="m 362.02982,628.06173 c -1.92,4.032 -2.752,4.288 -6.208,4.288 h -11.904 l 9.024,-9.536 c 5.888,-6.272 8.448,-10.048 8.448,-15.616 0,-6.72 -5.12,-10.816 -10.752,-10.816 -3.648,0 -6.656,1.664 -8.64,3.776 l -3.648,5.184 1.408,1.28 c 1.664,-2.496 4.416,-5.952 8.768,-5.952 4.672,0 7.488,3.136 7.488,8.512 0,5.504 -4.032,10.752 -8,15.488 -3.136,3.712 -6.784,7.36 -10.304,10.88 v 1.472 h 23.872 c 0.768,-2.88 1.408,-5.696 2.24,-8.384 z"
         id="path28896" />
    </g>
    <g
       aria-label="&lt; 1/2"
       id="text3397-2"
       style="font-size:64px;line-height:1.25;font-family:'Minion Pro';-inkscape-font-specification:'Minion Pro';letter-spacing:0px;word-spacing:0px">
      <path
         d="m 864.99917,639.98358 v -3.584 l -23.872,-12.544 v -0.128 l 23.872,-12.608 v -3.584 l -27.648,14.72 v 3.008 z"
         id="path28881" />
      <path
         d="m 907.943,639.98358 v -1.728 c -5.824,-0.448 -6.208,-0.96 -6.208,-5.568 v -33.344 c -3.52,1.408 -7.36,2.624 -11.392,3.328 v 1.536 l 3.072,0.128 c 2.816,0.128 3.072,0.448 3.072,3.712 v 24.64 c 0,4.608 -0.384,5.12 -6.144,5.568 v 1.728 z"
         id="path28883" />
      <path
         d="m 933.15898,597.42358 h -3.648 l -13.824,45.376 h 3.584 z"
         id="path28885" />
      <path
         d="m 961.63894,631.02358 c -1.92,4.032 -2.752,4.288 -6.208,4.288 h -11.904 l 9.024,-9.536 c 5.888,-6.272 8.448,-10.048 8.448,-15.616 0,-6.72 -5.12,-10.816 -10.752,-10.816 -3.648,0 -6.656,1.664 -8.64,3.776 l -3.648,5.184 1.408,1.28 c 1.664,-2.496 4.416,-5.952 8.768,-5.952 4.672,0 7.488,3.136 7.488,8.512 0,5.504 -4.032,10.752 -8,15.488 -3.136,3.712 -6.784,7.36 -10.304,10.88 v 1.472 h 23.872 c 0.768,-2.88 1.408,-5.696 2.24,-8.384 z"
         id="path28887" />
    </g>
    <g
       aria-label="&gt; 1/2"
       id="text3397-5"
       style="font-size:64px;line-height:1.25;font-family:'Minion Pro';-inkscape-font-specification:'Minion Pro';letter-spacing:0px;word-spacing:0px">
      <path
         d="m 1464.6082,622.38999 v -3.008 l -27.648,-14.72 v 3.584 l 23.936,12.608 v 0.128 l -23.936,12.544 v 3.584 z"
         id="path28872" />
      <path
         d="m 1507.5521,637.10999 v -1.728 c -5.824,-0.448 -6.208,-0.96 -6.208,-5.568 v -33.344 c -3.52,1.408 -7.36,2.624 -11.392,3.328 v 1.536 l 3.072,0.128 c 2.816,0.128 3.072,0.448 3.072,3.712 v 24.64 c 0,4.608 -0.384,5.12 -6.144,5.568 v 1.728 z"
         id="path28874" />
      <path
         d="m 1532.768,594.54999 h -3.648 l -13.824,45.376 h 3.584 z"
         id="path28876" />
      <path
         d="m 1561.248,628.14999 c -1.92,4.032 -2.752,4.288 -6.208,4.288 h -11.904 l 9.024,-9.536 c 5.888,-6.272 8.448,-10.048 8.448,-15.616 0,-6.72 -5.12,-10.816 -10.752,-10.816 -3.648,0 -6.656,1.664 -8.64,3.776 l -3.648,5.184 1.408,1.28 c 1.664,-2.496 4.416,-5.952 8.768,-5.952 4.672,0 7.488,3.136 7.488,8.512 0,5.504 -4.032,10.752 -8,15.488 -3.136,3.712 -6.784,7.36 -10.304,10.88 v 1.472 h 23.872 c 0.768,-2.88 1.408,-5.696 2.24,-8.384 z"
         id="path28878" />
    </g>
    <g
       aria-label="&lt; 1/2"
       id="text3397-6"
       style="font-size:64px;line-height:1.25;font-family:'Minion Pro';-inkscape-font-specification:'Minion Pro';letter-spacing:0px;word-spacing:0px">
      <path
         d="m 2064.217,639.47559 v -3.584 l -23.872,-12.544 v -0.128 l 23.872,-12.608 v -3.584 l -27.648,14.72 v 3.008 z"
         id="path28863" />
      <path
         d="m 2107.1608,639.47559 v -1.728 c -5.824,-0.448 -6.208,-0.96 -6.208,-5.568 v -33.344 c -3.52,1.408 -7.36,2.624 -11.392,3.328 v 1.536 l 3.072,0.128 c 2.816,0.128 3.072,0.448 3.072,3.712 v 24.64 c 0,4.608 -0.384,5.12 -6.144,5.568 v 1.728 z"
         id="path28865" />
      <path
         d="m 2132.3768,596.91559 h -3.648 l -13.824,45.376 h 3.584 z"
         id="path28867" />
      <path
         d="m 2160.8568,630.51559 c -1.92,4.032 -2.752,4.288 -6.208,4.288 h -11.904 l 9.024,-9.536 c 5.888,-6.272 8.448,-10.048 8.448,-15.616 0,-6.72 -5.12,-10.816 -10.752,-10.816 -3.648,0 -6.656,1.664 -8.64,3.776 l -3.648,5.184 1.408,1.28 c 1.664,-2.496 4.416,-5.952 8.768,-5.952 4.672,0 7.488,3.136 7.488,8.512 0,5.504 -4.032,10.752 -8,15.488 -3.136,3.712 -6.784,7.36 -10.304,10.88 v 1.472 h 23.872 c 0.768,-2.88 1.408,-5.696 2.24,-8.384 z"
         id="path28869" />
    </g>
    <g
       aria-label="&gt; 1/2"
       id="text3397-8"
       style="font-size:64px;line-height:1.25;font-family:'Minion Pro';-inkscape-font-specification:'Minion Pro';letter-spacing:0px;word-spacing:0px">
      <path
         d="m 2663.8261,621.04038 v -3.008 l -27.648,-14.72 v 3.584 l 23.936,12.608 v 0.128 l -23.936,12.544 v 3.584 z"
         id="path28854" />
      <path
         d="m 2706.77,635.76038 v -1.728 c -5.824,-0.448 -6.208,-0.96 -6.208,-5.568 v -33.344 c -3.52,1.408 -7.36,2.624 -11.392,3.328 v 1.536 l 3.072,0.128 c 2.816,0.128 3.072,0.448 3.072,3.712 v 24.64 c 0,4.608 -0.384,5.12 -6.144,5.568 v 1.728 z"
         id="path28856" />
      <path
         d="m 2731.9859,593.20038 h -3.648 l -13.824,45.376 h 3.584 z"
         id="path28858" />
      <path
         d="m 2760.4659,626.80038 c -1.92,4.032 -2.752,4.288 -6.208,4.288 h -11.904 l 9.024,-9.536 c 5.888,-6.272 8.448,-10.048 8.448,-15.616 0,-6.72 -5.12,-10.816 -10.752,-10.816 -3.648,0 -6.656,1.664 -8.64,3.776 l -3.648,5.184 1.408,1.28 c 1.664,-2.496 4.416,-5.952 8.768,-5.952 4.672,0 7.488,3.136 7.488,8.512 0,5.504 -4.032,10.752 -8,15.488 -3.136,3.712 -6.784,7.36 -10.304,10.88 v 1.472 h 23.872 c 0.768,-2.88 1.408,-5.696 2.24,-8.384 z"
         id="path28860" />
    </g>
    <g
       aria-label="&lt; 1/2"
       id="text3397-5-9"
       style="font-size:64px;line-height:1.25;font-family:'Minion Pro';-inkscape-font-specification:'Minion Pro';letter-spacing:0px;word-spacing:0px">
      <path
         d="m 1164.8037,1284.3632 v -3.584 l -23.872,-12.544 v -0.128 l 23.872,-12.608 v -3.584 l -27.648,14.72 v 3.008 z"
         id="path28845" />
      <path
         d="m 1207.7475,1284.3632 v -1.728 c -5.824,-0.448 -6.208,-0.96 -6.208,-5.568 v -33.344 c -3.52,1.408 -7.36,2.624 -11.392,3.328 v 1.536 l 3.072,0.128 c 2.816,0.128 3.072,0.448 3.072,3.712 v 24.64 c 0,4.608 -0.384,5.12 -6.144,5.568 v 1.728 z"
         id="path28847" />
      <path
         d="m 1232.9635,1241.8032 h -3.648 l -13.824,45.376 h 3.584 z"
         id="path28849" />
      <path
         d="m 1261.4434,1275.4032 c -1.92,4.032 -2.752,4.288 -6.208,4.288 h -11.904 l 9.024,-9.536 c 5.888,-6.272 8.448,-10.048 8.448,-15.616 0,-6.72 -5.12,-10.816 -10.752,-10.816 -3.648,0 -6.656,1.664 -8.64,3.776 l -3.648,5.184 1.408,1.28 c 1.664,-2.496 4.416,-5.952 8.768,-5.952 4.672,0 7.488,3.136 7.488,8.512 0,5.504 -4.032,10.752 -8,15.488 -3.136,3.712 -6.784,7.36 -10.304,10.88 v 1.472 h 23.872 c 0.768,-2.88 1.408,-5.696 2.24,-8.384 z"
         id="path28851" />
    </g>
    <g
       aria-label="&lt; 1/2"
       id="text3397-6-5"
       style="font-size:64px;line-height:1.25;font-family:'Minion Pro';-inkscape-font-specification:'Minion Pro';letter-spacing:0px;word-spacing:0px">
      <path
         d="m 1764.4126,1286.7288 v -3.584 l -23.872,-12.544 v -0.128 l 23.872,-12.608 v -3.584 l -27.648,14.72 v 3.008 z"
         id="path28836" />
      <path
         d="m 1807.3564,1286.7288 v -1.728 c -5.824,-0.448 -6.208,-0.96 -6.208,-5.568 v -33.344 c -3.52,1.408 -7.36,2.624 -11.392,3.328 v 1.536 l 3.072,0.128 c 2.816,0.128 3.072,0.448 3.072,3.712 v 24.64 c 0,4.608 -0.384,5.12 -6.144,5.568 v 1.728 z"
         id="path28838" />
      <path
         d="m 1832.5724,1244.1688 h -3.648 l -13.824,45.376 h 3.584 z"
         id="path28840" />
      <path
         d="m 1861.0523,1277.7688 c -1.92,4.032 -2.752,4.288 -6.208,4.288 h -11.904 l 9.024,-9.536 c 5.888,-6.272 8.448,-10.048 8.448,-15.616 0,-6.72 -5.12,-10.816 -10.752,-10.816 -3.648,0 -6.656,1.664 -8.64,3.776 l -3.648,5.184 1.408,1.28 c 1.664,-2.496 4.416,-5.952 8.768,-5.952 4.672,0 7.488,3.136 7.488,8.512 0,5.504 -4.032,10.752 -8,15.488 -3.136,3.712 -6.784,7.36 -10.304,10.88 v 1.472 h 23.872 c 0.768,-2.88 1.408,-5.696 2.24,-8.384 z"
         id="path28842" />
    </g>
    <g
       aria-label="&gt; 1/2"
       id="text3397-60"
       style="font-size:64px;line-height:1.25;font-family:'Minion Pro';-inkscape-font-specification:'Minion Pro';letter-spacing:0px;word-spacing:0px">
      <path
         d="m 265.39008,1918.0022 v -3.008 l -27.648,-14.72 v 3.584 l 23.936,12.608 v 0.128 l -23.936,12.544 v 3.584 z"
         id="path28827" />
      <path
         d="m 308.33392,1932.7222 v -1.728 c -5.824,-0.448 -6.208,-0.96 -6.208,-5.568 v -33.344 c -3.52,1.408 -7.36,2.624 -11.392,3.328 v 1.536 l 3.072,0.128 c 2.816,0.128 3.072,0.448 3.072,3.712 v 24.64 c 0,4.608 -0.384,5.12 -6.144,5.568 v 1.728 z"
         id="path28829" />
      <path
         d="m 333.54989,1890.1622 h -3.648 l -13.824,45.376 h 3.584 z"
         id="path28831" />
      <path
         d="m 362.02985,1923.7622 c -1.92,4.032 -2.752,4.288 -6.208,4.288 h -11.904 l 9.024,-9.536 c 5.888,-6.272 8.448,-10.048 8.448,-15.616 0,-6.72 -5.12,-10.816 -10.752,-10.816 -3.648,0 -6.656,1.664 -8.64,3.776 l -3.648,5.184 1.408,1.28 c 1.664,-2.496 4.416,-5.952 8.768,-5.952 4.672,0 7.488,3.136 7.488,8.512 0,5.504 -4.032,10.752 -8,15.488 -3.136,3.712 -6.784,7.36 -10.304,10.88 v 1.472 h 23.872 c 0.768,-2.88 1.408,-5.696 2.24,-8.384 z"
         id="path28833" />
    </g>
    <g
       aria-label="&lt; 1/2"
       id="text3397-2-1"
       style="font-size:64px;line-height:1.25;font-family:'Minion Pro';-inkscape-font-specification:'Minion Pro';letter-spacing:0px;word-spacing:0px">
      <path
         d="m 864.99911,1935.6841 v -3.584 l -23.872,-12.544 v -0.128 l 23.872,-12.608 v -3.584 l -27.648,14.72 v 3.008 z"
         id="path28818" />
      <path
         d="m 907.94294,1935.6841 v -1.728 c -5.824,-0.448 -6.208,-0.96 -6.208,-5.568 v -33.344 c -3.52,1.408 -7.36,2.624 -11.392,3.328 v 1.536 l 3.072,0.128 c 2.816,0.128 3.072,0.448 3.072,3.712 v 24.64 c 0,4.608 -0.384,5.12 -6.144,5.568 v 1.728 z"
         id="path28820" />
      <path
         d="m 933.15891,1893.1241 h -3.648 l -13.824,45.376 h 3.584 z"
         id="path28822" />
      <path
         d="m 961.63887,1926.7241 c -1.92,4.032 -2.752,4.288 -6.208,4.288 h -11.904 l 9.024,-9.536 c 5.888,-6.272 8.448,-10.048 8.448,-15.616 0,-6.72 -5.12,-10.816 -10.752,-10.816 -3.648,0 -6.656,1.664 -8.64,3.776 l -3.648,5.184 1.408,1.28 c 1.664,-2.496 4.416,-5.952 8.768,-5.952 4.672,0 7.488,3.136 7.488,8.512 0,5.504 -4.032,10.752 -8,15.488 -3.136,3.712 -6.784,7.36 -10.304,10.88 v 1.472 h 23.872 c 0.768,-2.88 1.408,-5.696 2.24,-8.384 z"
         id="path28824" />
    </g>
    <g
       aria-label="&lt; 1/2"
       id="text3397-5-4"
       style="font-size:64px;line-height:1.25;font-family:'Minion Pro';-inkscape-font-specification:'Minion Pro';letter-spacing:0px;word-spacing:0px">
      <path
         d="m 1464.6081,1932.8104 v -3.584 l -23.872,-12.544 v -0.128 l 23.872,-12.608 v -3.584 l -27.648,14.72 v 3.008 z"
         id="path28809" />
      <path
         d="m 1507.552,1932.8104 v -1.728 c -5.824,-0.448 -6.208,-0.96 -6.208,-5.568 v -33.344 c -3.52,1.408 -7.36,2.624 -11.392,3.328 v 1.536 l 3.072,0.128 c 2.816,0.128 3.072,0.448 3.072,3.712 v 24.64 c 0,4.608 -0.384,5.12 -6.144,5.568 v 1.728 z"
         id="path28811" />
      <path
         d="m 1532.7679,1890.2504 h -3.648 l -13.824,45.376 h 3.584 z"
         id="path28813" />
      <path
         d="m 1561.2479,1923.8504 c -1.92,4.032 -2.752,4.288 -6.208,4.288 h -11.904 l 9.024,-9.536 c 5.888,-6.272 8.448,-10.048 8.448,-15.616 0,-6.72 -5.12,-10.816 -10.752,-10.816 -3.648,0 -6.656,1.664 -8.64,3.776 l -3.648,5.184 1.408,1.28 c 1.664,-2.496 4.416,-5.952 8.768,-5.952 4.672,0 7.488,3.136 7.488,8.512 0,5.504 -4.032,10.752 -8,15.488 -3.136,3.712 -6.784,7.36 -10.304,10.88 v 1.472 h 23.872 c 0.768,-2.88 1.408,-5.696 2.24,-8.384 z"
         id="path28815" />
    </g>
    <g
       aria-label="&gt; 1/2"
       id="text3397-6-7"
       style="font-size:64px;line-height:1.25;font-family:'Minion Pro';-inkscape-font-specification:'Minion Pro';letter-spacing:0px;word-spacing:0px">
      <path
         d="m 2064.217,1920.456 v -3.008 l -27.648,-14.72 v 3.584 l 23.936,12.608 v 0.128 l -23.936,12.544 v 3.584 z"
         id="path28800" />
      <path
         d="m 2107.1608,1935.176 v -1.728 c -5.824,-0.448 -6.208,-0.96 -6.208,-5.568 v -33.344 c -3.52,1.408 -7.36,2.624 -11.392,3.328 v 1.536 l 3.072,0.128 c 2.816,0.128 3.072,0.448 3.072,3.712 v 24.64 c 0,4.608 -0.384,5.12 -6.144,5.568 v 1.728 z"
         id="path28802" />
      <path
         d="m 2132.3768,1892.616 h -3.648 l -13.824,45.376 h 3.584 z"
         id="path28804" />
      <path
         d="m 2160.8568,1926.216 c -1.92,4.032 -2.752,4.288 -6.208,4.288 h -11.904 l 9.024,-9.536 c 5.888,-6.272 8.448,-10.048 8.448,-15.616 0,-6.72 -5.12,-10.816 -10.752,-10.816 -3.648,0 -6.656,1.664 -8.64,3.776 l -3.648,5.184 1.408,1.28 c 1.664,-2.496 4.416,-5.952 8.768,-5.952 4.672,0 7.488,3.136 7.488,8.512 0,5.504 -4.032,10.752 -8,15.488 -3.136,3.712 -6.784,7.36 -10.304,10.88 v 1.472 h 23.872 c 0.768,-2.88 1.408,-5.696 2.24,-8.384 z"
         id="path28806" />
    </g>
    <g
       aria-label="&lt; 1/2"
       id="text3397-8-8"
       style="font-size:64px;line-height:1.25;font-family:'Minion Pro';-inkscape-font-specification:'Minion Pro';letter-spacing:0px;word-spacing:0px">
      <path
         d="m 2663.8261,1931.4608 v -3.584 l -23.872,-12.544 v -0.128 l 23.872,-12.608 v -3.584 l -27.648,14.72 v 3.008 z"
         id="path28791" />
      <path
         d="m 2706.77,1931.4608 v -1.728 c -5.824,-0.448 -6.208,-0.96 -6.208,-5.568 v -33.344 c -3.52,1.408 -7.36,2.624 -11.392,3.328 v 1.536 l 3.072,0.128 c 2.816,0.128 3.072,0.448 3.072,3.712 v 24.64 c 0,4.608 -0.384,5.12 -6.144,5.568 v 1.728 z"
         id="path28793" />
      <path
         d="m 2731.9859,1888.9008 h -3.648 l -13.824,45.376 h 3.584 z"
         id="path28795" />
      <path
         d="m 2760.4659,1922.5008 c -1.92,4.032 -2.752,4.288 -6.208,4.288 h -11.904 l 9.024,-9.536 c 5.888,-6.272 8.448,-10.048 8.448,-15.616 0,-6.72 -5.12,-10.816 -10.752,-10.816 -3.648,0 -6.656,1.664 -8.64,3.776 l -3.648,5.184 1.408,1.28 c 1.664,-2.496 4.416,-5.952 8.768,-5.952 4.672,0 7.488,3.136 7.488,8.512 0,5.504 -4.032,10.752 -8,15.488 -3.136,3.712 -6.784,7.36 -10.304,10.88 v 1.472 h 23.872 c 0.768,-2.88 1.408,-5.696 2.24,-8.384 z"
         id="path28797" />
    </g>
    <g
       aria-label="&gt; 1/2"
       id="text3397-2-3"
       style="font-size:64px;line-height:1.25;font-family:'Minion Pro';-inkscape-font-specification:'Minion Pro';letter-spacing:0px;word-spacing:0px">
      <path
         d="m 864.99923,2571.063 v -3.008 l -27.648,-14.72 v 3.584 l 23.936,12.608 v 0.128 l -23.936,12.544 v 3.584 z"
         id="path28782" />
      <path
         d="m 907.94307,2585.783 v -1.728 c -5.824,-0.448 -6.208,-0.96 -6.208,-5.568 v -33.344 c -3.52,1.408 -7.36,2.624 -11.392,3.328 v 1.536 l 3.072,0.128 c 2.816,0.128 3.072,0.448 3.072,3.712 v 24.64 c 0,4.608 -0.384,5.12 -6.144,5.568 v 1.728 z"
         id="path28784" />
      <path
         d="m 933.15904,2543.223 h -3.648 l -13.824,45.376 h 3.584 z"
         id="path28786" />
      <path
         d="m 961.639,2576.823 c -1.92,4.032 -2.752,4.288 -6.208,4.288 h -11.904 l 9.024,-9.536 c 5.888,-6.272 8.448,-10.048 8.448,-15.616 0,-6.72 -5.12,-10.816 -10.752,-10.816 -3.648,0 -6.656,1.664 -8.64,3.776 l -3.648,5.184 1.408,1.28 c 1.664,-2.496 4.416,-5.952 8.768,-5.952 4.672,0 7.488,3.136 7.488,8.512 0,5.504 -4.032,10.752 -8,15.488 -3.136,3.712 -6.784,7.36 -10.304,10.88 v 1.472 h 23.872 c 0.768,-2.88 1.408,-5.696 2.24,-8.384 z"
         id="path28788" />
    </g>
    <g
       aria-label="&lt; 1/2"
       id="text3397-5-2"
       style="font-size:64px;line-height:1.25;font-family:'Minion Pro';-inkscape-font-specification:'Minion Pro';letter-spacing:0px;word-spacing:0px">
      <path
         d="m 1464.6084,2582.9094 v -3.584 l -23.872,-12.544 v -0.128 l 23.872,-12.608 v -3.584 l -27.648,14.72 v 3.008 z"
         id="path28773" />
      <path
         d="m 1507.5522,2582.9094 v -1.728 c -5.824,-0.448 -6.208,-0.96 -6.208,-5.568 v -33.344 c -3.52,1.408 -7.36,2.624 -11.392,3.328 v 1.536 l 3.072,0.128 c 2.816,0.128 3.072,0.448 3.072,3.712 v 24.64 c 0,4.608 -0.384,5.12 -6.144,5.568 v 1.728 z"
         id="path28775" />
      <path
         d="m 1532.7682,2540.3494 h -3.648 l -13.824,45.376 h 3.584 z"
         id="path28777" />
      <path
         d="m 1561.2481,2573.9494 c -1.92,4.032 -2.752,4.288 -6.208,4.288 h -11.904 l 9.024,-9.536 c 5.888,-6.272 8.448,-10.048 8.448,-15.616 0,-6.72 -5.12,-10.816 -10.752,-10.816 -3.648,0 -6.656,1.664 -8.64,3.776 l -3.648,5.184 1.408,1.28 c 1.664,-2.496 4.416,-5.952 8.768,-5.952 4.672,0 7.488,3.136 7.488,8.512 0,5.504 -4.032,10.752 -8,15.488 -3.136,3.712 -6.784,7.36 -10.304,10.88 v 1.472 h 23.872 c 0.768,-2.88 1.408,-5.696 2.24,-8.384 z"
         id="path28779" />
    </g>
    <g
       aria-label="&lt; 1/2"
       id="text3397-6-0"
       style="font-size:64px;line-height:1.25;font-family:'Minion Pro';-inkscape-font-specification:'Minion Pro';letter-spacing:0px;word-spacing:0px">
      <path
         d="m 2064.217,2585.2749 v -3.584 l -23.872,-12.544 v -0.128 l 23.872,-12.608 v -3.584 l -27.648,14.72 v 3.008 z"
         id="path28764" />
      <path
         d="m 2107.1608,2585.2749 v -1.728 c -5.824,-0.448 -6.208,-0.96 -6.208,-5.568 v -33.344 c -3.52,1.408 -7.36,2.624 -11.392,3.328 v 1.536 l 3.072,0.128 c 2.816,0.128 3.072,0.448 3.072,3.712 v 24.64 c 0,4.608 -0.384,5.12 -6.144,5.568 v 1.728 z"
         id="path28766" />
      <path
         d="m 2132.3768,2542.7149 h -3.648 l -13.824,45.376 h 3.584 z"
         id="path28768" />
      <path
         d="m 2160.8568,2576.3149 c -1.92,4.032 -2.752,4.288 -6.208,4.288 h -11.904 l 9.024,-9.536 c 5.888,-6.272 8.448,-10.048 8.448,-15.616 0,-6.72 -5.12,-10.816 -10.752,-10.816 -3.648,0 -6.656,1.664 -8.64,3.776 l -3.648,5.184 1.408,1.28 c 1.664,-2.496 4.416,-5.952 8.768,-5.952 4.672,0 7.488,3.136 7.488,8.512 0,5.504 -4.032,10.752 -8,15.488 -3.136,3.712 -6.784,7.36 -10.304,10.88 v 1.472 h 23.872 c 0.768,-2.88 1.408,-5.696 2.24,-8.384 z"
         id="path28770" />
    </g>
    <path
       id="path1477-9"
       style="fill:#cfc256;stroke:#4d4d4d;stroke-width:2.62929;stroke-linecap:square;stroke-linejoin:bevel;paint-order:markers fill stroke"
       d="M 548.83351,306.14651 A 248.06691,248.06691 0 0 1 300.7666,554.21342 248.06691,248.06691 0 0 1 52.699692,306.14651 248.06691,248.06691 0 0 1 300.7666,58.079605 248.06691,248.06691 0 0 1 548.83351,306.14651 Z" />
    <path
       id="path1477-4"
       style="fill:#cfc256;stroke:#4d4d4d;stroke-width:2.62929;stroke-linecap:square;stroke-linejoin:bevel;paint-order:markers fill stroke"
       d="M 1147.218,301.08527 A 248.06691,248.06691 0 0 1 899.15112,549.15218 248.06691,248.06691 0 0 1 651.08421,301.08527 248.06691,248.06691 0 0 1 899.15112,53.018356 248.06691,248.06691 0 0 1 1147.218,301.08527 Z" />
    <path
       id="path1477-5"
       style="fill:#cfc256;stroke:#4d4d4d;stroke-width:2.62929;stroke-linecap:square;stroke-linejoin:bevel;paint-order:markers fill stroke"
       d="M 1746.5383,306.14651 A 248.06691,248.06691 0 0 1 1498.4714,554.21342 248.06691,248.06691 0 0 1 1250.4045,306.14651 248.06691,248.06691 0 0 1 1498.4714,58.079605 248.06691,248.06691 0 0 1 1746.5383,306.14651 Z" />
    <path
       id="path1477-5-3"
       style="fill:#cfc256;stroke:#4d4d4d;stroke-width:2.62929;stroke-linecap:square;stroke-linejoin:bevel;paint-order:markers fill stroke"
       d="M 2049.5255,953.62567 A 248.06691,248.06691 0 0 1 1801.4586,1201.6926 248.06691,248.06691 0 0 1 1553.3917,953.62567 248.06691,248.06691 0 0 1 1801.4586,705.55876 248.06691,248.06691 0 0 1 2049.5255,953.62567 Z" />
    <path
       id="path1477-57"
       style="fill:#cfc256;stroke:#4d4d4d;stroke-width:2.629;stroke-linecap:square;stroke-linejoin:bevel;paint-order:markers fill stroke;stroke-miterlimit:4;stroke-dasharray:none;fill-opacity:1"
       d="M 2741.2949 57.064453 A 677.72064 675.28131 0 0 1 2787.1738 301.14258 A 677.72064 675.28131 0 0 1 2740.4922 546.08008 A 248.06691 248.06691 0 0 0 2951.7969 302.1543 A 248.06691 248.06691 0 0 0 2741.2949 57.064453 z " />
    <path
       id="path1477-57-9"
       style="fill:#cfc256;fill-opacity:1;stroke:#4d4d4d;stroke-width:2.629;stroke-linecap:square;stroke-linejoin:bevel;stroke-miterlimit:4;stroke-dasharray:none;paint-order:markers fill stroke"
       d="m 2732.5527,1360.4292 a 677.72064,675.28131 0 0 1 45.8789,244.0781 677.72064,675.28131 0 0 1 -46.6816,244.9375 248.06691,248.06691 0 0 0 211.3047,-243.9258 248.06691,248.06691 0 0 0 -210.502,-245.0898 z" />
    <path
       id="path1477-57-7"
       style="fill:#cfc256;fill-opacity:1;stroke:#4d4d4d;stroke-width:2.629;stroke-linecap:square;stroke-linejoin:bevel;stroke-miterlimit:4;stroke-dasharray:none;paint-order:markers fill stroke"
       d="m 2138.5527,1354.4292 a 677.72064,675.28131 0 0 1 45.8789,244.0781 677.72064,675.28131 0 0 1 -46.6816,244.9375 248.06691,248.06691 0 0 0 211.3047,-243.9258 248.06691,248.06691 0 0 0 -210.502,-245.0898 z" />
    <path
       id="path1477-57-82"
       style="fill:#cfc256;fill-opacity:1;stroke:#4d4d4d;stroke-width:2.629;stroke-linecap:square;stroke-linejoin:bevel;stroke-miterlimit:4;stroke-dasharray:none;paint-order:markers fill stroke"
       d="m 932.55275,1360.4292 a 677.72064,675.28131 0 0 1 45.8789,244.0781 677.72064,675.28131 0 0 1 -46.6816,244.9375 248.06691,248.06691 0 0 0 211.30465,-243.9258 248.06691,248.06691 0 0 0 -210.50195,-245.0898 z" />
    <path
       id="path1477-57-5"
       style="fill:#cfc256;fill-opacity:1;stroke:#4d4d4d;stroke-width:2.629;stroke-linecap:square;stroke-linejoin:bevel;stroke-miterlimit:4;stroke-dasharray:none;paint-order:markers fill stroke"
       d="m 932.55275,2010.4292 a 677.72064,675.28131 0 0 1 45.8789,244.0781 677.72064,675.28131 0 0 1 -46.6816,244.9375 248.06691,248.06691 0 0 0 211.30475,-243.9258 248.06691,248.06691 0 0 0 -210.50205,-245.0898 z" />
    <path
       id="path1477-57-8"
       style="fill:#cfc256;fill-opacity:1;stroke:#4d4d4d;stroke-width:2.629;stroke-linecap:square;stroke-linejoin:bevel;stroke-miterlimit:4;stroke-dasharray:none;paint-order:markers fill stroke"
       d="m 2058.5,55.5 a 677.72064,675.28131 0 0 0 -45.8789,244.07813 677.72064,675.28131 0 0 0 46.6816,244.9375 A 248.06691,248.06691 0 0 1 1847.998,300.58985 248.06691,248.06691 0 0 1 2058.5,55.5 Z" />
    <path
       id="path1477-57-8-1"
       style="fill:#cfc256;fill-opacity:1;stroke:#4d4d4d;stroke-width:2.629;stroke-linecap:square;stroke-linejoin:bevel;stroke-miterlimit:4;stroke-dasharray:none;paint-order:markers fill stroke"
       d="m 1158.5,705.5 a 677.72064,675.28131 0 0 0 -45.8789,244.07813 677.72064,675.28131 0 0 0 46.6816,244.93747 A 248.06691,248.06691 0 0 1 947.99804,950.58985 248.06691,248.06691 0 0 1 1158.5,705.5 Z" />
    <path
       id="path1477-57-8-9"
       style="fill:#cfc256;fill-opacity:1;stroke:#4d4d4d;stroke-width:2.629;stroke-linecap:square;stroke-linejoin:bevel;stroke-miterlimit:4;stroke-dasharray:none;paint-order:markers fill stroke"
       d="m 1458.5,2005.5 a 677.72064,675.28131 0 0 0 -45.8789,244.0781 677.72064,675.28131 0 0 0 46.6816,244.9375 A 248.06691,248.06691 0 0 1 1247.998,2250.5899 248.06691,248.06691 0 0 1 1458.5,2005.5 Z" />
    <path
       style="fill:#1615e4"
       d="m 2838.7265,174.86408 c -2.3658,-1.32395 -4.7078,-6.21779 -9.7456,-20.36408 -5.5977,-15.71835 -12.8607,-30.76495 -18.6395,-38.61493 -7.3173,-9.93982 -22.7238,-25.290024 -36.1643,-36.032216 -6.7803,-5.41907 -12.6303,-9.866283 -13,-9.882696 -0.3697,-0.01641 -2.6972,-1.850136 -5.1722,-4.074941 -4.1133,-3.697522 -4.2669,-3.994856 -1.7868,-3.460355 8.2721,1.782825 27.1651,15.685249 46.1267,33.942238 3.2119,3.092595 6.0295,5.6229 6.2611,5.6229 0.2317,0 -1.8714,-3.15219 -4.6736,-7.004867 -5.4554,-7.500435 -19.6465,-21.104363 -27.6089,-26.466612 -2.6748,-1.801304 -5.5282,-4.083012 -6.3409,-5.070464 -1.3814,-1.678439 -1.2625,-1.752763 1.8249,-1.141217 5.2403,1.037995 16.9747,9.159209 26.0437,18.024446 9.57,9.354959 12.9186,13.550357 26.387,33.059844 27.6078,39.99099 34.7609,52.09954 34.7647,58.84887 0,2.0625 -0.3695,3.75 -0.8236,3.75 -1.4184,0 -4.8924,-4.30819 -7.2573,-9 -6.5784,-13.05088 -19.6956,-34.55474 -20.5544,-33.69596 -0.255,0.25502 1.3935,4.90344 3.6633,10.32982 4.6287,11.06577 9.9741,26.88446 9.9741,29.51659 0,2.29752 -1.1556,2.90158 -3.2784,1.71363 z"
       id="path27896" />
    <path
       style="fill:#1615e4"
       d="m 1872.2,266.8 c -2.9614,-2.96141 -0.811,-15.53446 6.6361,-38.8 4.9955,-15.6064 6.0294,-19.67325 8.2623,-32.5 1.5826,-9.09132 6.4699,-28.53378 8.2262,-32.72497 1.4907,-3.55741 6.3613,-9.77503 7.6573,-9.77503 2.098,0 1.5977,3.96003 -2.1089,16.6921 -2.2109,7.59434 -5.525,20.5579 -7.3646,28.8079 -1.8397,8.25 -4.0314,17.25 -4.8705,20 -4.5839,15.0226 -9.6705,34.28977 -10.2489,38.82092 -0.6718,5.26389 -2.809,10.67908 -4.2147,10.67908 -0.4259,0 -1.3143,-0.54 -1.9743,-1.2 z"
       id="path27882" />
    <path
       style="fill:#1615e4"
       d="m 1987.1254,282.65105 c -1.2868,-1.5504 -1.6981,-29.15213 -0.6506,-43.65105 0.3775,-5.225 1.5694,-12.875 2.6487,-17 1.9523,-7.46137 7.5876,-23.59228 8.9084,-25.5 0.3808,-0.55 0.9921,-2.25398 1.3585,-3.78663 C 2001.2497,184.93528 2010.0788,169 2012.529,169 c 3.2568,0 1.879,8.04155 -3.0641,17.88292 -1.3557,2.69914 -2.4649,5.20437 -2.4649,5.56717 0,0.76679 -3.6185,9.23715 -5.0351,11.78634 -0.5307,0.95504 -0.9649,2.23703 -0.9649,2.84887 0,0.61184 -0.6294,2.53045 -1.3987,4.26357 -1.687,3.80052 -4.1125,11.68218 -5.2781,17.15113 -0.4689,2.2 -1.0054,14.125 -1.1923,26.5 -0.2519,16.68873 -0.6982,23.19389 -1.7281,25.18659 -1.7901,3.46352 -2.9119,4.10984 -4.2774,2.46446 z"
       id="path27878" />
    <path
       style="fill:#1615e4"
       d="m 2860.6641,291.86553 c -1.6896,-2.60639 -1.8913,-6.57668 -1.7205,-33.86553 0.1282,-20.47437 -1.0579,-27.44606 -7.3414,-43.15253 -1.4312,-3.57742 -2.6022,-6.99512 -2.6022,-7.59489 0,-0.59978 -0.6466,-2.36447 -1.4368,-3.92154 -8.0145,-15.79091 -9.5596,-30.92478 -2.2071,-21.61697 1.9714,2.49569 10.6359,23.47068 10.6501,25.78172 0,0.55232 0.5804,2.12921 1.2824,3.50421 0.7019,1.375 1.8962,4.4125 2.6539,6.75 0.7577,2.3375 1.6743,4.25 2.0368,4.25 0.8742,0 -0.5862,-12.83378 -2.3895,-21 -3.3573,-15.20268 -3.9952,-19.99463 -2.8184,-21.17142 0.8584,-0.85842 1.5692,-0.7926 2.8487,0.2638 4.3384,3.58193 7.101,15.04266 9.8607,40.90762 0.9096,8.525 3.0127,20.9 4.6736,27.5 3.5851,14.24599 5.763,25.67986 6.5237,34.24793 0.4348,4.89849 0.1842,6.81329 -1.1605,8.86554 -1.5348,2.34247 -1.8749,2.45778 -3.2356,1.09705 -0.8363,-0.8363 -1.9001,-4.37579 -2.364,-7.86553 -2.1227,-15.96985 -3.9561,-26.48739 -4.8951,-28.08142 -0.5626,-0.95504 -1.0229,-2.64254 -1.0229,-3.75 0,-1.10746 -0.4238,-2.01357 -0.9417,-2.01357 -0.5472,0 -1.0709,8.36431 -1.25,19.96658 -0.2618,16.95496 -0.5574,20.21529 -1.9595,21.61553 -1.5343,1.53211 -1.76,1.48133 -3.1847,-0.71658 z"
       id="path27874" />
    <path
       style="fill:#1615e4"
       d="m 1884.2225,348.25 c -1.9675,-4.4037 -2.1259,-24.07091 -0.308,-38.23854 0.7018,-5.46964 0.8642,-18.09504 0.4564,-35.5 -0.4434,-18.92931 -0.2922,-28.24826 0.5053,-31.14497 1.2695,-4.61049 3.6489,-7.24135 5.1719,-5.71835 2.1043,2.10427 0.9674,108.44813 -1.2037,112.60186 -1.4103,2.69794 -2.7896,2.10106 -4.6219,-2 z"
       id="path27856" />
    <path
       style="fill:#1615e4"
       d="m 2001.9954,348.48917 c -1.0635,-2.48096 -2.5975,-8.89346 -3.4088,-14.25 -0.8114,-5.35654 -2.0043,-11.98917 -2.6508,-14.73917 -1.5937,-6.77833 -1.7726,-36.8642 -0.2498,-42 0.6523,-2.2 1.8491,-8.05 2.6595,-13 2.6585,-16.23804 4.3099,-22.59982 6.4121,-24.70201 3.4893,-3.48929 4.5743,-1.47105 3.9677,7.37998 -0.2977,4.3424 -0.973,8.4413 -1.5008,9.10865 -0.5278,0.66736 -1.5076,5.03838 -2.1772,9.71338 -0.6696,4.675 -1.8237,10.525 -2.5646,13 -0.7409,2.475 -1.6271,7.2 -1.9693,10.5 -0.658,6.34658 1.6376,29.36301 3.3458,33.54633 0.5511,1.34952 1.7498,7.69307 2.6638,14.09679 1.2641,8.85681 1.3919,12.14731 0.5342,13.75 -1.6937,3.1647 -2.9256,2.57963 -5.0618,-2.40395 z"
       id="path27854" />
    <path
       style="fill:#1615e4"
       d="m 1979.2958,366.80019 c -2.7591,-3.47479 -6.1725,-15.48526 -7.9008,-27.80019 -0.3473,-2.475 -1.4783,-8.22993 -2.5132,-12.78873 -1.035,-4.55879 -1.8515,-11.53379 -1.8145,-15.5 0.071,-7.54897 2.1357,-27.30459 3.8377,-36.71127 0.5473,-3.025 1.3955,-7.83142 1.8848,-10.68094 0.986,-5.74163 3.6949,-10.66358 5.5239,-10.03658 1.6298,0.55869 1.4728,19.12728 -0.2005,23.71752 -3.1038,8.51429 -5.3746,40.77455 -3.1612,44.91033 0.5236,0.97836 1.7024,6.23628 2.6195,11.68425 0.9171,5.44798 2.0201,10.35542 2.4512,10.90542 0.4311,0.55 1.3375,5.4238 2.0142,10.83066 1.0582,8.4549 1.0247,10.03631 -0.2392,11.30019 -1.1959,1.19591 -1.6617,1.22744 -2.5019,0.16934 z"
       id="path27852" />
    <path
       style="fill:#1615e4"
       d="m 2843.4005,411.45941 c -0.7035,-2.80297 1.1017,-10.71371 3.2345,-14.17423 0.7507,-1.21815 1.3665,-2.79315 1.3684,-3.5 0,-0.70685 1.3519,-4.59431 3,-8.63879 1.6481,-4.04449 2.9966,-8.02648 2.9966,-8.84887 0,-0.8224 0.612,-2.91327 1.36,-4.64639 4.7873,-11.09227 5.5797,-21.58745 4.0888,-54.15113 -0.6082,-13.28302 0.2,-18.5 2.8659,-18.5 2.8979,0 3.8953,5.44912 4.4385,24.25 0.2979,10.3125 0.9254,18.75 1.3943,18.75 0.4689,0 0.8685,-0.1125 0.888,-0.25 0.019,-0.1375 0.7104,-4.3 1.5354,-9.25 0.825,-4.95 2.1153,-13.725 2.8674,-19.5 1.5378,-11.80795 2.185,-14 4.1335,-14 3.6272,0 4.6027,11.9356 1.9499,23.85692 -0.813,3.65369 -2.1462,10.01808 -2.9626,14.14308 -0.8165,4.125 -2.1368,10.65 -2.9341,14.5 -0.7973,3.85 -1.7264,11.275 -2.0647,16.5 -0.9665,14.9284 -3.4751,33.12006 -5.1712,37.5 -1.7351,4.48052 -5.2328,8.71462 -6.5345,7.91016 -1.3776,-0.85145 -0.9958,-6.54682 1.1786,-17.57865 2.4391,-12.37456 3.6739,-25.78924 2.2398,-24.33151 -0.5411,0.55 -2.8641,6.78722 -5.1622,13.86048 -8.0888,24.89615 -12.8791,33.39505 -14.7103,26.09893 z"
       id="path27850" />
    <path
       style="fill:#1615e4"
       d="m 1891.6263,429.81075 c -4.3717,-2.44651 -8.1049,-16.47262 -12.0602,-45.31075 -0.8297,-6.05 -3.1497,-17.3 -5.1555,-25 -2.0058,-7.7 -4.2461,-17.03708 -4.9785,-20.74907 -0.7324,-3.71199 -1.7906,-7.53699 -2.3515,-8.5 -1.1767,-2.02034 -1.3792,0.65889 -1.115,14.74907 0.1108,5.90751 -0.2649,9.07209 -1.2316,10.37573 -1.3356,1.80093 -1.4746,1.76947 -3.4871,-0.78898 -3.701,-4.7051 -4.094,-21.26741 -1.1123,-46.88053 0.7403,-6.35855 0.696,-11.31529 -0.1597,-17.89906 -0.6508,-5.0079 -1.2205,-16.1257 -1.2659,-24.70622 -0.067,-12.6738 0.2365,-16.30454 1.6177,-19.35094 1.8003,-3.971 4.1898,-4.91504 5.0623,-2 0.288,0.9625 0.6559,18.06155 0.8174,37.99788 0.1615,19.93633 0.5411,36.24883 0.8436,36.25 0.3025,10e-4 1.0932,-0.54109 1.7571,-1.20502 2.1622,-2.16216 3.9799,1.2286 5.74,10.70714 0.9191,4.95 3.6196,17.1 6.0011,27 2.3815,9.9 5.2668,24.525 6.4119,32.5 1.145,7.975 3.4224,19.84173 5.0609,26.37051 3.9602,15.78023 3.8868,18.83629 -0.3947,16.44024 z"
       id="path27848" />
    <path
       style="fill:#1615e4"
       d="m 2012.7004,435.20917 c -1.4852,-1.55023 -2.7004,-3.14074 -2.7004,-3.53445 0,-0.39371 -1.8487,-4.64409 -4.1082,-9.44528 -2.2594,-4.80119 -4.4556,-9.62944 -4.8802,-10.72944 -0.4247,-1.1 -1.5502,-4.025 -2.5012,-6.5 -0.9509,-2.475 -2.1782,-5.625 -2.7273,-7 -5.9415,-14.87808 -7.6538,-25.73886 -7.9941,-50.70592 -0.2598,-19.06319 -0.1129,-21.38287 1.4539,-22.95714 4.0517,-4.07124 5.4562,2.02392 5.5963,24.28805 0.058,9.28126 0.3911,19.80001 0.7393,23.37501 0.6197,6.36211 5.6949,23.5694 7.5064,25.45 0.5033,0.5225 0.9151,1.72353 0.9151,2.66896 0,0.94543 0.6402,2.99293 1.4227,4.55 4.0793,8.11782 9.7595,21.01225 11.211,25.45013 1.4317,4.37692 1.4584,5.21733 0.2062,6.46953 -1.2522,1.25221 -1.7899,1.07301 -4.1395,-1.37945 z"
       id="path27846" />
    <path
       style="fill:#1615e4"
       d="m 2758,534.11869 c 0,-0.48472 1.6875,-2.16048 3.75,-3.7239 9.6312,-7.30066 27.4301,-22.85316 33.7807,-29.51712 15.2461,-15.99862 20.3468,-23.22568 26.3801,-37.37767 2.3448,-5.5 4.8553,-11.35 5.579,-13 0.7236,-1.65 2.6945,-7.5 4.3798,-13 3.1431,-10.25772 7.6412,-17.5384 9.9529,-16.10969 2.0439,1.26321 0.9096,7.58529 -3.3389,18.60969 -0.7418,1.925 -2.7738,7.325 -4.5154,12 -1.7416,4.675 -3.6361,9.07337 -4.2099,9.77417 -0.5738,0.70079 -0.808,1.50944 -0.5205,1.79699 1.2686,1.2686 9.3567,-11.72886 17.7792,-28.57116 5.7102,-11.41845 7.5114,-14 9.768,-14 2.5148,0 0.8215,8.52992 -3.2544,16.39452 -4.3603,8.41316 -4.6826,8.9326 -17.1325,27.60548 -5.3172,7.975 -11.7057,17.875 -14.1966,22 -11.8424,19.61141 -29.9521,39.30284 -41.5338,45.16154 -3.2077,1.62266 -6.2836,2.79981 -6.8354,2.6159 -0.5517,-0.18392 2.0728,-3.085 5.8323,-6.44685 3.7595,-3.36184 8.9224,-8.07403 11.4732,-10.47152 7.6544,-7.19426 18.3417,-20.85907 16.314,-20.85907 -0.3402,0 -5.6435,4.84893 -11.7852,10.7754 -6.1416,5.92646 -12.9666,12.09961 -15.1666,13.71809 -2.2,1.61849 -5.4791,4.1954 -7.2869,5.72647 C 2769.8328,530.08284 2760.8708,535 2759.0332,535 2758.465,535 2758,534.60341 2758,534.11869 Z"
       id="path27840" />
    <path
       style="fill:#1615e4"
       d="m 1469.4,172.6 c -2.3766,-2.37659 -3.4,-4.31576 -3.4,-6.44234 0,-1.67329 2.9997,-11.50579 6.666,-21.85 9.286,-26.19952 9.2825,-25.7647 0.41,-50.671115 -3.8918,-10.9249 -7.076,-21.352784 -7.076,-23.173077 0,-2.362411 0.8806,-4.190234 3.0769,-6.386545 4.1465,-4.1465 9.5976,-4.275064 13.8614,-0.326923 2.5463,2.357686 3.691,5.385312 8.0242,21.222707 2.7799,10.159989 5.7273,19.145703 6.5499,19.968253 2.8357,2.83574 4.987,-1.53282 10.066,-20.44096 3.8841,-14.459733 5.3693,-18.540874 7.5514,-20.75 6.0933,-6.168735 16.8702,-1.714175 16.8702,6.973179 0,2.263346 -2.9524,12.180487 -7.0934,23.826923 -8.652,24.333478 -8.6604,23.568618 0.5379,49.259298 3.7055,10.34938 6.5555,19.9591 6.5555,22.10398 0,6.35061 -6.2409,11.24691 -12.3736,9.70771 -5.5081,-1.38246 -6.6161,-3.48107 -11.6959,-22.15382 -5.9571,-21.8978 -6.2868,-22.69893 -9.1692,-22.28555 -1.964,0.28167 -2.749,2.21635 -6.824,16.81828 -2.5326,9.075 -4.9276,17.79516 -5.3222,19.37813 -1.1572,4.64195 -5.8371,8.62187 -10.1382,8.62187 -2.8482,0 -4.4431,-0.76625 -7.0769,-3.4 z"
       id="path27836" />
    <path
       style="fill:#1615e4"
       d="m 1470.4,290.6 c -2.3766,-2.37659 -3.4,-4.31576 -3.4,-6.44234 0,-1.67329 2.9997,-11.50579 6.666,-21.85 9.286,-26.19952 9.2825,-25.7647 0.41,-50.67111 -3.8918,-10.9249 -7.076,-21.35279 -7.076,-23.17308 0,-2.36241 0.8806,-4.19024 3.0769,-6.38655 4.1465,-4.1465 9.5976,-4.27506 13.8614,-0.32692 2.5463,2.35769 3.691,5.38531 8.0242,21.22271 2.7799,10.15999 5.7273,19.1457 6.5499,19.96825 2.8357,2.83574 4.987,-1.53282 10.066,-20.44096 3.8841,-14.45973 5.3693,-18.54087 7.5514,-20.75 6.0933,-6.16874 16.8702,-1.71417 16.8702,6.97318 0,2.26334 -2.9524,12.18049 -7.0934,23.82692 -8.652,24.33348 -8.6604,23.56862 0.5379,49.2593 3.7055,10.34938 6.5555,19.9591 6.5555,22.10398 0,6.35061 -6.2409,11.24691 -12.3736,9.70771 -5.5081,-1.38246 -6.6161,-3.48107 -11.6959,-22.15382 -5.9571,-21.8978 -6.2868,-22.69893 -9.1692,-22.28555 -1.964,0.28167 -2.749,2.21635 -6.824,16.81828 -2.5326,9.075 -4.9276,17.79516 -5.3222,19.37813 -1.1572,4.64195 -5.8371,8.62187 -10.1382,8.62187 -2.8482,0 -4.4431,-0.76625 -7.0769,-3.4 z"
       id="path27834" />
    <path
       style="fill:#1615e4"
       d="m 1470.4,410.6 c -2.3766,-2.37659 -3.4,-4.31576 -3.4,-6.44234 0,-1.67329 2.9997,-11.50579 6.666,-21.85 9.286,-26.19952 9.2825,-25.7647 0.41,-50.67111 -3.8918,-10.9249 -7.076,-21.35279 -7.076,-23.17308 0,-2.36241 0.8806,-4.19024 3.0769,-6.38655 4.1465,-4.1465 9.5976,-4.27506 13.8614,-0.32692 2.5463,2.35769 3.691,5.38531 8.0242,21.22271 2.7799,10.15999 5.7273,19.1457 6.5499,19.96825 2.8357,2.83574 4.987,-1.53282 10.066,-20.44096 3.8841,-14.45973 5.3693,-18.54087 7.5514,-20.75 6.0933,-6.16874 16.8702,-1.71417 16.8702,6.97318 0,2.26334 -2.9524,12.18049 -7.0934,23.82692 -8.652,24.33348 -8.6604,23.56862 0.5379,49.2593 3.7055,10.34938 6.5555,19.9591 6.5555,22.10398 0,6.35061 -6.2409,11.24691 -12.3736,9.70771 -5.5081,-1.38246 -6.6161,-3.48107 -11.6959,-22.15382 -5.9571,-21.8978 -6.2868,-22.69893 -9.1692,-22.28555 -1.964,0.28167 -2.749,2.21635 -6.824,16.81828 -2.5326,9.075 -4.9276,17.79516 -5.3222,19.37813 -1.1572,4.64195 -5.8371,8.62187 -10.1382,8.62187 -2.8482,0 -4.4431,-0.76625 -7.0769,-3.4 z"
       id="path27832" />
    <path
       style="fill:#1615e4"
       d="m 1467.4,532.6 c -2.3766,-2.37659 -3.4,-4.31576 -3.4,-6.44234 0,-1.67329 2.9997,-11.50579 6.666,-21.85 9.286,-26.19952 9.2825,-25.7647 0.41,-50.67111 -3.8918,-10.9249 -7.076,-21.35279 -7.076,-23.17308 0,-2.36241 0.8806,-4.19024 3.0769,-6.38655 4.1465,-4.1465 9.5976,-4.27506 13.8614,-0.32692 2.5463,2.35769 3.691,5.38531 8.0242,21.22271 2.7799,10.15999 5.7273,19.1457 6.5499,19.96825 2.8357,2.83574 4.987,-1.53282 10.066,-20.44096 3.8841,-14.45973 5.3693,-18.54087 7.5514,-20.75 6.0933,-6.16874 16.8702,-1.71417 16.8702,6.97318 0,2.26334 -2.9524,12.18049 -7.0934,23.82692 -8.652,24.33348 -8.6604,23.56862 0.5379,49.2593 3.7055,10.34938 6.5555,19.9591 6.5555,22.10398 0,6.35061 -6.2409,11.24691 -12.3736,9.70771 -5.5081,-1.38246 -6.6161,-3.48107 -11.6959,-22.15382 -5.9571,-21.8978 -6.2868,-22.69893 -9.1692,-22.28555 -1.964,0.28167 -2.749,2.21635 -6.824,16.81828 -2.5326,9.075 -4.9276,17.79516 -5.3222,19.37813 -1.1572,4.64195 -5.8371,8.62187 -10.1382,8.62187 -2.8482,0 -4.4431,-0.76625 -7.0769,-3.4 z"
       id="path27830" />
    <path
       style="fill:#1615e4"
       d="m 846.5,215.0542 c -1.1,-0.45047 -9.2,-6.77129 -18,-14.04626 -8.8,-7.27498 -17.575,-13.95887 -19.5,-14.85309 -2.80348,-1.30229 -8.22291,-1.72823 -27.23262,-2.14035 l -23.73261,-0.5145 -3.04773,-3.04958 c -1.81768,-1.81877 -3.28835,-4.53235 -3.64392,-6.72346 -0.52753,-3.25076 -0.19004,-4.08004 2.93034,-7.20042 4.12574,-4.12574 3.11431,-4.04937 26.95663,-2.03544 9.70898,0.82011 18.35407,1.22197 19.2113,0.89302 0.85724,-0.32896 1.55861,-1.60668 1.55861,-2.83939 0,-1.76001 -3.43836,-4.65707 -16.0122,-13.49139 -8.80671,-6.18755 -16.68171,-12.20595 -17.5,-13.37422 -1.78499,-2.54843 -1.90073,-8.5744 -0.206,-10.72501 2.30421,-2.92404 6.16923,-4.95411 9.43207,-4.95411 3.30536,0 5.28896,1.44519 31.94962,23.27751 9.99904,8.18817 12.30177,8.72249 37.59115,8.72249 17.73873,0 21.36738,0.25437 23.75586,1.66527 7.04433,4.16119 6.58905,14.48685 -0.80589,18.27717 -1.78629,0.91557 -6.61309,0.80795 -21.76231,-0.48523 -10.70681,-0.91396 -20.13638,-1.40484 -20.95461,-1.09086 -0.81823,0.31398 -1.48769,1.6106 -1.48769,2.88138 0,1.84411 3.24768,4.62032 16.08916,13.75345 18.90856,13.44819 20.95109,16.15273 17.39391,23.03155 -2.46694,4.77055 -8.19031,6.98417 -12.98307,5.02147 z"
       id="path27826" />
    <path
       style="fill:#1615e4"
       d="m 993.67532,280.96389 c -4.84529,-3.81927 -4.9573,-5.48325 -1.67899,-24.94209 3.39276,-20.13817 3.62813,-23.84494 1.56441,-24.63687 -2.23934,-0.85931 -3.59104,0.34952 -13.54704,12.11507 -15.91409,18.80656 -16.70116,19.5 -22.13301,19.5 -4.02388,0 -5.0767,-0.44423 -7.2918,-3.07673 C 948.75394,257.74256 948,255.68898 948,252.87169 c 0,-3.78225 0.77159,-4.76707 15.92223,-20.32255 8.75723,-8.99123 16.57803,-17.63051 17.37956,-19.19841 2.04438,-3.99906 2.40654,-6.24363 4.73574,-29.35025 1.94698,-19.31493 2.21597,-20.65564 4.65497,-23.20141 4.51872,-4.71653 10.6345,-4.58456 15.2115,0.32823 2.83,3.03764 2.7055,6.56949 -0.9733,27.60892 -2.7207,15.56014 -2.8998,17.72322 -1.5775,19.04554 0.8204,0.82045 2.1473,1.24017 2.9485,0.9327 0.8013,-0.30746 7.0123,-7.00649 13.8023,-14.88674 6.79,-7.88025 13.0318,-14.87591 13.8707,-15.54592 2.1705,-1.73346 8.6648,-1.56413 11.51,0.30011 2.9748,1.94922 4.8427,7.25672 3.8949,11.0674 -0.4445,1.7874 -6.3776,8.63211 -15.9066,18.35069 -8.3587,8.525 -16.1191,17.31513 -17.2453,19.53363 -1.5751,3.10296 -2.5508,8.98094 -4.2286,25.47564 -2.6411,25.96426 -3.6833,28.60544 -11.7099,29.67584 -2.91772,0.3891 -4.43885,-0.007 -6.61388,-1.72122 z"
       id="path27824" />
    <path
       style="fill:#1615e4"
       d="M 753.77514,423.4412 C 750.38134,421.59945 749,419.09635 749,414.78825 c 0,-4.11958 0.68327,-5.11517 14.70545,-21.42731 11.04222,-12.84553 13.14358,-16.71417 9.77985,-18.00496 -0.83309,-0.31968 -9.72059,2.17092 -19.75,5.53468 -10.02942,3.36376 -19.5178,6.11444 -21.0853,6.11263 -3.76237,-0.004 -9.65,-5.77175 -9.65,-9.45295 0,-4.0603 2.56004,-8.11519 6.20595,-9.8297 1.81173,-0.85198 11.93908,-3.79016 22.50523,-6.52929 10.56615,-2.73914 20.79357,-5.95822 22.7276,-7.15351 2.11533,-1.30735 8.55196,-8.92713 16.15457,-19.12403 6.95099,-9.32292 13.77176,-17.84245 15.15727,-18.93229 7.89847,-6.21293 19.19036,2.19084 15.58124,11.59605 -0.36748,0.95763 -6.44248,8.50492 -13.5,16.77176 C 800.77434,352.61616 795,359.91435 795,360.56753 c 0,0.65317 0.65978,1.73515 1.46617,2.4044 1.18295,0.98175 4.99831,0.0395 19.7507,-4.87756 C 826.27335,354.74247 835.97941,352 837.78588,352 c 7.29956,0 12.07478,7.5012 8.80295,13.82822 -0.89675,1.73412 -2.63359,3.79518 -3.85964,4.58013 -1.22605,0.78496 -9.42919,3.29849 -18.22919,5.58563 -24.85126,6.45891 -26.41138,6.98931 -30.11003,10.23677 -1.90984,1.67686 -9.14812,10.67339 -16.08508,19.9923 -7.37726,9.91039 -13.61352,17.32399 -15.02387,17.86021 -3.37241,1.28218 -6.3279,1.08256 -9.50588,-0.64206 z"
       id="path27822" />
    <path
       style="fill:#1615e4"
       d="m 944.62854,458.92245 c -4.80524,-3.7798 -4.86544,-4.36028 -2.98715,-28.80059 1.65042,-21.47519 1.65363,-23.05883 0.0552,-27.21203 C 940.76308,400.48442 934.6026,390.625 928.0066,381 c -13.64273,-19.90772 -14.4087,-22.28003 -9.10894,-28.2115 2.37625,-2.65947 3.63586,-3.24305 7,-3.24305 5.63762,0 7.46233,2.07134 18.55422,21.06206 5.75051,9.84558 9.97359,16.02899 11.09912,16.25123 3.87137,0.76443 4.449,-2.23819 4.449,-23.12679 v -19.8858 l 2.92308,-2.92307 c 5.68353,-5.68354 15.32443,-2.8374 16.92674,4.99702 0.38116,1.86367 0.0991,10.63155 -0.62678,19.48419 -0.72589,8.85264 -1.14706,19.58991 -0.93593,23.86059 l 0.38387,7.76488 13.16451,19.48977 C 1000.1677,428.8552 1005,436.94349 1005,438.55431 c 0,3.32485 -2.5162,8.11638 -4.9446,9.41605 -1.05816,0.5663 -3.66931,1.02964 -5.80257,1.02964 -5.21636,0 -7.05519,-2.12891 -17.70673,-20.5 -9.49508,-16.3765 -10.81544,-17.96141 -13.68424,-16.42607 -1.72168,0.92141 -1.86186,2.52052 -1.86186,21.23875 0,21.25067 -0.27541,22.7186 -4.95411,26.40552 -2.46515,1.94259 -8.46799,1.52421 -11.41735,-0.79575 z"
       id="path27820" />
    <path
       style="fill:#1615e4"
       d="m 120.4,264.6 c -2.38495,-2.38495 -3.4,-4.3134 -3.4,-6.45951 0,-1.68273 3.15,-12.00173 7,-22.9311 5.17295,-14.68495 7,-21.20993 7,-24.99919 0,-3.81006 -1.79865,-10.17746 -7,-24.78071 -3.85,-10.80922 -7,-21.14319 -7,-22.96438 0,-5.03728 4.86042,-9.46511 10.38983,-9.46511 7.06384,0 9.06012,3.04029 14.23163,21.67445 2.41562,8.70405 5.3899,18.75055 6.6095,22.32555 3.23938,9.49548 2.95764,18.09809 -0.98251,30 -1.72974,5.225 -4.74853,15.35 -6.70842,22.5 -2.93889,10.72152 -4.08996,13.48199 -6.56751,15.75 -4.37377,4.00386 -9.14727,3.77525 -13.57252,-0.65 z"
       id="path27818" />
    <path
       style="fill:#1615e4"
       d="m 469.02748,281.25 c -2.47755,-2.26801 -3.62862,-5.02848 -6.56751,-15.75 -1.95989,-7.15 -4.97868,-17.275 -6.70842,-22.5 -3.94015,-11.90191 -4.22189,-20.50452 -0.98251,-30 1.2196,-3.575 4.19388,-13.6215 6.6095,-22.32555 C 466.55005,172.04029 468.54633,169 475.61017,169 481.13958,169 486,173.42783 486,178.46511 c 0,1.82119 -3.15,12.15516 -7,22.96438 -5.20135,14.60325 -7,20.97065 -7,24.78071 0,3.78926 1.82705,10.31424 7,24.99919 3.85,10.92937 7,21.24837 7,22.9311 0,2.14611 -1.01505,4.07456 -3.4,6.45951 -4.42525,4.42525 -9.19875,4.65386 -13.57252,0.65 z"
       id="path27816" />
    <path
       style="fill:#1615e4"
       d="m 155.4,348.6 c -2.38495,-2.38495 -3.4,-4.3134 -3.4,-6.45951 0,-1.68273 3.15,-12.00173 7,-22.9311 5.17295,-14.68495 7,-21.20993 7,-24.99919 0,-3.81006 -1.79865,-10.17746 -7,-24.78071 -3.85,-10.80922 -7,-21.14319 -7,-22.96438 0,-5.03728 4.86042,-9.46511 10.38983,-9.46511 7.06384,0 9.06012,3.04029 14.23163,21.67445 2.41562,8.70405 5.3899,18.75055 6.6095,22.32555 3.23938,9.49548 2.95764,18.09809 -0.98251,30 -1.72974,5.225 -4.74853,15.35 -6.70842,22.5 -2.93889,10.72152 -4.08996,13.48199 -6.56751,15.75 -4.37377,4.00386 -9.14727,3.77525 -13.57252,-0.65 z"
       id="path27814" />
    <path
       style="fill:#1615e4"
       d="m 508.02748,350.25 c -2.47755,-2.26801 -3.62862,-5.02848 -6.56751,-15.75 -1.95989,-7.15 -4.97868,-17.275 -6.70842,-22.5 -3.94015,-11.90191 -4.22189,-20.50452 -0.98251,-30 1.2196,-3.575 4.19388,-13.6215 6.6095,-22.32555 C 505.55005,241.04029 507.54633,238 514.61017,238 520.13958,238 525,242.42783 525,247.46511 c 0,1.82119 -3.15,12.15516 -7,22.96438 -5.20135,14.60325 -7,20.97065 -7,24.78071 0,3.78926 1.82705,10.31424 7,24.99919 3.85,10.92937 7,21.24837 7,22.9311 0,2.14611 -1.01505,4.07456 -3.4,6.45951 -4.42525,4.42525 -9.19875,4.65386 -13.57252,0.65 z"
       id="path27812" />
    <path
       style="fill:#1615e4"
       d="m 81.4,353.6 c -2.384949,-2.38495 -3.4,-4.3134 -3.4,-6.45951 0,-1.68273 3.15,-12.00173 7,-22.9311 5.172946,-14.68495 7,-21.20993 7,-24.99919 0,-3.81006 -1.79865,-10.17746 -7,-24.78071 C 81.15,263.62027 78,253.2863 78,251.46511 78,246.42783 82.860415,242 88.389832,242 c 7.063838,0 9.060121,3.04029 14.231628,21.67445 2.41562,8.70405 5.3899,18.75055 6.6095,22.32555 3.23938,9.49548 2.95764,18.09809 -0.98251,30 -1.72974,5.225 -4.74853,15.35 -6.70842,22.5 -2.938887,10.72152 -4.089961,13.48199 -6.567513,15.75 -4.373772,4.00386 -9.147265,3.77525 -13.572517,-0.65 z"
       id="path27810" />
    <path
       style="fill:#1615e4"
       d="m 428.02748,365.25 c -2.47755,-2.26801 -3.62862,-5.02848 -6.56751,-15.75 -1.95989,-7.15 -4.97868,-17.275 -6.70842,-22.5 -3.94015,-11.90191 -4.22189,-20.50452 -0.98251,-30 1.2196,-3.575 4.19388,-13.6215 6.6095,-22.32555 C 425.55005,256.04029 427.54633,253 434.61017,253 440.13958,253 445,257.42783 445,262.46511 c 0,1.82119 -3.15,12.15516 -7,22.96438 -5.20135,14.60325 -7,20.97065 -7,24.78071 0,3.78926 1.82705,10.31424 7,24.99919 3.85,10.92937 7,21.24837 7,22.9311 0,2.14611 -1.01505,4.07456 -3.4,6.45951 -4.42525,4.42525 -9.19875,4.65386 -13.57252,0.65 z"
       id="path27808" />
    <path
       style="fill:#1615e4"
       d="m 113.4,427.6 c -2.38495,-2.38495 -3.4,-4.3134 -3.4,-6.45951 0,-1.68273 3.15,-12.00173 7,-22.9311 5.17295,-14.68495 7,-21.20993 7,-24.99919 0,-3.81006 -1.79865,-10.17746 -7,-24.78071 -3.85,-10.80922 -7,-21.14319 -7,-22.96438 0,-5.03728 4.86042,-9.46511 10.38983,-9.46511 7.06384,0 9.06012,3.04029 14.23163,21.67445 2.41562,8.70405 5.3899,18.75055 6.6095,22.32555 3.23938,9.49548 2.95764,18.09809 -0.98251,30 -1.72974,5.225 -4.74853,15.35 -6.70842,22.5 -2.93889,10.72152 -4.08996,13.48199 -6.56751,15.75 -4.37377,4.00386 -9.14727,3.77525 -13.57252,-0.65 z"
       id="path27806" />
    <path
       style="fill:#1615e4"
       d="m 472.02748,435.25 c -2.47755,-2.26801 -3.62862,-5.02848 -6.56751,-15.75 -1.95989,-7.15 -4.97868,-17.275 -6.70842,-22.5 -3.94015,-11.90191 -4.22189,-20.50452 -0.98251,-30 1.2196,-3.575 4.19388,-13.6215 6.6095,-22.32555 C 469.55005,326.04029 471.54633,323 478.61017,323 484.13958,323 489,327.42783 489,332.46511 c 0,1.82119 -3.15,12.15516 -7,22.96438 -5.20135,14.60325 -7,20.97065 -7,24.78071 0,3.78926 1.82705,10.31424 7,24.99919 3.85,10.92937 7,21.24837 7,22.9311 0,2.14611 -1.01505,4.07456 -3.4,6.45951 -4.42525,4.42525 -9.19875,4.65386 -13.57252,0.65 z"
       id="path27804" />
    <path
       style="fill:#1615e4"
       d="m 1042.3649,824.50851 c -1.6369,-4.26555 5.2872,-17.8697 20.3629,-40.00851 21.3154,-31.30189 25.6018,-37.38554 30.751,-43.64465 3.1508,-3.82994 9.4832,-10.24593 14.072,-14.25773 8.1441,-7.12015 21.3553,-15.12893 23.6787,-14.35445 0.6394,0.21312 -1.6879,2.60809 -5.1717,5.32216 -10.4329,8.12777 -21.1767,18.32054 -27.7846,26.3594 -3.4247,4.1664 -6.2372,8.01638 -6.25,8.55552 -0.013,0.53914 4.1393,-3.10376 9.2268,-8.09533 14.4645,-14.19173 32.0648,-27.47681 41.4492,-31.28666 7.1774,-2.91387 5.1862,0.0116 -5.0941,7.48452 -18.4296,13.39667 -30.2968,23.82626 -41.1131,36.13262 -11.8311,13.46093 -18.8115,26.63764 -27.0683,51.0964 -2.6392,7.81808 -4.8293,12.45092 -7.091,15 -7.9349,8.94306 -5.2038,-5.23418 6.09,-31.61371 1.9549,-4.56605 3.0642,-7.99899 2.4651,-7.62875 -1.8071,1.11683 -11.1611,16.1847 -17.8129,28.6937 -6.2388,11.73228 -9.4834,15.44206 -10.71,12.24547 z"
       id="path27794" />
    <path
       style="fill:#1615e4"
       d="m 1020.5081,941.65265 c -1.2783,-1.95092 -1.5691,-3.98682 -1.195,-8.36554 0.8468,-9.91091 4.5347,-28.14936 8.2472,-40.78711 0.8079,-2.75 1.93,-10.175 2.4937,-16.5 1.0093,-11.32647 2.9306,-24.72837 4.9411,-34.4662 1.8628,-9.02301 9.0049,-16.76515 9.0049,-9.76154 0,1.52474 -1.1251,8.16224 -2.5003,14.75 -1.3752,6.58776 -2.7384,15.12774 -3.0294,18.97774 l -0.5292,7 3.1389,-8 c 1.7263,-4.4 3.7222,-9.575 4.4352,-11.5 7.0719,-19.09367 10.1886,-24.71137 13.0918,-23.59733 1.2671,0.48623 1.4665,1.41793 0.9327,4.35789 -0.7745,4.26591 -3.0472,11.37225 -4.4703,13.97754 -1.3198,2.41621 -5.6652,13.75417 -9.8735,25.7619 l -3.5047,10 -0.3415,27.91928 c -0.2878,23.53154 -0.5934,28.30372 -1.9444,30.36553 -1.4892,2.27293 -1.7198,2.32942 -3.2541,0.7973 -1.4021,-1.40024 -1.6977,-4.66057 -1.9595,-21.61553 -0.1791,-11.60227 -0.7028,-19.96658 -1.25,-19.96658 -0.5179,0 -0.9417,0.87883 -0.9417,1.95295 0,1.07412 -0.4587,2.98662 -1.0192,4.25 -0.9078,2.04584 -2.1571,9.17921 -4.9329,28.1664 -0.4719,3.22814 -1.5313,6.54263 -2.3542,7.36553 -1.3283,1.32825 -1.6858,1.20677 -3.1856,-1.08223 z"
       id="path27774" />
    <path
       style="fill:#1615e4"
       d="m 1037.1868,1061.6988 c -1.2028,-1.2802 -2.1868,-2.6807 -2.1868,-3.1121 0,-0.4315 -0.6437,-2.2024 -1.4304,-3.9356 -1.5478,-3.4098 -4.1118,-21.6955 -5.0689,-36.1511 -0.6964,-10.5168 -2.4462,-22.26253 -3.6847,-24.73372 -0.4779,-0.95354 -1.5133,-5.67854 -2.3008,-10.5 -0.7875,-4.82145 -1.881,-10.79128 -2.43,-13.26628 -2.1316,-9.61043 -0.8934,-21 2.2831,-21 2.0542,0 2.774,2.30125 4.2229,13.5 1.2058,9.32033 2.5855,18.53038 3.9324,26.25 1.2782,7.32598 2.2103,2.24744 2.7532,-15 0.5735,-18.2194 1.7044,-24.75 4.2858,-24.75 3.0742,0 3.4163,3.74784 2.7802,30.46196 -0.5695,23.91974 -0.4517,27.21784 1.1557,32.33724 1.7586,5.6011 9.8565,29.4859 13.5975,40.106 2.0923,5.9398 2.3466,8.8469 0.9649,11.0305 -2.3559,3.7231 -6.3315,-3.9074 -13.6943,-26.284 -2.561,-7.7835 -5.0412,-14.5792 -5.5115,-15.1017 -1.2739,-1.4153 -0.9471,5.7708 0.7027,15.45 4.3613,25.5881 4.3,29.6709 -0.371,24.6988 z"
       id="path27756" />
    <path
       style="fill:#1615e4"
       d="m 1118.4852,1182.8928 c -12.4554,-6.5861 -25.898,-20.4679 -38.6305,-39.8928 -3.0644,-4.675 -10.3024,-15.7 -16.0845,-24.5 -10.8907,-16.5749 -19.1849,-30.3362 -22.0904,-36.6511 -2.9652,-6.445 -1.7259,-12.7919 1.9089,-9.7753 0.8255,0.6851 4.4238,6.9936 7.996,14.0188 6.0584,11.9144 15.7322,27.9076 16.8805,27.9076 0.4853,0 -2.6679,-8.5732 -4.3753,-11.896 -2.2246,-4.3292 -9.1719,-26.5166 -8.9002,-28.4245 0.8143,-5.7194 7.3395,1.423 10.3422,11.3205 6.104,20.1199 14.4736,38.68 21.8475,48.4482 8.4199,11.1538 22.3028,25.2046 35.621,36.0519 6.7528,5.4999 13.4527,10.9741 14.8887,12.1648 4.0385,3.3487 1.6372,4.0114 -4.167,1.15 -6.812,-3.3581 -20.76,-14.6411 -32.9721,-26.672 -5.3625,-5.283 -9.75,-8.9235 -9.75,-8.0902 0,3.1201 19.7345,24.4432 30.047,32.4658 5.8149,4.5237 4.2486,5.9754 -2.5618,2.3743 z"
       id="path27744" />
    <path
       style="fill:#1615e4"
       d="m 1746.5,865.0542 c -1.1,-0.45047 -9.2,-6.77129 -18,-14.04626 -8.8,-7.27498 -17.575,-13.95887 -19.5,-14.85309 -2.8035,-1.30229 -8.2229,-1.72823 -27.2326,-2.14035 l -23.7326,-0.5145 -3.0478,-3.04958 c -1.8176,-1.81877 -3.2883,-4.53235 -3.6439,-6.72346 -0.5275,-3.25076 -0.19,-4.08004 2.9304,-7.20042 4.1257,-4.12574 3.1143,-4.04937 26.9566,-2.03544 9.709,0.82011 18.3541,1.22197 19.2113,0.89302 0.8572,-0.32896 1.5586,-1.60668 1.5586,-2.83939 0,-1.76001 -3.4384,-4.65707 -16.0122,-13.49139 -8.8067,-6.18755 -16.6817,-12.20595 -17.5,-13.37422 -1.785,-2.54843 -1.9007,-8.5744 -0.206,-10.72501 2.3042,-2.92404 6.1692,-4.95411 9.4321,-4.95411 3.3053,0 5.2889,1.44519 31.9496,23.27751 9.999,8.18817 12.3018,8.72249 37.5911,8.72249 17.7388,0 21.3674,0.25437 23.7559,1.66527 7.0443,4.16119 6.589,14.48685 -0.8059,18.27717 -1.7863,0.91557 -6.6131,0.80795 -21.7623,-0.48523 -10.7068,-0.91396 -20.1364,-1.40484 -20.9546,-1.09086 -0.8182,0.31398 -1.4877,1.6106 -1.4877,2.88138 0,1.84411 3.2477,4.62032 16.0892,13.75345 18.9085,13.44819 20.9511,16.15273 17.3939,23.03155 -2.467,4.77055 -8.1903,6.98417 -12.9831,5.02147 z"
       id="path27742" />
    <path
       style="fill:#1615e4"
       d="m 1893.6753,930.96389 c -4.8453,-3.81927 -4.9573,-5.48325 -1.679,-24.94209 3.3928,-20.13817 3.6282,-23.84494 1.5644,-24.63687 -2.2393,-0.85931 -3.591,0.34952 -13.547,12.11507 -15.9141,18.80656 -16.7012,19.5 -22.133,19.5 -4.0239,0 -5.0767,-0.44423 -7.2918,-3.07673 -1.835,-2.18071 -2.5889,-4.23429 -2.5889,-7.05158 0,-3.78225 0.7716,-4.76707 15.9222,-20.32255 8.7573,-8.99123 16.5781,-17.63051 17.3796,-19.19841 2.0444,-3.99906 2.4065,-6.24363 4.7357,-29.35025 1.947,-19.31493 2.216,-20.65564 4.655,-23.20141 4.5187,-4.71653 10.6345,-4.58456 15.2115,0.32823 2.83,3.03764 2.7055,6.56949 -0.9733,27.60892 -2.7207,15.56014 -2.8998,17.72322 -1.5775,19.04554 0.8204,0.82045 2.1473,1.24017 2.9485,0.9327 0.8013,-0.30746 7.0123,-7.00649 13.8023,-14.88674 6.79,-7.88025 13.0318,-14.87591 13.8707,-15.54592 2.1705,-1.73346 8.6648,-1.56413 11.51,0.30011 2.9748,1.94922 4.8427,7.25672 3.8949,11.0674 -0.4445,1.7874 -6.3776,8.63211 -15.9066,18.35069 -8.3587,8.525 -16.1191,17.31513 -17.2453,19.53363 -1.5751,3.10296 -2.5508,8.98094 -4.2286,25.47564 -2.6411,25.96426 -3.6833,28.60544 -11.7099,29.67584 -2.9177,0.3891 -4.4389,-0.007 -6.6139,-1.72122 z"
       id="path27740" />
    <path
       style="fill:#1615e4"
       d="m 1653.7751,1073.4412 c -3.3938,-1.8418 -4.7751,-4.3448 -4.7751,-8.653 0,-4.1195 0.6833,-5.1151 14.7055,-21.4273 11.0422,-12.8455 13.1435,-16.7141 9.7798,-18.0049 -0.8331,-0.3197 -9.7206,2.1709 -19.75,5.5347 -10.0294,3.3637 -19.5178,6.1144 -21.0853,6.1126 -3.7624,0 -9.65,-5.7718 -9.65,-9.453 0,-4.0603 2.56,-8.1151 6.2059,-9.8297 1.8118,-0.8519 11.9391,-3.7901 22.5053,-6.5293 10.5661,-2.7391 20.7936,-5.9582 22.7276,-7.1535 2.1153,-1.3073 8.5519,-8.92709 16.1546,-19.12399 6.9509,-9.32292 13.7717,-17.84245 15.1572,-18.93229 7.8985,-6.21293 19.1904,2.19084 15.5813,11.59605 -0.3675,0.95763 -6.4425,8.50492 -13.5,16.77176 -7.0576,8.26687 -12.8319,15.56507 -12.8319,16.21817 0,0.6532 0.6598,1.7352 1.4662,2.4044 1.1829,0.9818 4.9983,0.04 19.7507,-4.8775 10.0565,-3.3519 19.7625,-6.0944 21.569,-6.0944 7.2995,0 12.0748,7.5012 8.8029,13.8282 -0.8967,1.7341 -2.6336,3.7952 -3.8596,4.5802 -1.2261,0.7849 -9.4292,3.2984 -18.2292,5.5856 -24.8513,6.4589 -26.4114,6.9893 -30.11,10.2368 -1.9099,1.6768 -9.1482,10.6733 -16.0851,19.9922 -7.3773,9.9104 -13.6135,17.324 -15.0239,17.8603 -3.3724,1.2821 -6.3279,1.0825 -9.5059,-0.6421 z"
       id="path27738" />
    <path
       style="fill:#1615e4"
       d="m 1844.6285,1108.9224 c -4.8052,-3.7797 -4.8654,-4.3602 -2.9871,-28.8005 1.6504,-21.4752 1.6536,-23.0589 0.055,-27.2121 -0.9335,-2.4254 -7.094,-12.2848 -13.69,-21.9098 -13.6427,-19.9077 -14.4087,-22.28 -9.1089,-28.2115 2.3762,-2.6595 3.6358,-3.24305 7,-3.24305 5.6376,0 7.4623,2.07135 18.5542,21.06205 5.7505,9.8456 9.9736,16.029 11.0991,16.2512 3.8714,0.7645 4.449,-2.2382 4.449,-23.1268 v -19.88575 l 2.9231,-2.92307 c 5.6835,-5.68354 15.3244,-2.8374 16.9267,4.99702 0.3812,1.86367 0.099,10.6315 -0.6268,19.4842 -0.7259,8.8526 -1.147,19.5899 -0.9359,23.8606 l 0.3839,7.7649 13.1645,19.4897 c 8.3322,12.3357 13.1645,20.424 13.1645,22.0348 0,3.3249 -2.5162,8.1164 -4.9446,9.4161 -1.0582,0.5663 -3.6693,1.0296 -5.8026,1.0296 -5.2163,0 -7.0552,-2.1289 -17.7067,-20.5 -9.4951,-16.3765 -10.8154,-17.9614 -13.6842,-16.4261 -1.7217,0.9214 -1.8619,2.5205 -1.8619,21.2388 0,21.2507 -0.2754,22.7186 -4.9541,26.4055 -2.4652,1.9426 -8.468,1.5242 -11.4174,-0.7958 z"
       id="path27736" />
    <path
       style="fill:#1615e4"
       d="m 2238.7216,1474.8642 c -2.3658,-1.324 -4.7078,-6.2178 -9.7456,-20.3641 -5.5977,-15.7183 -12.8607,-30.765 -18.6395,-38.6149 -7.3173,-9.9399 -22.7238,-25.2901 -36.1643,-36.0322 -6.7803,-5.4191 -12.6303,-9.8663 -13,-9.8827 -0.3697,-0.016 -2.6972,-1.8502 -5.1722,-4.075 -4.1133,-3.6975 -4.2669,-3.9948 -1.7868,-3.4603 8.2721,1.7828 27.1651,15.6852 46.1267,33.9422 3.2119,3.0926 6.0295,5.6229 6.2611,5.6229 0.2317,0 -1.8714,-3.1522 -4.6736,-7.0049 -5.4554,-7.5004 -19.6465,-21.1043 -27.6089,-26.4666 -2.6748,-1.8013 -5.5282,-4.083 -6.3409,-5.0704 -1.3814,-1.6785 -1.2625,-1.7528 1.8249,-1.1413 5.2403,1.038 16.9747,9.1592 26.0437,18.0245 9.57,9.3549 12.9186,13.5503 26.387,33.0598 27.6078,39.991 34.7609,52.0996 34.7647,58.8489 0,2.0625 -0.3695,3.75 -0.8236,3.75 -1.4184,0 -4.8924,-4.3082 -7.2573,-9 -6.5784,-13.0509 -19.6956,-34.5547 -20.5544,-33.696 -0.255,0.2551 1.3935,4.9035 3.6633,10.3299 4.6287,11.0657 9.9741,26.8844 9.9741,29.5165 0,2.2976 -1.1556,2.9016 -3.2784,1.7137 z"
       id="path27726" />
    <path
       style="fill:#1615e4;stroke-width:0.92961"
       d="m 2881.1638,1483.0014 c -0.9054,-1.0064 -2.2797,-2.7448 -3.0539,-3.8632 -6.6981,-9.675 -21.7034,-29.8227 -25.3729,-34.0685 -2.5032,-2.8963 -7.3801,-8.8766 -10.8377,-13.2897 -12.2182,-15.5956 -17.5598,-21.2524 -29.9282,-31.6943 -8.6201,-7.2774 -8.4833,-9.3636 0.3292,-5.0172 10.0479,4.9558 20.2267,14.8014 34.5017,33.3722 4.968,6.463 11.9987,15.0911 15.6237,19.1735 3.625,4.0826 10.1112,12.2375 14.4135,18.1223 6.6004,9.0281 7.8465,11.2921 7.9758,14.4922 0.1755,4.3407 -1.2597,5.4307 -3.6512,2.7727 z"
       id="path27724" />
    <path
       style="fill:#1615e4"
       d="m 2823.257,1494.75 c -1.9112,-2.056 -6.2669,-13.932 -7.7937,-21.25 -0.3442,-1.65 -1.0058,-4.125 -1.4702,-5.5 -0.4644,-1.375 -1.8475,-5.875 -3.0736,-10 -1.2261,-4.125 -2.5774,-8.175 -3.0028,-9 -0.4254,-0.825 -1.7815,-3.75 -3.0136,-6.5 -4.3186,-9.6388 -17.3839,-26.4404 -35.2828,-45.3728 -9.9962,-10.5733 -13.3294,-15.1272 -11.0723,-15.1272 3.9409,0 23.3256,18.5221 34.5367,33 2.3424,3.025 5.9719,7.5941 8.0654,10.1536 8.0881,9.8884 15.6361,26.8787 22.2525,50.0901 0.9005,3.1591 2.332,8.1169 3.181,11.0174 1.1552,3.9459 1.2822,5.9616 0.5049,8.0062 -1.2538,3.2976 -1.2188,3.2932 -3.8315,0.4827 z"
       id="path27722" />
    <path
       style="fill:#1615e4"
       d="m 1040.908,1513.3988 c -0.7744,-0.9279 -2.308,-3.1646 -3.408,-4.9706 -4.9301,-8.094 -14.1476,-20.7925 -16.3508,-22.5255 -1.8769,-1.4764 -4.0578,-1.9027 -9.7332,-1.9027 -7.0804,0 -7.3929,-0.1039 -9.7754,-3.25 -2.81746,-3.7204 -5.99479,-12.7068 -5.45194,-15.4196 0.3904,-1.951 1.46115,-2.0328 10.06134,-0.7686 2.6125,0.3841 4.75,0.3852 4.75,0 0,-2.0836 -3.5293,-6.3473 -15.06042,-18.1939 -11.9748,-12.3 -16.93958,-19.28 -16.93958,-23.813 0,-3.6448 3.93528,-0.7258 17.30892,12.8388 7.80508,7.9166 15.17398,14.8916 16.37538,15.5 1.2013,0.6085 5.1388,1.1063 8.75,1.1063 7.6801,0 9.3459,1.1834 13.1417,9.3357 2.6232,5.634 3.1287,10.2627 1.1915,10.9085 -0.6779,0.2259 -3.812,-0.1275 -6.9647,-0.7854 -3.1527,-0.6579 -5.9443,-0.984 -6.2036,-0.7246 -0.9565,0.9564 1.6004,5.7617 5.1981,9.769 12.3607,13.7679 18.7578,24.9114 18.0067,31.3669 -0.3607,3.1001 -2.918,3.8985 -4.896,1.5287 z"
       id="path27714" />
    <path
       style="fill:#1615e4"
       d="m 1100.6372,1579.75 c -0.9184,-1.4667 -1.6265,-6.7756 -2.0341,-15.25 -0.7857,-16.3371 -2.5795,-31.5 -3.7266,-31.5 -0.4821,0 -0.885,0.3375 -0.8953,0.75 -0.1072,4.2744 -4.1126,27.7814 -4.8614,28.5302 -1.7201,1.7201 -3.9598,-0.042 -5.052,-3.9749 -1.4595,-5.2559 -1.3399,-9.2344 0.6576,-21.8812 3.4062,-21.5664 2.0179,-32.4848 -7.8133,-61.4499 -4.1872,-12.3362 -4.8561,-16.9742 -2.4482,-16.9742 3.8743,0 8.9323,12.1131 14.8336,35.5245 1.7771,7.0501 3.7453,12.9898 4.3736,13.1992 0.827,0.2757 1.0993,-3.707 0.9857,-14.4214 -0.1797,-16.9654 0.5989,-18.2921 5.8004,-9.8834 2.9011,4.6899 3.0404,5.4115 2.9911,15.5 -0.028,5.8196 -0.242,16.4311 -0.4746,23.5811 -0.2327,7.15 0.1664,18.625 0.8869,25.5 1.8502,17.6544 2.4848,29.4878 1.7404,32.4534 -0.7904,3.1493 -3.0914,3.2868 -4.9638,0.2966 z"
       id="path27676" />
    <path
       style="fill:#1615e4"
       d="m 2884.3681,1589.7866 c -0.8317,-1.3457 -1.6335,-5.5371 -3.8471,-20.1087 -0.8207,-5.4022 -1.707,-10.1698 -1.9696,-10.5947 -1.5023,-2.4308 -6.5584,-28.6039 -9.0583,-46.8906 -0.7749,-5.6691 -2.3994,-14.6691 -3.6098,-20 -3.5795,-15.7652 -2.7279,-19.7886 2.6863,-12.6903 3.6149,4.7395 5.0549,10.5991 7.4947,30.4977 2.2866,18.6496 3.4533,25.52 5.434,32 0.7565,2.475 1.6812,6.525 2.0547,9 0.3736,2.475 1.0889,5.2802 1.5896,6.2337 1.3696,2.6083 4.1487,19.5485 4.1764,25.457 0.03,6.4636 -2.8183,10.5464 -4.9509,7.0959 z"
       id="path27668" />
    <path
       style="fill:#1615e4"
       d="m 2851.6243,1588.8301 c -1.4187,-2.1652 -1.7148,-6.4633 -2.0281,-29.4328 -0.407,-29.8343 0.1119,-26.8782 -8.9339,-50.8973 -2.4856,-6.6 -5.619,-14.7 -6.9631,-18 -4.5442,-11.1574 -4.318,-17.1615 0.4841,-12.848 1.9465,1.7485 7.8167,12.6979 7.8167,14.5801 0,0.4827 0.8821,2.8139 1.9602,5.1806 1.0781,2.3666 2.9167,7.4044 4.0858,11.1951 1.1691,3.7907 2.7525,8.3502 3.5188,10.1321 0.7663,1.782 2.3027,7.7026 3.4142,13.1571 1.674,8.2144 2.021,13.7774 2.021,32.3993 0,20.4159 -0.1707,22.6929 -1.8572,24.7757 l -1.8572,2.2935 z"
       id="path27666" />
    <path
       style="fill:#1615e4"
       d="m 2260.6641,1591.8655 c -1.6896,-2.6064 -1.8913,-6.5766 -1.7205,-33.8655 0.1282,-20.4744 -1.0579,-27.4461 -7.3414,-43.1525 -1.4312,-3.5774 -2.6022,-6.9951 -2.6022,-7.5949 0,-0.5998 -0.6466,-2.3645 -1.4368,-3.9216 -8.0145,-15.7909 -9.5596,-30.9247 -2.2071,-21.6169 1.9714,2.4957 10.6359,23.4706 10.6501,25.7817 0,0.5523 0.5804,2.1292 1.2824,3.5042 0.7019,1.375 1.8962,4.4125 2.6539,6.75 0.7577,2.3375 1.6743,4.25 2.0368,4.25 0.8742,0 -0.5862,-12.8338 -2.3895,-21 -3.3573,-15.2027 -3.9952,-19.9946 -2.8184,-21.1714 0.8584,-0.8584 1.5692,-0.7926 2.8487,0.2638 4.3384,3.5819 7.101,15.0426 9.8607,40.9076 0.9096,8.525 3.0127,20.9 4.6736,27.5 3.5851,14.246 5.763,25.6799 6.5237,34.2479 0.4348,4.8985 0.1842,6.8133 -1.1605,8.8656 -1.5348,2.3424 -1.8749,2.4577 -3.2356,1.097 -0.8363,-0.8363 -1.9001,-4.3758 -2.364,-7.8655 -2.1227,-15.9699 -3.9561,-26.4874 -4.8951,-28.0814 -0.5626,-0.9551 -1.0229,-2.6426 -1.0229,-3.75 0,-1.1075 -0.4238,-2.0136 -0.9417,-2.0136 -0.5472,0 -1.0709,8.3643 -1.25,19.9666 -0.2618,16.9549 -0.5574,20.2153 -1.9595,21.6155 -1.5343,1.5321 -1.76,1.4813 -3.1847,-0.7166 z"
       id="path27664" />
    <path
       style="fill:#1615e4"
       d="m 2243.4005,1711.4594 c -0.7035,-2.803 1.1017,-10.7137 3.2345,-14.1742 0.7507,-1.2182 1.3665,-2.7932 1.3684,-3.5 0,-0.7069 1.3519,-4.5943 3,-8.6388 1.6481,-4.0445 2.9966,-8.0265 2.9966,-8.8489 0,-0.8224 0.612,-2.9132 1.36,-4.6464 4.7873,-11.0922 5.5797,-21.5874 4.0888,-54.1511 -0.6082,-13.283 0.2,-18.5 2.8659,-18.5 2.8979,0 3.8953,5.4491 4.4385,24.25 0.2979,10.3125 0.9254,18.75 1.3943,18.75 0.4689,0 0.8685,-0.1125 0.888,-0.25 0.019,-0.1375 0.7104,-4.3 1.5354,-9.25 0.825,-4.95 2.1153,-13.725 2.8674,-19.5 1.5378,-11.808 2.185,-14 4.1335,-14 3.6272,0 4.6027,11.9356 1.9499,23.8569 -0.813,3.6537 -2.1462,10.0181 -2.9626,14.1431 -0.8165,4.125 -2.1368,10.65 -2.9341,14.5 -0.7973,3.85 -1.7264,11.275 -2.0647,16.5 -0.9665,14.9284 -3.4751,33.1201 -5.1712,37.5 -1.7351,4.4805 -5.2328,8.7146 -6.5345,7.9102 -1.3776,-0.8515 -0.9958,-6.5469 1.1786,-17.5787 2.4391,-12.3746 3.6739,-25.7892 2.2398,-24.3315 -0.5411,0.55 -2.8641,6.7872 -5.1622,13.8605 -8.0888,24.8961 -12.8791,33.395 -14.7103,26.0989 z"
       id="path27614" />
    <path
       style="fill:#1615e4"
       d="m 2866.3917,1713.5783 c -0.6719,-1.7509 -0.6159,-2.2156 2.5993,-21.5783 1.233,-7.425 2.3526,-15.525 2.488,-18 0.5555,-10.1495 3.0664,-26.4274 5.0132,-32.5 0.7053,-2.2 1.5891,-6.925 1.9639,-10.5 0.3749,-3.575 1.0663,-7.85 1.5366,-9.5 0.4702,-1.65 1.1491,-6.4491 1.5085,-10.6646 0.7443,-8.7305 2.3493,-12.0343 4.8416,-9.9659 2.2627,1.8779 3.0065,8.8827 1.7238,16.2333 -0.614,3.5185 -1.7243,10.0622 -2.4673,14.5417 -0.743,4.4795 -1.6015,8.55 -1.9077,9.0456 -1.213,1.9626 -4.5323,21.3451 -5.1906,30.3099 -1.3776,18.7581 -4.0159,34.3946 -6.5812,39.0046 -2.6562,4.7733 -4.5884,6.0225 -5.5281,3.5737 z"
       id="path27612" />
    <path
       style="fill:#1615e4"
       d="m 2835.6667,1714.3333 c -0.9666,-0.9665 -0.8182,-8.0609 0.2112,-10.0969 1.8845,-3.7272 4.1221,-9.3561 4.1221,-10.3692 0,-0.5857 0.6337,-2.4829 1.4082,-4.2161 1.6656,-3.7273 6.6786,-18.6654 9.1115,-27.1511 1.5037,-5.245 1.6478,-9.2466 1.1448,-31.8021 -0.3356,-15.0476 -0.1875,-26.8224 0.3553,-28.25 1.2926,-3.3998 3.4809,-3.0562 5.1089,0.8021 1.956,4.6358 1.948,51.9539 -0.01,59.75 -1.8666,7.4318 -7.0276,24.1351 -8.0436,26.0328 -0.4513,0.8431 -1.1619,3.0931 -1.5791,5 -0.4172,1.907 -1.8244,5.8009 -3.1272,8.6531 -1.3027,2.8523 -2.3686,5.6041 -2.3686,6.1152 0,1.2286 -3.9336,6.1989 -4.9059,6.1989 -0.4184,0 -1.0608,-0.3 -1.4274,-0.6667 z"
       id="path27610" />
    <path
       style="fill:#1615e4"
       d="m 1000.6315,1724.2981 c -2.37468,-2.3746 1.0496,-11.5102 10.7943,-28.7981 5.4456,-9.6609 8.5742,-16.2752 8.5742,-18.1271 0,-2.4246 -0.038,-2.4016 -11.6205,7.081 -3.438,2.8147 -3.6716,2.8671 -4.9556,1.1111 -1.8548,-2.5366 -0.7972,-9.9918 2.1519,-15.1694 1.5101,-2.6512 4.5963,-5.5758 8.7161,-8.26 3.5081,-2.2856 7.3199,-5.1636 8.4708,-6.3956 2.6218,-2.8066 6.3184,-11.5713 9.8015,-23.24 1.4776,-4.95 3.0801,-9.4275 3.5612,-9.95 0.481,-0.5225 0.8746,-1.7101 0.8746,-2.6392 0,-0.9291 0.8357,-2.7213 1.8572,-3.9828 l 1.8572,-2.2935 1.7141,2.616 c 1.3121,2.0025 1.5605,3.7457 1.0591,7.4328 -0.7571,5.5687 -5.0764,18.1518 -9.5482,27.8167 -2.3859,5.1566 -3.7705,10.4864 -2.8688,11.0436 0.5299,0.3276 3.8183,-1.9108 7.3074,-4.974 3.4891,-3.0633 6.8083,-5.5696 7.3759,-5.5696 2.4432,0 3.0111,7.7148 1.0497,14.2613 -0.9978,3.3301 -2.4394,4.8443 -8.6798,9.1161 -10.916,7.4724 -12.5671,9.2342 -17.4519,18.6226 -5.803,11.153 -10.3187,19.5049 -13.3942,24.7728 -2.4876,4.2611 -5.4488,6.7228 -6.6462,5.5253 z"
       id="path27608" />
    <path
       style="fill:#1615e4"
       d="m 1048.5284,1760.046 c -0.9874,-1.5977 0.5183,-5.8549 6.5331,-18.4709 13.7966,-28.9385 15.1998,-34.6384 15.4046,-62.5751 0.1398,-19.079 0.4249,-22.9941 1.8751,-25.75 1.7259,-3.2799 3.9597,-4.1902 5.2317,-2.1321 0.38,0.6148 0.8267,8.3773 0.9928,17.25 0.1661,8.8727 0.3317,16.3346 0.3681,16.5821 0.036,0.2475 0.5213,-0.01 1.0775,-0.5613 1.1117,-1.1117 4.2734,-16.5476 6.4292,-31.3887 1.6939,-11.6619 2.9731,-15.2596 5.2686,-14.8175 0.9368,0.1804 1.9644,1.4345 2.2836,2.7868 0.8128,3.4429 -0.6216,15.6074 -3.0501,25.8668 -1.1279,4.7652 -2.5271,10.9139 -3.1093,13.6639 -0.5822,2.75 -1.4011,5.9091 -1.8198,7.0203 -0.4187,1.1111 -1.2802,6.9611 -1.9146,13 -3.0997,29.5105 -4.756,37.6769 -8.8896,43.8317 -3.1094,4.6298 -6.2093,6.0136 -6.2093,2.7719 0,-1.1125 1.35,-8.8183 3,-17.1239 3.4343,-17.2871 3.264,-16 2.1161,-16 -0.8285,0 -1.8728,2.4012 -7.2849,16.75 -3.6769,9.7484 -10.6551,23.8872 -13.3987,27.1478 -2.7217,3.2346 -3.9107,3.7555 -4.9041,2.1482 z"
       id="path27606" />
    <path
       style="fill:#1615e4"
       d="m 2807,1821.1984 c 0,-0.4409 1.9125,-2.8381 4.25,-5.3272 11.4378,-12.1796 18.8625,-22.7605 29.7318,-42.3712 4.5726,-8.25 9.7015,-17.2268 11.3976,-19.9484 5.1623,-8.2839 7.3537,-12.4026 15.5904,-29.3016 7.5267,-15.4426 9.9266,-18.5682 11.3697,-14.8077 1.0999,2.8663 -0.6986,8.756 -5.7441,18.8108 -5.0526,10.069 -15.7649,28.8003 -18.1558,31.7469 -0.6695,0.825 -3.5656,6 -6.4358,11.5 -12.8562,24.6353 -23.3836,39.204 -33.9153,46.935 -4.5766,3.3596 -8.0885,4.5594 -8.0885,2.7634 z"
       id="path27598" />
    <path
       style="fill:#1615e4"
       d="m 2759.492,1821.9871 c -0.3598,-0.5822 5.8207,-7.68 13.7346,-15.7729 18.3628,-18.7781 30.6493,-34.2252 35.9648,-45.2167 2.619,-5.4156 6.3106,-15.6074 9.2353,-25.4975 5.4795,-18.5293 7.0828,-22.9807 9.1368,-25.3687 4.1235,-4.7938 5.8776,0.9405 3.0407,9.9406 -0.7677,2.4354 -2.1496,7.1281 -3.071,10.4281 -0.9214,3.3 -2.288,7.575 -3.0369,9.5 -0.7488,1.925 -2.7826,7.325 -4.5196,12 -1.7369,4.675 -4.5506,10.9505 -6.2526,13.9455 -11.4055,20.0701 -51.1077,61.097 -54.2321,56.0416 z"
       id="path27596" />
    <path
       id="path1477-57-9-1"
       style="fill:#cfc256;fill-opacity:1;stroke:#4d4d4d;stroke-width:2.629;stroke-linecap:square;stroke-linejoin:bevel;stroke-miterlimit:4;stroke-dasharray:none;paint-order:markers fill stroke"
       d="m 2065.8293,2004.8516 a 677.72064,675.28131 0 0 0 -45.8789,244.0781 677.72064,675.28131 0 0 0 46.6816,244.9375 248.06691,248.06691 0 0 1 -211.3047,-243.9258 248.06691,248.06691 0 0 1 210.502,-245.0898 z" />
    <path
       style="fill:#1615e4;stroke-width:0.92961"
       d="m 1917.2182,2127.4238 c 0.9054,-1.0064 2.2797,-2.7448 3.0539,-3.8632 6.6981,-9.675 21.7034,-29.8227 25.3729,-34.0685 2.5032,-2.8963 7.3801,-8.8766 10.8377,-13.2897 12.2182,-15.5956 17.5598,-21.2524 29.9282,-31.6943 8.6201,-7.2774 8.4833,-9.3636 -0.3292,-5.0172 -10.0479,4.9558 -20.2267,14.8014 -34.5017,33.3722 -4.968,6.463 -11.9987,15.0911 -15.6237,19.1735 -3.625,4.0826 -10.1112,12.2375 -14.4135,18.1223 -6.6004,9.0281 -7.8465,11.2921 -7.9758,14.4922 -0.1755,4.3407 1.2597,5.4307 3.6512,2.7727 z"
       id="path27724-1" />
    <path
       style="fill:#1615e4"
       d="m 1975.125,2139.1724 c 1.9112,-2.056 6.2669,-13.932 7.7937,-21.25 0.3442,-1.65 1.0058,-4.125 1.4702,-5.5 0.4644,-1.375 1.8475,-5.875 3.0736,-10 1.2261,-4.125 2.5774,-8.175 3.0028,-9 0.4254,-0.825 1.7815,-3.75 3.0136,-6.5 4.3186,-9.6388 17.3839,-26.4404 35.2828,-45.3728 9.9962,-10.5733 13.3294,-15.1272 11.0723,-15.1272 -3.9409,0 -23.3256,18.5221 -34.5367,33 -2.3424,3.025 -5.9719,7.5941 -8.0654,10.1536 -8.0881,9.8884 -15.6361,26.8787 -22.2525,50.0901 -0.9005,3.1591 -2.332,8.1169 -3.181,11.0174 -1.1552,3.9459 -1.2822,5.9616 -0.5049,8.0062 1.2538,3.2976 1.2188,3.2932 3.8315,0.4827 z"
       id="path27722-9" />
    <path
       style="fill:#1615e4"
       d="m 1914.0139,2234.209 c 0.8317,-1.3457 1.6335,-5.5371 3.8471,-20.1087 0.8207,-5.4022 1.707,-10.1698 1.9696,-10.5947 1.5023,-2.4308 6.5584,-28.6039 9.0583,-46.8906 0.7749,-5.6691 2.3994,-14.6691 3.6098,-20 3.5795,-15.7652 2.7279,-19.7886 -2.6863,-12.6903 -3.6149,4.7395 -5.0549,10.5991 -7.4947,30.4977 -2.2866,18.6496 -3.4533,25.52 -5.434,32 -0.7565,2.475 -1.6812,6.525 -2.0547,9 -0.3736,2.475 -1.0889,5.2802 -1.5896,6.2337 -1.3696,2.6083 -4.1487,19.5485 -4.1764,25.457 -0.03,6.4636 2.8183,10.5464 4.9509,7.0959 z"
       id="path27668-0" />
    <path
       style="fill:#1615e4"
       d="m 1946.7577,2233.2525 c 1.4187,-2.1652 1.7148,-6.4633 2.0281,-29.4328 0.407,-29.8343 -0.1119,-26.8782 8.9339,-50.8973 2.4856,-6.6 5.619,-14.7 6.9631,-18 4.5442,-11.1574 4.318,-17.1615 -0.4841,-12.848 -1.9465,1.7485 -7.8167,12.6979 -7.8167,14.5801 0,0.4827 -0.8821,2.8139 -1.9602,5.1806 -1.0781,2.3666 -2.9167,7.4044 -4.0858,11.1951 -1.1691,3.7907 -2.7525,8.3502 -3.5188,10.1321 -0.7663,1.782 -2.3027,7.7026 -3.4142,13.1571 -1.674,8.2144 -2.021,13.7774 -2.021,32.3993 0,20.4159 0.1707,22.6929 1.8572,24.7757 l 1.8572,2.2935 z"
       id="path27666-5" />
    <path
       style="fill:#1615e4"
       d="m 1931.9903,2358.0007 c 0.6719,-1.7509 0.6159,-2.2156 -2.5993,-21.5783 -1.233,-7.425 -2.3526,-15.525 -2.488,-18 -0.5555,-10.1495 -3.0664,-26.4274 -5.0132,-32.5 -0.7053,-2.2 -1.5891,-6.925 -1.9639,-10.5 -0.3749,-3.575 -1.0663,-7.85 -1.5366,-9.5 -0.4702,-1.65 -1.1491,-6.4491 -1.5085,-10.6646 -0.7443,-8.7305 -2.3493,-12.0343 -4.8416,-9.9659 -2.2627,1.8779 -3.0065,8.8827 -1.7238,16.2333 0.614,3.5185 1.7243,10.0622 2.4673,14.5417 0.743,4.4795 1.6015,8.55 1.9077,9.0456 1.213,1.9626 4.5323,21.3451 5.1906,30.3099 1.3776,18.7581 4.0159,34.3946 6.5812,39.0046 2.6562,4.7733 4.5884,6.0225 5.5281,3.5737 z"
       id="path27612-6" />
    <path
       style="fill:#1615e4"
       d="m 1962.7153,2358.7557 c 0.9666,-0.9665 0.8182,-8.0609 -0.2112,-10.0969 -1.8845,-3.7272 -4.1221,-9.3561 -4.1221,-10.3692 0,-0.5857 -0.6337,-2.4829 -1.4082,-4.2161 -1.6656,-3.7273 -6.6786,-18.6654 -9.1115,-27.1511 -1.5037,-5.245 -1.6478,-9.2466 -1.1448,-31.8021 0.3356,-15.0476 0.1875,-26.8224 -0.3553,-28.25 -1.2926,-3.3998 -3.4809,-3.0562 -5.1089,0.8021 -1.956,4.6358 -1.948,51.9539 0.01,59.75 1.8666,7.4318 7.0276,24.1351 8.0436,26.0328 0.4513,0.8431 1.1619,3.0931 1.5791,5 0.4172,1.907 1.8244,5.8009 3.1272,8.6531 1.3027,2.8523 2.3686,5.6041 2.3686,6.1152 0,1.2286 3.9336,6.1989 4.9059,6.1989 0.4184,0 1.0608,-0.3 1.4274,-0.6667 z"
       id="path27610-7" />
    <path
       style="fill:#1615e4"
       d="m 1991.382,2465.6208 c 0,-0.4409 -1.9125,-2.8381 -4.25,-5.3272 -11.4378,-12.1796 -18.8625,-22.7605 -29.7318,-42.3712 -4.5726,-8.25 -9.7015,-17.2268 -11.3976,-19.9484 -5.1623,-8.2839 -7.3537,-12.4026 -15.5904,-29.3016 -7.5267,-15.4426 -9.9266,-18.5682 -11.3697,-14.8077 -1.0999,2.8663 0.6986,8.756 5.7441,18.8108 5.0526,10.069 15.7649,28.8003 18.1558,31.7469 0.6695,0.825 3.5656,6 6.4358,11.5 12.8562,24.6353 23.3836,39.204 33.9153,46.935 4.5766,3.3596 8.0885,4.5594 8.0885,2.7634 z"
       id="path27598-7" />
    <path
       style="fill:#1615e4"
       d="m 2038.89,2466.4095 c 0.3598,-0.5822 -5.8207,-7.68 -13.7346,-15.7729 -18.3628,-18.7781 -30.6493,-34.2252 -35.9648,-45.2167 -2.619,-5.4156 -6.3106,-15.6074 -9.2353,-25.4975 -5.4795,-18.5293 -7.0828,-22.9807 -9.1368,-25.3687 -4.1235,-4.7938 -5.8776,0.9405 -3.0407,9.9406 0.7677,2.4354 2.1496,7.1281 3.071,10.4281 0.9214,3.3 2.288,7.575 3.0369,9.5 0.7488,1.925 2.7826,7.325 4.5196,12 1.7369,4.675 4.5506,10.9505 6.2526,13.9455 11.4055,20.0701 51.1077,61.097 54.2321,56.0416 z"
       id="path27596-4" />
    <path
       style="fill:#1615e4"
       d="m 2158,1834.1187 c 0,-0.4847 1.6875,-2.1605 3.75,-3.7239 9.6312,-7.3007 27.4301,-22.8532 33.7807,-29.5171 15.2461,-15.9986 20.3468,-23.2257 26.3801,-37.3777 2.3448,-5.5 4.8553,-11.35 5.579,-13 0.7236,-1.65 2.6945,-7.5 4.3798,-13 3.1431,-10.2577 7.6412,-17.5384 9.9529,-16.1097 2.0439,1.2632 0.9096,7.5853 -3.3389,18.6097 -0.7418,1.925 -2.7738,7.325 -4.5154,12 -1.7416,4.675 -3.6361,9.0734 -4.2099,9.7742 -0.5738,0.7008 -0.808,1.5094 -0.5205,1.797 1.2686,1.2686 9.3567,-11.7289 17.7792,-28.5712 5.7102,-11.4185 7.5114,-14 9.768,-14 2.5148,0 0.8215,8.5299 -3.2544,16.3945 -4.3603,8.4132 -4.6826,8.9326 -17.1325,27.6055 -5.3172,7.975 -11.7057,17.875 -14.1966,22 -11.8424,19.6114 -29.9521,39.3028 -41.5338,45.1615 -3.2077,1.6227 -6.2836,2.7999 -6.8354,2.6159 -0.5517,-0.1839 2.0728,-3.085 5.8323,-6.4468 3.7595,-3.3619 8.9224,-8.074 11.4732,-10.4715 7.6544,-7.1943 18.3417,-20.8591 16.314,-20.8591 -0.3402,0 -5.6435,4.8489 -11.7852,10.7754 -6.1416,5.9265 -12.9666,12.0996 -15.1666,13.7181 -2.2,1.6185 -5.4791,4.1954 -7.2869,5.7265 -3.3803,2.8628 -12.3423,7.78 -14.1799,7.78 -0.5682,0 -1.0332,-0.3966 -1.0332,-0.8813 z"
       id="path27592" />
    <path
       style="fill:#1615e4"
       d="m 1321,2163.9201 c 0,-3.6064 -3.211,-25.8047 -4.0025,-27.6701 -0.8443,-1.99 -1.6793,-2.2518 -7.2261,-2.2653 -3.4493,-0.01 -6.8987,-0.4126 -7.6655,-0.8981 -2.8214,-1.7866 0.8627,-13.2854 5.9303,-18.5096 1.6514,-1.7025 2.3145,-1.7885 5.7806,-0.75 9.8038,2.9373 11.1832,1.1128 11.1832,-14.7911 0,-8.7452 0.4027,-11.8148 2.0601,-15.703 2.1618,-5.0713 8.4283,-12.3329 10.6428,-12.3329 1.6561,0 1.6291,1.5999 -0.2029,12 -0.8235,4.675 -1.4979,10.6289 -1.4986,13.2309 0,5.3207 0.3269,5.5284 9.4986,6.0078 4.5625,0.2384 5.0264,0.4891 5.3023,2.8646 0.3614,3.1129 -3.6714,12.476 -6.7575,15.6892 -1.2553,1.3069 -2.9204,2.0752 -3.8733,1.7871 -0.9193,-0.2779 -3.6023,-0.9283 -5.9621,-1.4453 -3.852,-0.8439 -4.4354,-0.719 -5.7066,1.2211 -1.4189,2.1655 -1.2299,6.305 1.0668,23.3712 0.7417,5.5109 -0.7151,12.8936 -3.3591,17.0234 -1.4673,2.2918 -5.2105,3.1324 -5.2105,1.1701 z"
       id="path27570" />
    <path
       style="fill:#1615e4"
       d="m 1040.908,2163.3988 c -0.7744,-0.9279 -2.308,-3.1646 -3.408,-4.9706 -4.9301,-8.094 -14.1476,-20.7925 -16.3508,-22.5255 -1.8769,-1.4764 -4.0578,-1.9027 -9.7332,-1.9027 -7.0804,0 -7.3929,-0.1039 -9.7754,-3.25 -2.81746,-3.7204 -5.99479,-12.7068 -5.45194,-15.4196 0.3904,-1.951 1.46115,-2.0328 10.06134,-0.7686 2.6125,0.3841 4.75,0.3852 4.75,0 0,-2.0836 -3.5293,-6.3473 -15.06042,-18.1939 -11.9748,-12.3 -16.93958,-19.28 -16.93958,-23.813 0,-3.6448 3.93528,-0.7258 17.30892,12.8388 7.80508,7.9166 15.17398,14.8916 16.37538,15.5 1.2013,0.6085 5.1388,1.1063 8.75,1.1063 7.6801,0 9.3459,1.1834 13.1417,9.3357 2.6232,5.634 3.1287,10.2627 1.1915,10.9085 -0.6779,0.2259 -3.812,-0.1275 -6.9647,-0.7854 -3.1527,-0.6579 -5.9443,-0.984 -6.2036,-0.7246 -0.9565,0.9564 1.6004,5.7617 5.1981,9.769 12.3607,13.7679 18.7578,24.9114 18.0067,31.3669 -0.3607,3.1001 -2.918,3.8985 -4.896,1.5287 z"
       id="path27568" />
    <path
       style="fill:#1615e4"
       d="m 1361.6667,2231.3333 c -1.6248,-1.6247 -0.3996,-15.8812 2.8645,-33.3333 0.8744,-4.675 1.8107,-10.075 2.0807,-12 0.4644,-3.3109 0.4066,-3.3944 -1.0694,-1.5466 -0.8582,1.0743 -3.0189,5.5715 -4.8014,9.9937 -4.3773,10.859 -7.994,17.8902 -9.4234,18.3194 -0.6503,0.1953 -1.674,-0.5637 -2.2749,-1.6866 -2.1352,-3.9896 0.3896,-13.0861 7.5668,-27.2623 11.2296,-22.1804 12.0367,-23.9899 14.8611,-33.3176 2.6499,-8.7515 7.7674,-22.3643 11.842,-31.5 4.6815,-10.4966 10.5655,-14.8935 9.2946,-6.9454 -0.3566,2.2301 -1.5017,5.9426 -2.5447,8.25 -4.7053,10.4102 -6.5229,14.9018 -10.1668,25.1245 -4.394,12.3269 -4.1982,11.5709 -2.9978,11.5709 0.4939,0 4.3477,-5.8788 8.564,-13.064 7.6903,-13.1055 10.5576,-16.936 12.6773,-16.936 1.8508,0 0.3039,8.85 -2.6218,15 -1.4391,3.025 -4.8355,9.1 -7.5476,13.5 -2.7122,4.4 -5.4212,9.1242 -6.0202,10.4982 -0.5989,1.374 -1.6413,3.174 -2.3164,4 -3.8449,4.704 -9.7102,29.6873 -11.1087,47.3179 -0.8293,10.4555 -3.98,16.8952 -6.8579,14.0172 z"
       id="path27540" />
    <path
       style="fill:#1615e4"
       d="m 1100.6372,2229.75 c -0.9184,-1.4667 -1.6265,-6.7756 -2.0341,-15.25 -0.7857,-16.3371 -2.5795,-31.5 -3.7266,-31.5 -0.4821,0 -0.885,0.3375 -0.8953,0.75 -0.1072,4.2744 -4.1126,27.7814 -4.8614,28.5302 -1.7201,1.7201 -3.9598,-0.042 -5.052,-3.9749 -1.4595,-5.2559 -1.3399,-9.2344 0.6576,-21.8812 3.4062,-21.5664 2.0179,-32.4848 -7.8133,-61.4499 -4.1872,-12.3362 -4.8561,-16.9742 -2.4482,-16.9742 3.8743,0 8.9323,12.1131 14.8336,35.5245 1.7771,7.0501 3.7453,12.9898 4.3736,13.1992 0.827,0.2757 1.0993,-3.707 0.9857,-14.4214 -0.1797,-16.9654 0.5989,-18.2921 5.8004,-9.8834 2.9011,4.6899 3.0404,5.4115 2.9911,15.5 -0.028,5.8196 -0.242,16.4311 -0.4746,23.5811 -0.2327,7.15 0.1664,18.625 0.8869,25.5 1.8502,17.6544 2.4848,29.4878 1.7404,32.4534 -0.7904,3.1493 -3.0914,3.2868 -4.9638,0.2966 z"
       id="path27538" />
    <path
       style="fill:#1615e4"
       d="m 1300.6684,2371.7106 c -1.3053,-1.7658 -2.7772,-3.8856 -3.2709,-4.7106 -0.4936,-0.825 -1.1225,-10.2385 -1.3975,-20.919 -0.3312,-12.8621 -0.8727,-19.5424 -1.6037,-19.7845 -0.6071,-0.2011 -3.0039,2.151 -5.3262,5.2269 -2.3223,3.0759 -4.7506,5.4314 -5.3962,5.2346 -2.2759,-0.694 -5.6739,-9.0608 -5.6739,-13.9709 0,-4.5976 0.2602,-5.0352 6.5061,-10.9426 4.4581,-4.2164 6.7987,-7.2853 7.4353,-9.749 0.8419,-3.2579 3.3009,-18.0996 5.0345,-30.3857 0.3717,-2.6345 1.3848,-5.499 2.2512,-6.3655 1.4339,-1.4338 1.7104,-1.3628 3.078,0.7902 3.338,5.2548 3.111,10.8676 -1.3423,33.1918 -2.0597,10.325 -0.4537,16.8048 2.9096,11.7394 3.4636,-5.2165 7.884,-9.3731 9.364,-8.8052 1.9772,0.7587 4.7636,8.9877 4.7636,14.0683 0,3.4936 -0.6506,4.6027 -5.3969,9.1998 -9.1112,8.8246 -8.9394,8.2847 -8.1871,25.73 0.3615,8.3827 0.9128,16.8627 1.225,18.8444 0.8022,5.0921 -1.7798,5.9269 -4.9726,1.6076 z"
       id="path27500" />
    <path
       style="fill:#1615e4"
       d="m 1000.6315,2374.2981 c -2.37468,-2.3746 1.0496,-11.5102 10.7943,-28.7981 5.4456,-9.6609 8.5742,-16.2752 8.5742,-18.1271 0,-2.4246 -0.038,-2.4016 -11.6205,7.081 -3.438,2.8147 -3.6716,2.8671 -4.9556,1.1111 -1.8548,-2.5366 -0.7972,-9.9918 2.1519,-15.1694 1.5101,-2.6512 4.5963,-5.5758 8.7161,-8.26 3.5081,-2.2856 7.3199,-5.1636 8.4708,-6.3956 2.6218,-2.8066 6.3184,-11.5713 9.8015,-23.24 1.4776,-4.95 3.0801,-9.4275 3.5612,-9.95 0.481,-0.5225 0.8746,-1.7101 0.8746,-2.6392 0,-0.9291 0.8357,-2.7213 1.8572,-3.9828 l 1.8572,-2.2935 1.7141,2.616 c 1.3121,2.0025 1.5605,3.7457 1.0591,7.4328 -0.7571,5.5687 -5.0764,18.1518 -9.5482,27.8167 -2.3859,5.1566 -3.7705,10.4864 -2.8688,11.0436 0.5299,0.3276 3.8183,-1.9108 7.3074,-4.974 3.4891,-3.0633 6.8083,-5.5696 7.3759,-5.5696 2.4432,0 3.0111,7.7148 1.0497,14.2613 -0.9978,3.3301 -2.4394,4.8443 -8.6798,9.1161 -10.916,7.4724 -12.5671,9.2342 -17.4519,18.6226 -5.803,11.153 -10.3187,19.5049 -13.3942,24.7728 -2.4876,4.2611 -5.4488,6.7228 -6.6462,5.5253 z"
       id="path27498" />
    <path
       style="fill:#1615e4"
       d="m 1379.7006,2406.75 c -1.8884,-2.3375 -5.0321,-8.075 -6.986,-12.75 -4.398,-10.5224 -12.7146,-33.7902 -12.7146,-35.5721 0,-1.2769 -2.2634,-6.4064 -10.891,-24.6815 -9.6499,-20.4405 -11.7314,-28.1454 -8.7172,-32.2675 1.1825,-1.6172 1.6336,-1.7027 3,-0.5687 0.8845,0.7341 1.6082,1.7087 1.6082,2.1658 0,1.9667 12.3008,31.924 13.1084,31.924 1.1925,0 1.1373,-0.8075 -0.5598,-8.1879 -2.8998,-12.611 -5.514,-33.7729 -4.5012,-36.4367 2.4165,-6.356 6.2775,1.2498 7.9186,15.5989 1.5966,13.9608 3.5127,24.3719 6.8142,37.0257 1.0879,4.1696 10.1138,21.6826 16.2345,31.5 7.0042,11.2345 9.9853,17.546 9.9853,21.1409 0,5.8431 -2.8512,3.9561 -9.2787,-6.1409 -2.4507,-3.85 -6.7943,-11.1625 -9.6523,-16.25 -2.858,-5.0875 -5.5997,-9.25 -6.0927,-9.25 -1.2518,0 4.8145,16.6007 11.5407,31.5814 5.1985,11.5784 6.0905,15.4186 3.5813,15.4186 -0.5304,0 -2.5094,-1.9125 -4.3977,-4.25 z"
       id="path27490" />
    <path
       style="fill:#1615e4"
       d="m 1048.5284,2410.046 c -0.9874,-1.5977 0.5183,-5.8549 6.5331,-18.4709 13.7966,-28.9385 15.1998,-34.6384 15.4046,-62.5751 0.1398,-19.079 0.4249,-22.9941 1.8751,-25.75 1.7259,-3.2799 3.9597,-4.1902 5.2317,-2.1321 0.38,0.6148 0.8267,8.3773 0.9928,17.25 0.1661,8.8727 0.3317,16.3346 0.3681,16.5821 0.036,0.2475 0.5213,-0.01 1.0775,-0.5613 1.1117,-1.1117 4.2734,-16.5476 6.4292,-31.3887 1.6939,-11.6619 2.9731,-15.2596 5.2686,-14.8175 0.9368,0.1804 1.9644,1.4345 2.2836,2.7868 0.8128,3.4429 -0.6216,15.6074 -3.0501,25.8668 -1.1279,4.7652 -2.5271,10.9139 -3.1093,13.6639 -0.5822,2.75 -1.4011,5.9091 -1.8198,7.0203 -0.4187,1.1111 -1.2802,6.9611 -1.9146,13 -3.0997,29.5105 -4.756,37.6769 -8.8896,43.8317 -3.1094,4.6298 -6.2093,6.0136 -6.2093,2.7719 0,-1.1125 1.35,-8.8183 3,-17.1239 3.4343,-17.2871 3.264,-16 2.1161,-16 -0.8285,0 -1.8728,2.4012 -7.2849,16.75 -3.6769,9.7484 -10.6551,23.8872 -13.3987,27.1478 -2.7217,3.2346 -3.9107,3.7555 -4.9041,2.1482 z"
       id="path27488" />
  </g>
</svg>
